<svg width="370" height="370" viewBox="0 0 370 370" fill="none" xmlns="http://www.w3.org/2000/svg">
<path fill-rule="evenodd" clip-rule="evenodd" d="M237.143 261.038C233.268 246.908 208.165 256.876 199.533 259.867C196.363 260.966 194.562 263.26 193.87 265.831C193.095 266.349 192.314 266.857 191.565 267.422L188.068 260.921C179.606 256.03 169.866 255.137 160.072 255.137H150.404L93.6411 255.153C91.7176 255.153 90.1436 253.575 90.1436 251.647V120.193H76.1567C72.2908 120.193 69.1616 123.33 69.1616 127.202V267.422C69.1616 271.297 72.2908 274.433 76.1567 274.433H149.422C159.914 274.433 170.25 277.027 179.499 281.987L180.723 282.637C187.492 286.282 195.642 286.282 202.407 282.637L203.632 281.987C204.995 281.252 206.393 280.567 207.809 279.936C207.768 279.823 207.737 279.712 207.699 279.599C207.875 279.523 208.052 279.46 208.231 279.375C213.923 276.642 219.589 274.051 225.945 273.496C232.563 272.918 239.312 268.949 237.143 261.038Z" fill="#5EBCD6"/>
<mask id="mask0" mask-type="alpha" maskUnits="userSpaceOnUse" x="52" y="73" width="266" height="224">
<path fill-rule="evenodd" clip-rule="evenodd" d="M52 296.097H318V73H52V296.097Z" fill="white"/>
</mask>
<g mask="url(#mask0)">
<path fill-rule="evenodd" clip-rule="evenodd" d="M297.621 272.5H312.637V118.048H297.621V272.5Z" fill="#5EBCD6"/>
<path fill-rule="evenodd" clip-rule="evenodd" d="M314.657 208.145C312.812 208.145 311.314 206.626 311.314 204.753V125.243C311.314 123.24 309.711 121.614 307.741 121.614H297.747C295.901 121.614 294.404 120.095 294.404 118.222C294.404 116.35 295.901 114.831 297.747 114.831H307.741C313.397 114.831 318 119.501 318 125.243V204.753C318 206.626 316.503 208.145 314.657 208.145Z" fill="#001C41"/>
<path fill-rule="evenodd" clip-rule="evenodd" d="M191.837 286.443C187.558 286.443 183.289 285.401 179.391 283.316L178.172 282.668C169.428 277.994 159.572 275.525 149.659 275.525H76.3289C70.6006 275.525 65.9436 270.871 65.9436 265.146V125.21C65.9436 119.485 70.6006 114.831 76.3289 114.831H86.4432C88.3117 114.831 89.8273 116.342 89.8273 118.21C89.8273 120.077 88.3117 121.592 86.4432 121.592H76.3289C74.3344 121.592 72.7117 123.214 72.7117 125.21V265.146C72.7117 267.139 74.3344 268.761 76.3289 268.761H149.659C160.681 268.761 171.643 271.507 181.364 276.703L182.58 277.352C188.381 280.454 195.303 280.454 201.104 277.352L204.677 275.421C206.315 274.527 208.373 275.141 209.261 276.788C210.15 278.429 209.539 280.482 207.897 281.37L204.308 283.31C200.401 285.398 196.119 286.44 191.837 286.443Z" fill="#001C41"/>
<path fill-rule="evenodd" clip-rule="evenodd" d="M192.072 287.516C187.8 287.516 183.532 286.441 179.641 284.291L176.046 282.285C174.404 281.369 173.794 279.252 174.681 277.56C175.568 275.861 177.622 275.231 179.258 276.15L182.84 278.151C188.618 281.34 195.528 281.336 201.316 278.141L202.536 277.469C212.236 272.114 223.179 269.282 234.178 269.282C236.043 269.282 237.556 270.844 237.556 272.77C237.556 274.696 236.043 276.258 234.178 276.258C224.286 276.258 214.444 278.803 205.719 283.623L204.502 284.295C200.611 286.441 196.34 287.516 192.072 287.516Z" fill="#001C41"/>
<path fill-rule="evenodd" clip-rule="evenodd" d="M307.74 275.718C305.894 275.718 304.396 274.201 304.396 272.331C304.396 270.462 305.894 268.945 307.74 268.945C309.71 268.945 311.314 267.322 311.314 265.326V125.222C311.314 123.227 309.71 121.603 307.74 121.603H297.744C295.898 121.603 294.404 120.086 294.404 118.217C294.404 116.347 295.898 114.831 297.744 114.831H307.74C313.396 114.831 318 119.494 318 125.222V265.326C318 271.058 313.396 275.718 307.74 275.718Z" fill="#001C41"/>
<path fill-rule="evenodd" clip-rule="evenodd" d="M192.344 269.282C191.64 269.282 190.926 269.061 190.319 268.6C181.89 262.239 171.441 258.738 160.895 258.738L94.5436 258.757H94.5404C91.7734 258.757 89.1699 257.678 87.2142 255.711C85.2553 253.747 84.1768 251.133 84.1768 248.355V108.071C84.1768 102.335 88.8272 97.6694 94.5404 97.6694H165.281C176.409 97.6694 186.867 102.02 194.734 109.918C195.369 110.553 195.725 111.415 195.725 112.314V238.196C195.725 240.068 194.212 241.587 192.348 241.587C190.483 241.587 188.971 240.068 188.971 238.196V113.757C182.503 107.743 174.145 104.447 165.281 104.447H94.5404C92.5501 104.447 90.9307 106.073 90.9307 108.071V248.355C90.9307 249.321 91.3049 250.234 91.9872 250.915C92.6696 251.6 93.5751 251.976 94.5404 251.976L160.895 251.957C172.894 251.957 184.785 255.944 194.379 263.183C195.869 264.307 196.168 266.432 195.045 267.931C194.385 268.815 193.369 269.282 192.344 269.282Z" fill="#001C41"/>
<path fill-rule="evenodd" clip-rule="evenodd" d="M191.627 269.282C190.593 269.282 189.569 268.82 188.903 267.944C187.771 266.462 188.072 264.354 189.575 263.241C199.249 256.071 211.238 252.121 223.338 252.121H233.081C234.962 252.121 236.484 253.625 236.484 255.48C236.484 257.334 234.962 258.838 233.081 258.838H223.338C212.706 258.838 202.166 262.306 193.669 268.607C193.057 269.063 192.337 269.282 191.627 269.282Z" fill="#001C41"/>
<path fill-rule="evenodd" clip-rule="evenodd" d="M171.971 212.435H107.932C106.068 212.435 104.556 210.994 104.556 209.218C104.556 207.441 106.068 206 107.932 206H171.971C173.835 206 175.346 207.441 175.346 209.218C175.346 210.994 173.835 212.435 171.971 212.435Z" fill="#001C41"/>
<path fill-rule="evenodd" clip-rule="evenodd" d="M150.471 233.887H107.98C106.09 233.887 104.556 232.446 104.556 230.669C104.556 228.893 106.09 227.452 107.98 227.452H150.471C152.361 227.452 153.895 228.893 153.895 230.669C153.895 232.446 152.361 233.887 150.471 233.887Z" fill="#001C41"/>
<path fill-rule="evenodd" clip-rule="evenodd" d="M172.007 233.887H160.454C158.61 233.887 157.114 232.446 157.114 230.669C157.114 228.893 158.61 227.452 160.454 227.452H172.007C173.851 227.452 175.347 228.893 175.347 230.669C175.347 232.446 173.851 233.887 172.007 233.887Z" fill="#001C41"/>
<path fill-rule="evenodd" clip-rule="evenodd" d="M192.667 246.758C190.803 246.758 189.29 245.24 189.29 243.368V112.312C189.29 111.412 189.646 110.551 190.281 109.916C198.148 102.019 208.606 97.6694 219.734 97.6694H290.475C296.188 97.6694 300.839 102.335 300.839 108.07V214.102C300.839 215.974 299.326 217.489 297.462 217.489C295.597 217.489 294.085 215.974 294.085 214.102V108.07C294.085 106.072 292.465 104.446 290.475 104.446H219.734C210.87 104.446 202.512 107.741 196.044 113.754V243.368C196.044 245.24 194.532 246.758 192.667 246.758Z" fill="#001C41"/>
<path fill-rule="evenodd" clip-rule="evenodd" d="M247.036 170.605H211.988C210.116 170.605 208.597 169.164 208.597 167.387C208.597 165.611 210.116 164.169 211.988 164.169H247.036C248.909 164.169 250.428 165.611 250.428 167.387C250.428 169.164 248.909 170.605 247.036 170.605Z" fill="#001C41"/>
<path fill-rule="evenodd" clip-rule="evenodd" d="M254.511 149.153H212.021C210.13 149.153 208.597 147.712 208.597 145.936C208.597 144.159 210.13 142.718 212.021 142.718H254.511C256.402 142.718 257.936 144.159 257.936 145.936C257.936 147.712 256.402 149.153 254.511 149.153Z" fill="#001C41"/>
<path fill-rule="evenodd" clip-rule="evenodd" d="M233.085 192.057H211.996C210.119 192.057 208.597 190.615 208.597 188.839C208.597 187.062 210.119 185.621 211.996 185.621H233.085C234.962 185.621 236.484 187.062 236.484 188.839C236.484 190.615 234.962 192.057 233.085 192.057Z" fill="#001C41"/>
<path fill-rule="evenodd" clip-rule="evenodd" d="M254.511 128.774H212.021C210.13 128.774 208.597 127.333 208.597 125.557C208.597 123.78 210.13 122.339 212.021 122.339H254.511C256.402 122.339 257.936 123.78 257.936 125.557C257.936 127.333 256.402 128.774 254.511 128.774Z" fill="#001C41"/>
<path fill-rule="evenodd" clip-rule="evenodd" d="M284.42 170.605H279.715C277.757 170.605 276.168 169.164 276.168 167.387C276.168 165.611 277.757 164.169 279.715 164.169H284.42C286.379 164.169 287.967 165.611 287.967 167.387C287.967 169.164 286.379 170.605 284.42 170.605Z" fill="#001C41"/>
<path fill-rule="evenodd" clip-rule="evenodd" d="M284.42 149.153H279.715C277.757 149.153 276.168 147.712 276.168 145.936C276.168 144.159 277.757 142.718 279.715 142.718H284.42C286.379 142.718 287.967 144.159 287.967 145.936C287.967 147.712 286.379 149.153 284.42 149.153Z" fill="#001C41"/>
<path fill-rule="evenodd" clip-rule="evenodd" d="M284.42 128.774H279.715C277.757 128.774 276.168 127.333 276.168 125.557C276.168 123.78 277.757 122.339 279.715 122.339H284.42C286.379 122.339 287.967 123.78 287.967 125.557C287.967 127.333 286.379 128.774 284.42 128.774Z" fill="#001C41"/>
<path fill-rule="evenodd" clip-rule="evenodd" d="M223.485 212.435H211.94C210.092 212.435 208.597 210.994 208.597 209.218C208.597 207.441 210.092 206 211.94 206H223.485C225.332 206 226.831 207.441 226.831 209.218C226.831 210.994 225.332 212.435 223.485 212.435Z" fill="#001C41"/>
<path fill-rule="evenodd" clip-rule="evenodd" d="M219.248 233.887H211.886C210.068 233.887 208.597 232.446 208.597 230.669C208.597 228.893 210.068 227.452 211.886 227.452H219.248C221.066 227.452 222.54 228.893 222.54 230.669C222.54 232.446 221.066 233.887 219.248 233.887Z" fill="#001C41"/>
<path fill-rule="evenodd" clip-rule="evenodd" d="M101.154 290.734H76.5168C62.9992 290.734 52 279.706 52 266.152V230.863C52 228.979 53.5238 227.452 55.4024 227.452C57.281 227.452 58.8048 228.979 58.8048 230.863V266.152C58.8048 275.945 66.75 283.911 76.5168 283.911H101.154C103.033 283.911 104.556 285.439 104.556 287.323C104.556 289.206 103.033 290.734 101.154 290.734Z" fill="#001C41"/>
<path fill-rule="evenodd" clip-rule="evenodd" d="M114.746 283.226C112.673 283.226 110.992 284.907 110.992 286.981C110.992 289.052 112.673 290.734 114.746 290.734C116.819 290.734 118.5 289.052 118.5 286.981C118.5 284.907 116.819 283.226 114.746 283.226Z" fill="#001C41"/>
<path fill-rule="evenodd" clip-rule="evenodd" d="M272.408 220.456C270.768 218.79 268.486 217.798 265.98 217.798C260.964 217.798 256.864 221.853 256.864 226.807V240.323H275.097V226.807C275.097 224.328 274.093 222.076 272.408 220.456Z" fill="#F56464"/>
<path fill-rule="evenodd" clip-rule="evenodd" d="M258.584 197.781C247.742 197.781 238.923 206.693 238.923 217.648V269.433C238.923 280.388 247.742 289.299 258.584 289.299H274.452C285.295 289.299 294.114 280.388 294.114 269.433V217.648C294.114 206.693 285.295 197.781 274.452 197.781H258.584ZM274.451 296.097H258.583C244.033 296.097 232.195 284.135 232.195 269.432V217.648C232.195 202.946 244.033 190.984 258.583 190.984H274.451C289.002 190.984 300.84 202.946 300.84 217.648V269.432C300.84 284.135 289.002 296.097 274.451 296.097Z" fill="#001C41"/>
<path fill-rule="evenodd" clip-rule="evenodd" d="M297.476 246.758H235.555C233.698 246.758 232.195 245.317 232.195 243.54C232.195 241.764 233.698 240.323 235.555 240.323H297.476C299.333 240.323 300.84 241.764 300.84 243.54C300.84 245.317 299.333 246.758 297.476 246.758Z" fill="#001C41"/>
<path fill-rule="evenodd" clip-rule="evenodd" d="M266.344 219.944C264.473 219.944 262.955 218.423 262.955 216.549V98.7133C262.955 88.2794 254.477 79.7894 244.058 79.7894H137.467C126.609 79.7894 117.772 88.6366 117.772 99.513C117.772 101.387 116.254 102.908 114.382 102.908C112.51 102.908 110.992 101.387 110.992 99.513C110.992 84.8942 122.869 73 137.467 73H244.058C258.214 73 269.734 84.537 269.734 98.7133V216.549C269.734 218.423 268.216 219.944 266.344 219.944Z" fill="#001C41"/>
<path fill-rule="evenodd" clip-rule="evenodd" d="M274.916 242.467C273.04 242.467 271.518 240.955 271.518 239.09V225.766C271.518 224.291 270.948 222.929 269.914 221.929C268.835 220.832 267.465 220.263 265.981 220.263C262.928 220.263 260.441 222.731 260.441 225.766V239.09C260.441 240.955 258.919 242.467 257.043 242.467C255.166 242.467 253.645 240.955 253.645 239.09V225.766C253.645 219.008 259.178 213.508 265.981 213.508C269.316 213.508 272.419 214.803 274.716 217.153C277.01 219.366 278.314 222.451 278.314 225.766V239.09C278.314 240.955 276.792 242.467 274.916 242.467Z" fill="#001C41"/>
<path fill-rule="evenodd" clip-rule="evenodd" d="M139.265 134.138H135.035C134.842 134.138 134.652 134.117 134.464 134.076L110.556 128.944C109.249 128.664 108.311 127.473 108.311 126.092V120.961C108.311 119.352 109.573 118.049 111.128 118.049H139.817C141.372 118.049 142.634 119.352 142.634 120.961C142.634 122.568 141.372 123.872 139.817 123.872H114.636L135.324 128.314H139.265C140.82 128.314 142.082 129.619 142.082 131.226C142.082 132.833 140.82 134.138 139.265 134.138Z" fill="#001C41"/>
<path fill-rule="evenodd" clip-rule="evenodd" d="M139.265 134.138H135.035C134.842 134.138 134.652 134.117 134.464 134.076L110.556 128.944C109.249 128.664 108.311 127.473 108.311 126.092V120.961C108.311 119.352 109.573 118.049 111.128 118.049H139.817C141.372 118.049 142.634 119.352 142.634 120.961C142.634 122.568 141.372 123.872 139.817 123.872H114.636L135.324 128.314H139.265C140.82 128.314 142.082 129.619 142.082 131.226C142.082 132.833 140.82 134.138 139.265 134.138Z" fill="#001C41"/>
<path fill-rule="evenodd" clip-rule="evenodd" d="M169.842 198.492H114.353C112.794 198.492 111.529 197.236 111.529 195.689V185.074C111.529 183.526 112.794 182.271 114.353 182.271H125.354V178.119C125.354 176.571 126.619 175.315 128.178 175.315H137.706V136.941C137.706 135.392 138.971 134.137 140.53 134.137C142.09 134.137 143.354 135.392 143.354 136.941V178.119C143.354 179.668 142.09 180.922 140.53 180.922H131.001V185.074C131.001 186.621 129.738 187.877 128.178 187.877H117.176V192.885H167.018V188.059H142.932C141.373 188.059 140.108 186.805 140.108 185.256C140.108 183.709 141.373 182.453 142.932 182.453H169.842C171.401 182.453 172.666 183.709 172.666 185.256V195.689C172.666 197.236 171.401 198.492 169.842 198.492Z" fill="#001C41"/>
<path fill-rule="evenodd" clip-rule="evenodd" d="M157.958 185.621C156.353 185.621 155.049 184.363 155.049 182.812V181.586H146.614C145.009 181.586 143.706 180.329 143.706 178.777C143.706 177.227 145.009 175.968 146.614 175.968H157.958C159.564 175.968 160.867 177.227 160.867 178.777V182.812C160.867 184.363 159.564 185.621 157.958 185.621Z" fill="#001C41"/>
<path fill-rule="evenodd" clip-rule="evenodd" d="M101.436 155.589C101.031 155.589 100.618 155.498 100.228 155.304C98.8452 154.62 98.2669 152.915 98.9342 151.496L109.185 129.749V125.19C109.185 123.616 110.431 122.339 111.965 122.339C113.502 122.339 114.746 123.616 114.746 125.19V130.402C114.746 130.832 114.651 131.255 114.469 131.642L103.942 153.978C103.462 154.996 102.469 155.589 101.436 155.589Z" fill="#001C41"/>
<path fill-rule="evenodd" clip-rule="evenodd" d="M122.692 155.589C121.659 155.589 120.668 154.996 120.187 153.978L109.659 131.642C109.477 131.255 109.383 130.832 109.383 130.402V125.19C109.383 123.616 110.627 122.339 112.163 122.339C113.698 122.339 114.943 123.616 114.943 125.19V129.749L125.194 151.496C125.861 152.915 125.283 154.62 123.9 155.304C123.511 155.498 123.098 155.589 122.692 155.589Z" fill="#001C41"/>
<path fill-rule="evenodd" clip-rule="evenodd" d="M111.529 165.242C117.452 165.242 122.254 160.441 122.254 154.517H100.802C100.802 160.441 105.604 165.242 111.529 165.242Z" fill="#001C41"/>
<path fill-rule="evenodd" clip-rule="evenodd" d="M104.788 156.865C105.917 159.761 108.753 161.821 112.064 161.821C115.376 161.821 118.212 159.761 119.341 156.865H104.788ZM112.064 167.388C104.672 167.388 98.657 161.419 98.657 154.082V151.299H125.472V154.082C125.472 161.419 119.457 167.388 112.064 167.388Z" fill="#001C41"/>
<path fill-rule="evenodd" clip-rule="evenodd" d="M144.868 134.138H140.639C139.084 134.138 137.822 132.833 137.822 131.226C137.822 129.619 139.084 128.314 140.639 128.314H144.579L165.267 123.872H140.086C138.532 123.872 137.27 122.568 137.27 120.961C137.27 119.352 138.532 118.049 140.086 118.049H168.775C170.33 118.049 171.592 119.352 171.592 120.961V126.092C171.592 127.473 170.655 128.664 169.348 128.944L145.441 134.076C145.251 134.117 145.061 134.138 144.868 134.138Z" fill="#001C41"/>
<path fill-rule="evenodd" clip-rule="evenodd" d="M144.623 134.138H139.041C137.472 134.138 136.198 132.833 136.198 131.226C136.198 129.619 137.472 128.314 139.041 128.314H144.331L165.209 123.872H139.797C138.228 123.872 136.954 122.568 136.954 120.961C136.954 119.352 138.228 118.049 139.797 118.049H168.75C170.32 118.049 171.593 119.352 171.593 120.961V126.092C171.593 127.473 170.648 128.664 169.329 128.944L145.201 134.076C145.009 134.117 144.818 134.138 144.623 134.138Z" fill="#001C41"/>
<mask id="mask1" mask-type="alpha" maskUnits="userSpaceOnUse" x="165" y="122" width="17" height="34">
<path fill-rule="evenodd" clip-rule="evenodd" d="M165.258 122.634H181.491V155.658H165.258V122.634Z" fill="white"/>
</mask>
<g mask="url(#mask1)">
<path fill-rule="evenodd" clip-rule="evenodd" d="M178.686 155.658C177.644 155.658 176.644 155.069 176.159 154.058L165.537 131.874C165.353 131.49 165.258 131.07 165.258 130.642V125.466C165.258 123.903 166.513 122.634 168.063 122.634C169.612 122.634 170.868 123.903 170.868 125.466V129.994L181.211 151.593C181.884 153.002 181.301 154.695 179.905 155.375C179.512 155.567 179.096 155.658 178.686 155.658Z" fill="#001C41"/>
</g>
<path fill-rule="evenodd" clip-rule="evenodd" d="M158.282 155.589C157.876 155.589 157.463 155.498 157.074 155.304C155.691 154.62 155.113 152.915 155.78 151.496L166.031 129.749V125.19C166.031 123.616 167.276 122.339 168.811 122.339C170.347 122.339 171.591 123.616 171.591 125.19V130.402C171.591 130.832 171.497 131.255 171.315 131.642L160.787 153.978C160.308 154.996 159.315 155.589 158.282 155.589Z" fill="#001C41"/>
<path fill-rule="evenodd" clip-rule="evenodd" d="M168.374 165.242C162.452 165.242 157.649 160.44 157.649 154.517H179.101C179.101 160.44 174.298 165.242 168.374 165.242Z" fill="#001C41"/>
<path fill-rule="evenodd" clip-rule="evenodd" d="M161.647 156.874C162.776 159.761 165.606 161.813 168.911 161.813C172.215 161.813 175.046 159.761 176.175 156.874H161.647ZM168.91 167.388C161.517 167.388 155.503 161.421 155.503 154.086V151.299H182.317V154.086C182.317 161.421 176.304 167.388 168.91 167.388Z" fill="#001C41"/>
<mask id="mask2" mask-type="alpha" maskUnits="userSpaceOnUse" x="137" y="113" width="7" height="11">
<path fill-rule="evenodd" clip-rule="evenodd" d="M137.422 113.075H143.428V123.112H137.422V113.075Z" fill="white"/>
</mask>
<g mask="url(#mask2)">
<path fill-rule="evenodd" clip-rule="evenodd" d="M140.425 123.112C138.767 123.112 137.422 121.791 137.422 120.163V116.024C137.422 114.395 138.767 113.075 140.425 113.075C142.083 113.075 143.428 114.395 143.428 116.024V120.163C143.428 121.791 142.083 123.112 140.425 123.112Z" fill="#001C41"/>
</g>
</g>
</svg>
