<svg xmlns="http://www.w3.org/2000/svg" viewBox="0 0 86.17 84.01"><defs><style>.cls-1{fill:#66c3f0;}.cls-2{fill:#ec6566;}.cls-3{fill:#273357;}</style></defs><title>Recurso 1</title><g id="Capa_2" data-name="Capa 2"><g id="Ilustraciones"><path class="cls-1" d="M75.94,1.08H51.17a2.71,2.71,0,0,0-2.7,2.69V18.31L42,24.77H75.94a2.7,2.7,0,0,0,2.69-2.69V3.77A2.7,2.7,0,0,0,75.94,1.08Z"/><polygon class="cls-2" points="24.31 58.17 9.34 58.17 5.39 73.25 44.16 73.25 40.21 58.17 24.31 58.17"/><path class="cls-3" d="M77.56,76.47a1.08,1.08,0,0,0-1.08,1.08v5.39a1.08,1.08,0,0,0,2.15,0V77.55A1.07,1.07,0,0,0,77.56,76.47Z"/><path class="cls-3" d="M56.19,76.47a1.08,1.08,0,0,0-1.08,1.08v5.39a1.08,1.08,0,0,0,2.15,0V77.55A1.07,1.07,0,0,0,56.19,76.47Z"/><path class="cls-3" d="M84,58l0,0,0-.06.07-.07a.61.61,0,0,1,.07-.1l0-.08a.37.37,0,0,0,0-.11l0-.08,0-.11s0-.06,0-.09v-.21a.43.43,0,0,0,0-.11.44.44,0,0,0,0-.1l0-.1a.36.36,0,0,0,0-.09l-.06-.1,0-.06,0,0,0,0a22.3,22.3,0,0,1-3.31-4.89,23.16,23.16,0,0,1-2.16-8.81c-.26-2.81-.5-5.46-2.47-7.94a9.47,9.47,0,0,0-3.52-2.79,8.68,8.68,0,0,0-5.75-.31h-.08a8.64,8.64,0,0,0-5.78.3,9.32,9.32,0,0,0-3.52,2.79c-2,2.48-2.21,5.13-2.47,7.95a23.16,23.16,0,0,1-2.16,8.8,22.05,22.05,0,0,1-3.31,4.89l0,0,0,0,0,.06-.06.09a1,1,0,0,1,0,.1l0,.1a.36.36,0,0,0,0,.1.44.44,0,0,0,0,.1v.21a.36.36,0,0,0,0,.1.3.3,0,0,0,0,.1l0,.1a.36.36,0,0,1,0,.09l.06.1.06.08.08.09,0,0,0,0,0,0A28.09,28.09,0,0,0,84,58ZM52,57a23.81,23.81,0,0,0,2.88-4.47A24.74,24.74,0,0,0,57.22,43c.25-2.69.45-4.82,2-6.8A7.19,7.19,0,0,1,61.93,34a5.86,5.86,0,0,1,2.23-.48,4.08,4.08,0,0,0-.25.33,1.08,1.08,0,0,0,.9,1.67,1.1,1.1,0,0,0,.9-.49,2.6,2.6,0,0,1,.63-.69,2.83,2.83,0,0,1,.81-.46h0a6.63,6.63,0,0,1,4.62.13,7.23,7.23,0,0,1,2.69,2.15c1.57,2,1.77,4.11,2,6.8a24.74,24.74,0,0,0,2.37,9.56A23.77,23.77,0,0,0,81.78,57,26,26,0,0,1,52,57Z"/><path class="cls-3" d="M48.47,58.17a1.07,1.07,0,0,0-1.07-1.08H46.18V52a18.62,18.62,0,0,0-14.12-18.1,1.09,1.09,0,0,0-1,.22,10.25,10.25,0,0,1-6.31,2.52,10.27,10.27,0,0,1-6.36-2.52,1.09,1.09,0,0,0-1-.22A18.62,18.62,0,0,0,3.37,52v5.05H1.08a1.08,1.08,0,1,0,0,2.15H8L4.34,73a1.12,1.12,0,0,0,.19.94,1.1,1.1,0,0,0,.86.41H44.16a1.1,1.1,0,0,0,.86-.41,1.12,1.12,0,0,0,.19-.94L41.6,59.24h5.8A1.07,1.07,0,0,0,48.47,58.17ZM5.52,52A16.47,16.47,0,0,1,17.35,36.21a11.83,11.83,0,0,0,14.85,0A16.47,16.47,0,0,1,44,52v5.05H38.65V47.18a1.08,1.08,0,0,0-2.15,0v9.91H13.05V47.18a1.08,1.08,0,0,0-2.15,0v9.91H5.52Zm4.65,7.2H23.65l.1,12.93h-17Zm32.6,12.93H25.91L25.8,59.24H39.38Z"/><path class="cls-3" d="M42,25.85H75.94a3.77,3.77,0,0,0,3.77-3.77V3.77A3.77,3.77,0,0,0,75.94,0H51.17A3.77,3.77,0,0,0,47.4,3.77v14.1L41.25,24A1.1,1.1,0,0,0,41,25.19,1.08,1.08,0,0,0,42,25.85Zm7.22-6.78a1,1,0,0,0,.32-.76V3.77a1.62,1.62,0,0,1,1.62-1.62H75.94a1.63,1.63,0,0,1,1.62,1.62V22.08a1.63,1.63,0,0,1-1.62,1.62H44.61Z"/><path class="cls-3" d="M72.17,6.46H54.94a1.08,1.08,0,1,0,0,2.16H72.17a1.08,1.08,0,0,0,0-2.16Z"/><path class="cls-3" d="M54.94,14h3.23a1.08,1.08,0,0,0,0-2.15H54.94a1.08,1.08,0,1,0,0,2.15Z"/><path class="cls-3" d="M63.55,14a1.08,1.08,0,1,0,0-2.15H61.4a1.08,1.08,0,1,0,0,2.15Z"/><path class="cls-3" d="M69,17.23H54.85a1.08,1.08,0,0,0,0,2.16H69a1.08,1.08,0,0,0,0-2.16Z"/><path class="cls-3" d="M78.88,63.11a1.07,1.07,0,0,0-1.52,0,1.09,1.09,0,0,0,0,1.53c2.23,2.17,6,7.46,6.65,18.34a1.08,1.08,0,0,0,1.07,1h.07a1.08,1.08,0,0,0,1-1.14C85.53,71.26,81.33,65.5,78.88,63.11Z"/><path class="cls-3" d="M56.38,63.12a1.07,1.07,0,0,0-1.52,0c-2.45,2.39-6.65,8.15-7.29,19.76a1.08,1.08,0,0,0,1,1.14h.06a1.08,1.08,0,0,0,1.07-1c.6-10.88,4.42-16.17,6.65-18.34A1.09,1.09,0,0,0,56.38,63.12Z"/><path class="cls-3" d="M45.34,78.63H1.08a1.08,1.08,0,0,0,0,2.16H45.34a1.08,1.08,0,0,0,0-2.16Z"/><path class="cls-3" d="M62.44,37.33a1.07,1.07,0,0,0-1.51.18c-1.13,1.43-1.31,2.93-1.56,5.67v.06a31,31,0,0,1-1.27,7.06,1.08,1.08,0,0,0,.69,1.35,1,1,0,0,0,.33.06,1.08,1.08,0,0,0,1-.75,34,34,0,0,0,1.37-7.52v-.06c.24-2.62.39-3.62,1.11-4.54A1.07,1.07,0,0,0,62.44,37.33Z"/><path class="cls-3" d="M2.05,45.05A1.11,1.11,0,1,0,.94,44,1.11,1.11,0,0,0,2.05,45.05Z"/><path class="cls-3" d="M2.89,42.45a1.07,1.07,0,0,0,.48.12,1.08,1.08,0,0,0,1-.6,18.24,18.24,0,0,1,1.11-1.91,17.37,17.37,0,0,1,6.73-5.88,1.08,1.08,0,1,0-.95-1.93,19.49,19.49,0,0,0-7.57,6.61A20,20,0,0,0,2.41,41,1.07,1.07,0,0,0,2.89,42.45Z"/><path class="cls-3" d="M13.29,23.32l.17.08a1,1,0,0,0,.31.38c1.23,6.65,5.67,11.36,11,11.53h.07c5.41-.18,9.92-5.07,11.05-11.93l.13-.06a3.86,3.86,0,0,0,2-2.25c1-2.38.47-3.59-.16-4.18a1.94,1.94,0,0,0-.76-.44,14.27,14.27,0,0,0,0-5.84C35.58,5,29.84,2.31,24.81,2.16h-.07C19.71,2.31,14,5,12.48,10.61a14.34,14.34,0,0,0-.07,5.77,2,2,0,0,0-1,.51c-.63.59-1.16,1.8-.16,4.18A3.86,3.86,0,0,0,13.29,23.32ZM36.42,18.5a3.08,3.08,0,0,1-.37,1.74,1.71,1.71,0,0,1-1,1.14,2.12,2.12,0,0,0-1.21,1.2h0v0a.67.67,0,0,0,0,.19c-.89,5.85-4.67,10.2-9,10.36-4.33-.16-8.12-4.51-9-10.36a.8.8,0,0,0,0-.21h0a2.12,2.12,0,0,0-1.21-1.2,1.71,1.71,0,0,1-1-1.14,3.53,3.53,0,0,1-.38-1.65h.08s0,0,0,0A9.79,9.79,0,0,0,14,19.9a1.11,1.11,0,0,0,.12.42.22.22,0,0,0,0,.08,1.06,1.06,0,0,0,.77.52,1.06,1.06,0,0,0,.57.17A1.15,1.15,0,0,0,15.9,21a1.09,1.09,0,0,0,.71-1,14.72,14.72,0,0,1,.54-4.09,14.51,14.51,0,0,1,.53-1.57,51,51,0,0,1,6.71,2,1.13,1.13,0,0,0,.77,0,51,51,0,0,1,6.71-2,14.51,14.51,0,0,1,.53,1.57A14.72,14.72,0,0,1,32.94,20a1.08,1.08,0,0,0,1.91.69l.13-.14,0,0a8.87,8.87,0,0,0,1.31-1.87s0-.09.07-.14ZM14.56,11.16c1.2-4.55,6-6.71,10.21-6.84,4.23.13,9,2.29,10.22,6.84a11.54,11.54,0,0,1-.18,5.6q-.14-.72-.33-1.41a16.64,16.64,0,0,0-1-2.69,1.06,1.06,0,0,0-1.2-.6,53.79,53.79,0,0,0-7.51,2.17,53,53,0,0,0-7.51-2.17,1.05,1.05,0,0,0-1.19.6,16.9,16.9,0,0,0-1,2.68c-.13.47-.24.94-.33,1.42A11.54,11.54,0,0,1,14.56,11.16Z"/><path class="cls-3" d="M29.08,70h9.7a1.08,1.08,0,0,0,0-2.16h-9.7a1.08,1.08,0,0,0,0,2.16Z"/><path class="cls-3" d="M20.47,67.86H15.08a1.08,1.08,0,0,0,0,2.16h5.39a1.08,1.08,0,0,0,0-2.16Z"/><path class="cls-3" d="M36.62,64.63H34.47a1.08,1.08,0,1,0,0,2.15h2.15a1.08,1.08,0,1,0,0-2.15Z"/><path class="cls-3" d="M20.47,64.63H11.85a1.08,1.08,0,1,0,0,2.15h8.62a1.08,1.08,0,0,0,0-2.15Z"/><path class="cls-3" d="M30.16,66.78h1.08a1.08,1.08,0,0,0,0-2.15H30.16a1.08,1.08,0,1,0,0,2.15Z"/><path class="cls-3" d="M11.85,67.86H10.77a1.08,1.08,0,0,0,0,2.16h1.08a1.08,1.08,0,1,0,0-2.16Z"/><path class="cls-3" d="M30.16,63.55h6.46a1.08,1.08,0,1,0,0-2.15H30.16a1.08,1.08,0,1,0,0,2.15Z"/><path class="cls-3" d="M14,63.55h6.47a1.08,1.08,0,0,0,0-2.15H14a1.08,1.08,0,0,0,0,2.15Z"/></g></g></svg>