<svg width="370" height="370" viewBox="0 0 370 370" fill="none" xmlns="http://www.w3.org/2000/svg">
<path fill-rule="evenodd" clip-rule="evenodd" d="M81.5267 218.462L112.606 219.105L142.891 214.118L174.767 215.565L204.969 213.395L231.748 204.305L262.429 205.029L288.726 198.349V230.894H81.5267V218.462Z" fill="#F56464"/>
<path fill-rule="evenodd" clip-rule="evenodd" d="M146.355 115.877C146.314 105.114 137.551 96.4004 126.745 96.4004V115.877H146.355Z" fill="#F56464"/>
<path fill-rule="evenodd" clip-rule="evenodd" d="M177.793 245.058V253.97C177.793 257.361 180.734 260.135 184.328 260.135C187.925 260.135 190.866 257.361 190.866 253.97V245.058H177.793Z" fill="#5EBCD6"/>
<path fill-rule="evenodd" clip-rule="evenodd" d="M124.385 97.0596C112.655 97.0596 103.147 106.537 103.147 118.23C103.147 129.923 112.655 139.4 124.385 139.4C136.115 139.4 145.623 129.923 145.623 118.23H124.385V97.0596Z" fill="#5EBCD6"/>
<path fill-rule="evenodd" clip-rule="evenodd" d="M83.3132 201.82C81.9885 201.82 80.7469 200.985 80.2984 199.664C79.734 198.003 80.6251 196.203 82.2914 195.64L140.133 176.069C140.489 175.947 140.86 175.885 141.243 175.9L202.827 177.579L266.915 158.78C268.593 158.294 270.369 159.248 270.868 160.929C271.364 162.611 270.399 164.376 268.712 164.87L204.14 183.808C203.822 183.903 203.492 183.956 203.157 183.936L141.638 182.26L84.335 201.648C83.9964 201.763 83.6519 201.82 83.3132 201.82Z" fill="#5EBCD6"/>
<mask id="mask0" mask-type="alpha" maskUnits="userSpaceOnUse" x="62" y="60" width="247" height="249">
<path fill-rule="evenodd" clip-rule="evenodd" d="M62 309H308.56V60H62V309Z" fill="white"/>
</mask>
<g mask="url(#mask0)">
<path fill-rule="evenodd" clip-rule="evenodd" d="M135.361 289.538H233.565V282.855H135.361V289.538ZM236.749 295.886H132.176C130.418 295.886 128.992 294.465 128.992 292.712V279.681C128.992 277.928 130.418 276.507 132.176 276.507H236.749C238.508 276.507 239.933 277.928 239.933 279.681V292.712C239.933 294.465 238.508 295.886 236.749 295.886Z" fill="#001C41"/>
<path fill-rule="evenodd" clip-rule="evenodd" d="M184.463 263.31C179.105 263.31 174.744 259.12 174.744 253.971V245.059C174.744 243.306 176.17 241.885 177.928 241.885C179.687 241.885 181.113 243.306 181.113 245.059V253.971C181.113 255.591 182.645 256.962 184.463 256.962C186.281 256.962 187.814 255.591 187.814 253.971V245.059C187.814 243.306 189.239 241.885 190.998 241.885C192.756 241.885 194.182 243.306 194.182 245.059V253.971C194.182 259.12 189.821 263.31 184.463 263.31Z" fill="#001C41"/>
<path fill-rule="evenodd" clip-rule="evenodd" d="M151.781 282.468C151.172 282.468 150.561 282.296 150.017 281.932C148.553 280.961 148.161 278.989 149.138 277.532C152.337 272.75 154.03 267.175 154.03 261.407V245.06C154.03 243.307 155.456 241.886 157.214 241.886C158.973 241.886 160.398 243.307 160.398 245.06V261.407C160.398 268.433 158.337 275.225 154.431 281.056C153.819 281.973 152.809 282.468 151.781 282.468Z" fill="#001C41"/>
<path fill-rule="evenodd" clip-rule="evenodd" d="M216.877 282.468C215.849 282.468 214.839 281.973 214.228 281.056C210.322 275.225 208.26 268.433 208.26 261.407V245.06C208.26 243.307 209.686 241.886 211.444 241.886C213.203 241.886 214.629 243.307 214.629 245.06V261.407C214.629 267.175 216.322 272.75 219.521 277.532C220.498 278.989 220.106 280.961 218.641 281.932C218.098 282.296 217.486 282.468 216.877 282.468Z" fill="#001C41"/>
<path fill-rule="evenodd" clip-rule="evenodd" d="M71.5044 66.3467C71.047 66.3467 70.6757 66.7168 70.6757 67.1698V239.894C70.6757 240.35 71.047 240.72 71.5044 240.72H296.922C297.656 240.72 298.253 240.125 298.253 239.394V67.1698C298.253 66.7168 297.882 66.3467 297.424 66.3467H71.5044ZM296.922 247.068H71.5043C67.5359 247.068 64.3072 243.85 64.3072 239.894V67.1698C64.3072 63.217 67.5359 59.9985 71.5043 59.9985H297.424C301.392 59.9985 304.621 63.217 304.621 67.1698V239.394C304.621 243.625 301.167 247.068 296.922 247.068Z" fill="#001C41"/>
<path fill-rule="evenodd" clip-rule="evenodd" d="M84.2925 227.146H284.635V80.1014H84.2925V227.146ZM287.819 233.494H81.1079C79.3495 233.494 77.9237 232.073 77.9237 230.32V76.9275C77.9237 75.1747 79.3495 73.7534 81.1079 73.7534H287.819C289.577 73.7534 291.003 75.1747 291.003 76.9275V230.32C291.003 232.073 289.577 233.494 287.819 233.494Z" fill="#001C41"/>
<path fill-rule="evenodd" clip-rule="evenodd" d="M272.698 305.742C272.698 307.543 271.233 308.999 269.43 308.999C267.624 308.999 266.163 307.543 266.163 305.742C266.163 303.942 267.624 302.485 269.43 302.485C271.233 302.485 272.698 303.942 272.698 305.742Z" fill="#001C41"/>
<path fill-rule="evenodd" clip-rule="evenodd" d="M259.627 308.916H92.9618C91.2033 308.916 89.7776 307.494 89.7776 305.741C89.7776 303.989 91.2033 302.567 92.9618 302.567H259.627C261.385 302.567 262.811 303.989 262.811 305.741C262.811 307.494 261.385 308.916 259.627 308.916Z" fill="#001C41"/>
<path fill-rule="evenodd" clip-rule="evenodd" d="M305.376 295.885H65.1842C63.4258 295.885 62 294.464 62 292.711C62 290.958 63.4258 289.537 65.1842 289.537H305.376C307.135 289.537 308.56 290.958 308.56 292.711C308.56 294.464 307.135 295.885 305.376 295.885Z" fill="#001C41"/>
<path fill-rule="evenodd" clip-rule="evenodd" d="M184.329 263.31C178.97 263.31 174.61 259.12 174.61 253.971V245.059C174.61 243.306 176.036 241.885 177.794 241.885C179.553 241.885 180.978 243.306 180.978 245.059V253.971C180.978 255.591 182.511 256.962 184.329 256.962C186.147 256.962 187.679 255.591 187.679 253.971V245.059C187.679 243.306 189.105 241.885 190.864 241.885C192.622 241.885 194.048 243.306 194.048 245.059V253.971C194.048 259.12 189.687 263.31 184.329 263.31Z" fill="#001C41"/>
<path fill-rule="evenodd" clip-rule="evenodd" d="M262.628 174.8C261.942 174.8 261.247 174.581 260.665 174.125C259.28 173.042 259.04 171.046 260.124 169.666L265.693 162.587L256.83 160.325C255.128 159.889 254.1 158.16 254.537 156.464C254.973 154.764 256.717 153.734 258.41 154.175L271.999 157.645C273.039 157.911 273.877 158.684 274.224 159.697C274.569 160.713 274.379 161.835 273.713 162.679L265.135 173.587C264.508 174.383 263.572 174.8 262.628 174.8Z" fill="#5EBCD6"/>
<path fill-rule="evenodd" clip-rule="evenodd" d="M238.266 106.333H192.214C190.456 106.333 189.03 104.912 189.03 103.159C189.03 101.406 190.456 99.9849 192.214 99.9849H238.266C240.024 99.9849 241.45 101.406 241.45 103.159C241.45 104.912 240.024 106.333 238.266 106.333Z" fill="#001C41"/>
<path fill-rule="evenodd" clip-rule="evenodd" d="M175.12 106.333H171.012C169.254 106.333 167.828 104.912 167.828 103.159C167.828 101.406 169.254 99.9849 171.012 99.9849H175.12C176.878 99.9849 178.304 101.406 178.304 103.159C178.304 104.912 176.878 106.333 175.12 106.333Z" fill="#001C41"/>
<path fill-rule="evenodd" clip-rule="evenodd" d="M238.266 123.341H192.214C190.456 123.341 189.03 121.92 189.03 120.167C189.03 118.414 190.456 116.993 192.214 116.993H238.266C240.024 116.993 241.45 118.414 241.45 120.167C241.45 121.92 240.024 123.341 238.266 123.341Z" fill="#001C41"/>
<path fill-rule="evenodd" clip-rule="evenodd" d="M175.12 123.341H171.012C169.254 123.341 167.828 121.92 167.828 120.167C167.828 118.414 169.254 116.993 171.012 116.993H175.12C176.878 116.993 178.304 118.414 178.304 120.167C178.304 121.92 176.878 123.341 175.12 123.341Z" fill="#001C41"/>
<path fill-rule="evenodd" clip-rule="evenodd" d="M238.266 141.591H192.214C190.456 141.591 189.03 140.17 189.03 138.417C189.03 136.664 190.456 135.243 192.214 135.243H238.266C240.024 135.243 241.45 136.664 241.45 138.417C241.45 140.17 240.024 141.591 238.266 141.591Z" fill="#001C41"/>
<path fill-rule="evenodd" clip-rule="evenodd" d="M175.12 141.591H171.012C169.254 141.591 167.828 140.17 167.828 138.417C167.828 136.664 169.254 135.243 171.012 135.243H175.12C176.878 135.243 178.304 136.664 178.304 138.417C178.304 140.17 176.878 141.591 175.12 141.591Z" fill="#001C41"/>
</g>
</svg>
