<svg xmlns="http://www.w3.org/2000/svg" viewBox="0 0 77.33 80.63"><defs><style>.cls-1{fill:#66c3f0;}.cls-2{fill:#ec6566;}.cls-3{fill:#273357;}.cls-4{fill:#fff;}</style></defs><title>Recurso 2</title><g id="Capa_2" data-name="Capa 2"><g id="Ilustraciones"><rect class="cls-1" x="22.93" y="39.42" width="17.43" height="3.81"/><rect class="cls-1" x="22.93" y="33.07" width="17.43" height="3.81"/><path class="cls-2" d="M32.41,20.68a15.13,15.13,0,0,1-1.34,3.81h9.29V20.68Z"/><path class="cls-2" d="M29.46,27A15.44,15.44,0,0,1,25,30.79H40.36V27Z"/><path class="cls-1" d="M30.76,9.24a1.11,1.11,0,0,1,0-2.22A1.11,1.11,0,0,1,30.76,9.24Z"/><path class="cls-3" d="M73,69.21A1.12,1.12,0,0,1,73,67,1.12,1.12,0,0,1,73,69.21Z"/><path class="cls-2" d="M76.27,38.22V51.91a2.61,2.61,0,0,1-2.61,2.61H60V38.22Z"/><path class="cls-3" d="M74.09,53.39a1.55,1.55,0,0,0,1.11-1.48V5.6a1.54,1.54,0,0,0-1.54-1.54H43.75A1.54,1.54,0,0,0,42.21,5.6V44.18a1.07,1.07,0,0,1-2.14,0V5.6a3.68,3.68,0,0,1,3.68-3.68H73.66A3.68,3.68,0,0,1,77.33,5.6V51.91a3.68,3.68,0,0,1-2.64,3.53A1.07,1.07,0,0,1,74.09,53.39Z"/><path class="cls-3" d="M57.64,54.52V20.29a1.07,1.07,0,0,1,2.13,0V54.52A1.06,1.06,0,1,1,57.64,54.52Z"/><path class="cls-3" d="M75,38H42.39a1.07,1.07,0,0,1,0-2.14H75A1.07,1.07,0,0,1,75,38Z"/><path class="cls-3" d="M75,20.47H42.39a1.07,1.07,0,0,1,0-2.14H75a1.07,1.07,0,0,1,0,2.14Z"/><path class="cls-4" d="M49.92,24.42v0Z"/><path class="cls-3" d="M48.85,31.94V24.42a1.07,1.07,0,0,1,2.14,0v7.52A1.07,1.07,0,0,1,48.85,31.94Z"/><path class="cls-4" d="M46.16,28.18h0Z"/><path class="cls-3" d="M53.69,29.25H46.16a1.07,1.07,0,0,1,0-2.14h7.53a1.07,1.07,0,0,1,0,2.14Z"/><path class="cls-4" d="M52.58,43.08,47.26,48.4Z"/><path class="cls-3" d="M46.51,47.65l5.32-5.32a1.07,1.07,0,0,1,1.51,1.51L48,49.16A1.07,1.07,0,0,1,46.51,47.65Z"/><path class="cls-4" d="M47.26,43.08l5.32,5.32Z"/><path class="cls-3" d="M51.83,49.16l-5.32-5.32A1.07,1.07,0,0,1,48,42.33l5.32,5.32a1.07,1.07,0,1,1-1.51,1.51Z"/><path class="cls-4" d="M63.72,28.18h0Z"/><path class="cls-3" d="M71.25,29.25H63.72a1.07,1.07,0,0,1,0-2.14h7.53a1.07,1.07,0,0,1,0,2.14Z"/><path class="cls-4" d="M63.72,43.23h0Z"/><path class="cls-3" d="M71.25,44.3H63.72a1.07,1.07,0,0,1,0-2.13h7.53a1.07,1.07,0,1,1,0,2.13Z"/><path class="cls-4" d="M63.72,48.25h0Z"/><path class="cls-3" d="M71.25,49.32H63.72a1.07,1.07,0,0,1,0-2.14h7.53a1.07,1.07,0,0,1,0,2.14Z"/><path class="cls-3" d="M71.25,15.45H46.16a1.07,1.07,0,0,1-1.07-1.07V8.11A1.07,1.07,0,0,1,46.16,7H71.25a1.07,1.07,0,0,1,1.07,1.07v6.27A1.07,1.07,0,0,1,71.25,15.45Zm-24-2.14h23V9.18h-23Z"/><path class="cls-1" d="M73.82,57.84c-1.13.65-2.8,1.33-4.74,2.58-4.62,3-13.25,8.51-14.25,8.9-5.75,2.25-19.79-3.68-26.4-3.41-2.41.09-9.28,1-9.28,1l-3-14.49c-.28.12-.56.21-.84.3l3.89,18.46C30.54,69.66,29,69.66,43.8,73c7.42,1.68,9.35,1.24,11,.58,1-.39,9.63-5.91,14.25-8.9,3.23-2.07,5.7-2.57,6.21-4A2.3,2.3,0,0,0,73.82,57.84Z"/><path class="cls-1" d="M40,59.23l9.1,4.12a2.5,2.5,0,0,0,2.87-.61s0,0,0,0a2.51,2.51,0,0,0,.6-1.44,3.82,3.82,0,0,0,.7-5.07,1.7,1.7,0,0,0,.26-.43l-1.1-.5a3.22,3.22,0,0,1,.69.69,2.51,2.51,0,0,1-2.5,2.38c-.67,0-.24.12-8.19-3.46v0A3,3,0,0,0,41,54.51a2.47,2.47,0,0,0-1,4.72Z"/><path class="cls-3" d="M14,78.27l5.18-1L14,52.2l-2.16.48a1.09,1.09,0,0,1-.47-2.12l3.24-.72a1.08,1.08,0,0,1,1.3.84C22,80,21.74,78.23,21.37,78.78s-.3.39-7,1.63A1.09,1.09,0,0,1,14,78.27Z"/><path class="cls-3" d="M36.16,77.78a1.09,1.09,0,0,1,.47-2.12c2,.44,4.1.93,6.56,1.48,12.3,2.79,12.43,1.38,25.82-7.23a1.09,1.09,0,0,1,1.18,1.83C53.61,82.41,56.09,82.18,36.16,77.78Z"/><path class="cls-3" d="M43.78,74.54c-7-1.59-12.47-3-15.27-2.84-2.34.1-9.2,1-9.27,1A1.09,1.09,0,0,1,18,71.88L14.1,53.21A1.09,1.09,0,0,1,14.83,52c7.62-2.4,10.12-7.15,19.81-6.63,1.67.09,6,2.41,13.06,6.23,5.23,2.84,6.63,3.16,7.39,5.61a5,5,0,0,1-.57,4.22c5.73-1.67,13.2-6.71,19.79-4.42h0c2,.69,3.24,2.48,2.54,4.45S73.51,63.82,70.14,66c-2.2,1.43-13.26,8.57-14.57,9.08C53.41,75.92,51.13,76.2,43.78,74.54Zm-2.19-2.73c6.65,1.52,10.36,2.35,13.19,1.24,1.7-.7,13.67-8.81,17.66-10.81,1.54-.77,2.8-1.33,2.34-2.3A2.06,2.06,0,0,0,73.59,59c-4-1.39-8.63.56-13.13,2.44-4.71,2-9.16,3.83-12.6,1.6A1.09,1.09,0,0,1,49,61.18a2.85,2.85,0,1,0,2.66-5c-16.77-8.8-15.68-9.66-23.51-8.05a26.72,26.72,0,0,0-4.55,2.18,62.09,62.09,0,0,1-7.13,3.45L20,70.44C30,69.14,29.42,69,41.59,71.81Z"/><circle class="cls-1" cx="17.6" cy="17.57" r="12.23" transform="translate(-7.24 16.39) rotate(-42.24)"/><path class="cls-4" d="M16.92,25.76l0-.89a1.09,1.09,0,0,1,2.18.08l0,.89A1.09,1.09,0,0,1,16.92,25.76Z"/><path class="cls-4" d="M16.64,10.81l0-1a1.09,1.09,0,0,1,2.18.08l0,1A1.09,1.09,0,0,1,16.64,10.81Z"/><path class="cls-4" d="M13.06,22.84a1.09,1.09,0,0,1,1.65-1.42c2.6,3,7.53.81,5.33-2-1.27-1.62-4.5-.41-6.19-2.9-1.93-2.83.17-6.73,4.38-6.3,2.22.22,5,2.53,3.45,3.66a1.09,1.09,0,0,1-1.53-.22c-2-2.68-6.13-.75-4.5,1.64,1,1.43,4.19.33,6.1,2.78C25.8,23.26,17.45,28,13.06,22.84Z"/><path class="cls-1" d="M9.24,33.11A17.6,17.6,0,0,1,0,17.61C0,3,16.89-5.2,28.37,3.68a1.07,1.07,0,0,1-1.31,1.69,15.47,15.47,0,1,0-16.8,25.86,1.07,1.07,0,0,1-1,1.88Z"/></g></g></svg>