<svg xmlns="http://www.w3.org/2000/svg" viewBox="0 0 74.32 84.98"><defs><style>.cls-1{fill:#66c3f0;}.cls-2{fill:#ec6566;}.cls-3{fill:#273357;}</style></defs><title>Recurso 9</title><g id="Capa_2" data-name="Capa 2"><g id="Ilustraciones"><path class="cls-1" d="M40.21,5.39H37.7V2.87a1.79,1.79,0,0,0-1.79-1.79H27.65a1.8,1.8,0,0,0-1.8,1.79V5.39H23.34a2.86,2.86,0,0,0-2.87,2.87V14H43.09V8.26A2.87,2.87,0,0,0,40.21,5.39Z"/><path class="cls-1" d="M49,63.73c-.85-1.37-.44-7.71-1.07-8.81A28,28,0,0,1,46.06,51a25.72,25.72,0,0,1-1.69-8.51c-.63,1.62-.67,4.24.57,8.38.37,1.21.3,11.92.67,13.49a2.51,2.51,0,0,0,.21.56c.87,1.89,4,6.22,5.36,8.77l1-.34,2.28-.73C54.27,72.21,49.6,64.7,49,63.73Z"/><path class="cls-2" d="M24.77,42.55a1.61,1.61,0,0,1-1.61,1.61H17.77a1.61,1.61,0,0,1-1.61-1.61V37.16a1.61,1.61,0,0,1,1.61-1.61h5.39a1.63,1.63,0,0,1,.79.21l1.32-1.59.08-.07a3.79,3.79,0,0,0-2.19-.71H17.77A3.77,3.77,0,0,0,14,37.16v5.39a3.77,3.77,0,0,0,3.77,3.77h5.39a3.77,3.77,0,0,0,3.77-3.77V38.91L24.77,41.5Z"/><path class="cls-2" d="M24.77,58.68a1.62,1.62,0,0,1-1.61,1.62H17.77a1.62,1.62,0,0,1-1.61-1.62V53.3a1.62,1.62,0,0,1,1.61-1.62h5.39a1.63,1.63,0,0,1,.79.21l1.32-1.59.08-.07a3.78,3.78,0,0,0-2.19-.7H17.77A3.77,3.77,0,0,0,14,53.3v5.38a3.77,3.77,0,0,0,3.77,3.77h5.39a3.77,3.77,0,0,0,3.77-3.77V55.05l-2.16,2.58Z"/><path class="cls-2" d="M24.77,26.39A1.62,1.62,0,0,1,23.16,28H17.77a1.62,1.62,0,0,1-1.61-1.62V21a1.61,1.61,0,0,1,1.61-1.61h5.39a1.6,1.6,0,0,1,.78.21L25.27,18s.05,0,.07-.07a3.82,3.82,0,0,0-2.18-.7H17.77A3.78,3.78,0,0,0,14,21v5.39a3.77,3.77,0,0,0,3.77,3.77h5.39a3.77,3.77,0,0,0,3.77-3.77V22.74l-2.16,2.59Z"/><circle class="cls-3" cx="11.85" cy="3.23" r="1.21"/><circle class="cls-3" cx="71.57" cy="60.32" r="1.21"/><path class="cls-3" d="M9.52,3.23A1.08,1.08,0,0,0,8.44,2.15,8.46,8.46,0,0,0,0,10.6v4.48a1.08,1.08,0,1,0,2.15,0V10.6A6.3,6.3,0,0,1,8.44,4.31,1.08,1.08,0,0,0,9.52,3.23Z"/><path class="cls-3" d="M31.24,21.54H48.47a1.08,1.08,0,1,0,0-2.15H31.24a1.08,1.08,0,1,0,0,2.15Z"/><path class="cls-3" d="M31.24,26.93h9.69a1.08,1.08,0,0,0,0-2.16H31.24a1.08,1.08,0,0,0,0,2.16Z"/><path class="cls-3" d="M48.47,36.62a1.07,1.07,0,0,0-1.07-1.07H31.24a1.08,1.08,0,1,0,0,2.15H47.4A1.07,1.07,0,0,0,48.47,36.62Z"/><path class="cls-3" d="M31.24,43.09H37.7a1.08,1.08,0,0,0,0-2.16H31.24a1.08,1.08,0,1,0,0,2.16Z"/><path class="cls-3" d="M39.86,51.7H31.24a1.08,1.08,0,1,0,0,2.16h8.62a1.08,1.08,0,0,0,0-2.16Z"/><path class="cls-3" d="M37.7,57.09H31.24a1.08,1.08,0,1,0,0,2.15H37.7a1.08,1.08,0,1,0,0-2.15Z"/><path class="cls-3" d="M26.1,34.86l-4.63,5.55L19.07,38a1.07,1.07,0,0,0-1.52,1.52l3.23,3.23a1.09,1.09,0,0,0,.76.32h.05a1.11,1.11,0,0,0,.78-.39l5.39-6.46a1.08,1.08,0,1,0-1.66-1.38Z"/><path class="cls-3" d="M26.1,51l-4.63,5.56-2.4-2.4a1.07,1.07,0,1,0-1.52,1.52l3.23,3.23a1.05,1.05,0,0,0,.76.32h.05a1,1,0,0,0,.78-.39l5.39-6.46A1.08,1.08,0,1,0,26.1,51Z"/><path class="cls-3" d="M26.1,18.69l-4.63,5.55-2.4-2.39a1.07,1.07,0,0,0-1.52,1.52l3.23,3.23a1.09,1.09,0,0,0,.76.32h.05a1.11,1.11,0,0,0,.78-.39l5.39-6.46a1.08,1.08,0,0,0-1.66-1.38Z"/><path class="cls-3" d="M69.33,68.94a1.09,1.09,0,0,0-1.36-.7l-.7.23h0c.25-1.59.69-4.07,1.14-6.48.38-2.09.74-4.08,1-5.41.63-4,.94-5.95.33-8,0,0-.11-.34-.25-.7C67.84,43.65,61.65,37.45,58.17,34V10.6A4.15,4.15,0,0,0,54,6.46H43.73a4,4,0,0,0-3.51-2.15H38.78V2.87A2.88,2.88,0,0,0,35.91,0H27.65a2.88,2.88,0,0,0-2.88,2.87V4.31H23.34a4,4,0,0,0-3.51,2.15H8.44A4.15,4.15,0,0,0,4.31,10.6V69.11a4.15,4.15,0,0,0,4.13,4.14H49.71c.15.26.3.52.43.76l-1.79.57a1.06,1.06,0,0,0-.62.54,1,1,0,0,0-.07.82l2.68,8.3a1.08,1.08,0,0,0,1,.74,1,1,0,0,0,.34,0,1.08,1.08,0,0,0,.69-1.36L50,76.3,51,76l1-.33,4.5-1.45L65,71.46l2.09-.67.5-.16,1,3.2a1.08,1.08,0,1,0,2-.66ZM56,10.6v24a.91.91,0,0,0,0,.23v18l-.11,0c-1-.49-2.07-1.24-2.07-2v-39a1.09,1.09,0,0,0-1.08-1.08H44.16V8.62H54A2,2,0,0,1,56,10.6ZM43.91,51.15c.15.55.23,3.9.29,6.35a57.32,57.32,0,0,0,.36,7.09,4.14,4.14,0,0,0,.28.76,15.72,15.72,0,0,0,.78,1.43H10.77V12.93h8.62V14a1.08,1.08,0,0,0,1.08,1.08H43.09A1.07,1.07,0,0,0,44.16,14V12.93H51.7V41.39A4.61,4.61,0,0,0,47.65,39a4.36,4.36,0,0,0-3.6,1.78C42.52,42.88,42.47,46.36,43.91,51.15Zm-17-48.28a.72.72,0,0,1,.72-.72h8.26a.72.72,0,0,1,.71.72V4.31H26.93ZM24.87,6.46H40.22A1.8,1.8,0,0,1,42,8.26v4.67H21.54V8.26a1.81,1.81,0,0,1,1.8-1.8ZM6.46,69.11V10.6a2,2,0,0,1,2-2h11v2.15H9.69a1.08,1.08,0,0,0-1.07,1.08v56a1.08,1.08,0,0,0,1.07,1.08H47l.63,1,.76,1.18H8.44A2,2,0,0,1,6.46,69.11ZM54.51,72.6l-2.28.73c-.43-.83-1-1.83-1.72-2.88L49.4,68.74a44.87,44.87,0,0,1-2.62-4.33,1.3,1.3,0,0,1-.12-.31c-.16-.68-.24-4-.31-6.65-.09-3.59-.15-5.54-.29-6.47a1.86,1.86,0,0,0-.09-.44c-1.62-5.4-.82-7.6-.2-8.43a2.26,2.26,0,0,1,1.88-.92,2.51,2.51,0,0,1,.62.08c1.9.49,2.29,2.6,2.74,6,.68,5.2,1.85,6,2.55,6.55a7.86,7.86,0,0,0,1.44.89,8.11,8.11,0,0,0,2.09.75.79.79,0,0,0,.71-.27,1.08,1.08,0,0,0,.37-.8V37.09c4.12,4.24,8.31,9,9.26,11.54.11.28.19.55.19.55.48,1.6.19,3.43-.39,7.07-.2,1.3-.56,3.27-.94,5.35-.51,2.77-1,5.64-1.24,7.2,0,.14,0,.27,0,.4h0Z"/><path class="cls-3" d="M52.89,77.73A1.52,1.52,0,1,0,55,78.3,1.52,1.52,0,0,0,52.89,77.73Z"/><path class="cls-3" d="M73.8,47.3s-.14-.48-.33-1a28.81,28.81,0,0,0-4.65-7.15A1.08,1.08,0,0,0,67.3,39a1.07,1.07,0,0,0-.15,1.51,26.89,26.89,0,0,1,4.31,6.55c.16.41.28.82.28.82.77,2.57.38,5-.25,9a1.08,1.08,0,0,0,.89,1.24h.17a1.09,1.09,0,0,0,1.07-.91C74.28,53.09,74.71,50.34,73.8,47.3Z"/></g></g></svg>