<svg xmlns="http://www.w3.org/2000/svg" viewBox="0 0 83.72 76.75"><defs><style>.cls-1{fill:#ec6566;}.cls-2{fill:#66c3f0;}.cls-3{fill:#273357;}</style></defs><title>Recurso 7</title><g id="Capa_2" data-name="Capa 2"><g id="Ilustraciones"><path class="cls-1" d="M24.14,34.64a3.5,3.5,0,0,0,0,5,3.61,3.61,0,0,0,4.63.29V34.36a3.41,3.41,0,0,0-2.15-.75A3.5,3.5,0,0,0,24.14,34.64Z"/><path class="cls-1" d="M19,29.48a10.83,10.83,0,0,0,9.8,18.26V42.83a6,6,0,0,1-2.15.39,6.1,6.1,0,0,1,0-12.2,5.78,5.78,0,0,1,2.15.4v-4.9a10.89,10.89,0,0,0-2.15-.21A10.77,10.77,0,0,0,19,29.48Z"/><path class="cls-1" d="M13.8,24.31A18.13,18.13,0,0,0,26.62,55.25a19.09,19.09,0,0,0,2.15-.13V50.36a12.73,12.73,0,0,1-2.15.18,13.41,13.41,0,0,1,0-26.82,12.73,12.73,0,0,1,2.15.18V19.12A19.1,19.1,0,0,0,26.62,19,18,18,0,0,0,13.8,24.31Z"/><polygon class="cls-2" points="11.7 21.82 12.26 16.81 5.57 10.12 5.01 15.14 0 15.69 6.69 22.38 11.7 21.82"/><path class="cls-1" d="M14.9,56.05A22.33,22.33,0,0,1,4.4,38.14a1.07,1.07,0,0,0-1.07-1,1.08,1.08,0,0,0-1.08,1.14A24.2,24.2,0,0,0,9.37,54.38a24,24,0,0,0,4.37,3.48,1.08,1.08,0,0,0,1.52-.38A1.07,1.07,0,0,0,14.9,56.05Z"/><path class="cls-1" d="M61.09,57.22H40.62V44.3a1.08,1.08,0,1,0-2.15,0v14a1.07,1.07,0,0,0,1.07,1.08H61.09a1.08,1.08,0,0,0,0-2.16Z"/><path class="cls-1" d="M42.61,56.15a1.1,1.1,0,0,0,1-.62l2.64-5.6,3.23,4.2a1.1,1.1,0,0,0,1,.41,1.07,1.07,0,0,0,.86-.66l2-4.91L55.42,51a1,1,0,0,0,.87.31,1.07,1.07,0,0,0,.79-.47l4.79-7.2a1.08,1.08,0,1,0-1.79-1.2L56,48.58l-2.27-2.27a1.07,1.07,0,0,0-1.76.35L50,51.34l-3.17-4.13a1.1,1.1,0,0,0-1-.41,1.08,1.08,0,0,0-.86.61l-3.39,7.2A1.06,1.06,0,0,0,42.15,56,1.11,1.11,0,0,0,42.61,56.15Z"/><path class="cls-2" d="M61.8,9.83H57.85V6.42a.89.89,0,0,0-.89-.9H46.9a.89.89,0,0,0-.89.9V9.83H42.06a1.43,1.43,0,0,0-1.44,1.44v7.18H63.24V11.27A1.43,1.43,0,0,0,61.8,9.83Z"/><rect class="cls-2" x="78.32" y="34.6" width="4.31" height="25.85"/><circle class="cls-3" cx="51.39" cy="75.54" r="1.21"/><circle class="cls-3" cx="43.85" cy="1.21" r="1.21"/><path class="cls-3" d="M83.72,34.6a1,1,0,0,0-.1-.43l-2.07-7.26V24.3a1.08,1.08,0,0,0-2.15,0v2.61l-2.11,7.4a0,0,0,0,0,0,0l0,.15v.09s0,0,0,0V63.69a1.08,1.08,0,0,0,1.08,1.07h4.31a1.08,1.08,0,0,0,1.08-1.07v-29S83.72,34.64,83.72,34.6ZM79.4,35.68h2.15v23.7H79.4ZM80.48,31l.72,2.55H79.75Zm1.07,31.63H79.4V61.53h2.15Z"/><path class="cls-1" d="M18.74,59.47a1,1,0,1,1-1-1A1,1,0,0,1,18.74,59.47Z"/><path class="cls-3" d="M26.33,37.52a1.07,1.07,0,0,0,.76-1.83L5.78,14.37A1.08,1.08,0,0,0,4.25,15.9L25.56,37.21A1.08,1.08,0,0,0,26.33,37.52Z"/><path class="cls-3" d="M72.67,10.91H64.29A2.51,2.51,0,0,0,61.8,8.75H58.93V6.42a2,2,0,0,0-2-2H46.91a2,2,0,0,0-2,2V8.75H42.06a2.51,2.51,0,0,0-2.49,2.16H30.12a2.42,2.42,0,0,0-2.43,2.42v54.4a2.43,2.43,0,0,0,2.43,2.42H72.67a2.43,2.43,0,0,0,2.42-2.42V13.33A2.42,2.42,0,0,0,72.67,10.91ZM47.08,6.6h9.7v4.31h-9.7V6.6Zm-2.15,4.31v.17a2,2,0,0,0,2,2H57a2,2,0,0,0,2-2v-.17H61.8a.36.36,0,0,1,.36.36v6.1H41.7v-6.1a.36.36,0,0,1,.36-.36Zm-4.31,8.61H63.24a1.08,1.08,0,0,0,1.08-1.07V17.37h4.31V63.69H34.16V17.37h5.38v1.08A1.08,1.08,0,0,0,40.62,19.52ZM72.93,67.73a.26.26,0,0,1-.26.27H30.12a.27.27,0,0,1-.27-.27V13.33a.27.27,0,0,1,.27-.27h9.42v2.15H33.08A1.09,1.09,0,0,0,32,16.29V64.76a1.08,1.08,0,0,0,1.08,1.08H69.7a1.08,1.08,0,0,0,1.08-1.08V16.29a1.08,1.08,0,0,0-1.08-1.08H64.32V13.06h8.35a.26.26,0,0,1,.26.27Z"/><path class="cls-3" d="M38.47,26a1.07,1.07,0,0,0,1.07,1.07H62.16a1.08,1.08,0,1,0,0-2.15H39.54A1.07,1.07,0,0,0,38.47,26Z"/><path class="cls-3" d="M62.16,30.3H39.54a1.08,1.08,0,0,0,0,2.15H62.16a1.08,1.08,0,1,0,0-2.15Z"/><path class="cls-3" d="M53.55,35.68h-14a1.08,1.08,0,0,0,0,2.16h14a1.08,1.08,0,0,0,0-2.16Z"/><path class="cls-3" d="M47.08,74.46H31.46a8.08,8.08,0,0,1-8.07-8.08,1.08,1.08,0,0,0-2.16,0A10.24,10.24,0,0,0,31.46,76.61H47.08a1.08,1.08,0,1,0,0-2.15Z"/><path class="cls-3" d="M47.8,2.29h8.26A5.05,5.05,0,0,1,60.91,6a1.07,1.07,0,0,0,1,.79,1,1,0,0,0,.29,0A1.07,1.07,0,0,0,63,5.41,7.19,7.19,0,0,0,56.06.13H47.8a1.08,1.08,0,1,0,0,2.16Z"/></g></g></svg>