<?xml version="1.0" encoding="utf-8"?>
<!-- Generator: Adobe Illustrator 23.0.1, SVG Export Plug-In . SVG Version: 6.00 Build 0)  -->
<svg version="1.1" id="Capa_1" xmlns="http://www.w3.org/2000/svg" xmlns:xlink="http://www.w3.org/1999/xlink" x="0px" y="0px"
	 viewBox="0 0 89.2 79.8" style="enable-background:new 0 0 89.2 79.8;" xml:space="preserve">
<style type="text/css">
	.st0{fill:#66C3F0;}
	.st1{fill:#EC6566;}
	.st2{fill:#273357;}
</style>
<title>Recurso 1</title>
<g>
	<g id="Ilustraciones">
		<path class="st0" d="M34.8,11.5c0,4.4,3.6,8,8,8h1.4c0.3,0,0.6,0.1,0.8,0.3v-0.6c0,0-9-0.5-9-5.2c0-2.9-0.2-5.6-1.6-7.9
			C34.9,7.6,34.8,8.3,34.8,11.5z"/>
		<path class="st0" d="M42.8,21.7c-5.6,0-10.2-4.6-10.2-10.2v-3c0-2.6-2.2-4.8-4.8-4.8c-1.3,0-2.5,0.5-3.4,1.4
			C2.8,26.9,4.2,25.6,3.6,25.6c-0.6,0-1.1-0.5-1.1-1.1c0-0.3,0.1-0.6,0.3-0.8L22.3,4.3C13,10.4,0.8,25.7,0.8,25.7L8,26.2l2.4,1.4
			l4.1,0.2l4,1.6l3.3-0.8l3.2,1.8l7.7-4.7l4.7,1.5l7.6-2.8v-3C44.6,21.9,44,21.7,42.8,21.7z"/>
		<ellipse transform="matrix(0.1602 -0.9871 0.9871 0.1602 31.0454 49.8661)" class="st1" cx="44.8" cy="6.7" rx="5" ry="5"/>
		<path class="st0" d="M44.5,19.3c0,0,9-0.6,9-5.2S53.8,5.3,59,2c7.1-4.6,28.8,22.8,28.8,22.8l-6.4,1.5L79,27.8L74.9,28l-4,1.7
			l-3.3-0.9l-3.2,1.8l-7.6-4.7L52,27.4l-7.6-2.9L44.5,19.3z"/>
		<path class="st2" d="M34.1,68.5c-0.5-0.2-1-0.4-1.6-0.6C32,67.6,31.8,67,32,66.4c0.2-0.5,0.8-0.7,1.3-0.6c0.5,0.2,1,0.4,1.5,0.5
			c0.5,0.3,0.7,1,0.4,1.5C35,68.3,34.5,68.5,34.1,68.5L34.1,68.5z M27.6,65.4c-0.5-0.3-0.9-0.6-1.4-0.9c-0.5-0.4-0.6-1-0.2-1.5
			c0.3-0.4,1-0.6,1.4-0.3c0.4,0.3,0.9,0.6,1.3,0.8c0.5,0.3,0.7,1,0.4,1.5C28.7,65.5,28.1,65.7,27.6,65.4z M21.9,61
			c-0.4-0.4-0.8-0.8-1.2-1.2c-0.4-0.5-0.3-1.1,0.2-1.5c0.4-0.3,1-0.3,1.4,0c0.4,0.4,0.7,0.8,1.1,1.1c0.4,0.4,0.4,1.1-0.1,1.5
			C22.9,61.3,22.3,61.3,21.9,61L21.9,61z M17.2,55.4c-0.3-0.5-0.6-0.9-0.9-1.4c-0.3-0.5-0.1-1.2,0.4-1.5c0.5-0.3,1.2-0.1,1.5,0.4
			c0.3,0.4,0.5,0.9,0.8,1.3c0.3,0.5,0.1,1.2-0.4,1.5C18.2,56,17.6,55.9,17.2,55.4L17.2,55.4z M13.9,49c-0.2-0.5-0.4-1-0.6-1.6
			c-0.1-0.6,0.4-1.1,1-1.2c0.4,0,0.8,0.2,1,0.5c0.2,0.5,0.3,1,0.5,1.5c0.1,0.6-0.3,1.1-0.9,1.2C14.6,49.5,14.2,49.3,13.9,49L13.9,49
			z M12.1,42c-0.1-0.6-0.1-1.1-0.2-1.7c-0.1-0.6,0.4-1.1,1-1.2c0.6-0.1,1.1,0.4,1.2,1c0,0.5,0.1,1,0.2,1.6c0.1,0.6-0.2,1.2-0.8,1.3
			c-0.6,0.1-1.2-0.2-1.3-0.8C12.1,42.1,12.1,42,12.1,42L12.1,42z M11.9,34.8c0-0.6,0.1-1.1,0.2-1.7c0.1-0.6,0.7-1,1.3-0.9
			c0.5,0.1,0.9,0.6,0.9,1.1c-0.1,0.5-0.1,1-0.1,1.6c-0.1,0.6-0.6,1-1.2,0.9C12.3,35.8,11.9,35.3,11.9,34.8L11.9,34.8z"/>
		<path class="st2" d="M55.2,66.3c0.5-0.2,1-0.4,1.5-0.6c0.6-0.2,1.2,0,1.4,0.6c0.2,0.6,0,1.2-0.6,1.4c-0.5,0.2-1,0.4-1.5,0.6
			c-0.6,0.2-1.2-0.1-1.4-0.7C54.4,67.1,54.7,66.5,55.2,66.3L55.2,66.3z M61.3,63.3c0.4-0.3,0.9-0.6,1.3-0.9c0.5-0.3,1.2-0.1,1.5,0.4
			c0.3,0.5,0.2,1-0.2,1.4c-0.5,0.3-0.9,0.6-1.4,0.9c-0.6,0.2-1.2-0.1-1.4-0.6C60.9,64.1,61,63.6,61.3,63.3L61.3,63.3z M66.6,59.1
			c0.4-0.4,0.7-0.7,1.1-1.1c0.4-0.4,1.1-0.4,1.5,0c0.4,0.4,0.4,1,0.1,1.5c-0.4,0.4-0.8,0.8-1.2,1.2c-0.5,0.4-1.1,0.3-1.5-0.2
			C66.3,60,66.3,59.5,66.6,59.1L66.6,59.1z M70.8,53.8c0.3-0.4,0.6-0.9,0.8-1.3c0.3-0.5,1-0.6,1.5-0.3c0.4,0.3,0.6,0.9,0.4,1.4
			c-0.3,0.5-0.6,1-0.9,1.4c-0.4,0.5-1.1,0.5-1.5,0.2C70.7,54.9,70.6,54.3,70.8,53.8L70.8,53.8z M73.8,47.8c0.2-0.5,0.3-1,0.5-1.5
			c0.2-0.6,0.8-0.8,1.4-0.6c0.5,0.2,0.8,0.7,0.7,1.3c-0.2,0.5-0.3,1.1-0.5,1.6c-0.3,0.5-0.9,0.7-1.5,0.4
			C74,48.8,73.7,48.3,73.8,47.8L73.8,47.8z M75.5,41.3c0.1-0.5,0.1-1,0.2-1.6c0.1-0.6,0.6-1,1.2-0.9c0.6,0.1,1,0.6,0.9,1.1
			c0,0.6-0.1,1.1-0.2,1.7c-0.1,0.6-0.7,1-1.2,0.9C75.8,42.3,75.4,41.9,75.5,41.3L75.5,41.3z M75.6,34.5c0-0.5-0.1-1-0.2-1.6
			c-0.1-0.6,0.4-1.1,0.9-1.2c0.6-0.1,1.1,0.3,1.2,0.9c0.1,0.6,0.1,1.1,0.2,1.7c0.1,0.6-0.3,1.1-0.9,1.2c-0.6,0.1-1.1-0.3-1.2-0.9
			C75.6,34.6,75.6,34.6,75.6,34.5z"/>
		<path class="st2" d="M28.8,14c-0.6,0-1.1-0.5-1.1-1.1c0-0.6,0.5-1.1,1.1-1.1l0,0c0.6,0,1.1,0.5,1.1,1.1C29.9,13.5,29.4,14,28.8,14
			z"/>
		<path class="st2" d="M43.8,78.5V11.6c0-0.6,0.5-1.1,1.1-1.1c0.6,0,1.1,0.5,1.1,1.1v66.9c0,0.6-0.5,1.1-1.1,1.1
			C44.2,79.6,43.8,79.1,43.8,78.5z"/>
		<path class="st2" d="M44.8,12.7c-3.3,0-6-2.7-6-6s2.7-6,6-6s6,2.7,6,6S48.1,12.7,44.8,12.7z M44.8,2.7c-2.1,0-3.9,1.7-3.9,3.9
			c0,2.1,1.7,3.9,3.9,3.9c2.1,0,3.9-1.7,3.9-3.9S47,2.7,44.8,2.7C44.8,2.7,44.8,2.7,44.8,2.7z"/>
		<path class="st2" d="M79.5,25.3L68.9,14.7c-0.4-0.4-0.4-1.1,0-1.5c0.4-0.4,1.1-0.4,1.5,0L81,23.7c1.5,1.5,3.7,1.7,5.5,0.7L66.1,4
			c-1.2-1.2-2.8-1.9-4.5-1.9c-3.5,0-6.4,2.9-6.4,6.4v3c0,4.7-3.8,8.5-8.5,8.5h-1.9c-0.6-0.1-1-0.6-1-1.2c0-0.5,0.5-0.9,1-1h2
			c3.5,0,6.4-2.9,6.4-6.4v-3C53.1,3.8,57,0,61.7,0c2.2,0,4.4,0.9,6,2.5l21.2,21.2c0.4,0.4,0.4,1.1,0,1.5c0,0,0,0,0,0
			C86.3,27.9,82.1,27.9,79.5,25.3C79.5,25.3,79.5,25.3,79.5,25.3z"/>
		<path class="st2" d="M61.3,20.3c-0.2,0-0.4,0-0.5-0.1c-0.5-0.3-0.7-0.9-0.4-1.5c1.1-2.1,1.8-4.5,1.8-6.9c0.1-0.6,0.6-1,1.2-1
			c0.5,0,0.9,0.5,1,1c0,2.7-0.7,5.4-2,7.9C62.1,20,61.7,20.3,61.3,20.3z"/>
		<path class="st2" d="M73,26.9L67.2,21c-0.4-0.4-0.4-1.1,0.1-1.5c0.4-0.4,1-0.4,1.4,0l5.8,5.8c1.5,1.5,3.8,1.8,5.7,0.6l-8.4-8.4
			c-0.4-0.4-0.4-1.1,0.1-1.5c0.4-0.4,1-0.4,1.4,0c10,10,9.6,9.4,9.6,10c0,0.3-0.1,0.6-0.4,0.8C79.9,29.5,75.6,29.5,73,26.9
			C73,26.9,73,26.9,73,26.9z"/>
		<path class="st2" d="M66.5,28.4l-3.7-3.7c-0.4-0.4-0.4-1.1,0-1.5c0.4-0.4,1.1-0.4,1.5,0c0,0,0,0,0,0l3.7,3.7
			c1.5,1.5,3.8,1.8,5.7,0.6l-6.4-6.4c-0.4-0.4-0.4-1.1,0.1-1.5c0.4-0.4,1-0.4,1.4,0c7.8,7.8,7.5,7.3,7.5,8c0,0.3-0.1,0.6-0.4,0.8
			C73.4,31.1,69.2,31.1,66.5,28.4C66.5,28.4,66.5,28.4,66.5,28.4z"/>
		<path class="st2" d="M59.2,29.2l-2.9-2.9c-0.4-0.4-0.4-1.1,0-1.5c0.4-0.4,1.1-0.4,1.5,0l0,0c2.9,2.9,3.8,4.2,6.1,4.2
			c0.9,0,1.7-0.2,2.4-0.7l-3.6-3.6c-0.4-0.4-0.4-1.1,0-1.5c0,0,0,0,0,0c0.4-0.4,1.1-0.4,1.5,0l4.4,4.4
			C70.6,29.5,63.6,33.6,59.2,29.2z"/>
		<path class="st2" d="M0.3,24L21.8,2.5c3.3-3.3,8.8-3.3,12.1,0c1.6,1.6,2.5,3.7,2.5,6v3c0,3.5,2.9,6.4,6.4,6.4h1.9
			c0.6,0.1,1,0.6,1,1.2c0,0.5-0.5,0.9-1,1h-1.9c-4.7,0-8.5-3.8-8.5-8.5v-3c0-3.5-2.9-6.4-6.4-6.4c-1.7,0-3.3,0.7-4.5,1.9L2.7,24.7
			c1.8,1.1,4,0.8,5.5-0.7L19,13.2c0.4-0.4,1.1-0.4,1.5,0.1c0.4,0.4,0.4,1,0,1.4L9.7,25.6C5.4,29.9-1.5,25.9,0.3,24z"/>
		<path class="st2" d="M7,25.2l9.2-9.2c0.4-0.4,1.1-0.4,1.5,0c0.4,0.4,0.4,1.1,0,1.5l-8.4,8.4c1.8,1.1,4.1,0.9,5.7-0.6l5.8-5.8
			c0.4-0.4,1.1-0.4,1.5,0.1c0.4,0.4,0.4,1,0,1.4l-5.8,5.8C12.1,31.2,5.1,27.1,7,25.2z"/>
		<path class="st2" d="M13.4,26.9l7.2-7.2c0.4-0.4,1.1-0.4,1.5,0.1c0.4,0.4,0.4,1,0,1.4l-6.4,6.4c1.8,1.1,4.1,0.9,5.6-0.6l3.7-3.7
			c0.4-0.4,1.1-0.4,1.5,0.1c0.4,0.4,0.4,1,0,1.4L23,28.4C18.6,32.9,11.6,28.7,13.4,26.9z"/>
		<path class="st2" d="M20.7,27.6l4.4-4.4c0.4-0.4,1.1-0.4,1.5,0c0.4,0.4,0.4,1.1,0,1.5l-3.6,3.6c1.8,1.1,4.1,0.9,5.6-0.6l2.9-2.9
			c0.4-0.4,1.1-0.4,1.5,0c0.4,0.4,0.4,1.1,0,1.5l-2.9,2.9C25.9,33.6,18.9,29.5,20.7,27.6z"/>
		<path class="st2" d="M47.3,37.8c4.2-1.9,5.9-3.5,5.9-5.6c0.1-0.6,0.6-1,1.2-1c0.5,0,0.9,0.5,1,1c0,3.8-3.4,5.8-7.1,7.5
			c-0.6,0.2-1.2-0.1-1.4-0.7C46.6,38.6,46.8,38.1,47.3,37.8z"/>
		<path class="st2" d="M46.8,69.1c-0.3-0.5-0.2-1.2,0.3-1.5c2.5-1.7,3.5-3.1,3.5-4.8c0-6.7-15.5-6.8-15.5-15.3c0-3.6,3.2-5.6,6-7
			c0.5-0.3,1.2-0.1,1.5,0.5c0.3,0.5,0.1,1.2-0.5,1.5c-3.3,1.7-4.8,3.2-4.8,5.1c0,3.2,3.5,4.9,7.2,6.7c4.1,2,8.4,4.1,8.4,8.6
			c0,3.1-2.3,5-4.5,6.5c-0.5,0.4-1.1,0.3-1.5-0.2C46.9,69.2,46.9,69.1,46.8,69.1z"/>
		<path class="st2" d="M44.6,79.8c-2.6,0-4.7-2-4.7-4.6c0-0.9,0.3-1.9,0.8-2.6c0.4-0.5,1.1-0.5,1.5-0.2c0.4,0.3,0.5,0.9,0.3,1.4
			c-1.1,1.6-0.1,3.9,2.4,3.9c1.4,0,2.6-1.2,2.6-2.6c0,0,0,0,0,0c0-3.8-10.8-5.6-10.8-12.2c0-3.5,2.7-5.5,4.8-6.7
			c0.5-0.3,1.2-0.1,1.5,0.4c0.3,0.5,0.1,1.1-0.4,1.4c-2.6,1.6-3.7,3-3.7,4.9c0,5.2,10.8,6.6,10.8,12.2c0,2.6-2.1,4.8-4.8,4.8
			C44.8,79.8,44.7,79.8,44.6,79.8z"/>
		<path class="st2" d="M47.2,53.1c3-1.6,5-3.1,5-5.6c0-6.6-18-6.7-18-15.3c0-0.6,0.5-1.1,1.1-1.1c0.6,0,1.1,0.5,1.1,1.1
			c0,6.6,18,6.7,18,15.3c0,3.7-3.1,5.9-6.1,7.5c-0.5,0.3-1.2,0.1-1.5-0.4C46.5,54.1,46.7,53.4,47.2,53.1L47.2,53.1z"/>
		<path class="st2" d="M37.5,35.9c-1.8,0-3.3-1.5-3.3-3.3c0-1.8,1.5-3.3,3.3-3.3c1.8,0,3.3,1.5,3.3,3.3c0,0,0,0,0,0
			C40.8,34.4,39.3,35.9,37.5,35.9z M36.3,32.5c0,0.6,0.5,1.2,1.2,1.2c0.6,0,1.2-0.5,1.2-1.2c0-0.6-0.5-1.2-1.2-1.2
			C36.9,31.4,36.4,31.9,36.3,32.5L36.3,32.5L36.3,32.5z"/>
		<path class="st2" d="M52,35.9c-1.8,0-3.3-1.5-3.3-3.3c0-1.8,1.5-3.3,3.3-3.3c1.8,0,3.3,1.5,3.3,3.3l0,0
			C55.3,34.4,53.8,35.9,52,35.9z M50.8,32.5c0,0.6,0.5,1.2,1.2,1.2c0.6,0,1.2-0.5,1.2-1.2c-0.1-0.6-0.7-1.1-1.3-1
			C51.3,31.7,51,32,50.8,32.5L50.8,32.5z"/>
		<path class="st2" d="M45.8,25.7c-0.5-0.6-1.3-0.7-1.9-0.2c-0.1,0.1-0.2,0.2-0.2,0.2c-4.8,6-15.9,0.6-15.9-8.6
			c0-0.6,0.5-1.1,1.1-1.1c0.6,0,1.1,0.5,1.1,1.1c0,7.5,8.8,11.3,12.1,7.3c1.2-1.5,3.4-1.8,4.9-0.6c0.2,0.2,0.4,0.4,0.6,0.6
			c2.7,3.4,8.6,1.2,10.9-2.8c0.3-0.5,0.9-0.7,1.5-0.4c0,0,0,0,0,0C62.8,22.9,51.5,32.9,45.8,25.7z"/>
		<path class="st0" d="M515.7-1126.1v13.4c1.5,0.5,3.2,0.1,4.3-1.2c2.1,0.8,4.5-0.3,5.3-2.5c0.5-1.5,0.2-3.2-1-4.3
			c1.8-2.2,1.5-5.4-0.7-7.2c-2.2-1.8-5.4-1.5-7.2,0.7C516.1-1126.9,515.9-1126.5,515.7-1126.1z"/>
	</g>
</g>
</svg>
