<svg xmlns="http://www.w3.org/2000/svg" viewBox="0 0 77.45 90.11"><defs><style>.cls-1{fill:#66c3f0;}.cls-2{fill:#ec6566;}.cls-3{fill:#273357;}</style></defs><title>Recurso 3</title><g id="Capa_2" data-name="Capa 2"><g id="Ilustraciones"><path class="cls-1" d="M13.32,49.18l.66-.86.42-.54V46h1.4l.58-.76h12V30.93a18.46,18.46,0,0,0,4.1,11.56l.55.63,1.07,1.21A7.93,7.93,0,0,1,36,41l.05,0a7.56,7.56,0,0,0,3,1.84l-1.45-1.56c-.29-.31-.56-.63-.82-1A17.44,17.44,0,0,1,35.6,38.6l0,0A17.67,17.67,0,0,1,34,35.45a18.12,18.12,0,0,1-1.29-6.74,7.74,7.74,0,0,0-6.33-7.31,8.86,8.86,0,0,1-11,0A7.73,7.73,0,0,0,9,28.71V47.56a1.71,1.71,0,0,0,1.77,1.62Zm-3.23-1.62V46h2.16v1.61c0,.21,0,.39,0,.54H10.11C10.1,48,10.09,47.77,10.09,47.56Z"/><path class="cls-2" d="M75.86,69.94a2.76,2.76,0,0,0-1.19-1.43l-.1,0-.11,0a15.4,15.4,0,0,0-3.21-.19h-.13a3.38,3.38,0,0,1,.93,1c.34.76-.08,1.54-2.09,2.34-1.14.46-2.52,1-4,1.69l-1.33.6C59.52,76.26,53.8,79,53.08,79.39c-1.7.87-3.68,1.57-11.75,1-7.61-.54-13.58-1.09-16.66-.56-.5.08-1.19.23-2,.41l-4.89-4.13L16.53,75,15.26,74,14,72.87l-.5-.41-.83-.71-.19-.16c.28-.34.56-.67.85-1s.59-.63.88-.93l.2-.21a29.36,29.36,0,0,1,5.39-4.25c.75-.46,1.47-.86,2.15-1.2a22.46,22.46,0,0,1,5.39-2l.18,0A6.4,6.4,0,0,1,28.4,62c.34,0,.7,0,1.08,0a27.5,27.5,0,0,1,5.12.94l1.34.35,2.16.63,1.56.47c1,.29,2,.63,3.19,1l3.86,1.24,1,.33a2.78,2.78,0,0,1,1.37.93,1.13,1.13,0,0,1,.15.21,2.77,2.77,0,0,1-2.42,1.37,2.88,2.88,0,0,1-.71-.09l-.83-.22-6.09-1.61-1.11-.29v0l-.47-.12a2.55,2.55,0,0,0-.72-.1,2.8,2.8,0,0,0-2.58,1.75,2.21,2.21,0,0,0,.26,2,2.48,2.48,0,0,0,1.47,1l2.72.73h0l5.16,1.36h0l.55.14h0l.46.12h0l1.21.32a2.56,2.56,0,0,0,.73.09A2.81,2.81,0,0,0,49,73.6h0a2.27,2.27,0,0,0,.47-.81,2,2,0,0,0,.11-.8,1.89,1.89,0,0,0-.08-.53l.43.12h0a3,3,0,0,0,.72.09,3.58,3.58,0,0,0,.48,0,4.44,4.44,0,0,0,.24-.49,4.58,4.58,0,0,0,.22-2.85,5.64,5.64,0,0,0-.3-.84,4.14,4.14,0,0,0-.39-.68l-1-.28-.5-.13-.69-.19a5,5,0,0,0-.71-.3l-1.31-.42h0l-1.64-.53-.26-.08-.26-.08h0L42.07,64l-1.79-.56-2.18-.66-2-.56-.17,0a1.06,1.06,0,0,0-.19-.06h0L35.54,62a30.14,30.14,0,0,0-6.06-1.14c-.38,0-.73,0-1.08,0h-.1l-.32,0-.37,0-.24,0h-.05l-.49.09a26.43,26.43,0,0,0-3.54,1.18l-.13.06-.88.38h0l-.34.16c-.75.35-1.47.72-2.15,1.11a30.07,30.07,0,0,0-5.39,4l-.29.28-.79.77c-.38.39-.74.77-1.07,1.15s-.45.51-.65.76-.4.47-.58.71l-.1.12-.06.08c-.21.26-.41.52-.58.78h0l.9.76.39.33.35.3,2.57,2.17.95.8h0a5.17,5.17,0,0,1,3.41,2.83L19,80l1,.88h0l3.16,2.67a4,4,0,0,0,1.07.4,2.3,2.3,0,0,0,.9,0l.17,0a2.48,2.48,0,0,1,.27,0l.27,0c.3,0,.62-.06,1-.07,1.05-.06,2.28-.06,3.69,0l1.43.07.81,0,1.6.1,2.64.18,1.86.13,3,.22c5.49.39,8.16.19,9.84-.25L52,84.2c.18,0,.34-.11.5-.17a1.7,1.7,0,0,0,.24-.09l.56-.25.36-.17L74.82,73l.15-.08.26-.18A2.32,2.32,0,0,0,75.86,69.94Z"/><path class="cls-3" d="M20.87,21.17c4.15,0,7.54-3.87,7.54-8.62a9.46,9.46,0,0,0-1-4.2,7.3,7.3,0,0,0,.34-7,1.09,1.09,0,0,0-.62-.59,1.07,1.07,0,0,0-.84,0,11.87,11.87,0,0,1-3.59,1.12,11.4,11.4,0,0,1-3.23,0,6.25,6.25,0,0,0-3.65.38A7.49,7.49,0,0,0,12,6.89a7.74,7.74,0,0,0,1.36,6.41C13.69,17.74,16.92,21.17,20.87,21.17Zm0-2.15c-2.89,0-5.25-2.71-5.38-6.16V12.8a2,2,0,0,1,0-.25V12.3A5.82,5.82,0,0,1,16.8,8.18a8.52,8.52,0,0,0,5.7,2.4,6.6,6.6,0,0,0,3.24-.75,7.43,7.43,0,0,1,.51,2.72C26.25,16.12,23.84,19,20.87,19ZM14.1,7.43a5.41,5.41,0,0,1,2.63-3.18A3,3,0,0,1,18.08,4a11,11,0,0,1,1.18.09,13.29,13.29,0,0,0,3.77,0,14.36,14.36,0,0,0,3.12-.82,4.52,4.52,0,0,1-.66,4.11l0,0-.09.08a4.08,4.08,0,0,1-2.85,1,6.51,6.51,0,0,1-4.87-2.49,1.07,1.07,0,0,0-.74-.38,1,1,0,0,0-.79.25,7.89,7.89,0,0,0-2.18,3v0A4.67,4.67,0,0,1,14.1,7.43Z"/><path class="cls-3" d="M48.84,19.32a6.63,6.63,0,0,0,2.66,1.85,1.07,1.07,0,0,0,1.38-.63,1.08,1.08,0,0,0-.62-1.39,4.39,4.39,0,0,1-1.79-1.24,4.47,4.47,0,0,1-.92-1.74,8.65,8.65,0,0,0,.9-1,9.68,9.68,0,0,0,1.77-5.05,11.92,11.92,0,0,1,1.22-4.39,6.45,6.45,0,0,1,1.9-2.45,6.77,6.77,0,0,1,5-1h.31a6.77,6.77,0,0,1,5,1,6.45,6.45,0,0,1,1.9,2.45,12.12,12.12,0,0,1,1.22,4.39,9.68,9.68,0,0,0,1.77,5.05,8.65,8.65,0,0,0,.9,1,4.41,4.41,0,0,1-.92,1.74,4.45,4.45,0,0,1-1.79,1.24,1.08,1.08,0,0,0-.63,1.39,1.1,1.1,0,0,0,1,.7,1,1,0,0,0,.38-.07,6.54,6.54,0,0,0,4.19-5.23,1.1,1.1,0,0,0-.37-1,7.28,7.28,0,0,1-1-1.1,7.57,7.57,0,0,1-1.35-4,14.15,14.15,0,0,0-1.45-5.1,8.59,8.59,0,0,0-2.54-3.19A8.91,8.91,0,0,0,60.49.09a8.89,8.89,0,0,0-6.42,1.43,8.59,8.59,0,0,0-2.54,3.19,14.2,14.2,0,0,0-1.45,5.1,7.57,7.57,0,0,1-1.35,4,7.28,7.28,0,0,1-1,1.1,1.1,1.1,0,0,0-.37,1A6.58,6.58,0,0,0,48.84,19.32Z"/><path class="cls-3" d="M62.67,4a1.08,1.08,0,0,0-1.5.3A18.28,18.28,0,0,1,56.72,8.9a17.49,17.49,0,0,1-3,1.73,1.08,1.08,0,0,0,.43,2.06c.61,4,3.23,6.85,6.31,6.85s5.51-2.7,6.23-6.43a.92.92,0,0,0,.36.07,1.07,1.07,0,0,0,.43-2.06A15.11,15.11,0,0,1,64.09,9a14.57,14.57,0,0,1-2.15-2.15c.36-.45.7-.91,1-1.39A1.09,1.09,0,0,0,62.67,4Zm.06,6.72a16,16,0,0,0,2,1.38c-.37,3-2.16,5.31-4.22,5.31s-3.84-2.26-4.22-5.25a1,1,0,0,0-.1-.34A17.81,17.81,0,0,0,58,10.64a19,19,0,0,0,2.51-2.15A17.32,17.32,0,0,0,62.73,10.7Z"/><path class="cls-3" d="M41.33,39.9a4.31,4.31,0,0,0,4.31-4.31V33.44a4.31,4.31,0,0,0-8.62,0v2.15A4.32,4.32,0,0,0,41.33,39.9Zm-2.15-6.46a2.16,2.16,0,0,1,4.31,0v2.15a2.16,2.16,0,1,1-4.31,0Z"/><path class="cls-3" d="M77.17,69.35a3.63,3.63,0,0,0-2.52-1.95,17.19,17.19,0,0,0-4.87-.1,29.29,29.29,0,0,0-3.37.57l.7-10.77a27.35,27.35,0,0,0,6.52-2.72,1.08,1.08,0,0,0,.52-1.1,44,44,0,0,0-2.79-10V28.78A10.19,10.19,0,0,0,66,19.91a1,1,0,0,0-.67-.27h-.12a1.09,1.09,0,0,0-.94.59,1.1,1.1,0,0,0-.08.71s0,0,0,0a3.79,3.79,0,0,1-7.46,0h0a1,1,0,0,0-.08-.62,1.07,1.07,0,0,0-.55-.54h0a.2.2,0,0,0-.08,0,1.09,1.09,0,0,0-1.11.21,9,9,0,0,0-5.2,8,14.27,14.27,0,0,1-1.19,6.78c-1.34,3.42-3.39,5.13-4.7,5.75a6.55,6.55,0,0,1-2.5.6,4.8,4.8,0,0,1-1.51-.23,5.32,5.32,0,0,1-2.74-1.95.55.55,0,0,0-.12-.14,17.37,17.37,0,0,1-3.17-10,8.77,8.77,0,0,0-7.17-8.36,1.05,1.05,0,0,0-.89.19,7.78,7.78,0,0,1-9.73,0,1.08,1.08,0,0,0-.89-.19,8.77,8.77,0,0,0-7.17,8.36V47.56c0,.74,0,2.69,1.4,2.69h2.91V68.59c-.33.35-.66.71-1,1.1l-.43.51-.25-.2-2-1.71A1.1,1.1,0,0,0,7.77,68a1.13,1.13,0,0,0-.74.39L.25,76.57A1.08,1.08,0,1,0,1.91,78l.22-.27L8,70.63l2.27,1.92.9.76.39.33.35.3,2.57,2.17.95.8h0L19,80l1,.88h0l3.16,2.67.79.68h0l.67.56L26.18,86l-.62.69a.85.85,0,0,0-.2.32,1.07,1.07,0,0,0,.27,1.2,1.06,1.06,0,0,0,.72.28,1.09,1.09,0,0,0,.8-.35l1.37-1.52a1,1,0,0,0,.28-.79,1.06,1.06,0,0,0-.38-.75l-.31-.26c2.76,0,6.59.25,11.13.59l2.56.19c2.07.14,3.76.21,5.15.21,4.19,0,5.74-.6,7.19-1.34.29-.16,6.2-3.09,11.41-5.67L75.3,74A3.68,3.68,0,0,0,77.17,69.35Zm-9.6-39.5a5.71,5.71,0,0,1,.21-.58,6.8,6.8,0,0,0,.57-3.79,2.57,2.57,0,0,0-.08-.4,7.91,7.91,0,0,1,.94,3.7V38.84c-.68-1.23-1.42-2.44-2.22-3.61A13.34,13.34,0,0,1,67.57,29.85Zm-15.7-1.63s0-2.38,1.09-3.14a6.37,6.37,0,0,0,.24,4.16l.21.6A13.19,13.19,0,0,1,54,35.23a43.42,43.42,0,0,0-3,5.08,1.09,1.09,0,0,0,.48,1.45,1.2,1.2,0,0,0,.48.11,1.09,1.09,0,0,0,1-.59,41.85,41.85,0,0,1,3-5.06,1.13,1.13,0,0,0,.19-.51,15.52,15.52,0,0,0-.67-6.56c-.07-.22-.15-.44-.23-.66a4.82,4.82,0,0,1-.46-2.67,11.75,11.75,0,0,1,.8-2.23,5.92,5.92,0,0,0,9.88,0,12,12,0,0,1,.79,2.22,4.88,4.88,0,0,1-.47,2.69c-.08.21-.16.42-.23.64a15.59,15.59,0,0,0-.66,6.56,1,1,0,0,0,.19.51,42.56,42.56,0,0,1,4.14,7.49s0,0,0,.06a1.11,1.11,0,0,0,.21.51,42.17,42.17,0,0,1,2.47,8.6A24.51,24.51,0,0,1,66,55.17a25.06,25.06,0,0,1-5.47.69A25,25,0,0,1,55,55.17a23.72,23.72,0,0,1-2.32-.69,1.08,1.08,0,0,0-.71,2q.93.31,1.89.57l.92,14.23a37.2,37.2,0,0,1-4.06,1,5.27,5.27,0,0,0,.69-1.17,4.58,4.58,0,0,0,.22-2.85,5.64,5.64,0,0,0-.3-.84,4.14,4.14,0,0,0-.39-.68,5.17,5.17,0,0,0-.86-1,5,5,0,0,0-1.75-1l-1.64-.53V55.64h2A2.36,2.36,0,0,0,51,53.26V46.68a10.32,10.32,0,0,0-2.82-7.11l-.16-.16C49.9,37.1,51.79,34,51.87,28.22ZM64.92,57.59l-.71,10.82c-.87.24-1.76.5-2.64.77V58A27.49,27.49,0,0,0,64.92,57.59Zm-5.5.38v11.9c-.25.07-.5.16-.74.24l-1.76.56-.84-13.08A27.1,27.1,0,0,0,59.42,58ZM36.09,41a7.56,7.56,0,0,0,3,1.84,6.62,6.62,0,0,0,1.32.29,6.8,6.8,0,0,0,.9.06,7.41,7.41,0,0,0,4.87-1.86.89.89,0,0,0,.2-.19l.17-.15.08.08a8.14,8.14,0,0,1,2.22,5.62v6.58a.22.22,0,0,1-.17.23h-2V47a1.08,1.08,0,0,0-2.16,0v6.47H38.1V47A1.08,1.08,0,0,0,36,47v6.47H34a.22.22,0,0,1-.17-.23V46.68a8.94,8.94,0,0,1,.06-1,8.25,8.25,0,0,1,.28-1.31A7.93,7.93,0,0,1,36,41Zm5.24,15.73a1.08,1.08,0,0,0-1.08,1.07v4.47h0l-2.15-.64v-6h6.46v8l-2.15-.68V57.79A1.07,1.07,0,0,0,41.33,56.72ZM34,55.64h2V61a30.52,30.52,0,0,0-6.46-1.22v-20a19.08,19.08,0,0,0,2.6,3.86,10.59,10.59,0,0,0-.44,3v6.58A2.35,2.35,0,0,0,34,55.64ZM12.25,47.56c0,.21,0,.39,0,.54H10.79c-.37,0-.7-.25-.7-.54V46h2.16Zm0-3.77H10.09V28.71a6.56,6.56,0,0,1,5-6.14,9.95,9.95,0,0,0,11.5,0,6.57,6.57,0,0,1,5,6.14,19.4,19.4,0,0,0,3.11,10.58,9.73,9.73,0,0,0-1.69,2.14,17.3,17.3,0,0,1-3.58-10.55v-1.4a1.08,1.08,0,1,0-2.15,0V43.79H14.4v-14a1.08,1.08,0,1,0-2.15,0Zm8.61,6.46a1.08,1.08,0,0,0-1.07,1.08V62.74a31.22,31.22,0,0,0-5.39,3.78V46H27.33V59.88h-.12a23.33,23.33,0,0,0-5.27,1.76V51.33A1.08,1.08,0,0,0,20.86,50.25ZM74.34,72l-9.75,4.84c-9.33,4.62-11.37,5.63-11.45,5.68-1.55.81-3.47,1.43-11.18.89l-2.56-.19c-6-.44-10.75-.8-13.68-.46l-3-2.56-4.89-4.13L16.53,75,15.26,74,14,72.87l-.5-.41-.83-.71-.19-.16c.28-.34.56-.67.85-1s.59-.63.88-.93l.2-.21a29.36,29.36,0,0,1,5.39-4.25c.75-.46,1.47-.86,2.15-1.2a22.46,22.46,0,0,1,5.39-2l.18,0A6.4,6.4,0,0,1,28.4,62c.34,0,.7,0,1.08,0a27.5,27.5,0,0,1,5.12.94l1.34.35,2.16.63,1.56.47c1,.29,2,.63,3.19,1l3.86,1.24,1,.33a2.78,2.78,0,0,1,1.37.93,1.13,1.13,0,0,1,.15.21,2,2,0,0,1,.18.32,2.12,2.12,0,0,1,.21.69,2.41,2.41,0,0,1-.16,1.27,2.46,2.46,0,0,1-.25.45,2.32,2.32,0,0,1-.4.49,3.46,3.46,0,0,1-3.39.79l0,0s0,0,0,0l0,0a95.52,95.52,0,0,0-9.47-2.39,1.06,1.06,0,0,0-1.27.83.82.82,0,0,0,0,.27,1.07,1.07,0,0,0,.85,1c1.2.26,2.32.51,3.34.75h0c2.09.49,3.8.94,5.16,1.36h0l.68.22.06,0h0c2.81,1.17,6.39.54,10.34-.61,1.38-.4,2.81-.85,4.25-1.32l.08,0,1-.33,1.14-.36,2.49-.75c.74-.21,1.47-.41,2.2-.58a24.57,24.57,0,0,1,5.79-.78,14.93,14.93,0,0,1,2.24.19,1.53,1.53,0,0,1,.93.74A1.59,1.59,0,0,1,74.34,72Z"/><path class="cls-3" d="M20.73,84.12A1.88,1.88,0,1,0,22.61,86,1.88,1.88,0,0,0,20.73,84.12Z"/><path class="cls-3" d="M61.63,83.15l-6.51,3.24C53.25,87.36,51.23,88,47,88c-1.49,0-3.22-.07-5.3-.22a1.08,1.08,0,0,0-.15,2.15c2.13.15,3.91.22,5.45.22,4.72,0,7-.69,9.19-1.83l6.44-3.2a1.08,1.08,0,1,0-.95-1.93Z"/><circle class="cls-3" cx="64.97" cy="82.36" r="1.21"/></g></g></svg>