<svg xmlns="http://www.w3.org/2000/svg" viewBox="0 0 84.69 71.79"><defs><style>.cls-1{fill:#66c3f0;}.cls-2{fill:#ec6566;}.cls-3{fill:#273357;}</style></defs><title>Recurso 5</title><g id="Capa_2" data-name="Capa 2"><g id="Ilustraciones"><path class="cls-1" d="M31.79,70.71H8.18c-3.91,0-7.08-2.31-7.08-5.16V63.82H31.79Z"/><path class="cls-2" d="M31.54,12.93H16.29a8.36,8.36,0,0,0-8.45,8.16V60.73l7,.13V21h16.7Z"/><rect class="cls-1" x="21.85" y="29.09" width="8.84" height="11.31"/><path class="cls-2" d="M46.44,8.66h2c0,7.47.27,8.16-.94,9.25-1.62,1.46-5.8,1.25-5.72-2.15v0h1.95c0,2,2.71,2,2.71-.1Z"/><path class="cls-2" d="M58.27,14.53a4.16,4.16,0,1,1-8.31,0c0-2-.19-3.42,1.15-4.81a4.19,4.19,0,0,1,7.16,3Zm-2.58-3.71a2.06,2.06,0,0,0-3.18,0c-.68.9-.56,1.83-.56,3.72,0,3.62,4.32,3.6,4.32,0C56.27,12.65,56.39,11.72,55.69,10.82Z"/><path class="cls-2" d="M59.83,18.62v-10c3.51,0,4.89-.16,6.1.68a2.35,2.35,0,0,1-.44,4.1,2.11,2.11,0,0,1,1.34.82c.85,1.18.9,4.36-3.17,4.36Zm2-5.79c1.43,0,2.12.08,2.66-.33s.91-2.3-1.3-2.3H61.83Zm0,1.38v2.87c1.8,0,2.51.1,3-.35a1.46,1.46,0,0,0-1.06-2.52Z"/><rect class="cls-2" x="42.31" y="36.53" width="12.21" height="12.21"/><path class="cls-3" d="M16.09,14H31a1.08,1.08,0,0,0,0-2.16H16.09a9.34,9.34,0,0,0-9.33,9.34v39C-.77,60.19,0,59.47,0,63.63a8.17,8.17,0,0,0,8.16,8.16H31a1.08,1.08,0,0,0,0-2.16H8.18a6,6,0,0,1-6-6V62.34H31a1.08,1.08,0,0,0,0-2.15H15.92V22.08H31a1.08,1.08,0,1,0,0-2.15H14.84A1.07,1.07,0,0,0,13.77,21V60.19H8.91v-39A7.19,7.19,0,0,1,16.09,14Z"/><path class="cls-3" d="M4.07,28V21.19a12,12,0,0,1,12-12H26.16a1.08,1.08,0,0,0,0-2.16H16.09A14.2,14.2,0,0,0,1.92,21.19V28A1.08,1.08,0,0,0,4.07,28Z"/><path class="cls-3" d="M70.49.27l-.13-.1A1.44,1.44,0,0,0,70,0c-.16,0-35,0-35.17,0a1.08,1.08,0,0,0-1.08,1.08V70.71a1.08,1.08,0,0,0,1.08,1.08H83.6a1.08,1.08,0,0,0,1.08-1.08V13.15C84.68,12.45,85.44,13.32,70.49.27Zm.37,3.18,10.23,8.94H70.86Zm-35,66.18V2.16H68.7V13.47a1.08,1.08,0,0,0,1.08,1.07H82.53V69.63Z"/><path class="cls-3" d="M42.31,25.32H76.24a1.08,1.08,0,0,0,0-2.16H42.31A1.08,1.08,0,0,0,42.31,25.32Z"/><path class="cls-3" d="M42.31,31.24H76.24a1.08,1.08,0,0,0,0-2.15H42.31A1.08,1.08,0,0,0,42.31,31.24Z"/><path class="cls-3" d="M76.24,35.55H59a1.08,1.08,0,0,0,0,2.15H76.24A1.08,1.08,0,0,0,76.24,35.55Z"/><path class="cls-3" d="M69.78,41.47H59a1.08,1.08,0,0,0,0,2.16H69.78A1.08,1.08,0,0,0,69.78,41.47Z"/><path class="cls-3" d="M59,47.4a1.08,1.08,0,1,0,0,2.15H69.24a1.08,1.08,0,0,0,0-2.15Z"/><path class="cls-3" d="M76.78,54.1H42.31a1.07,1.07,0,0,0-1.07,1.07v6.34a1.07,1.07,0,0,0,1.07,1.08H76.78a1.07,1.07,0,0,0,1.07-1.08V55.17A1.07,1.07,0,0,0,76.78,54.1ZM75.7,60.44H43.39V56.25H75.7Z"/><path class="cls-3" d="M29.93,46.32H21.85a1.08,1.08,0,0,0,0,2.15h8.08a1.08,1.08,0,0,0,0-2.15Z"/><path class="cls-3" d="M29.93,51.71H21.85a1.08,1.08,0,0,0,0,2.15h8.08a1.08,1.08,0,0,0,0-2.15Z"/><path class="cls-3" d="M29.93,30.16a1.08,1.08,0,0,0,0-2.15H21.85a1.08,1.08,0,0,0-1.08,1.08V40.4a1.07,1.07,0,0,0,1.08,1.07h8.08a1.08,1.08,0,0,0,0-2.15h-7V30.16Z"/><path class="cls-3" d="M4,32.66a1.14,1.14,0,0,0-2.22-.56A1.14,1.14,0,0,0,4,32.66Z"/><path class="cls-3" d="M74.59,43.72a1.14,1.14,0,0,0,.56-2.21A1.14,1.14,0,0,0,74.59,43.72Z"/></g></g></svg>