<svg xmlns="http://www.w3.org/2000/svg" viewBox="0 0 88.73 78.29"><defs><style>.cls-1{fill:#66c3f0;}.cls-2{fill:#ec6566;}.cls-3{fill:#273357;}</style></defs><title>Recurso 2</title><g id="Capa_2" data-name="Capa 2"><g id="Ilustraciones"><path class="cls-1" d="M13.06,60a7.69,7.69,0,0,0-9.2,7.53s0,0,0,0h9.19Z"/><path class="cls-1" d="M75.13,57.16A8.42,8.42,0,0,1,77,57c5.29,0,9.58,4.72,9.58,10.55v.06H75.13Z"/><circle class="cls-2" cx="46.79" cy="12.77" r="6.78" transform="translate(16.24 50.45) rotate(-66.22)"/><path class="cls-2" d="M50.52,4.33a1,1,0,0,1-.38-.07,1.07,1.07,0,0,1-.63-1.38L50.3.76a1.08,1.08,0,1,1,2,.76l-.79,2.11A1.06,1.06,0,0,1,50.52,4.33Z"/><path class="cls-2" d="M42.74,4.6a1.1,1.1,0,0,1-1-.63l-.93-2.06A1.08,1.08,0,0,1,41.36.48,1.09,1.09,0,0,1,42.79,1l.93,2.05a1.08,1.08,0,0,1-.53,1.43A1,1,0,0,1,42.74,4.6Z"/><path class="cls-2" d="M37.28,10.28a1,1,0,0,1-.38-.07l-2.12-.79a1.08,1.08,0,1,1,.76-2l2.12.8a1.07,1.07,0,0,1-.38,2.08Z"/><path class="cls-2" d="M35.48,19a1.08,1.08,0,0,1-1-.63A1.09,1.09,0,0,1,35,16.93L37.1,16a1.06,1.06,0,0,1,1.42.53A1.08,1.08,0,0,1,38,18l-2.06.94A1.17,1.17,0,0,1,35.48,19Z"/><path class="cls-2" d="M42.43,25.48a1.31,1.31,0,0,1-.38-.06A1.08,1.08,0,0,1,41.42,24l.8-2.12a1.07,1.07,0,1,1,2,.76l-.79,2.11A1.06,1.06,0,0,1,42.43,25.48Z"/><path class="cls-2" d="M51.94,25.16a1.07,1.07,0,0,1-1-.63L50,22.47a1.08,1.08,0,0,1,2-.89l.94,2.06a1.08,1.08,0,0,1-.54,1.42A1,1,0,0,1,51.94,25.16Z"/><path class="cls-2" d="M58.43,18.21a1,1,0,0,1-.38-.07l-2.12-.79a1.08,1.08,0,0,1,.76-2l2.12.8a1.07,1.07,0,0,1-.38,2.08Z"/><path class="cls-2" d="M56.05,9.64a1.07,1.07,0,0,1-.45-2.05l2.06-.94a1.09,1.09,0,0,1,1.43.54,1.08,1.08,0,0,1-.54,1.42l-2.06.94A1.12,1.12,0,0,1,56.05,9.64Z"/><path class="cls-3" d="M51.78,68.6h-10a1.08,1.08,0,0,1-1.08-1.08V49.83a1.08,1.08,0,0,1,1.08-1.08h10a1.08,1.08,0,0,1,1.08,1.08V67.52A1.08,1.08,0,0,1,51.78,68.6Zm-8.9-2.16h7.83V50.9H42.88Z"/><path class="cls-1" d="M21.41,29.92c.28-.33.59-.64.9-1a10,10,0,0,1,1.39-1.81,1.45,1.45,0,0,1,.11-.29A3.16,3.16,0,0,1,25,25.57l.47-.51a1.52,1.52,0,0,1,1.06-.47,1.5,1.5,0,0,1,.89-.16c.77.09,1.54.14,2.31.24a2.34,2.34,0,0,1,.38.09h0c0-.08.05-.16.07-.24a8.21,8.21,0,0,0-2.25-7.66A10.28,10.28,0,1,0,10.38,6.68,8.91,8.91,0,0,0,5.57,21.84a8.67,8.67,0,0,0-.4,1.28A8.22,8.22,0,0,0,19.3,30.43a8.6,8.6,0,0,0,1,.31c.22.05.44.08.65.11A1.85,1.85,0,0,1,21.41,29.92Z"/><path class="cls-3" d="M18.09,34.8A1.08,1.08,0,0,1,17,33.72v-20a1.08,1.08,0,0,1,2.16,0v20A1.08,1.08,0,0,1,18.09,34.8Z"/><path class="cls-3" d="M16.9,29.33a7,7,0,0,1-6.12-4,9.28,9.28,0,0,1,.44-9A1.07,1.07,0,0,1,13,17.42a7.23,7.23,0,0,0-.33,6.9,4.67,4.67,0,0,0,5.14,2.74,1.08,1.08,0,1,1,.49,2.1A6.28,6.28,0,0,1,16.9,29.33Z"/><path class="cls-1" d="M77.05,13.69a1.93,1.93,0,0,0,.13-.69,2.07,2.07,0,0,0-2.07-2.06,4.12,4.12,0,0,0-8.11-1,3.5,3.5,0,0,0-1.51-.36A3.44,3.44,0,0,0,62.05,13a3.84,3.84,0,0,0,.07.69Z"/><path class="cls-3" d="M87.65,68.6H1.08a1.08,1.08,0,0,1,0-2.16H87.65a1.08,1.08,0,0,1,0,2.16Z"/><path class="cls-3" d="M87.65,78.29H1.08a1.08,1.08,0,1,1,0-2.15H87.65a1.08,1.08,0,1,1,0,2.15Z"/><path class="cls-3" d="M75.13,68.6H36.68a1.08,1.08,0,0,1-1.08-1.08V43.43a1.08,1.08,0,0,1,1.08-1.08H75.13a1.08,1.08,0,0,1,1.08,1.08V67.52A1.08,1.08,0,0,1,75.13,68.6ZM37.75,66.44h36.3V44.5H37.75Z"/><path class="cls-3" d="M79.42,44.5H38.25a1.07,1.07,0,0,1-.88-.45L24.17,25.51a1.07,1.07,0,0,1,.87-1.7l42.84-.1h0a1.08,1.08,0,0,1,.91.51L80.34,42.86a1.07,1.07,0,0,1,0,1.09A1.08,1.08,0,0,1,79.42,44.5ZM38.81,42.35H77.49L67.29,25.87,27.13,26Z"/><path class="cls-3" d="M70.72,39.66h-30a1.07,1.07,0,0,1-.88-.46l-6.31-8.87a1,1,0,0,1-.08-1.11,1.07,1.07,0,0,1,1-.59l30.76-.06h0a1.09,1.09,0,0,1,.92.51L71.64,38a1.09,1.09,0,0,1-.92,1.65ZM41.3,37.5H68.79l-4.2-6.78-28.07.06Z"/><path class="cls-3" d="M50.46,39.66a1.09,1.09,0,0,1-.9-.48l-6-8.89a1.08,1.08,0,0,1,1.79-1.2l6,8.89a1.08,1.08,0,0,1-.29,1.49A1.06,1.06,0,0,1,50.46,39.66Z"/><path class="cls-3" d="M61.44,39.66a1.08,1.08,0,0,1-.89-.47L54.44,30.3a1.08,1.08,0,0,1,1.78-1.22L62.32,38a1.07,1.07,0,0,1-.28,1.5A1,1,0,0,1,61.44,39.66Z"/><path class="cls-3" d="M13.6,44.5H11.54a1.07,1.07,0,0,1-.87-1.71l13.5-18.54a1.08,1.08,0,1,1,1.75,1.27L13.66,42.35a1.08,1.08,0,0,1-.06,2.15Z"/><path class="cls-3" d="M36.68,68.6H13.6a1.08,1.08,0,0,1-1.08-1.08V43.43a1.08,1.08,0,0,1,1.08-1.08H36.68a1.07,1.07,0,0,1,1.07,1.08V67.52A1.08,1.08,0,0,1,36.68,68.6Zm-22-2.16H35.6V44.5H14.68Z"/><rect class="cls-2" x="55.9" y="49.83" width="13.71" height="9.95"/><rect class="cls-2" x="20.41" y="49.83" width="9.28" height="9.95"/><path class="cls-3" d="M45.53,61.37a1.08,1.08,0,0,1-1.08-1.08V59a1.08,1.08,0,1,1,2.16,0v1.3A1.09,1.09,0,0,1,45.53,61.37Z"/><path class="cls-3" d="M67.76,35H38.22a1.08,1.08,0,1,1,0-2.15H67.76a1.08,1.08,0,1,1,0,2.15Z"/><path class="cls-3" d="M87.49,73.44h-3.2a1.08,1.08,0,1,1,0-2.15h3.2a1.08,1.08,0,0,1,0,2.15Zm-8.32,0H76a1.08,1.08,0,1,1,0-2.15h3.2a1.08,1.08,0,0,1,0,2.15Zm-8.32,0h-3.2a1.08,1.08,0,1,1,0-2.15h3.2a1.08,1.08,0,0,1,0,2.15Zm-8.32,0h-3.2a1.08,1.08,0,1,1,0-2.15h3.2a1.08,1.08,0,0,1,0,2.15Zm-8.33,0H51a1.08,1.08,0,0,1,0-2.15h3.2a1.08,1.08,0,1,1,0,2.15Zm-8.32,0h-3.2a1.08,1.08,0,0,1,0-2.15h3.2a1.08,1.08,0,1,1,0,2.15Zm-8.32,0h-3.2a1.08,1.08,0,0,1,0-2.15h3.2a1.08,1.08,0,1,1,0,2.15Zm-8.32,0H26a1.08,1.08,0,0,1,0-2.15h3.2a1.08,1.08,0,0,1,0,2.15Zm-8.32,0h-3.2a1.08,1.08,0,0,1,0-2.15h3.2a1.08,1.08,0,0,1,0,2.15Zm-8.32,0H9.4a1.08,1.08,0,1,1,0-2.15h3.2a1.08,1.08,0,0,1,0,2.15Zm-8.32,0H1.08a1.08,1.08,0,1,1,0-2.15h3.2a1.08,1.08,0,0,1,0,2.15Z"/></g></g></svg>