<svg enable-background="new 0 0 1040 370" viewBox="0 0 1040 370" xmlns="http://www.w3.org/2000/svg"><path d="m0 46.7h1040v30h-1040z" fill="#f2f2f2"/><path d="m0 106.7h1040v30h-1040z" fill="#f2f2f2"/><path d="m0 230.9h1040v30h-1040z" fill="#f2f2f2"/><path d="m0 292.7h1040v30h-1040z" fill="#f2f2f2"/><path d="m0 168.7h1040v30h-1040z" fill="#f2f2f2"/><path d="m.1 76.7h110v-16.6c0-7.4-6-13.4-13.4-13.4h-96.6z" fill="#ad0800"/><path d="m.1 137.3h110v-16.6c0-7.4-6-13.4-13.4-13.4h-96.6z" fill="#ad0800"/><path d="m.1 198.7h110v-16.6c0-7.4-6-13.4-13.4-13.4h-96.6z" fill="#ad0800"/><path d="m.1 260.9h110v-16.6c0-7.4-6-13.4-13.4-13.4h-96.6z" fill="#ad0800"/><path d="m.1 323.3h110v-16.6c0-7.4-6-13.4-13.4-13.4h-96.6z" fill="#ad0800"/><path d="m1004.1 62.2 1.2-9.8h11.1v3.5h-7.6l-.4 3.8c.3-.2.7-.4 1.2-.5s1-.2 1.5-.2c1.9 0 3.3.5 4.4 1.7 1 1.2 1.5 2.7 1.5 4.7 0 1.2-.3 2.4-.8 3.3-.5 1-1.3 1.8-2.3 2.3s-2.2.8-3.5.8c-1.2 0-2.3-.2-3.4-.7-1-.5-1.9-1.2-2.5-2.1-.6-.8-.9-1.8-.9-2.9h4.4c.1.7.2 1.3.7 1.6.4.4.9.6 1.6.6 1.5 0 2.2-1.1 2.2-3.3 0-2.1-.9-3-2.7-3-1 0-1.8.3-2.3 1z" fill="#ad0800"/><path d="m29.6 65.3h-3.6l-.6 2h-2.7l3.9-10.7h2.4l4 10.7h-2.8zm-3-2h2.4l-1.2-3.7z" fill="#fff"/><path d="m35.5 59.4.1.9c.5-.7 1.3-1.1 2.3-1.1.9 0 1.5.2 1.8.7.4.5.6 1.2.6 2.3v5.1h-2.4v-5c0-.4-.1-.7-.2-.9-.2-.2-.4-.3-.9-.3s-.9.2-1.1.5v5.6h-2.5v-8h2.3zm4.1-3.3c0 .5-.2 1-.5 1.4s-.7.6-1.2.6c-.3 0-.7-.1-1.1-.3s-.7-.3-1-.3c-.2 0-.3.1-.4.2s-.2.3-.2.5l-1.4-.1c0-.5.2-1 .5-1.4s.7-.6 1.2-.6c.2 0 .5.1 1 .2.4.2.7.3.7.3.1 0 .2.1.3.1.2 0 .3-.1.4-.2s.2-.3.2-.5z" fill="#fff"/><path d="m41.4 63.3c0-.8.2-1.5.5-2.1s.7-1.1 1.3-1.4c.5-.3 1.3-.5 2-.5 1.2 0 2.1.4 2.8 1.1s1 1.8 1 3v.1c0 1.2-.4 2.3-1 2.9-.7.7-1.6 1.1-2.8 1.1s-2.1-.4-2.7-1c-.7-.7-1-1.6-1.1-2.7zm2.5.2c0 .7.1 1.3.4 1.6.2.4.5.5 1 .5.9 0 1.3-.7 1.3-2v-.2c0-1.4-.4-2.1-1.3-2.1s-1.3.6-1.3 1.8z" fill="#fff"/><path d="m61.4 67.4h-7.5v-1.6l3.5-3.6c.9-1 1.3-1.7 1.3-2.3 0-.5-.1-.8-.3-1s-.5-.4-.9-.4-.7.2-.9.5-.4.7-.4 1.2h-2.5c0-.7.2-1.3.5-1.8s.8-1 1.3-1.3c.6-.3 1.2-.5 1.9-.5 1.2 0 2.1.2 2.7.8.6.5.9 1.3.9 2.3 0 .4-.1.9-.2 1.2-.2.4-.4.8-.7 1.3s-.9 1-1.6 1.8l-1.4 1.6h4.2z" fill="#fff"/><path d="m70.1 63c0 1.5-.3 2.6-1 3.4s-1.6 1.2-2.7 1.2c-1.2 0-2.1-.4-2.7-1.2-.7-.8-1-1.9-1-3.4v-2c0-1.5.3-2.6 1-3.4s1.6-1.2 2.7-1.2 2.1.4 2.7 1.2 1 1.9 1 3.4zm-2.5-2.3c0-.8-.1-1.3-.3-1.7s-.5-.5-1-.5c-.4 0-.7.2-.9.5-.2.4-.3.9-.3 1.6v2.7c0 .8.1 1.4.3 1.8s.5.5 1 .5c.4 0 .7-.2.9-.5.2-.4.3-.9.3-1.7z" fill="#fff"/><path d="m76.9 67.4h-2.5v-7.9l-2.4.7v-1.9l4.7-1.6h.2z" fill="#fff"/><path d="m87.6 57.9-4 9.4h-2.6l4-8.8h-5.1v-1.9h7.7z" fill="#fff"/><path d="m1012.5 123.8c-1 .8-2 1.3-3.2 1.3-1.8 0-3.1-.6-4.1-1.8s-1.5-2.7-1.5-4.7c0-1.2.3-2.4.8-3.4s1.4-1.9 2.4-2.5 2.2-.9 3.4-.9c1.3 0 2.4.3 3.4 1s1.8 1.5 2.4 2.7c.5 1.2.8 2.5.9 4v1.7c0 2.1-.4 3.9-1.2 5.5s-2 2.7-3.5 3.6c-1.5.8-3.3 1.3-5.3 1.3h-.3v-3.6h.8c3-.2 4.7-1.6 5-4.2zm-2-1.9c1 0 1.6-.4 2.1-1.3v-1.8c0-1.2-.2-2.1-.6-2.7s-1-.9-1.7-.9c-.6 0-1.2.3-1.6 1s-.6 1.5-.6 2.4.2 1.8.7 2.4c.4.6 1 .9 1.7.9z" fill="#ad0800"/><path d="m29.6 125.9h-3.6l-.6 2h-2.7l3.9-10.7h2.4l4 10.7h-2.8zm-3-2.1h2.4l-1.2-3.7z" fill="#fff"/><path d="m35.5 119.9.1.9c.5-.7 1.3-1.1 2.3-1.1.9 0 1.5.2 1.8.7.4.5.6 1.2.6 2.3v5.1h-2.5v-5c0-.4-.1-.7-.2-.9-.2-.2-.4-.3-.9-.3s-.9.2-1.1.5v5.6h-2.5v-8h2.4zm4.2-3.3c0 .5-.2 1-.5 1.4s-.7.6-1.2.6c-.3 0-.7-.1-1.1-.3s-.7-.3-1-.3c-.2 0-.3.1-.4.2s-.2.3-.2.5l-1.4-.1c0-.5.2-1 .5-1.4s.7-.6 1.2-.6c.2 0 .5.1 1 .2.4.2.7.3.7.3.1 0 .2.1.3.1.2 0 .3-.1.4-.2s.2-.3.2-.5z" fill="#fff"/><path d="m41.4 123.8c0-.8.2-1.5.5-2.1s.7-1.1 1.3-1.4c.5-.3 1.3-.5 2-.5 1.2 0 2.1.4 2.8 1.1s1 1.8 1 3v.1c0 1.2-.4 2.3-1 2.9-.7.7-1.6 1.1-2.8 1.1s-2.1-.4-2.7-1c-.7-.7-1-1.6-1.1-2.7zm2.5.2c0 .7.1 1.3.4 1.6.2.4.5.5 1 .5.9 0 1.3-.7 1.3-2v-.2c0-1.4-.4-2.1-1.3-2.1s-1.3.6-1.3 1.8z" fill="#fff"/><path d="m61.4 127.9h-7.5v-1.6l3.5-3.6c.9-1 1.3-1.7 1.3-2.3 0-.5-.1-.8-.3-1s-.5-.4-.9-.4-.7.2-.9.5-.4.7-.4 1.2h-2.5c0-.7.2-1.3.5-1.8s.8-1 1.3-1.3 1.2-.5 1.9-.5c1.2 0 2.1.2 2.7.8.6.5.9 1.3.9 2.3 0 .4-.1.9-.2 1.2-.2.4-.4.8-.7 1.3s-.9 1-1.6 1.8l-1.4 1.6h4.2z" fill="#fff"/><path d="m70.1 123.5c0 1.5-.3 2.6-1 3.4s-1.6 1.2-2.7 1.2c-1.2 0-2.1-.4-2.7-1.2-.7-.8-1-1.9-1-3.4v-1.9c0-1.5.3-2.6 1-3.4s1.6-1.2 2.7-1.2 2.1.4 2.7 1.2c.7.8 1 1.9 1 3.4zm-2.5-2.3c0-.8-.1-1.3-.3-1.7s-.5-.5-1-.5-.7.2-.9.5c-.2.4-.3.9-.3 1.6v2.7c0 .8.1 1.4.3 1.8s.5.5 1 .5c.4 0 .7-.2.9-.5.2-.4.3-.9.3-1.7z" fill="#fff"/><path d="m76.9 127.9h-2.5v-7.9l-2.4.7v-1.9l4.7-1.6h.2z" fill="#fff"/><path d="m87.3 120c0 .5-.1 1-.4 1.4-.2.4-.6.7-1 1 .5.2.9.6 1.2 1s.4 1 .4 1.5c0 1-.3 1.7-1 2.3-.7.5-1.6.9-2.7.9-1.2 0-2.1-.3-2.7-.9-.7-.5-1-1.3-1-2.3 0-.5.1-1.1.4-1.5s.7-.8 1.3-1c-.4-.2-.8-.5-1.1-1-.2-.4-.4-.9-.4-1.4 0-.9.3-1.6 1-2.2.6-.5 1.5-.8 2.6-.8s1.9.2 2.6.8c.5.5.8 1.2.8 2.2zm-2.2 4.7c0-.4-.1-.8-.4-1-.2-.2-.5-.4-.9-.4s-.7.1-.9.4c-.2.2-.4.5-.4 1 0 .4.1.8.4 1s.5.4.9.4.7-.1.9-.4c.2-.2.4-.6.4-1zm-1.3-5.8c-.3 0-.6.1-.7.3-.2.2-.2.5-.2.9s.1.7.2.9c.2.2.4.4.8.4s.6-.1.7-.4c.2-.2.2-.5.2-.9s-.1-.7-.2-.9c-.2-.2-.5-.3-.8-.3z" fill="#fff"/><path d="m992.2 183.5h2.1c1.6 0 2.5-.8 2.5-2.4 0-.6-.2-1.2-.6-1.5-.4-.4-1-.6-1.7-.6-.6 0-1.1.2-1.5.5-.4.4-.7.8-.7 1.3h-4.4c0-1 .3-1.9.8-2.7s1.3-1.4 2.3-1.8 2.1-.7 3.3-.7c2.1 0 3.8.5 5 1.5s1.8 2.3 1.8 4c0 .8-.2 1.6-.7 2.3s-1.2 1.3-2.2 1.8c1 .4 1.8.9 2.4 1.7.6.7.8 1.7.8 2.8 0 1.7-.7 3.1-2 4.1s-3 1.5-5.2 1.5c-1.3 0-2.4-.2-3.5-.7s-1.9-1.2-2.4-2-.8-1.8-.8-2.9h4.4c0 .6.2 1.1.7 1.5s1 .7 1.8.7 1.4-.2 1.9-.7c.5-.4.7-1 .7-1.6 0-1-.2-1.6-.7-2.1-.5-.4-1.2-.6-2-.6h-2.3v-3.3h.2z" fill="#ad0800"/><path d="m1007.8 183.5h2.1c1.6 0 2.5-.8 2.5-2.4 0-.6-.2-1.2-.6-1.5-.4-.4-1-.6-1.7-.6-.6 0-1.1.2-1.5.5-.4.4-.7.8-.7 1.3h-4.4c0-1 .3-1.9.8-2.7s1.3-1.4 2.3-1.8 2.1-.7 3.3-.7c2.1 0 3.8.5 5 1.5s1.8 2.3 1.8 4c0 .8-.2 1.6-.7 2.3s-1.2 1.3-2.2 1.8c1 .4 1.8.9 2.4 1.7.6.7.8 1.7.8 2.8 0 1.7-.7 3.1-2 4.1s-3 1.5-5.2 1.5c-1.3 0-2.4-.2-3.5-.7s-1.9-1.2-2.4-2-.8-1.8-.8-2.9h4.4c0 .6.2 1.1.7 1.5s1 .7 1.8.7 1.4-.2 1.9-.7c.5-.4.7-1 .7-1.6 0-1-.2-1.6-.7-2.1-.5-.4-1.2-.6-2-.6h-2v-3.4z" fill="#ad0800"/><path d="m29.6 187.2h-3.5l-.6 2h-2.8l3.9-10.7h2.4l4 10.7h-2.8zm-2.9-2h2.3l-1.2-3.7z" fill="#fff"/><path d="m35.6 181.2.1.9c.5-.7 1.3-1.1 2.3-1.1.9 0 1.5.2 1.8.7s.6 1.2.6 2.3v5.1h-2.5v-5c0-.4-.1-.7-.2-.9-.2-.2-.4-.3-.9-.3s-.9.2-1.1.5v5.6h-2.5v-8h2.4zm4.1-3.2c0 .5-.2 1-.5 1.4s-.7.6-1.2.6c-.3 0-.7-.1-1.1-.3s-.7-.3-1-.3c-.2 0-.3.1-.4.2s-.2.3-.2.5l-1.4-.1c0-.5.2-1 .5-1.4s.7-.6 1.2-.6c.2 0 .5.1 1 .2.4.2.7.3.7.3.1 0 .2.1.3.1.2 0 .3-.1.4-.2s.2-.3.2-.5z" fill="#fff"/><path d="m41.5 185.1c0-.8.2-1.5.5-2.1s.7-1.1 1.3-1.4 1.3-.5 2-.5c1.2 0 2.1.4 2.8 1.1s1 1.8 1 3v.1c0 1.2-.4 2.3-1 2.9-.7.7-1.6 1.1-2.8 1.1s-2.1-.4-2.7-1c-.7-.7-1-1.6-1.1-2.7zm2.5.2c0 .7.1 1.3.4 1.6.2.4.5.5 1 .5.9 0 1.3-.7 1.3-2v-.2c0-1.4-.4-2.1-1.3-2.1s-1.3.6-1.3 1.8z" fill="#fff"/><path d="m61.5 189.2h-7.5v-1.6l3.5-3.6c.9-1 1.3-1.7 1.3-2.3 0-.5-.1-.8-.3-1s-.5-.4-.9-.4-.7.2-.9.5-.4.7-.4 1.2h-2.6c0-.7.2-1.3.5-1.8s.8-1 1.3-1.3c.6-.3 1.2-.5 1.9-.5 1.2 0 2.1.2 2.7.8.6.5.9 1.3.9 2.3 0 .4-.1.9-.2 1.2-.2.4-.4.8-.7 1.3-.3.4-.9 1-1.6 1.8l-1.4 1.6h4.2v1.9h.2z" fill="#fff"/><path d="m70.1 184.8c0 1.5-.3 2.6-1 3.4s-1.6 1.2-2.7 1.2c-1.2 0-2.1-.4-2.7-1.2-.7-.8-1-1.9-1-3.4v-1.9c0-1.5.3-2.6 1-3.4s1.6-1.2 2.7-1.2c1.2 0 2.1.4 2.7 1.2.7.8 1 1.9 1 3.4zm-2.4-2.3c0-.8-.1-1.3-.3-1.7s-.5-.5-1-.5c-.4 0-.7.2-.9.5-.2.4-.3.9-.3 1.6v2.7c0 .8.1 1.4.3 1.8s.5.5 1 .5c.4 0 .7-.2.9-.5s.3-.9.3-1.7z" fill="#fff"/><path d="m77 189.2h-2.5v-7.9l-2.5.7v-1.9l4.7-1.6h.3z" fill="#fff"/><path d="m85.1 185.1c-.5.5-1.2.7-1.8.7-1 0-1.8-.3-2.3-1s-.9-1.5-.9-2.6c0-.7.2-1.3.5-1.9s.8-1 1.3-1.4 1.2-.5 1.9-.5 1.3.2 1.9.5c.5.4 1 .9 1.3 1.5.3.7.5 1.4.5 2.3v1c0 1.2-.2 2.2-.7 3-.4.9-1.1 1.5-2 2s-1.9.7-3 .7h-.2v-2h.5c1.8-.1 2.8-.9 3-2.3zm-1.2-1.1c.5 0 .9-.2 1.2-.7v-1c0-.7-.1-1.2-.4-1.5-.2-.3-.5-.5-.9-.5s-.7.2-.9.5c-.2.4-.4.9-.4 1.3 0 .5.1 1 .4 1.3.3.4.6.6 1 .6z" fill="#fff"/><path d="m999.9 247.9h1.9v3.4h-1.9v4.1h-4.4v-4.1h-7.5l-.2-2.7 7.6-12.3v-.1h4.4zm-7.9 0h3.5v-5.9l-.3.4z" fill="#ad0800"/><path d="m1012.5 248c-1 .8-2 1.3-3.2 1.3-1.8 0-3.1-.6-4.1-1.8s-1.5-2.7-1.5-4.7c0-1.2.3-2.4.8-3.4s1.4-1.9 2.4-2.5 2.2-.9 3.4-.9c1.3 0 2.4.3 3.4 1s1.8 1.5 2.4 2.7c.5 1.2.8 2.5.9 4v1.7c0 2.1-.4 3.9-1.2 5.5s-2 2.7-3.5 3.6c-1.5.8-3.3 1.3-5.3 1.3h-.3v-3.6h.8c3-.2 4.7-1.6 5-4.2zm-2-1.9c1 0 1.6-.4 2.1-1.3v-1.8c0-1.2-.2-2.1-.6-2.7s-1-.9-1.7-.9c-.6 0-1.2.3-1.6 1s-.6 1.5-.6 2.4.2 1.8.7 2.4c.3.6.9.9 1.7.9z" fill="#ad0800"/><path d="m29.6 249.5h-3.6l-.6 2h-2.7l3.9-10.7h2.4l4 10.7h-2.8zm-3-2h2.4l-1.2-3.7z" fill="#fff"/><path d="m35.6 243.5.1.9c.5-.7 1.3-1.1 2.3-1.1.9 0 1.5.2 1.8.7s.6 1.2.6 2.3v5.1h-2.5v-5c0-.4-.1-.7-.2-.9-.2-.2-.4-.3-.9-.3s-.9.2-1.1.5v5.6h-2.5v-8h2.4zm4.1-3.2c0 .5-.2 1-.5 1.4s-.7.6-1.2.6c-.3 0-.7-.1-1.1-.3s-.7-.3-1-.3c-.2 0-.3.1-.4.2s-.2.3-.2.5l-1.4-.1c0-.5.2-1 .5-1.4s.7-.6 1.2-.6c.2 0 .5.1 1 .2.4.2.7.3.7.3.1 0 .2.1.3.1.2 0 .3-.1.4-.2s.2-.3.2-.5z" fill="#fff"/><path d="m41.4 247.4c0-.8.2-1.5.5-2.1s.7-1.1 1.3-1.4c.5-.3 1.3-.5 2-.5 1.2 0 2.1.4 2.8 1.1s1 1.8 1 3v.1c0 1.2-.4 2.3-1 2.9-.7.7-1.6 1.1-2.8 1.1s-2.1-.4-2.7-1c-.7-.7-1-1.6-1.1-2.7zm2.5.2c0 .7.1 1.3.4 1.6.2.4.5.5 1 .5.9 0 1.3-.7 1.3-2v-.2c0-1.4-.4-2.1-1.3-2.1s-1.3.6-1.3 1.8z" fill="#fff"/><path d="m61.4 251.5h-7.5v-1.6l3.5-3.6c.9-1 1.3-1.7 1.3-2.3 0-.5-.1-.8-.3-1s-.5-.4-.9-.4-.7.2-.9.5-.4.7-.4 1.2h-2.5c0-.7.2-1.3.5-1.8s.8-1 1.3-1.3c.6-.3 1.2-.5 1.9-.5 1.2 0 2.1.2 2.7.8.6.5.9 1.3.9 2.3 0 .4-.1.9-.2 1.2-.2.4-.4.8-.7 1.3-.3.4-.9 1-1.6 1.8l-1.4 1.6h4.2z" fill="#fff"/><path d="m70.1 247.1c0 1.5-.3 2.6-1 3.4s-1.6 1.2-2.7 1.2c-1.2 0-2.1-.4-2.7-1.2-.7-.8-1-1.9-1-3.4v-1.9c0-1.5.3-2.6 1-3.4s1.6-1.2 2.7-1.2 2.1.4 2.7 1.2c.7.8 1 1.9 1 3.4zm-2.5-2.3c0-.8-.1-1.3-.3-1.7s-.5-.5-1-.5c-.4 0-.7.2-.9.5-.2.4-.3.9-.3 1.6v2.7c0 .8.1 1.4.3 1.8s.5.5 1 .5c.4 0 .7-.2.9-.5.2-.4.3-.9.3-1.7z" fill="#fff"/><path d="m78.9 251.5h-7.5v-1.6l3.5-3.6c.9-1 1.3-1.7 1.3-2.3 0-.5-.1-.8-.3-1s-.5-.4-.9-.4-.7.2-.9.5-.4.7-.4 1.2h-2.5c0-.7.2-1.3.5-1.8s.8-1 1.3-1.3c.6-.3 1.2-.5 1.9-.5 1.2 0 2.1.2 2.7.8.6.5.9 1.3.9 2.3 0 .4-.1.9-.2 1.2-.2.4-.4.8-.7 1.3-.3.4-.9 1-1.6 1.8l-1.4 1.6h4.2z" fill="#fff"/><path d="m87.6 247.1c0 1.5-.3 2.6-1 3.4s-1.6 1.2-2.7 1.2c-1.2 0-2.1-.4-2.7-1.2-.7-.8-1-1.9-1-3.4v-1.9c0-1.5.3-2.6 1-3.4s1.6-1.2 2.7-1.2 2.1.4 2.7 1.2c.7.8 1 1.9 1 3.4zm-2.5-2.3c0-.8-.1-1.3-.3-1.7s-.5-.5-1-.5c-.4 0-.7.2-.9.5-.2.4-.3.9-.3 1.6v2.7c0 .8.1 1.4.3 1.8s.5.5 1 .5c.4 0 .7-.2.9-.5s.3-.9.3-1.7z" fill="#fff"/><path d="m998.7 297.1v3.5h-.2c-1.6 0-3 .4-4.1 1.2s-1.7 1.9-1.9 3.3c1-1 2.2-1.5 3.8-1.5s3 .6 3.9 1.8c1 1.2 1.5 2.8 1.5 4.7 0 1.2-.3 2.4-.8 3.3-.5 1-1.4 1.8-2.4 2.4-1 .5-2.2.8-3.4.8-1.3 0-2.5-.3-3.6-.9s-1.9-1.5-2.5-2.7-.9-2.5-.9-3.9v-1.8c0-2 .4-3.8 1.3-5.3.8-1.6 2.1-2.8 3.6-3.7 1.6-.9 3.3-1.3 5.2-1.3h.5zm-4 10c-.6 0-1.1.1-1.5.4-.4.2-.7.6-.9 1v1.3c0 2.4.8 3.6 2.5 3.6.7 0 1.2-.3 1.7-.9.4-.6.7-1.3.7-2.3 0-.9-.2-1.7-.7-2.3-.4-.6-1-.8-1.8-.8z" fill="#ad0800"/><path d="m1016.9 316.5h-13.3v-2.9l6.1-6.5c1.5-1.7 2.3-3.1 2.3-4.1 0-.8-.2-1.5-.5-1.9-.4-.4-.9-.7-1.6-.7s-1.2.3-1.6.8-.6 1.3-.6 2.1h-4.4c0-1.2.3-2.2.9-3.3.6-1 1.4-1.8 2.4-2.3s2.2-.8 3.5-.8c2.1 0 3.6.5 4.8 1.5 1.1 1 1.7 2.3 1.7 4.1 0 .7-.1 1.5-.4 2.2s-.7 1.5-1.3 2.2c-.6.8-1.5 1.8-2.8 3.2l-2.5 2.8h7.5z" fill="#ad0800"/><path d="m30.5 311.8h-3.5l-.6 2h-2.7l3.9-10.7h2.4l4 10.7h-2.8zm-2.9-2h2.3l-1.2-3.7z" fill="#fff"/><path d="m36.5 305.9.1.9c.5-.7 1.3-1.1 2.3-1.1.9 0 1.5.2 1.8.7.4.5.6 1.2.6 2.3v5.1h-2.5v-5c0-.4-.1-.7-.2-.9-.2-.2-.4-.3-.9-.3s-.9.2-1.1.5v5.6h-2.5v-8h2.4zm4.1-3.3c0 .5-.2 1-.5 1.4s-.7.6-1.2.6c-.3 0-.7-.1-1.1-.3s-.7-.3-1-.3c-.2 0-.3.1-.4.2s-.2.3-.2.5l-1.4-.1c0-.5.2-1 .5-1.4s.7-.6 1.2-.6c.2 0 .5.1 1 .2.4.2.7.3.7.3.1 0 .2.1.4.1s.3-.1.4-.2.2-.3.2-.5z" fill="#fff"/><path d="m42.4 309.8c0-.8.2-1.5.5-2.1s.7-1.1 1.3-1.4c.5-.3 1.3-.5 2-.5 1.2 0 2.1.4 2.8 1.1s1 1.8 1 3v.1c0 1.2-.4 2.3-1 2.9-.7.7-1.6 1.1-2.8 1.1s-2.1-.4-2.7-1c-.7-.7-1-1.6-1.1-2.7zm2.5.2c0 .7.1 1.3.4 1.6.2.4.5.5 1 .5.9 0 1.3-.7 1.3-2v-.2c0-1.4-.4-2.1-1.3-2.1s-1.3.6-1.3 1.8z" fill="#fff"/><path d="m62.4 313.9h-7.5v-1.6l3.5-3.6c.9-1 1.3-1.7 1.3-2.3 0-.5-.1-.8-.3-1s-.5-.4-.9-.4-.7.2-.9.5-.4.7-.4 1.2h-2.5c0-.7.2-1.3.5-1.8s.8-1 1.3-1.3c.6-.3 1.2-.5 1.9-.5 1.2 0 2.1.2 2.7.8.6.5.9 1.3.9 2.3 0 .4-.1.9-.2 1.2-.2.4-.4.8-.7 1.3-.3.4-.9 1-1.6 1.8l-1.4 1.6h4.2z" fill="#fff"/><path d="m71.1 309.5c0 1.5-.3 2.6-1 3.4s-1.6 1.2-2.7 1.2c-1.2 0-2.1-.4-2.7-1.2-.7-.8-1-1.9-1-3.4v-1.9c0-1.5.3-2.6 1-3.4s1.6-1.2 2.7-1.2c1.2 0 2.1.4 2.7 1.2s1 1.9 1 3.4zm-2.5-2.3c0-.8-.1-1.3-.3-1.7s-.5-.5-1-.5c-.4 0-.7.2-.9.5s-.3.9-.3 1.6v2.7c0 .8.1 1.4.3 1.8s.5.5 1 .5c.4 0 .7-.2.9-.5.2-.4.3-.9.3-1.7z" fill="#fff"/><path d="m79.8 313.9h-7.5v-1.6l3.5-3.6c.9-1 1.3-1.7 1.3-2.3 0-.5-.1-.8-.3-1s-.5-.4-.9-.4-.7.2-.9.5-.4.7-.4 1.2h-2.5c0-.7.2-1.3.5-1.8s.8-1 1.3-1.3c.6-.3 1.2-.5 1.9-.5 1.2 0 2.1.2 2.7.8.6.5.9 1.3.9 2.3 0 .4-.1.9-.2 1.2-.2.4-.4.8-.7 1.3-.3.4-.9 1-1.6 1.8l-1.4 1.6h4.2z" fill="#fff"/><path d="m86.6 313.9h-2.5v-7.9l-2.4.7v-1.9l4.7-1.6h.2z" fill="#fff"/><g fill="#171e21"><path d="m164.6 57.3v12.9h2.7v-1.8h1.2v1.8h2.7v-12.9zm5.9 9.7h-5.2v-.6h5.2zm0-1.4h-5.2v-.6h5.2zm0-1.5h-5.2v-.6h5.2zm0-1.5h-5.2v-.6h5.2zm0-1.4h-5.2v-.6h5.2zm0-1.5h-5.2v-.6h5.2z"/><path d="m139.8 55.5-5.8 3.3.4.6 5.4-3.1 5.4 3.1.3-.6z"/><path d="m144.2 59.5-4.4-2.5-4.4 2.5v9.9h-1v.9h1 8.8 1v-.9h-1zm-4.8 3.6v2.1h-2.1v-2.1zm-2.1-.7v-2.1h2.1v2.1zm2.1 3.4v2.1h-2.1v-2.1zm2.8-2.7v2.1h-2.1v-2.1zm-2.1-.7v-2.1h2.1v2.1zm2.1 3.4v2.1h-2.1v-2.1z"/><path d="m120.8 56.4h9.6v.9h-9.6z"/><path d="m120.8 70.2h9.6v-12.6h-9.6zm6.5-10.1h2.1v2.1h-2.1zm0 2.8h2.1v2.1h-2.1zm0 2.7h2.1v2.1h-2.1zm-2.8-5.5h2.1v2.1h-2.1zm0 2.8h2.1v2.1h-2.1zm0 2.7h2.1v2.1h-2.1zm-2.7-5.5h2.1v2.1h-2.1zm0 2.8h2.1v2.1h-2.1zm0 2.7h2.1v2.1h-2.1z"/><path d="m156.8 59.6v-6.3l-6.6 2.3v14.5h6.6 4.1v-8.3zm-1 9.3h-4.6v-.7h4.6zm0-1.7h-4.6v-.7h4.6zm0-1.6h-4.6v-.7h4.6zm0-1.6h-4.6v-.7h4.6zm0-1.6h-4.6v-.7h4.6zm0-1.6h-4.6v-.7h4.6zm0-1.7h-4.6v-.7h4.6zm0-1.6h-4.6v-.7h4.6zm2.3 11.5h-1v-1h1zm0-1.7h-1v-1h1zm0-1.7h-1v-1h1zm0-1.6h-1v-1h1zm1.8 5h-1v-1h1zm0-1.7h-1v-1h1zm0-1.7h-1v-1h1zm0-1.6h-1v-1h1z"/><path d="m175 56.4h9.6v.9h-9.6z"/><path d="m175 70.2h9.6v-12.6h-9.6zm6.5-10.1h2.1v2.1h-2.1zm0 2.8h2.1v2.1h-2.1zm0 2.7h2.1v2.1h-2.1zm-2.7-5.5h2.1v2.1h-2.1zm0 2.8h2.1v2.1h-2.1zm0 2.7h2.1v2.1h-2.1zm-2.8-5.5h2.1v2.1h-2.1zm0 2.8h2.1v2.1h-2.1zm0 2.7h2.1v2.1h-2.1z"/><path d="m164.6 117.8v12.9h2.7v-1.8h1.2v1.8h2.7v-12.9zm5.9 9.8h-5.2v-.6h5.2zm0-1.5h-5.2v-.6h5.2zm0-1.5h-5.2v-.6h5.2zm0-1.4h-5.2v-.6h5.2zm0-1.5h-5.2v-.6h5.2zm0-1.5h-5.2v-.6h5.2z"/><path d="m139.8 116-5.8 3.3.4.7 5.4-3.2 5.4 3.2.3-.7z"/><path d="m144.2 120-4.4-2.5-4.4 2.5v9.9h-1v.9h1 8.8 1v-.9h-1zm-4.8 3.6v2.1h-2.1v-2.1zm-2.1-.7v-2.1h2.1v2.1zm2.1 3.5v2.1h-2.1v-2.1zm2.8-2.8v2.1h-2.1v-2.1zm-2.1-.7v-2.1h2.1v2.1zm2.1 3.5v2.1h-2.1v-2.1z"/><path d="m120.8 116.9h9.6v.9h-9.6z"/><path d="m120.8 130.7h9.6v-12.5h-9.6zm6.5-10h2.1v2.1h-2.1zm0 2.7h2.1v2.1h-2.1zm0 2.7h2.1v2.1h-2.1zm-2.8-5.4h2.1v2.1h-2.1zm0 2.7h2.1v2.1h-2.1zm0 2.7h2.1v2.1h-2.1zm-2.7-5.4h2.1v2.1h-2.1zm0 2.7h2.1v2.1h-2.1zm0 2.7h2.1v2.1h-2.1z"/><path d="m156.8 120.1v-6.3l-6.6 2.3v14.5h6.6 4.1v-8.3zm-1 9.3h-4.6v-.7h4.6zm0-1.6h-4.6v-.7h4.6zm0-1.7h-4.6v-.7h4.6zm0-1.6h-4.6v-.7h4.6zm0-1.6h-4.6v-.7h4.6zm0-1.6h-4.6v-.7h4.6zm0-1.6h-4.6v-.7h4.6zm0-1.7h-4.6v-.7h4.6zm2.3 11.6h-1v-1h1zm0-1.7h-1v-1h1zm0-1.7h-1v-1h1zm0-1.7h-1v-1h1zm1.8 5.1h-1v-1h1zm0-1.7h-1v-1h1zm0-1.7h-1v-1h1zm0-1.7h-1v-1h1z"/><path d="m218.9 117.8v12.9h2.7v-1.8h1.2v1.8h2.7v-12.9zm5.8 9.8h-5.2v-.6h5.2zm0-1.5h-5.2v-.6h5.2zm0-1.5h-5.2v-.6h5.2zm0-1.4h-5.2v-.6h5.2zm0-1.5h-5.2v-.6h5.2zm0-1.5h-5.2v-.6h5.2z"/><path d="m194 116-5.7 3.3.3.7 5.4-3.2 5.4 3.2.4-.7z"/><path d="m198.4 120-4.4-2.5-4.4 2.5v9.9h-1v.9h1 8.8 1v-.9h-1zm-4.7 3.6v2.1h-2.1v-2.1zm-2.1-.7v-2.1h2.1v2.1zm2.1 3.5v2.1h-2.1v-2.1zm2.8-2.8v2.1h-2.1v-2.1zm-2.1-.7v-2.1h2.1v2.1zm2.1 3.5v2.1h-2.1v-2.1z"/><path d="m175 116.9h9.6v.9h-9.6z"/><path d="m175 130.7h9.6v-12.5h-9.6zm6.5-10h2.1v2.1h-2.1zm0 2.7h2.1v2.1h-2.1zm0 2.7h2.1v2.1h-2.1zm-2.7-5.4h2.1v2.1h-2.1zm0 2.7h2.1v2.1h-2.1zm0 2.7h2.1v2.1h-2.1zm-2.8-5.4h2.1v2.1h-2.1zm0 2.7h2.1v2.1h-2.1zm0 2.7h2.1v2.1h-2.1z"/><path d="m211.1 120.1v-6.3l-6.6 2.3v14.5h6.6 4.1v-8.3zm-1.1 9.3h-4.6v-.7h4.6zm0-1.6h-4.6v-.7h4.6zm0-1.7h-4.6v-.7h4.6zm0-1.6h-4.6v-.7h4.6zm0-1.6h-4.6v-.7h4.6zm0-1.6h-4.6v-.7h4.6zm0-1.6h-4.6v-.7h4.6zm0-1.7h-4.6v-.7h4.6zm2.4 11.6h-1v-1h1zm0-1.7h-1v-1h1zm0-1.7h-1v-1h1zm0-1.7h-1v-1h1zm1.8 5.1h-1v-1h1zm0-1.7h-1v-1h1zm0-1.7h-1v-1h1zm0-1.7h-1v-1h1z"/><path d="m229.2 116.9h9.6v.9h-9.6z"/><path d="m229.2 130.7h9.6v-12.5h-9.6zm6.5-10h2.1v2.1h-2.1zm0 2.7h2.1v2.1h-2.1zm0 2.7h2.1v2.1h-2.1zm-2.7-5.4h2.1v2.1h-2.1zm0 2.7h2.1v2.1h-2.1zm0 2.7h2.1v2.1h-2.1zm-2.7-5.4h2.1v2.1h-2.1zm0 2.7h2.1v2.1h-2.1zm0 2.7h2.1v2.1h-2.1z"/><path d="m151 304v12.9h2.7v-1.8h1.2v1.8h2.7v-12.9zm5.8 9.8h-5.2v-.6h5.2zm0-1.5h-5.2v-.6h5.2zm0-1.5h-5.2v-.6h5.2zm0-1.4h-5.2v-.6h5.2zm0-1.5h-5.2v-.6h5.2zm0-1.5h-5.2v-.6h5.2z"/><path d="m126.1 302.2-5.7 3.3.3.6 5.4-3.1 5.4 3.1.4-.6z"/><path d="m130.5 306.2-4.4-2.5-4.4 2.5v9.9h-1v.9h1 8.8 1v-.9h-1zm-4.7 3.6v2.1h-2.1v-2.1zm-2.1-.7v-2.1h2.1v2.1zm2.1 3.5v2.1h-2.1v-2.1zm2.8-2.8v2.1h-2.1v-2.1zm-2.1-.7v-2.1h2.1v2.1zm2.1 3.5v2.1h-2.1v-2.1z"/><path d="m143.2 306.3v-6.3l-6.6 2.3v14.5h6.6 4.1v-8.3zm-1.1 9.3h-4.6v-.7h4.6zm0-1.6h-4.6v-.7h4.6zm0-1.7h-4.6v-.7h4.6zm0-1.6h-4.6v-.7h4.6zm0-1.6h-4.6v-.7h4.6zm0-1.6h-4.6v-.7h4.6zm0-1.6h-4.6v-.7h4.6zm0-1.7h-4.6v-.7h4.6zm2.4 11.6h-1v-1h1zm0-1.8h-1v-1h1zm0-1.6h-1v-1h1zm0-1.7h-1v-1h1zm1.8 5.1h-1v-1h1zm0-1.8h-1v-1h1zm0-1.6h-1v-1h1zm0-1.7h-1v-1h1z"/><path d="m205.2 304v12.9h2.7v-1.8h1.2v1.8h2.7v-12.9zm5.9 9.8h-5.2v-.6h5.2zm0-1.5h-5.2v-.6h5.2zm0-1.5h-5.2v-.6h5.2zm0-1.4h-5.2v-.6h5.2zm0-1.5h-5.2v-.6h5.2zm0-1.5h-5.2v-.6h5.2z"/><path d="m180.3 302.2-5.7 3.3.4.6 5.3-3.1 5.4 3.1.4-.6z"/><path d="m184.8 306.2-4.4-2.5-4.4 2.5v9.9h-1v.9h1 8.8 1v-.9h-1zm-4.8 3.6v2.1h-2.1v-2.1zm-2.1-.7v-2.1h2.1v2.1zm2.1 3.5v2.1h-2.1v-2.1zm2.8-2.8v2.1h-2.1v-2.1zm-2.1-.7v-2.1h2.1v2.1zm2.1 3.5v2.1h-2.1v-2.1z"/><path d="m161.3 303.1h9.6v.9h-9.6z"/><path d="m161.3 316.9h9.6v-12.5h-9.6zm6.5-10.1h2.1v2.1h-2.1zm0 2.8h2.1v2.1h-2.1zm0 2.7h2.1v2.1h-2.1zm-2.7-5.5h2.1v2.1h-2.1zm0 2.8h2.1v2.1h-2.1zm0 2.7h2.1v2.1h-2.1zm-2.7-5.5h2.1v2.1h-2.1zm0 2.8h2.1v2.1h-2.1zm0 2.7h2.1v2.1h-2.1z"/><path d="m197.4 306.3v-6.3l-6.6 2.3v14.5h6.6 4.1v-8.3zm-1 9.3h-4.6v-.7h4.6zm0-1.6h-4.6v-.7h4.6zm0-1.7h-4.6v-.7h4.6zm0-1.6h-4.6v-.7h4.6zm0-1.6h-4.6v-.7h4.6zm0-1.6h-4.6v-.7h4.6zm0-1.6h-4.6v-.7h4.6zm0-1.7h-4.6v-.7h4.6zm2.3 11.6h-1v-1h1zm0-1.8h-1v-1h1zm0-1.6h-1v-1h1zm0-1.7h-1v-1h1zm1.8 5.1h-1v-1h1zm0-1.8h-1v-1h1zm0-1.6h-1v-1h1zm0-1.7h-1v-1h1z"/><path d="m259.4 304v12.9h2.7v-1.8h1.2v1.8h2.7v-12.9zm5.9 9.8h-5.2v-.6h5.2zm0-1.5h-5.2v-.6h5.2zm0-1.5h-5.2v-.6h5.2zm0-1.4h-5.2v-.6h5.2zm0-1.5h-5.2v-.6h5.2zm0-1.5h-5.2v-.6h5.2z"/><path d="m234.6 302.2-5.8 3.3.4.6 5.4-3.1 5.4 3.1.3-.6z"/><path d="m239 306.2-4.4-2.5-4.4 2.5v9.9h-1v.9h1 8.8 1v-.9h-1zm-4.8 3.6v2.1h-2.1v-2.1zm-2-.7v-2.1h2.1v2.1zm2 3.5v2.1h-2.1v-2.1zm2.8-2.8v2.1h-2.1v-2.1zm-2.1-.7v-2.1h2.1v2.1zm2.1 3.5v2.1h-2.1v-2.1z"/><path d="m215.6 303.1h9.6v.9h-9.6z"/><path d="m215.6 316.9h9.6v-12.5h-9.6zm6.5-10.1h2.1v2.1h-2.1zm0 2.8h2.1v2.1h-2.1zm0 2.7h2.1v2.1h-2.1zm-2.7-5.5h2.1v2.1h-2.1zm0 2.8h2.1v2.1h-2.1zm0 2.7h2.1v2.1h-2.1zm-2.8-5.5h2.1v2.1h-2.1zm0 2.8h2.1v2.1h-2.1zm0 2.7h2.1v2.1h-2.1z"/><path d="m251.6 306.3v-6.3l-6.6 2.3v14.5h6.6 4.1v-8.3zm-1 9.3h-4.6v-.7h4.6zm0-1.6h-4.6v-.7h4.6zm0-1.7h-4.6v-.7h4.6zm0-1.6h-4.6v-.7h4.6zm0-1.6h-4.6v-.7h4.6zm0-1.6h-4.6v-.7h4.6zm0-1.6h-4.6v-.7h4.6zm0-1.7h-4.6v-.7h4.6zm2.4 11.6h-1v-1h1zm0-1.8h-1v-1h1zm0-1.6h-1v-1h1zm0-1.7h-1v-1h1zm1.7 5.1h-1v-1h1zm0-1.8h-1v-1h1zm0-1.6h-1v-1h1zm0-1.7h-1v-1h1z"/><path d="m313.7 304v12.9h2.7v-1.8h1.2v1.8h2.7v-12.9zm5.8 9.8h-5.2v-.6h5.2zm0-1.5h-5.2v-.6h5.2zm0-1.5h-5.2v-.6h5.2zm0-1.4h-5.2v-.6h5.2zm0-1.5h-5.2v-.6h5.2zm0-1.5h-5.2v-.6h5.2z"/><path d="m288.8 302.2-5.7 3.3.3.6 5.4-3.1 5.4 3.1.4-.6z"/><path d="m293.2 306.2-4.4-2.5-4.4 2.5v9.9h-1v.9h1 8.8 1v-.9h-1zm-4.7 3.6v2.1h-2.1v-2.1zm-2.1-.7v-2.1h2.1v2.1zm2.1 3.5v2.1h-2.1v-2.1zm2.8-2.8v2.1h-2.1v-2.1zm-2.1-.7v-2.1h2.1v2.1zm2.1 3.5v2.1h-2.1v-2.1z"/><path d="m269.8 303.1h9.6v.9h-9.6z"/><path d="m269.8 316.9h9.6v-12.5h-9.6zm6.5-10.1h2.1v2.1h-2.1zm0 2.8h2.1v2.1h-2.1zm0 2.7h2.1v2.1h-2.1zm-2.7-5.5h2.1v2.1h-2.1zm0 2.8h2.1v2.1h-2.1zm0 2.7h2.1v2.1h-2.1zm-2.8-5.5h2.1v2.1h-2.1zm0 2.8h2.1v2.1h-2.1zm0 2.7h2.1v2.1h-2.1z"/><path d="m305.9 306.3v-6.3l-6.6 2.3v14.5h6.6 4.1v-8.3zm-1.1 9.3h-4.6v-.7h4.6zm0-1.6h-4.6v-.7h4.6zm0-1.7h-4.6v-.7h4.6zm0-1.6h-4.6v-.7h4.6zm0-1.6h-4.6v-.7h4.6zm0-1.6h-4.6v-.7h4.6zm0-1.6h-4.6v-.7h4.6zm0-1.7h-4.6v-.7h4.6zm2.4 11.6h-1v-1h1zm0-1.8h-1v-1h1zm0-1.6h-1v-1h1zm0-1.7h-1v-1h1zm1.8 5.1h-1v-1h1zm0-1.8h-1v-1h1zm0-1.6h-1v-1h1zm0-1.7h-1v-1h1z"/><path d="m367.9 304v12.9h2.7v-1.8h1.2v1.8h2.7v-12.9zm5.9 9.8h-5.2v-.6h5.2zm0-1.5h-5.2v-.6h5.2zm0-1.5h-5.2v-.6h5.2zm0-1.4h-5.2v-.6h5.2zm0-1.5h-5.2v-.6h5.2zm0-1.5h-5.2v-.6h5.2z"/><path d="m343.1 302.2-5.8 3.3.4.6 5.4-3.1 5.3 3.1.4-.6z"/><path d="m347.5 306.2-4.4-2.5-4.4 2.5v9.9h-1v.9h1 8.8 1v-.9h-1zm-4.8 3.6v2.1h-2.1v-2.1zm-2.1-.7v-2.1h2.1v2.1zm2.1 3.5v2.1h-2.1v-2.1zm2.8-2.8v2.1h-2.1v-2.1zm-2.1-.7v-2.1h2.1v2.1zm2.1 3.5v2.1h-2.1v-2.1z"/><path d="m324 303.1h9.6v.9h-9.6z"/><path d="m324 316.9h9.6v-12.5h-9.6zm6.6-10.1h2.1v2.1h-2.1zm0 2.8h2.1v2.1h-2.1zm0 2.7h2.1v2.1h-2.1zm-2.8-5.5h2.1v2.1h-2.1zm0 2.8h2.1v2.1h-2.1zm0 2.7h2.1v2.1h-2.1zm-2.7-5.5h2.1v2.1h-2.1zm0 2.8h2.1v2.1h-2.1zm0 2.7h2.1v2.1h-2.1z"/><path d="m360.1 306.3v-6.3l-6.6 2.3v14.5h6.6 4.1v-8.3zm-1 9.3h-4.6v-.7h4.6zm0-1.6h-4.6v-.7h4.6zm0-1.7h-4.6v-.7h4.6zm0-1.6h-4.6v-.7h4.6zm0-1.6h-4.6v-.7h4.6zm0-1.6h-4.6v-.7h4.6zm0-1.6h-4.6v-.7h4.6zm0-1.7h-4.6v-.7h4.6zm2.3 11.6h-1v-1h1zm0-1.8h-1v-1h1zm0-1.6h-1v-1h1zm0-1.7h-1v-1h1zm1.8 5.1h-1v-1h1zm0-1.8h-1v-1h1zm0-1.6h-1v-1h1zm0-1.7h-1v-1h1z"/><path d="m422.1 304v12.9h2.7v-1.8h1.2v1.8h2.7v-12.9zm5.9 9.8h-5.2v-.6h5.2zm0-1.5h-5.2v-.6h5.2zm0-1.5h-5.2v-.6h5.2zm0-1.4h-5.2v-.6h5.2zm0-1.5h-5.2v-.6h5.2zm0-1.5h-5.2v-.6h5.2z"/><path d="m397.3 302.2-5.8 3.3.4.6 5.4-3.1 5.4 3.1.3-.6z"/><path d="m401.7 306.2-4.4-2.5-4.4 2.5v9.9h-1v.9h1 8.8 1v-.9h-1zm-4.8 3.6v2.1h-2.1v-2.1zm-2-.7v-2.1h2.1v2.1zm2 3.5v2.1h-2.1v-2.1zm2.8-2.8v2.1h-2.1v-2.1zm-2-.7v-2.1h2.1v2.1zm2 3.5v2.1h-2.1v-2.1z"/><path d="m378.3 303.1h9.6v.9h-9.6z"/><path d="m378.3 316.9h9.6v-12.5h-9.6zm6.5-10.1h2.1v2.1h-2.1zm0 2.8h2.1v2.1h-2.1zm0 2.7h2.1v2.1h-2.1zm-2.7-5.5h2.1v2.1h-2.1zm0 2.8h2.1v2.1h-2.1zm0 2.7h2.1v2.1h-2.1zm-2.8-5.5h2.1v2.1h-2.1zm0 2.8h2.1v2.1h-2.1zm0 2.7h2.1v2.1h-2.1z"/><path d="m414.3 306.3v-6.3l-6.6 2.3v14.5h6.6 4.1v-8.3zm-1 9.3h-4.6v-.7h4.6zm0-1.6h-4.6v-.7h4.6zm0-1.7h-4.6v-.7h4.6zm0-1.6h-4.6v-.7h4.6zm0-1.6h-4.6v-.7h4.6zm0-1.6h-4.6v-.7h4.6zm0-1.6h-4.6v-.7h4.6zm0-1.7h-4.6v-.7h4.6zm2.4 11.6h-1v-1h1zm0-1.8h-1v-1h1zm0-1.6h-1v-1h1zm0-1.7h-1v-1h1zm1.8 5.1h-1v-1h1zm0-1.8h-1v-1h1zm0-1.6h-1v-1h1zm0-1.7h-1v-1h1z"/><path d="m476.4 304v12.9h2.7v-1.8h1.2v1.8h2.7v-12.9zm5.9 9.8h-5.2v-.6h5.2zm0-1.5h-5.2v-.6h5.2zm0-1.5h-5.2v-.6h5.2zm0-1.4h-5.2v-.6h5.2zm0-1.5h-5.2v-.6h5.2zm0-1.5h-5.2v-.6h5.2z"/><path d="m451.5 302.2-5.7 3.3.3.6 5.4-3.1 5.4 3.1.4-.6z"/><path d="m455.9 306.2-4.4-2.5-4.4 2.5v9.9h-1v.9h1 8.8 1v-.9h-1zm-4.7 3.6v2.1h-2.1v-2.1zm-2.1-.7v-2.1h2.1v2.1zm2.1 3.5v2.1h-2.1v-2.1zm2.8-2.8v2.1h-2.1v-2.1zm-2.1-.7v-2.1h2.1v2.1zm2.1 3.5v2.1h-2.1v-2.1z"/><path d="m432.5 303.1h9.6v.9h-9.6z"/><path d="m432.5 316.9h9.6v-12.5h-9.6zm6.5-10.1h2.1v2.1h-2.1zm0 2.8h2.1v2.1h-2.1zm0 2.7h2.1v2.1h-2.1zm-2.7-5.5h2.1v2.1h-2.1zm0 2.8h2.1v2.1h-2.1zm0 2.7h2.1v2.1h-2.1zm-2.8-5.5h2.1v2.1h-2.1zm0 2.8h2.1v2.1h-2.1zm0 2.7h2.1v2.1h-2.1z"/><path d="m468.6 306.3v-6.3l-6.6 2.3v14.5h6.6 4.1v-8.3zm-1.1 9.3h-4.6v-.7h4.6zm0-1.6h-4.6v-.7h4.6zm0-1.7h-4.6v-.7h4.6zm0-1.6h-4.6v-.7h4.6zm0-1.6h-4.6v-.7h4.6zm0-1.6h-4.6v-.7h4.6zm0-1.6h-4.6v-.7h4.6zm0-1.7h-4.6v-.7h4.6zm2.4 11.6h-1v-1h1zm0-1.8h-1v-1h1zm0-1.6h-1v-1h1zm0-1.7h-1v-1h1zm1.8 5.1h-1v-1h1zm0-1.8h-1v-1h1zm0-1.6h-1v-1h1zm0-1.7h-1v-1h1z"/><path d="m521.6 306.3v-6.3l-6.6 2.3v14.5h6.6 4.1v-8.3zm-1 9.3h-4.6v-.7h4.6zm0-1.6h-4.6v-.7h4.6zm0-1.7h-4.6v-.7h4.6zm0-1.6h-4.6v-.7h4.6zm0-1.6h-4.6v-.7h4.6zm0-1.6h-4.6v-.7h4.6zm0-1.6h-4.6v-.7h4.6zm0-1.7h-4.6v-.7h4.6zm2.3 11.6h-1v-1h1zm0-1.8h-1v-1h1zm0-1.6h-1v-1h1zm0-1.7h-1v-1h1zm1.8 5.1h-1v-1h1zm0-1.8h-1v-1h1zm0-1.6h-1v-1h1zm0-1.7h-1v-1h1z"/><path d="m505.8 302.2-5.8 3.3.4.6 5.4-3.1 5.4 3.1.3-.6z"/><path d="m510.2 306.2-4.4-2.5-4.4 2.5v9.9h-1v.9h1 8.8 1v-.9h-1zm-4.8 3.6v2.1h-2.1v-2.1zm-2.1-.7v-2.1h2.1v2.1zm2.1 3.5v2.1h-2.1v-2.1zm2.8-2.8v2.1h-2.1v-2.1zm-2.1-.7v-2.1h2.1v2.1zm2.1 3.5v2.1h-2.1v-2.1z"/><path d="m486.7 303.1h9.6v.9h-9.6z"/><path d="m486.7 316.9h9.6v-12.5h-9.6zm6.6-10.1h2.1v2.1h-2.1zm0 2.8h2.1v2.1h-2.1zm0 2.7h2.1v2.1h-2.1zm-2.8-5.5h2.1v2.1h-2.1zm0 2.8h2.1v2.1h-2.1zm0 2.7h2.1v2.1h-2.1zm-2.7-5.5h2.1v2.1h-2.1zm0 2.8h2.1v2.1h-2.1zm0 2.7h2.1v2.1h-2.1z"/><path d="m529.6 303.6v12.9h2.7v-1.8h1.2v1.8h2.7v-12.9zm5.9 9.7h-5.2v-.6h5.2zm0-1.5h-5.2v-.6h5.2zm0-1.4h-5.2v-.6h5.2zm0-1.5h-5.2v-.6h5.2zm0-1.5h-5.2v-.6h5.2zm0-1.4h-5.2v-.6h5.2z"/><path d="m583.9 303.6v12.9h2.7v-1.8h1.2v1.8h2.7v-12.9zm5.9 9.7h-5.2v-.6h5.2zm0-1.5h-5.2v-.6h5.2zm0-1.4h-5.2v-.6h5.2zm0-1.5h-5.2v-.6h5.2zm0-1.5h-5.2v-.6h5.2zm0-1.4h-5.2v-.6h5.2z"/><path d="m559 301.8-5.7 3.3.3.6 5.4-3.1 5.4 3.1.4-.6z"/><path d="m563.4 305.8-4.4-2.5-4.4 2.5v9.9h-1v.9h1 8.8 1v-.9h-1zm-4.7 3.6v2.1h-2.1v-2.1zm-2.1-.7v-2.1h2.1v2.1zm2.1 3.4v2.1h-2.1v-2.1zm2.8-2.7v2.1h-2.1v-2.1zm-2.1-.7v-2.1h2.1v2.1zm2.1 3.4v2.1h-2.1v-2.1z"/><path d="m540 302.6h9.6v.9h-9.6z"/><path d="m540 316.5h9.6v-12.5h-9.6zm6.5-10.1h2.1v2.1h-2.1zm0 2.8h2.1v2.1h-2.1zm0 2.7h2.1v2.1h-2.1zm-2.7-5.5h2.1v2.1h-2.1zm0 2.8h2.1v2.1h-2.1zm0 2.7h2.1v2.1h-2.1zm-2.8-5.5h2.1v2.1h-2.1zm0 2.8h2.1v2.1h-2.1zm0 2.7h2.1v2.1h-2.1z"/><path d="m576.1 305.9v-6.3l-6.6 2.3v14.5h6.6 4.1v-8.3zm-1.1 9.2h-4.6v-.7h4.6zm0-1.6h-4.6v-.7h4.6zm0-1.6h-4.6v-.7h4.6zm0-1.6h-4.6v-.7h4.6zm0-1.6h-4.6v-.7h4.6zm0-1.7h-4.6v-.7h4.6zm0-1.6h-4.6v-.7h4.6zm0-1.6h-4.6v-.7h4.6zm2.4 11.5h-1v-1h1zm0-1.7h-1v-1h1zm0-1.7h-1v-1h1zm0-1.7h-1v-1h1zm1.8 5.1h-1v-1h1zm0-1.7h-1v-1h1zm0-1.7h-1v-1h1zm0-1.7h-1v-1h1z"/><path d="m613.3 301.8-5.8 3.3.4.6 5.4-3.1 5.3 3.1.4-.6z"/><path d="m617.7 305.8-4.4-2.5-4.4 2.5v9.9h-1v.9h1 8.8 1v-.9h-1zm-4.8 3.6v2.1h-2.1v-2.1zm-2.1-.7v-2.1h2.1v2.1zm2.1 3.4v2.1h-2.1v-2.1zm2.8-2.7v2.1h-2.1v-2.1zm-2.1-.7v-2.1h2.1v2.1zm2.1 3.4v2.1h-2.1v-2.1z"/><path d="m594.2 302.6h9.6v.9h-9.6z"/><path d="m594.2 316.5h9.6v-12.5h-9.6zm6.6-10.1h2.1v2.1h-2.1zm0 2.8h2.1v2.1h-2.1zm0 2.7h2.1v2.1h-2.1zm-2.8-5.5h2.1v2.1h-2.1zm0 2.8h2.1v2.1h-2.1zm0 2.7h2.1v2.1h-2.1zm-2.7-5.5h2.1v2.1h-2.1zm0 2.8h2.1v2.1h-2.1zm0 2.7h2.1v2.1h-2.1z"/><path d="m937.5 301.8-5.8 3.4.4.6 5.4-3.1 5.3 3.1.4-.6z"/><path d="m941.9 305.8-4.4-2.5-4.4 2.5v9.9h-1v.9h1 8.8 1v-.9h-1zm-4.8 3.7v2.1h-2.1v-2.1zm-2.1-.8v-2.1h2.1v2.1zm2.1 3.5v2.1h-2.1v-2.1zm2.8-2.7v2.1h-2.1v-2.1zm-2.1-.8v-2.1h2.1v2.1zm2.1 3.5v2.1h-2.1v-2.1z"/><path d="m954.5 305.9v-6.3l-6.6 2.3v14.5h6.6 4.1v-8.3zm-1 9.3h-4.6v-.7h4.6zm0-1.6h-4.6v-.7h4.6zm0-1.6h-4.6v-.7h4.6zm0-1.7h-4.6v-.7h4.6zm0-1.6h-4.6v-.7h4.6zm0-1.6h-4.6v-.7h4.6zm0-1.6h-4.6v-.7h4.6zm0-1.6h-4.6v-.7h4.6zm2.3 11.5h-1v-1h1zm0-1.7h-1v-1h1zm0-1.7h-1v-1h1zm0-1.7h-1v-1h1zm1.8 5.1h-1v-1h1zm0-1.7h-1v-1h1zm0-1.7h-1v-1h1zm0-1.7h-1v-1h1z"/><path d="m638.2 303.9v12.9h2.7v-1.8h1.2v1.8h2.7v-12.9zm5.9 9.8h-5.2v-.6h5.2zm0-1.5h-5.2v-.6h5.2zm0-1.5h-5.2v-.6h5.2zm0-1.4h-5.2v-.6h5.2zm0-1.5h-5.2v-.6h5.2zm0-1.5h-5.2v-.6h5.2z"/><path d="m630.4 306.2v-6.2l-6.6 2.3v14.5h6.6 4.1v-8.3zm-1.1 9.3h-4.6v-.7h4.6zm0-1.6h-4.6v-.7h4.6zm0-1.7h-4.6v-.7h4.6zm0-1.6h-4.6v-.6h4.6zm0-1.6h-4.6v-.7h4.6zm0-1.6h-4.6v-.7h4.6zm0-1.6h-4.6v-.7h4.6zm0-1.6h-4.6v-.7h4.6zm2.4 11.5h-1v-1h1zm0-1.7h-1v-1h1zm0-1.7h-1v-1h1zm0-1.7h-1v-1h1zm1.8 5.1h-1v-1h1zm0-1.7h-1v-1h1zm0-1.7h-1v-1h1zm0-1.7h-1v-1h1z"/><path d="m692.4 303.9v12.9h2.7v-1.8h1.2v1.8h2.7v-12.9zm5.9 9.8h-5.2v-.6h5.2zm0-1.5h-5.2v-.6h5.2zm0-1.5h-5.2v-.6h5.2zm0-1.4h-5.2v-.6h5.2zm0-1.5h-5.2v-.6h5.2zm0-1.5h-5.2v-.6h5.2z"/><path d="m667.6 302.1-5.8 3.3.4.7 5.4-3.2 5.4 3.2.3-.7z"/><path d="m672 306.1-4.4-2.5-4.4 2.5v9.9h-1v.9h1 8.8 1v-.9h-1zm-4.8 3.6v2.1h-2.1v-2.1zm-2.1-.7v-2.1h2.1v2.1zm2.1 3.5v2.1h-2.1v-2.1zm2.8-2.8v2.1h-2.1v-2.1zm-2.1-.7v-2.1h2.1v2.1zm2.1 3.5v2.1h-2.1v-2.1z"/><path d="m648.5 303h9.6v.9h-9.6z"/><path d="m648.5 316.8h9.6v-12.5h-9.6zm6.6-10h2.1v2.1h-2.1zm0 2.7h2.1v2.1h-2.1zm0 2.7h2.1v2.1h-2.1zm-2.8-5.4h2.1v2.1h-2.1zm0 2.7h2.1v2.1h-2.1zm0 2.7h2.1v2.1h-2.1zm-2.7-5.4h2.1v2.1h-2.1zm0 2.7h2.1v2.1h-2.1zm0 2.7h2.1v2.1h-2.1z"/><path d="m684.6 306.2v-6.2l-6.6 2.3v14.5h6.6 4.1v-8.3zm-1 9.3h-4.6v-.7h4.6zm0-1.6h-4.6v-.7h4.6zm0-1.7h-4.6v-.7h4.6zm0-1.6h-4.6v-.6h4.6zm0-1.6h-4.6v-.7h4.6zm0-1.6h-4.6v-.7h4.6zm0-1.6h-4.6v-.7h4.6zm0-1.6h-4.6v-.7h4.6zm2.3 11.5h-1v-1h1zm0-1.7h-1v-1h1zm0-1.7h-1v-1h1zm0-1.7h-1v-1h1zm1.8 5.1h-1v-1h1zm0-1.7h-1v-1h1zm0-1.7h-1v-1h1zm0-1.7h-1v-1h1z"/><path d="m746.7 303.9v12.9h2.7v-1.8h1.2v1.8h2.7v-12.9zm5.8 9.8h-5.2v-.6h5.2zm0-1.5h-5.2v-.6h5.2zm0-1.5h-5.2v-.6h5.2zm0-1.4h-5.2v-.6h5.2zm0-1.5h-5.2v-.6h5.2zm0-1.5h-5.2v-.6h5.2z"/><path d="m721.8 302.1-5.7 3.3.3.7 5.4-3.2 5.4 3.2.3-.7z"/><path d="m726.2 306.1-4.4-2.5-4.4 2.5v9.9h-1v.9h1 8.8 1v-.9h-1zm-4.7 3.6v2.1h-2.1v-2.1zm-2.1-.7v-2.1h2.1v2.1zm2.1 3.5v2.1h-2.1v-2.1zm2.7-2.8v2.1h-2.1v-2.1zm-2-.7v-2.1h2.1v2.1zm2 3.5v2.1h-2.1v-2.1z"/><path d="m702.8 303h9.6v.9h-9.6z"/><path d="m702.8 316.8h9.6v-12.5h-9.6zm6.5-10h2.1v2.1h-2.1zm0 2.7h2.1v2.1h-2.1zm0 2.7h2.1v2.1h-2.1zm-2.7-5.4h2.1v2.1h-2.1zm0 2.7h2.1v2.1h-2.1zm0 2.7h2.1v2.1h-2.1zm-2.8-5.4h2.1v2.1h-2.1zm0 2.7h2.1v2.1h-2.1zm0 2.7h2.1v2.1h-2.1z"/><path d="m738.8 306.2v-6.2l-6.6 2.3v14.5h6.6 4.1v-8.3zm-1 9.3h-4.6v-.7h4.6zm0-1.6h-4.6v-.7h4.6zm0-1.7h-4.6v-.7h4.6zm0-1.6h-4.6v-.6h4.6zm0-1.6h-4.6v-.7h4.6zm0-1.6h-4.6v-.7h4.6zm0-1.6h-4.6v-.7h4.6zm0-1.6h-4.6v-.7h4.6zm2.4 11.5h-1v-1h1zm0-1.7h-1v-1h1zm0-1.7h-1v-1h1zm0-1.7h-1v-1h1zm1.8 5.1h-1v-1h1zm0-1.7h-1v-1h1zm0-1.7h-1v-1h1zm0-1.7h-1v-1h1z"/><path d="m800.9 303.9v12.9h2.7v-1.8h1.2v1.8h2.7v-12.9zm5.9 9.8h-5.2v-.6h5.2zm0-1.5h-5.2v-.6h5.2zm0-1.5h-5.2v-.6h5.2zm0-1.4h-5.2v-.6h5.2zm0-1.5h-5.2v-.6h5.2zm0-1.5h-5.2v-.6h5.2z"/><path d="m776 302.1-5.7 3.3.3.7 5.4-3.2 5.4 3.2.4-.7z"/><path d="m780.5 306.1-4.4-2.5-4.4 2.5v9.9h-1v.9h1 8.8 1v-.9h-1zm-4.8 3.6v2.1h-2.1v-2.1zm-2.1-.7v-2.1h2.1v2.1zm2.1 3.5v2.1h-2.1v-2.1zm2.8-2.8v2.1h-2.1v-2.1zm-2.1-.7v-2.1h2.1v2.1zm2.1 3.5v2.1h-2.1v-2.1z"/><path d="m757 303h9.6v.9h-9.6z"/><path d="m757 316.8h9.6v-12.5h-9.6zm6.5-10h2.1v2.1h-2.1zm0 2.7h2.1v2.1h-2.1zm0 2.7h2.1v2.1h-2.1zm-2.7-5.4h2.1v2.1h-2.1zm0 2.7h2.1v2.1h-2.1zm0 2.7h2.1v2.1h-2.1zm-2.7-5.4h2.1v2.1h-2.1zm0 2.7h2.1v2.1h-2.1zm0 2.7h2.1v2.1h-2.1z"/><path d="m793.1 306.2v-6.2l-6.6 2.3v14.5h6.6 4.1v-8.3zm-1.1 9.3h-4.6v-.7h4.6zm0-1.6h-4.6v-.7h4.6zm0-1.7h-4.6v-.7h4.6zm0-1.6h-4.6v-.6h4.6zm0-1.6h-4.6v-.7h4.6zm0-1.6h-4.6v-.7h4.6zm0-1.6h-4.6v-.7h4.6zm0-1.6h-4.6v-.7h4.6zm2.4 11.5h-1v-1h1zm0-1.7h-1v-1h1zm0-1.7h-1v-1h1zm0-1.7h-1v-1h1zm1.8 5.1h-1v-1h1zm0-1.7h-1v-1h1zm0-1.7h-1v-1h1zm0-1.7h-1v-1h1z"/><path d="m855.1 303.9v12.9h2.7v-1.8h1.2v1.8h2.7v-12.9zm5.9 9.8h-5.2v-.6h5.2zm0-1.5h-5.2v-.6h5.2zm0-1.5h-5.2v-.6h5.2zm0-1.4h-5.2v-.6h5.2zm0-1.5h-5.2v-.6h5.2zm0-1.5h-5.2v-.6h5.2z"/><path d="m830.3 302.1-5.8 3.3.4.7 5.4-3.2 5.4 3.2.3-.7z"/><path d="m834.7 306.1-4.4-2.5-4.4 2.5v9.9h-1v.9h1 8.8 1v-.9h-1zm-4.8 3.6v2.1h-2.1v-2.1zm-2.1-.7v-2.1h2.1v2.1zm2.1 3.5v2.1h-2.1v-2.1zm2.8-2.8v2.1h-2.1v-2.1zm-2.1-.7v-2.1h2.1v2.1zm2.1 3.5v2.1h-2.1v-2.1z"/><path d="m811.3 303h9.6v.9h-9.6z"/><path d="m811.3 316.8h9.6v-12.5h-9.6zm6.5-10h2.1v2.1h-2.1zm0 2.7h2.1v2.1h-2.1zm0 2.7h2.1v2.1h-2.1zm-2.7-5.4h2.1v2.1h-2.1zm0 2.7h2.1v2.1h-2.1zm0 2.7h2.1v2.1h-2.1zm-2.8-5.4h2.1v2.1h-2.1zm0 2.7h2.1v2.1h-2.1zm0 2.7h2.1v2.1h-2.1z"/><path d="m847.3 306.2v-6.2l-6.6 2.3v14.5h6.6 4.1v-8.3zm-1 9.3h-4.6v-.7h4.6zm0-1.6h-4.6v-.7h4.6zm0-1.7h-4.6v-.7h4.6zm0-1.6h-4.6v-.6h4.6zm0-1.6h-4.6v-.7h4.6zm0-1.6h-4.6v-.7h4.6zm0-1.6h-4.6v-.7h4.6zm0-1.6h-4.6v-.7h4.6zm2.3 11.5h-1v-1h1zm0-1.7h-1v-1h1zm0-1.7h-1v-1h1zm0-1.7h-1v-1h1zm1.8 5.1h-1v-1h1zm0-1.7h-1v-1h1zm0-1.7h-1v-1h1zm0-1.7h-1v-1h1z"/><path d="m884.5 302.1-5.7 3.3.3.7 5.4-3.2 5.4 3.2.4-.7z"/><path d="m888.9 306.1-4.4-2.5-4.4 2.5v9.9h-1v.9h1 8.8 1v-.9h-1zm-4.7 3.6v2.1h-2.1v-2.1zm-2.1-.7v-2.1h2.1v2.1zm2.1 3.5v2.1h-2.1v-2.1zm2.8-2.8v2.1h-2.1v-2.1zm-2.1-.7v-2.1h2.1v2.1zm2.1 3.5v2.1h-2.1v-2.1z"/><path d="m865.5 303h9.6v.9h-9.6z"/><path d="m865.5 316.8h9.6v-12.5h-9.6zm6.5-10h2.1v2.1h-2.1zm0 2.7h2.1v2.1h-2.1zm0 2.7h2.1v2.1h-2.1zm-2.7-5.4h2.1v2.1h-2.1zm0 2.7h2.1v2.1h-2.1zm0 2.7h2.1v2.1h-2.1zm-2.8-5.4h2.1v2.1h-2.1zm0 2.7h2.1v2.1h-2.1zm0 2.7h2.1v2.1h-2.1z"/><path d="m908.2 303.9v12.9h2.7v-1.8h1.2v1.8h2.7v-12.9zm5.8 9.8h-5.2v-.6h5.2zm0-1.5h-5.2v-.6h5.2zm0-1.5h-5.2v-.6h5.2zm0-1.4h-5.2v-.6h5.2zm0-1.5h-5.2v-.6h5.2zm0-1.5h-5.2v-.6h5.2z"/><path d="m900.3 306.2v-6.2l-6.6 2.3v14.5h6.6 4.1v-8.3zm-1 9.3h-4.6v-.7h4.6zm0-1.6h-4.6v-.7h4.6zm0-1.7h-4.6v-.7h4.6zm0-1.6h-4.6v-.6h4.6zm0-1.6h-4.6v-.7h4.6zm0-1.6h-4.6v-.7h4.6zm0-1.6h-4.6v-.7h4.6zm0-1.6h-4.6v-.7h4.6zm2.4 11.5h-1v-1h1zm0-1.7h-1v-1h1zm0-1.7h-1v-1h1zm0-1.7h-1v-1h1zm1.8 5.1h-1v-1h1zm0-1.7h-1v-1h1zm0-1.7h-1v-1h1zm0-1.7h-1v-1h1z"/><path d="m918.5 303h9.6v.9h-9.6z"/><path d="m918.5 316.8h9.6v-12.5h-9.6zm6.5-10h2.1v2.1h-2.1zm0 2.7h2.1v2.1h-2.1zm0 2.7h2.1v2.1h-2.1zm-2.7-5.4h2.1v2.1h-2.1zm0 2.7h2.1v2.1h-2.1zm0 2.7h2.1v2.1h-2.1zm-2.7-5.4h2.1v2.1h-2.1zm0 2.7h2.1v2.1h-2.1zm0 2.7h2.1v2.1h-2.1z"/><path d="m164.6 240.5v12.9h2.7v-1.8h1.2v1.8h2.7v-12.9zm5.9 9.8h-5.2v-.6h5.2zm0-1.5h-5.2v-.6h5.2zm0-1.5h-5.2v-.6h5.2zm0-1.4h-5.2v-.6h5.2zm0-1.5h-5.2v-.6h5.2zm0-1.5h-5.2v-.6h5.2z"/><path d="m139.8 238.7-5.8 3.3.4.6 5.4-3.1 5.4 3.1.3-.6z"/><path d="m144.2 242.7-4.4-2.5-4.4 2.5v9.9h-1v.9h1 8.8 1v-.9h-1zm-4.8 3.6v2.1h-2.1v-2.1zm-2.1-.7v-2.1h2.1v2.1zm2.1 3.5v2.1h-2.1v-2.1zm2.8-2.8v2.1h-2.1v-2.1zm-2.1-.7v-2.1h2.1v2.1zm2.1 3.5v2.1h-2.1v-2.1z"/><path d="m120.8 239.6h9.6v.9h-9.6z"/><path d="m120.8 253.4h9.6v-12.5h-9.6zm6.5-10h2.1v2.1h-2.1zm0 2.7h2.1v2.1h-2.1zm0 2.7h2.1v2.1h-2.1zm-2.8-5.4h2.1v2.1h-2.1zm0 2.7h2.1v2.1h-2.1zm0 2.7h2.1v2.1h-2.1zm-2.7-5.4h2.1v2.1h-2.1zm0 2.7h2.1v2.1h-2.1zm0 2.7h2.1v2.1h-2.1z"/><path d="m156.8 242.8v-6.3l-6.6 2.3v14.5h6.6 4.1v-8.3zm-1 9.3h-4.6v-.7h4.6zm0-1.6h-4.6v-.7h4.6zm0-1.7h-4.6v-.7h4.6zm0-1.6h-4.6v-.7h4.6zm0-1.6h-4.6v-.7h4.6zm0-1.6h-4.6v-.7h4.6zm0-1.6h-4.6v-.7h4.6zm0-1.7h-4.6v-.7h4.6zm2.3 11.6h-1v-1h1zm0-1.7h-1v-1h1zm0-1.7h-1v-1h1zm0-1.7h-1v-1h1zm1.8 5.1h-1v-1h1zm0-1.7h-1v-1h1zm0-1.7h-1v-1h1zm0-1.7h-1v-1h1z"/><path d="m218.9 240.5v12.9h2.7v-1.8h1.2v1.8h2.7v-12.9zm5.8 9.8h-5.2v-.6h5.2zm0-1.5h-5.2v-.6h5.2zm0-1.5h-5.2v-.6h5.2zm0-1.4h-5.2v-.6h5.2zm0-1.5h-5.2v-.6h5.2zm0-1.5h-5.2v-.6h5.2z"/><path d="m194 238.7-5.7 3.3.3.6 5.4-3.1 5.4 3.1.4-.6z"/><path d="m198.4 242.7-4.4-2.5-4.4 2.5v9.9h-1v.9h1 8.8 1v-.9h-1zm-4.7 3.6v2.1h-2.1v-2.1zm-2.1-.7v-2.1h2.1v2.1zm2.1 3.5v2.1h-2.1v-2.1zm2.8-2.8v2.1h-2.1v-2.1zm-2.1-.7v-2.1h2.1v2.1zm2.1 3.5v2.1h-2.1v-2.1z"/><path d="m175 239.6h9.6v.9h-9.6z"/><path d="m175 253.4h9.6v-12.5h-9.6zm6.5-10h2.1v2.1h-2.1zm0 2.7h2.1v2.1h-2.1zm0 2.7h2.1v2.1h-2.1zm-2.7-5.4h2.1v2.1h-2.1zm0 2.7h2.1v2.1h-2.1zm0 2.7h2.1v2.1h-2.1zm-2.8-5.4h2.1v2.1h-2.1zm0 2.7h2.1v2.1h-2.1zm0 2.7h2.1v2.1h-2.1z"/><path d="m211.1 242.8v-6.3l-6.6 2.3v14.5h6.6 4.1v-8.3zm-1.1 9.3h-4.6v-.7h4.6zm0-1.6h-4.6v-.7h4.6zm0-1.7h-4.6v-.7h4.6zm0-1.6h-4.6v-.7h4.6zm0-1.6h-4.6v-.7h4.6zm0-1.6h-4.6v-.7h4.6zm0-1.6h-4.6v-.7h4.6zm0-1.7h-4.6v-.7h4.6zm2.4 11.6h-1v-1h1zm0-1.7h-1v-1h1zm0-1.7h-1v-1h1zm0-1.7h-1v-1h1zm1.8 5.1h-1v-1h1zm0-1.7h-1v-1h1zm0-1.7h-1v-1h1zm0-1.7h-1v-1h1z"/><path d="m273.1 240.5v12.9h2.7v-1.8h1.2v1.8h2.7v-12.9zm5.9 9.8h-5.2v-.6h5.2zm0-1.5h-5.2v-.6h5.2zm0-1.5h-5.2v-.6h5.2zm0-1.4h-5.2v-.6h5.2zm0-1.5h-5.2v-.6h5.2zm0-1.5h-5.2v-.6h5.2z"/><path d="m248.2 238.7-5.7 3.3.3.6 5.4-3.1 5.4 3.1.4-.6z"/><path d="m252.7 242.7-4.4-2.5-4.4 2.5v9.9h-1v.9h1 8.8 1v-.9h-1zm-4.8 3.6v2.1h-2.1v-2.1zm-2.1-.7v-2.1h2.1v2.1zm2.1 3.5v2.1h-2.1v-2.1zm2.8-2.8v2.1h-2.1v-2.1zm-2.1-.7v-2.1h2.1v2.1zm2.1 3.5v2.1h-2.1v-2.1z"/><path d="m229.2 239.6h9.6v.9h-9.6z"/><path d="m229.2 253.4h9.6v-12.5h-9.6zm6.5-10h2.1v2.1h-2.1zm0 2.7h2.1v2.1h-2.1zm0 2.7h2.1v2.1h-2.1zm-2.7-5.4h2.1v2.1h-2.1zm0 2.7h2.1v2.1h-2.1zm0 2.7h2.1v2.1h-2.1zm-2.7-5.4h2.1v2.1h-2.1zm0 2.7h2.1v2.1h-2.1zm0 2.7h2.1v2.1h-2.1z"/><path d="m265.3 242.8v-6.3l-6.6 2.3v14.5h6.6 4.1v-8.3zm-1.1 9.3h-4.6v-.7h4.6zm0-1.6h-4.6v-.7h4.6zm0-1.7h-4.6v-.7h4.6zm0-1.6h-4.6v-.7h4.6zm0-1.6h-4.6v-.7h4.6zm0-1.6h-4.6v-.7h4.6zm0-1.6h-4.6v-.7h4.6zm0-1.7h-4.6v-.7h4.6zm2.4 11.6h-1v-1h1zm0-1.7h-1v-1h1zm0-1.7h-1v-1h1zm0-1.7h-1v-1h1zm1.8 5.1h-1v-1h1zm0-1.7h-1v-1h1zm0-1.7h-1v-1h1zm0-1.7h-1v-1h1z"/><path d="m327.3 240.5v12.9h2.7v-1.8h1.2v1.8h2.7v-12.9zm5.9 9.8h-5.2v-.6h5.2zm0-1.5h-5.2v-.6h5.2zm0-1.5h-5.2v-.6h5.2zm0-1.4h-5.2v-.6h5.2zm0-1.5h-5.2v-.6h5.2zm0-1.5h-5.2v-.6h5.2z"/><path d="m302.5 238.7-5.8 3.3.4.6 5.4-3.1 5.4 3.1.3-.6z"/><path d="m306.9 242.7-4.4-2.5-4.4 2.5v9.9h-1v.9h1 8.8 1v-.9h-1zm-4.8 3.6v2.1h-2.1v-2.1zm-2.1-.7v-2.1h2.1v2.1zm2.1 3.5v2.1h-2.1v-2.1zm2.8-2.8v2.1h-2.1v-2.1zm-2.1-.7v-2.1h2.1v2.1zm2.1 3.5v2.1h-2.1v-2.1z"/><path d="m283.5 239.6h9.6v.9h-9.6z"/><path d="m283.5 253.4h9.6v-12.5h-9.6zm6.5-10h2.1v2.1h-2.1zm0 2.7h2.1v2.1h-2.1zm0 2.7h2.1v2.1h-2.1zm-2.7-5.4h2.1v2.1h-2.1zm0 2.7h2.1v2.1h-2.1zm0 2.7h2.1v2.1h-2.1zm-2.8-5.4h2.1v2.1h-2.1zm0 2.7h2.1v2.1h-2.1zm0 2.7h2.1v2.1h-2.1z"/><path d="m319.5 242.8v-6.3l-6.6 2.3v14.5h6.6 4.1v-8.3zm-1 9.3h-4.6v-.7h4.6zm0-1.6h-4.6v-.7h4.6zm0-1.7h-4.6v-.7h4.6zm0-1.6h-4.6v-.7h4.6zm0-1.6h-4.6v-.7h4.6zm0-1.6h-4.6v-.7h4.6zm0-1.6h-4.6v-.7h4.6zm0-1.7h-4.6v-.7h4.6zm2.3 11.6h-1v-1h1zm0-1.7h-1v-1h1zm0-1.7h-1v-1h1zm0-1.7h-1v-1h1zm1.8 5.1h-1v-1h1zm0-1.7h-1v-1h1zm0-1.7h-1v-1h1zm0-1.7h-1v-1h1z"/><path d="m381.6 240.5v12.9h2.7v-1.8h1.2v1.8h2.7v-12.9zm5.8 9.8h-5.2v-.6h5.2zm0-1.5h-5.2v-.6h5.2zm0-1.5h-5.2v-.6h5.2zm0-1.4h-5.2v-.6h5.2zm0-1.5h-5.2v-.6h5.2zm0-1.5h-5.2v-.6h5.2z"/><path d="m356.7 238.7-5.7 3.3.3.6 5.4-3.1 5.4 3.1.4-.6z"/><path d="m361.1 242.7-4.4-2.5-4.4 2.5v9.9h-1v.9h1 8.8 1v-.9h-1zm-4.7 3.6v2.1h-2.1v-2.1zm-2.1-.7v-2.1h2.1v2.1zm2.1 3.5v2.1h-2.1v-2.1zm2.8-2.8v2.1h-2.1v-2.1zm-2.1-.7v-2.1h2.1v2.1zm2.1 3.5v2.1h-2.1v-2.1z"/><path d="m337.7 239.6h9.6v.9h-9.6z"/><path d="m337.7 253.4h9.6v-12.5h-9.6zm6.5-10h2.1v2.1h-2.1zm0 2.7h2.1v2.1h-2.1zm0 2.7h2.1v2.1h-2.1zm-2.7-5.4h2.1v2.1h-2.1zm0 2.7h2.1v2.1h-2.1zm0 2.7h2.1v2.1h-2.1zm-2.8-5.4h2.1v2.1h-2.1zm0 2.7h2.1v2.1h-2.1zm0 2.7h2.1v2.1h-2.1z"/><path d="m373.8 242.8v-6.3l-6.6 2.3v14.5h6.6 4.1v-8.3zm-1.1 9.3h-4.6v-.7h4.6zm0-1.6h-4.6v-.7h4.6zm0-1.7h-4.6v-.7h4.6zm0-1.6h-4.6v-.7h4.6zm0-1.6h-4.6v-.7h4.6zm0-1.6h-4.6v-.7h4.6zm0-1.6h-4.6v-.7h4.6zm0-1.7h-4.6v-.7h4.6zm2.4 11.6h-1v-1h1zm0-1.7h-1v-1h1zm0-1.7h-1v-1h1zm0-1.7h-1v-1h1zm1.8 5.1h-1v-1h1zm0-1.7h-1v-1h1zm0-1.7h-1v-1h1zm0-1.7h-1v-1h1z"/><path d="m435.8 240.5v12.9h2.7v-1.8h1.2v1.8h2.7v-12.9zm5.9 9.8h-5.2v-.6h5.2zm0-1.5h-5.2v-.6h5.2zm0-1.5h-5.2v-.6h5.2zm0-1.4h-5.2v-.6h5.2zm0-1.5h-5.2v-.6h5.2zm0-1.5h-5.2v-.6h5.2z"/><path d="m410.9 238.7-5.7 3.3.4.6 5.3-3.1 5.4 3.1.4-.6z"/><path d="m415.4 242.7-4.4-2.5-4.4 2.5v9.9h-1v.9h1 8.8 1v-.9h-1zm-4.8 3.6v2.1h-2.1v-2.1zm-2.1-.7v-2.1h2.1v2.1zm2.1 3.5v2.1h-2.1v-2.1zm2.8-2.8v2.1h-2.1v-2.1zm-2.1-.7v-2.1h2.1v2.1zm2.1 3.5v2.1h-2.1v-2.1z"/><path d="m391.9 239.6h9.6v.9h-9.6z"/><path d="m391.9 253.4h9.6v-12.5h-9.6zm6.6-10h2.1v2.1h-2.1zm0 2.7h2.1v2.1h-2.1zm0 2.7h2.1v2.1h-2.1zm-2.8-5.4h2.1v2.1h-2.1zm0 2.7h2.1v2.1h-2.1zm0 2.7h2.1v2.1h-2.1zm-2.7-5.4h2.1v2.1h-2.1zm0 2.7h2.1v2.1h-2.1zm0 2.7h2.1v2.1h-2.1z"/><path d="m428 242.8v-6.3l-6.6 2.3v14.5h6.6 4.1v-8.3zm-1 9.3h-4.6v-.7h4.6zm0-1.6h-4.6v-.7h4.6zm0-1.7h-4.6v-.7h4.6zm0-1.6h-4.6v-.7h4.6zm0-1.6h-4.6v-.7h4.6zm0-1.6h-4.6v-.7h4.6zm0-1.6h-4.6v-.7h4.6zm0-1.7h-4.6v-.7h4.6zm2.3 11.6h-1v-1h1zm0-1.7h-1v-1h1zm0-1.7h-1v-1h1zm0-1.7h-1v-1h1zm1.8 5.1h-1v-1h1zm0-1.7h-1v-1h1zm0-1.7h-1v-1h1zm0-1.7h-1v-1h1z"/><path d="m490 240.5v12.9h2.7v-1.8h1.2v1.8h2.7v-12.9zm5.9 9.8h-5.2v-.6h5.2zm0-1.5h-5.2v-.6h5.2zm0-1.5h-5.2v-.6h5.2zm0-1.4h-5.2v-.6h5.2zm0-1.5h-5.2v-.6h5.2zm0-1.5h-5.2v-.6h5.2z"/><path d="m465.2 238.7-5.8 3.3.4.6 5.4-3.1 5.4 3.1.3-.6z"/><path d="m469.6 242.7-4.4-2.5-4.4 2.5v9.9h-1v.9h1 8.8 1v-.9h-1zm-4.8 3.6v2.1h-2.1v-2.1zm-2-.7v-2.1h2.1v2.1zm2 3.5v2.1h-2.1v-2.1zm2.8-2.8v2.1h-2.1v-2.1zm-2-.7v-2.1h2.1v2.1zm2 3.5v2.1h-2.1v-2.1z"/><path d="m446.2 239.6h9.6v.9h-9.6z"/><path d="m446.2 253.4h9.6v-12.5h-9.6zm6.5-10h2.1v2.1h-2.1zm0 2.7h2.1v2.1h-2.1zm0 2.7h2.1v2.1h-2.1zm-2.7-5.4h2.1v2.1h-2.1zm0 2.7h2.1v2.1h-2.1zm0 2.7h2.1v2.1h-2.1zm-2.8-5.4h2.1v2.1h-2.1zm0 2.7h2.1v2.1h-2.1zm0 2.7h2.1v2.1h-2.1z"/><path d="m482.2 242.8v-6.3l-6.6 2.3v14.5h6.6 4.1v-8.3zm-1 9.3h-4.6v-.7h4.6zm0-1.6h-4.6v-.7h4.6zm0-1.7h-4.6v-.7h4.6zm0-1.6h-4.6v-.7h4.6zm0-1.6h-4.6v-.7h4.6zm0-1.6h-4.6v-.7h4.6zm0-1.6h-4.6v-.7h4.6zm0-1.7h-4.6v-.7h4.6zm2.4 11.6h-1v-1h1zm0-1.7h-1v-1h1zm0-1.7h-1v-1h1zm0-1.7h-1v-1h1zm1.7 5.1h-1v-1h1zm0-1.7h-1v-1h1zm0-1.7h-1v-1h1zm0-1.7h-1v-1h1z"/><path d="m519.4 238.7-5.7 3.3.3.6 5.4-3.1 5.4 3.1.4-.6z"/><path d="m523.8 242.7-4.4-2.5-4.4 2.5v9.9h-1v.9h1 8.8 1v-.9h-1zm-4.7 3.6v2.1h-2.1v-2.1zm-2.1-.7v-2.1h2.1v2.1zm2.1 3.5v2.1h-2.1v-2.1zm2.8-2.8v2.1h-2.1v-2.1zm-2.1-.7v-2.1h2.1v2.1zm2.1 3.5v2.1h-2.1v-2.1z"/><path d="m500.4 239.6h9.6v.9h-9.6z"/><path d="m500.4 253.4h9.6v-12.5h-9.6zm6.5-10h2.1v2.1h-2.1zm0 2.7h2.1v2.1h-2.1zm0 2.7h2.1v2.1h-2.1zm-2.7-5.4h2.1v2.1h-2.1zm0 2.7h2.1v2.1h-2.1zm0 2.7h2.1v2.1h-2.1zm-2.8-5.4h2.1v2.1h-2.1zm0 2.7h2.1v2.1h-2.1zm0 2.7h2.1v2.1h-2.1z"/><path d="m543.7 240.4v12.9h2.7v-1.8h1.2v1.8h2.7v-12.9zm5.9 9.7h-5.2v-.6h5.2zm0-1.4h-5.2v-.6h5.2zm0-1.5h-5.2v-.6h5.2zm0-1.5h-5.2v-.6h5.2zm0-1.4h-5.2v-.6h5.2zm0-1.5h-5.2v-.6h5.2z"/><path d="m535.9 242.7v-6.3l-6.6 2.3v14.5h6.6 4.1v-8.2zm-1 9.3h-4.6v-.7h4.6zm0-1.7h-4.6v-.7h4.6zm0-1.6h-4.6v-.7h4.6zm0-1.6h-4.6v-.7h4.6zm0-1.6h-4.6v-.7h4.6zm0-1.6h-4.6v-.7h4.6zm0-1.7h-4.6v-.7h4.6zm0-1.6h-4.6v-.7h4.6zm2.3 11.5h-1v-1h1zm0-1.7h-1v-1h1zm0-1.7h-1v-1h1zm0-1.6h-1v-1h1zm1.8 5h-1v-1h1zm0-1.7h-1v-1h1zm0-1.7h-1v-1h1zm0-1.6h-1v-1h1z"/><path d="m597.9 240.4v12.9h2.7v-1.8h1.2v1.8h2.7v-12.9zm5.9 9.7h-5.2v-.6h5.2zm0-1.4h-5.2v-.6h5.2zm0-1.5h-5.2v-.6h5.2zm0-1.5h-5.2v-.6h5.2zm0-1.4h-5.2v-.6h5.2zm0-1.5h-5.2v-.6h5.2z"/><path d="m573.1 238.6-5.8 3.3.4.6 5.4-3.1 5.4 3.1.3-.6z"/><path d="m577.5 242.6-4.4-2.5-4.4 2.5v9.9h-1v.9h1 8.8 1v-.9h-1zm-4.8 3.6v2.1h-2.1v-2.1zm-2-.7v-2.1h2.1v2.1zm2 3.4v2.1h-2.1v-2.1zm2.8-2.7v2.1h-2.1v-2.1zm-2.1-.7v-2.1h2.1v2.1zm2.1 3.4v2.1h-2.1v-2.1z"/><path d="m554.1 239.5h9.6v.9h-9.6z"/><path d="m554.1 253.3h9.6v-12.5h-9.6zm6.5-10.1h2.1v2.1h-2.1zm0 2.8h2.1v2.1h-2.1zm0 2.7h2.1v2.1h-2.1zm-2.7-5.5h2.1v2.1h-2.1zm0 2.8h2.1v2.1h-2.1zm0 2.7h2.1v2.1h-2.1zm-2.8-5.5h2.1v2.1h-2.1zm0 2.8h2.1v2.1h-2.1zm0 2.7h2.1v2.1h-2.1z"/><path d="m590.1 242.7v-6.3l-6.6 2.3v14.5h6.6 4.1v-8.2zm-1 9.3h-4.6v-.7h4.6zm0-1.7h-4.6v-.7h4.6zm0-1.6h-4.6v-.7h4.6zm0-1.6h-4.6v-.7h4.6zm0-1.6h-4.6v-.7h4.6zm0-1.6h-4.6v-.7h4.6zm0-1.7h-4.6v-.7h4.6zm0-1.6h-4.6v-.7h4.6zm2.4 11.5h-1v-1h1zm0-1.7h-1v-1h1zm0-1.7h-1v-1h1zm0-1.6h-1v-1h1zm1.7 5h-1v-1h1zm0-1.7h-1v-1h1zm0-1.7h-1v-1h1zm0-1.6h-1v-1h1z"/><path d="m608.3 239.5h9.6v.9h-9.6z"/><path d="m608.3 253.3h9.6v-12.5h-9.6zm6.5-10.1h2.1v2.1h-2.1zm0 2.8h2.1v2.1h-2.1zm0 2.7h2.1v2.1h-2.1zm-2.7-5.5h2.1v2.1h-2.1zm0 2.8h2.1v2.1h-2.1zm0 2.7h2.1v2.1h-2.1zm-2.8-5.5h2.1v2.1h-2.1zm0 2.8h2.1v2.1h-2.1zm0 2.7h2.1v2.1h-2.1z"/><path d="m651.8 240.5v12.9h2.7v-1.8h1.2v1.8h2.7v-12.9zm5.9 9.7h-5.2v-.6h5.2zm0-1.5h-5.2v-.6h5.2zm0-1.4h-5.2v-.6h5.2zm0-1.5h-5.2v-.6h5.2zm0-1.5h-5.2v-.6h5.2zm0-1.4h-5.2v-.6h5.2z"/><path d="m626.9 238.6-5.7 3.4.3.6 5.4-3.1 5.4 3.1.4-.6z"/><path d="m631.4 242.6-4.4-2.5-4.4 2.5v9.9h-1v.9h1 8.8 1v-.9h-1zm-4.8 3.7v2.1h-2.1v-2.1zm-2.1-.8v-2.1h2.1v2.1zm2.1 3.5v2.1h-2.1v-2.1zm2.8-2.7v2.1h-2.1v-2.1zm-2.1-.8v-2.1h2.1v2.1zm2.1 3.5v2.1h-2.1v-2.1z"/><path d="m644 242.8v-6.3l-6.6 2.3v14.5h6.6 4.1v-8.3zm-1 9.2h-4.6v-.7h4.6zm0-1.6h-4.6v-.7h4.6zm0-1.6h-4.6v-.7h4.6zm0-1.6h-4.6v-.7h4.6zm0-1.7h-4.6v-.7h4.6zm0-1.6h-4.6v-.7h4.6zm0-1.6h-4.6v-.7h4.6zm0-1.6h-4.6v-.7h4.6zm2.3 11.5h-1v-1h1zm0-1.7h-1v-1h1zm0-1.7h-1v-1h1zm0-1.7h-1v-1h1zm1.8 5.1h-1v-1h1zm0-1.7h-1v-1h1zm0-1.7h-1v-1h1zm0-1.7h-1v-1h1z"/><path d="m706 240.5v12.9h2.7v-1.8h1.2v1.8h2.7v-12.9zm5.9 9.7h-5.2v-.6h5.2zm0-1.5h-5.2v-.6h5.2zm0-1.4h-5.2v-.6h5.2zm0-1.5h-5.2v-.6h5.2zm0-1.5h-5.2v-.6h5.2zm0-1.4h-5.2v-.6h5.2z"/><path d="m681.2 238.6-5.8 3.4.4.6 5.4-3.1 5.4 3.1.3-.6z"/><path d="m685.6 242.6-4.4-2.5-4.4 2.5v9.9h-1v.9h1 8.8 1v-.9h-1zm-4.8 3.7v2.1h-2.1v-2.1zm-2-.8v-2.1h2.1v2.1zm2 3.5v2.1h-2.1v-2.1zm2.8-2.7v2.1h-2.1v-2.1zm-2.1-.8v-2.1h2.1v2.1zm2.1 3.5v2.1h-2.1v-2.1z"/><path d="m662.2 239.5h9.6v.9h-9.6z"/><path d="m662.2 253.4h9.6v-12.5h-9.6zm6.5-10.1h2.1v2.1h-2.1zm0 2.7h2.1v2.1h-2.1zm0 2.8h2.1v2.1h-2.1zm-2.7-5.5h2.1v2.1h-2.1zm0 2.7h2.1v2.1h-2.1zm0 2.8h2.1v2.1h-2.1zm-2.8-5.5h2.1v2.1h-2.1zm0 2.7h2.1v2.1h-2.1zm0 2.8h2.1v2.1h-2.1z"/><path d="m698.2 242.8v-6.3l-6.6 2.3v14.5h6.6 4.1v-8.3zm-1 9.2h-4.6v-.7h4.6zm0-1.6h-4.6v-.7h4.6zm0-1.6h-4.6v-.7h4.6zm0-1.6h-4.6v-.7h4.6zm0-1.7h-4.6v-.7h4.6zm0-1.6h-4.6v-.7h4.6zm0-1.6h-4.6v-.7h4.6zm0-1.6h-4.6v-.7h4.6zm2.4 11.5h-1v-1h1zm0-1.7h-1v-1h1zm0-1.7h-1v-1h1zm0-1.7h-1v-1h1zm1.7 5.1h-1v-1h1zm0-1.7h-1v-1h1zm0-1.7h-1v-1h1zm0-1.7h-1v-1h1z"/><path d="m735.4 238.6-5.7 3.4.3.6 5.4-3.1 5.4 3.1.4-.6z"/><path d="m739.8 242.6-4.4-2.5-4.4 2.5v9.9h-1v.9h1 8.8 1v-.9h-1zm-4.7 3.7v2.1h-2.1v-2.1zm-2.1-.8v-2.1h2.1v2.1zm2.1 3.5v2.1h-2.1v-2.1zm2.8-2.7v2.1h-2.1v-2.1zm-2.1-.8v-2.1h2.1v2.1zm2.1 3.5v2.1h-2.1v-2.1z"/><path d="m716.4 239.5h9.6v.9h-9.6z"/><path d="m716.4 253.4h9.6v-12.5h-9.6zm6.5-10.1h2.1v2.1h-2.1zm0 2.7h2.1v2.1h-2.1zm0 2.8h2.1v2.1h-2.1zm-2.7-5.5h2.1v2.1h-2.1zm0 2.7h2.1v2.1h-2.1zm0 2.8h2.1v2.1h-2.1zm-2.8-5.5h2.1v2.1h-2.1zm0 2.7h2.1v2.1h-2.1zm0 2.8h2.1v2.1h-2.1z"/><path d="m761.5 240.5v12.9h2.7v-1.8h1.2v1.8h2.7v-12.9zm5.9 9.7h-5.2v-.6h5.2zm0-1.5h-5.2v-.6h5.2zm0-1.4h-5.2v-.6h5.2zm0-1.5h-5.2v-.6h5.2zm0-1.5h-5.2v-.6h5.2zm0-1.4h-5.2v-.6h5.2z"/><path d="m771.8 239.5h9.6v.9h-9.6z"/><path d="m771.8 253.4h9.6v-12.5h-9.6zm6.6-10.1h2.1v2.1h-2.1zm0 2.7h2.1v2.1h-2.1zm0 2.8h2.1v2.1h-2.1zm-2.8-5.5h2.1v2.1h-2.1zm0 2.7h2.1v2.1h-2.1zm0 2.8h2.1v2.1h-2.1zm-2.7-5.5h2.1v2.1h-2.1zm0 2.7h2.1v2.1h-2.1zm0 2.8h2.1v2.1h-2.1z"/><path d="m752.5 242.8v-6.3l-6.6 2.3v14.5h6.6 4.1v-8.3zm-1.1 9.2h-4.6v-.7h4.6zm0-1.6h-4.6v-.7h4.6zm0-1.6h-4.6v-.7h4.6zm0-1.6h-4.6v-.7h4.6zm0-1.7h-4.6v-.7h4.6zm0-1.6h-4.6v-.7h4.6zm0-1.6h-4.6v-.7h4.6zm0-1.6h-4.6v-.7h4.6zm2.4 11.5h-1v-1h1zm0-1.7h-1v-1h1zm0-1.7h-1v-1h1zm0-1.7h-1v-1h1zm1.8 5.1h-1v-1h1zm0-1.7h-1v-1h1zm0-1.7h-1v-1h1zm0-1.7h-1v-1h1z"/><path d="m164.6 179.2v12.9h2.7v-1.8h1.2v1.8h2.7v-12.9zm5.9 9.8h-5.2v-.6h5.2zm0-1.5h-5.2v-.6h5.2zm0-1.5h-5.2v-.6h5.2zm0-1.4h-5.2v-.6h5.2zm0-1.5h-5.2v-.6h5.2zm0-1.5h-5.2v-.6h5.2z"/><path d="m139.8 177.4-5.8 3.3.4.6 5.4-3.1 5.4 3.1.3-.6z"/><path d="m144.2 181.4-4.4-2.5-4.4 2.5v9.9h-1v.9h1 8.8 1v-.9h-1zm-4.8 3.6v2.1h-2.1v-2.1zm-2.1-.7v-2.1h2.1v2.1zm2.1 3.5v2.1h-2.1v-2.1zm2.8-2.8v2.1h-2.1v-2.1zm-2.1-.7v-2.1h2.1v2.1zm2.1 3.5v2.1h-2.1v-2.1z"/><path d="m120.8 178.3h9.6v.9h-9.6z"/><path d="m120.8 192.1h9.6v-12.5h-9.6zm6.5-10h2.1v2.1h-2.1zm0 2.7h2.1v2.1h-2.1zm0 2.7h2.1v2.1h-2.1zm-2.8-5.4h2.1v2.1h-2.1zm0 2.7h2.1v2.1h-2.1zm0 2.7h2.1v2.1h-2.1zm-2.7-5.4h2.1v2.1h-2.1zm0 2.7h2.1v2.1h-2.1zm0 2.7h2.1v2.1h-2.1z"/><path d="m156.8 181.5v-6.3l-6.6 2.3v14.5h6.6 4.1v-8.3zm-1 9.3h-4.6v-.7h4.6zm0-1.6h-4.6v-.7h4.6zm0-1.7h-4.6v-.7h4.6zm0-1.6h-4.6v-.7h4.6zm0-1.6h-4.6v-.7h4.6zm0-1.6h-4.6v-.7h4.6zm0-1.6h-4.6v-.7h4.6zm0-1.7h-4.6v-.7h4.6zm2.3 11.6h-1v-1h1zm0-1.7h-1v-1h1zm0-1.7h-1v-1h1zm0-1.7h-1v-1h1zm1.8 5.1h-1v-1h1zm0-1.7h-1v-1h1zm0-1.7h-1v-1h1zm0-1.7h-1v-1h1z"/><path d="m218.9 179.2v12.9h2.7v-1.8h1.2v1.8h2.7v-12.9zm5.8 9.8h-5.2v-.6h5.2zm0-1.5h-5.2v-.6h5.2zm0-1.5h-5.2v-.6h5.2zm0-1.4h-5.2v-.6h5.2zm0-1.5h-5.2v-.6h5.2zm0-1.5h-5.2v-.6h5.2z"/><path d="m194 177.4-5.7 3.3.3.6 5.4-3.1 5.4 3.1.4-.6z"/><path d="m198.4 181.4-4.4-2.5-4.4 2.5v9.9h-1v.9h1 8.8 1v-.9h-1zm-4.7 3.6v2.1h-2.1v-2.1zm-2.1-.7v-2.1h2.1v2.1zm2.1 3.5v2.1h-2.1v-2.1zm2.8-2.8v2.1h-2.1v-2.1zm-2.1-.7v-2.1h2.1v2.1zm2.1 3.5v2.1h-2.1v-2.1z"/><path d="m175 178.3h9.6v.9h-9.6z"/><path d="m175 192.1h9.6v-12.5h-9.6zm6.5-10h2.1v2.1h-2.1zm0 2.7h2.1v2.1h-2.1zm0 2.7h2.1v2.1h-2.1zm-2.7-5.4h2.1v2.1h-2.1zm0 2.7h2.1v2.1h-2.1zm0 2.7h2.1v2.1h-2.1zm-2.8-5.4h2.1v2.1h-2.1zm0 2.7h2.1v2.1h-2.1zm0 2.7h2.1v2.1h-2.1z"/><path d="m211.1 181.5v-6.3l-6.6 2.3v14.5h6.6 4.1v-8.3zm-1.1 9.3h-4.6v-.7h4.6zm0-1.6h-4.6v-.7h4.6zm0-1.7h-4.6v-.7h4.6zm0-1.6h-4.6v-.7h4.6zm0-1.6h-4.6v-.7h4.6zm0-1.6h-4.6v-.7h4.6zm0-1.6h-4.6v-.7h4.6zm0-1.7h-4.6v-.7h4.6zm2.4 11.6h-1v-1h1zm0-1.7h-1v-1h1zm0-1.7h-1v-1h1zm0-1.7h-1v-1h1zm1.8 5.1h-1v-1h1zm0-1.7h-1v-1h1zm0-1.7h-1v-1h1zm0-1.7h-1v-1h1z"/><path d="m273.1 179.2v12.9h2.7v-1.8h1.2v1.8h2.7v-12.9zm5.9 9.8h-5.2v-.6h5.2zm0-1.5h-5.2v-.6h5.2zm0-1.5h-5.2v-.6h5.2zm0-1.4h-5.2v-.6h5.2zm0-1.5h-5.2v-.6h5.2zm0-1.5h-5.2v-.6h5.2z"/><path d="m248.2 177.4-5.7 3.3.3.6 5.4-3.1 5.4 3.1.4-.6z"/><path d="m252.7 181.4-4.4-2.5-4.4 2.5v9.9h-1v.9h1 8.8 1v-.9h-1zm-4.8 3.6v2.1h-2.1v-2.1zm-2.1-.7v-2.1h2.1v2.1zm2.1 3.5v2.1h-2.1v-2.1zm2.8-2.8v2.1h-2.1v-2.1zm-2.1-.7v-2.1h2.1v2.1zm2.1 3.5v2.1h-2.1v-2.1z"/><path d="m229.2 178.3h9.6v.9h-9.6z"/><path d="m229.2 192.1h9.6v-12.5h-9.6zm6.5-10h2.1v2.1h-2.1zm0 2.7h2.1v2.1h-2.1zm0 2.7h2.1v2.1h-2.1zm-2.7-5.4h2.1v2.1h-2.1zm0 2.7h2.1v2.1h-2.1zm0 2.7h2.1v2.1h-2.1zm-2.7-5.4h2.1v2.1h-2.1zm0 2.7h2.1v2.1h-2.1zm0 2.7h2.1v2.1h-2.1z"/><path d="m265.3 181.5v-6.3l-6.6 2.3v14.5h6.6 4.1v-8.3zm-1.1 9.3h-4.6v-.7h4.6zm0-1.6h-4.6v-.7h4.6zm0-1.7h-4.6v-.7h4.6zm0-1.6h-4.6v-.7h4.6zm0-1.6h-4.6v-.7h4.6zm0-1.6h-4.6v-.7h4.6zm0-1.6h-4.6v-.7h4.6zm0-1.7h-4.6v-.7h4.6zm2.4 11.6h-1v-1h1zm0-1.7h-1v-1h1zm0-1.7h-1v-1h1zm0-1.7h-1v-1h1zm1.8 5.1h-1v-1h1zm0-1.7h-1v-1h1zm0-1.7h-1v-1h1zm0-1.7h-1v-1h1z"/><path d="m327.3 179.2v12.9h2.7v-1.8h1.2v1.8h2.7v-12.9zm5.9 9.8h-5.2v-.6h5.2zm0-1.5h-5.2v-.6h5.2zm0-1.5h-5.2v-.6h5.2zm0-1.4h-5.2v-.6h5.2zm0-1.5h-5.2v-.6h5.2zm0-1.5h-5.2v-.6h5.2z"/><path d="m302.5 177.4-5.8 3.3.4.6 5.4-3.1 5.4 3.1.3-.6z"/><path d="m306.9 181.4-4.4-2.5-4.4 2.5v9.9h-1v.9h1 8.8 1v-.9h-1zm-4.8 3.6v2.1h-2.1v-2.1zm-2.1-.7v-2.1h2.1v2.1zm2.1 3.5v2.1h-2.1v-2.1zm2.8-2.8v2.1h-2.1v-2.1zm-2.1-.7v-2.1h2.1v2.1zm2.1 3.5v2.1h-2.1v-2.1z"/><path d="m283.5 178.3h9.6v.9h-9.6z"/><path d="m283.5 192.1h9.6v-12.5h-9.6zm6.5-10h2.1v2.1h-2.1zm0 2.7h2.1v2.1h-2.1zm0 2.7h2.1v2.1h-2.1zm-2.7-5.4h2.1v2.1h-2.1zm0 2.7h2.1v2.1h-2.1zm0 2.7h2.1v2.1h-2.1zm-2.8-5.4h2.1v2.1h-2.1zm0 2.7h2.1v2.1h-2.1zm0 2.7h2.1v2.1h-2.1z"/><path d="m319.5 181.5v-6.3l-6.6 2.3v14.5h6.6 4.1v-8.3zm-1 9.3h-4.6v-.7h4.6zm0-1.6h-4.6v-.7h4.6zm0-1.7h-4.6v-.7h4.6zm0-1.6h-4.6v-.7h4.6zm0-1.6h-4.6v-.7h4.6zm0-1.6h-4.6v-.7h4.6zm0-1.6h-4.6v-.7h4.6zm0-1.7h-4.6v-.7h4.6zm2.3 11.6h-1v-1h1zm0-1.7h-1v-1h1zm0-1.7h-1v-1h1zm0-1.7h-1v-1h1zm1.8 5.1h-1v-1h1zm0-1.7h-1v-1h1zm0-1.7h-1v-1h1zm0-1.7h-1v-1h1z"/><path d="m381.6 179.2v12.9h2.7v-1.8h1.2v1.8h2.7v-12.9zm5.8 9.8h-5.2v-.6h5.2zm0-1.5h-5.2v-.6h5.2zm0-1.5h-5.2v-.6h5.2zm0-1.4h-5.2v-.6h5.2zm0-1.5h-5.2v-.6h5.2zm0-1.5h-5.2v-.6h5.2z"/><path d="m356.7 177.4-5.7 3.3.3.6 5.4-3.1 5.4 3.1.4-.6z"/><path d="m361.1 181.4-4.4-2.5-4.4 2.5v9.9h-1v.9h1 8.8 1v-.9h-1zm-4.7 3.6v2.1h-2.1v-2.1zm-2.1-.7v-2.1h2.1v2.1zm2.1 3.5v2.1h-2.1v-2.1zm2.8-2.8v2.1h-2.1v-2.1zm-2.1-.7v-2.1h2.1v2.1zm2.1 3.5v2.1h-2.1v-2.1z"/><path d="m337.7 178.3h9.6v.9h-9.6z"/><path d="m337.7 192.1h9.6v-12.5h-9.6zm6.5-10h2.1v2.1h-2.1zm0 2.7h2.1v2.1h-2.1zm0 2.7h2.1v2.1h-2.1zm-2.7-5.4h2.1v2.1h-2.1zm0 2.7h2.1v2.1h-2.1zm0 2.7h2.1v2.1h-2.1zm-2.8-5.4h2.1v2.1h-2.1zm0 2.7h2.1v2.1h-2.1zm0 2.7h2.1v2.1h-2.1z"/><path d="m373.8 181.5v-6.3l-6.6 2.3v14.5h6.6 4.1v-8.3zm-1.1 9.3h-4.6v-.7h4.6zm0-1.6h-4.6v-.7h4.6zm0-1.7h-4.6v-.7h4.6zm0-1.6h-4.6v-.7h4.6zm0-1.6h-4.6v-.7h4.6zm0-1.6h-4.6v-.7h4.6zm0-1.6h-4.6v-.7h4.6zm0-1.7h-4.6v-.7h4.6zm2.4 11.6h-1v-1h1zm0-1.7h-1v-1h1zm0-1.7h-1v-1h1zm0-1.7h-1v-1h1zm1.8 5.1h-1v-1h1zm0-1.7h-1v-1h1zm0-1.7h-1v-1h1zm0-1.7h-1v-1h1z"/><path d="m435.8 179.2v12.9h2.7v-1.8h1.2v1.8h2.7v-12.9zm5.9 9.8h-5.2v-.6h5.2zm0-1.5h-5.2v-.6h5.2zm0-1.5h-5.2v-.6h5.2zm0-1.4h-5.2v-.6h5.2zm0-1.5h-5.2v-.6h5.2zm0-1.5h-5.2v-.6h5.2z"/><path d="m410.9 177.4-5.7 3.3.4.6 5.3-3.1 5.4 3.1.4-.6z"/><path d="m415.4 181.4-4.4-2.5-4.4 2.5v9.9h-1v.9h1 8.8 1v-.9h-1zm-4.8 3.6v2.1h-2.1v-2.1zm-2.1-.7v-2.1h2.1v2.1zm2.1 3.5v2.1h-2.1v-2.1zm2.8-2.8v2.1h-2.1v-2.1zm-2.1-.7v-2.1h2.1v2.1zm2.1 3.5v2.1h-2.1v-2.1z"/><path d="m391.9 178.3h9.6v.9h-9.6z"/><path d="m391.9 192.1h9.6v-12.5h-9.6zm6.6-10h2.1v2.1h-2.1zm0 2.7h2.1v2.1h-2.1zm0 2.7h2.1v2.1h-2.1zm-2.8-5.4h2.1v2.1h-2.1zm0 2.7h2.1v2.1h-2.1zm0 2.7h2.1v2.1h-2.1zm-2.7-5.4h2.1v2.1h-2.1zm0 2.7h2.1v2.1h-2.1zm0 2.7h2.1v2.1h-2.1z"/><path d="m428 181.5v-6.3l-6.6 2.3v14.5h6.6 4.1v-8.3zm-1 9.3h-4.6v-.7h4.6zm0-1.6h-4.6v-.7h4.6zm0-1.7h-4.6v-.7h4.6zm0-1.6h-4.6v-.7h4.6zm0-1.6h-4.6v-.7h4.6zm0-1.6h-4.6v-.7h4.6zm0-1.6h-4.6v-.7h4.6zm0-1.7h-4.6v-.7h4.6zm2.3 11.6h-1v-1h1zm0-1.7h-1v-1h1zm0-1.7h-1v-1h1zm0-1.7h-1v-1h1zm1.8 5.1h-1v-1h1zm0-1.7h-1v-1h1zm0-1.7h-1v-1h1zm0-1.7h-1v-1h1z"/><path d="m490 179.2v12.9h2.7v-1.8h1.2v1.8h2.7v-12.9zm5.9 9.8h-5.2v-.6h5.2zm0-1.5h-5.2v-.6h5.2zm0-1.5h-5.2v-.6h5.2zm0-1.4h-5.2v-.6h5.2zm0-1.5h-5.2v-.6h5.2zm0-1.5h-5.2v-.6h5.2z"/><path d="m465.2 177.4-5.8 3.3.4.6 5.4-3.1 5.4 3.1.3-.6z"/><path d="m469.6 181.4-4.4-2.5-4.4 2.5v9.9h-1v.9h1 8.8 1v-.9h-1zm-4.8 3.6v2.1h-2.1v-2.1zm-2-.7v-2.1h2.1v2.1zm2 3.5v2.1h-2.1v-2.1zm2.8-2.8v2.1h-2.1v-2.1zm-2-.7v-2.1h2.1v2.1zm2 3.5v2.1h-2.1v-2.1z"/><path d="m446.2 178.3h9.6v.9h-9.6z"/><path d="m446.2 192.1h9.6v-12.5h-9.6zm6.5-10h2.1v2.1h-2.1zm0 2.7h2.1v2.1h-2.1zm0 2.7h2.1v2.1h-2.1zm-2.7-5.4h2.1v2.1h-2.1zm0 2.7h2.1v2.1h-2.1zm0 2.7h2.1v2.1h-2.1zm-2.8-5.4h2.1v2.1h-2.1zm0 2.7h2.1v2.1h-2.1zm0 2.7h2.1v2.1h-2.1z"/><path d="m482.2 181.5v-6.3l-6.6 2.3v14.5h6.6 4.1v-8.3zm-1 9.3h-4.6v-.7h4.6zm0-1.6h-4.6v-.7h4.6zm0-1.7h-4.6v-.7h4.6zm0-1.6h-4.6v-.7h4.6zm0-1.6h-4.6v-.7h4.6zm0-1.6h-4.6v-.7h4.6zm0-1.6h-4.6v-.7h4.6zm0-1.7h-4.6v-.7h4.6zm2.4 11.6h-1v-1h1zm0-1.7h-1v-1h1zm0-1.7h-1v-1h1zm0-1.7h-1v-1h1zm1.7 5.1h-1v-1h1zm0-1.7h-1v-1h1zm0-1.7h-1v-1h1zm0-1.7h-1v-1h1z"/><path d="m519.4 177.4-5.7 3.3.3.6 5.4-3.1 5.4 3.1.4-.6z"/><path d="m523.8 181.4-4.4-2.5-4.4 2.5v9.9h-1v.9h1 8.8 1v-.9h-1zm-4.7 3.6v2.1h-2.1v-2.1zm-2.1-.7v-2.1h2.1v2.1zm2.1 3.5v2.1h-2.1v-2.1zm2.8-2.8v2.1h-2.1v-2.1zm-2.1-.7v-2.1h2.1v2.1zm2.1 3.5v2.1h-2.1v-2.1z"/><path d="m500.4 178.3h9.6v.9h-9.6z"/><path d="m500.4 192.1h9.6v-12.5h-9.6zm6.5-10h2.1v2.1h-2.1zm0 2.7h2.1v2.1h-2.1zm0 2.7h2.1v2.1h-2.1zm-2.7-5.4h2.1v2.1h-2.1zm0 2.7h2.1v2.1h-2.1zm0 2.7h2.1v2.1h-2.1zm-2.8-5.4h2.1v2.1h-2.1zm0 2.7h2.1v2.1h-2.1zm0 2.7h2.1v2.1h-2.1z"/><path d="m543.7 179.2v12.9h2.7v-1.8h1.2v1.8h2.7v-12.9zm5.9 9.8h-5.2v-.6h5.2zm0-1.5h-5.2v-.6h5.2zm0-1.5h-5.2v-.6h5.2zm0-1.4h-5.2v-.6h5.2zm0-1.5h-5.2v-.6h5.2zm0-1.5h-5.2v-.6h5.2z"/><path d="m535.9 181.5v-6.3l-6.6 2.3v14.5h6.6 4.1v-8.3zm-1 9.3h-4.6v-.7h4.6zm0-1.6h-4.6v-.7h4.6zm0-1.7h-4.6v-.7h4.6zm0-1.6h-4.6v-.7h4.6zm0-1.6h-4.6v-.7h4.6zm0-1.6h-4.6v-.7h4.6zm0-1.6h-4.6v-.7h4.6zm0-1.7h-4.6v-.7h4.6zm2.3 11.6h-1v-1h1zm0-1.7h-1v-1h1zm0-1.7h-1v-1h1zm0-1.7h-1v-1h1zm1.8 5.1h-1v-1h1zm0-1.7h-1v-1h1zm0-1.7h-1v-1h1zm0-1.7h-1v-1h1z"/><path d="m554.1 178.3h9.6v.9h-9.6z"/><path d="m554.1 192.1h9.6v-12.5h-9.6zm6.5-10h2.1v2.1h-2.1zm0 2.7h2.1v2.1h-2.1zm0 2.7h2.1v2.1h-2.1zm-2.7-5.4h2.1v2.1h-2.1zm0 2.7h2.1v2.1h-2.1zm0 2.7h2.1v2.1h-2.1zm-2.8-5.4h2.1v2.1h-2.1zm0 2.7h2.1v2.1h-2.1zm0 2.7h2.1v2.1h-2.1z"/></g></svg>