<?xml version="1.0" encoding="utf-8"?>
<!-- Generator: Adobe Illustrator 23.0.1, SVG Export Plug-In . SVG Version: 6.00 Build 0)  -->
<svg version="1.1" id="Capa_1" xmlns="http://www.w3.org/2000/svg" xmlns:xlink="http://www.w3.org/1999/xlink" x="0px" y="0px"
	 viewBox="0 0 633 370" style="enable-background:new 0 0 633 370;" xml:space="preserve">
<style type="text/css">
	.st0{fill:#263238;}
	.st1{fill:#171E21;}
	.st2{fill:#604D3F;}
	.st3{fill:#42342A;}
	.st4{fill:#D35400;}
	.st5{opacity:0.5;fill:#2ECC71;enable-background:new    ;}
	.st6{opacity:0.35;fill:#2ECC71;enable-background:new    ;}
	.st7{fill:#2ECC71;}
	.st8{fill:#AD0800;}
	.st9{opacity:0.7;}
	.st10{fill:#433029;}
	.st11{fill:#281C18;}
	.st12{fill:#B24D59;}
	.st13{fill:#E56575;}
	.st14{fill:#6D9B97;}
	.st15{fill:#4F6D6B;}
	.st16{fill:#8FC6C3;}
	.st17{fill:#719B99;}
	.st18{opacity:0.2;fill:#181C16;enable-background:new    ;}
	.st19{fill:#E8DB64;}
	.st20{fill:#E0D0C1;}
	.st21{fill:#2C3E50;}
	.st22{fill:#DDD1B6;}
	.st23{fill:#30221D;}
	.st24{fill:#770BAA;}
	.st25{opacity:0.79;fill:#770BAA;enable-background:new    ;}
	.st26{fill:#F9EED2;}
	.st27{fill:none;}
	.st28{opacity:0.9;}
	.st29{opacity:0.4;fill:#1D1D1B;enable-background:new    ;}
	.st30{fill:#F1C40F;}
	.st31{fill:#47382E;}
	.st32{fill:#BCAC9C;}
	.st33{fill:#6D533E;}
	.st34{fill:#D4C4B2;}
	.st35{fill:#876D54;}
	.st36{fill:#00FF00;}
	.st37{fill:none;stroke:#263238;stroke-width:2;stroke-miterlimit:10;}
	.st38{fill:#FFFFFF;}
	.st39{fill:#F2F2F2;}
	.st40{fill:#BDC3C7;}
	.st41{fill:#455A64;}
	.st42{opacity:0.5;}
	.st43{opacity:0.4;}
	.st44{fill:#B78876;}
	.st45{fill:#A36957;}
	.st46{fill:url(#SVGID_1_);}
	.st47{opacity:0.8;fill:#2C3E50;enable-background:new    ;}
	.st48{fill:#9B8B80;}
	.st49{fill:#BCA99C;}
	.st50{fill:#D6C3B4;}
	.st51{fill:#EFDED0;}
	.st52{fill:#096496;}
	.st53{opacity:0.75;}
	.st54{opacity:0.6;}
	.st55{opacity:0.4;fill:#040A0C;enable-background:new    ;}
	.st56{fill:url(#SVGID_2_);}
	.st57{fill:url(#SVGID_3_);}
	.st58{opacity:0.4;fill:#131323;enable-background:new    ;}
</style>
<rect x="0" y="36.1" class="st39" width="631" height="30"/>
<rect x="0" y="96" class="st39" width="631" height="30"/>
<rect x="0" y="220.2" class="st39" width="631" height="30"/>
<path class="st39" d="M122,263h509v-30H110v18C110,257.6,115.4,263,122,263z"/>
<path class="st39" d="M122,341h509v-30H110v18C110,335.6,115.4,341,122,341z"/>
<rect x="0.5" y="294.5" class="st39" width="631" height="30"/>
<rect x="0" y="158" class="st39" width="631" height="30"/>
<path class="st8" d="M0.1,66.1h110V49.5c0-7.4-6-13.4-13.4-13.4H0.1V66.1z"/>
<path class="st8" d="M0.1,126.6h110V110c0-7.4-6-13.4-13.4-13.4H0.1V126.6z"/>
<path class="st8" d="M0.1,188h110v-16.6c0-7.4-6-13.4-13.4-13.4H0.1V188z"/>
<path class="st8" d="M0.1,250.2h110v-16.6c0-7.4-6-13.4-13.4-13.4H0.1V250.2z"/>
<path class="st8" d="M0.6,325.1h110v-16.6c0-7.4-6-13.4-13.4-13.4H0.6V325.1z"/>
<g>
	<path class="st8" d="M601.1,51.5l1.2-9.8h11.1v3.5h-7.6l-0.4,3.8c0.3-0.2,0.7-0.4,1.2-0.5c0.5-0.1,1-0.2,1.5-0.2
		c1.9,0,3.3,0.5,4.4,1.7c1,1.2,1.5,2.7,1.5,4.7c0,1.2-0.3,2.4-0.8,3.3c-0.5,1-1.3,1.8-2.3,2.3s-2.2,0.8-3.5,0.8
		c-1.2,0-2.3-0.2-3.4-0.7c-1-0.5-1.9-1.2-2.5-2.1c-0.6-0.8-0.9-1.8-0.9-2.9h4.4c0.1,0.7,0.2,1.3,0.7,1.6c0.4,0.4,0.9,0.6,1.6,0.6
		c1.5,0,2.2-1.1,2.2-3.3c0-2.1-0.9-3-2.7-3c-1,0-1.8,0.3-2.3,1L601.1,51.5z"/>
</g>
<g>
	<path class="st38" d="M21,55.6h-4.6l-0.8,2.6H12l5.1-14h3.2l5.2,14h-3.7L21,55.6z M17.2,53h3l-1.5-4.9L17.2,53z"/>
	<path class="st38" d="M28.8,47.8l0.1,1.2c0.7-1,1.7-1.4,3-1.4c1.1,0,1.9,0.3,2.4,1s0.8,1.6,0.8,3v6.7H32v-6.5
		c0-0.6-0.1-0.9-0.3-1.2c-0.2-0.2-0.6-0.4-1.1-0.4c-0.6,0-1.1,0.2-1.4,0.7v7.3h-3.3V47.6h3V47.8z M34.2,43.5c0,0.7-0.2,1.4-0.6,1.8
		c-0.4,0.5-1,0.8-1.6,0.8c-0.4,0-0.9-0.2-1.4-0.4c-0.6-0.2-1-0.4-1.3-0.4c-0.2,0-0.4,0.1-0.6,0.2c-0.2,0.2-0.2,0.4-0.2,0.6l-1.8-0.1
		c0-0.7,0.2-1.4,0.6-1.8c0.4-0.6,1-0.8,1.6-0.8c0.3,0,0.7,0.1,1.3,0.3c0.6,0.2,0.9,0.4,1,0.4c0.2,0,0.3,0.1,0.4,0.1
		c0.2,0,0.4-0.1,0.6-0.2c0.2-0.2,0.2-0.4,0.2-0.6L34.2,43.5z"/>
	<path class="st38" d="M36.6,52.9c0-1,0.2-2,0.6-2.8c0.4-0.8,1-1.4,1.8-1.8c0.7-0.4,1.7-0.6,2.6-0.6c1.6,0,2.8,0.5,3.7,1.4
		s1.4,2.3,1.4,3.9V53c0,1.6-0.5,3-1.4,3.8c-0.9,1-2.2,1.4-3.7,1.4S38.9,57.8,38,57c-0.9-0.9-1.4-2.1-1.4-3.6V52.9z M39.9,53.1
		c0,1,0.2,1.7,0.5,2.2c0.3,0.5,0.7,0.6,1.4,0.6c1.1,0,1.8-0.9,1.8-2.6V53c0-1.8-0.6-2.8-1.8-2.8c-1.1,0-1.7,0.8-1.8,2.4L39.9,53.1z"
		/>
	<path class="st38" d="M62.8,58.2h-9.8v-2.2l4.5-4.7c1.1-1.3,1.7-2.2,1.7-3c0-0.6-0.2-1-0.4-1.4c-0.2-0.3-0.6-0.5-1.1-0.5
		c-0.5,0-0.9,0.2-1.2,0.6c-0.3,0.4-0.5,1-0.5,1.6h-3.3c0-0.9,0.2-1.7,0.6-2.4c0.4-0.7,1-1.3,1.8-1.7c0.8-0.4,1.6-0.6,2.6-0.6
		c1.5,0,2.7,0.3,3.5,1c0.8,0.7,1.2,1.7,1.2,3c0,0.6-0.1,1.1-0.3,1.6c-0.2,0.6-0.6,1-1,1.7C60.7,52,60,52.7,59,53.7l-1.8,2.1h5.5
		L62.8,58.2L62.8,58.2z"/>
	<path class="st38" d="M74.1,52.5c0,1.9-0.4,3.4-1.3,4.4c-0.9,1-2.1,1.5-3.6,1.5c-1.6,0-2.8-0.5-3.6-1.5c-0.9-1-1.3-2.5-1.3-4.4
		v-2.6c0-1.9,0.4-3.4,1.3-4.4c0.9-1,2.1-1.5,3.6-1.5s2.8,0.5,3.6,1.5c0.8,1,1.3,2.5,1.3,4.4V52.5z M70.8,49.5c0-1-0.2-1.8-0.4-2.2
		c-0.2-0.5-0.7-0.7-1.3-0.7c-0.6,0-1,0.2-1.2,0.7c-0.2,0.5-0.4,1.2-0.4,2.1v3.6c0,1,0.2,1.8,0.4,2.3c0.2,0.5,0.7,0.7,1.3,0.7
		c0.6,0,1-0.2,1.2-0.7c0.2-0.5,0.4-1.2,0.4-2.2V49.5z"/>
	<path class="st38" d="M83,58.2h-3.3V47.9l-3.2,1v-2.5l6.1-2.2H83L83,58.2L83,58.2z"/>
	<path class="st38" d="M97,45.9l-5.3,12.3h-3.4l5.3-11.5h-6.7v-2.5H97V45.9z"/>
</g>
<g>
	<path class="st8" d="M609.5,113.1c-1,0.8-2,1.3-3.2,1.3c-1.8,0-3.1-0.6-4.1-1.8c-1-1.2-1.5-2.7-1.5-4.7c0-1.2,0.3-2.4,0.8-3.4
		c0.5-1,1.4-1.9,2.4-2.5c1-0.6,2.2-0.9,3.4-0.9c1.3,0,2.4,0.3,3.4,1c1,0.7,1.8,1.5,2.4,2.7c0.5,1.2,0.8,2.5,0.9,4v1.7
		c0,2.1-0.4,3.9-1.2,5.5c-0.8,1.6-2,2.7-3.5,3.6c-1.5,0.8-3.3,1.3-5.3,1.3h-0.3v-3.6h0.8C607.5,117.1,609.2,115.7,609.5,113.1z
		 M607.5,111.2c1,0,1.6-0.4,2.1-1.3v-1.8c0-1.2-0.2-2.1-0.6-2.7c-0.4-0.6-1-0.9-1.7-0.9c-0.6,0-1.2,0.3-1.6,1s-0.6,1.5-0.6,2.4
		s0.2,1.8,0.7,2.4C606.2,110.9,606.8,111.2,607.5,111.2z"/>
</g>
<g>
	<path class="st38" d="M21,115.9h-4.6l-0.8,2.6H12l5.1-14h3.2l5.2,14h-3.7L21,115.9z M17.2,113.3h3l-1.5-4.9L17.2,113.3z"/>
	<path class="st38" d="M28.8,108.1l0.1,1.2c0.7-1,1.7-1.4,3-1.4c1.1,0,1.9,0.3,2.4,1c0.5,0.6,0.8,1.6,0.8,3v6.7h-3.3v-6.5
		c0-0.6-0.1-0.9-0.3-1.2c-0.2-0.2-0.6-0.4-1.1-0.4c-0.6,0-1.1,0.2-1.4,0.7v7.3h-3.3v-10.5h3.2V108.1z M34.3,103.8
		c0,0.7-0.2,1.4-0.6,1.8c-0.4,0.5-1,0.8-1.6,0.8c-0.4,0-0.9-0.2-1.4-0.4c-0.6-0.2-1-0.4-1.3-0.4c-0.2,0-0.4,0.1-0.6,0.2
		c-0.2,0.2-0.2,0.4-0.2,0.6l-1.8-0.1c0-0.7,0.2-1.4,0.6-1.8c0.4-0.6,1-0.8,1.6-0.8c0.3,0,0.7,0.1,1.3,0.3c0.6,0.2,0.9,0.4,1,0.4
		c0.2,0,0.3,0.1,0.4,0.1c0.2,0,0.4-0.1,0.6-0.2c0.2-0.2,0.2-0.4,0.2-0.6L34.3,103.8z"/>
	<path class="st38" d="M36.6,113.2c0-1,0.2-2,0.6-2.8c0.4-0.8,1-1.4,1.8-1.8c0.7-0.4,1.7-0.6,2.6-0.6c1.6,0,2.8,0.5,3.7,1.4
		c0.9,1,1.4,2.3,1.4,3.9v0.1c0,1.6-0.5,3-1.4,3.8c-0.9,1-2.2,1.4-3.7,1.4s-2.7-0.5-3.6-1.4c-0.9-0.9-1.4-2.1-1.4-3.6V113.2z
		 M39.9,113.4c0,1,0.2,1.7,0.5,2.2c0.3,0.5,0.7,0.6,1.4,0.6c1.1,0,1.8-0.9,1.8-2.6v-0.3c0-1.8-0.6-2.8-1.8-2.8
		c-1.1,0-1.7,0.8-1.8,2.4L39.9,113.4z"/>
	<path class="st38" d="M62.8,118.5h-9.8v-2.2l4.5-4.7c1.1-1.3,1.7-2.2,1.7-3c0-0.6-0.2-1-0.4-1.4s-0.6-0.5-1.1-0.5s-0.9,0.2-1.2,0.6
		s-0.5,1-0.5,1.6h-3.3c0-0.9,0.2-1.7,0.6-2.4c0.4-0.7,1-1.3,1.8-1.7c0.7-0.4,1.6-0.6,2.6-0.6c1.5,0,2.7,0.3,3.5,1
		c0.8,0.7,1.2,1.7,1.2,3c0,0.6-0.1,1.1-0.3,1.6c-0.2,0.6-0.6,1-1,1.7c-0.4,0.6-1.1,1.4-2.1,2.3l-1.8,2.1h5.5L62.8,118.5L62.8,118.5z
		"/>
	<path class="st38" d="M74.1,112.8c0,1.9-0.4,3.4-1.3,4.4c-0.9,1-2.1,1.5-3.6,1.5c-1.6,0-2.8-0.5-3.6-1.5c-0.9-1-1.3-2.5-1.3-4.4
		v-2.6c0-1.9,0.4-3.4,1.3-4.4c0.9-1,2.1-1.5,3.6-1.5s2.8,0.5,3.6,1.5c0.9,1,1.3,2.5,1.3,4.4V112.8z M70.9,109.7c0-1-0.2-1.8-0.4-2.2
		c-0.2-0.5-0.7-0.7-1.3-0.7s-1,0.2-1.2,0.7c-0.2,0.5-0.4,1.2-0.4,2.1v3.6c0,1,0.2,1.8,0.4,2.3c0.2,0.5,0.7,0.7,1.3,0.7
		s1-0.2,1.2-0.7c0.2-0.5,0.4-1.2,0.4-2.2V109.7z"/>
	<path class="st38" d="M83,118.5h-3.3v-10.4l-3.2,1v-2.5l6.1-2.2H83V118.5z"/>
	<path class="st38" d="M96.7,108.2c0,0.7-0.2,1.3-0.5,1.8c-0.3,0.6-0.8,1-1.4,1.3c0.6,0.3,1.2,0.8,1.6,1.4s0.6,1.3,0.6,2
		c0,1.3-0.4,2.2-1.3,3c-0.9,0.7-2.1,1.1-3.6,1.1s-2.7-0.4-3.6-1.1c-0.9-0.7-1.4-1.8-1.4-3c0-0.7,0.2-1.4,0.6-2s1-1,1.7-1.4
		c-0.6-0.3-1-0.7-1.4-1.3c-0.3-0.6-0.5-1.1-0.5-1.8c0-1.2,0.4-2.2,1.3-2.9c0.8-0.7,1.9-1,3.4-1c1.4,0,2.6,0.3,3.4,1
		C96.3,106,96.7,107,96.7,108.2z M93.7,114.4c0-0.6-0.2-1-0.5-1.4s-0.7-0.5-1.2-0.5c-0.5,0-0.9,0.2-1.2,0.5
		c-0.3,0.3-0.5,0.7-0.5,1.4c0,0.6,0.2,1,0.5,1.4c0.3,0.3,0.7,0.5,1.2,0.5c0.5,0,0.9-0.2,1.2-0.5C93.6,115.4,93.7,114.9,93.7,114.4z
		 M92.1,106.8c-0.4,0-0.8,0.2-1,0.4c-0.2,0.3-0.3,0.7-0.3,1.2c0,0.5,0.1,0.9,0.3,1.2s0.6,0.5,1,0.5c0.5,0,0.8-0.2,1-0.5
		c0.2-0.3,0.3-0.7,0.3-1.2c0-0.5-0.1-0.9-0.3-1.2C92.8,106.9,92.5,106.8,92.1,106.8z"/>
</g>
<g>
	<path class="st8" d="M589.2,172.9h2.1c1.6,0,2.5-0.8,2.5-2.4c0-0.6-0.2-1.2-0.6-1.5c-0.4-0.4-1-0.6-1.7-0.6c-0.6,0-1.1,0.2-1.5,0.5
		c-0.4,0.4-0.7,0.8-0.7,1.3h-4.4c0-1,0.3-1.9,0.8-2.7c0.5-0.8,1.3-1.4,2.3-1.8c1-0.4,2.1-0.7,3.3-0.7c2.1,0,3.8,0.5,5,1.5
		c1.2,1,1.8,2.3,1.8,4c0,0.8-0.2,1.6-0.7,2.3s-1.2,1.3-2.2,1.8c1,0.4,1.8,0.9,2.4,1.7c0.6,0.7,0.8,1.7,0.8,2.8c0,1.7-0.7,3.1-2,4.1
		c-1.3,1-3,1.5-5.2,1.5c-1.3,0-2.4-0.2-3.5-0.7c-1.1-0.5-1.9-1.2-2.4-2c-0.5-0.8-0.8-1.8-0.8-2.9h4.4c0,0.6,0.2,1.1,0.7,1.5
		s1,0.7,1.8,0.7c0.8,0,1.4-0.2,1.9-0.7c0.5-0.4,0.7-1,0.7-1.6c0-1-0.2-1.6-0.7-2.1c-0.5-0.4-1.2-0.6-2-0.6H589v-3.3H589.2z"/>
	<path class="st8" d="M604.8,172.9h2.1c1.6,0,2.5-0.8,2.5-2.4c0-0.6-0.2-1.2-0.6-1.5c-0.4-0.4-1-0.6-1.7-0.6c-0.6,0-1.1,0.2-1.5,0.5
		c-0.4,0.4-0.7,0.8-0.7,1.3h-4.4c0-1,0.3-1.9,0.8-2.7c0.5-0.8,1.3-1.4,2.3-1.8c1-0.4,2.1-0.7,3.3-0.7c2.1,0,3.8,0.5,5,1.5
		c1.2,1,1.8,2.3,1.8,4c0,0.8-0.2,1.6-0.7,2.3c-0.5,0.7-1.2,1.3-2.2,1.8c1,0.4,1.8,0.9,2.4,1.7c0.6,0.7,0.8,1.7,0.8,2.8
		c0,1.7-0.7,3.1-2,4.1c-1.3,1-3,1.5-5.2,1.5c-1.3,0-2.4-0.2-3.5-0.7c-1.1-0.5-1.9-1.2-2.4-2c-0.5-0.8-0.8-1.8-0.8-2.9h4.4
		c0,0.6,0.2,1.1,0.7,1.5s1,0.7,1.8,0.7c0.8,0,1.4-0.2,1.9-0.7c0.5-0.4,0.7-1,0.7-1.6c0-1-0.2-1.6-0.7-2.1c-0.5-0.4-1.2-0.6-2-0.6h-2
		V172.9z"/>
</g>
<g>
	<path class="st38" d="M21.1,178.3h-4.6l-0.8,2.6H12l5.1-14h3.2l5.2,14h-3.7L21.1,178.3z M17.3,175.7h3l-1.5-4.9L17.3,175.7z"/>
	<path class="st38" d="M28.9,170.5l0.1,1.2c0.7-1,1.7-1.4,3-1.4c1.1,0,1.9,0.3,2.4,1s0.8,1.6,0.8,3v6.7h-3.3v-6.5
		c0-0.6-0.1-0.9-0.3-1.2c-0.2-0.2-0.6-0.4-1.1-0.4c-0.6,0-1.1,0.2-1.4,0.7v7.3h-3.3v-10.5h3.2V170.5z M34.3,166.2
		c0,0.7-0.2,1.4-0.6,1.8c-0.4,0.5-1,0.8-1.6,0.8c-0.4,0-0.9-0.2-1.4-0.4s-1-0.4-1.3-0.4c-0.2,0-0.4,0.1-0.6,0.2
		c-0.2,0.2-0.2,0.4-0.2,0.6l-1.8-0.1c0-0.7,0.2-1.4,0.6-1.8c0.4-0.6,1-0.8,1.6-0.8c0.3,0,0.7,0.1,1.3,0.3c0.6,0.2,0.9,0.4,1,0.4
		c0.2,0,0.3,0.1,0.4,0.1c0.2,0,0.4-0.1,0.6-0.2c0.2-0.2,0.2-0.4,0.2-0.6L34.3,166.2z"/>
	<path class="st38" d="M36.7,175.6c0-1,0.2-2,0.6-2.8c0.4-0.8,1-1.4,1.8-1.8s1.7-0.6,2.6-0.6c1.6,0,2.8,0.5,3.7,1.4
		c0.9,1,1.4,2.3,1.4,3.9v0.1c0,1.6-0.5,3-1.4,3.8c-0.9,1-2.2,1.4-3.7,1.4c-1.5,0-2.7-0.5-3.6-1.4c-0.9-0.9-1.4-2.1-1.4-3.6V175.6z
		 M39.9,175.8c0,1,0.2,1.7,0.5,2.2c0.3,0.5,0.7,0.6,1.4,0.6c1.1,0,1.8-0.9,1.8-2.6v-0.3c0-1.8-0.6-2.8-1.8-2.8
		c-1.1,0-1.7,0.8-1.8,2.4L39.9,175.8z"/>
	<path class="st38" d="M62.8,180.9H53v-2.2l4.5-4.7c1.1-1.3,1.7-2.2,1.7-3c0-0.6-0.2-1-0.4-1.4c-0.2-0.3-0.6-0.5-1.1-0.5
		c-0.5,0-0.9,0.2-1.2,0.6c-0.3,0.4-0.5,1-0.5,1.6h-3.4c0-0.9,0.2-1.7,0.6-2.4c0.4-0.7,1-1.3,1.8-1.7c0.8-0.4,1.6-0.6,2.6-0.6
		c1.5,0,2.7,0.3,3.5,1c0.8,0.7,1.2,1.7,1.2,3c0,0.6-0.1,1.1-0.3,1.6c-0.2,0.6-0.6,1-1,1.7c-0.4,0.6-1.1,1.4-2.1,2.3l-1.8,2.1h5.5
		v2.5H62.8z"/>
	<path class="st38" d="M74.2,175.2c0,1.9-0.4,3.4-1.3,4.4c-0.9,1-2.1,1.5-3.6,1.5c-1.6,0-2.8-0.5-3.6-1.5c-0.9-1-1.3-2.5-1.3-4.4
		v-2.6c0-1.9,0.4-3.4,1.3-4.4c0.9-1,2.1-1.5,3.6-1.5c1.5,0,2.8,0.5,3.6,1.5c0.9,1,1.3,2.5,1.3,4.4V175.2z M71,172.1
		c0-1-0.2-1.8-0.4-2.2c-0.2-0.5-0.7-0.7-1.3-0.7c-0.6,0-1,0.2-1.2,0.7c-0.2,0.5-0.4,1.2-0.4,2.1v3.6c0,1,0.2,1.8,0.4,2.3
		c0.2,0.5,0.7,0.7,1.3,0.7c0.6,0,1-0.2,1.2-0.7c0.2-0.5,0.4-1.2,0.4-2.2V172.1z"/>
	<path class="st38" d="M83.1,180.9h-3.3v-10.4l-3.2,1V169l6.1-2.2h0.3L83.1,180.9L83.1,180.9z"/>
	<path class="st38" d="M93.7,175.5c-0.7,0.6-1.5,1-2.3,1c-1.3,0-2.3-0.4-3-1.3c-0.7-0.9-1.1-2-1.1-3.4c0-0.9,0.2-1.8,0.6-2.5
		c0.4-0.8,1-1.4,1.8-1.8c0.7-0.5,1.6-0.6,2.5-0.6c1,0,1.8,0.2,2.5,0.7c0.7,0.5,1.4,1.1,1.8,2s0.6,1.8,0.6,3v1.3c0,1.5-0.3,2.9-0.9,4
		s-1.4,2-2.6,2.6c-1.1,0.6-2.5,0.9-3.9,0.9h-0.2v-2.6H90C92.2,178.4,93.5,177.3,93.7,175.5z M92.2,174.1c0.7,0,1.2-0.3,1.5-0.9v-1.4
		c0-0.9-0.2-1.6-0.5-2c-0.3-0.4-0.7-0.6-1.2-0.6c-0.5,0-0.9,0.2-1.1,0.7c-0.3,0.5-0.5,1.1-0.5,1.8c0,0.7,0.2,1.3,0.5,1.8
		C91.3,173.8,91.7,174.1,92.2,174.1z"/>
</g>
<g>
	<path class="st8" d="M596.9,244.2h1.9v3.4h-1.9v4.1h-4.4v-4.1H585l-0.2-2.7l7.6-12.3v-0.1h4.4L596.9,244.2L596.9,244.2z M589,244.2
		h3.5v-5.9l-0.3,0.4L589,244.2z"/>
	<path class="st8" d="M609.5,244.3c-1,0.8-2,1.3-3.2,1.3c-1.8,0-3.1-0.6-4.1-1.8c-1-1.2-1.5-2.7-1.5-4.7c0-1.2,0.3-2.4,0.8-3.4
		c0.5-1,1.4-1.9,2.4-2.5c1-0.6,2.2-0.9,3.4-0.9c1.3,0,2.4,0.3,3.4,1c1,0.7,1.8,1.5,2.4,2.7c0.5,1.2,0.8,2.5,0.9,4v1.7
		c0,2.1-0.4,3.9-1.2,5.5c-0.8,1.6-2,2.7-3.5,3.6c-1.5,0.8-3.3,1.3-5.3,1.3h-0.3v-3.6h0.8C607.5,248.3,609.2,246.9,609.5,244.3z
		 M607.5,242.4c1,0,1.6-0.4,2.1-1.3v-1.8c0-1.2-0.2-2.1-0.6-2.7s-1-0.9-1.7-0.9c-0.6,0-1.2,0.3-1.6,1c-0.4,0.7-0.6,1.5-0.6,2.4
		s0.2,1.8,0.7,2.4C606.1,242.1,606.7,242.4,607.5,242.4z"/>
</g>
<g>
	<path class="st38" d="M21,240.9h-4.6l-0.8,2.6H12l5.1-14h3.2l5.2,14h-3.7L21,240.9z M17.2,238.3h3l-1.5-4.9L17.2,238.3z"/>
	<path class="st38" d="M28.9,233.1l0.1,1.2c0.7-1,1.7-1.4,3-1.4c1.1,0,1.9,0.3,2.4,1c0.5,0.6,0.8,1.6,0.8,3v6.7h-3.3v-6.5
		c0-0.6-0.1-0.9-0.3-1.2c-0.2-0.2-0.6-0.4-1.1-0.4c-0.6,0-1.1,0.2-1.4,0.7v7.3h-3.3v-10.5h3.2V233.1z M34.3,228.8
		c0,0.7-0.2,1.4-0.6,1.8c-0.4,0.5-1,0.8-1.6,0.8c-0.4,0-0.9-0.2-1.4-0.4s-1-0.4-1.3-0.4c-0.2,0-0.4,0.1-0.6,0.2s-0.2,0.4-0.2,0.6
		l-1.8-0.1c0-0.7,0.2-1.4,0.6-1.8c0.4-0.6,1-0.8,1.6-0.8c0.3,0,0.7,0.1,1.3,0.3c0.6,0.2,0.9,0.4,1,0.4c0.2,0,0.3,0.1,0.4,0.1
		c0.2,0,0.4-0.1,0.6-0.2c0.2-0.2,0.2-0.4,0.2-0.6L34.3,228.8z"/>
	<path class="st38" d="M36.6,238.2c0-1,0.2-2,0.6-2.8c0.4-0.8,1-1.4,1.8-1.8c0.7-0.4,1.7-0.6,2.6-0.6c1.6,0,2.8,0.5,3.7,1.4
		c0.9,1,1.4,2.3,1.4,3.9v0.1c0,1.6-0.5,3-1.4,3.8c-0.9,1-2.2,1.4-3.7,1.4c-1.5,0-2.7-0.5-3.6-1.4c-0.9-0.9-1.4-2.1-1.4-3.6V238.2z
		 M39.9,238.4c0,1,0.2,1.7,0.5,2.2c0.3,0.5,0.7,0.6,1.4,0.6c1.1,0,1.8-0.9,1.8-2.6v-0.3c0-1.8-0.6-2.8-1.8-2.8
		c-1.1,0-1.7,0.8-1.8,2.4L39.9,238.4z"/>
	<path class="st38" d="M62.8,243.5h-9.8v-2.2l4.5-4.7c1.1-1.3,1.7-2.2,1.7-3c0-0.6-0.2-1-0.4-1.4c-0.2-0.3-0.6-0.5-1.1-0.5
		c-0.5,0-0.9,0.2-1.2,0.6c-0.3,0.4-0.5,1-0.5,1.6h-3.3c0-0.9,0.2-1.7,0.6-2.4c0.4-0.7,1-1.3,1.8-1.7c0.8-0.4,1.6-0.6,2.6-0.6
		c1.5,0,2.7,0.3,3.5,1c0.8,0.7,1.2,1.7,1.2,3c0,0.6-0.1,1.1-0.3,1.6c-0.2,0.6-0.6,1-1,1.7c-0.4,0.6-1.1,1.4-2.1,2.3l-1.8,2.1h5.5
		L62.8,243.5L62.8,243.5z"/>
	<path class="st38" d="M74.2,237.8c0,1.9-0.4,3.4-1.3,4.4s-2.1,1.5-3.6,1.5c-1.6,0-2.8-0.5-3.6-1.5c-0.9-1-1.3-2.5-1.3-4.4v-2.6
		c0-1.9,0.4-3.4,1.3-4.4s2.1-1.5,3.6-1.5c1.5,0,2.8,0.5,3.6,1.5c0.9,1,1.3,2.5,1.3,4.4V237.8z M70.9,234.8c0-1-0.2-1.8-0.4-2.2
		c-0.2-0.5-0.7-0.7-1.3-0.7c-0.6,0-1,0.2-1.2,0.7c-0.2,0.5-0.4,1.2-0.4,2.1v3.6c0,1,0.2,1.8,0.4,2.3c0.2,0.5,0.7,0.7,1.3,0.7
		c0.6,0,1-0.2,1.2-0.7c0.2-0.5,0.4-1.2,0.4-2.2V234.8z"/>
	<path class="st38" d="M85.7,243.5h-9.8v-2.2l4.5-4.7c1.1-1.3,1.7-2.2,1.7-3c0-0.6-0.2-1-0.4-1.4c-0.2-0.3-0.6-0.5-1.1-0.5
		c-0.5,0-0.9,0.2-1.2,0.6s-0.5,1-0.5,1.6h-3.3c0-0.9,0.2-1.7,0.6-2.4c0.4-0.7,1-1.3,1.8-1.7c0.8-0.4,1.6-0.6,2.6-0.6
		c1.5,0,2.7,0.3,3.5,1c0.8,0.7,1.2,1.7,1.2,3c0,0.6-0.1,1.1-0.3,1.6c-0.2,0.6-0.6,1-1,1.7c-0.4,0.6-1.1,1.4-2.1,2.3l-1.8,2.1h5.5
		L85.7,243.5L85.7,243.5z"/>
	<path class="st38" d="M97,237.8c0,1.9-0.4,3.4-1.3,4.4s-2.1,1.5-3.6,1.5c-1.6,0-2.8-0.5-3.6-1.5c-0.9-1-1.3-2.5-1.3-4.4v-2.6
		c0-1.9,0.4-3.4,1.3-4.4s2.1-1.5,3.6-1.5c1.5,0,2.8,0.5,3.6,1.5c0.9,1,1.3,2.5,1.3,4.4V237.8z M93.7,234.8c0-1-0.2-1.8-0.4-2.2
		s-0.7-0.7-1.3-0.7c-0.6,0-1,0.2-1.2,0.7c-0.2,0.5-0.4,1.2-0.4,2.1v3.6c0,1,0.2,1.8,0.4,2.3c0.2,0.5,0.7,0.7,1.3,0.7
		c0.6,0,1-0.2,1.2-0.7s0.4-1.2,0.4-2.2V234.8z"/>
</g>
<g>
	<path class="st8" d="M596.2,306v3.5H596c-1.6,0-3,0.4-4.1,1.2c-1.1,0.8-1.7,1.9-1.9,3.3c1-1,2.2-1.5,3.8-1.5c1.6,0,3,0.6,3.9,1.8
		c1,1.2,1.5,2.8,1.5,4.7c0,1.2-0.3,2.4-0.8,3.3c-0.5,1-1.4,1.8-2.4,2.4c-1,0.5-2.2,0.8-3.4,0.8c-1.3,0-2.5-0.3-3.6-0.9
		s-1.9-1.5-2.5-2.7c-0.6-1.2-0.9-2.5-0.9-3.9v-1.8c0-2,0.4-3.8,1.3-5.3c0.8-1.6,2.1-2.8,3.6-3.7c1.6-0.9,3.3-1.3,5.2-1.3H596.2z
		 M592.2,315.9c-0.6,0-1.1,0.1-1.5,0.4c-0.4,0.2-0.7,0.6-0.9,1v1.3c0,2.4,0.8,3.6,2.5,3.6c0.7,0,1.2-0.3,1.7-0.9
		c0.4-0.6,0.7-1.3,0.7-2.3c0-0.9-0.2-1.7-0.7-2.3C593.6,316.1,593,315.9,592.2,315.9z"/>
	<path class="st8" d="M614.4,325.3h-13.3v-2.9l6.1-6.5c1.5-1.7,2.3-3.1,2.3-4.1c0-0.8-0.2-1.5-0.5-1.9c-0.4-0.4-0.9-0.7-1.6-0.7
		c-0.7,0-1.2,0.3-1.6,0.8s-0.6,1.3-0.6,2.1h-4.4c0-1.2,0.3-2.2,0.9-3.3c0.6-1,1.4-1.8,2.4-2.3c1-0.5,2.2-0.8,3.5-0.8
		c2.1,0,3.6,0.5,4.8,1.5c1.1,1,1.7,2.3,1.7,4.1c0,0.7-0.1,1.5-0.4,2.2c-0.3,0.7-0.7,1.5-1.3,2.2c-0.6,0.8-1.5,1.8-2.8,3.2l-2.5,2.8
		h7.5L614.4,325.3L614.4,325.3z"/>
</g>
<g>
	<path class="st38" d="M23,315h-4.6l-0.8,2.6h-3.6l5.1-14h3.2l5.2,14h-3.7L23,315z M19.1,312.3h3l-1.5-4.9L19.1,312.3z"/>
	<path class="st38" d="M30.8,307.1l0.1,1.2c0.7-1,1.7-1.4,3-1.4c1.1,0,1.9,0.3,2.4,1c0.6,0.6,0.8,1.6,0.8,3v6.7h-3.3V311
		c0-0.6-0.1-0.9-0.3-1.2c-0.2-0.2-0.6-0.4-1.1-0.4c-0.6,0-1.1,0.2-1.4,0.7v7.3h-3.3V307h3.2V307.1z M36.2,302.8
		c0,0.7-0.2,1.4-0.6,1.8c-0.4,0.5-1,0.8-1.6,0.8c-0.4,0-0.9-0.2-1.4-0.4c-0.6-0.2-1-0.4-1.3-0.4c-0.2,0-0.4,0.1-0.6,0.2
		s-0.2,0.4-0.2,0.6l-1.8-0.1c0-0.7,0.2-1.4,0.6-1.8c0.4-0.6,1-0.8,1.6-0.8c0.3,0,0.7,0.1,1.3,0.3c0.6,0.2,0.9,0.4,1,0.4
		c0.2,0,0.3,0.1,0.5,0.1c0.2,0,0.4-0.1,0.6-0.2c0.2-0.2,0.2-0.4,0.2-0.6L36.2,302.8z"/>
	<path class="st38" d="M38.5,312.2c0-1,0.2-2,0.6-2.8c0.4-0.8,1-1.4,1.8-1.8c0.7-0.4,1.7-0.6,2.6-0.6c1.6,0,2.8,0.5,3.7,1.4
		s1.4,2.3,1.4,3.9v0.1c0,1.6-0.5,3-1.4,3.8c-0.9,1-2.2,1.4-3.7,1.4c-1.5,0-2.7-0.5-3.6-1.4c-0.9-0.9-1.4-2.1-1.4-3.6V312.2z
		 M41.8,312.5c0,1,0.2,1.7,0.5,2.2c0.3,0.5,0.7,0.6,1.4,0.6c1.1,0,1.8-0.9,1.8-2.6v-0.3c0-1.8-0.6-2.8-1.8-2.8
		c-1.1,0-1.7,0.8-1.8,2.4L41.8,312.5z"/>
	<path class="st38" d="M64.7,317.6h-9.8v-2.2l4.5-4.7c1.1-1.3,1.7-2.2,1.7-3c0-0.6-0.2-1-0.4-1.4c-0.2-0.3-0.6-0.5-1.1-0.5
		c-0.5,0-0.9,0.2-1.2,0.6c-0.3,0.4-0.5,1-0.5,1.6h-3.3c0-0.9,0.2-1.7,0.6-2.4c0.4-0.7,1-1.3,1.8-1.7c0.8-0.4,1.6-0.6,2.6-0.6
		c1.5,0,2.7,0.3,3.5,1c0.8,0.7,1.2,1.7,1.2,3c0,0.6-0.1,1.1-0.3,1.6c-0.2,0.6-0.6,1-1,1.7c-0.4,0.6-1.1,1.4-2.1,2.3l-1.8,2.1h5.5
		L64.7,317.6L64.7,317.6z"/>
	<path class="st38" d="M76.1,311.8c0,1.9-0.4,3.4-1.3,4.4c-0.9,1-2.1,1.5-3.6,1.5c-1.6,0-2.8-0.5-3.6-1.5c-0.9-1-1.3-2.5-1.3-4.4
		v-2.6c0-1.9,0.4-3.4,1.3-4.4c0.9-1,2.1-1.5,3.6-1.5s2.8,0.5,3.6,1.5c0.8,1,1.3,2.5,1.3,4.4V311.8z M72.8,308.8c0-1-0.2-1.8-0.4-2.2
		c-0.2-0.5-0.7-0.7-1.3-0.7c-0.6,0-1,0.2-1.2,0.7c-0.2,0.5-0.4,1.2-0.4,2.1v3.6c0,1,0.2,1.8,0.4,2.3c0.2,0.5,0.7,0.7,1.3,0.7
		s1-0.2,1.2-0.7c0.2-0.5,0.4-1.2,0.4-2.2V308.8z"/>
	<path class="st38" d="M87.5,317.6h-9.8v-2.2l4.5-4.7c1.1-1.3,1.7-2.2,1.7-3c0-0.6-0.2-1-0.4-1.4c-0.2-0.3-0.6-0.5-1.1-0.5
		c-0.5,0-0.9,0.2-1.2,0.6c-0.3,0.4-0.5,1-0.5,1.6h-3.3c0-0.9,0.2-1.7,0.6-2.4c0.4-0.7,1-1.3,1.8-1.7c0.8-0.4,1.6-0.6,2.6-0.6
		c1.5,0,2.7,0.3,3.5,1c0.8,0.7,1.2,1.7,1.2,3c0,0.6-0.1,1.1-0.3,1.6c-0.2,0.6-0.6,1-1,1.7c-0.4,0.6-1.1,1.4-2.1,2.3l-1.8,2.1h5.5
		L87.5,317.6L87.5,317.6z"/>
	<path class="st38" d="M96.4,317.6h-3.3v-10.4l-3.2,1v-2.5l6.1-2.2h0.3V317.6z"/>
</g>
<g>
	<path class="st1" d="M164.6,46.6v12.9h2.7v-1.8h1.2v1.8h2.7V46.6H164.6z M170.5,56.4h-5.2v-0.6h5.2V56.4z M170.5,54.9h-5.2v-0.6
		h5.2V54.9z M170.5,53.4h-5.2v-0.6h5.2V53.4z M170.5,51.9h-5.2v-0.6h5.2V51.9z M170.5,50.5h-5.2v-0.6h5.2V50.5z M170.5,49h-5.2v-0.6
		h5.2V49z"/>
	<g>
		<polygon class="st1" points="139.8,44.8 134,48.1 134.4,48.7 139.8,45.6 145.2,48.7 145.5,48.1 		"/>
		<path class="st1" d="M144.2,48.8L144.2,48.8l-4.4-2.5l-4.4,2.5h0v9.9h-1v0.9h1h8.8h1v-0.9h-1V48.8z M139.4,52.4v2.1h-2.1v-2.1
			H139.4z M137.3,51.7v-2.1h2.1v2.1H137.3z M139.4,55.2v2.1h-2.1v-2.1H139.4z M142.2,52.4v2.1h-2.1v-2.1H142.2z M140.1,51.7v-2.1
			h2.1v2.1H140.1z M142.2,55.2v2.1h-2.1v-2.1H142.2z"/>
	</g>
	<g>
		<rect x="120.8" y="45.7" class="st1" width="9.6" height="0.9"/>
		<path class="st1" d="M120.8,59.5h9.6V47h-9.6V59.5z M127.3,49.4h2.1v2.1h-2.1V49.4z M127.3,52.2h2.1v2.1h-2.1V52.2z M127.3,54.9
			h2.1V57h-2.1V54.9z M124.5,49.4h2.1v2.1h-2.1V49.4z M124.5,52.2h2.1v2.1h-2.1V52.2z M124.5,54.9h2.1V57h-2.1V54.9z M121.8,49.4
			h2.1v2.1h-2.1V49.4z M121.8,52.2h2.1v2.1h-2.1V52.2z M121.8,54.9h2.1V57h-2.1V54.9z"/>
	</g>
	<path class="st1" d="M156.8,48.9v-6.3l-6.6,2.3v14.5h6.6h4.1v-8.3L156.8,48.9z M155.8,58.2h-4.6v-0.7h4.6V58.2z M155.8,56.6h-4.6
		v-0.7h4.6V56.6z M155.8,54.9h-4.6v-0.7h4.6V54.9z M155.8,53.3h-4.6v-0.7h4.6V53.3z M155.8,51.7h-4.6V51h4.6V51.7z M155.8,50.1h-4.6
		v-0.7h4.6V50.1z M155.8,48.5h-4.6v-0.7h4.6V48.5z M155.8,46.8h-4.6v-0.7h4.6V46.8z M158.1,58.4h-1v-1h1V58.4z M158.1,56.6h-1v-1h1
		V56.6z M158.1,55h-1v-1h1V55z M158.1,53.3h-1v-1h1V53.3z M159.9,58.4h-1v-1h1V58.4z M159.9,56.6h-1v-1h1V56.6z M159.9,55h-1v-1h1
		V55z M159.9,53.3h-1v-1h1V53.3z"/>
	<g>
		<rect x="175" y="45.7" class="st1" width="9.6" height="0.9"/>
		<path class="st1" d="M175,59.5h9.6V47H175V59.5z M181.5,49.4h2.1v2.1h-2.1V49.4z M181.5,52.2h2.1v2.1h-2.1V52.2z M181.5,54.9h2.1
			V57h-2.1V54.9z M178.8,49.4h2.1v2.1h-2.1V49.4z M178.8,52.2h2.1v2.1h-2.1V52.2z M178.8,54.9h2.1V57h-2.1V54.9z M176,49.4h2.1v2.1
			H176V49.4z M176,52.2h2.1v2.1H176V52.2z M176,54.9h2.1V57H176V54.9z"/>
	</g>
</g>
<g>
	<path class="st1" d="M164.6,107.2v12.9h2.7v-1.8h1.2v1.8h2.7v-12.9H164.6z M170.5,116.9h-5.2v-0.6h5.2V116.9z M170.5,115.4h-5.2
		v-0.6h5.2V115.4z M170.5,114h-5.2v-0.6h5.2V114z M170.5,112.5h-5.2v-0.6h5.2V112.5z M170.5,111h-5.2v-0.6h5.2V111z M170.5,109.6
		h-5.2v-0.6h5.2V109.6z"/>
	<g>
		<polygon class="st1" points="139.8,105.3 134,108.7 134.4,109.3 139.8,106.2 145.2,109.3 145.5,108.7 		"/>
		<path class="st1" d="M144.2,109.3L144.2,109.3l-4.4-2.5l-4.4,2.5h0v9.9h-1v0.9h1h8.8h1v-0.9h-1V109.3z M139.4,113v2.1h-2.1V113
			H139.4z M137.3,112.2v-2.1h2.1v2.1H137.3z M139.4,115.7v2.1h-2.1v-2.1H139.4z M142.2,113v2.1h-2.1V113H142.2z M140.1,112.2v-2.1
			h2.1v2.1H140.1z M142.2,115.7v2.1h-2.1v-2.1H142.2z"/>
	</g>
	<g>
		<rect x="120.8" y="106.2" class="st1" width="9.6" height="0.9"/>
		<path class="st1" d="M120.8,120.1h9.6v-12.5h-9.6V120.1z M127.3,110h2.1v2.1h-2.1V110z M127.3,112.7h2.1v2.1h-2.1V112.7z
			 M127.3,115.5h2.1v2.1h-2.1V115.5z M124.5,110h2.1v2.1h-2.1V110z M124.5,112.7h2.1v2.1h-2.1V112.7z M124.5,115.5h2.1v2.1h-2.1
			V115.5z M121.8,110h2.1v2.1h-2.1V110z M121.8,112.7h2.1v2.1h-2.1V112.7z M121.8,115.5h2.1v2.1h-2.1V115.5z"/>
	</g>
	<path class="st1" d="M156.8,109.5v-6.3l-6.6,2.3v14.5h6.6h4.1v-8.3L156.8,109.5z M155.8,118.7h-4.6V118h4.6V118.7z M155.8,117.1
		h-4.6v-0.7h4.6V117.1z M155.8,115.5h-4.6v-0.7h4.6V115.5z M155.8,113.9h-4.6v-0.7h4.6V113.9z M155.8,112.2h-4.6v-0.7h4.6V112.2z
		 M155.8,110.6h-4.6v-0.7h4.6V110.6z M155.8,109h-4.6v-0.7h4.6V109z M155.8,107.4h-4.6v-0.7h4.6V107.4z M158.1,118.9h-1v-1h1V118.9z
		 M158.1,117.2h-1v-1h1V117.2z M158.1,115.5h-1v-1h1V115.5z M158.1,113.8h-1v-1h1V113.8z M159.9,118.9h-1v-1h1V118.9z M159.9,117.2
		h-1v-1h1V117.2z M159.9,115.5h-1v-1h1V115.5z M159.9,113.8h-1v-1h1V113.8z"/>
	<path class="st1" d="M218.9,107.2v12.9h2.7v-1.8h1.2v1.8h2.7v-12.9H218.9z M224.7,116.9h-5.2v-0.6h5.2V116.9z M224.7,115.4h-5.2
		v-0.6h5.2V115.4z M224.7,114h-5.2v-0.6h5.2V114z M224.7,112.5h-5.2v-0.6h5.2V112.5z M224.7,111h-5.2v-0.6h5.2V111z M224.7,109.6
		h-5.2v-0.6h5.2V109.6z"/>
	<g>
		<polygon class="st1" points="194,105.3 188.3,108.7 188.6,109.3 194,106.2 199.4,109.3 199.8,108.7 		"/>
		<path class="st1" d="M198.4,109.3L198.4,109.3l-4.4-2.5l-4.4,2.5h0v9.9h-1v0.9h1h8.8h1v-0.9h-1V109.3z M193.7,113v2.1h-2.1V113
			H193.7z M191.6,112.2v-2.1h2.1v2.1H191.6z M193.7,115.7v2.1h-2.1v-2.1H193.7z M196.5,113v2.1h-2.1V113H196.5z M194.4,112.2v-2.1
			h2.1v2.1H194.4z M196.5,115.7v2.1h-2.1v-2.1H196.5z"/>
	</g>
	<g>
		<rect x="175" y="106.2" class="st1" width="9.6" height="0.9"/>
		<path class="st1" d="M175,120.1h9.6v-12.5H175V120.1z M181.5,110h2.1v2.1h-2.1V110z M181.5,112.7h2.1v2.1h-2.1V112.7z
			 M181.5,115.5h2.1v2.1h-2.1V115.5z M178.8,110h2.1v2.1h-2.1V110z M178.8,112.7h2.1v2.1h-2.1V112.7z M178.8,115.5h2.1v2.1h-2.1
			V115.5z M176,110h2.1v2.1H176V110z M176,112.7h2.1v2.1H176V112.7z M176,115.5h2.1v2.1H176V115.5z"/>
	</g>
	<path class="st1" d="M211.1,109.5v-6.3l-6.6,2.3v14.5h6.6h4.1v-8.3L211.1,109.5z M210,118.7h-4.6V118h4.6V118.7z M210,117.1h-4.6
		v-0.7h4.6V117.1z M210,115.5h-4.6v-0.7h4.6V115.5z M210,113.9h-4.6v-0.7h4.6V113.9z M210,112.2h-4.6v-0.7h4.6V112.2z M210,110.6
		h-4.6v-0.7h4.6V110.6z M210,109h-4.6v-0.7h4.6V109z M210,107.4h-4.6v-0.7h4.6V107.4z M212.4,118.9h-1v-1h1V118.9z M212.4,117.2h-1
		v-1h1V117.2z M212.4,115.5h-1v-1h1V115.5z M212.4,113.8h-1v-1h1V113.8z M214.2,118.9h-1v-1h1V118.9z M214.2,117.2h-1v-1h1V117.2z
		 M214.2,115.5h-1v-1h1V115.5z M214.2,113.8h-1v-1h1V113.8z"/>
	<g>
		<rect x="229.2" y="106.2" class="st1" width="9.6" height="0.9"/>
		<path class="st1" d="M229.2,120.1h9.6v-12.5h-9.6V120.1z M235.7,110h2.1v2.1h-2.1V110z M235.7,112.7h2.1v2.1h-2.1V112.7z
			 M235.7,115.5h2.1v2.1h-2.1V115.5z M233,110h2.1v2.1H233V110z M233,112.7h2.1v2.1H233V112.7z M233,115.5h2.1v2.1H233V115.5z
			 M230.3,110h2.1v2.1h-2.1V110z M230.3,112.7h2.1v2.1h-2.1V112.7z M230.3,115.5h2.1v2.1h-2.1V115.5z"/>
	</g>
</g>
<path class="st1" d="M151.5,305.8v12.9h2.7v-1.8h1.2v1.8h2.7v-12.9H151.5z M157.3,315.6h-5.2V315h5.2V315.6z M157.3,314.1h-5.2v-0.6
	h5.2V314.1z M157.3,312.6h-5.2V312h5.2V312.6z M157.3,311.2h-5.2v-0.6h5.2V311.2z M157.3,309.7h-5.2v-0.6h5.2V309.7z M157.3,308.2
	h-5.2v-0.6h5.2V308.2z"/>
<g>
	<polygon class="st1" points="126.6,304 120.9,307.3 121.2,308 126.6,304.8 132,308 132.4,307.3 	"/>
	<path class="st1" d="M131,308L131,308l-4.4-2.5l-4.4,2.5h0v9.9h-1v0.9h1h8.8h1v-0.9h-1V308z M126.3,311.6v2.1h-2.1v-2.1H126.3z
		 M124.2,310.9v-2.1h2.1v2.1H124.2z M126.3,314.4v2.1h-2.1v-2.1H126.3z M129.1,311.6v2.1H127v-2.1H129.1z M127,310.9v-2.1h2.1v2.1
		H127z M129.1,314.4v2.1H127v-2.1H129.1z"/>
</g>
<path class="st1" d="M143.7,308.1v-6.3l-6.6,2.3v14.5h6.6h4.1v-8.3L143.7,308.1z M142.6,317.4H138v-0.7h4.6V317.4z M142.6,315.8H138
	v-0.7h4.6V315.8z M142.6,314.1H138v-0.7h4.6V314.1z M142.6,312.5H138v-0.7h4.6V312.5z M142.6,310.9H138v-0.7h4.6V310.9z
	 M142.6,309.3H138v-0.7h4.6V309.3z M142.6,307.7H138V307h4.6V307.7z M142.6,306H138v-0.7h4.6V306z M145,317.6h-1v-1h1V317.6z
	 M145,315.9h-1v-1h1V315.9z M145,314.2h-1v-1h1V314.2z M145,312.5h-1v-1h1V312.5z M146.8,317.6h-1v-1h1V317.6z M146.8,315.9h-1v-1h1
	V315.9z M146.8,314.2h-1v-1h1V314.2z M146.8,312.5h-1v-1h1V312.5z"/>
<path class="st1" d="M205.7,305.8v12.9h2.7v-1.8h1.2v1.8h2.7v-12.9H205.7z M211.6,315.6h-5.2V315h5.2V315.6z M211.6,314.1h-5.2v-0.6
	h5.2V314.1z M211.6,312.6h-5.2V312h5.2V312.6z M211.6,311.2h-5.2v-0.6h5.2V311.2z M211.6,309.7h-5.2v-0.6h5.2V309.7z M211.6,308.2
	h-5.2v-0.6h5.2V308.2z"/>
<g>
	<polygon class="st1" points="180.8,304 175.1,307.3 175.5,308 180.8,304.8 186.2,308 186.6,307.3 	"/>
	<path class="st1" d="M185.3,308L185.3,308l-4.4-2.5l-4.4,2.5h0v9.9h-1v0.9h1h8.8h1v-0.9h-1V308z M180.5,311.6v2.1h-2.1v-2.1H180.5z
		 M178.4,310.9v-2.1h2.1v2.1H178.4z M180.5,314.4v2.1h-2.1v-2.1H180.5z M183.3,311.6v2.1h-2.1v-2.1H183.3z M181.2,310.9v-2.1h2.1
		v2.1H181.2z M183.3,314.4v2.1h-2.1v-2.1H183.3z"/>
</g>
<g>
	<rect x="161.8" y="304.9" class="st1" width="9.6" height="0.9"/>
	<path class="st1" d="M161.8,318.7h9.6v-12.5h-9.6V318.7z M168.3,308.7h2.1v2.1h-2.1V308.7z M168.3,311.4h2.1v2.1h-2.1V311.4z
		 M168.3,314.1h2.1v2.1h-2.1V314.1z M165.6,308.7h2.1v2.1h-2.1V308.7z M165.6,311.4h2.1v2.1h-2.1V311.4z M165.6,314.1h2.1v2.1h-2.1
		V314.1z M162.9,308.7h2.1v2.1h-2.1V308.7z M162.9,311.4h2.1v2.1h-2.1V311.4z M162.9,314.1h2.1v2.1h-2.1V314.1z"/>
</g>
<path class="st1" d="M197.9,308.1v-6.3l-6.6,2.3v14.5h6.6h4.1v-8.3L197.9,308.1z M196.9,317.4h-4.6v-0.7h4.6V317.4z M196.9,315.8
	h-4.6v-0.7h4.6V315.8z M196.9,314.1h-4.6v-0.7h4.6V314.1z M196.9,312.5h-4.6v-0.7h4.6V312.5z M196.9,310.9h-4.6v-0.7h4.6V310.9z
	 M196.9,309.3h-4.6v-0.7h4.6V309.3z M196.9,307.7h-4.6V307h4.6V307.7z M196.9,306h-4.6v-0.7h4.6V306z M199.2,317.6h-1v-1h1V317.6z
	 M199.2,315.9h-1v-1h1V315.9z M199.2,314.2h-1v-1h1V314.2z M199.2,312.5h-1v-1h1V312.5z M201,317.6h-1v-1h1V317.6z M201,315.9h-1v-1
	h1V315.9z M201,314.2h-1v-1h1V314.2z M201,312.5h-1v-1h1V312.5z"/>
<path class="st1" d="M259.9,305.8v12.9h2.7v-1.8h1.2v1.8h2.7v-12.9H259.9z M265.8,315.6h-5.2V315h5.2V315.6z M265.8,314.1h-5.2v-0.6
	h5.2V314.1z M265.8,312.6h-5.2V312h5.2V312.6z M265.8,311.2h-5.2v-0.6h5.2V311.2z M265.8,309.7h-5.2v-0.6h5.2V309.7z M265.8,308.2
	h-5.2v-0.6h5.2V308.2z"/>
<g>
	<polygon class="st1" points="235.1,304 229.3,307.3 229.7,308 235.1,304.8 240.5,308 240.8,307.3 	"/>
	<path class="st1" d="M239.5,308L239.5,308l-4.4-2.5l-4.4,2.5h0v9.9h-1v0.9h1h8.8h1v-0.9h-1V308z M234.7,311.6v2.1h-2.1v-2.1H234.7z
		 M232.7,310.9v-2.1h2.1v2.1H232.7z M234.7,314.4v2.1h-2.1v-2.1H234.7z M237.5,311.6v2.1h-2.1v-2.1H237.5z M235.4,310.9v-2.1h2.1
		v2.1H235.4z M237.5,314.4v2.1h-2.1v-2.1H237.5z"/>
</g>
<g>
	<rect x="216.1" y="304.9" class="st1" width="9.6" height="0.9"/>
	<path class="st1" d="M216.1,318.7h9.6v-12.5h-9.6V318.7z M222.6,308.7h2.1v2.1h-2.1V308.7z M222.6,311.4h2.1v2.1h-2.1V311.4z
		 M222.6,314.1h2.1v2.1h-2.1V314.1z M219.9,308.7h2.1v2.1h-2.1V308.7z M219.9,311.4h2.1v2.1h-2.1V311.4z M219.9,314.1h2.1v2.1h-2.1
		V314.1z M217.1,308.7h2.1v2.1h-2.1V308.7z M217.1,311.4h2.1v2.1h-2.1V311.4z M217.1,314.1h2.1v2.1h-2.1V314.1z"/>
</g>
<path class="st1" d="M252.1,308.1v-6.3l-6.6,2.3v14.5h6.6h4.1v-8.3L252.1,308.1z M251.1,317.4h-4.6v-0.7h4.6V317.4z M251.1,315.8
	h-4.6v-0.7h4.6V315.8z M251.1,314.1h-4.6v-0.7h4.6V314.1z M251.1,312.5h-4.6v-0.7h4.6V312.5z M251.1,310.9h-4.6v-0.7h4.6V310.9z
	 M251.1,309.3h-4.6v-0.7h4.6V309.3z M251.1,307.7h-4.6V307h4.6V307.7z M251.1,306h-4.6v-0.7h4.6V306z M253.5,317.6h-1v-1h1V317.6z
	 M253.5,315.9h-1v-1h1V315.9z M253.5,314.2h-1v-1h1V314.2z M253.5,312.5h-1v-1h1V312.5z M255.2,317.6h-1v-1h1V317.6z M255.2,315.9
	h-1v-1h1V315.9z M255.2,314.2h-1v-1h1V314.2z M255.2,312.5h-1v-1h1V312.5z"/>
<path class="st1" d="M314.2,305.8v12.9h2.7v-1.8h1.2v1.8h2.7v-12.9H314.2z M320,315.6h-5.2V315h5.2V315.6z M320,314.1h-5.2v-0.6h5.2
	V314.1z M320,312.6h-5.2V312h5.2V312.6z M320,311.2h-5.2v-0.6h5.2V311.2z M320,309.7h-5.2v-0.6h5.2V309.7z M320,308.2h-5.2v-0.6h5.2
	V308.2z"/>
<g>
	<polygon class="st1" points="289.3,304 283.6,307.3 283.9,308 289.3,304.8 294.7,308 295.1,307.3 	"/>
	<path class="st1" d="M293.7,308L293.7,308l-4.4-2.5L285,308h0v9.9h-1v0.9h1h8.8h1v-0.9h-1V308z M289,311.6v2.1h-2.1v-2.1H289z
		 M286.9,310.9v-2.1h2.1v2.1H286.9z M289,314.4v2.1h-2.1v-2.1H289z M291.8,311.6v2.1h-2.1v-2.1H291.8z M289.7,310.9v-2.1h2.1v2.1
		H289.7z M291.8,314.4v2.1h-2.1v-2.1H291.8z"/>
</g>
<g>
	<rect x="270.3" y="304.9" class="st1" width="9.6" height="0.9"/>
	<path class="st1" d="M270.3,318.7h9.6v-12.5h-9.6V318.7z M276.8,308.7h2.1v2.1h-2.1V308.7z M276.8,311.4h2.1v2.1h-2.1V311.4z
		 M276.8,314.1h2.1v2.1h-2.1V314.1z M274.1,308.7h2.1v2.1h-2.1V308.7z M274.1,311.4h2.1v2.1h-2.1V311.4z M274.1,314.1h2.1v2.1h-2.1
		V314.1z M271.3,308.7h2.1v2.1h-2.1V308.7z M271.3,311.4h2.1v2.1h-2.1V311.4z M271.3,314.1h2.1v2.1h-2.1V314.1z"/>
</g>
<path class="st1" d="M306.4,308.1v-6.3l-6.6,2.3v14.5h6.6h4.1v-8.3L306.4,308.1z M305.3,317.4h-4.6v-0.7h4.6V317.4z M305.3,315.8
	h-4.6v-0.7h4.6V315.8z M305.3,314.1h-4.6v-0.7h4.6V314.1z M305.3,312.5h-4.6v-0.7h4.6V312.5z M305.3,310.9h-4.6v-0.7h4.6V310.9z
	 M305.3,309.3h-4.6v-0.7h4.6V309.3z M305.3,307.7h-4.6V307h4.6V307.7z M305.3,306h-4.6v-0.7h4.6V306z M307.7,317.6h-1v-1h1V317.6z
	 M307.7,315.9h-1v-1h1V315.9z M307.7,314.2h-1v-1h1V314.2z M307.7,312.5h-1v-1h1V312.5z M309.5,317.6h-1v-1h1V317.6z M309.5,315.9
	h-1v-1h1V315.9z M309.5,314.2h-1v-1h1V314.2z M309.5,312.5h-1v-1h1V312.5z"/>
<path class="st1" d="M368.4,305.8v12.9h2.7v-1.8h1.2v1.8h2.7v-12.9H368.4z M374.3,315.6h-5.2V315h5.2V315.6z M374.3,314.1h-5.2v-0.6
	h5.2V314.1z M374.3,312.6h-5.2V312h5.2V312.6z M374.3,311.2h-5.2v-0.6h5.2V311.2z M374.3,309.7h-5.2v-0.6h5.2V309.7z M374.3,308.2
	h-5.2v-0.6h5.2V308.2z"/>
<g>
	<polygon class="st1" points="343.6,304 337.8,307.3 338.2,308 343.6,304.8 348.9,308 349.3,307.3 	"/>
	<path class="st1" d="M348,308L348,308l-4.4-2.5l-4.4,2.5h0v9.9h-1v0.9h1h8.8h1v-0.9h-1V308z M343.2,311.6v2.1h-2.1v-2.1H343.2z
		 M341.1,310.9v-2.1h2.1v2.1H341.1z M343.2,314.4v2.1h-2.1v-2.1H343.2z M346,311.6v2.1h-2.1v-2.1H346z M343.9,310.9v-2.1h2.1v2.1
		H343.9z M346,314.4v2.1h-2.1v-2.1H346z"/>
</g>
<g>
	<rect x="324.5" y="304.9" class="st1" width="9.6" height="0.9"/>
	<path class="st1" d="M324.5,318.7h9.6v-12.5h-9.6V318.7z M331.1,308.7h2.1v2.1h-2.1V308.7z M331.1,311.4h2.1v2.1h-2.1V311.4z
		 M331.1,314.1h2.1v2.1h-2.1V314.1z M328.3,308.7h2.1v2.1h-2.1V308.7z M328.3,311.4h2.1v2.1h-2.1V311.4z M328.3,314.1h2.1v2.1h-2.1
		V314.1z M325.6,308.7h2.1v2.1h-2.1V308.7z M325.6,311.4h2.1v2.1h-2.1V311.4z M325.6,314.1h2.1v2.1h-2.1V314.1z"/>
</g>
<path class="st1" d="M360.6,308.1v-6.3l-6.6,2.3v14.5h6.6h4.1v-8.3L360.6,308.1z M359.6,317.4H355v-0.7h4.6V317.4z M359.6,315.8H355
	v-0.7h4.6V315.8z M359.6,314.1H355v-0.7h4.6V314.1z M359.6,312.5H355v-0.7h4.6V312.5z M359.6,310.9H355v-0.7h4.6V310.9z
	 M359.6,309.3H355v-0.7h4.6V309.3z M359.6,307.7H355V307h4.6V307.7z M359.6,306H355v-0.7h4.6V306z M361.9,317.6h-1v-1h1V317.6z
	 M361.9,315.9h-1v-1h1V315.9z M361.9,314.2h-1v-1h1V314.2z M361.9,312.5h-1v-1h1V312.5z M363.7,317.6h-1v-1h1V317.6z M363.7,315.9
	h-1v-1h1V315.9z M363.7,314.2h-1v-1h1V314.2z M363.7,312.5h-1v-1h1V312.5z"/>
<path class="st1" d="M422.6,305.8v12.9h2.7v-1.8h1.2v1.8h2.7v-12.9H422.6z M428.5,315.6h-5.2V315h5.2V315.6z M428.5,314.1h-5.2v-0.6
	h5.2V314.1z M428.5,312.6h-5.2V312h5.2V312.6z M428.5,311.2h-5.2v-0.6h5.2V311.2z M428.5,309.7h-5.2v-0.6h5.2V309.7z M428.5,308.2
	h-5.2v-0.6h5.2V308.2z"/>
<g>
	<polygon class="st1" points="397.8,304 392,307.3 392.4,308 397.8,304.8 403.2,308 403.5,307.3 	"/>
	<path class="st1" d="M402.2,308L402.2,308l-4.4-2.5l-4.4,2.5h0v9.9h-1v0.9h1h8.8h1v-0.9h-1V308z M397.4,311.6v2.1h-2.1v-2.1H397.4z
		 M395.4,310.9v-2.1h2.1v2.1H395.4z M397.4,314.4v2.1h-2.1v-2.1H397.4z M400.2,311.6v2.1h-2.1v-2.1H400.2z M398.2,310.9v-2.1h2.1
		v2.1H398.2z M400.2,314.4v2.1h-2.1v-2.1H400.2z"/>
</g>
<g>
	<rect x="378.8" y="304.9" class="st1" width="9.6" height="0.9"/>
	<path class="st1" d="M378.8,318.7h9.6v-12.5h-9.6V318.7z M385.3,308.7h2.1v2.1h-2.1V308.7z M385.3,311.4h2.1v2.1h-2.1V311.4z
		 M385.3,314.1h2.1v2.1h-2.1V314.1z M382.6,308.7h2.1v2.1h-2.1V308.7z M382.6,311.4h2.1v2.1h-2.1V311.4z M382.6,314.1h2.1v2.1h-2.1
		V314.1z M379.8,308.7h2.1v2.1h-2.1V308.7z M379.8,311.4h2.1v2.1h-2.1V311.4z M379.8,314.1h2.1v2.1h-2.1V314.1z"/>
</g>
<path class="st1" d="M414.8,308.1v-6.3l-6.6,2.3v14.5h6.6h4.1v-8.3L414.8,308.1z M413.8,317.4h-4.6v-0.7h4.6V317.4z M413.8,315.8
	h-4.6v-0.7h4.6V315.8z M413.8,314.1h-4.6v-0.7h4.6V314.1z M413.8,312.5h-4.6v-0.7h4.6V312.5z M413.8,310.9h-4.6v-0.7h4.6V310.9z
	 M413.8,309.3h-4.6v-0.7h4.6V309.3z M413.8,307.7h-4.6V307h4.6V307.7z M413.8,306h-4.6v-0.7h4.6V306z M416.2,317.6h-1v-1h1V317.6z
	 M416.2,315.9h-1v-1h1V315.9z M416.2,314.2h-1v-1h1V314.2z M416.2,312.5h-1v-1h1V312.5z M418,317.6h-1v-1h1V317.6z M418,315.9h-1v-1
	h1V315.9z M418,314.2h-1v-1h1V314.2z M418,312.5h-1v-1h1V312.5z"/>
<path class="st1" d="M476.9,305.8v12.9h2.7v-1.8h1.2v1.8h2.7v-12.9H476.9z M482.8,315.6h-5.2V315h5.2V315.6z M482.8,314.1h-5.2v-0.6
	h5.2V314.1z M482.8,312.6h-5.2V312h5.2V312.6z M482.8,311.2h-5.2v-0.6h5.2V311.2z M482.8,309.7h-5.2v-0.6h5.2V309.7z M482.8,308.2
	h-5.2v-0.6h5.2V308.2z"/>
<g>
	<polygon class="st1" points="452,304 446.3,307.3 446.6,308 452,304.8 457.4,308 457.8,307.3 	"/>
	<path class="st1" d="M456.4,308L456.4,308l-4.4-2.5l-4.4,2.5h0v9.9h-1v0.9h1h8.8h1v-0.9h-1V308z M451.7,311.6v2.1h-2.1v-2.1H451.7z
		 M449.6,310.9v-2.1h2.1v2.1H449.6z M451.7,314.4v2.1h-2.1v-2.1H451.7z M454.5,311.6v2.1h-2.1v-2.1H454.5z M452.4,310.9v-2.1h2.1
		v2.1H452.4z M454.5,314.4v2.1h-2.1v-2.1H454.5z"/>
</g>
<g>
	<rect x="433" y="304.9" class="st1" width="9.6" height="0.9"/>
	<path class="st1" d="M433,318.7h9.6v-12.5H433V318.7z M439.5,308.7h2.1v2.1h-2.1V308.7z M439.5,311.4h2.1v2.1h-2.1V311.4z
		 M439.5,314.1h2.1v2.1h-2.1V314.1z M436.8,308.7h2.1v2.1h-2.1V308.7z M436.8,311.4h2.1v2.1h-2.1V311.4z M436.8,314.1h2.1v2.1h-2.1
		V314.1z M434,308.7h2.1v2.1H434V308.7z M434,311.4h2.1v2.1H434V311.4z M434,314.1h2.1v2.1H434V314.1z"/>
</g>
<path class="st1" d="M469.1,308.1v-6.3l-6.6,2.3v14.5h6.6h4.1v-8.3L469.1,308.1z M468,317.4h-4.6v-0.7h4.6V317.4z M468,315.8h-4.6
	v-0.7h4.6V315.8z M468,314.1h-4.6v-0.7h4.6V314.1z M468,312.5h-4.6v-0.7h4.6V312.5z M468,310.9h-4.6v-0.7h4.6V310.9z M468,309.3
	h-4.6v-0.7h4.6V309.3z M468,307.7h-4.6V307h4.6V307.7z M468,306h-4.6v-0.7h4.6V306z M470.4,317.6h-1v-1h1V317.6z M470.4,315.9h-1v-1
	h1V315.9z M470.4,314.2h-1v-1h1V314.2z M470.4,312.5h-1v-1h1V312.5z M472.2,317.6h-1v-1h1V317.6z M472.2,315.9h-1v-1h1V315.9z
	 M472.2,314.2h-1v-1h1V314.2z M472.2,312.5h-1v-1h1V312.5z"/>
<path class="st1" d="M522.1,308.1v-6.3l-6.6,2.3v14.5h6.6h4.1v-8.3L522.1,308.1z M521.1,317.4h-4.6v-0.7h4.6V317.4z M521.1,315.8
	h-4.6v-0.7h4.6V315.8z M521.1,314.1h-4.6v-0.7h4.6V314.1z M521.1,312.5h-4.6v-0.7h4.6V312.5z M521.1,310.9h-4.6v-0.7h4.6V310.9z
	 M521.1,309.3h-4.6v-0.7h4.6V309.3z M521.1,307.7h-4.6V307h4.6V307.7z M521.1,306h-4.6v-0.7h4.6V306z M523.4,317.6h-1v-1h1V317.6z
	 M523.4,315.9h-1v-1h1V315.9z M523.4,314.2h-1v-1h1V314.2z M523.4,312.5h-1v-1h1V312.5z M525.2,317.6h-1v-1h1V317.6z M525.2,315.9
	h-1v-1h1V315.9z M525.2,314.2h-1v-1h1V314.2z M525.2,312.5h-1v-1h1V312.5z"/>
<g>
	<polygon class="st1" points="506.3,304 500.5,307.3 500.9,308 506.3,304.8 511.7,308 512,307.3 	"/>
	<path class="st1" d="M510.7,308L510.7,308l-4.4-2.5l-4.4,2.5h0v9.9h-1v0.9h1h8.8h1v-0.9h-1V308z M505.9,311.6v2.1h-2.1v-2.1H505.9z
		 M503.8,310.9v-2.1h2.1v2.1H503.8z M505.9,314.4v2.1h-2.1v-2.1H505.9z M508.7,311.6v2.1h-2.1v-2.1H508.7z M506.6,310.9v-2.1h2.1
		v2.1H506.6z M508.7,314.4v2.1h-2.1v-2.1H508.7z"/>
</g>
<g>
	<rect x="487.2" y="304.9" class="st1" width="9.6" height="0.9"/>
	<path class="st1" d="M487.2,318.7h9.6v-12.5h-9.6V318.7z M493.8,308.7h2.1v2.1h-2.1V308.7z M493.8,311.4h2.1v2.1h-2.1V311.4z
		 M493.8,314.1h2.1v2.1h-2.1V314.1z M491,308.7h2.1v2.1H491V308.7z M491,311.4h2.1v2.1H491V311.4z M491,314.1h2.1v2.1H491V314.1z
		 M488.3,308.7h2.1v2.1h-2.1V308.7z M488.3,311.4h2.1v2.1h-2.1V311.4z M488.3,314.1h2.1v2.1h-2.1V314.1z"/>
</g>
<path class="st1" d="M530.1,305.4v12.9h2.7v-1.8h1.2v1.8h2.7v-12.9H530.1z M536,315.1h-5.2v-0.6h5.2V315.1z M536,313.7h-5.2v-0.6
	h5.2V313.7z M536,312.2h-5.2v-0.6h5.2V312.2z M536,310.7h-5.2v-0.6h5.2V310.7z M536,309.3h-5.2v-0.6h5.2V309.3z M536,307.8h-5.2
	v-0.6h5.2V307.8z"/>
<path class="st1" d="M137.4,326.4v12.9h2.7v-1.8h1.2v1.8h2.7v-12.9H137.4z M143.3,336.1h-5.2v-0.6h5.2V336.1z M143.3,334.7h-5.2
	v-0.6h5.2V334.7z M143.3,333.2h-5.2v-0.6h5.2V333.2z M143.3,331.7h-5.2v-0.6h5.2V331.7z M143.3,330.3h-5.2v-0.6h5.2V330.3z
	 M143.3,328.8h-5.2v-0.6h5.2V328.8z"/>
<g>
	<polygon class="st1" points="559.5,303.6 553.8,306.9 554.1,307.5 559.5,304.4 564.9,307.5 565.3,306.9 	"/>
	<path class="st1" d="M563.9,307.6L563.9,307.6l-4.4-2.5l-4.4,2.5h0v9.9h-1v0.9h1h8.8h1v-0.9h-1V307.6z M559.2,311.2v2.1h-2.1v-2.1
		H559.2z M557.1,310.5v-2.1h2.1v2.1H557.1z M559.2,314v2.1h-2.1V314H559.2z M562,311.2v2.1h-2.1v-2.1H562z M559.9,310.5v-2.1h2.1
		v2.1H559.9z M562,314v2.1h-2.1V314H562z"/>
</g>
<g>
	<rect x="540.5" y="304.5" class="st1" width="9.6" height="0.9"/>
	<path class="st1" d="M540.5,318.3h9.6v-12.5h-9.6V318.3z M547,308.2h2.1v2.1H547V308.2z M547,311h2.1v2.1H547V311z M547,313.7h2.1
		v2.1H547V313.7z M544.3,308.2h2.1v2.1h-2.1V308.2z M544.3,311h2.1v2.1h-2.1V311z M544.3,313.7h2.1v2.1h-2.1V313.7z M541.5,308.2
		h2.1v2.1h-2.1V308.2z M541.5,311h2.1v2.1h-2.1V311z M541.5,313.7h2.1v2.1h-2.1V313.7z"/>
</g>
<path class="st1" d="M129.6,328.7v-6.3l-6.6,2.3v14.5h6.6h4.1V331L129.6,328.7z M128.5,338h-4.6v-0.7h4.6V338z M128.5,336.4h-4.6
	v-0.7h4.6V336.4z M128.5,334.7h-4.6V334h4.6V334.7z M128.5,333.1h-4.6v-0.7h4.6V333.1z M128.5,331.5h-4.6v-0.7h4.6V331.5z
	 M128.5,329.9h-4.6v-0.7h4.6V329.9z M128.5,328.3h-4.6v-0.7h4.6V328.3z M128.5,326.6h-4.6v-0.7h4.6V326.6z M130.9,338.1h-1v-1h1
	V338.1z M130.9,336.4h-1v-1h1V336.4z M130.9,334.7h-1v-1h1V334.7z M130.9,333.1h-1v-1h1V333.1z M132.7,338.1h-1v-1h1V338.1z
	 M132.7,336.4h-1v-1h1V336.4z M132.7,334.7h-1v-1h1V334.7z M132.7,333.1h-1v-1h1V333.1z"/>
<g>
	<polygon class="st1" points="166.8,324.6 161,327.9 161.4,328.5 166.8,325.4 172.1,328.5 172.5,327.9 	"/>
	<path class="st1" d="M171.2,328.6L171.2,328.6l-4.4-2.5l-4.4,2.5h0v9.9h-1v0.9h1h8.8h1v-0.9h-1V328.6z M166.4,332.2v2.1h-2.1v-2.1
		H166.4z M164.3,331.5v-2.1h2.1v2.1H164.3z M166.4,335v2.1h-2.1V335H166.4z M169.2,332.2v2.1h-2.1v-2.1H169.2z M167.1,331.5v-2.1
		h2.1v2.1H167.1z M169.2,335v2.1h-2.1V335H169.2z"/>
</g>
<g>
	<rect x="147.7" y="325.5" class="st1" width="9.6" height="0.9"/>
	<path class="st1" d="M147.7,339.3h9.6v-12.5h-9.6V339.3z M154.3,329.2h2.1v2.1h-2.1V329.2z M154.3,332h2.1v2.1h-2.1V332z
		 M154.3,334.7h2.1v2.1h-2.1V334.7z M151.5,329.2h2.1v2.1h-2.1V329.2z M151.5,332h2.1v2.1h-2.1V332z M151.5,334.7h2.1v2.1h-2.1
		V334.7z M148.8,329.2h2.1v2.1h-2.1V329.2z M148.8,332h2.1v2.1h-2.1V332z M148.8,334.7h2.1v2.1h-2.1V334.7z"/>
</g>
<g>
	<g>
		<polygon class="st1" points="491,324.7 485.2,328 485.6,328.6 491,325.5 496.3,328.6 496.7,328 		"/>
		<path class="st1" d="M495.4,328.7L495.4,328.7l-4.4-2.5l-4.4,2.5h0v9.9h-1v0.9h1h8.8h1v-0.9h-1V328.7z M490.6,332.3v2.1h-2.1v-2.1
			H490.6z M488.5,331.6v-2.1h2.1v2.1H488.5z M490.6,335v2.1h-2.1V335H490.6z M493.4,332.3v2.1h-2.1v-2.1H493.4z M491.3,331.6v-2.1
			h2.1v2.1H491.3z M493.4,335v2.1h-2.1V335H493.4z"/>
	</g>
	<path class="st1" d="M508,328.8v-6.3l-6.6,2.3v14.5h6.6h4.1v-8.3L508,328.8z M507,338h-4.6v-0.7h4.6V338z M507,336.4h-4.6v-0.7h4.6
		V336.4z M507,334.8h-4.6v-0.7h4.6V334.8z M507,333.2h-4.6v-0.7h4.6V333.2z M507,331.6h-4.6v-0.7h4.6V331.6z M507,329.9h-4.6v-0.7
		h4.6V329.9z M507,328.3h-4.6v-0.7h4.6V328.3z M507,326.7h-4.6V326h4.6V326.7z M509.3,338.2h-1v-1h1V338.2z M509.3,336.5h-1v-1h1
		V336.5z M509.3,334.8h-1v-1h1V334.8z M509.3,333.1h-1v-1h1V333.1z M511.1,338.2h-1v-1h1V338.2z M511.1,336.5h-1v-1h1V336.5z
		 M511.1,334.8h-1v-1h1V334.8z M511.1,333.1h-1v-1h1V333.1z"/>
	<path class="st1" d="M191.7,326.8v12.9h2.7v-1.8h1.2v1.8h2.7v-12.9H191.7z M197.6,336.5h-5.2v-0.6h5.2V336.5z M197.6,335h-5.2v-0.6
		h5.2V335z M197.6,333.6h-5.2V333h5.2V333.6z M197.6,332.1h-5.2v-0.6h5.2V332.1z M197.6,330.6h-5.2V330h5.2V330.6z M197.6,329.2
		h-5.2v-0.6h5.2V329.2z"/>
	<path class="st1" d="M183.9,329.1v-6.3l-6.6,2.3v14.5h6.6h4.1v-8.3L183.9,329.1z M182.8,338.3h-4.6v-0.7h4.6V338.3z M182.8,336.7
		h-4.6V336h4.6V336.7z M182.8,335.1h-4.6v-0.7h4.6V335.1z M182.8,333.5h-4.6v-0.7h4.6V333.5z M182.8,331.8h-4.6v-0.7h4.6V331.8z
		 M182.8,330.2h-4.6v-0.7h4.6V330.2z M182.8,328.6h-4.6v-0.7h4.6V328.6z M182.8,327h-4.6v-0.7h4.6V327z M185.2,338.5h-1v-1h1V338.5z
		 M185.2,336.8h-1v-1h1V336.8z M185.2,335.1h-1v-1h1V335.1z M185.2,333.4h-1v-1h1V333.4z M187,338.5h-1v-1h1V338.5z M187,336.8h-1
		v-1h1V336.8z M187,335.1h-1v-1h1V335.1z M187,333.4h-1v-1h1V333.4z"/>
	<path class="st1" d="M245.9,326.8v12.9h2.7v-1.8h1.2v1.8h2.7v-12.9H245.9z M251.8,336.5h-5.2v-0.6h5.2V336.5z M251.8,335h-5.2v-0.6
		h5.2V335z M251.8,333.6h-5.2V333h5.2V333.6z M251.8,332.1h-5.2v-0.6h5.2V332.1z M251.8,330.6h-5.2V330h5.2V330.6z M251.8,329.2
		h-5.2v-0.6h5.2V329.2z"/>
	<g>
		<polygon class="st1" points="221.1,324.9 215.3,328.3 215.7,328.9 221.1,325.8 226.5,328.9 226.8,328.3 		"/>
		<path class="st1" d="M225.5,328.9L225.5,328.9l-4.4-2.5l-4.4,2.5h0v9.9h-1v0.9h1h8.8h1v-0.9h-1V328.9z M220.7,332.6v2.1h-2.1v-2.1
			H220.7z M218.6,331.8v-2.1h2.1v2.1H218.6z M220.7,335.3v2.1h-2.1v-2.1H220.7z M223.5,332.6v2.1h-2.1v-2.1H223.5z M221.4,331.8
			v-2.1h2.1v2.1H221.4z M223.5,335.3v2.1h-2.1v-2.1H223.5z"/>
	</g>
	<g>
		<rect x="202" y="325.8" class="st1" width="9.6" height="0.9"/>
		<path class="st1" d="M202,339.7h9.6v-12.5H202V339.7z M208.6,329.6h2.1v2.1h-2.1V329.6z M208.6,332.3h2.1v2.1h-2.1V332.3z
			 M208.6,335.1h2.1v2.1h-2.1V335.1z M205.8,329.6h2.1v2.1h-2.1V329.6z M205.8,332.3h2.1v2.1h-2.1V332.3z M205.8,335.1h2.1v2.1h-2.1
			V335.1z M203.1,329.6h2.1v2.1h-2.1V329.6z M203.1,332.3h2.1v2.1h-2.1V332.3z M203.1,335.1h2.1v2.1h-2.1V335.1z"/>
	</g>
	<path class="st1" d="M238.1,329.1v-6.3l-6.6,2.3v14.5h6.6h4.1v-8.3L238.1,329.1z M237.1,338.3h-4.6v-0.7h4.6V338.3z M237.1,336.7
		h-4.6V336h4.6V336.7z M237.1,335.1h-4.6v-0.7h4.6V335.1z M237.1,333.5h-4.6v-0.7h4.6V333.5z M237.1,331.8h-4.6v-0.7h4.6V331.8z
		 M237.1,330.2h-4.6v-0.7h4.6V330.2z M237.1,328.6h-4.6v-0.7h4.6V328.6z M237.1,327h-4.6v-0.7h4.6V327z M239.4,338.5h-1v-1h1V338.5z
		 M239.4,336.8h-1v-1h1V336.8z M239.4,335.1h-1v-1h1V335.1z M239.4,333.4h-1v-1h1V333.4z M241.2,338.5h-1v-1h1V338.5z M241.2,336.8
		h-1v-1h1V336.8z M241.2,335.1h-1v-1h1V335.1z M241.2,333.4h-1v-1h1V333.4z"/>
	<path class="st1" d="M300.2,326.8v12.9h2.7v-1.8h1.2v1.8h2.7v-12.9H300.2z M306,336.5h-5.2v-0.6h5.2V336.5z M306,335h-5.2v-0.6h5.2
		V335z M306,333.6h-5.2V333h5.2V333.6z M306,332.1h-5.2v-0.6h5.2V332.1z M306,330.6h-5.2V330h5.2V330.6z M306,329.2h-5.2v-0.6h5.2
		V329.2z"/>
	<g>
		<polygon class="st1" points="275.3,324.9 269.6,328.3 269.9,328.9 275.3,325.8 280.7,328.9 281,328.3 		"/>
		<path class="st1" d="M279.7,328.9L279.7,328.9l-4.4-2.5l-4.4,2.5h0v9.9h-1v0.9h1h8.8h1v-0.9h-1V328.9z M275,332.6v2.1h-2.1v-2.1
			H275z M272.9,331.8v-2.1h2.1v2.1H272.9z M275,335.3v2.1h-2.1v-2.1H275z M277.7,332.6v2.1h-2.1v-2.1H277.7z M275.7,331.8v-2.1h2.1
			v2.1H275.7z M277.7,335.3v2.1h-2.1v-2.1H277.7z"/>
	</g>
	<g>
		<rect x="256.3" y="325.8" class="st1" width="9.6" height="0.9"/>
		<path class="st1" d="M256.3,339.7h9.6v-12.5h-9.6V339.7z M262.8,329.6h2.1v2.1h-2.1V329.6z M262.8,332.3h2.1v2.1h-2.1V332.3z
			 M262.8,335.1h2.1v2.1h-2.1V335.1z M260.1,329.6h2.1v2.1h-2.1V329.6z M260.1,332.3h2.1v2.1h-2.1V332.3z M260.1,335.1h2.1v2.1h-2.1
			V335.1z M257.3,329.6h2.1v2.1h-2.1V329.6z M257.3,332.3h2.1v2.1h-2.1V332.3z M257.3,335.1h2.1v2.1h-2.1V335.1z"/>
	</g>
	<path class="st1" d="M292.3,329.1v-6.3l-6.6,2.3v14.5h6.6h4.1v-8.3L292.3,329.1z M291.3,338.3h-4.6v-0.7h4.6V338.3z M291.3,336.7
		h-4.6V336h4.6V336.7z M291.3,335.1h-4.6v-0.7h4.6V335.1z M291.3,333.5h-4.6v-0.7h4.6V333.5z M291.3,331.8h-4.6v-0.7h4.6V331.8z
		 M291.3,330.2h-4.6v-0.7h4.6V330.2z M291.3,328.6h-4.6v-0.7h4.6V328.6z M291.3,327h-4.6v-0.7h4.6V327z M293.7,338.5h-1v-1h1V338.5z
		 M293.7,336.8h-1v-1h1V336.8z M293.7,335.1h-1v-1h1V335.1z M293.7,333.4h-1v-1h1V333.4z M295.5,338.5h-1v-1h1V338.5z M295.5,336.8
		h-1v-1h1V336.8z M295.5,335.1h-1v-1h1V335.1z M295.5,333.4h-1v-1h1V333.4z"/>
	<path class="st1" d="M354.4,326.8v12.9h2.7v-1.8h1.2v1.8h2.7v-12.9H354.4z M360.3,336.5h-5.2v-0.6h5.2V336.5z M360.3,335h-5.2v-0.6
		h5.2V335z M360.3,333.6h-5.2V333h5.2V333.6z M360.3,332.1h-5.2v-0.6h5.2V332.1z M360.3,330.6h-5.2V330h5.2V330.6z M360.3,329.2
		h-5.2v-0.6h5.2V329.2z"/>
	<g>
		<polygon class="st1" points="329.5,324.9 323.8,328.3 324.1,328.9 329.5,325.8 334.9,328.9 335.3,328.3 		"/>
		<path class="st1" d="M334,328.9L334,328.9l-4.4-2.5l-4.4,2.5h0v9.9h-1v0.9h1h8.8h1v-0.9h-1V328.9z M329.2,332.6v2.1h-2.1v-2.1
			H329.2z M327.1,331.8v-2.1h2.1v2.1H327.1z M329.2,335.3v2.1h-2.1v-2.1H329.2z M332,332.6v2.1h-2.1v-2.1H332z M329.9,331.8v-2.1
			h2.1v2.1H329.9z M332,335.3v2.1h-2.1v-2.1H332z"/>
	</g>
	<g>
		<rect x="310.5" y="325.8" class="st1" width="9.6" height="0.9"/>
		<path class="st1" d="M310.5,339.7h9.6v-12.5h-9.6V339.7z M317,329.6h2.1v2.1H317V329.6z M317,332.3h2.1v2.1H317V332.3z M317,335.1
			h2.1v2.1H317V335.1z M314.3,329.6h2.1v2.1h-2.1V329.6z M314.3,332.3h2.1v2.1h-2.1V332.3z M314.3,335.1h2.1v2.1h-2.1V335.1z
			 M311.6,329.6h2.1v2.1h-2.1V329.6z M311.6,332.3h2.1v2.1h-2.1V332.3z M311.6,335.1h2.1v2.1h-2.1V335.1z"/>
	</g>
	<path class="st1" d="M346.6,329.1v-6.3l-6.6,2.3v14.5h6.6h4.1v-8.3L346.6,329.1z M345.5,338.3H341v-0.7h4.6V338.3z M345.5,336.7
		H341V336h4.6V336.7z M345.5,335.1H341v-0.7h4.6V335.1z M345.5,333.5H341v-0.7h4.6V333.5z M345.5,331.8H341v-0.7h4.6V331.8z
		 M345.5,330.2H341v-0.7h4.6V330.2z M345.5,328.6H341v-0.7h4.6V328.6z M345.5,327H341v-0.7h4.6V327z M347.9,338.5h-1v-1h1V338.5z
		 M347.9,336.8h-1v-1h1V336.8z M347.9,335.1h-1v-1h1V335.1z M347.9,333.4h-1v-1h1V333.4z M349.7,338.5h-1v-1h1V338.5z M349.7,336.8
		h-1v-1h1V336.8z M349.7,335.1h-1v-1h1V335.1z M349.7,333.4h-1v-1h1V333.4z"/>
	<path class="st1" d="M408.6,326.8v12.9h2.7v-1.8h1.2v1.8h2.7v-12.9H408.6z M414.5,336.5h-5.2v-0.6h5.2V336.5z M414.5,335h-5.2v-0.6
		h5.2V335z M414.5,333.6h-5.2V333h5.2V333.6z M414.5,332.1h-5.2v-0.6h5.2V332.1z M414.5,330.6h-5.2V330h5.2V330.6z M414.5,329.2
		h-5.2v-0.6h5.2V329.2z"/>
	<g>
		<polygon class="st1" points="383.8,324.9 378,328.3 378.4,328.9 383.8,325.8 389.2,328.9 389.5,328.3 		"/>
		<path class="st1" d="M388.2,328.9L388.2,328.9l-4.4-2.5l-4.4,2.5h0v9.9h-1v0.9h1h8.8h1v-0.9h-1V328.9z M383.4,332.6v2.1h-2.1v-2.1
			H383.4z M381.3,331.8v-2.1h2.1v2.1H381.3z M383.4,335.3v2.1h-2.1v-2.1H383.4z M386.2,332.6v2.1h-2.1v-2.1H386.2z M384.1,331.8
			v-2.1h2.1v2.1H384.1z M386.2,335.3v2.1h-2.1v-2.1H386.2z"/>
	</g>
	<g>
		<rect x="364.8" y="325.8" class="st1" width="9.6" height="0.9"/>
		<path class="st1" d="M364.8,339.7h9.6v-12.5h-9.6V339.7z M371.3,329.6h2.1v2.1h-2.1V329.6z M371.3,332.3h2.1v2.1h-2.1V332.3z
			 M371.3,335.1h2.1v2.1h-2.1V335.1z M368.6,329.6h2.1v2.1h-2.1V329.6z M368.6,332.3h2.1v2.1h-2.1V332.3z M368.6,335.1h2.1v2.1h-2.1
			V335.1z M365.8,329.6h2.1v2.1h-2.1V329.6z M365.8,332.3h2.1v2.1h-2.1V332.3z M365.8,335.1h2.1v2.1h-2.1V335.1z"/>
	</g>
	<path class="st1" d="M400.8,329.1v-6.3l-6.6,2.3v14.5h6.6h4.1v-8.3L400.8,329.1z M399.8,338.3h-4.6v-0.7h4.6V338.3z M399.8,336.7
		h-4.6V336h4.6V336.7z M399.8,335.1h-4.6v-0.7h4.6V335.1z M399.8,333.5h-4.6v-0.7h4.6V333.5z M399.8,331.8h-4.6v-0.7h4.6V331.8z
		 M399.8,330.2h-4.6v-0.7h4.6V330.2z M399.8,328.6h-4.6v-0.7h4.6V328.6z M399.8,327h-4.6v-0.7h4.6V327z M402.1,338.5h-1v-1h1V338.5z
		 M402.1,336.8h-1v-1h1V336.8z M402.1,335.1h-1v-1h1V335.1z M402.1,333.4h-1v-1h1V333.4z M403.9,338.5h-1v-1h1V338.5z M403.9,336.8
		h-1v-1h1V336.8z M403.9,335.1h-1v-1h1V335.1z M403.9,333.4h-1v-1h1V333.4z"/>
	<g>
		<polygon class="st1" points="438,324.9 432.3,328.3 432.6,328.9 438,325.8 443.4,328.9 443.8,328.3 		"/>
		<path class="st1" d="M442.4,328.9L442.4,328.9l-4.4-2.5l-4.4,2.5h0v9.9h-1v0.9h1h8.8h1v-0.9h-1V328.9z M437.7,332.6v2.1h-2.1v-2.1
			H437.7z M435.6,331.8v-2.1h2.1v2.1H435.6z M437.7,335.3v2.1h-2.1v-2.1H437.7z M440.5,332.6v2.1h-2.1v-2.1H440.5z M438.4,331.8
			v-2.1h2.1v2.1H438.4z M440.5,335.3v2.1h-2.1v-2.1H440.5z"/>
	</g>
	<g>
		<rect x="419" y="325.8" class="st1" width="9.6" height="0.9"/>
		<path class="st1" d="M419,339.7h9.6v-12.5H419V339.7z M425.5,329.6h2.1v2.1h-2.1V329.6z M425.5,332.3h2.1v2.1h-2.1V332.3z
			 M425.5,335.1h2.1v2.1h-2.1V335.1z M422.8,329.6h2.1v2.1h-2.1V329.6z M422.8,332.3h2.1v2.1h-2.1V332.3z M422.8,335.1h2.1v2.1h-2.1
			V335.1z M420,329.6h2.1v2.1H420V329.6z M420,332.3h2.1v2.1H420V332.3z M420,335.1h2.1v2.1H420V335.1z"/>
	</g>
	<path class="st1" d="M461.7,326.8v12.9h2.7v-1.8h1.2v1.8h2.7v-12.9H461.7z M467.5,336.5h-5.2v-0.6h5.2V336.5z M467.5,335h-5.2v-0.6
		h5.2V335z M467.5,333.6h-5.2V333h5.2V333.6z M467.5,332.1h-5.2v-0.6h5.2V332.1z M467.5,330.6h-5.2V330h5.2V330.6z M467.5,329.2
		h-5.2v-0.6h5.2V329.2z"/>
	<path class="st1" d="M453.8,329.1v-6.3l-6.6,2.3v14.5h6.6h4.1v-8.3L453.8,329.1z M452.8,338.3h-4.6v-0.7h4.6V338.3z M452.8,336.7
		h-4.6V336h4.6V336.7z M452.8,335.1h-4.6v-0.7h4.6V335.1z M452.8,333.5h-4.6v-0.7h4.6V333.5z M452.8,331.8h-4.6v-0.7h4.6V331.8z
		 M452.8,330.2h-4.6v-0.7h4.6V330.2z M452.8,328.6h-4.6v-0.7h4.6V328.6z M452.8,327h-4.6v-0.7h4.6V327z M455.2,338.5h-1v-1h1V338.5z
		 M455.2,336.8h-1v-1h1V336.8z M455.2,335.1h-1v-1h1V335.1z M455.2,333.4h-1v-1h1V333.4z M457,338.5h-1v-1h1V338.5z M457,336.8h-1
		v-1h1V336.8z M457,335.1h-1v-1h1V335.1z M457,333.4h-1v-1h1V333.4z"/>
	<g>
		<rect x="472" y="325.8" class="st1" width="9.6" height="0.9"/>
		<path class="st1" d="M472,339.7h9.6v-12.5H472V339.7z M478.5,329.6h2.1v2.1h-2.1V329.6z M478.5,332.3h2.1v2.1h-2.1V332.3z
			 M478.5,335.1h2.1v2.1h-2.1V335.1z M475.8,329.6h2.1v2.1h-2.1V329.6z M475.8,332.3h2.1v2.1h-2.1V332.3z M475.8,335.1h2.1v2.1h-2.1
			V335.1z M473.1,329.6h2.1v2.1h-2.1V329.6z M473.1,332.3h2.1v2.1h-2.1V332.3z M473.1,335.1h2.1v2.1h-2.1V335.1z"/>
	</g>
</g>
<path class="st1" d="M164.6,229.8v12.9h2.7V241h1.2v1.8h2.7v-12.9H164.6z M170.5,239.6h-5.2V239h5.2V239.6z M170.5,238.1h-5.2v-0.6
	h5.2V238.1z M170.5,236.7h-5.2V236h5.2V236.7z M170.5,235.2h-5.2v-0.6h5.2V235.2z M170.5,233.7h-5.2v-0.6h5.2V233.7z M170.5,232.2
	h-5.2v-0.6h5.2V232.2z"/>
<g>
	<polygon class="st1" points="139.8,228 134,231.4 134.4,232 139.8,228.8 145.2,232 145.5,231.4 	"/>
	<path class="st1" d="M144.2,232L144.2,232l-4.4-2.5l-4.4,2.5h0v9.9h-1v0.9h1h8.8h1v-0.9h-1V232z M139.4,235.6v2.1h-2.1v-2.1H139.4z
		 M137.3,234.9v-2.1h2.1v2.1H137.3z M139.4,238.4v2.1h-2.1v-2.1H139.4z M142.2,235.6v2.1h-2.1v-2.1H142.2z M140.1,234.9v-2.1h2.1
		v2.1H140.1z M142.2,238.4v2.1h-2.1v-2.1H142.2z"/>
</g>
<g>
	<rect x="120.8" y="228.9" class="st1" width="9.6" height="0.9"/>
	<path class="st1" d="M120.8,242.7h9.6v-12.5h-9.6V242.7z M127.3,232.7h2.1v2.1h-2.1V232.7z M127.3,235.4h2.1v2.1h-2.1V235.4z
		 M127.3,238.2h2.1v2.1h-2.1V238.2z M124.5,232.7h2.1v2.1h-2.1V232.7z M124.5,235.4h2.1v2.1h-2.1V235.4z M124.5,238.2h2.1v2.1h-2.1
		V238.2z M121.8,232.7h2.1v2.1h-2.1V232.7z M121.8,235.4h2.1v2.1h-2.1V235.4z M121.8,238.2h2.1v2.1h-2.1V238.2z"/>
</g>
<path class="st1" d="M156.8,232.1v-6.3l-6.6,2.3v14.5h6.6h4.1v-8.3L156.8,232.1z M155.8,241.4h-4.6v-0.7h4.6V241.4z M155.8,239.8
	h-4.6v-0.7h4.6V239.8z M155.8,238.2h-4.6v-0.7h4.6V238.2z M155.8,236.5h-4.6v-0.7h4.6V236.5z M155.8,234.9h-4.6v-0.7h4.6V234.9z
	 M155.8,233.3h-4.6v-0.7h4.6V233.3z M155.8,231.7h-4.6V231h4.6V231.7z M155.8,230.1h-4.6v-0.7h4.6V230.1z M158.1,241.6h-1v-1h1
	V241.6z M158.1,239.9h-1v-1h1V239.9z M158.1,238.2h-1v-1h1V238.2z M158.1,236.5h-1v-1h1V236.5z M159.9,241.6h-1v-1h1V241.6z
	 M159.9,239.9h-1v-1h1V239.9z M159.9,238.2h-1v-1h1V238.2z M159.9,236.5h-1v-1h1V236.5z"/>
<path class="st1" d="M218.9,229.8v12.9h2.7V241h1.2v1.8h2.7v-12.9H218.9z M224.7,239.6h-5.2V239h5.2V239.6z M224.7,238.1h-5.2v-0.6
	h5.2V238.1z M224.7,236.7h-5.2V236h5.2V236.7z M224.7,235.2h-5.2v-0.6h5.2V235.2z M224.7,233.7h-5.2v-0.6h5.2V233.7z M224.7,232.2
	h-5.2v-0.6h5.2V232.2z"/>
<g>
	<polygon class="st1" points="194,228 188.3,231.4 188.6,232 194,228.8 199.4,232 199.8,231.4 	"/>
	<path class="st1" d="M198.4,232L198.4,232l-4.4-2.5l-4.4,2.5h0v9.9h-1v0.9h1h8.8h1v-0.9h-1V232z M193.7,235.6v2.1h-2.1v-2.1H193.7z
		 M191.6,234.9v-2.1h2.1v2.1H191.6z M193.7,238.4v2.1h-2.1v-2.1H193.7z M196.5,235.6v2.1h-2.1v-2.1H196.5z M194.4,234.9v-2.1h2.1
		v2.1H194.4z M196.5,238.4v2.1h-2.1v-2.1H196.5z"/>
</g>
<g>
	<rect x="175" y="228.9" class="st1" width="9.6" height="0.9"/>
	<path class="st1" d="M175,242.7h9.6v-12.5H175V242.7z M181.5,232.7h2.1v2.1h-2.1V232.7z M181.5,235.4h2.1v2.1h-2.1V235.4z
		 M181.5,238.2h2.1v2.1h-2.1V238.2z M178.8,232.7h2.1v2.1h-2.1V232.7z M178.8,235.4h2.1v2.1h-2.1V235.4z M178.8,238.2h2.1v2.1h-2.1
		V238.2z M176,232.7h2.1v2.1H176V232.7z M176,235.4h2.1v2.1H176V235.4z M176,238.2h2.1v2.1H176V238.2z"/>
</g>
<path class="st1" d="M211.1,232.1v-6.3l-6.6,2.3v14.5h6.6h4.1v-8.3L211.1,232.1z M210,241.4h-4.6v-0.7h4.6V241.4z M210,239.8h-4.6
	v-0.7h4.6V239.8z M210,238.2h-4.6v-0.7h4.6V238.2z M210,236.5h-4.6v-0.7h4.6V236.5z M210,234.9h-4.6v-0.7h4.6V234.9z M210,233.3
	h-4.6v-0.7h4.6V233.3z M210,231.7h-4.6V231h4.6V231.7z M210,230.1h-4.6v-0.7h4.6V230.1z M212.4,241.6h-1v-1h1V241.6z M212.4,239.9
	h-1v-1h1V239.9z M212.4,238.2h-1v-1h1V238.2z M212.4,236.5h-1v-1h1V236.5z M214.2,241.6h-1v-1h1V241.6z M214.2,239.9h-1v-1h1V239.9z
	 M214.2,238.2h-1v-1h1V238.2z M214.2,236.5h-1v-1h1V236.5z"/>
<path class="st1" d="M273.1,229.8v12.9h2.7V241h1.2v1.8h2.7v-12.9H273.1z M279,239.6h-5.2V239h5.2V239.6z M279,238.1h-5.2v-0.6h5.2
	V238.1z M279,236.7h-5.2V236h5.2V236.7z M279,235.2h-5.2v-0.6h5.2V235.2z M279,233.7h-5.2v-0.6h5.2V233.7z M279,232.2h-5.2v-0.6h5.2
	V232.2z"/>
<g>
	<polygon class="st1" points="248.2,228 242.5,231.4 242.8,232 248.2,228.8 253.6,232 254,231.4 	"/>
	<path class="st1" d="M252.7,232L252.7,232l-4.4-2.5l-4.4,2.5h0v9.9h-1v0.9h1h8.8h1v-0.9h-1V232z M247.9,235.6v2.1h-2.1v-2.1H247.9z
		 M245.8,234.9v-2.1h2.1v2.1H245.8z M247.9,238.4v2.1h-2.1v-2.1H247.9z M250.7,235.6v2.1h-2.1v-2.1H250.7z M248.6,234.9v-2.1h2.1
		v2.1H248.6z M250.7,238.4v2.1h-2.1v-2.1H250.7z"/>
</g>
<g>
	<rect x="229.2" y="228.9" class="st1" width="9.6" height="0.9"/>
	<path class="st1" d="M229.2,242.7h9.6v-12.5h-9.6V242.7z M235.7,232.7h2.1v2.1h-2.1V232.7z M235.7,235.4h2.1v2.1h-2.1V235.4z
		 M235.7,238.2h2.1v2.1h-2.1V238.2z M233,232.7h2.1v2.1H233V232.7z M233,235.4h2.1v2.1H233V235.4z M233,238.2h2.1v2.1H233V238.2z
		 M230.3,232.7h2.1v2.1h-2.1V232.7z M230.3,235.4h2.1v2.1h-2.1V235.4z M230.3,238.2h2.1v2.1h-2.1V238.2z"/>
</g>
<path class="st1" d="M265.3,232.1v-6.3l-6.6,2.3v14.5h6.6h4.1v-8.3L265.3,232.1z M264.2,241.4h-4.6v-0.7h4.6V241.4z M264.2,239.8
	h-4.6v-0.7h4.6V239.8z M264.2,238.2h-4.6v-0.7h4.6V238.2z M264.2,236.5h-4.6v-0.7h4.6V236.5z M264.2,234.9h-4.6v-0.7h4.6V234.9z
	 M264.2,233.3h-4.6v-0.7h4.6V233.3z M264.2,231.7h-4.6V231h4.6V231.7z M264.2,230.1h-4.6v-0.7h4.6V230.1z M266.6,241.6h-1v-1h1
	V241.6z M266.6,239.9h-1v-1h1V239.9z M266.6,238.2h-1v-1h1V238.2z M266.6,236.5h-1v-1h1V236.5z M268.4,241.6h-1v-1h1V241.6z
	 M268.4,239.9h-1v-1h1V239.9z M268.4,238.2h-1v-1h1V238.2z M268.4,236.5h-1v-1h1V236.5z"/>
<path class="st1" d="M327.3,229.8v12.9h2.7V241h1.2v1.8h2.7v-12.9H327.3z M333.2,239.6h-5.2V239h5.2V239.6z M333.2,238.1h-5.2v-0.6
	h5.2V238.1z M333.2,236.7h-5.2V236h5.2V236.7z M333.2,235.2h-5.2v-0.6h5.2V235.2z M333.2,233.7h-5.2v-0.6h5.2V233.7z M333.2,232.2
	h-5.2v-0.6h5.2V232.2z"/>
<g>
	<polygon class="st1" points="302.5,228 296.7,231.4 297.1,232 302.5,228.8 307.9,232 308.2,231.4 	"/>
	<path class="st1" d="M306.9,232L306.9,232l-4.4-2.5l-4.4,2.5h0v9.9h-1v0.9h1h8.8h1v-0.9h-1V232z M302.1,235.6v2.1H300v-2.1H302.1z
		 M300,234.9v-2.1h2.1v2.1H300z M302.1,238.4v2.1H300v-2.1H302.1z M304.9,235.6v2.1h-2.1v-2.1H304.9z M302.8,234.9v-2.1h2.1v2.1
		H302.8z M304.9,238.4v2.1h-2.1v-2.1H304.9z"/>
</g>
<g>
	<rect x="283.5" y="228.9" class="st1" width="9.6" height="0.9"/>
	<path class="st1" d="M283.5,242.7h9.6v-12.5h-9.6V242.7z M290,232.7h2.1v2.1H290V232.7z M290,235.4h2.1v2.1H290V235.4z M290,238.2
		h2.1v2.1H290V238.2z M287.3,232.7h2.1v2.1h-2.1V232.7z M287.3,235.4h2.1v2.1h-2.1V235.4z M287.3,238.2h2.1v2.1h-2.1V238.2z
		 M284.5,232.7h2.1v2.1h-2.1V232.7z M284.5,235.4h2.1v2.1h-2.1V235.4z M284.5,238.2h2.1v2.1h-2.1V238.2z"/>
</g>
<path class="st1" d="M319.5,232.1v-6.3l-6.6,2.3v14.5h6.6h4.1v-8.3L319.5,232.1z M318.5,241.4h-4.6v-0.7h4.6V241.4z M318.5,239.8
	h-4.6v-0.7h4.6V239.8z M318.5,238.2h-4.6v-0.7h4.6V238.2z M318.5,236.5h-4.6v-0.7h4.6V236.5z M318.5,234.9h-4.6v-0.7h4.6V234.9z
	 M318.5,233.3h-4.6v-0.7h4.6V233.3z M318.5,231.7h-4.6V231h4.6V231.7z M318.5,230.1h-4.6v-0.7h4.6V230.1z M320.8,241.6h-1v-1h1
	V241.6z M320.8,239.9h-1v-1h1V239.9z M320.8,238.2h-1v-1h1V238.2z M320.8,236.5h-1v-1h1V236.5z M322.6,241.6h-1v-1h1V241.6z
	 M322.6,239.9h-1v-1h1V239.9z M322.6,238.2h-1v-1h1V238.2z M322.6,236.5h-1v-1h1V236.5z"/>
<path class="st1" d="M381.6,229.8v12.9h2.7V241h1.2v1.8h2.7v-12.9H381.6z M387.4,239.6h-5.2V239h5.2V239.6z M387.4,238.1h-5.2v-0.6
	h5.2V238.1z M387.4,236.7h-5.2V236h5.2V236.7z M387.4,235.2h-5.2v-0.6h5.2V235.2z M387.4,233.7h-5.2v-0.6h5.2V233.7z M387.4,232.2
	h-5.2v-0.6h5.2V232.2z"/>
<g>
	<polygon class="st1" points="356.7,228 351,231.4 351.3,232 356.7,228.8 362.1,232 362.5,231.4 	"/>
	<path class="st1" d="M361.1,232L361.1,232l-4.4-2.5l-4.4,2.5h0v9.9h-1v0.9h1h8.8h1v-0.9h-1V232z M356.4,235.6v2.1h-2.1v-2.1H356.4z
		 M354.3,234.9v-2.1h2.1v2.1H354.3z M356.4,238.4v2.1h-2.1v-2.1H356.4z M359.2,235.6v2.1h-2.1v-2.1H359.2z M357.1,234.9v-2.1h2.1
		v2.1H357.1z M359.2,238.4v2.1h-2.1v-2.1H359.2z"/>
</g>
<g>
	<rect x="337.7" y="228.9" class="st1" width="9.6" height="0.9"/>
	<path class="st1" d="M337.7,242.7h9.6v-12.5h-9.6V242.7z M344.2,232.7h2.1v2.1h-2.1V232.7z M344.2,235.4h2.1v2.1h-2.1V235.4z
		 M344.2,238.2h2.1v2.1h-2.1V238.2z M341.5,232.7h2.1v2.1h-2.1V232.7z M341.5,235.4h2.1v2.1h-2.1V235.4z M341.5,238.2h2.1v2.1h-2.1
		V238.2z M338.7,232.7h2.1v2.1h-2.1V232.7z M338.7,235.4h2.1v2.1h-2.1V235.4z M338.7,238.2h2.1v2.1h-2.1V238.2z"/>
</g>
<path class="st1" d="M373.8,232.1v-6.3l-6.6,2.3v14.5h6.6h4.1v-8.3L373.8,232.1z M372.7,241.4h-4.6v-0.7h4.6V241.4z M372.7,239.8
	h-4.6v-0.7h4.6V239.8z M372.7,238.2h-4.6v-0.7h4.6V238.2z M372.7,236.5h-4.6v-0.7h4.6V236.5z M372.7,234.9h-4.6v-0.7h4.6V234.9z
	 M372.7,233.3h-4.6v-0.7h4.6V233.3z M372.7,231.7h-4.6V231h4.6V231.7z M372.7,230.1h-4.6v-0.7h4.6V230.1z M375.1,241.6h-1v-1h1
	V241.6z M375.1,239.9h-1v-1h1V239.9z M375.1,238.2h-1v-1h1V238.2z M375.1,236.5h-1v-1h1V236.5z M376.9,241.6h-1v-1h1V241.6z
	 M376.9,239.9h-1v-1h1V239.9z M376.9,238.2h-1v-1h1V238.2z M376.9,236.5h-1v-1h1V236.5z"/>
<path class="st1" d="M435.8,229.8v12.9h2.7V241h1.2v1.8h2.7v-12.9H435.8z M441.7,239.6h-5.2V239h5.2V239.6z M441.7,238.1h-5.2v-0.6
	h5.2V238.1z M441.7,236.7h-5.2V236h5.2V236.7z M441.7,235.2h-5.2v-0.6h5.2V235.2z M441.7,233.7h-5.2v-0.6h5.2V233.7z M441.7,232.2
	h-5.2v-0.6h5.2V232.2z"/>
<g>
	<polygon class="st1" points="410.9,228 405.2,231.4 405.6,232 410.9,228.8 416.3,232 416.7,231.4 	"/>
	<path class="st1" d="M415.4,232L415.4,232l-4.4-2.5l-4.4,2.5h0v9.9h-1v0.9h1h8.8h1v-0.9h-1V232z M410.6,235.6v2.1h-2.1v-2.1H410.6z
		 M408.5,234.9v-2.1h2.1v2.1H408.5z M410.6,238.4v2.1h-2.1v-2.1H410.6z M413.4,235.6v2.1h-2.1v-2.1H413.4z M411.3,234.9v-2.1h2.1
		v2.1H411.3z M413.4,238.4v2.1h-2.1v-2.1H413.4z"/>
</g>
<g>
	<rect x="391.9" y="228.9" class="st1" width="9.6" height="0.9"/>
	<path class="st1" d="M391.9,242.7h9.6v-12.5h-9.6V242.7z M398.5,232.7h2.1v2.1h-2.1V232.7z M398.5,235.4h2.1v2.1h-2.1V235.4z
		 M398.5,238.2h2.1v2.1h-2.1V238.2z M395.7,232.7h2.1v2.1h-2.1V232.7z M395.7,235.4h2.1v2.1h-2.1V235.4z M395.7,238.2h2.1v2.1h-2.1
		V238.2z M393,232.7h2.1v2.1H393V232.7z M393,235.4h2.1v2.1H393V235.4z M393,238.2h2.1v2.1H393V238.2z"/>
</g>
<path class="st1" d="M428,232.1v-6.3l-6.6,2.3v14.5h6.6h4.1v-8.3L428,232.1z M427,241.4h-4.6v-0.7h4.6V241.4z M427,239.8h-4.6v-0.7
	h4.6V239.8z M427,238.2h-4.6v-0.7h4.6V238.2z M427,236.5h-4.6v-0.7h4.6V236.5z M427,234.9h-4.6v-0.7h4.6V234.9z M427,233.3h-4.6
	v-0.7h4.6V233.3z M427,231.7h-4.6V231h4.6V231.7z M427,230.1h-4.6v-0.7h4.6V230.1z M429.3,241.6h-1v-1h1V241.6z M429.3,239.9h-1v-1
	h1V239.9z M429.3,238.2h-1v-1h1V238.2z M429.3,236.5h-1v-1h1V236.5z M431.1,241.6h-1v-1h1V241.6z M431.1,239.9h-1v-1h1V239.9z
	 M431.1,238.2h-1v-1h1V238.2z M431.1,236.5h-1v-1h1V236.5z"/>
<path class="st1" d="M490,229.8v12.9h2.7V241h1.2v1.8h2.7v-12.9H490z M495.9,239.6h-5.2V239h5.2V239.6z M495.9,238.1h-5.2v-0.6h5.2
	V238.1z M495.9,236.7h-5.2V236h5.2V236.7z M495.9,235.2h-5.2v-0.6h5.2V235.2z M495.9,233.7h-5.2v-0.6h5.2V233.7z M495.9,232.2h-5.2
	v-0.6h5.2V232.2z"/>
<g>
	<polygon class="st1" points="465.2,228 459.4,231.4 459.8,232 465.2,228.8 470.6,232 470.9,231.4 	"/>
	<path class="st1" d="M469.6,232L469.6,232l-4.4-2.5l-4.4,2.5h0v9.9h-1v0.9h1h8.8h1v-0.9h-1V232z M464.8,235.6v2.1h-2.1v-2.1H464.8z
		 M462.8,234.9v-2.1h2.1v2.1H462.8z M464.8,238.4v2.1h-2.1v-2.1H464.8z M467.6,235.6v2.1h-2.1v-2.1H467.6z M465.6,234.9v-2.1h2.1
		v2.1H465.6z M467.6,238.4v2.1h-2.1v-2.1H467.6z"/>
</g>
<g>
	<rect x="446.2" y="228.9" class="st1" width="9.6" height="0.9"/>
	<path class="st1" d="M446.2,242.7h9.6v-12.5h-9.6V242.7z M452.7,232.7h2.1v2.1h-2.1V232.7z M452.7,235.4h2.1v2.1h-2.1V235.4z
		 M452.7,238.2h2.1v2.1h-2.1V238.2z M450,232.7h2.1v2.1H450V232.7z M450,235.4h2.1v2.1H450V235.4z M450,238.2h2.1v2.1H450V238.2z
		 M447.2,232.7h2.1v2.1h-2.1V232.7z M447.2,235.4h2.1v2.1h-2.1V235.4z M447.2,238.2h2.1v2.1h-2.1V238.2z"/>
</g>
<path class="st1" d="M482.2,232.1v-6.3l-6.6,2.3v14.5h6.6h4.1v-8.3L482.2,232.1z M481.2,241.4h-4.6v-0.7h4.6V241.4z M481.2,239.8
	h-4.6v-0.7h4.6V239.8z M481.2,238.2h-4.6v-0.7h4.6V238.2z M481.2,236.5h-4.6v-0.7h4.6V236.5z M481.2,234.9h-4.6v-0.7h4.6V234.9z
	 M481.2,233.3h-4.6v-0.7h4.6V233.3z M481.2,231.7h-4.6V231h4.6V231.7z M481.2,230.1h-4.6v-0.7h4.6V230.1z M483.6,241.6h-1v-1h1
	V241.6z M483.6,239.9h-1v-1h1V239.9z M483.6,238.2h-1v-1h1V238.2z M483.6,236.5h-1v-1h1V236.5z M485.3,241.6h-1v-1h1V241.6z
	 M485.3,239.9h-1v-1h1V239.9z M485.3,238.2h-1v-1h1V238.2z M485.3,236.5h-1v-1h1V236.5z"/>
<g>
	<polygon class="st1" points="519.4,228 513.7,231.4 514,232 519.4,228.8 524.8,232 525.2,231.4 	"/>
	<path class="st1" d="M523.8,232L523.8,232l-4.4-2.5l-4.4,2.5h0v9.9h-1v0.9h1h8.8h1v-0.9h-1V232z M519.1,235.6v2.1H517v-2.1H519.1z
		 M517,234.9v-2.1h2.1v2.1H517z M519.1,238.4v2.1H517v-2.1H519.1z M521.9,235.6v2.1h-2.1v-2.1H521.9z M519.8,234.9v-2.1h2.1v2.1
		H519.8z M521.9,238.4v2.1h-2.1v-2.1H521.9z"/>
</g>
<g>
	<rect x="500.4" y="228.9" class="st1" width="9.6" height="0.9"/>
	<path class="st1" d="M500.4,242.7h9.6v-12.5h-9.6V242.7z M506.9,232.7h2.1v2.1h-2.1V232.7z M506.9,235.4h2.1v2.1h-2.1V235.4z
		 M506.9,238.2h2.1v2.1h-2.1V238.2z M504.2,232.7h2.1v2.1h-2.1V232.7z M504.2,235.4h2.1v2.1h-2.1V235.4z M504.2,238.2h2.1v2.1h-2.1
		V238.2z M501.4,232.7h2.1v2.1h-2.1V232.7z M501.4,235.4h2.1v2.1h-2.1V235.4z M501.4,238.2h2.1v2.1h-2.1V238.2z"/>
</g>
<path class="st1" d="M543.7,229.7v12.9h2.7v-1.8h1.2v1.8h2.7v-12.9H543.7z M549.6,239.5h-5.2v-0.6h5.2V239.5z M549.6,238h-5.2v-0.6
	h5.2V238z M549.6,236.5h-5.2v-0.6h5.2V236.5z M549.6,235h-5.2v-0.6h5.2V235z M549.6,233.6h-5.2V233h5.2V233.6z M549.6,232.1h-5.2
	v-0.6h5.2V232.1z"/>
<path class="st1" d="M535.9,232v-6.3l-6.6,2.3v14.5h6.6h4.1v-8.3L535.9,232z M534.9,241.3h-4.6v-0.7h4.6V241.3z M534.9,239.7h-4.6
	V239h4.6V239.7z M534.9,238h-4.6v-0.7h4.6V238z M534.9,236.4h-4.6v-0.7h4.6V236.4z M534.9,234.8h-4.6v-0.7h4.6V234.8z M534.9,233.2
	h-4.6v-0.7h4.6V233.2z M534.9,231.6h-4.6v-0.7h4.6V231.6z M534.9,229.9h-4.6v-0.7h4.6V229.9z M537.2,241.5h-1v-1h1V241.5z
	 M537.2,239.7h-1v-1h1V239.7z M537.2,238.1h-1v-1h1V238.1z M537.2,236.4h-1v-1h1V236.4z M539,241.5h-1v-1h1V241.5z M539,239.7h-1v-1
	h1V239.7z M539,238.1h-1v-1h1V238.1z M539,236.4h-1v-1h1V236.4z"/>
<path class="st1" d="M151.9,249.7v12.9h2.7v-1.8h1.2v1.8h2.7v-12.9H151.9z M157.8,259.5h-5.2v-0.6h5.2V259.5z M157.8,258h-5.2v-0.6
	h5.2V258z M157.8,256.5h-5.2v-0.6h5.2V256.5z M157.8,255h-5.2v-0.6h5.2V255z M157.8,253.6h-5.2V253h5.2V253.6z M157.8,252.1h-5.2
	v-0.6h5.2V252.1z"/>
<g>
	<polygon class="st1" points="127.1,247.9 121.3,251.2 121.7,251.8 127.1,248.7 132.5,251.8 132.8,251.2 	"/>
	<path class="st1" d="M131.5,251.9L131.5,251.9l-4.4-2.5l-4.4,2.5h0v9.9h-1v0.9h1h8.8h1v-0.9h-1V251.9z M126.7,255.5v2.1h-2.1v-2.1
		H126.7z M124.7,254.8v-2.1h2.1v2.1H124.7z M126.7,258.3v2.1h-2.1v-2.1H126.7z M129.5,255.5v2.1h-2.1v-2.1H129.5z M127.4,254.8v-2.1
		h2.1v2.1H127.4z M129.5,258.3v2.1h-2.1v-2.1H129.5z"/>
</g>
<g>
	<rect x="554.1" y="228.8" class="st1" width="9.6" height="0.9"/>
	<path class="st1" d="M554.1,242.6h9.6v-12.5h-9.6V242.6z M560.6,232.5h2.1v2.1h-2.1V232.5z M560.6,235.3h2.1v2.1h-2.1V235.3z
		 M560.6,238h2.1v2.1h-2.1V238z M557.9,232.5h2.1v2.1h-2.1V232.5z M557.9,235.3h2.1v2.1h-2.1V235.3z M557.9,238h2.1v2.1h-2.1V238z
		 M555.1,232.5h2.1v2.1h-2.1V232.5z M555.1,235.3h2.1v2.1h-2.1V235.3z M555.1,238h2.1v2.1h-2.1V238z"/>
</g>
<path class="st1" d="M144.1,252v-6.3l-6.6,2.3v14.5h6.6h4.1v-8.3L144.1,252z M143.1,261.3h-4.6v-0.7h4.6V261.3z M143.1,259.7h-4.6
	V259h4.6V259.7z M143.1,258h-4.6v-0.7h4.6V258z M143.1,256.4h-4.6v-0.7h4.6V256.4z M143.1,254.8h-4.6v-0.7h4.6V254.8z M143.1,253.2
	h-4.6v-0.7h4.6V253.2z M143.1,251.6h-4.6v-0.7h4.6V251.6z M143.1,249.9h-4.6v-0.7h4.6V249.9z M145.5,261.5h-1v-1h1V261.5z
	 M145.5,259.7h-1v-1h1V259.7z M145.5,258.1h-1v-1h1V258.1z M145.5,256.4h-1v-1h1V256.4z M147.2,261.5h-1v-1h1V261.5z M147.2,259.7
	h-1v-1h1V259.7z M147.2,258.1h-1v-1h1V258.1z M147.2,256.4h-1v-1h1V256.4z"/>
<g>
	<rect x="162.3" y="248.8" class="st1" width="9.6" height="0.9"/>
	<path class="st1" d="M162.3,262.6h9.6v-12.5h-9.6V262.6z M168.8,252.5h2.1v2.1h-2.1V252.5z M168.8,255.3h2.1v2.1h-2.1V255.3z
		 M168.8,258h2.1v2.1h-2.1V258z M166.1,252.5h2.1v2.1h-2.1V252.5z M166.1,255.3h2.1v2.1h-2.1V255.3z M166.1,258h2.1v2.1h-2.1V258z
		 M163.3,252.5h2.1v2.1h-2.1V252.5z M163.3,255.3h2.1v2.1h-2.1V255.3z M163.3,258h2.1v2.1h-2.1V258z"/>
</g>
<g>
	<path class="st1" d="M205.8,249.8v12.9h2.7v-1.8h1.2v1.8h2.7v-12.9H205.8z M211.7,259.5h-5.2v-0.6h5.2V259.5z M211.7,258.1h-5.2
		v-0.6h5.2V258.1z M211.7,256.6h-5.2V256h5.2V256.6z M211.7,255.1h-5.2v-0.6h5.2V255.1z M211.7,253.6h-5.2V253h5.2V253.6z
		 M211.7,252.2h-5.2v-0.6h5.2V252.2z"/>
	<g>
		<polygon class="st1" points="180.9,248 175.2,251.3 175.5,251.9 180.9,248.8 186.3,251.9 186.7,251.3 		"/>
		<path class="st1" d="M185.4,252L185.4,252l-4.4-2.5l-4.4,2.5h0v9.9h-1v0.9h1h8.8h1v-0.9h-1V252z M180.6,255.6v2.1h-2.1v-2.1H180.6
			z M178.5,254.9v-2.1h2.1v2.1H178.5z M180.6,258.3v2.1h-2.1v-2.1H180.6z M183.4,255.6v2.1h-2.1v-2.1H183.4z M181.3,254.9v-2.1h2.1
			v2.1H181.3z M183.4,258.3v2.1h-2.1v-2.1H183.4z"/>
	</g>
	<path class="st1" d="M198,252.1v-6.3l-6.6,2.3v14.5h6.6h4.1v-8.3L198,252.1z M197,261.3h-4.6v-0.7h4.6V261.3z M197,259.7h-4.6v-0.7
		h4.6V259.7z M197,258.1h-4.6v-0.7h4.6V258.1z M197,256.5h-4.6v-0.7h4.6V256.5z M197,254.9h-4.6v-0.7h4.6V254.9z M197,253.3h-4.6
		v-0.7h4.6V253.3z M197,251.6h-4.6V251h4.6V251.6z M197,250h-4.6v-0.7h4.6V250z M199.3,261.5h-1v-1h1V261.5z M199.3,259.8h-1v-1h1
		V259.8z M199.3,258.1h-1v-1h1V258.1z M199.3,256.4h-1v-1h1V256.4z M201.1,261.5h-1v-1h1V261.5z M201.1,259.8h-1v-1h1V259.8z
		 M201.1,258.1h-1v-1h1V258.1z M201.1,256.4h-1v-1h1V256.4z"/>
	<path class="st1" d="M260,249.8v12.9h2.7v-1.8h1.2v1.8h2.7v-12.9H260z M265.9,259.5h-5.2v-0.6h5.2V259.5z M265.9,258.1h-5.2v-0.6
		h5.2V258.1z M265.9,256.6h-5.2V256h5.2V256.6z M265.9,255.1h-5.2v-0.6h5.2V255.1z M265.9,253.6h-5.2V253h5.2V253.6z M265.9,252.2
		h-5.2v-0.6h5.2V252.2z"/>
	<g>
		<polygon class="st1" points="235.2,248 229.4,251.3 229.8,251.9 235.2,248.8 240.6,251.9 240.9,251.3 		"/>
		<path class="st1" d="M239.6,252L239.6,252l-4.4-2.5l-4.4,2.5h0v9.9h-1v0.9h1h8.8h1v-0.9h-1V252z M234.8,255.6v2.1h-2.1v-2.1H234.8
			z M232.8,254.9v-2.1h2.1v2.1H232.8z M234.8,258.3v2.1h-2.1v-2.1H234.8z M237.6,255.6v2.1h-2.1v-2.1H237.6z M235.5,254.9v-2.1h2.1
			v2.1H235.5z M237.6,258.3v2.1h-2.1v-2.1H237.6z"/>
	</g>
	<g>
		<rect x="216.2" y="248.8" class="st1" width="9.6" height="0.9"/>
		<path class="st1" d="M216.2,262.7h9.6v-12.5h-9.6V262.7z M222.7,252.6h2.1v2.1h-2.1V252.6z M222.7,255.4h2.1v2.1h-2.1V255.4z
			 M222.7,258.1h2.1v2.1h-2.1V258.1z M220,252.6h2.1v2.1H220V252.6z M220,255.4h2.1v2.1H220V255.4z M220,258.1h2.1v2.1H220V258.1z
			 M217.2,252.6h2.1v2.1h-2.1V252.6z M217.2,255.4h2.1v2.1h-2.1V255.4z M217.2,258.1h2.1v2.1h-2.1V258.1z"/>
	</g>
	<path class="st1" d="M252.2,252.1v-6.3l-6.6,2.3v14.5h6.6h4.1v-8.3L252.2,252.1z M251.2,261.3h-4.6v-0.7h4.6V261.3z M251.2,259.7
		h-4.6v-0.7h4.6V259.7z M251.2,258.1h-4.6v-0.7h4.6V258.1z M251.2,256.5h-4.6v-0.7h4.6V256.5z M251.2,254.9h-4.6v-0.7h4.6V254.9z
		 M251.2,253.3h-4.6v-0.7h4.6V253.3z M251.2,251.6h-4.6V251h4.6V251.6z M251.2,250h-4.6v-0.7h4.6V250z M253.6,261.5h-1v-1h1V261.5z
		 M253.6,259.8h-1v-1h1V259.8z M253.6,258.1h-1v-1h1V258.1z M253.6,256.4h-1v-1h1V256.4z M255.3,261.5h-1v-1h1V261.5z M255.3,259.8
		h-1v-1h1V259.8z M255.3,258.1h-1v-1h1V258.1z M255.3,256.4h-1v-1h1V256.4z"/>
	<g>
		<polygon class="st1" points="289.4,248 283.7,251.3 284,251.9 289.4,248.8 294.8,251.9 295.2,251.3 		"/>
		<path class="st1" d="M293.8,252L293.8,252l-4.4-2.5l-4.4,2.5h0v9.9h-1v0.9h1h8.8h1v-0.9h-1V252z M289.1,255.6v2.1H287v-2.1H289.1z
			 M287,254.9v-2.1h2.1v2.1H287z M289.1,258.3v2.1H287v-2.1H289.1z M291.9,255.6v2.1h-2.1v-2.1H291.9z M289.8,254.9v-2.1h2.1v2.1
			H289.8z M291.9,258.3v2.1h-2.1v-2.1H291.9z"/>
	</g>
	<g>
		<rect x="270.4" y="248.8" class="st1" width="9.6" height="0.9"/>
		<path class="st1" d="M270.4,262.7h9.6v-12.5h-9.6V262.7z M276.9,252.6h2.1v2.1h-2.1V252.6z M276.9,255.4h2.1v2.1h-2.1V255.4z
			 M276.9,258.1h2.1v2.1h-2.1V258.1z M274.2,252.6h2.1v2.1h-2.1V252.6z M274.2,255.4h2.1v2.1h-2.1V255.4z M274.2,258.1h2.1v2.1h-2.1
			V258.1z M271.4,252.6h2.1v2.1h-2.1V252.6z M271.4,255.4h2.1v2.1h-2.1V255.4z M271.4,258.1h2.1v2.1h-2.1V258.1z"/>
	</g>
	<path class="st1" d="M315.5,249.8v12.9h2.7v-1.8h1.2v1.8h2.7v-12.9H315.5z M321.4,259.5h-5.2v-0.6h5.2V259.5z M321.4,258.1h-5.2
		v-0.6h5.2V258.1z M321.4,256.6h-5.2V256h5.2V256.6z M321.4,255.1h-5.2v-0.6h5.2V255.1z M321.4,253.6h-5.2V253h5.2V253.6z
		 M321.4,252.2h-5.2v-0.6h5.2V252.2z"/>
	<g>
		<rect x="325.8" y="248.8" class="st1" width="9.6" height="0.9"/>
		<path class="st1" d="M325.8,262.7h9.6v-12.5h-9.6V262.7z M332.4,252.6h2.1v2.1h-2.1V252.6z M332.4,255.4h2.1v2.1h-2.1V255.4z
			 M332.4,258.1h2.1v2.1h-2.1V258.1z M329.6,252.6h2.1v2.1h-2.1V252.6z M329.6,255.4h2.1v2.1h-2.1V255.4z M329.6,258.1h2.1v2.1h-2.1
			V258.1z M326.9,252.6h2.1v2.1h-2.1V252.6z M326.9,255.4h2.1v2.1h-2.1V255.4z M326.9,258.1h2.1v2.1h-2.1V258.1z"/>
	</g>
	<path class="st1" d="M306.5,252.1v-6.3l-6.6,2.3v14.5h6.6h4.1v-8.3L306.5,252.1z M305.4,261.3h-4.6v-0.7h4.6V261.3z M305.4,259.7
		h-4.6v-0.7h4.6V259.7z M305.4,258.1h-4.6v-0.7h4.6V258.1z M305.4,256.5h-4.6v-0.7h4.6V256.5z M305.4,254.9h-4.6v-0.7h4.6V254.9z
		 M305.4,253.3h-4.6v-0.7h4.6V253.3z M305.4,251.6h-4.6V251h4.6V251.6z M305.4,250h-4.6v-0.7h4.6V250z M307.8,261.5h-1v-1h1V261.5z
		 M307.8,259.8h-1v-1h1V259.8z M307.8,258.1h-1v-1h1V258.1z M307.8,256.4h-1v-1h1V256.4z M309.6,261.5h-1v-1h1V261.5z M309.6,259.8
		h-1v-1h1V259.8z M309.6,258.1h-1v-1h1V258.1z M309.6,256.4h-1v-1h1V256.4z"/>
</g>
<g>
	<path class="st1" d="M164.6,168.5v12.9h2.7v-1.8h1.2v1.8h2.7v-12.9H164.6z M170.5,178.3h-5.2v-0.6h5.2V178.3z M170.5,176.8h-5.2
		v-0.6h5.2V176.8z M170.5,175.4h-5.2v-0.6h5.2V175.4z M170.5,173.9h-5.2v-0.6h5.2V173.9z M170.5,172.4h-5.2v-0.6h5.2V172.4z
		 M170.5,170.9h-5.2v-0.6h5.2V170.9z"/>
	<g>
		<polygon class="st1" points="139.8,166.7 134,170 134.4,170.7 139.8,167.5 145.2,170.7 145.5,170 		"/>
		<path class="st1" d="M144.2,170.7L144.2,170.7l-4.4-2.5l-4.4,2.5h0v9.9h-1v0.9h1h8.8h1v-0.9h-1V170.7z M139.4,174.3v2.1h-2.1v-2.1
			H139.4z M137.3,173.6v-2.1h2.1v2.1H137.3z M139.4,177.1v2.1h-2.1v-2.1H139.4z M142.2,174.3v2.1h-2.1v-2.1H142.2z M140.1,173.6
			v-2.1h2.1v2.1H140.1z M142.2,177.1v2.1h-2.1v-2.1H142.2z"/>
	</g>
	<g>
		<rect x="120.8" y="167.6" class="st1" width="9.6" height="0.9"/>
		<path class="st1" d="M120.8,181.4h9.6v-12.5h-9.6V181.4z M127.3,171.4h2.1v2.1h-2.1V171.4z M127.3,174.1h2.1v2.1h-2.1V174.1z
			 M127.3,176.9h2.1v2.1h-2.1V176.9z M124.5,171.4h2.1v2.1h-2.1V171.4z M124.5,174.1h2.1v2.1h-2.1V174.1z M124.5,176.9h2.1v2.1h-2.1
			V176.9z M121.8,171.4h2.1v2.1h-2.1V171.4z M121.8,174.1h2.1v2.1h-2.1V174.1z M121.8,176.9h2.1v2.1h-2.1V176.9z"/>
	</g>
	<path class="st1" d="M156.8,170.8v-6.3l-6.6,2.3v14.5h6.6h4.1v-8.3L156.8,170.8z M155.8,180.1h-4.6v-0.7h4.6V180.1z M155.8,178.5
		h-4.6v-0.7h4.6V178.5z M155.8,176.9h-4.6v-0.7h4.6V176.9z M155.8,175.2h-4.6v-0.7h4.6V175.2z M155.8,173.6h-4.6V173h4.6V173.6z
		 M155.8,172h-4.6v-0.7h4.6V172z M155.8,170.4h-4.6v-0.7h4.6V170.4z M155.8,168.8h-4.6v-0.7h4.6V168.8z M158.1,180.3h-1v-1h1V180.3z
		 M158.1,178.6h-1v-1h1V178.6z M158.1,176.9h-1v-1h1V176.9z M158.1,175.2h-1v-1h1V175.2z M159.9,180.3h-1v-1h1V180.3z M159.9,178.6
		h-1v-1h1V178.6z M159.9,176.9h-1v-1h1V176.9z M159.9,175.2h-1v-1h1V175.2z"/>
	<path class="st1" d="M218.9,168.5v12.9h2.7v-1.8h1.2v1.8h2.7v-12.9H218.9z M224.7,178.3h-5.2v-0.6h5.2V178.3z M224.7,176.8h-5.2
		v-0.6h5.2V176.8z M224.7,175.4h-5.2v-0.6h5.2V175.4z M224.7,173.9h-5.2v-0.6h5.2V173.9z M224.7,172.4h-5.2v-0.6h5.2V172.4z
		 M224.7,170.9h-5.2v-0.6h5.2V170.9z"/>
	<g>
		<polygon class="st1" points="194,166.7 188.3,170 188.6,170.7 194,167.5 199.4,170.7 199.8,170 		"/>
		<path class="st1" d="M198.4,170.7L198.4,170.7l-4.4-2.5l-4.4,2.5h0v9.9h-1v0.9h1h8.8h1v-0.9h-1V170.7z M193.7,174.3v2.1h-2.1v-2.1
			H193.7z M191.6,173.6v-2.1h2.1v2.1H191.6z M193.7,177.1v2.1h-2.1v-2.1H193.7z M196.5,174.3v2.1h-2.1v-2.1H196.5z M194.4,173.6
			v-2.1h2.1v2.1H194.4z M196.5,177.1v2.1h-2.1v-2.1H196.5z"/>
	</g>
	<g>
		<rect x="175" y="167.6" class="st1" width="9.6" height="0.9"/>
		<path class="st1" d="M175,181.4h9.6v-12.5H175V181.4z M181.5,171.4h2.1v2.1h-2.1V171.4z M181.5,174.1h2.1v2.1h-2.1V174.1z
			 M181.5,176.9h2.1v2.1h-2.1V176.9z M178.8,171.4h2.1v2.1h-2.1V171.4z M178.8,174.1h2.1v2.1h-2.1V174.1z M178.8,176.9h2.1v2.1h-2.1
			V176.9z M176,171.4h2.1v2.1H176V171.4z M176,174.1h2.1v2.1H176V174.1z M176,176.9h2.1v2.1H176V176.9z"/>
	</g>
	<path class="st1" d="M211.1,170.8v-6.3l-6.6,2.3v14.5h6.6h4.1v-8.3L211.1,170.8z M210,180.1h-4.6v-0.7h4.6V180.1z M210,178.5h-4.6
		v-0.7h4.6V178.5z M210,176.9h-4.6v-0.7h4.6V176.9z M210,175.2h-4.6v-0.7h4.6V175.2z M210,173.6h-4.6V173h4.6V173.6z M210,172h-4.6
		v-0.7h4.6V172z M210,170.4h-4.6v-0.7h4.6V170.4z M210,168.8h-4.6v-0.7h4.6V168.8z M212.4,180.3h-1v-1h1V180.3z M212.4,178.6h-1v-1
		h1V178.6z M212.4,176.9h-1v-1h1V176.9z M212.4,175.2h-1v-1h1V175.2z M214.2,180.3h-1v-1h1V180.3z M214.2,178.6h-1v-1h1V178.6z
		 M214.2,176.9h-1v-1h1V176.9z M214.2,175.2h-1v-1h1V175.2z"/>
	<path class="st1" d="M273.1,168.5v12.9h2.7v-1.8h1.2v1.8h2.7v-12.9H273.1z M279,178.3h-5.2v-0.6h5.2V178.3z M279,176.8h-5.2v-0.6
		h5.2V176.8z M279,175.4h-5.2v-0.6h5.2V175.4z M279,173.9h-5.2v-0.6h5.2V173.9z M279,172.4h-5.2v-0.6h5.2V172.4z M279,170.9h-5.2
		v-0.6h5.2V170.9z"/>
	<g>
		<polygon class="st1" points="248.2,166.7 242.5,170 242.8,170.7 248.2,167.5 253.6,170.7 254,170 		"/>
		<path class="st1" d="M252.7,170.7L252.7,170.7l-4.4-2.5l-4.4,2.5h0v9.9h-1v0.9h1h8.8h1v-0.9h-1V170.7z M247.9,174.3v2.1h-2.1v-2.1
			H247.9z M245.8,173.6v-2.1h2.1v2.1H245.8z M247.9,177.1v2.1h-2.1v-2.1H247.9z M250.7,174.3v2.1h-2.1v-2.1H250.7z M248.6,173.6
			v-2.1h2.1v2.1H248.6z M250.7,177.1v2.1h-2.1v-2.1H250.7z"/>
	</g>
	<g>
		<rect x="229.2" y="167.6" class="st1" width="9.6" height="0.9"/>
		<path class="st1" d="M229.2,181.4h9.6v-12.5h-9.6V181.4z M235.7,171.4h2.1v2.1h-2.1V171.4z M235.7,174.1h2.1v2.1h-2.1V174.1z
			 M235.7,176.9h2.1v2.1h-2.1V176.9z M233,171.4h2.1v2.1H233V171.4z M233,174.1h2.1v2.1H233V174.1z M233,176.9h2.1v2.1H233V176.9z
			 M230.3,171.4h2.1v2.1h-2.1V171.4z M230.3,174.1h2.1v2.1h-2.1V174.1z M230.3,176.9h2.1v2.1h-2.1V176.9z"/>
	</g>
	<path class="st1" d="M265.3,170.8v-6.3l-6.6,2.3v14.5h6.6h4.1v-8.3L265.3,170.8z M264.2,180.1h-4.6v-0.7h4.6V180.1z M264.2,178.5
		h-4.6v-0.7h4.6V178.5z M264.2,176.9h-4.6v-0.7h4.6V176.9z M264.2,175.2h-4.6v-0.7h4.6V175.2z M264.2,173.6h-4.6V173h4.6V173.6z
		 M264.2,172h-4.6v-0.7h4.6V172z M264.2,170.4h-4.6v-0.7h4.6V170.4z M264.2,168.8h-4.6v-0.7h4.6V168.8z M266.6,180.3h-1v-1h1V180.3z
		 M266.6,178.6h-1v-1h1V178.6z M266.6,176.9h-1v-1h1V176.9z M266.6,175.2h-1v-1h1V175.2z M268.4,180.3h-1v-1h1V180.3z M268.4,178.6
		h-1v-1h1V178.6z M268.4,176.9h-1v-1h1V176.9z M268.4,175.2h-1v-1h1V175.2z"/>
	<path class="st1" d="M327.3,168.5v12.9h2.7v-1.8h1.2v1.8h2.7v-12.9H327.3z M333.2,178.3h-5.2v-0.6h5.2V178.3z M333.2,176.8h-5.2
		v-0.6h5.2V176.8z M333.2,175.4h-5.2v-0.6h5.2V175.4z M333.2,173.9h-5.2v-0.6h5.2V173.9z M333.2,172.4h-5.2v-0.6h5.2V172.4z
		 M333.2,170.9h-5.2v-0.6h5.2V170.9z"/>
	<g>
		<polygon class="st1" points="302.5,166.7 296.7,170 297.1,170.7 302.5,167.5 307.9,170.7 308.2,170 		"/>
		<path class="st1" d="M306.9,170.7L306.9,170.7l-4.4-2.5l-4.4,2.5h0v9.9h-1v0.9h1h8.8h1v-0.9h-1V170.7z M302.1,174.3v2.1H300v-2.1
			H302.1z M300,173.6v-2.1h2.1v2.1H300z M302.1,177.1v2.1H300v-2.1H302.1z M304.9,174.3v2.1h-2.1v-2.1H304.9z M302.8,173.6v-2.1h2.1
			v2.1H302.8z M304.9,177.1v2.1h-2.1v-2.1H304.9z"/>
	</g>
	<g>
		<rect x="283.5" y="167.6" class="st1" width="9.6" height="0.9"/>
		<path class="st1" d="M283.5,181.4h9.6v-12.5h-9.6V181.4z M290,171.4h2.1v2.1H290V171.4z M290,174.1h2.1v2.1H290V174.1z M290,176.9
			h2.1v2.1H290V176.9z M287.3,171.4h2.1v2.1h-2.1V171.4z M287.3,174.1h2.1v2.1h-2.1V174.1z M287.3,176.9h2.1v2.1h-2.1V176.9z
			 M284.5,171.4h2.1v2.1h-2.1V171.4z M284.5,174.1h2.1v2.1h-2.1V174.1z M284.5,176.9h2.1v2.1h-2.1V176.9z"/>
	</g>
	<path class="st1" d="M319.5,170.8v-6.3l-6.6,2.3v14.5h6.6h4.1v-8.3L319.5,170.8z M318.5,180.1h-4.6v-0.7h4.6V180.1z M318.5,178.5
		h-4.6v-0.7h4.6V178.5z M318.5,176.9h-4.6v-0.7h4.6V176.9z M318.5,175.2h-4.6v-0.7h4.6V175.2z M318.5,173.6h-4.6V173h4.6V173.6z
		 M318.5,172h-4.6v-0.7h4.6V172z M318.5,170.4h-4.6v-0.7h4.6V170.4z M318.5,168.8h-4.6v-0.7h4.6V168.8z M320.8,180.3h-1v-1h1V180.3z
		 M320.8,178.6h-1v-1h1V178.6z M320.8,176.9h-1v-1h1V176.9z M320.8,175.2h-1v-1h1V175.2z M322.6,180.3h-1v-1h1V180.3z M322.6,178.6
		h-1v-1h1V178.6z M322.6,176.9h-1v-1h1V176.9z M322.6,175.2h-1v-1h1V175.2z"/>
	<path class="st1" d="M381.6,168.5v12.9h2.7v-1.8h1.2v1.8h2.7v-12.9H381.6z M387.4,178.3h-5.2v-0.6h5.2V178.3z M387.4,176.8h-5.2
		v-0.6h5.2V176.8z M387.4,175.4h-5.2v-0.6h5.2V175.4z M387.4,173.9h-5.2v-0.6h5.2V173.9z M387.4,172.4h-5.2v-0.6h5.2V172.4z
		 M387.4,170.9h-5.2v-0.6h5.2V170.9z"/>
	<g>
		<polygon class="st1" points="356.7,166.7 351,170 351.3,170.7 356.7,167.5 362.1,170.7 362.5,170 		"/>
		<path class="st1" d="M361.1,170.7L361.1,170.7l-4.4-2.5l-4.4,2.5h0v9.9h-1v0.9h1h8.8h1v-0.9h-1V170.7z M356.4,174.3v2.1h-2.1v-2.1
			H356.4z M354.3,173.6v-2.1h2.1v2.1H354.3z M356.4,177.1v2.1h-2.1v-2.1H356.4z M359.2,174.3v2.1h-2.1v-2.1H359.2z M357.1,173.6
			v-2.1h2.1v2.1H357.1z M359.2,177.1v2.1h-2.1v-2.1H359.2z"/>
	</g>
	<g>
		<rect x="337.7" y="167.6" class="st1" width="9.6" height="0.9"/>
		<path class="st1" d="M337.7,181.4h9.6v-12.5h-9.6V181.4z M344.2,171.4h2.1v2.1h-2.1V171.4z M344.2,174.1h2.1v2.1h-2.1V174.1z
			 M344.2,176.9h2.1v2.1h-2.1V176.9z M341.5,171.4h2.1v2.1h-2.1V171.4z M341.5,174.1h2.1v2.1h-2.1V174.1z M341.5,176.9h2.1v2.1h-2.1
			V176.9z M338.7,171.4h2.1v2.1h-2.1V171.4z M338.7,174.1h2.1v2.1h-2.1V174.1z M338.7,176.9h2.1v2.1h-2.1V176.9z"/>
	</g>
	<path class="st1" d="M373.8,170.8v-6.3l-6.6,2.3v14.5h6.6h4.1v-8.3L373.8,170.8z M372.7,180.1h-4.6v-0.7h4.6V180.1z M372.7,178.5
		h-4.6v-0.7h4.6V178.5z M372.7,176.9h-4.6v-0.7h4.6V176.9z M372.7,175.2h-4.6v-0.7h4.6V175.2z M372.7,173.6h-4.6V173h4.6V173.6z
		 M372.7,172h-4.6v-0.7h4.6V172z M372.7,170.4h-4.6v-0.7h4.6V170.4z M372.7,168.8h-4.6v-0.7h4.6V168.8z M375.1,180.3h-1v-1h1V180.3z
		 M375.1,178.6h-1v-1h1V178.6z M375.1,176.9h-1v-1h1V176.9z M375.1,175.2h-1v-1h1V175.2z M376.9,180.3h-1v-1h1V180.3z M376.9,178.6
		h-1v-1h1V178.6z M376.9,176.9h-1v-1h1V176.9z M376.9,175.2h-1v-1h1V175.2z"/>
	<path class="st1" d="M435.8,168.5v12.9h2.7v-1.8h1.2v1.8h2.7v-12.9H435.8z M441.7,178.3h-5.2v-0.6h5.2V178.3z M441.7,176.8h-5.2
		v-0.6h5.2V176.8z M441.7,175.4h-5.2v-0.6h5.2V175.4z M441.7,173.9h-5.2v-0.6h5.2V173.9z M441.7,172.4h-5.2v-0.6h5.2V172.4z
		 M441.7,170.9h-5.2v-0.6h5.2V170.9z"/>
	<g>
		<polygon class="st1" points="410.9,166.7 405.2,170 405.6,170.7 410.9,167.5 416.3,170.7 416.7,170 		"/>
		<path class="st1" d="M415.4,170.7L415.4,170.7l-4.4-2.5l-4.4,2.5h0v9.9h-1v0.9h1h8.8h1v-0.9h-1V170.7z M410.6,174.3v2.1h-2.1v-2.1
			H410.6z M408.5,173.6v-2.1h2.1v2.1H408.5z M410.6,177.1v2.1h-2.1v-2.1H410.6z M413.4,174.3v2.1h-2.1v-2.1H413.4z M411.3,173.6
			v-2.1h2.1v2.1H411.3z M413.4,177.1v2.1h-2.1v-2.1H413.4z"/>
	</g>
	<g>
		<rect x="391.9" y="167.6" class="st1" width="9.6" height="0.9"/>
		<path class="st1" d="M391.9,181.4h9.6v-12.5h-9.6V181.4z M398.5,171.4h2.1v2.1h-2.1V171.4z M398.5,174.1h2.1v2.1h-2.1V174.1z
			 M398.5,176.9h2.1v2.1h-2.1V176.9z M395.7,171.4h2.1v2.1h-2.1V171.4z M395.7,174.1h2.1v2.1h-2.1V174.1z M395.7,176.9h2.1v2.1h-2.1
			V176.9z M393,171.4h2.1v2.1H393V171.4z M393,174.1h2.1v2.1H393V174.1z M393,176.9h2.1v2.1H393V176.9z"/>
	</g>
	<path class="st1" d="M428,170.8v-6.3l-6.6,2.3v14.5h6.6h4.1v-8.3L428,170.8z M427,180.1h-4.6v-0.7h4.6V180.1z M427,178.5h-4.6v-0.7
		h4.6V178.5z M427,176.9h-4.6v-0.7h4.6V176.9z M427,175.2h-4.6v-0.7h4.6V175.2z M427,173.6h-4.6V173h4.6V173.6z M427,172h-4.6v-0.7
		h4.6V172z M427,170.4h-4.6v-0.7h4.6V170.4z M427,168.8h-4.6v-0.7h4.6V168.8z M429.3,180.3h-1v-1h1V180.3z M429.3,178.6h-1v-1h1
		V178.6z M429.3,176.9h-1v-1h1V176.9z M429.3,175.2h-1v-1h1V175.2z M431.1,180.3h-1v-1h1V180.3z M431.1,178.6h-1v-1h1V178.6z
		 M431.1,176.9h-1v-1h1V176.9z M431.1,175.2h-1v-1h1V175.2z"/>
	<path class="st1" d="M490,168.5v12.9h2.7v-1.8h1.2v1.8h2.7v-12.9H490z M495.9,178.3h-5.2v-0.6h5.2V178.3z M495.9,176.8h-5.2v-0.6
		h5.2V176.8z M495.9,175.4h-5.2v-0.6h5.2V175.4z M495.9,173.9h-5.2v-0.6h5.2V173.9z M495.9,172.4h-5.2v-0.6h5.2V172.4z M495.9,170.9
		h-5.2v-0.6h5.2V170.9z"/>
	<g>
		<polygon class="st1" points="465.2,166.7 459.4,170 459.8,170.7 465.2,167.5 470.6,170.7 470.9,170 		"/>
		<path class="st1" d="M469.6,170.7L469.6,170.7l-4.4-2.5l-4.4,2.5h0v9.9h-1v0.9h1h8.8h1v-0.9h-1V170.7z M464.8,174.3v2.1h-2.1v-2.1
			H464.8z M462.8,173.6v-2.1h2.1v2.1H462.8z M464.8,177.1v2.1h-2.1v-2.1H464.8z M467.6,174.3v2.1h-2.1v-2.1H467.6z M465.6,173.6
			v-2.1h2.1v2.1H465.6z M467.6,177.1v2.1h-2.1v-2.1H467.6z"/>
	</g>
	<g>
		<rect x="446.2" y="167.6" class="st1" width="9.6" height="0.9"/>
		<path class="st1" d="M446.2,181.4h9.6v-12.5h-9.6V181.4z M452.7,171.4h2.1v2.1h-2.1V171.4z M452.7,174.1h2.1v2.1h-2.1V174.1z
			 M452.7,176.9h2.1v2.1h-2.1V176.9z M450,171.4h2.1v2.1H450V171.4z M450,174.1h2.1v2.1H450V174.1z M450,176.9h2.1v2.1H450V176.9z
			 M447.2,171.4h2.1v2.1h-2.1V171.4z M447.2,174.1h2.1v2.1h-2.1V174.1z M447.2,176.9h2.1v2.1h-2.1V176.9z"/>
	</g>
	<path class="st1" d="M482.2,170.8v-6.3l-6.6,2.3v14.5h6.6h4.1v-8.3L482.2,170.8z M481.2,180.1h-4.6v-0.7h4.6V180.1z M481.2,178.5
		h-4.6v-0.7h4.6V178.5z M481.2,176.9h-4.6v-0.7h4.6V176.9z M481.2,175.2h-4.6v-0.7h4.6V175.2z M481.2,173.6h-4.6V173h4.6V173.6z
		 M481.2,172h-4.6v-0.7h4.6V172z M481.2,170.4h-4.6v-0.7h4.6V170.4z M481.2,168.8h-4.6v-0.7h4.6V168.8z M483.6,180.3h-1v-1h1V180.3z
		 M483.6,178.6h-1v-1h1V178.6z M483.6,176.9h-1v-1h1V176.9z M483.6,175.2h-1v-1h1V175.2z M485.3,180.3h-1v-1h1V180.3z M485.3,178.6
		h-1v-1h1V178.6z M485.3,176.9h-1v-1h1V176.9z M485.3,175.2h-1v-1h1V175.2z"/>
	<g>
		<polygon class="st1" points="519.4,166.7 513.7,170 514,170.7 519.4,167.5 524.8,170.7 525.2,170 		"/>
		<path class="st1" d="M523.8,170.7L523.8,170.7l-4.4-2.5l-4.4,2.5h0v9.9h-1v0.9h1h8.8h1v-0.9h-1V170.7z M519.1,174.3v2.1H517v-2.1
			H519.1z M517,173.6v-2.1h2.1v2.1H517z M519.1,177.1v2.1H517v-2.1H519.1z M521.9,174.3v2.1h-2.1v-2.1H521.9z M519.8,173.6v-2.1h2.1
			v2.1H519.8z M521.9,177.1v2.1h-2.1v-2.1H521.9z"/>
	</g>
	<g>
		<rect x="500.4" y="167.6" class="st1" width="9.6" height="0.9"/>
		<path class="st1" d="M500.4,181.4h9.6v-12.5h-9.6V181.4z M506.9,171.4h2.1v2.1h-2.1V171.4z M506.9,174.1h2.1v2.1h-2.1V174.1z
			 M506.9,176.9h2.1v2.1h-2.1V176.9z M504.2,171.4h2.1v2.1h-2.1V171.4z M504.2,174.1h2.1v2.1h-2.1V174.1z M504.2,176.9h2.1v2.1h-2.1
			V176.9z M501.4,171.4h2.1v2.1h-2.1V171.4z M501.4,174.1h2.1v2.1h-2.1V174.1z M501.4,176.9h2.1v2.1h-2.1V176.9z"/>
	</g>
	<path class="st1" d="M543.7,168.5v12.9h2.7v-1.8h1.2v1.8h2.7v-12.9H543.7z M549.6,178.3h-5.2v-0.6h5.2V178.3z M549.6,176.8h-5.2
		v-0.6h5.2V176.8z M549.6,175.4h-5.2v-0.6h5.2V175.4z M549.6,173.9h-5.2v-0.6h5.2V173.9z M549.6,172.4h-5.2v-0.6h5.2V172.4z
		 M549.6,170.9h-5.2v-0.6h5.2V170.9z"/>
	<path class="st1" d="M535.9,170.8v-6.3l-6.6,2.3v14.5h6.6h4.1v-8.3L535.9,170.8z M534.9,180.1h-4.6v-0.7h4.6V180.1z M534.9,178.5
		h-4.6v-0.7h4.6V178.5z M534.9,176.9h-4.6v-0.7h4.6V176.9z M534.9,175.2h-4.6v-0.7h4.6V175.2z M534.9,173.6h-4.6V173h4.6V173.6z
		 M534.9,172h-4.6v-0.7h4.6V172z M534.9,170.4h-4.6v-0.7h4.6V170.4z M534.9,168.8h-4.6v-0.7h4.6V168.8z M537.2,180.3h-1v-1h1V180.3z
		 M537.2,178.6h-1v-1h1V178.6z M537.2,176.9h-1v-1h1V176.9z M537.2,175.2h-1v-1h1V175.2z M539,180.3h-1v-1h1V180.3z M539,178.6h-1
		v-1h1V178.6z M539,176.9h-1v-1h1V176.9z M539,175.2h-1v-1h1V175.2z"/>
	<g>
		<rect x="554.1" y="167.6" class="st1" width="9.6" height="0.9"/>
		<path class="st1" d="M554.1,181.4h9.6v-12.5h-9.6V181.4z M560.6,171.4h2.1v2.1h-2.1V171.4z M560.6,174.1h2.1v2.1h-2.1V174.1z
			 M560.6,176.9h2.1v2.1h-2.1V176.9z M557.9,171.4h2.1v2.1h-2.1V171.4z M557.9,174.1h2.1v2.1h-2.1V174.1z M557.9,176.9h2.1v2.1h-2.1
			V176.9z M555.1,171.4h2.1v2.1h-2.1V171.4z M555.1,174.1h2.1v2.1h-2.1V174.1z M555.1,176.9h2.1v2.1h-2.1V176.9z"/>
	</g>
</g>
</svg>
