<svg width="238" height="72" viewBox="0 0 238 72" fill="none" xmlns="http://www.w3.org/2000/svg">
<g clip-path="url(#clip0)">
<path d="M65.7992 34.3C64.6647 34.3 63.5899 34.0614 62.6943 33.5245C61.7987 32.9876 61.1419 32.2718 60.7239 31.377C60.6642 31.2577 60.6045 31.1384 60.6045 31.0191C60.6045 30.7805 60.6642 30.6015 60.8433 30.4226C61.0225 30.2436 61.2016 30.184 61.5001 30.184C61.6793 30.184 61.8584 30.2436 61.9778 30.3629C62.1569 30.4822 62.2763 30.6015 62.3361 30.7805C62.5749 31.2577 62.9929 31.6753 63.5899 32.0332C64.187 32.3315 64.9035 32.5104 65.6798 32.5104C66.5754 32.5104 67.3516 32.2718 67.889 31.7946C68.4264 31.3174 68.7249 30.7209 68.7249 29.8857C68.7249 29.1699 68.4861 28.5734 67.9487 28.0962C67.4113 27.6189 66.6351 27.261 65.5603 27.1417C64.1273 26.9628 63.0526 26.4856 62.2166 25.7697C61.3807 24.9943 60.9627 24.0398 60.9627 22.9661C60.9627 22.1906 61.1419 21.4748 61.5598 20.8783C61.9778 20.2817 62.5152 19.8045 63.2317 19.5063C63.9482 19.208 64.7244 19.0291 65.62 19.0291C66.5754 19.0291 67.471 19.2677 68.1875 19.6852C68.904 20.1624 69.5011 20.6993 69.9191 21.4748C70.0385 21.6537 70.0982 21.8327 70.0982 22.0117C70.0982 22.3099 69.9788 22.5485 69.6803 22.7275C69.3817 22.9064 69.0832 22.8468 68.7846 22.7275C68.6652 22.6678 68.5458 22.4889 68.4264 22.3696C67.8293 21.3555 66.8739 20.8186 65.62 20.8186C64.7244 20.8186 64.0079 20.9976 63.4705 21.4151C62.9929 21.773 62.6943 22.3099 62.6943 23.0257C62.6943 24.3381 63.7094 25.1732 65.8589 25.4715C67.3516 25.7101 68.4861 26.1873 69.2623 26.9628C70.0385 27.7383 70.3968 28.7523 70.3968 29.9454C70.3968 30.8402 70.1579 31.6753 69.74 32.3315C69.322 32.9876 68.7249 33.5245 68.0084 33.8228C67.471 34.121 66.6351 34.3 65.7992 34.3Z" fill="#001C41"/>
<path d="M76.8455 34.1806C75.9498 34.1806 75.1139 33.942 74.3377 33.5245C73.6212 33.1069 73.0241 32.5104 72.6061 31.7349C72.1882 30.9594 72.009 30.0646 72.009 29.1102C72.009 28.1558 72.1882 27.261 72.6061 26.4855C73.0241 25.7101 73.5615 25.1135 74.2183 24.696C74.9348 24.2784 75.711 24.0398 76.6066 24.0398C77.4426 24.0398 78.2188 24.2784 78.8756 24.696C79.5324 25.1135 80.0698 25.7101 80.428 26.4259C80.7863 27.1417 80.9654 28.0365 80.9654 28.9313C80.9654 29.1699 80.9057 29.3488 80.7266 29.5278C80.6071 29.6471 80.3683 29.7664 80.1295 29.7664H73.5615C73.6809 30.5419 73.9794 31.2577 74.5765 31.7349C75.1736 32.2718 75.8901 32.57 76.7858 32.57C77.144 32.57 77.562 32.5104 77.9202 32.3911C78.2785 32.2718 78.6367 32.0928 78.8159 31.8542C79.1741 31.5559 79.5324 31.5559 79.8906 31.7946C80.0698 31.9735 80.1892 32.2121 80.1892 32.4507C80.1892 32.6893 80.1295 32.8683 79.9503 32.9876C79.5324 33.3455 79.0547 33.6438 78.4576 33.8227C77.9799 34.0613 77.3828 34.1806 76.8455 34.1806ZM73.6809 28.2154H79.3532C79.2338 27.44 78.9353 26.8434 78.5173 26.3662C78.0396 25.8294 77.3828 25.5907 76.6066 25.5907C75.8304 25.5907 75.1736 25.8294 74.6362 26.3662C74.0989 26.9031 73.8003 27.4996 73.6809 28.2154Z" fill="#001C41"/>
<path d="M86.6974 34.1807C85.8017 34.1807 84.9658 33.9421 84.2493 33.5245C83.5328 33.107 82.9357 32.4508 82.5177 31.6753C82.0998 30.8999 81.9207 30.0647 81.9207 29.1103C81.9207 28.1559 82.0998 27.2611 82.5177 26.4856C82.9357 25.7101 83.4731 25.1136 84.1896 24.6364C84.9061 24.2188 85.6823 23.9802 86.578 23.9802C88.011 23.9802 89.2051 24.5767 90.1008 25.7101C90.2202 25.8294 90.2799 26.0084 90.2799 26.1873C90.2799 26.426 90.1605 26.6646 89.9217 26.8435C89.5634 27.0821 89.2051 27.0225 88.8469 26.6646C88.5484 26.3067 88.1901 26.0084 87.7721 25.8294C87.4139 25.6505 86.9959 25.5312 86.5182 25.5312C85.9212 25.5312 85.4435 25.6505 84.9658 25.9487C84.5479 26.247 84.1896 26.6646 83.9508 27.2014C83.7119 27.7383 83.5925 28.3348 83.5925 28.991C83.5925 29.6472 83.7119 30.2437 84.0105 30.7806C84.2493 31.3174 84.6673 31.735 85.0852 32.0332C85.5629 32.3315 86.1003 32.4508 86.6974 32.4508C87.5333 32.4508 88.2498 32.2122 88.7275 31.735C89.0857 31.4367 89.5037 31.4367 89.8022 31.6753C89.9814 31.8543 90.1008 32.0929 90.1008 32.3315C90.1008 32.5105 90.0411 32.7491 89.8619 32.8684C89.0857 33.7632 88.011 34.1807 86.6974 34.1807Z" fill="#001C41"/>
<path d="M93.2654 34.1211C93.0265 34.1211 92.7877 34.0614 92.6683 33.8825C92.5489 33.7035 92.4294 33.5246 92.4294 33.2263V24.0995H93.2654C93.5042 24.0995 93.743 24.1592 93.8625 24.3381C93.9819 24.5171 94.1013 24.696 94.1013 24.9943V25.1733C94.3998 24.875 94.6984 24.6364 95.0566 24.3978C95.594 24.0995 96.1911 23.9802 96.7882 23.9802C97.2659 23.9802 97.6838 24.0399 97.9824 24.2188C98.4003 24.3978 98.5198 24.7557 98.5198 24.9347C98.5198 25.054 98.5198 25.1136 98.5198 25.1733C98.4601 25.3522 98.3406 25.5312 98.2212 25.5908C98.1018 25.6505 97.9227 25.7101 97.7435 25.7101C97.6241 25.7101 97.445 25.7101 97.2062 25.6505C97.0867 25.6505 96.9673 25.6505 96.8479 25.6505C96.0717 25.6505 95.4149 25.8891 94.9372 26.3067C94.4595 26.7242 94.2207 27.2611 94.2207 27.9769V33.2263C94.2207 33.4649 94.2207 34.1211 94.2207 34.1211C94.2207 34.1211 93.5042 34.1211 93.2654 34.1211Z" fill="#001C41"/>
<path d="M128.434 34.1211C128.195 34.1211 127.956 34.0614 127.837 33.8825C127.717 33.7035 127.598 33.5246 127.598 33.2263V24.0995H128.434C128.673 24.0995 128.912 24.1592 129.031 24.3381C129.15 24.5171 129.27 24.696 129.27 24.9943V25.1733C129.568 24.875 129.867 24.6364 130.225 24.3978C130.762 24.0995 131.36 23.9802 131.957 23.9802C132.434 23.9802 132.852 24.0399 133.151 24.2188C133.569 24.3978 133.688 24.7557 133.688 24.9347C133.688 25.054 133.688 25.1136 133.688 25.1733C133.629 25.3522 133.509 25.5312 133.39 25.5908C133.27 25.6505 133.091 25.7101 132.912 25.7101C132.793 25.7101 132.613 25.7101 132.375 25.6505C132.255 25.6505 132.136 25.6505 132.016 25.6505C131.24 25.6505 130.583 25.8891 130.106 26.3067C129.628 26.7242 129.389 27.2611 129.389 27.9769V33.2263C129.389 33.4649 129.389 34.1211 129.389 34.1211C129.389 34.1211 128.673 34.1211 128.434 34.1211Z" fill="#001C41"/>
<path d="M103.595 34.1806C102.699 34.1806 101.863 33.942 101.087 33.5245C100.371 33.1069 99.7736 32.5104 99.3556 31.7349C98.9377 30.9594 98.7585 30.0646 98.7585 29.1102C98.7585 28.1558 98.9377 27.261 99.3556 26.4855C99.7736 25.7101 100.311 25.1135 100.968 24.696C101.684 24.2784 102.461 24.0398 103.356 24.0398C104.192 24.0398 104.968 24.2784 105.625 24.696C106.282 25.1135 106.819 25.7101 107.178 26.4259C107.536 27.1417 107.715 28.0365 107.715 28.9313C107.715 29.1699 107.655 29.3488 107.476 29.5278C107.357 29.6471 107.118 29.7664 106.879 29.7664H100.311C100.43 30.5419 100.729 31.2577 101.326 31.7349C101.923 32.2718 102.64 32.57 103.535 32.57C103.894 32.57 104.311 32.5104 104.67 32.3911C105.028 32.2718 105.386 32.0928 105.565 31.8542C105.924 31.5559 106.282 31.5559 106.64 31.7946C106.819 31.9735 106.939 32.2121 106.939 32.4507C106.939 32.6893 106.879 32.8683 106.7 32.9876C106.282 33.3455 105.804 33.6438 105.207 33.8227C104.729 34.0613 104.132 34.1806 103.595 34.1806ZM100.43 28.2154H106.103C105.983 27.44 105.685 26.8434 105.267 26.3662C104.789 25.8294 104.132 25.5907 103.356 25.5907C102.58 25.5907 101.923 25.8294 101.386 26.3662C100.848 26.9031 100.55 27.4996 100.43 28.2154Z" fill="#001C41"/>
<path d="M113.686 34.121H113.327C112.73 34.121 112.133 33.9421 111.656 33.6438C111.178 33.3455 110.76 32.8683 110.461 32.3314C110.163 31.7946 110.043 31.1981 110.043 30.4822V26.0083H108.372V25.2329C108.372 24.9942 108.431 24.8153 108.61 24.6363C108.73 24.4574 108.969 24.3977 109.148 24.3977H110.043V21.8923V20.9976H110.82C111.058 20.9976 111.297 21.0572 111.476 21.2362C111.656 21.4151 111.715 21.5941 111.715 21.8923V24.4574H114.223V25.2329C114.223 25.4715 114.163 25.6504 113.984 25.7697C113.805 25.889 113.626 26.0083 113.447 26.0083H111.715V30.4822C111.715 31.0191 111.835 31.4367 112.193 31.7946C112.492 32.1525 112.85 32.2718 113.327 32.2718H113.805C114.044 32.2718 114.223 32.3314 114.402 32.5104C114.522 32.6894 114.641 32.8683 114.641 33.1666C114.641 33.4052 114.581 33.6438 114.402 33.7631C114.104 34.0017 113.925 34.121 113.686 34.121Z" fill="#001C41"/>
<path d="M136.435 34.121C136.196 34.121 136.017 34.0614 135.838 33.8824C135.659 33.7035 135.599 33.5245 135.599 33.2263V24.0995H136.435C136.674 24.0995 136.853 24.1591 137.032 24.3381C137.211 24.5171 137.271 24.696 137.271 24.9943V34.121H136.435Z" fill="#001C41"/>
<path d="M160.557 34.1807C159.662 34.1807 158.826 33.9421 158.109 33.5245C157.393 33.107 156.796 32.4508 156.378 31.6753C155.96 30.8998 155.721 30.0051 155.721 29.1103C155.721 28.1558 155.9 27.3207 156.318 26.5452C156.736 25.7698 157.273 25.1732 157.99 24.696C158.706 24.2785 159.542 24.0399 160.378 24.0399C161.154 24.0399 161.811 24.2188 162.468 24.5171C162.946 24.7557 163.364 25.0539 163.662 25.4715V19.9835H164.438C164.677 19.9835 164.916 20.0432 165.095 20.2221C165.274 20.4011 165.334 20.58 165.334 20.8783V29.1103C165.334 30.0647 165.095 30.8998 164.677 31.6753C164.259 32.4508 163.662 33.0473 162.946 33.5245C162.289 34.0017 161.453 34.1807 160.557 34.1807ZM160.557 25.6505C159.96 25.6505 159.423 25.8294 158.945 26.068C158.468 26.3663 158.05 26.7839 157.811 27.3207C157.512 27.8576 157.393 28.4541 157.393 29.1103C157.393 29.7665 157.512 30.363 157.811 30.8998C158.109 31.4367 158.468 31.8543 158.945 32.1525C159.423 32.4508 159.96 32.6297 160.557 32.6297C161.154 32.6297 161.692 32.4508 162.17 32.1525C162.647 31.8543 163.065 31.4367 163.304 30.8998C163.603 30.363 163.722 29.7665 163.722 29.1103C163.722 28.9313 163.722 28.812 163.722 28.6927C163.722 28.6331 163.722 28.6331 163.722 28.5734C163.603 27.7383 163.244 27.0225 162.707 26.4856C162.11 25.9487 161.393 25.6505 160.557 25.6505Z" fill="#001C41"/>
<path d="M172.38 34.1806C171.484 34.1806 170.648 33.942 169.872 33.5245C169.155 33.1069 168.558 32.5104 168.14 31.7349C167.722 30.9594 167.543 30.0646 167.543 29.1102C167.543 28.1558 167.722 27.261 168.14 26.4855C168.558 25.7101 169.096 25.1135 169.752 24.696C170.469 24.2784 171.245 24.0398 172.141 24.0398C172.977 24.0398 173.753 24.2784 174.41 24.696C175.067 25.1135 175.604 25.7101 175.962 26.4259C176.32 27.1417 176.5 28.0365 176.5 28.9313C176.5 29.1699 176.44 29.3488 176.261 29.5278C176.141 29.6471 175.902 29.7664 175.664 29.7664H169.096C169.215 30.5419 169.514 31.2577 170.051 31.7349C170.648 32.2718 171.365 32.57 172.26 32.57C172.618 32.57 173.036 32.5104 173.395 32.3911C173.753 32.2718 174.111 32.0928 174.29 31.8542C174.649 31.5559 175.007 31.5559 175.365 31.7946C175.544 31.9735 175.664 32.2121 175.664 32.4507C175.664 32.6893 175.604 32.8683 175.425 32.9876C175.007 33.3455 174.529 33.6438 173.932 33.8227C173.514 34.0613 172.917 34.1806 172.38 34.1806ZM169.215 28.2154H174.887C174.768 27.44 174.469 26.8434 174.051 26.3662C173.574 25.8294 172.917 25.5907 172.141 25.5907C171.365 25.5907 170.708 25.8294 170.17 26.3662C169.693 26.9031 169.394 27.4996 169.215 28.2154Z" fill="#001C41"/>
<path d="M120.493 34.1806C119.597 34.1806 118.821 33.942 118.104 33.5245C117.388 33.1069 116.791 32.4507 116.432 31.6753C116.014 30.8998 115.835 30.0646 115.835 29.1102C115.835 28.1558 116.074 27.3207 116.492 26.5452C116.91 25.7697 117.507 25.1732 118.224 24.696C118.94 24.2784 119.776 24.0398 120.672 24.0398C121.567 24.0398 122.403 24.2784 123.12 24.696C123.836 25.1135 124.433 25.7697 124.851 26.5452C125.269 27.3207 125.508 28.2154 125.508 29.1102V33.2859V34.121C125.508 34.121 124.971 34.121 124.732 34.121C124.314 34.121 123.956 33.7631 123.956 33.2859V32.6297C123.597 33.0472 123.12 33.4052 122.642 33.7034C121.926 34.0017 121.269 34.1806 120.493 34.1806ZM120.612 25.5311C120.015 25.5311 119.418 25.7101 118.94 26.0083C118.462 26.3066 118.044 26.7241 117.746 27.3207C117.447 27.8575 117.328 28.454 117.328 29.1699C117.328 29.826 117.447 30.4822 117.746 31.0191C118.044 31.5559 118.462 31.9735 118.94 32.2718C119.418 32.57 120.015 32.749 120.612 32.749C121.209 32.749 121.806 32.57 122.284 32.2718C122.761 31.9735 123.179 31.5559 123.478 31.0191C123.776 30.4822 123.896 29.8857 123.896 29.1699C123.896 28.5137 123.776 27.8575 123.478 27.3207C123.179 26.7838 122.761 26.3662 122.284 26.0083C121.806 25.7101 121.269 25.5311 120.612 25.5311Z" fill="#001C41"/>
<path d="M144.376 34.1806C143.481 34.1806 142.704 33.942 141.988 33.5245C141.271 33.1069 140.674 32.4507 140.316 31.6753C139.898 30.8998 139.719 30.0646 139.719 29.1102C139.719 28.1558 139.958 27.3207 140.376 26.5452C140.794 25.7697 141.391 25.1732 142.107 24.696C142.824 24.2784 143.66 24.0398 144.555 24.0398C145.451 24.0398 146.287 24.2784 147.003 24.696C147.72 25.1135 148.317 25.7697 148.735 26.5452C149.153 27.3207 149.392 28.2154 149.392 29.1102V33.2859V34.121C149.392 34.121 148.854 34.121 148.616 34.121C148.198 34.121 147.839 33.7631 147.839 33.2859V32.6297C147.481 33.0472 147.003 33.4052 146.526 33.7034C145.809 34.0017 145.093 34.1806 144.376 34.1806ZM144.496 25.5311C143.899 25.5311 143.302 25.7101 142.824 26.0083C142.346 26.3066 141.928 26.7241 141.63 27.3207C141.331 27.8575 141.212 28.454 141.212 29.1699C141.212 29.826 141.331 30.4822 141.63 31.0191C141.928 31.5559 142.346 31.9735 142.824 32.2718C143.302 32.57 143.899 32.749 144.496 32.749C145.093 32.749 145.69 32.57 146.168 32.2718C146.645 31.9735 147.063 31.5559 147.362 31.0191C147.66 30.4822 147.78 29.8857 147.78 29.1699C147.78 28.5137 147.66 27.8575 147.362 27.3207C147.063 26.7838 146.645 26.3662 146.168 26.0083C145.69 25.7101 145.093 25.5311 144.496 25.5311Z" fill="#001C41"/>
<path d="M136.256 23.4433L135.599 22.7275C135.3 22.4292 135.3 21.952 135.599 21.6537L138.107 19.0291L138.763 19.7449C139.062 20.0431 139.062 20.5204 138.763 20.8186L136.256 23.4433Z" fill="#001C41"/>
<path d="M77.0245 56.3712C76.7259 56.3712 75.9497 56.3712 75.9497 56.3712V55.2974V43.0091L70.158 55.4167C69.9191 55.7746 69.6206 55.9536 69.2623 55.9536C68.8444 55.9536 68.4861 55.715 68.307 55.2974L62.5152 43.1881V55.2974C62.5152 55.5957 62.5152 56.3712 62.5152 56.3712C62.5152 56.3712 61.7987 56.3712 61.5002 56.3712C61.2016 56.3712 60.9628 56.2519 60.7837 56.0729C60.6045 55.8343 60.4851 55.5957 60.4851 55.2974V39.1317C60.4851 38.8335 60.6045 38.5352 60.7837 38.3562C60.9628 38.1773 61.2016 38.058 61.5002 38.058C61.9181 38.058 62.2167 38.2369 62.3958 38.5949L69.322 52.9113L76.0691 38.5949C76.308 38.2369 76.6065 38.058 76.9648 38.058C77.2633 38.058 77.5022 38.1773 77.6813 38.3562C77.8604 38.5352 77.9798 38.8335 77.9798 39.1317V55.2974C77.9798 55.5957 77.8604 55.8343 77.6813 56.0729C77.5619 56.2519 77.323 56.3712 77.0245 56.3712Z" fill="#001C41"/>
<path d="M88.6677 56.4309C87.4735 56.4309 86.339 56.1326 85.324 55.5361C84.3686 54.9396 83.5327 54.1641 82.9953 53.0903C82.458 52.0763 82.1594 50.8832 82.1594 49.6305C82.1594 48.3778 82.458 47.1848 82.9953 46.1707C83.5327 45.1566 84.3089 44.3215 85.324 43.725C86.2793 43.1285 87.4138 42.8302 88.6677 42.8302C89.9216 42.8302 90.9963 43.1285 91.9517 43.725C92.907 44.3215 93.6832 45.1566 94.2803 46.1707C94.8177 47.1848 95.1163 48.3778 95.1163 49.6305C95.1163 50.8832 94.8177 52.0763 94.2803 53.0903C93.743 54.1044 92.9667 54.9396 91.9517 55.5361C90.9963 56.1326 89.8619 56.4309 88.6677 56.4309ZM88.6677 44.8584C87.8318 44.8584 87.0556 45.0373 86.3988 45.4549C85.742 45.8724 85.2046 46.4093 84.7866 47.1848C84.4284 47.9006 84.1895 48.7357 84.1895 49.6305C84.1895 50.5253 84.3687 51.3604 84.7866 52.0763C85.1449 52.7921 85.6822 53.3886 86.3988 53.8062C87.0556 54.2237 87.8318 54.4027 88.6677 54.4027C89.5036 54.4027 90.2798 54.2237 90.9366 53.8062C91.5934 53.3886 92.1308 52.8517 92.4891 52.0763C92.8473 51.3604 93.0862 50.5253 93.0862 49.6305C93.0862 48.7357 92.907 47.9006 92.4891 47.1848C92.1308 46.469 91.5934 45.8725 90.9366 45.5145C90.2798 45.097 89.5036 44.8584 88.6677 44.8584Z" fill="#001C41"/>
<path d="M103.356 56.4905C102.162 56.4905 101.087 56.1922 100.132 55.6553C99.1766 55.0588 98.4004 54.2833 97.863 53.2693C97.3256 52.2552 97.0271 51.1218 97.0271 49.9287C97.0271 48.7357 97.3256 47.6023 97.8033 46.5882C98.3407 45.5741 99.0572 44.7987 100.013 44.2021C100.908 43.6056 101.983 43.367 103.117 43.367C104.073 43.367 105.028 43.6056 105.804 44.0232C106.461 44.3811 107.058 44.8583 107.536 45.3952V38.058H108.551C108.849 38.058 109.088 38.1773 109.267 38.3562C109.447 38.5352 109.566 38.8335 109.566 39.1317V49.9287C109.566 51.1218 109.327 52.2552 108.79 53.2693C108.252 54.2833 107.476 55.0588 106.521 55.6553C105.565 56.1922 104.491 56.4905 103.356 56.4905ZM103.356 45.2759C102.58 45.2759 101.804 45.4548 101.147 45.8724C100.49 46.29 99.9528 46.8268 99.5946 47.5427C99.2363 48.2585 99.0572 49.034 99.0572 49.9287C99.0572 50.8235 99.2363 51.599 99.5946 52.3148C99.9528 53.0306 100.49 53.5675 101.147 53.9851C101.804 54.4026 102.52 54.5816 103.356 54.5816C104.132 54.5816 104.909 54.4026 105.565 53.9851C106.222 53.5675 106.7 53.0306 107.118 52.3148C107.476 51.599 107.655 50.8235 107.655 49.9287C107.655 49.6901 107.655 49.5112 107.655 49.3919C107.655 49.3322 107.655 49.2726 107.655 49.2129C107.536 48.0795 107.058 47.1251 106.282 46.4093C105.446 45.6338 104.491 45.2759 103.356 45.2759Z" fill="#001C41"/>
<path d="M120.075 56.4905C118.821 56.4905 117.746 56.1922 116.731 55.5957C115.776 54.9992 114.999 54.2237 114.402 53.15C113.865 52.1359 113.566 50.9428 113.566 49.6305C113.566 48.3181 113.805 47.1251 114.343 46.111C114.88 45.0969 115.597 44.2618 116.492 43.6653C117.388 43.0688 118.463 42.7705 119.657 42.7705C120.791 42.7705 121.806 43.0688 122.702 43.6056C123.598 44.1425 124.314 44.9776 124.792 45.9321C125.269 46.9462 125.508 48.0795 125.508 49.3322C125.508 49.6305 125.389 49.8691 125.21 50.0481C125.031 50.227 124.792 50.3463 124.493 50.3463H115.537C115.656 51.4797 116.134 52.4341 116.91 53.2096C117.746 53.9851 118.761 54.4027 119.955 54.4027C120.493 54.4027 121.03 54.2833 121.567 54.1044C122.105 53.9254 122.523 53.6868 122.821 53.3886C123.239 53.0307 123.717 52.971 124.135 53.3289C124.374 53.5675 124.493 53.8061 124.493 54.1044C124.493 54.343 124.374 54.5816 124.195 54.7606C123.657 55.2378 123 55.5957 122.224 55.894C121.567 56.3712 120.791 56.4905 120.075 56.4905ZM115.656 48.6164H123.598C123.478 47.5427 123.06 46.6479 122.403 45.9917C121.687 45.2759 120.791 44.918 119.716 44.918C118.642 44.918 117.686 45.2759 116.97 45.9917C116.253 46.6479 115.835 47.5427 115.656 48.6164Z" fill="#001C41"/>
<path d="M129.867 56.3711C129.568 56.3711 128.852 56.3711 128.852 56.3711C128.852 56.3711 128.852 55.5957 128.852 55.2974V43.0091H129.867C130.165 43.0091 130.464 43.1284 130.643 43.3073C130.822 43.4863 130.942 43.7846 130.942 44.0828V44.6197C131.36 44.1425 131.837 43.7249 132.375 43.4266C133.091 43.0687 133.867 42.8898 134.644 42.8898C135.3 42.8898 135.838 43.0091 136.196 43.188C136.614 43.367 136.853 43.7249 136.853 44.0828C136.853 44.2021 136.853 44.2618 136.793 44.3811C136.733 44.6197 136.614 44.7986 136.435 44.9179C136.256 45.0372 136.077 45.0372 135.838 45.0372C135.718 45.0372 135.48 45.0372 135.121 44.9776C135.002 44.9776 134.823 44.9776 134.584 44.9776C133.509 44.9776 132.613 45.2759 131.897 45.8724C131.24 46.4689 130.882 47.2444 130.882 48.1988V55.2974C130.882 55.6553 130.762 55.8939 130.583 56.0729C130.404 56.2518 130.165 56.3711 129.867 56.3711Z" fill="#001C41"/>
<path d="M150.407 56.3712C150.108 56.3712 149.332 56.3712 149.332 56.3712C149.332 56.3712 149.332 55.5957 149.332 55.2975V49.0937C149.332 47.7217 148.974 46.7076 148.257 45.9918C147.541 45.2759 146.585 44.918 145.451 44.918C144.734 44.918 144.078 45.0373 143.54 45.3356C142.943 45.6338 142.525 45.9918 142.167 46.5286C141.868 47.0058 141.689 47.6024 141.689 48.1989V55.2378C141.689 55.5361 141.689 56.3116 141.689 56.3116C141.689 56.3116 140.973 56.3116 140.674 56.3116C140.376 56.3116 140.137 56.1923 139.898 56.0133C139.719 55.8343 139.599 55.5361 139.599 55.2378V43.0092C139.599 43.0092 140.376 43.0092 140.674 43.0092C140.973 43.0092 141.212 43.1285 141.45 43.3074C141.629 43.4864 141.749 43.7846 141.749 44.0829V44.4408C142.227 43.9636 142.704 43.6057 143.301 43.3671C144.018 43.0092 144.854 42.8302 145.69 42.8302C146.764 42.8302 147.779 43.0688 148.675 43.546C149.571 44.0232 150.228 44.7391 150.765 45.6935C151.243 46.6479 151.541 47.7813 151.541 49.034V55.1782C151.541 55.4764 151.422 55.715 151.243 55.9536C150.944 56.2519 150.705 56.3712 150.407 56.3712Z" fill="#001C41"/>
<path d="M236.985 56.3712C236.686 56.3712 236.447 56.2519 236.209 56.0729C236.029 55.894 235.91 55.5957 235.91 55.2975V49.0937C235.91 47.7217 235.552 46.7076 234.835 45.9918C234.119 45.2759 233.163 44.918 232.029 44.918C231.312 44.918 230.656 45.0373 230.118 45.3356C229.521 45.6338 229.103 45.9918 228.745 46.5286C228.446 47.0058 228.267 47.6024 228.267 48.1989V55.2378C228.267 55.5361 228.148 55.8343 227.969 56.0133C227.79 56.1923 227.551 56.3116 227.252 56.3116C226.954 56.3116 226.715 56.1923 226.476 56.0133C226.297 55.8343 226.177 55.5361 226.177 55.2378V43.0092C226.177 43.0092 226.954 43.0092 227.252 43.0092C227.551 43.0092 227.79 43.1285 228.028 43.3074C228.208 43.4864 228.327 43.7846 228.327 44.0829V44.4408C228.805 43.9636 229.282 43.6057 229.879 43.3671C230.596 43.0092 231.432 42.8302 232.268 42.8302C233.343 42.8302 234.358 43.0688 235.253 43.546C236.149 44.0232 236.806 44.7391 237.343 45.6935C237.821 46.6479 238.119 47.7813 238.119 49.034V55.1782C238.119 55.4764 238 55.715 237.821 55.9536C237.522 56.2519 237.283 56.3712 236.985 56.3712Z" fill="#001C41"/>
<path d="M156.855 56.3712C156.557 56.3712 156.318 56.2519 156.079 56.0729C155.9 55.894 155.781 55.5957 155.781 55.2975V43.0091H156.855C157.154 43.0091 157.393 43.1284 157.632 43.3074C157.811 43.4864 157.93 43.7846 157.93 44.0829V56.3116L156.855 56.3712ZM156.855 40.9213C156.437 40.9213 156.139 40.802 155.84 40.5038C155.601 40.2055 155.422 39.8476 155.422 39.43C155.422 39.0125 155.542 38.6545 155.84 38.3563C156.139 38.1177 156.437 37.9387 156.855 37.9387C157.214 37.9387 157.572 38.058 157.811 38.3563C158.109 38.6545 158.229 39.0125 158.229 39.43C158.229 39.8476 158.109 40.2055 157.811 40.5038C157.572 40.7424 157.214 40.9213 156.855 40.9213Z" fill="#001C41"/>
<path d="M172.141 56.3712H163.722C163.185 56.3712 162.707 55.894 162.767 55.2975C162.767 54.9992 162.826 54.7606 162.946 54.6413L170.17 45.0373H162.826C162.826 43.9636 162.707 43.0092 163.602 43.0092H172.021C172.559 43.0092 172.977 43.4864 172.977 44.0232C172.977 44.3215 172.917 44.5601 172.738 44.7391L165.573 54.343H172.857C172.917 55.5361 173.037 56.3712 172.141 56.3712Z" fill="#001C41"/>
<path d="M181.515 56.4904C180.321 56.4904 179.246 56.1922 178.291 55.5957C177.336 54.9991 176.559 54.164 176.022 53.1499C175.485 52.1358 175.186 50.9428 175.186 49.6901C175.186 48.4374 175.485 47.2444 176.022 46.2303C176.559 45.2162 177.395 44.3811 178.351 43.7846C179.306 43.188 180.44 42.8898 181.635 42.8898C182.829 42.8898 183.963 43.188 184.919 43.7846C185.874 44.3811 186.71 45.2162 187.247 46.2303C187.785 47.2444 188.083 48.4374 188.083 49.6901V55.2974V56.3711C188.083 56.3711 187.307 56.3711 187.008 56.3711C186.411 56.3711 185.934 55.8939 185.934 55.2377V54.343C185.456 54.9395 184.859 55.4167 184.142 55.7746C183.426 56.2518 182.53 56.4904 181.515 56.4904ZM181.694 44.9179C180.858 44.9179 180.082 45.1565 179.425 45.5741C178.769 45.9917 178.231 46.5882 177.813 47.304C177.455 48.0198 177.216 48.855 177.216 49.7498C177.216 50.6445 177.395 51.4797 177.813 52.1955C178.171 52.9113 178.709 53.5078 179.425 53.9254C180.082 54.343 180.858 54.5219 181.694 54.5219C182.53 54.5219 183.306 54.343 183.963 53.9254C184.62 53.5078 185.157 52.971 185.575 52.1955C185.934 51.4797 186.172 50.6445 186.172 49.7498C186.172 48.855 185.993 48.0198 185.575 47.304C185.217 46.5882 184.68 45.9917 183.963 45.5741C183.247 45.1565 182.53 44.9179 181.694 44.9179Z" fill="#001C41"/>
<path d="M196.681 56.4905C195.487 56.4905 194.353 56.1922 193.397 55.5957C192.442 54.9992 191.666 54.1641 191.128 53.15C190.591 52.1359 190.292 50.9429 190.292 49.6902C190.292 48.3778 190.531 47.2444 191.069 46.1707C191.606 45.1566 192.323 44.3215 193.278 43.725C194.233 43.1285 195.248 42.8302 196.443 42.8302C198.353 42.8302 199.965 43.6057 201.16 45.1566C201.279 45.3356 201.398 45.5145 201.398 45.7531C201.398 46.0514 201.219 46.3497 200.921 46.5883C200.503 46.8865 200.025 46.8269 199.607 46.3497C199.189 45.8724 198.711 45.4549 198.174 45.2163C197.637 44.9777 197.04 44.8584 196.443 44.8584C195.666 44.8584 194.95 45.0373 194.293 45.4549C193.696 45.8724 193.159 46.4093 192.86 47.1251C192.502 47.841 192.323 48.6761 192.323 49.6305C192.323 50.5253 192.502 51.3604 192.86 52.0763C193.218 52.7921 193.756 53.3886 194.412 53.7465C195.069 54.1641 195.845 54.343 196.681 54.343C197.816 54.343 198.771 53.9851 199.488 53.3886C199.906 53.0307 200.443 52.971 200.801 53.329C201.04 53.5676 201.16 53.8062 201.16 54.1044C201.16 54.343 201.04 54.5816 200.861 54.7606C199.846 55.9536 198.413 56.4905 196.681 56.4905Z" fill="#001C41"/>
<path d="M216.385 56.4904C215.191 56.4904 214.057 56.1922 213.042 55.5957C212.086 54.9991 211.25 54.2237 210.713 53.1499C210.175 52.1358 209.877 50.9428 209.877 49.6901C209.877 48.4374 210.175 47.2444 210.713 46.2303C211.25 45.2162 212.026 44.3811 213.042 43.7846C213.997 43.188 215.131 42.8898 216.385 42.8898C217.579 42.8898 218.714 43.188 219.669 43.7846C220.625 44.3811 221.401 45.2162 221.998 46.2303C222.535 47.2444 222.834 48.4374 222.834 49.6901C222.834 50.9428 222.535 52.1358 221.998 53.1499C221.46 54.164 220.684 54.9991 219.669 55.5957C218.714 56.1922 217.639 56.4904 216.385 56.4904ZM216.385 44.9179C215.549 44.9179 214.773 45.0969 214.116 45.5145C213.459 45.932 212.922 46.4689 212.504 47.2444C212.146 47.9602 211.907 48.7953 211.907 49.6901C211.907 50.5849 212.086 51.42 212.504 52.1358C212.862 52.8517 213.4 53.4482 214.116 53.8657C214.773 54.2833 215.549 54.4623 216.385 54.4623C217.221 54.4623 217.997 54.2833 218.654 53.8657C219.311 53.4482 219.848 52.9113 220.207 52.1358C220.565 51.42 220.804 50.5849 220.804 49.6901C220.804 48.7953 220.625 47.9602 220.207 47.2444C219.848 46.5285 219.311 45.932 218.654 45.5741C217.997 45.1565 217.221 44.9179 216.385 44.9179Z" fill="#001C41"/>
<path d="M205.697 56.3712C205.399 56.3712 205.16 56.2519 204.921 56.0729C204.742 55.894 204.623 55.5957 204.623 55.2975V43.0091H205.697C205.996 43.0091 206.235 43.1284 206.474 43.3074C206.653 43.4864 206.772 43.7846 206.772 44.0829V56.3116L205.697 56.3712ZM205.697 40.9213C205.279 40.9213 204.981 40.802 204.682 40.5038C204.444 40.2055 204.264 39.8476 204.264 39.43C204.264 39.0125 204.384 38.6545 204.682 38.3563C204.981 38.1177 205.279 37.9387 205.697 37.9387C206.056 37.9387 206.414 38.058 206.653 38.3563C206.951 38.6545 207.071 39.0125 207.071 39.43C207.071 39.8476 206.951 40.2055 206.653 40.5038C206.414 40.7424 206.056 40.9213 205.697 40.9213Z" fill="#001C41"/>
<path d="M216.206 41.8757L215.37 40.9809C215.012 40.623 215.012 39.9669 215.37 39.6089L218.714 36.0895L219.55 36.9843C219.908 37.3422 219.908 37.9983 219.55 38.3563L216.206 41.8757Z" fill="#001C41"/>
<path d="M48.2449 37.8194V23.6819H37.8556C32.1832 23.6819 27.4065 28.2751 27.4065 34.0613H30.2725C30.2725 29.8857 33.9148 26.4855 37.6764 26.4855H45.3789V37.8194H48.2449Z" fill="#001C41"/>
<path d="M12.0015 49.1532H40.9007C43.2293 49.1532 45.3191 51.1218 45.3191 53.4482V64.2452H37.7958C33.6759 64.2452 30.2127 60.845 30.2127 56.6694H27.3467C27.3467 62.396 32.004 67.0488 37.7361 67.0488H48.1851L48.1254 53.4482C48.1254 49.4515 44.8414 46.2899 40.9007 46.2899H12.0015C7.04566 46.2899 2.98545 42.2336 2.98545 37.2228V21.8923H15.2258C20.3011 21.8923 24.7195 25.0538 26.5108 29.4681C28.3021 24.9942 32.7205 21.8923 37.7958 21.8923H50.0361V37.8194H52.9022V18.9097H37.7958C33.3176 18.9097 29.2574 20.8782 26.4511 23.9801C23.7045 20.8782 19.704 18.9097 15.2258 18.9097H0V37.2228C0 43.8442 5.37381 49.1532 12.0015 49.1532Z" fill="#001C41"/>
<path d="M25.5554 56.7291H22.6894C22.6894 60.7854 19.286 64.2453 15.2258 64.2453H7.58301V52.9114H4.95581V67.0489H15.2258C20.9578 67.0489 25.5554 62.396 25.5554 56.7291Z" fill="#001C41"/>
<path d="M52.9022 53.4482C52.9022 46.8269 47.5284 41.5775 40.9604 41.5775H12.0612C9.73256 41.5775 7.52333 39.609 7.52333 37.2229V26.4855H15.1064C19.2263 26.4855 22.6297 29.8857 22.6297 34.0613H25.4957C25.4957 28.1558 20.8384 23.6819 15.1661 23.6819H4.89614V37.2229C4.89614 41.2196 8.001 44.4408 12.0015 44.4408H40.9007C45.8565 44.4408 49.9764 48.6761 49.9764 53.6272V68.8385H37.7958C32.7205 68.8385 28.3021 65.6769 26.5108 61.2627C24.7195 65.7366 20.3011 68.8385 15.2258 68.8385H2.98545V52.9114H0V71.8211H15.2258C19.704 71.8211 23.7642 69.8526 26.5108 66.7507C29.3171 69.8526 33.3176 71.8211 37.7958 71.8211H52.9022V53.4482Z" fill="#001C41"/>
<path d="M238 0H109.626V3.75808H238V0Z" fill="#EB3C46"/>
<path d="M109.506 0H0V3.75808H109.506V0Z" fill="#0F69B4"/>
<path d="M60.1868 64.2452C60.1868 64.0662 60.3062 63.9469 60.4853 63.9469H60.545C60.6644 63.9469 60.7241 64.0066 60.8436 64.1259L63.7693 68.6594L66.695 64.1259C66.7548 64.0066 66.8742 63.9469 66.9936 63.9469H67.0533C67.1727 63.9469 67.3518 64.0662 67.3518 64.2452V71.642C67.3518 71.821 67.2324 71.9403 67.0533 71.9403C66.8742 71.9403 66.7548 71.821 66.7548 71.642V65.0206L64.0081 69.2559C63.9484 69.3752 63.8887 69.3752 63.7693 69.3752C63.6499 69.3752 63.5902 69.3156 63.5305 69.2559L60.7839 65.0206V71.642C60.7839 71.821 60.6644 71.9403 60.545 71.9403C60.4256 71.9403 60.3062 71.821 60.3062 71.642V64.2452H60.1868Z" fill="#141B41"/>
<path d="M71.1733 64.2452C71.1733 64.0662 71.2928 63.9469 71.4719 63.9469C71.5913 63.9469 71.7704 64.0662 71.7704 64.2452V71.642C71.7704 71.821 71.651 71.9403 71.4719 71.9403C71.2928 71.9403 71.1733 71.821 71.1733 71.642V64.2452Z" fill="#141B41"/>
<path d="M75.6515 64.2452C75.6515 64.0663 75.7709 63.947 75.95 63.947H76.0098C76.1292 63.947 76.1889 64.0066 76.3083 64.1259L81.3239 70.8666V64.1856C81.3239 64.0066 81.4433 63.8873 81.5627 63.8873C81.6821 63.8873 81.8015 64.0066 81.8015 64.1856V71.6421C81.8015 71.7614 81.6821 71.8807 81.5627 71.8807H81.503C81.3836 71.8807 81.3239 71.821 81.2044 71.7017L76.0695 64.7821V71.5824C76.0695 71.7614 75.9501 71.8807 75.8306 71.8807C75.7112 71.8807 75.5918 71.7614 75.5918 71.5824V64.2452H75.6515Z" fill="#141B41"/>
<path d="M85.802 64.2452C85.802 64.0662 85.9214 63.9469 86.1005 63.9469C86.22 63.9469 86.3991 64.0662 86.3991 64.2452V71.642C86.3991 71.821 86.2797 71.9403 86.1005 71.9403C85.9214 71.9403 85.802 71.821 85.802 71.642V64.2452Z" fill="#141B41"/>
<path d="M89.9815 70.8666C89.9218 70.807 89.8621 70.7473 89.8621 70.628C89.8621 70.4491 89.9815 70.3298 90.1606 70.3298C90.2203 70.3298 90.28 70.3894 90.3397 70.3894C91.116 71.1052 91.8325 71.4035 92.8475 71.4035C93.982 71.4035 94.7582 70.7473 94.7582 69.8525C94.7582 69.0174 94.3402 68.5402 92.6684 68.1823C90.8771 67.8244 90.1606 67.1682 90.1606 65.9752C90.1606 64.7821 91.1757 63.8873 92.549 63.8873C93.564 63.8873 94.2208 64.1856 94.9373 64.7225C94.997 64.7821 95.0567 64.8418 95.0567 64.9611C95.0567 65.14 94.9373 65.2593 94.7582 65.2593C94.6985 65.2593 94.6388 65.2593 94.5791 65.1997C93.9223 64.6628 93.2655 64.4838 92.4893 64.4838C91.4145 64.4838 90.6383 65.14 90.6383 65.9752C90.6383 66.8103 91.0562 67.3472 92.7878 67.7051C94.5194 68.063 95.2359 68.7191 95.2359 69.9122C95.2359 71.1649 94.2208 72.0597 92.7878 72.0597C91.713 72 90.8174 71.6421 89.9815 70.8666Z" fill="#141B41"/>
<path d="M100.669 64.5434H98.2811C98.1617 64.5434 98.0422 64.4241 98.0422 64.2452C98.0422 64.0662 98.1617 63.9469 98.2811 63.9469H103.595C103.715 63.9469 103.834 64.0662 103.834 64.2452C103.834 64.4241 103.715 64.5434 103.595 64.5434H101.207V71.642C101.207 71.821 101.087 71.9403 100.908 71.9403C100.789 71.9403 100.61 71.821 100.61 71.642V64.5434H100.669Z" fill="#141B41"/>
<path d="M107.178 71.5824V64.2452C107.178 64.0662 107.297 63.9469 107.476 63.9469H112.313C112.432 63.9469 112.552 64.0662 112.552 64.2452C112.552 64.4241 112.432 64.5434 112.313 64.5434H107.775V67.6453H111.835C111.954 67.6453 112.074 67.7646 112.074 67.9436C112.074 68.1225 111.954 68.2418 111.835 68.2418H107.775V71.4034H112.372C112.492 71.4034 112.611 71.5227 112.611 71.7017C112.611 71.8806 112.492 71.9999 112.372 71.9999H107.476C107.297 71.8806 107.178 71.7613 107.178 71.5824Z" fill="#141B41"/>
<path d="M115.955 64.2452C115.955 64.0662 116.074 63.9469 116.254 63.9469H119.12C120.015 63.9469 120.791 64.2452 121.209 64.7224C121.568 65.0803 121.747 65.6172 121.747 66.2137C121.747 67.526 120.791 68.3015 119.538 68.4805L121.687 71.4034C121.747 71.4631 121.747 71.5227 121.747 71.5824C121.747 71.7613 121.627 71.8806 121.448 71.8806C121.329 71.8806 121.269 71.821 121.209 71.7017L118.94 68.5401H116.492V71.5824C116.492 71.7613 116.373 71.8806 116.194 71.8806C116.015 71.8806 115.895 71.7613 115.895 71.5824V64.2452H115.955ZM119 68.0629C120.254 68.0629 121.15 67.4067 121.15 66.2733C121.15 65.1996 120.373 64.5434 119 64.5434H116.433V68.1225H119V68.0629Z" fill="#141B41"/>
<path d="M125.389 64.2452C125.389 64.0662 125.508 63.9469 125.687 63.9469C125.807 63.9469 125.986 64.0662 125.986 64.2452V71.642C125.986 71.821 125.867 71.9403 125.687 71.9403C125.508 71.9403 125.389 71.821 125.389 71.642V64.2452Z" fill="#141B41"/>
<path d="M129.509 67.9436C129.509 65.7365 131.002 63.8276 133.27 63.8276C135.539 63.8276 137.032 65.7365 137.032 67.884C137.032 70.0314 135.539 72 133.27 72C131.002 72 129.509 70.0911 129.509 67.9436ZM136.495 67.9436C136.495 65.9751 135.121 64.3645 133.33 64.3645C131.479 64.3645 130.166 65.9751 130.166 67.884C130.166 69.8525 131.539 71.4631 133.33 71.4631C135.121 71.4631 136.495 69.9121 136.495 67.9436Z" fill="#141B41"/>
<path d="M145.391 64.2452C145.391 64.0662 145.511 63.9469 145.69 63.9469H147.899C150.228 63.9469 151.9 65.6768 151.9 67.8839C151.9 70.0911 150.287 71.821 147.899 71.821H145.69C145.511 71.821 145.391 71.7017 145.391 71.5227V64.2452ZM147.899 71.3438C149.989 71.3438 151.303 69.8525 151.303 67.9436C151.303 66.0944 149.989 64.5434 147.899 64.5434H145.988V71.3438H147.899Z" fill="#141B41"/>
<path d="M155.363 71.5824V64.2452C155.363 64.0662 155.482 63.9469 155.661 63.9469H160.498C160.617 63.9469 160.737 64.0662 160.737 64.2452C160.737 64.4241 160.617 64.5434 160.498 64.5434H155.96V67.6453H160.02C160.14 67.6453 160.259 67.7646 160.259 67.9436C160.259 68.1225 160.14 68.2418 160.02 68.2418H155.96V71.4034H160.557C160.677 71.4034 160.796 71.5227 160.796 71.7017C160.796 71.8806 160.677 71.9999 160.557 71.9999H155.661C155.542 71.8806 155.363 71.7613 155.363 71.5824Z" fill="#141B41"/>
<path d="M169.036 64.2452C169.036 64.0662 169.156 63.9469 169.335 63.9469C169.454 63.9469 169.633 64.0662 169.633 64.2452V67.6453H174.41V64.2452C174.41 64.0662 174.529 63.9469 174.708 63.9469C174.828 63.9469 175.007 64.0662 175.007 64.2452V71.642C175.007 71.821 174.888 71.9403 174.708 71.9403C174.529 71.9403 174.41 71.821 174.41 71.642V68.1822H169.633V71.642C169.633 71.821 169.514 71.9403 169.335 71.9403C169.156 71.9403 169.036 71.821 169.036 71.642V64.2452Z" fill="#141B41"/>
<path d="M178.291 71.5228L181.456 64.1856C181.515 64.0066 181.635 63.8873 181.814 63.8873C181.993 63.8873 182.112 64.0066 182.172 64.1856L185.337 71.4631C185.396 71.5228 185.396 71.5824 185.396 71.6421C185.396 71.7614 185.277 71.9403 185.158 71.9403C185.038 71.9403 184.919 71.821 184.859 71.7017L183.963 69.6736H179.545L178.649 71.7017C178.59 71.821 178.53 71.9403 178.41 71.9403C178.291 71.9403 178.172 71.821 178.172 71.7017C178.231 71.6421 178.291 71.5824 178.291 71.5228ZM183.844 69.1367L181.874 64.5435L179.903 69.1367H183.844Z" fill="#141B41"/>
<path d="M188.083 67.9436C188.083 65.6769 189.636 63.8276 191.845 63.8276C193.099 63.8276 193.875 64.3049 194.592 64.961C194.651 65.0207 194.711 65.0803 194.711 65.1996C194.711 65.3786 194.592 65.4979 194.413 65.4979C194.353 65.4979 194.293 65.4382 194.234 65.4382C193.636 64.8417 192.92 64.4242 191.845 64.4242C190.054 64.4242 188.681 65.9751 188.681 67.9436C188.681 69.9718 190.054 71.5228 191.845 71.5228C192.86 71.5228 193.577 71.1648 194.293 70.449C194.353 70.3894 194.413 70.3297 194.472 70.3297C194.592 70.3297 194.711 70.449 194.711 70.628C194.711 70.7473 194.651 70.8069 194.651 70.8069C193.875 71.5228 193.099 72.0596 191.845 72.0596C189.636 72 188.083 70.2104 188.083 67.9436Z" fill="#141B41"/>
<path d="M197.995 64.2452C197.995 64.0662 198.115 63.9469 198.294 63.9469C198.413 63.9469 198.592 64.0662 198.592 64.2452V71.642C198.592 71.821 198.473 71.9403 198.294 71.9403C198.115 71.9403 197.995 71.821 197.995 71.642V64.2452Z" fill="#141B41"/>
<path d="M202.473 71.5824V64.2452C202.473 64.0662 202.593 63.9469 202.772 63.9469H207.608C207.728 63.9469 207.847 64.0662 207.847 64.2452C207.847 64.4241 207.728 64.5434 207.608 64.5434H203.07V67.6453H207.131C207.25 67.6453 207.37 67.7646 207.37 67.9436C207.37 68.1225 207.25 68.2418 207.131 68.2418H203.07V71.4034H207.668C207.787 71.4034 207.907 71.5227 207.907 71.7017C207.907 71.8806 207.787 71.9999 207.668 71.9999H202.772C202.593 71.8806 202.473 71.7613 202.473 71.5824Z" fill="#141B41"/>
<path d="M211.31 64.2452C211.31 64.0663 211.43 63.947 211.609 63.947H211.668C211.788 63.947 211.848 64.0066 211.967 64.1259L216.983 70.8666V64.1856C216.983 64.0066 217.102 63.8873 217.221 63.8873C217.341 63.8873 217.46 64.0066 217.46 64.1856V71.6421C217.46 71.7614 217.341 71.8807 217.221 71.8807H217.162C217.042 71.8807 216.983 71.821 216.863 71.7017L211.728 64.7821V71.5824C211.728 71.7614 211.609 71.8807 211.489 71.8807C211.37 71.8807 211.25 71.7614 211.25 71.5824V64.2452H211.31Z" fill="#141B41"/>
<path d="M221.341 64.2452C221.341 64.0662 221.461 63.9469 221.64 63.9469H223.849C226.178 63.9469 227.85 65.6768 227.85 67.8839C227.85 70.0911 226.237 71.821 223.849 71.821H221.64C221.461 71.821 221.341 71.7017 221.341 71.5227V64.2452ZM223.849 71.3438C225.939 71.3438 227.252 69.8525 227.252 67.9436C227.252 66.0944 225.939 64.5434 223.849 64.5434H221.938V71.3438H223.849Z" fill="#141B41"/>
<path d="M230.417 71.5228L233.582 64.1856C233.641 64.0066 233.761 63.8873 233.94 63.8873C234.119 63.8873 234.238 64.0066 234.298 64.1856L237.463 71.4631C237.522 71.5228 237.522 71.5824 237.522 71.6421C237.522 71.7614 237.403 71.9403 237.284 71.9403C237.164 71.9403 237.045 71.821 236.985 71.7017L236.089 69.6736H231.671L230.775 71.7017C230.716 71.821 230.656 71.9403 230.536 71.9403C230.417 71.9403 230.298 71.821 230.298 71.7017C230.357 71.6421 230.357 71.5824 230.417 71.5228ZM235.91 69.1367L233.94 64.5435L231.969 69.1367H235.91Z" fill="#141B41"/>
</g>
<defs>
<clipPath id="clip0">
<rect width="238" height="72" fill="white"/>
</clipPath>
</defs>
</svg>
