<?xml version="1.0" encoding="utf-8"?>
<!-- Generator: Adobe Illustrator 23.0.1, SVG Export Plug-In . SVG Version: 6.00 Build 0)  -->
<svg version="1.1" id="Capa_1" xmlns="http://www.w3.org/2000/svg" xmlns:xlink="http://www.w3.org/1999/xlink" x="0px" y="0px"
	 viewBox="0 0 658.6 246" style="enable-background:new 0 0 658.6 246;" xml:space="preserve">
<style type="text/css">
	.st0{opacity:5.000000e-02;fill:#AD0800;enable-background:new    ;}
	.st1{fill:#AD0800;}
	.st2{fill:#999999;}
	.st3{fill:#259954;}
	.st4{fill:none;}
	.st5{enable-background:new    ;}
	.st6{fill:#2ECC71;}
	.st7{fill:#263238;}
	.st8{opacity:0.8;fill:#2ECC71;enable-background:new    ;}
	.st9{fill:#FFFFFF;}
	.st10{fill:#E8505B;}
	.st11{opacity:0;fill:#AD0800;}
	.st12{opacity:0.8;fill:#AD0800;enable-background:new    ;}
	.st13{opacity:0.6;fill:#AD0800;enable-background:new    ;}
	.st14{opacity:0.4;fill:#AD0800;enable-background:new    ;}
	.st15{fill:#2C3E50;}
	.st16{fill:#BDC3C7;}
</style>
<path class="st0" d="M37.3,118.8C-96.3,205,158.9,244.6,320.4,244.6c158.7,0,338.2-25.2,338.2-102.7
	C658.5-57.7,266.6-29.2,37.3,118.8z"/>
<g>
	<circle class="st1" cx="124.6" cy="165.9" r="47.4"/>
	<circle class="st2" cx="355.5" cy="165.9" r="47.4"/>
	<circle class="st3" cx="586.4" cy="165.9" r="47.4"/>
	<g>
		<rect x="508.8" y="24" class="st4" width="150" height="26.3"/>
		<g class="st5">
			<path class="st6" d="M543.6,34.1c0-0.5-0.2-0.9-0.5-1.1s-1-0.5-1.9-0.8s-1.6-0.6-2.2-0.9c-1.5-0.8-2.2-1.8-2.2-3.2
				c0-0.7,0.2-1.3,0.6-1.9c0.4-0.5,0.9-1,1.7-1.3s1.5-0.5,2.5-0.5c0.9,0,1.7,0.2,2.4,0.5c0.7,0.3,1.3,0.8,1.7,1.4s0.6,1.3,0.6,2.1
				h-2.6c0-0.6-0.2-1-0.6-1.4c-0.4-0.3-0.9-0.5-1.6-0.5c-0.6,0-1.1,0.1-1.5,0.4c-0.4,0.3-0.5,0.6-0.5,1.1c0,0.4,0.2,0.8,0.6,1
				s1,0.5,1.8,0.8c1.5,0.5,2.6,1,3.3,1.7s1,1.5,1,2.5c0,1.1-0.4,2-1.3,2.6c-0.8,0.6-2,0.9-3.4,0.9c-1,0-1.9-0.2-2.7-0.5
				c-0.8-0.4-1.4-0.9-1.8-1.5s-0.6-1.4-0.6-2.2h2.6c0,1.4,0.8,2.1,2.5,2.1c0.6,0,1.1-0.1,1.5-0.4C543.4,35,543.6,34.6,543.6,34.1z"
				/>
			<path class="st6" d="M553.4,37.5c-0.1-0.2-0.2-0.5-0.3-0.9c-0.6,0.7-1.4,1-2.4,1c-0.9,0-1.7-0.3-2.3-0.8s-0.9-1.2-0.9-2
				c0-1,0.4-1.8,1.1-2.3s1.8-0.8,3.2-0.8h1.2v-0.5c0-0.4-0.1-0.8-0.3-1.1s-0.6-0.4-1.1-0.4c-0.4,0-0.8,0.1-1,0.3s-0.4,0.5-0.4,0.8
				h-2.5c0-0.6,0.2-1.1,0.5-1.5s0.8-0.8,1.4-1.1s1.3-0.4,2.1-0.4c1.2,0,2.1,0.3,2.8,0.9c0.7,0.6,1,1.4,1,2.5v4.1
				c0,0.9,0.1,1.6,0.4,2v0.1H553.4z M551.3,35.7c0.4,0,0.7-0.1,1-0.3c0.3-0.2,0.6-0.4,0.7-0.7v-1.6h-0.9c-1.3,0-1.9,0.4-2,1.3l0,0.1
				c0,0.3,0.1,0.6,0.3,0.8S550.9,35.7,551.3,35.7z"/>
			<path class="st6" d="M560.6,25.7V28h1.6v1.9h-1.6v4.7c0,0.4,0.1,0.6,0.2,0.8s0.4,0.2,0.8,0.2c0.3,0,0.5,0,0.7-0.1v1.9
				c-0.5,0.2-1,0.2-1.5,0.2c-1.8,0-2.7-0.9-2.7-2.7v-5.1h-1.4V28h1.4v-2.3H560.6z"/>
			<path class="st6" d="M563.6,25.5c0-0.4,0.1-0.7,0.4-0.9s0.6-0.4,1-0.4c0.4,0,0.8,0.1,1,0.4s0.4,0.6,0.4,0.9
				c0,0.4-0.1,0.7-0.4,0.9s-0.6,0.4-1,0.4s-0.8-0.1-1-0.4S563.6,25.9,563.6,25.5z M566.3,37.5h-2.5V28h2.5V37.5z"/>
			<path class="st6" d="M573.5,34.9c0-0.3-0.2-0.6-0.5-0.7s-0.8-0.3-1.5-0.5c-2.3-0.5-3.4-1.4-3.4-2.9c0-0.8,0.4-1.5,1.1-2.1
				c0.7-0.6,1.6-0.8,2.7-0.8c1.2,0,2.2,0.3,2.9,0.9s1.1,1.3,1.1,2.2h-2.5c0-0.4-0.1-0.7-0.4-0.9c-0.2-0.2-0.6-0.4-1.1-0.4
				c-0.4,0-0.8,0.1-1,0.3s-0.4,0.4-0.4,0.7c0,0.3,0.1,0.5,0.4,0.7c0.3,0.2,0.7,0.3,1.3,0.4s1.2,0.3,1.6,0.4c1.3,0.5,2,1.3,2,2.6
				c0,0.9-0.4,1.6-1.1,2.1c-0.7,0.5-1.7,0.8-2.9,0.8c-0.8,0-1.5-0.1-2.1-0.4c-0.6-0.3-1.1-0.7-1.5-1.2c-0.4-0.5-0.5-1-0.5-1.6h2.4
				c0,0.5,0.2,0.8,0.5,1s0.7,0.4,1.2,0.4c0.5,0,0.9-0.1,1.1-0.3C573.4,35.4,573.5,35.2,573.5,34.9z"/>
			<path class="st6" d="M578.3,37.5v-7.6h-1.4V28h1.4v-0.8c0-1.1,0.3-1.9,0.9-2.5c0.6-0.6,1.5-0.9,2.6-0.9c0.4,0,0.8,0.1,1.3,0.2
				l0,2c-0.2-0.1-0.5-0.1-0.8-0.1c-1,0-1.4,0.4-1.4,1.3V28h1.9v1.9h-1.9v7.6H578.3z"/>
			<path class="st6" d="M588.2,37.7c-1.4,0-2.5-0.4-3.4-1.3s-1.3-2-1.3-3.4v-0.2c0-1,0.2-1.8,0.6-2.6s0.9-1.3,1.6-1.7
				s1.4-0.6,2.3-0.6c1.3,0,2.3,0.4,3.1,1.2s1.1,2,1.1,3.5v1h-6.1c0.1,0.6,0.3,1.1,0.7,1.5s0.9,0.6,1.6,0.6c1,0,1.7-0.4,2.3-1.1
				L592,36c-0.4,0.5-0.9,1-1.5,1.3C589.8,37.5,589,37.7,588.2,37.7z M588,29.9c-0.5,0-0.9,0.2-1.2,0.5c-0.3,0.3-0.5,0.8-0.6,1.5h3.5
				v-0.2c0-0.6-0.2-1-0.5-1.3C588.9,30,588.5,29.9,588,29.9z"/>
			<path class="st6" d="M597.6,35.6c0.5,0,0.8-0.1,1.1-0.4s0.4-0.6,0.5-1h2.4c0,0.6-0.2,1.2-0.5,1.8c-0.3,0.5-0.8,1-1.4,1.2
				c-0.6,0.3-1.3,0.4-2,0.4c-1.4,0-2.4-0.4-3.2-1.3c-0.8-0.9-1.2-2.1-1.2-3.6v-0.2c0-1.5,0.4-2.6,1.2-3.5s1.8-1.3,3.2-1.3
				c1.2,0,2.1,0.3,2.9,1c0.7,0.7,1.1,1.6,1.1,2.7h-2.4c0-0.5-0.2-0.9-0.5-1.2s-0.7-0.5-1.2-0.5c-0.6,0-1,0.2-1.3,0.6
				c-0.3,0.4-0.5,1.1-0.5,2.1v0.3c0,1,0.1,1.7,0.4,2.1S596.9,35.6,597.6,35.6z"/>
			<path class="st6" d="M605.5,29c0.7-0.8,1.5-1.2,2.5-1.2c2.1,0,3.1,1.2,3.1,3.6v6.1h-2.5v-6c0-0.5-0.1-0.9-0.4-1.2
				s-0.6-0.4-1.2-0.4c-0.7,0-1.3,0.3-1.6,0.9v6.8h-2.5V24h2.5V29z"/>
			<path class="st6" d="M612.7,32.7c0-0.9,0.2-1.8,0.5-2.5s0.9-1.3,1.6-1.7s1.5-0.6,2.4-0.6c1.3,0,2.3,0.4,3.1,1.2s1.3,1.9,1.4,3.2
				l0,0.7c0,1.5-0.4,2.6-1.2,3.5s-1.9,1.3-3.3,1.3s-2.5-0.4-3.3-1.3s-1.2-2.1-1.2-3.6V32.7z M615.2,32.8c0,0.9,0.2,1.6,0.5,2.1
				c0.3,0.5,0.8,0.7,1.5,0.7c0.6,0,1.1-0.2,1.4-0.7c0.3-0.5,0.5-1.2,0.5-2.3c0-0.9-0.2-1.6-0.5-2.1s-0.8-0.7-1.5-0.7
				c-0.6,0-1.1,0.2-1.4,0.7C615.4,31.1,615.2,31.8,615.2,32.8z"/>
			<path class="st6" d="M628.4,34.9c0-0.3-0.2-0.6-0.5-0.7s-0.8-0.3-1.5-0.5c-2.3-0.5-3.4-1.4-3.4-2.9c0-0.8,0.4-1.5,1.1-2.1
				c0.7-0.6,1.6-0.8,2.7-0.8c1.2,0,2.2,0.3,2.9,0.9s1.1,1.3,1.1,2.2h-2.5c0-0.4-0.1-0.7-0.4-0.9c-0.2-0.2-0.6-0.4-1.1-0.4
				c-0.4,0-0.8,0.1-1,0.3s-0.4,0.4-0.4,0.7c0,0.3,0.1,0.5,0.4,0.7c0.3,0.2,0.7,0.3,1.3,0.4s1.2,0.3,1.6,0.4c1.3,0.5,2,1.3,2,2.6
				c0,0.9-0.4,1.6-1.1,2.1c-0.7,0.5-1.7,0.8-2.9,0.8c-0.8,0-1.5-0.1-2.1-0.4c-0.6-0.3-1.1-0.7-1.5-1.2c-0.4-0.5-0.5-1-0.5-1.6h2.4
				c0,0.5,0.2,0.8,0.5,1s0.7,0.4,1.2,0.4c0.5,0,0.9-0.1,1.1-0.3C628.3,35.4,628.4,35.2,628.4,34.9z"/>
		</g>
		<g>
			<g>
				<g>
					
						<ellipse transform="matrix(0.3066 -0.9518 0.9518 0.3066 250.8349 667.6879)" class="st6" cx="583.7" cy="161.7" rx="47.4" ry="47.4"/>
					<g>
						<path class="st7" d="M567.4,149.7c1.8-0.1,3.4,1.8,3.6,4.4c0.2,2.6-1.1,4.8-2.9,5c-1.8,0.1-3.4-1.8-3.6-4.4
							C564.4,152,565.7,149.8,567.4,149.7z"/>
					</g>
					<g>
						<path class="st7" d="M597.6,149.1c-1.8-0.1-3.3,2-3.5,4.6c-0.1,2.6,1.3,4.8,3.1,4.8c1.8,0.1,3.3-2,3.5-4.6
							C600.7,151.3,599.4,149.1,597.6,149.1z"/>
					</g>
					<g>
						<path class="st7" d="M602.7,164.6c0.1,0.1-0.3,0.6-1.1,1.4c-0.7,0.9-2,1.9-3.6,3.2c-1.7,1.2-3.7,2.5-6.3,3.4
							c-2.5,0.9-5.5,1.5-8.7,1.4s-6.1-1-8.5-2c-2.5-1-4.6-2.2-6.3-3.3c-3.4-2.2-5.1-4-5-4.1c0.1-0.2,2.2,1.3,5.6,3.2
							c1.7,0.9,3.8,2.1,6.2,2.9c2.4,0.9,5.2,1.7,8.1,1.8c2.9,0.1,5.7-0.4,8.2-1.2s4.4-2,6.1-3c1.6-1.1,2.9-2,3.8-2.8
							C602.1,164.9,602.7,164.5,602.7,164.6z"/>
					</g>
					<g>
						<path class="st7" d="M569.6,139c-0.1,0.4-2.3,0.3-5,0.7s-4.8,1.2-5,0.9s1.8-1.9,4.8-2.3C567.3,137.8,569.7,138.6,569.6,139z"
							/>
					</g>
					<g>
						<path class="st7" d="M607.7,141.2c-0.3,0.3-2.3-0.9-5-1.7s-5-1-5-1.4c-0.1-0.4,2.5-0.9,5.5,0
							C606.2,139.1,608,140.9,607.7,141.2z"/>
					</g>
				</g>
				<g>
					<path class="st7" d="M564.1,161.2c0.2,0,0.5,0.5,0.5,1.4c0.1,0.9-0.2,2.2-1,3.3s-1.9,1.8-2.8,2.1c-0.9,0.2-1.4,0.1-1.5-0.1
						c-0.1-0.4,1.7-1,3-2.9C563.7,163.2,563.6,161.3,564.1,161.2z"/>
				</g>
				<g>
					<path class="st7" d="M606.7,165.6c0,0.2-0.4,0.5-1.1,0.5c-0.7,0.1-1.8-0.2-2.7-0.8c-0.9-0.7-1.4-1.6-1.6-2.3
						c-0.2-0.7,0-1.2,0.2-1.2c0.4,0,0.9,1.4,2.3,2.4C605.2,165.1,606.7,165.2,606.7,165.6z"/>
				</g>
			</g>
		</g>
		<circle class="st8" cx="558.9" cy="72.1" r="19.3"/>
		<rect x="545.5" y="64.1" class="st4" width="26.8" height="22.3"/>
		<g class="st5">
			<path class="st9" d="M561.8,64.7v2.5h-0.1c-1.2,0-2.1,0.3-2.9,0.8c-0.8,0.6-1.2,1.3-1.4,2.3c0.7-0.7,1.6-1,2.7-1
				c1.2,0,2.1,0.4,2.8,1.3c0.7,0.9,1,2,1,3.3c0,0.9-0.2,1.6-0.6,2.4c-0.4,0.7-1,1.3-1.7,1.7s-1.5,0.6-2.4,0.6c-1,0-1.8-0.2-2.6-0.7
				c-0.8-0.4-1.3-1.1-1.8-1.9s-0.6-1.7-0.6-2.8V72c0-1.4,0.3-2.6,0.9-3.7c0.6-1.1,1.4-2,2.5-2.6s2.3-0.9,3.7-0.9H561.8z M559,71.6
				c-0.4,0-0.8,0.1-1,0.3c-0.3,0.2-0.5,0.4-0.6,0.7v0.9c0,1.7,0.6,2.6,1.8,2.6c0.5,0,0.9-0.2,1.2-0.6s0.5-1,0.5-1.6
				c0-0.7-0.2-1.2-0.5-1.6C559.9,71.9,559.5,71.6,559,71.6z"/>
		</g>
		<circle class="st6" cx="608.7" cy="72" r="19.3"/>
		<rect x="595.2" y="64" class="st4" width="26.8" height="22.3"/>
		<g class="st5">
			<path class="st9" d="M613.4,66.4l-5,11.8H605l5-11.1h-6.4v-2.4h9.7V66.4z"/>
		</g>
	</g>
	<g>
		<rect x="46.8" y="24" class="st4" width="150" height="26.3"/>
		<g class="st5">
			<path class="st1" d="M71.1,37.5h-2.6V24.7h2.6V37.5z"/>
			<path class="st1" d="M75.7,28l0.1,1.1c0.7-0.8,1.6-1.3,2.7-1.3c1,0,1.8,0.3,2.2,0.9s0.7,1.5,0.8,2.7v6.1H79v-6.1
				c0-0.5-0.1-0.9-0.4-1.2c-0.2-0.2-0.6-0.4-1.2-0.4c-0.7,0-1.3,0.3-1.6,0.9v6.7h-2.5V28H75.7z"/>
			<path class="st1" d="M88.6,34.9c0-0.3-0.2-0.6-0.5-0.7s-0.8-0.3-1.5-0.5c-2.3-0.5-3.4-1.4-3.4-2.9c0-0.8,0.4-1.5,1.1-2.1
				c0.7-0.6,1.6-0.8,2.7-0.8c1.2,0,2.2,0.3,2.9,0.9S91,30,91,30.9h-2.5c0-0.4-0.1-0.7-0.4-0.9c-0.2-0.2-0.6-0.4-1.1-0.4
				c-0.4,0-0.8,0.1-1,0.3s-0.4,0.4-0.4,0.7c0,0.3,0.1,0.5,0.4,0.7c0.3,0.2,0.7,0.3,1.3,0.4s1.2,0.3,1.6,0.4c1.3,0.5,2,1.3,2,2.6
				c0,0.9-0.4,1.6-1.1,2.1c-0.7,0.5-1.7,0.8-2.9,0.8c-0.8,0-1.5-0.1-2.1-0.4c-0.6-0.3-1.1-0.7-1.5-1.2c-0.4-0.5-0.5-1-0.5-1.6h2.4
				c0,0.5,0.2,0.8,0.5,1s0.7,0.4,1.2,0.4c0.5,0,0.9-0.1,1.1-0.3C88.5,35.4,88.6,35.2,88.6,34.9z"/>
			<path class="st1" d="M98.2,37.5C98.1,37.3,98,37,98,36.6c-0.6,0.7-1.4,1-2.4,1c-0.9,0-1.7-0.3-2.3-0.8s-0.9-1.2-0.9-2
				c0-1,0.4-1.8,1.1-2.3s1.8-0.8,3.2-0.8h1.2v-0.5c0-0.4-0.1-0.8-0.3-1.1s-0.6-0.4-1.1-0.4c-0.4,0-0.8,0.1-1,0.3s-0.4,0.5-0.4,0.8
				h-2.5c0-0.6,0.2-1.1,0.5-1.5s0.8-0.8,1.4-1.1s1.3-0.4,2.1-0.4c1.2,0,2.1,0.3,2.8,0.9c0.7,0.6,1,1.4,1,2.5v4.1
				c0,0.9,0.1,1.6,0.4,2v0.1H98.2z M96.1,35.7c0.4,0,0.7-0.1,1-0.3c0.3-0.2,0.6-0.4,0.7-0.7v-1.6h-0.9c-1.3,0-1.9,0.4-2,1.3l0,0.1
				c0,0.3,0.1,0.6,0.3,0.8S95.7,35.7,96.1,35.7z"/>
			<path class="st1" d="M105.4,25.7V28h1.6v1.9h-1.6v4.7c0,0.4,0.1,0.6,0.2,0.8s0.4,0.2,0.8,0.2c0.3,0,0.5,0,0.7-0.1v1.9
				c-0.5,0.2-1,0.2-1.5,0.2c-1.8,0-2.7-0.9-2.7-2.7v-5.1h-1.4V28h1.4v-2.3H105.4z"/>
			<path class="st1" d="M108.4,25.5c0-0.4,0.1-0.7,0.4-0.9s0.6-0.4,1-0.4c0.4,0,0.8,0.1,1,0.4s0.4,0.6,0.4,0.9
				c0,0.4-0.1,0.7-0.4,0.9s-0.6,0.4-1,0.4s-0.8-0.1-1-0.4S108.4,25.9,108.4,25.5z M111.1,37.5h-2.5V28h2.5V37.5z"/>
			<path class="st1" d="M118.4,34.9c0-0.3-0.2-0.6-0.5-0.7s-0.8-0.3-1.5-0.5c-2.3-0.5-3.4-1.4-3.4-2.9c0-0.8,0.4-1.5,1.1-2.1
				c0.7-0.6,1.6-0.8,2.7-0.8c1.2,0,2.2,0.3,2.9,0.9s1.1,1.3,1.1,2.2h-2.5c0-0.4-0.1-0.7-0.4-0.9c-0.2-0.2-0.6-0.4-1.1-0.4
				c-0.4,0-0.8,0.1-1,0.3s-0.4,0.4-0.4,0.7c0,0.3,0.1,0.5,0.4,0.7c0.3,0.2,0.7,0.3,1.3,0.4s1.2,0.3,1.6,0.4c1.3,0.5,2,1.3,2,2.6
				c0,0.9-0.4,1.6-1.1,2.1c-0.7,0.5-1.7,0.8-2.9,0.8c-0.8,0-1.5-0.1-2.1-0.4c-0.6-0.3-1.1-0.7-1.5-1.2c-0.4-0.5-0.5-1-0.5-1.6h2.4
				c0,0.5,0.2,0.8,0.5,1s0.7,0.4,1.2,0.4c0.5,0,0.9-0.1,1.1-0.3C118.2,35.4,118.4,35.2,118.4,34.9z"/>
			<path class="st1" d="M123.2,37.5v-7.6h-1.4V28h1.4v-0.8c0-1.1,0.3-1.9,0.9-2.5c0.6-0.6,1.5-0.9,2.6-0.9c0.4,0,0.8,0.1,1.3,0.2
				l0,2c-0.2-0.1-0.5-0.1-0.8-0.1c-1,0-1.4,0.4-1.4,1.3V28h1.9v1.9h-1.9v7.6H123.2z"/>
			<path class="st1" d="M133.1,37.7c-1.4,0-2.5-0.4-3.4-1.3s-1.3-2-1.3-3.4v-0.2c0-1,0.2-1.8,0.6-2.6s0.9-1.3,1.6-1.7
				s1.4-0.6,2.3-0.6c1.3,0,2.3,0.4,3.1,1.2s1.1,2,1.1,3.5v1h-6.1c0.1,0.6,0.3,1.1,0.7,1.5s0.9,0.6,1.6,0.6c1,0,1.7-0.4,2.3-1.1
				l1.2,1.4c-0.4,0.5-0.9,1-1.5,1.3C134.6,37.5,133.9,37.7,133.1,37.7z M132.8,29.9c-0.5,0-0.9,0.2-1.2,0.5
				c-0.3,0.3-0.5,0.8-0.6,1.5h3.5v-0.2c0-0.6-0.2-1-0.5-1.3C133.7,30,133.3,29.9,132.8,29.9z"/>
			<path class="st1" d="M142.4,35.6c0.5,0,0.8-0.1,1.1-0.4s0.4-0.6,0.5-1h2.4c0,0.6-0.2,1.2-0.5,1.8c-0.3,0.5-0.8,1-1.4,1.2
				c-0.6,0.3-1.3,0.4-2,0.4c-1.4,0-2.4-0.4-3.2-1.3c-0.8-0.9-1.2-2.1-1.2-3.6v-0.2c0-1.5,0.4-2.6,1.2-3.5s1.8-1.3,3.2-1.3
				c1.2,0,2.1,0.3,2.9,1c0.7,0.7,1.1,1.6,1.1,2.7H144c0-0.5-0.2-0.9-0.5-1.2s-0.7-0.5-1.2-0.5c-0.6,0-1,0.2-1.3,0.6
				c-0.3,0.4-0.5,1.1-0.5,2.1v0.3c0,1,0.1,1.7,0.4,2.1S141.8,35.6,142.4,35.6z"/>
			<path class="st1" d="M150.3,29c0.7-0.8,1.5-1.2,2.5-1.2c2.1,0,3.1,1.2,3.1,3.6v6.1h-2.5v-6c0-0.5-0.1-0.9-0.4-1.2
				s-0.6-0.4-1.2-0.4c-0.7,0-1.3,0.3-1.6,0.9v6.8h-2.5V24h2.5V29z"/>
			<path class="st1" d="M157.5,32.7c0-0.9,0.2-1.8,0.5-2.5s0.9-1.3,1.6-1.7s1.5-0.6,2.4-0.6c1.3,0,2.3,0.4,3.1,1.2s1.3,1.9,1.4,3.2
				l0,0.7c0,1.5-0.4,2.6-1.2,3.5s-1.9,1.3-3.3,1.3s-2.5-0.4-3.3-1.3s-1.2-2.1-1.2-3.6V32.7z M160,32.8c0,0.9,0.2,1.6,0.5,2.1
				c0.3,0.5,0.8,0.7,1.5,0.7c0.6,0,1.1-0.2,1.4-0.7c0.3-0.5,0.5-1.2,0.5-2.3c0-0.9-0.2-1.6-0.5-2.1s-0.8-0.7-1.5-0.7
				c-0.6,0-1.1,0.2-1.4,0.7C160.2,31.1,160,31.8,160,32.8z"/>
			<path class="st1" d="M173.2,34.9c0-0.3-0.2-0.6-0.5-0.7s-0.8-0.3-1.5-0.5c-2.3-0.5-3.4-1.4-3.4-2.9c0-0.8,0.4-1.5,1.1-2.1
				c0.7-0.6,1.6-0.8,2.7-0.8c1.2,0,2.2,0.3,2.9,0.9s1.1,1.3,1.1,2.2h-2.5c0-0.4-0.1-0.7-0.4-0.9c-0.2-0.2-0.6-0.4-1.1-0.4
				c-0.4,0-0.8,0.1-1,0.3s-0.4,0.4-0.4,0.7c0,0.3,0.1,0.5,0.4,0.7c0.3,0.2,0.7,0.3,1.3,0.4s1.2,0.3,1.6,0.4c1.3,0.5,2,1.3,2,2.6
				c0,0.9-0.4,1.6-1.1,2.1c-0.7,0.5-1.7,0.8-2.9,0.8c-0.8,0-1.5-0.1-2.1-0.4c-0.6-0.3-1.1-0.7-1.5-1.2c-0.4-0.5-0.5-1-0.5-1.6h2.4
				c0,0.5,0.2,0.8,0.5,1s0.7,0.4,1.2,0.4c0.5,0,0.9-0.1,1.1-0.3C173.1,35.4,173.2,35.2,173.2,34.9z"/>
		</g>
		<circle class="st1" cx="47.2" cy="72.1" r="19.3"/>
		<g>
			<ellipse class="st10" cx="122.6" cy="161.7" rx="47.4" ry="47.4"/>
			<circle class="st11" cx="122.6" cy="161.7" r="47.4"/>
			<g>
				<path class="st7" d="M106.3,149.7c1.8-0.1,3.4,1.8,3.6,4.4c0.2,2.6-1.1,4.8-2.9,5c-1.8,0.1-3.4-1.8-3.6-4.4
					C103.2,152,104.5,149.8,106.3,149.7z"/>
			</g>
			<g>
				<path class="st7" d="M136.4,149.1c-1.8-0.1-3.3,2-3.5,4.6c-0.1,2.6,1.3,4.8,3.1,4.8c1.8,0.1,3.3-2,3.5-4.6
					C139.6,151.3,138.2,149.1,136.4,149.1z"/>
			</g>
			<g>
				<path class="st7" d="M141.6,171c-0.2,0.3-2.2-1.1-5.5-2.9c-3.4-1.7-8.4-3.6-14.1-3.5s-10.7,2.1-14.1,3.7
					c-3.4,1.7-5.5,2.9-5.7,2.7c-0.1-0.2,1.6-1.9,5-3.9s8.6-4.3,14.8-4.4c6.2-0.1,11.5,2.2,14.8,4.2C140.1,169,141.7,170.8,141.6,171
					z"/>
			</g>
			<g>
				<path class="st7" d="M109.9,144.2c0.2,0.2-0.1,0.8-0.9,1.5s-2.1,1.4-3.7,1.7s-3.2,0-4.1-0.5c-1-0.4-1.4-1-1.3-1.2
					c0.2-0.5,2.5,0.2,5.1-0.3C107.5,145.1,109.6,143.8,109.9,144.2z"/>
			</g>
			<g>
				<path class="st7" d="M145,146.5c0.1,0.2-0.4,0.7-1.5,1c-1,0.3-2.7,0.4-4.3-0.2c-1.6-0.6-2.8-1.5-3.5-2.3s-0.9-1.4-0.8-1.6
					c0.4-0.4,2.3,1.2,4.9,2.1C142.4,146.5,144.8,146,145,146.5z"/>
			</g>
		</g>
		<rect x="33.8" y="64.1" class="st4" width="26.8" height="22.3"/>
		<g class="st5">
			<path class="st9" d="M49.5,78.3h-3.1v-10l-3.1,0.9v-2.4l5.9-2h0.3V78.3z"/>
		</g>
		<circle class="st12" cx="97" cy="72" r="19.3"/>
		<rect x="83.6" y="64" class="st4" width="26.8" height="22.3"/>
		<g class="st5">
			<path class="st9" d="M101.7,78.2h-9.4v-2l4.3-4.6c1.1-1.2,1.6-2.2,1.6-2.9c0-0.6-0.1-1-0.4-1.3c-0.3-0.3-0.6-0.5-1.1-0.5
				c-0.5,0-0.9,0.2-1.2,0.6s-0.4,0.9-0.4,1.5H92c0-0.8,0.2-1.6,0.6-2.3c0.4-0.7,1-1.2,1.7-1.6s1.6-0.6,2.5-0.6c1.5,0,2.6,0.3,3.4,1
				c0.8,0.7,1.2,1.6,1.2,2.9c0,0.5-0.1,1-0.3,1.6s-0.5,1-0.9,1.6c-0.4,0.6-1.1,1.3-2,2.2l-1.7,2h5.3V78.2z"/>
		</g>
		<circle class="st13" cx="147.5" cy="72.1" r="19.3"/>
		<rect x="134.1" y="64.1" class="st4" width="26.8" height="22.3"/>
		<g class="st5">
			<path class="st9" d="M145.7,70.3h1.5c1.2,0,1.7-0.6,1.7-1.7c0-0.4-0.1-0.8-0.4-1.1c-0.3-0.3-0.7-0.4-1.2-0.4
				c-0.4,0-0.8,0.1-1.1,0.4c-0.3,0.2-0.5,0.5-0.5,0.9h-3.1c0-0.7,0.2-1.3,0.6-1.9c0.4-0.6,0.9-1,1.6-1.3s1.5-0.5,2.3-0.5
				c1.5,0,2.7,0.3,3.5,1c0.9,0.7,1.3,1.6,1.3,2.8c0,0.6-0.2,1.1-0.5,1.6c-0.4,0.5-0.9,0.9-1.5,1.3c0.7,0.3,1.3,0.7,1.7,1.2
				s0.6,1.2,0.6,2c0,1.2-0.5,2.2-1.4,2.9s-2.1,1.1-3.6,1.1c-0.9,0-1.7-0.2-2.5-0.5c-0.8-0.3-1.3-0.8-1.7-1.4c-0.4-0.6-0.6-1.3-0.6-2
				h3.1c0,0.4,0.2,0.8,0.5,1.1c0.3,0.3,0.7,0.5,1.2,0.5c0.5,0,1-0.2,1.3-0.5c0.3-0.3,0.5-0.7,0.5-1.2c0-0.7-0.2-1.2-0.5-1.4
				c-0.3-0.3-0.8-0.4-1.4-0.4h-1.5V70.3z"/>
		</g>
		<circle class="st14" cx="197.3" cy="72" r="19.3"/>
		<rect x="183.9" y="64" class="st4" width="26.8" height="22.3"/>
		<g class="st5">
			<path class="st9" d="M200.8,72.9h1.4v2.4h-1.4v2.9h-3.1v-2.9h-5.2l-0.2-1.9l5.4-8.7v0h3.1V72.9z M195.3,72.9h2.4v-4.1l-0.2,0.3
				L195.3,72.9z"/>
		</g>
	</g>
	<g>
		<rect x="278" y="24" class="st4" width="150" height="26.3"/>
		<g class="st5">
			<path class="st15" d="M337,37.5h-2.6l-5.1-8.4v8.4h-2.6V24.7h2.6l5.1,8.4v-8.4h2.6V37.5z"/>
			<path class="st15" d="M343.5,37.7c-1.4,0-2.5-0.4-3.4-1.3s-1.3-2-1.3-3.4v-0.2c0-1,0.2-1.8,0.6-2.6s0.9-1.3,1.6-1.7
				s1.4-0.6,2.3-0.6c1.3,0,2.3,0.4,3.1,1.2s1.1,2,1.1,3.5v1h-6.1c0.1,0.6,0.3,1.1,0.7,1.5s0.9,0.6,1.6,0.6c1,0,1.7-0.4,2.3-1.1
				l1.2,1.4c-0.4,0.5-0.9,1-1.5,1.3C345,37.5,344.3,37.7,343.5,37.7z M343.2,29.9c-0.5,0-0.9,0.2-1.2,0.5c-0.3,0.3-0.5,0.8-0.6,1.5
				h3.5v-0.2c0-0.6-0.2-1-0.5-1.3C344.1,30,343.7,29.9,343.2,29.9z"/>
			<path class="st15" d="M354.5,36.5c-0.6,0.8-1.5,1.1-2.6,1.1c-1,0-1.8-0.3-2.3-0.9s-0.8-1.4-0.8-2.6V28h2.5v6.2
				c0,1,0.5,1.5,1.4,1.5c0.9,0,1.5-0.3,1.8-0.9V28h2.5v9.5h-2.4L354.5,36.5z"/>
			<path class="st15" d="M361.9,25.7V28h1.6v1.9h-1.6v4.7c0,0.4,0.1,0.6,0.2,0.8s0.4,0.2,0.8,0.2c0.3,0,0.5,0,0.7-0.1v1.9
				c-0.5,0.2-1,0.2-1.5,0.2c-1.8,0-2.7-0.9-2.7-2.7v-5.1H358V28h1.4v-2.3H361.9z"/>
			<path class="st15" d="M370.3,30.4c-0.3,0-0.7-0.1-0.9-0.1c-1,0-1.6,0.3-1.9,1v6.2H365V28h2.4l0.1,1.1c0.5-0.9,1.2-1.3,2.1-1.3
				c0.3,0,0.5,0,0.8,0.1L370.3,30.4z"/>
			<path class="st15" d="M370.8,32.7c0-0.9,0.2-1.8,0.5-2.5s0.9-1.3,1.6-1.7s1.5-0.6,2.4-0.6c1.3,0,2.3,0.4,3.1,1.2s1.3,1.9,1.4,3.2
				l0,0.7c0,1.5-0.4,2.6-1.2,3.5s-1.9,1.3-3.3,1.3s-2.5-0.4-3.3-1.3s-1.2-2.1-1.2-3.6V32.7z M373.4,32.8c0,0.9,0.2,1.6,0.5,2.1
				c0.3,0.5,0.8,0.7,1.5,0.7c0.6,0,1.1-0.2,1.4-0.7c0.3-0.5,0.5-1.2,0.5-2.3c0-0.9-0.2-1.6-0.5-2.1s-0.8-0.7-1.5-0.7
				c-0.6,0-1.1,0.2-1.4,0.7C373.5,31.1,373.4,31.8,373.4,32.8z"/>
		</g>
		<g>
			<ellipse class="st10" cx="352.7" cy="161.6" rx="47.4" ry="47.4"/>
			<ellipse class="st16" cx="352.7" cy="161.6" rx="47.4" ry="47.4"/>
			<g>
				<path class="st7" d="M336.3,149.7c1.8-0.1,3.4,1.8,3.6,4.4c0.2,2.6-1.1,4.8-2.9,5c-1.8,0.1-3.4-1.8-3.6-4.4
					C333.2,152,334.5,149.8,336.3,149.7z"/>
			</g>
			<g>
				<path class="st7" d="M366.4,149.1c-1.8-0.1-3.3,2-3.5,4.6c-0.1,2.6,1.3,4.8,3.1,4.8c1.8,0.1,3.3-2,3.5-4.6
					C369.6,151.3,368.2,149.1,366.4,149.1z"/>
			</g>
			<g>
				<path class="st7" d="M371.6,171c0,0.6-8.8,1-19.7,1c-10.9,0-19.7-0.5-19.7-1c0-0.6,8.8-1,19.7-1S371.6,170.4,371.6,171z"/>
			</g>
			<g>
				<path class="st7" d="M339.9,144.2c-0.1,0.6-2.4,0.5-5,1c-2.6,0.4-4.8,1.1-5.1,0.6c-0.3-0.5,1.7-2.1,4.7-2.6
					C337.7,142.7,340.1,143.7,339.9,144.2z"/>
			</g>
			<g>
				<path class="st7" d="M375,146.5c-0.4,0.5-2.4-0.6-5-1.4c-2.6-0.8-4.9-1.1-5-1.7c-0.1-0.5,2.5-1.2,5.6-0.3
					C373.6,144.1,375.4,146.1,375,146.5z"/>
			</g>
		</g>
		<circle class="st16" cx="351.9" cy="72" r="19.3"/>
		<rect x="338.5" y="64" class="st4" width="26.8" height="22.3"/>
		<g class="st5">
			<path class="st9" d="M347.4,71.6l0.8-6.9h7.9v2.4h-5.3l-0.3,2.7c0.2-0.1,0.5-0.2,0.9-0.3c0.4-0.1,0.7-0.1,1.1-0.1
				c1.3,0,2.4,0.4,3.1,1.2c0.7,0.8,1.1,1.9,1.1,3.3c0,0.9-0.2,1.6-0.6,2.3c-0.4,0.7-0.9,1.2-1.6,1.6c-0.7,0.4-1.5,0.6-2.5,0.6
				c-0.8,0-1.6-0.2-2.4-0.5c-0.7-0.3-1.3-0.8-1.7-1.4c-0.4-0.6-0.6-1.3-0.6-2.1h3.1c0,0.5,0.2,0.9,0.5,1.2c0.3,0.3,0.7,0.4,1.1,0.4
				c1,0,1.6-0.8,1.6-2.3c0-1.4-0.6-2.2-1.9-2.2c-0.7,0-1.3,0.2-1.6,0.7L347.4,71.6z"/>
		</g>
	</g>
</g>
</svg>
