<?xml version="1.0" encoding="utf-8"?>
<!-- Generator: Adobe Illustrator 23.0.1, SVG Export Plug-In . SVG Version: 6.00 Build 0)  -->
<svg version="1.1" id="Capa_1" xmlns="http://www.w3.org/2000/svg" xmlns:xlink="http://www.w3.org/1999/xlink" x="0px" y="0px"
	 viewBox="0 0 308 420" style="enable-background:new 0 0 308 420;" xml:space="preserve">
<style type="text/css">
	.st0{opacity:0.45;fill:#096496;}
	.st1{fill:#2ECC71;}
	.st2{fill:#770BAA;}
	.st3{fill:#2C3E50;}
	.st4{fill:#096496;}
	.st5{fill:#D35400;}
	.st6{fill:#AD0800;}
	.st7{fill:#BDC3C7;}
	.st8{fill:#FF1AFF;}
	.st9{fill:#F1C40F;}
	.st10{fill:#FFFFFF;}
	.st11{fill:#E1E1E1;}
	.st12{fill:#1A2E35;}
	.st13{fill:#375A64;}
	.st14{fill:#B66955;}
	.st15{fill:#8E3823;}
	.st16{fill:#FF4F5B;}
	.st17{opacity:0.3;}
	.st18{fill:#FAFAFA;}
	.st19{opacity:0.2;}
	.st20{fill:#FFD2BE;}
	.st21{fill:#E09074;}
	.st22{opacity:0.78;}
	.st23{fill:#ECECEC;}
	.st24{fill:#1A2E35;stroke:#1A2E35;stroke-miterlimit:10;}
	.st25{fill:#FFFFFF;stroke:#1A2E35;stroke-miterlimit:10;}
	.st26{opacity:0.46;fill:#FFFFFF;}
	.st27{fill:none;stroke:#1A2E35;stroke-width:0.868;stroke-linecap:round;stroke-linejoin:round;stroke-miterlimit:10;}
	.st28{fill:#1A2E35;stroke:#BDC3C7;stroke-miterlimit:10;}
	.st29{clip-path:url(#SVGID_2_);}
	.st30{fill:#FFBF9D;}
	.st31{fill:#FF9A6C;}
	.st32{fill:none;stroke:#FFDFD0;stroke-miterlimit:10;}
	.st33{fill:none;stroke:#44555B;stroke-miterlimit:10;}
	.st34{fill:#D19E8F;}
	.st35{fill:#AA6550;}
	.st36{fill:#263238;}
	.st37{fill:#455A64;}
	.st38{fill:none;stroke:#4E585D;stroke-width:5.000000e-02;stroke-miterlimit:10;}
	.st39{fill:#B78876;}
	.st40{fill:#FFBE9D;}
	.st41{fill:#EB996E;}
	.st42{fill:#F5F5F5;}
	.st43{fill:none;stroke:#4E585D;stroke-miterlimit:10;}
	.st44{fill:none;}
	.st45{font-family:'Roboto-Black';}
	.st46{font-size:18px;}
	.st47{font-family:'Roboto-Bold';}
	.st48{font-size:14px;}
	.st49{opacity:0.5;fill:#AD0800;}
	.st50{clip-path:url(#SVGID_4_);}
	.st51{clip-path:url(#SVGID_6_);}
</style>
<rect class="st0" width="308" height="420"/>
<g>
	<path class="st10" d="M275.4,133H30.6c-9.2,0-16.6-7.4-16.6-16.6V28.6C14,19.4,21.4,12,30.6,12h244.8c9.2,0,16.6,7.4,16.6,16.6
		v87.8C292,125.6,284.6,133,275.4,133z"/>
	<rect x="14.6" y="31.2" class="st44" width="277.4" height="35.4"/>
	<text transform="matrix(0.9 0 0 1 101.9501 44.7305)" class="st12 st45 st46">Canal digital</text>
	<path class="st23" d="M259.2,86.3H45.4c-5.2,0-9.4-4.2-9.4-9.4v-1.3c0-5.2,4.2-9.4,9.4-9.4h213.8c5.2,0,9.4,4.2,9.4,9.4v1.3
		C268.6,82.1,264.4,86.3,259.2,86.3z"/>
	<rect x="184" y="70.8" class="st44" width="24" height="12.9"/>
	<text transform="matrix(0.9 0 0 1 184.12 81.3313)" class="st3 st47 st48">60%</text>
	<path class="st23" d="M259.2,116.3H45.4c-5.2,0-9.4-4.2-9.4-9.4v-1.3c0-5.2,4.2-9.4,9.4-9.4h213.8c5.2,0,9.4,4.2,9.4,9.4v1.3
		C268.6,112.1,264.4,116.3,259.2,116.3z"/>
	<rect x="145" y="100.8" class="st44" width="24" height="12.9"/>
	<text transform="matrix(0.9 0 0 1 145.12 111.3313)" class="st3 st47 st48">44%</text>
	<path class="st6" d="M166.3,86H45.5c-5.2,0-9.4-4.2-9.4-9.4v-1.3c0-5.2,4.2-9.4,9.4-9.4h120.8c5.2,0,9.4,4.2,9.4,9.4v1.3
		C175.6,81.8,171.4,86,166.3,86z"/>
	<rect x="43.6" y="70.8" class="st44" width="34.3" height="12.9"/>
	<text transform="matrix(0.9 0 0 1 46.3544 81.3313)" class="st10 st47 st48">2020</text>
	<path class="st49" d="M128.7,116H45.1c-5.2,0-9.4-4.2-9.4-9.4v-1.3c0-5.2,4.2-9.4,9.4-9.4h83.6c5.2,0,9.4,4.2,9.4,9.4v1.3
		C138,111.8,133.8,116,128.7,116z"/>
	<rect x="43.6" y="100.8" class="st44" width="34.3" height="12.9"/>
	<text transform="matrix(0.9 0 0 1 46.3544 111.3313)" class="st10 st47 st48">2019</text>
</g>
<g>
	<path class="st10" d="M275.4,403H30.6c-9.2,0-16.6-7.4-16.6-16.6v-87.8c0-9.2,7.4-16.6,16.6-16.6h244.8c9.2,0,16.6,7.4,16.6,16.6
		v87.8C292,395.6,284.6,403,275.4,403z"/>
	<rect x="14.2" y="300.2" class="st44" width="277.4" height="35.4"/>
	<text transform="matrix(0.9 0 0 1 85.0063 313.7305)" class="st12 st45 st46">Canal presencial</text>
	<path class="st23" d="M259.8,355.3H46c-5.2,0-9.4-4.2-9.4-9.4v-1.3c0-5.2,4.2-9.4,9.4-9.4h213.8c5.2,0,9.4,4.2,9.4,9.4v1.3
		C269.2,351.1,265,355.3,259.8,355.3z"/>
	<rect x="140.9" y="339.8" class="st44" width="24" height="12.9"/>
	<text transform="matrix(0.9 0 0 1 141.0258 350.3313)" class="st3 st47 st48">44%</text>
	<path class="st23" d="M259.8,385.3H46c-5.2,0-9.4-4.2-9.4-9.4v-1.3c0-5.2,4.2-9.4,9.4-9.4h213.8c5.2,0,9.4,4.2,9.4,9.4v1.3
		C269.2,381.1,265,385.3,259.8,385.3z"/>
	<rect x="113.4" y="369.8" class="st44" width="24" height="12.9"/>
	<text transform="matrix(0.9 0 0 1 113.5632 380.3313)" class="st3 st47 st48">29%</text>
	<path class="st6" d="M126.9,355H43.3c-5.2,0-9.4-4.2-9.4-9.4v-1.3c0-5.2,4.2-9.4,9.4-9.4h83.6c5.2,0,9.4,4.2,9.4,9.4v1.3
		C136.3,350.8,132.1,355,126.9,355z"/>
	<rect x="42.1" y="339.8" class="st44" width="34.3" height="12.9"/>
	<text transform="matrix(0.9 0 0 1 44.7976 350.3313)" class="st10 st47 st48">2020</text>
	<path class="st49" d="M91.9,386H44.4c-5.5,0-10-4.5-10-10l0,0c0-5.5,4.5-10,10-10h47.4c5.5,0,10,4.5,10,10l0,0
		C101.9,381.5,97.4,386,91.9,386z"/>
	<rect x="42.1" y="369.8" class="st44" width="34.3" height="12.9"/>
	<text transform="matrix(0.9 0 0 1 44.7976 380.3313)" class="st10 st47 st48">2019</text>
</g>
<g>
	<path class="st10" d="M275.4,268H30.6c-9.2,0-16.6-7.4-16.6-16.6v-87.8c0-9.2,7.4-16.6,16.6-16.6h244.8c9.2,0,16.6,7.4,16.6,16.6
		v87.8C292,260.6,284.6,268,275.4,268z"/>
	<rect x="14.2" y="166.2" class="st44" width="277.4" height="35.4"/>
	<text transform="matrix(0.9 0 0 1 86.2719 179.7305)" class="st12 st45 st46">Canal telefónico</text>
	<path class="st23" d="M257.3,221.3H43.5c-5.2,0-9.4-4.2-9.4-9.4v-1.3c0-5.2,4.2-9.4,9.4-9.4h213.8c5.2,0,9.4,4.2,9.4,9.4v1.3
		C266.7,217.1,262.5,221.3,257.3,221.3z"/>
	<path class="st6" d="M166.5,221.3H43.4c-5.2,0-9.4-4.2-9.4-9.4v-1.3c0-5.2,4.2-9.4,9.4-9.4h123.1c5.2,0,9.4,4.2,9.4,9.4v1.3
		C175.9,217.1,171.7,221.3,166.5,221.3z"/>
	<rect x="182.1" y="205.8" class="st44" width="24" height="12.9"/>
	<text transform="matrix(0.9 0 0 1 182.2474 216.3313)" class="st3 st47 st48">61%</text>
	<rect x="41.8" y="205.8" class="st44" width="34.3" height="12.9"/>
	<text transform="matrix(0.9 0 0 1 44.4818 216.3313)" class="st10 st47 st48">2020</text>
	<path class="st23" d="M257.3,251.3H43.5c-5.2,0-9.4-4.2-9.4-9.4v-1.3c0-5.2,4.2-9.4,9.4-9.4h213.8c5.2,0,9.4,4.2,9.4,9.4v1.3
		C266.7,247.1,262.5,251.3,257.3,251.3z"/>
	<rect x="95.1" y="235.8" class="st44" width="24" height="12.9"/>
	<text transform="matrix(0.9 0 0 1 95.2475 246.3313)" class="st3 st47 st48">24%</text>
	<path class="st49" d="M79.5,251H43.6c-5.5,0-10-4.5-10-10v0c0-5.5,4.5-10,10-10h35.8c5.5,0,10,4.5,10,10v0
		C89.5,246.5,85,251,79.5,251z"/>
	<rect x="41.8" y="235.8" class="st44" width="34.3" height="12.9"/>
	<text transform="matrix(0.9 0 0 1 44.4818 246.3313)" class="st10 st47 st48">2019</text>
</g>
</svg>
