<?xml version="1.0" encoding="utf-8"?>
<!-- Generator: Adobe Illustrator 16.0.0, SVG Export Plug-In . SVG Version: 6.00 Build 0)  -->
<!DOCTYPE svg PUBLIC "-//W3C//DTD SVG 1.1//EN" "http://www.w3.org/Graphics/SVG/1.1/DTD/svg11.dtd">
<svg version="1.1" id="Capa_1" xmlns="http://www.w3.org/2000/svg" xmlns:xlink="http://www.w3.org/1999/xlink" x="0px" y="0px"
	 width="24px" height="24px" viewBox="0 0 24 24" enable-background="new 0 0 24 24" xml:space="preserve">
<g id="Frames-24px">
	<rect fill="none" width="24" height="24"/>
</g>
<g id="Solid">
	<path fill="#004B9D" d="M12,2.002c-5.522,0-10,4.477-10,10c0,5.521,4.478,10,10,10c5.521,0,10-4.479,10-10
		C22,6.479,17.521,2.002,12,2.002z M14,6.002h2v4h-2V6.002z M8,6.002h2v4H8V6.002z"/>
	<path fill="#FFFFFF" d="M12,13.297c2.391,0,4.588,1.132,6,2.958l-1.559,1.557c-0.996-1.435-2.637-2.345-4.442-2.345
		c-1.809,0-3.447,0.911-4.443,2.35L6,16.258C7.41,14.431,9.603,13.297,12,13.297z"/>
</g>
</svg>
