<?xml version="1.0" encoding="utf-8"?>
<!-- Generator: Adobe Illustrator 23.0.1, SVG Export Plug-In . SVG Version: 6.00 Build 0)  -->
<svg version="1.1" id="_x2014_ÎÓÈ_x5F_1" xmlns="http://www.w3.org/2000/svg" xmlns:xlink="http://www.w3.org/1999/xlink"
	 x="0px" y="0px" viewBox="0 0 1100 910" style="enable-background:new 0 0 1100 910;" xml:space="preserve">
<style type="text/css">
	.st0{opacity:0.25;fill:#2C3E50;enable-background:new    ;}
	.st1{fill:#FFFFFF;}
	.st2{fill:#2ECC71;}
	.st3{opacity:0.5;fill:#2C3E50;enable-background:new    ;}
	.st4{fill:#770BAA;}
	.st5{fill:#D35400;}
	.st6{fill:#F1C40F;}
	.st7{fill:#2C3E50;}
	.st8{fill:#D3008D;}
	.st9{fill:#EDEDED;}
	.st10{fill:#D4ECFF;}
	.st11{fill:#AEDEED;}
	.st12{fill:#173D7A;}
	.st13{fill:#FDD762;}
	.st14{fill:#FFC2B0;}
	.st15{fill:#AD0800;}
	.st16{opacity:0.5;fill:#D35400;enable-background:new    ;}
	.st17{fill:#FF2C9C;}
	.st18{fill:#F9BF30;}
	.st19{fill:#EA9C92;}
	.st20{fill:#D29FFF;}
	.st21{fill:#FF1AFF;}
	.st22{fill:#096496;}
	.st23{fill:#E8A200;}
	.st24{fill:url(#SVGID_1_);}
	.st25{fill:#EAEAEA;}
	.st26{opacity:0.5;fill:#AD0800;enable-background:new    ;}
	.st27{fill:#5793CE;}
	.st28{fill:#BDC3C7;}
</style>
<ellipse class="st0" cx="550" cy="682.2" rx="550" ry="227.8"/>
<path class="st1" d="M803.1,803.6l-1.5-2.5l43.5-25.5c5.4-3.1,12-3.1,17.4,0.1l35.9,21.5l-1.5,2.5L861,778.2
	c-4.4-2.7-10-2.7-14.4-0.1L803.1,803.6z"/>
<path class="st1" d="M929.4,782.9l-1.5-2.5l112.8-66.7c1.1-0.6,1.7-1.8,1.7-3s-0.6-2.4-1.7-3l-37.5-23l1.5-2.5l37.5,23
	c1.9,1.2,3.1,3.2,3.1,5.5s-1.2,4.4-3.2,5.5L929.4,782.9z"/>
<path class="st1" d="M811.8,692.1l-1.7-2.5l125.3-63.3c1.3-0.7,2.1-1.8,2.1-3.1s-0.8-2.5-2.1-3.1l-66.3-33.4
	c-9.1-4.6-14.7-13.1-14.7-22.3V372.7c0-7.9,4.5-15.3,11.9-19.8l10-5.9l1.9,2.4l-10,5.9c-6.6,3.9-10.5,10.4-10.5,17.4v191.5
	c0,8.2,5,15.7,13.1,19.8l66.3,33.4c2.3,1.2,3.7,3.3,3.7,5.7s-1.4,4.5-3.7,5.7L811.8,692.1z"/>
<path class="st2" d="M802.4,765.2c-1,0-2-0.5-2.5-1.4c-0.8-1.4-0.3-3.2,1-4l43.5-25.5c5.8-3.4,13.1-3.4,18.9,0.1l35.9,21.5
	c1.4,0.8,1.8,2.6,1,4s-2.6,1.8-4,1l-35.9-21.5c-4-2.4-8.9-2.4-12.9-0.1l-43.5,25.5C803.4,765.1,802.9,765.2,802.4,765.2z"/>
<path class="st3" d="M732.8,900.5l-242-139.7c-8.4-4.9-7.4-13.3,2.4-19l0,0c9.7-5.6,24.4-6.2,32.8-1.4l242,139.7
	c8.4,4.9,7.4,13.3-2.4,19l0,0C755.9,904.8,741.2,905.4,732.8,900.5z"/>
<path class="st4" d="M776.7,160.2L515.9,9.6c-8.6-4.9-16.4-5.1-22.2-1.4V8.1l-32.7,19l21.9,4.1c-0.1,1.1-0.1,2.3-0.1,3.4v615.1
	c0,24.4,14.8,52.8,33.2,63.4l257,148.6c-2.3,7.3-7.3,22.8-7.3,22.8l32-18.6l0,0c7.4-3.8,12.2-13.4,12.2-27.2V223.6
	C809.8,199.2,795,170.8,776.7,160.2z"/>
<g>
	<polygon class="st3" points="1029.6,689.3 990.5,666.7 951.3,689.3 990.5,711.9 	"/>
	<polygon class="st5" points="990.5,690.9 990.5,665.4 1037.3,638.4 1037.3,663.9 	"/>
	<polygon class="st5" points="990.5,665.4 943.7,638.4 943.7,663.9 990.5,690.9 	"/>
	<polygon class="st6" points="1037.3,638.4 990.5,611.4 943.7,638.4 990.5,665.4 	"/>
</g>
<path class="st1" d="M892.2,343.2c0,4-2.8,5.6-6.3,3.6s-6.3-6.9-6.3-10.9s2.8-5.6,6.3-3.6C889.4,334.3,892.2,339.2,892.2,343.2z"/>
<path class="st2" d="M800.3,682.3c-1.3,0-2.5-0.5-3.2-1.5c-1-1.4-0.4-3.2,1.4-4l139.4-64.1c1.2-0.6,1.4-1.5,1.4-1.9
	s-0.1-1.3-1.4-1.9L864.1,575c-10.7-4.9-17.3-14-17.3-23.9V357.4c0-8.5,5.3-16.5,14.1-21.2l11.1-6c1.7-0.9,4-0.6,5.1,0.8
	c1.1,1.3,0.7,3.2-1,4.1l-11.1,6c-6.8,3.7-10.9,9.8-10.9,16.4v193.8c0,7.7,5.2,14.9,13.6,18.8l73.8,33.8c3.2,1.5,5.1,4.1,5.1,7
	s-1.9,5.6-5.1,7L802.1,682C801.6,682.1,800.9,682.3,800.3,682.3z"/>
<path class="st7" d="M482.7,649.8c0,24.4,14.8,52.8,33.2,63.4L773,861.7c-2.3,7.3-7.3,22.8-7.3,22.8l32-18.6l0,0
	c7.4-3.8,12.2-13.4,12.2-27.2V223.6c0-12.7-4.1-26.5-10.5-38.3L482.7,368V649.8z"/>
<path class="st4" d="M743.8,882.8L483,732.2c-18.3-10.6-33.2-38.9-33.2-63.4v-615c0-24.4,14.8-35.6,33.2-25.1l260.8,150.6
	c18.3,10.6,33.2,38.9,33.2,63.4v615.1C776.9,882.2,762.1,893.4,743.8,882.8z"/>
<polygon class="st8" points="492.9,221.4 472.7,207.5 464.8,181.6 457,198.4 449.8,195 449.8,209.2 452.1,212.9 449.8,223.1 
	449.8,232.9 464.8,230.9 482.2,253.3 477.6,227.6 "/>
<path class="st1" d="M738.9,862.5L488.3,717.8c-13.6-7.9-24.6-28.9-24.6-47.1V64.3c0-18.2,11-26.5,24.6-18.6l250.6,144.7
	c13.6,7.9,24.6,28.9,24.6,47.1v606.4C763.5,862,752.5,870.3,738.9,862.5z"/>
<path class="st9" d="M636.4,676.2l-123-71v-299l58,33.5c40.3,23.2,65.1,66.2,65.1,112.7L636.4,676.2L636.4,676.2z"/>
<g>
	<path class="st10" d="M469.4,277.3L469.4,277.3c-12.4-7.4-29.6-6.5-48.7,4.5c-37.7,21.8-68.4,74.9-68.4,118.5v31.4l0,0l0,0l0,0
		l1.3,0.8L476.8,505l1.9-37.6l1.5-14.6l6.5-22.7l0.7-3.5l14-28.2l11-13.8l8.9-10.7l21.8-17.2l1.9-1.4l10.7-4.6l14.4-3.7h11.2
		l12.6,2.2L469.4,277.3z"/>
	<path class="st10" d="M485.1,567.9l4-2.3V422.4c-2.1,2.8-3,6.5-4,10.1V567.9z"/>
	<polygon class="st10" points="609.6,639.7 485.1,567.9 486.4,432.4 491.1,418.7 505.6,393.9 522.6,373.7 538,361.4 554.6,351.3 
		584.8,347.8 600.7,356.9 609.6,370.5 612.4,391.5 611.5,618 	"/>
	<g>
		<path class="st2" d="M432.9,276.1c-3.9,1.5-8,3.3-12.2,5.7c-2.8,1.6-5.5,3.4-8.2,5.3l126.5,73l4.3-3.4l1.9-1.4l10.7-4.6l4.3-1.1
			L432.9,276.1z"/>
		<path class="st7" d="M613.6,637.4l-4,2.3V395.4c0-41-28.9-57.7-64.4-37.2s-64.4,70.5-64.4,111.6v32.9l-4,2.3v-33
			c0-43.6,30.7-96.7,68.4-118.5s68.4-4.1,68.4,39.5V637.4z"/>
	</g>
</g>
<polygon class="st11" points="390.1,376.9 383.1,405.6 386.6,451.9 377.7,446.6 366.3,421.5 376.3,389.7 "/>
<g>
	<path class="st4" d="M593.8,560.3c-0.8,0-1.5-0.2-2.3-0.7l-90.6-52.3c-2.7-1.5-4.8-5.5-4.8-9V427c0-2.1,0.8-3.7,2.1-4.5
		c1.2-0.7,2.7-0.6,4.1,0.2l90.6,52.3c2.7,1.5,4.8,5.5,4.8,9v71.3c0,2.1-0.8,3.7-2.1,4.5C595,560.1,594.4,560.3,593.8,560.3z
		 M500.1,425.1c-0.1,0-0.2,0-0.3,0.1c-0.3,0.2-0.7,0.8-0.7,2v71.3c0,2.5,1.5,5.4,3.3,6.4l90.6,52.3c0.2,0.1,0.8,0.4,1.2,0.2
		c0.3-0.2,0.7-0.8,0.7-2v-71.3c0-2.5-1.5-5.4-3.3-6.4L501,425.4C500.8,425.2,500.4,425.1,500.1,425.1z"/>
	<g>
		<path class="st5" d="M529,510.2l-0.6-0.4c-2.4-1.4-4.3-5-4.3-8.2v-34c0-3.1,1.9-4.6,4.3-3.2l0.6,0.4c2.4,1.4,4.3,5,4.3,8.2v34
			C533.3,510.2,531.4,511.6,529,510.2z"/>
		<path class="st2" d="M547.3,520.8l-0.6-0.4c-2.4-1.4-4.3-5-4.3-8.2v-19.9c0-3.1,1.9-4.6,4.3-3.2l0.6,0.4c2.4,1.4,4.3,5,4.3,8.2
			v19.9C551.5,520.7,549.6,522.1,547.3,520.8z"/>
		<path class="st7" d="M565.5,531.3l-0.6-0.4c-2.4-1.4-4.3-5-4.3-8.2v-47.3c0-3.1,1.9-4.6,4.3-3.2l0.6,0.4c2.4,1.4,4.3,5,4.3,8.2
			V528C569.7,531.2,567.8,532.6,565.5,531.3z"/>
	</g>
</g>
<g>
	<ellipse class="st3" cx="419.6" cy="851.2" rx="77.9" ry="45"/>
	<g>
		<path class="st12" d="M371.9,827.4c-5.4,2.3-8.8,8.4-8.4,14.9c0.2,3.1,0.6,5.9,1.2,7.3c1.7,3.6,7.4,8.6,16.4,5
			s29.1-22.4,29.9-34.8C412.4,796.8,386.2,821.3,371.9,827.4z"/>
		<path class="st12" d="M425,865.3c0,0-2.2,13.2-1.1,15.6c1.1,2.4,7.3,7.6,16.6,6.5c9.3-1.1,36-10.3,42-27.9c9.2-27.3-51.6,2-51.6,2
			L425,865.3z"/>
		<path class="st13" d="M451.1,654l2.1,206.3c-0.2,7.2-4.9,13.2-11.2,14.3c-0.8,0.1-1.6,0.2-2.5,0.3c-6.4,0.6-10.1-2.2-12.3-5.1
			c-1.7-2.3-2.6-5.3-2.8-8.3l-2.6-88.1l-13.1-78.7l-18.2,139.4c-0.3,3.8-2.1,7.3-5,9.2c-2,1.3-4.7,2.4-8.3,2.2
			c-5.2-0.2-8.8-2.9-11-5.4c-1.7-2-2.7-4.7-2.6-7.5l7.2-83.9l2.7-107L451.1,654z"/>
		<path class="st14" d="M424.4,469.3l-3.3,18.8c0,0-0.1,6.4,7,8.2c7.2,1.8,9.4-2.8,9.4-2.8l3.2-21.2L424.4,469.3z"/>
		<path class="st14" d="M463.8,459c-5.1,16.1-20.8,25.5-35.1,20.9c-14.3-4.6-21.8-21.3-16.7-37.4c5.1-16.1,20.8-25.5,35.1-20.9
			C461.4,426.1,468.9,442.9,463.8,459z"/>
		<path class="st15" d="M425.2,488.4c-0.5-0.2-30.4-19.4-41.4,0.7c-18,32.8-4.8,70.5-11.3,152.3c-1.1,13.7,18.4,22,27.6,27.3
			c8.2,4.7,17.4,7.6,26.8,7.6c9.3,0.1,27.3-8.2,26.6-20.4c-3-56.2,2-103.5,6.6-149.4C460.1,506.4,454.4,500.3,425.2,488.4z"/>
		<path class="st16" d="M408.6,694.7l-18.2,139.4c-0.3,3.8-2.1,7.3-5,9.2c-0.5,0.3-1,0.6-1.6,0.9c3.8-2.8,14.8-119.8,16.8-132.8
			C402.8,698.3,408.6,694.7,408.6,694.7z"/>
	</g>
	<polygon class="st14" points="522.1,505.5 547.2,455.8 539.3,450.8 513.4,488.7 	"/>
	<polygon class="st14" points="357.1,452.7 369.3,397.3 379,397.4 375.3,443.4 	"/>
	<path class="st15" d="M460.1,506.4c0,0,28,11,52-19.3c2.1-2.7,6.5-2.4,7.7,0.5c2.2,5,4.9,12.5,1.6,19.5
		c-14.5,31.2-64.1,30.1-76.1,47.6C433.4,572.2,460.1,506.4,460.1,506.4z"/>
	<path class="st15" d="M406.3,481.5c0,0-23.1,1.8-26.4-18.2c-1.7-10.3-2.2-16.5-2.3-20c-0.1-2.4-2.1-4.2-4.5-3.9
		c-5.5,0.7-14.1,2.3-15.3,6c-1.7,5.5-5,32.7,17.8,74.4C390.5,547.1,406.3,481.5,406.3,481.5z"/>
	<path class="st14" d="M369.2,397.5l0.2-6.3c0.1-2.2,0.7-4.4,1.9-6.3l6.4-10.5l1.7-2.1c1.5-1.9,4.3-2.4,6.4-1.1l1.5,0.9
		c1.9,1.2,3,3.3,2.8,5.5l-3.3,9l4.2-0.8c0.8-0.2,1.6,0.4,1.7,1.2l0,0c0.1,0.7-0.3,1.4-0.9,1.6l-6.8,2.8l-6.2,8.8L369.2,397.5z"/>
	<path class="st14" d="M547.4,456.1l2.9-5.6c1-2,1.5-4.2,1.5-6.4l-0.4-12.3l-0.4-2.7c-0.4-2.5-2.5-4.2-5-4.1l-1.7,0.1
		c-2.2,0.1-4.2,1.4-5.2,3.4l-1.6,9.4l-3.2-2.8c-0.6-0.5-1.6-0.5-2.1,0.2l0,0c-0.5,0.5-0.5,1.3,0,1.9l4.6,5.8l1.2,12L547.4,456.1z"/>
	<path class="st15" d="M441.9,548.5c-2.4,11.1,12.2,94.8-4.1,125.4c8.1-3.3,16.2-9.8,15.8-18c-2.1-40.2-0.2-75.8,2.7-109.7
		c13.9-7.1,35.7-11.3,51.1-22.5C490.9,529.7,444,538.6,441.9,548.5z"/>
	<path class="st7" d="M444.3,459.5c1.1,0,2.2-0.5,2.9-1.5c1.1-1.6,0.4-9.2,3.9-10.4c5.5-2,18.4,4.9,19.8-14.8
		c0.7-10.2-4.3-13-4.2-18.6c0,0,0.4,2.8-25.9,1.1c-26.4-1.8-34.9,21.7-35.6,32.8c-0.6,11.2,4.8,29.5,22.8,32c3,0.4,15.5-9.7,15.2-11
		s-5.1-1.2-4.4-5.1C439.4,460.7,441.3,459.6,444.3,459.5z"/>
</g>
<g>
	<g>
		<path class="st9" d="M579.6,221.3l-79.7-46c-3.5-2-6.4-7.5-6.4-12.2v-59.2c0-4.7,2.9-6.9,6.4-4.8l79.7,46c3.5,2,6.4,7.5,6.4,12.2
			v59.2C586,221.2,583.2,223.4,579.6,221.3z"/>
		<path class="st4" d="M571.7,127.3l-79.7-46c-1.6-0.9-3-0.9-4.1-0.3v-0.1l-7.7,4.5c0,0,3.4,1.2,5.4,2v58c0,4.7,2.9,10.2,6.4,12.2
			l76.2,44v6.8l7.8-4.5l0,0c1.3-0.8,2.2-2.6,2.2-5.1v-59.2C578.2,134.9,575.3,129.4,571.7,127.3z"/>
		<path class="st4" d="M563.9,208.2l-79.7-46c-3.5-2-6.4-7.5-6.4-12.2V90.7c0-4.7,2.9-6.9,6.4-4.8l79.7,46c3.5,2,6.4,7.5,6.4,12.2
			v59.2C570.3,208.1,567.4,210.3,563.9,208.2z"/>
		<path class="st1" d="M563.9,131.9l-79.7-46c-2-1.2-3.8-0.9-5,0.3c0.9-0.1,1.8,0.1,2.8,0.7l79.7,46c3.5,2,6.4,7.5,6.4,12.2v59.2
			c0,2-0.6,3.6-1.4,4.5c2.1-0.2,3.6-2.2,3.6-5.6V144C570.3,139.4,567.4,133.9,563.9,131.9z"/>
	</g>
	<g>
		<path class="st1" d="M511,141.8c0,3.4-2.4,4.8-5.4,3.1s-5.4-5.9-5.4-9.3c0-3.4,2.4-4.8,5.4-3.1S511,138.4,511,141.8z"/>
		<path class="st1" d="M527.3,151.2c0,3.4-2.4,4.8-5.4,3.1s-5.4-5.9-5.4-9.3c0-3.4,2.4-4.8,5.4-3.1
			C524.9,143.6,527.3,147.8,527.3,151.2z"/>
		<path class="st1" d="M543.6,160.6c0,3.4-2.4,4.8-5.4,3.1s-5.4-5.9-5.4-9.3c0-3.4,2.4-4.8,5.4-3.1
			C541.2,153,543.6,157.2,543.6,160.6z"/>
	</g>
</g>
<g>
	<g>
		<path class="st9" d="M738.2,534.1l-79.7-46c-3.5-2-6.4-7.5-6.4-12.2V342.5c0-4.7,2.9-6.9,6.4-4.8l79.7,46c3.5,2,6.4,7.5,6.4,12.2
			v133.3C744.6,534,741.7,536.1,738.2,534.1z"/>
		<path class="st7" d="M730.3,366l-79.7-46c-1.6-0.9-3-0.9-4.1-0.3v-0.1l-7.7,4.5c0,0,3.4,1.2,5.4,2v132.1c0,4.7,2.9,10.2,6.4,12.2
			l76.2,44v6.8l7.8-4.5l0,0c1.3-0.8,2.2-2.6,2.2-5.1V378.3C736.7,373.5,733.8,368.1,730.3,366z"/>
		<path class="st10" d="M722.4,521l-79.7-46c-3.5-2-6.4-7.5-6.4-12.2V329.4c0-4.7,2.9-6.9,6.4-4.8l79.7,46c3.5,2,6.4,7.5,6.4,12.2
			v133.3C728.8,520.9,726,523,722.4,521z"/>
		<path class="st1" d="M722.4,370.5l-79.7-46c-2-1.2-3.8-0.9-5,0.3c0.9-0.1,1.8,0.1,2.8,0.7l79.7,46c3.5,2,6.4,7.5,6.4,12.2V517
			c0,2-0.6,3.6-1.4,4.5c2.1-0.2,3.6-2.2,3.6-5.6V382.8C728.8,378.1,726,372.6,722.4,370.5z"/>
	</g>
</g>
<g>
	<g>
		<path class="st9" d="M738.2,714.2l-79.7-46c-3.5-2-6.4-7.5-6.4-12.2V522.6c0-4.7,2.9-6.9,6.4-4.8l79.7,46c3.5,2,6.4,7.5,6.4,12.2
			v133.3C744.6,714.1,741.7,716.3,738.2,714.2z"/>
		<path class="st8" d="M730.3,546.2l-79.7-46c-1.6-0.9-3-0.9-4.1-0.3v-0.1l-7.7,4.5c0,0,3.4,1.2,5.4,2v132.1
			c0,4.7,2.9,10.2,6.4,12.2l76.2,44v6.8l7.8-4.5l0,0c1.3-0.8,2.2-2.6,2.2-5.1V558.4C736.7,553.7,733.8,548.2,730.3,546.2z"/>
		<path class="st17" d="M722.4,701.1l-79.7-46c-3.5-2-6.4-7.5-6.4-12.2V509.5c0-4.7,2.9-6.9,6.4-4.8l79.7,46c3.5,2,6.4,7.5,6.4,12.2
			v133.3C728.8,701,726,703.2,722.4,701.1z"/>
		<path class="st1" d="M722.4,550.7l-79.7-46c-2-1.2-3.8-0.9-5,0.3c0.9-0.1,1.8,0.1,2.8,0.7l79.7,46c3.5,2,6.4,7.5,6.4,12.2v133.3
			c0,2-0.6,3.6-1.4,4.5c2.1-0.2,3.6-2.2,3.6-5.6V562.9C728.8,558.2,726,552.7,722.4,550.7z"/>
	</g>
</g>
<g>
	<g>
		<path class="st3" d="M203.5,772.2l70-39.5c3.1-1.8,8.5-1.5,12.1,0.6l44.6,26.3c3.6,2.1,3.9,5.2,0.8,7l-70,39.5
			c-3.1,1.8-8.5,1.5-12.1-0.6l-44.6-26.3C200.7,777,200.4,773.9,203.5,772.2z"/>
		<path class="st18" d="M259.9,786.3l80.2-45.2c1.6-0.9,2.3-2.1,2.4-3.4l0,0l0.1-8.9c0,0-2.8,2.3-4.5,3.7l-50-29.5
			c-4.1-2.4-10.2-2.7-13.8-0.7l-76.6,43.2l-5.9-3.5l-0.1,9l0,0c0,1.5,1.1,3.2,3.3,4.5l51,30.2C250.1,788,256.3,788.3,259.9,786.3z"
			/>
		<path class="st13" d="M194.3,738.3l80.2-45.2c3.6-2,9.7-1.7,13.8,0.7l51,30.2c4.1,2.4,4.5,6,0.9,8L260,777.2
			c-3.6,2-9.7,1.7-13.8-0.7l-51-30.2C191.1,743.9,190.7,740.3,194.3,738.3z"/>
		<path class="st1" d="M260,777.2l80.2-45.2c2-1.1,2.7-2.8,2.2-4.4c-0.4,0.8-1,1.5-2.1,2.1l-80.2,45.2c-3.6,2-9.7,1.7-13.8-0.7
			l-51-30.2c-1.8-1-2.8-2.3-3.1-3.5c-0.9,1.9,0.1,4.2,3,5.9l51,30.2C250.2,778.9,256.4,779.2,260,777.2z"/>
	</g>
	<g>
		<path class="st1" d="M278.4,726.6c-3-1.7-2.9-4.5,0.1-6.2s7.8-1.6,10.8,0.1c3,1.7,2.9,4.5-0.1,6.2
			C286.1,728.4,281.3,728.4,278.4,726.6z"/>
		<path class="st1" d="M262,735.9c-3-1.7-2.9-4.5,0.1-6.2s7.8-1.6,10.8,0.1c3,1.7,2.9,4.5-0.1,6.2
			C269.7,737.7,264.9,737.6,262,735.9z"/>
		<path class="st1" d="M245.6,745.1c-3-1.7-2.9-4.5,0.1-6.2s7.8-1.6,10.8,0.1c3,1.7,2.9,4.5-0.1,6.2
			C253.4,746.9,248.5,746.8,245.6,745.1z"/>
	</g>
</g>
<g>
	<ellipse class="st3" cx="110.3" cy="677" rx="56" ry="32.4"/>
	<g>
		<path class="st15" d="M78.6,285.9c0,0,1.4,29.7,3.7,49.7c2.3,20,50.3-15.3,50.3-15.3v-22.7L78.6,285.9z"/>
		<g>
			<path class="st12" d="M108.7,656.3c0.7,1.8,13.2,17,25.6,20.8c5.4,1.6,9.1,1.9,11.4,1.6c2.4-0.3,3.9-2.8,3.1-5
				c-2.1-6-8.3-18.6-23.9-26.3C103.8,636.8,108.7,656.3,108.7,656.3z"/>
			<path class="st12" d="M100,661.3c0,0,4.7,11,6.1,20.2c0.9,5.6-2.2,12.9-4.7,17.7c-1.6,3-5.6,3.7-8.1,1.4
				c-4.1-3.7-9.3-10.1-10.1-19.3c-1.4-15.5,0-18.2,0-18.2L100,661.3z"/>
			<g>
				<path class="st14" d="M154.1,372.4l9.8,15.2l33.8,40.8c0,0-1.2,3.8-5.4,4.8c-3.3,0.8-31.7-26.3-44-38.2c-3.3-3.2-3.8-8.2-1.3-12
					L154.1,372.4z"/>
				<path class="st5" d="M134.9,309.9c0,0,15.6-0.4,21,22.2s9.7,50.8,5,53.2c-14.2,7-23.2-1.2-23.2-1.2L134.9,309.9z"/>
				<path class="st5" d="M139.6,310.9c-2.7-1.1-5.7-1.3-8.4-0.5c-13.3,3.8-63.3,18.5-71.6,25.5c-9.5,8.1,14.3,53.9,13.9,68.9
					c-0.3,15-2,32.7-3.4,49C68.8,470.1,67,479,80.3,486c13.3,6.9,36.1,7.3,53.1-5.7s14-21.9,13.2-31.3c-0.7-9.4-6.5-50.2-6-61.8
					c0,0,6-4.4,10.5-12s-3.4-21.5-6.7-30.6s1.8-19.4,0.8-26.8C144.9,313.9,142.4,312.1,139.6,310.9z"/>
				<path class="st14" d="M118.2,327.2c0.8,5.9-4.6,11.4-12.1,12.4c-7.4,1-14-3.1-14.8-8.9c-0.8-5.9,4.6-11.4,12.1-12.4
					S117.5,321.3,118.2,327.2z"/>
				<path class="st14" d="M110.9,307.8c0,0-9-7.4-10.8-3.7c-1.8,3.8-3.2,19.9-3.2,19.9l17.9,4.8l-2.7-16.4
					C112,312.5,115.6,309.5,110.9,307.8z"/>
				
					<ellipse transform="matrix(5.241290e-02 -0.9986 0.9986 5.241290e-02 -181.8234 385.4464)" class="st14" cx="112.2" cy="288.5" rx="26.8" ry="26.8"/>
				<path class="st19" d="M98.8,308.8c-0.2,0.8-0.3,1.7-0.5,2.7c1.8,9.3,15.7,13.4,15.7,13.4l-2.1-12.4c0,0,1.7-1.4,1.2-2.9
					C107.7,307.9,100.8,306.4,98.8,308.8z"/>
				
					<ellipse transform="matrix(5.241290e-02 -0.9986 0.9986 5.241290e-02 -181.8234 385.4464)" class="st14" cx="112.2" cy="288.5" rx="26.8" ry="26.8"/>
				<polygon class="st14" points="46.2,401.9 49.2,473.5 59.7,474.6 66.5,410.1 				"/>
				<path class="st15" d="M80.6,395.9c-0.6-2.5-5.2-4.5-5.9-7.8c-3.6-16.7-4.5-41.3-4.5-41.3l-2.9,33.6c3.4,10,6.3,19.1,6.2,24.4
					c-0.2,8.8-0.9,18.5-1.7,28.4l0,0C71.9,433.2,84.1,411.2,80.6,395.9z"/>
				<path class="st5" d="M61.6,334.5c0,0-8.4,3.2-13.1,28.9c-4.7,25.7-8.3,51.5,0.2,54.8c8.4,3.3,15.5,5.8,18-1.1s4-40,4.3-52
					C71.3,353.3,71.7,336.8,61.6,334.5z"/>
				<path class="st14" d="M195.2,425.5c0,0,4.5,1.7,7.8,5.2c2.7,2.9,4.2,5.4,5.3,7.2c2.6,3.9,4.8,12.3,3.2,13.3
					s-10.7-14.1-12.2-10.6s0,6.8-1.9,6.8c-1.9,0.1-8.4-15.2-13.6-19.9C178.8,422.8,195.2,425.5,195.2,425.5z"/>
			</g>
			<path class="st7" d="M70,473.7c0,0-1.6,19.6,0,41.2c1.6,21.7,7.4,123,8.5,147.3c0,0-0.5,7.4,13.7,5.8c6.2-0.7,9.5-2.7,11.3-4.6
				l9.5-157.3l-3.8,151.8c5.9-0.8,16.3-3.3,16.8-11.8c0.6-11.8,20.5-141.2,20.5-187.7L70,473.7z"/>
		</g>
		<g>
			<path class="st5" d="M90.3,573.1l-5.6-7.3l-58.6-33.9c-1.9-1.1-3.4-4-3.4-6.5l0.1-48l-3.4-4.4l3.2-1.8l0,0
				c0.6-0.4,1.4-0.4,2.3,0.1l66.4,38.5c1.9,1.1,3.4,4,3.4,6.5l-0.1,52.2c0,1.4-0.5,2.4-1.2,2.8l0,0L90.3,573.1z"/>
			<path class="st5" d="M49.7,545.6l-4.2-2.4l-22.9-39.7v-26.1l-3.4-4.4l3.2-1.8l0,0c0.6-0.4,1.4-0.4,2.3,0.1l66.4,38.5
				c1,0.6,1.9,1.7,2.5,2.9L49.7,545.6z"/>
			<path class="st20" d="M20.9,475l-1.5-2l3.2-1.8l0,0c0.6-0.4,1.4-0.4,2.3,0.1L26,472L20.9,475z"/>
			<path class="st5" d="M91.9,510.2c1.5,1.2,2.6,3.5,2.8,5.6l-6.5,3.7l-3.1-5.4L91.9,510.2z"/>
			<path class="st6" d="M88.1,511.6l-66.4-38.5c-1.9-1.1-3.4,0.1-3.4,2.6L18.2,528c0,2.5,1.5,5.4,3.4,6.5L88,573
				c1.9,1.1,3.4-0.1,3.4-2.6l0.1-52.2C91.5,515.6,90,512.7,88.1,511.6z"/>
		</g>
		<polygon class="st1" points="74.5,549.1 71.3,547.3 71.3,520.1 74.5,521.9 		"/>
		<polygon class="st1" points="67.1,544.8 63.9,543 63.9,515.8 67.1,517.7 		"/>
		<polygon class="st1" points="59.7,540.6 56.5,538.7 56.5,511.6 59.7,513.4 		"/>
		<path class="st14" d="M49.3,472.9c0,0-2.8,16.7-2.4,22.1c0.4,5.4,3.3,14.2,5.5,14s0.1-21.5,3.9-19.4c3.8,2.1,4.2,5.8,6,4.5
			c1.7-1.3-3-19.5-1.8-27.4C61.8,458.7,49.3,472.9,49.3,472.9z"/>
		<path class="st19" d="M122.4,290.9c13.4,4.8,16,1.9,16.2,1.7c0.1-0.8,0.2-1.6,0.3-2.5c0.2-3-0.2-5.8-0.9-8.6l-34.8-4.7
			C103.2,276.9,108.7,286,122.4,290.9z"/>
		<path class="st15" d="M139.8,263.5c-3.2-2.7-14.6-16.1-35-13c-12.8,2-23.6,10.7-26,30.6c-1.6,13.4,3.3,26.6,12.4,36.4
			c0.5-0.2,1-0.4,1.5-0.7c5.1-3.4,5.7-5.2,5.7-5.2l1.1-10.2c0-1.4-1.1-2.7-2.6-2.8c-1.1-0.1-2.5-0.6-3.7-2.3
			c-2.9-3.8-1.6-9.8,4.3-10.1c3.1-0.1,4.3-1.8,4.7-3.3c0.4-1.4,1.8-2.1,3.1-1.6c6.7,2.4,23.2,7.6,33.8,4.6
			C152.6,282,143,266.2,139.8,263.5z"/>
		<polygon class="st20" points="63.2,493.6 56.2,489.6 58.9,493.8 62.4,495.1 		"/>
	</g>
</g>
<g>
	<g>
		<path class="st21" d="M217.2,505l80-45.5c1.6-0.9,2.3-2.1,2.4-3.4l0,0l0.1-8.9c0,0-2.8,2.3-4.5,3.7l-50.1-29.3
			c-4.1-2.4-10.3-2.7-13.8-0.7l-76.4,43.5L149,461l-0.1,9l0,0c0,1.5,1.1,3.2,3.3,4.5l51.1,29.9C207.5,506.7,213.7,507,217.2,505z"/>
		<path class="st21" d="M151.4,457.3l80-45.5c3.6-2,9.7-1.7,13.8,0.7l51.1,29.9c4.1,2.4,4.5,6,0.9,8l-80,45.5
			c-3.6,2-9.7,1.7-13.8-0.7l-51.1-29.9C148.3,462.9,147.8,459.3,151.4,457.3z"/>
		<path class="st1" d="M217.3,495.9l80-45.5c2-1.1,2.7-2.8,2.2-4.5c-0.4,0.8-1,1.5-2.1,2.1l-80,45.5c-3.6,2-9.7,1.7-13.8-0.7
			l-51.1-29.9c-1.8-1-2.8-2.3-3.2-3.5c-0.9,1.9,0.1,4.2,3,5.9l51.1,29.9C207.5,497.6,213.7,497.9,217.3,495.9z"/>
	</g>
	<g>
		<path class="st1" d="M235.4,445.2c-3-1.7-2.9-4.5,0-6.2c3-1.7,7.8-1.7,10.8,0.1c3,1.7,2.9,4.5,0,6.2
			C243.2,447,238.4,447,235.4,445.2z"/>
		<path class="st1" d="M219.1,454.5c-3-1.7-2.9-4.5,0-6.2c3-1.7,7.8-1.7,10.8,0.1c3,1.7,2.9,4.5,0,6.2
			C226.9,456.3,222.1,456.3,219.1,454.5z"/>
		<path class="st1" d="M202.7,463.8c-3-1.7-2.9-4.5,0-6.2c3-1.7,7.8-1.7,10.8,0.1c3,1.7,2.9,4.5,0,6.2
			C210.5,465.6,205.7,465.6,202.7,463.8z"/>
	</g>
</g>
<g>
	<path class="st8" d="M694.2,568.8c0,7.4-5.2,10.4-11.6,6.7S671,562.8,671,555.3c0-7.4,5.2-10.4,11.6-6.7
		C689,552.3,694.2,561.4,694.2,568.8z"/>
	<path class="st8" d="M699.1,589.7c0-0.1,0-0.2-0.1-0.3c-0.5-3.1-3.5-5.9-5.4-5.2c-3,1.1-6.8,0.5-11-1.9s-8-6.3-11-10.9
		c-1.9-2.9-4.9-3.6-5.4-1.1c0,0.1,0,0.2-0.1,0.3l-5.5,35l44,25.4L699.1,589.7z"/>
</g>
<g>
	<path class="st1" d="M694.2,568.8c0,7.4-5.2,10.4-11.6,6.7S671,562.8,671,555.3c0-7.4,5.2-10.4,11.6-6.7
		C689,552.3,694.2,561.4,694.2,568.8z"/>
	<path class="st1" d="M699.1,589.7c0-0.1,0-0.2-0.1-0.3c-0.5-3.1-3.5-5.9-5.4-5.2c-3,1.1-6.8,0.5-11-1.9s-8-6.3-11-10.9
		c-1.9-2.9-4.9-3.6-5.4-1.1c0,0.1,0,0.2-0.1,0.3l-5.5,35l44,25.4L699.1,589.7z"/>
</g>
<g>
	<polygon class="st1" points="707.7,657.7 654.3,626.9 654.3,623.1 707.7,653.9 	"/>
	<polygon class="st1" points="691.6,665.2 654.3,643.7 654.3,639.9 691.6,661.4 	"/>
	<polygon class="st1" points="686.5,653.9 654.3,635.3 654.3,631.5 686.5,650.1 	"/>
	<polygon class="st1" points="707.7,666.1 691.6,656.8 691.6,653 707.7,662.3 	"/>
</g>
<g>
	<polygon class="st4" points="707.8,400.7 654.4,369.8 654.4,366 707.8,396.8 	"/>
	<polygon class="st4" points="691.7,408.2 654.4,386.6 654.4,382.8 691.7,404.3 	"/>
	<polygon class="st4" points="686.7,396.9 654.4,378.2 654.4,374.4 686.7,393 	"/>
	<polygon class="st4" points="707.8,409.1 691.7,399.8 691.7,395.9 707.8,405.2 	"/>
</g>
<g>
	<polygon class="st2" points="707.8,433.1 654.4,402.3 654.4,398.5 707.8,429.3 	"/>
	<polygon class="st2" points="691.7,440.6 654.4,419.1 654.4,415.3 691.7,436.8 	"/>
	<polygon class="st2" points="686.7,429.3 654.4,410.7 654.4,406.9 686.7,425.5 	"/>
	<polygon class="st2" points="707.8,441.5 691.7,432.2 691.7,428.4 707.8,437.7 	"/>
</g>
<g>
	<polygon class="st6" points="707.8,465.6 654.4,434.8 654.4,430.9 707.8,461.7 	"/>
	<polygon class="st6" points="691.7,473.1 654.4,451.6 654.4,447.7 691.7,469.2 	"/>
	<polygon class="st6" points="686.7,461.8 654.4,443.2 654.4,439.3 686.7,457.9 	"/>
	<polygon class="st6" points="707.8,474 691.7,464.7 691.7,460.8 707.8,470.1 	"/>
</g>
<g>
	<polygon class="st22" points="539.6,556.6 501.5,534.7 501.5,531.1 539.6,553.1 	"/>
	<polygon class="st2" points="563.2,570.3 546.9,560.9 546.9,557.3 563.2,566.7 	"/>
	<polygon class="st22" points="540.9,565.1 524.7,555.8 524.7,552.2 540.9,561.6 	"/>
	<polygon class="st2" points="576.1,585.5 546.9,568.6 546.9,565.1 576.1,581.9 	"/>
	<polygon class="st2" points="596.1,604.8 552.9,579.8 552.9,576.3 596.1,601.2 	"/>
	<polygon class="st2" points="586.5,583.7 570.2,574.3 570.2,570.8 586.5,580.2 	"/>
	<polygon class="st22" points="517.8,551.8 501.5,542.4 501.5,538.9 517.8,548.2 	"/>
	<polygon class="st22" points="546,575.8 501.4,550.1 501.4,546.5 546,572.2 	"/>
	<polygon class="st22" points="528.8,573.6 502,558.1 502,554.6 528.8,570.1 	"/>
</g>
<path class="st6" d="M931.8,762.1c-1,0-2-0.5-2.5-1.4c-0.8-1.4-0.4-3.2,1-4l112.8-66.7c0.9-0.5,1-1.4,1-1.8c0-0.4-0.1-1.2-1-1.8
	l-30.8-18.5c-1.4-0.8-1.8-2.6-1-4s2.6-1.8,4-1l30.8,18.5c2.4,1.4,3.8,4,3.8,6.8s-1.5,5.3-3.9,6.8l-112.8,66.7
	C932.8,761.9,932.3,762.1,931.8,762.1z"/>
<g>
	<polygon class="st3" points="953.9,813.1 914.7,790.5 875.5,813.1 914.7,835.8 	"/>
	<polygon class="st7" points="914.7,814.8 914.7,789.3 961.5,762.3 961.5,787.8 	"/>
	<polygon class="st7" points="914.7,789.3 867.9,762.3 867.9,787.8 914.7,814.8 	"/>
	<polygon class="st2" points="961.5,762.3 914.7,735.3 867.9,762.3 914.7,789.3 	"/>
</g>
<polygon class="st9" points="529.2,218.4 537.1,244.3 557.3,258.2 541.9,264.4 546.5,290.1 529.2,267.8 511.8,270.1 516.4,249.7 
	501.1,225.8 521.3,235.2 "/>
<polygon class="st9" points="593.5,255.3 601.4,281.1 621.6,295 606.3,301.3 610.9,326.9 593.5,304.6 576.2,306.9 580.8,286.5 
	565.5,262.6 585.6,272 "/>
<polygon class="st9" points="492.9,221.4 472.7,207.5 464.8,181.6 463.7,184.1 463.7,231.1 464.8,230.9 482.2,253.3 477.6,227.6 "/>
<g>
	<g>
		<g>
			<polygon class="st23" points="322.6,90.9 330.5,116.8 350.7,130.7 335.4,136.9 340,162.6 322.6,140.3 305.3,142.6 309.9,122.2 
				294.5,98.3 314.7,107.7 			"/>
			<path class="st6" d="M285.1,103.7l9.4-5.4l14.5,6.8c0,0-0.1,9.8,0,10s-6,0.5-6.4,0.5C302.3,115.6,285.1,103.7,285.1,103.7z"/>
			<path class="st5" d="M340,162.6l-9.4,5.4l-4.6-25.7c0,0,4.6-4.8,4.5-4.8l5.1,0.9L340,162.6z"/>
			<polygon class="st6" points="313.2,96.3 321.1,122.2 341.3,136.1 326,142.3 330.5,168 313.2,145.7 295.8,148 300.4,127.6 
				285.1,103.7 305.3,113.1 			"/>
			<path class="st1" d="M330.5,168l-4.6-25.7l15.3-6.2L321,122.2l-7.9-25.9l-7.9,16.8l-20.2-9.4l1.4,2.2L306,115l6.9-14.7l7,22.9
				l18.5,12.7l-14,5.7l4.3,24.2L330.5,168z"/>
			<polygon class="st5" points="313.2,96.3 322.6,90.9 330.5,116.8 321.1,122.2 			"/>
			<polygon class="st6" points="350.7,130.7 341.3,136.1 321.1,122.2 330.5,116.8 			"/>
		</g>
		<polygon class="st1" points="321.6,122.9 320.1,122 330.3,116.1 330.5,116.8 331.2,117.3 		"/>
	</g>
	<g>
		<g>
			<polygon class="st23" points="387,127.8 394.8,153.6 415,167.5 399.7,173.8 404.3,199.4 387,177.1 369.6,179.4 374.2,159 
				358.9,135.1 379.1,144.5 			"/>
			<path class="st6" d="M349.5,140.5l9.4-5.4l14.5,6.8c0,0-0.1,9.8,0,10s-6,0.5-6.4,0.5S349.5,140.5,349.5,140.5z"/>
			<path class="st5" d="M404.3,199.4l-9.4,5.4l-4.6-25.7c0,0,4.6-4.8,4.5-4.8l5.1,0.9L404.3,199.4z"/>
			<polygon class="st6" points="377.5,133.2 385.4,159 405.6,172.9 390.3,179.2 394.9,204.8 377.5,182.5 360.2,184.8 364.8,164.4 
				349.5,140.5 369.7,149.9 			"/>
			<path class="st1" d="M394.9,204.8l-4.6-25.7l15.3-6.2L385.4,159l-7.9-25.9l-7.9,16.8l-20.2-9.4l1.4,2.2l19.5,9.1l6.9-14.7l7,22.9
				l18.5,12.7l-14,5.7l4.3,24.2L394.9,204.8z"/>
			<polygon class="st5" points="377.5,133.2 387,127.8 394.8,153.6 385.4,159 			"/>
			<polygon class="st6" points="415,167.5 405.6,172.9 385.4,159 394.8,153.6 			"/>
		</g>
		<polygon class="st1" points="385.9,159.7 384.5,158.9 394.6,152.9 394.8,153.6 395.5,154.1 		"/>
	</g>
	<g>
		<g>
			<polygon class="st23" points="451.3,164.6 459.2,190.5 479.4,204.4 464.1,210.6 468.7,236.3 451.3,213.9 434,216.2 438.5,195.9 
				423.2,171.9 443.4,181.4 			"/>
			<path class="st6" d="M413.8,177.3l9.4-5.4l14.5,6.8c0,0-0.1,9.8,0,10s-6,0.5-6.4,0.5S413.8,177.3,413.8,177.3z"/>
			<path class="st5" d="M468.7,236.3l-9.4,5.4l-4.6-25.7c0,0,4.6-4.8,4.5-4.8s5.1,0.9,5.1,0.9L468.7,236.3z"/>
			<polygon class="st6" points="441.9,170 449.8,195.9 470,209.8 454.6,216 459.2,241.7 441.9,219.3 424.5,221.6 429.1,201.3 
				413.8,177.3 434,186.8 			"/>
			<path class="st1" d="M459.2,241.7l-4.6-25.7l15.3-6.2l-20.2-13.9l-7.9-25.9l-7.9,16.8l-20.2-9.4l1.4,2.2l19.5,9.1l6.9-14.7
				l7,22.9l18.5,12.7l-14,5.7l4.3,24.2L459.2,241.7z"/>
			<polygon class="st5" points="441.9,170 451.3,164.6 459.2,190.5 449.8,195.9 			"/>
			<polygon class="st6" points="479.4,204.4 470,209.8 449.8,195.9 459.2,190.5 			"/>
		</g>
		<polygon class="st1" points="450.2,196.5 448.8,195.7 459,189.8 459.2,190.5 459.9,190.9 		"/>
	</g>
	<g>
		<g>
			<polygon class="st23" points="515.6,201.4 523.5,227.3 543.7,241.2 528.4,247.4 533,273.1 515.6,250.8 498.3,253.1 502.9,232.7 
				487.6,208.8 507.8,218.2 			"/>
			<path class="st6" d="M478.2,214.2l9.4-5.4l14.5,6.8c0,0-0.1,9.8,0,10s-6,0.5-6.4,0.5C495.3,226.1,478.2,214.2,478.2,214.2z"/>
			<path class="st5" d="M533,273.1l-9.4,5.4l-4.6-25.7c0,0,4.6-4.8,4.5-4.8l5.1,0.9L533,273.1z"/>
			<polygon class="st6" points="506.2,206.8 514.1,232.7 534.3,246.6 519,252.8 523.6,278.5 506.2,256.2 488.9,258.5 493.5,238.1 
				478.2,214.2 498.3,223.6 			"/>
			<path class="st1" d="M523.6,278.5l-4.6-25.7l15.3-6.2l-20.2-13.9l-7.9-25.9l-7.9,16.8l-20.2-9.4l1.4,2.2l19.5,9.1l6.9-14.7
				l7,22.9l18.5,12.7l-14,5.7l4.3,24.2L523.6,278.5z"/>
			<polygon class="st5" points="506.2,206.8 515.6,201.4 523.5,227.3 514.1,232.7 			"/>
			<polygon class="st6" points="543.7,241.2 534.3,246.6 514.1,232.7 523.5,227.3 			"/>
		</g>
		<polygon class="st1" points="514.6,233.3 513.1,232.5 523.3,226.6 523.5,227.3 524.2,227.8 		"/>
	</g>
	<g>
		<g>
			<polygon class="st23" points="580,238.3 587.9,264.1 608.1,278 592.7,284.3 597.3,309.9 580,287.6 562.6,289.9 567.2,269.5 
				551.9,245.6 572.1,255 			"/>
			<path class="st6" d="M542.5,251l9.4-5.4l14.5,6.8c0,0-0.1,9.8,0,10s-6,0.5-6.4,0.5C559.7,262.9,542.5,251,542.5,251z"/>
			<path class="st5" d="M597.3,309.9l-9.4,5.4l-4.6-25.7c0,0,4.6-4.8,4.5-4.8l5.1,0.9L597.3,309.9z"/>
			<polygon class="st6" points="570.6,243.7 578.5,269.5 598.6,283.4 583.3,289.7 587.9,315.3 570.6,293 553.2,295.3 557.8,274.9 
				542.5,251 562.7,260.4 			"/>
			<path class="st1" d="M587.9,315.3l-4.6-25.7l15.3-6.2l-20.2-13.9l-7.9-25.9l-7.9,16.8l-20.2-9.4l1.4,2.2l19.5,9.1l6.9-14.7
				l7,22.9l18.5,12.7l-14,5.7l4.3,24.2L587.9,315.3z"/>
			<polygon class="st5" points="570.6,243.7 580,238.3 587.9,264.1 578.5,269.5 			"/>
			<polygon class="st6" points="608.1,278 598.6,283.4 578.5,269.5 587.9,264.1 			"/>
		</g>
		<polygon class="st1" points="578.9,270.2 577.5,269.3 587.7,263.4 587.9,264.1 588.5,264.6 		"/>
	</g>
</g>
<g>
	<g>
		<g>
			<path class="st5" d="M989.5,530.8c-1.8-1-3.8-1.9-5.8-2.8h0.1l-11.1-4.9l0.8,1.9c-8.4-1.7-17.6-1.8-26.1-0.3l0.5-2.2l-13.1,5.8
				h0.1c-1.7,0.7-3.4,1.5-4.9,2.4c-16.4,9.5-16.4,24.8,0,34.3s43,9.5,59.4,0C1005.9,555.6,1005.9,540.3,989.5,530.8z"/>
			<path class="st15" d="M973.7,539.7c-7.7,4.4-20.2,4.4-27.8,0c-7.7-4.4-7.7-11.6,0-16.1c7.7-4.4,20.2-4.4,27.8,0
				C981.4,528.1,981.4,535.3,973.7,539.7z"/>
		</g>
		<g>
			<path class="st15" d="M959.8,534.8L959.8,534.8c-3.7,0-6.7-3-6.7-6.7v-84.6h13.4v84.6C966.5,531.8,963.5,534.8,959.8,534.8z"/>
			<path class="st5" d="M964.5,446.5c-2.7,1.5-7,1.5-9.7,0s-2.7-4,0-5.6c2.7-1.5,7-1.5,9.7,0C967.1,442.5,967.1,445,964.5,446.5z"/>
		</g>
		<path class="st5" d="M959.8,446.4L959.8,446.4c-3,0-5.4-2.4-5.4-5.4v-79.5h10.9V441C965.2,443.9,962.8,446.4,959.8,446.4z"/>
		<g>
			<path class="st15" d="M1037.8,403.1V400l4.4-0.6l4.9-3.7c0.8-0.6,2.3-0.7,3.2-0.1l3.6,2.1l3.6-0.5v3.2l0,0c0,0.4-0.3,0.7-0.8,1
				l-11.5,5.1c-0.9,0.4-2.2,0.4-3-0.1l-3.8-2.2C1038,403.7,1037.8,403.4,1037.8,403.1L1037.8,403.1z"/>
			<path class="st5" d="M1038.3,399.1l8.9-6.6c0.8-0.6,2.3-0.7,3.2-0.1l6.6,3.8c0.9,0.5,0.8,1.4-0.2,1.9l-11.5,5.1
				c-0.9,0.4-2.2,0.4-3-0.1l-3.8-2.2C1037.6,400.4,1037.6,399.7,1038.3,399.1z"/>
			<g>
				<path class="st5" d="M1023.3,414.2c1.3,0,2.5-0.3,3.5-0.9l13.8-7.9c0.8-0.4,1-1.4,0.6-2.2c-0.4-0.8-1.4-1-2.2-0.6l-13.8,7.9
					c-1,0.6-2.9,0.6-3.9,0l-22.9-13.2c-0.8-0.4-1.7-0.2-2.2,0.6c-0.4,0.8-0.2,1.7,0.6,2.2l22.9,13.2
					C1020.8,413.9,1022.1,414.2,1023.3,414.2z"/>
			</g>
		</g>
		<g>
			
				<radialGradient id="SVGID_1_" cx="744.996" cy="541.3957" r="136.345" gradientTransform="matrix(1 0 0 -1 0 910)" gradientUnits="userSpaceOnUse">
				<stop  offset="0" style="stop-color:#01C8EF"/>
				<stop  offset="8.940536e-02" style="stop-color:#03BEE9"/>
				<stop  offset="0.2388" style="stop-color:#08A5D7"/>
				<stop  offset="0.4288" style="stop-color:#107BBB"/>
				<stop  offset="0.4457" style="stop-color:#1177B8"/>
				<stop  offset="1" style="stop-color:#112564"/>
			</radialGradient>
			<polygon class="st24" points="891.1,385.1 913.2,372.2 900.8,366.6 890.2,374.1 			"/>
			<path class="st5" d="M1032.9,366c-1.2-0.6-2.5-1.4-3.7-2.3l-47.1-34.5c-8.5-6.2-17.2-7.8-24-4.4c-0.2,0.1-0.3,0.2-0.5,0.3l0,0
				l-65,37.7l5.8,1.9l22.8,10.3l31,22l24.4,13l1.1,0.2c5.7-4.8,12.1-8.9,15.6-15.9c6.1-10.6,22.9-13.6,32.8-22.2c1,0.6,2,1.2,3,1.7
				C1031.1,371.8,1031.7,369,1032.9,366z"/>
			<path class="st15" d="M1053.6,350.4c-1,0-1.9,0.4-2.7,0.9l0,0l-63.6,36.8l2.3,9.5l2.4-1.1c-3.6,5.7-9.2,9.4-14.3,13.7l7.2,1.5
				l62.3-36.2c0.3-0.1,0.6-0.2,0.9-0.4c0.9-0.4,1.6-1,2.4-1.5l0.1-0.1l0,0c4.7-3.7,7.4-10,7.4-18v-0.7
				C1057.9,352.4,1056,350.4,1053.6,350.4z"/>
			<g>
				<path class="st25" d="M966.4,323c4,0.1,8.2,1.5,12.5,4C974.7,324.5,970.4,323.2,966.4,323z"/>
				<path class="st5" d="M995.4,391.1v-0.7c0-2.4-2-4.4-4.4-4.4s-4.4,2-4.4,4.4v0.7c0,5.8-1.9,10.1-5.1,11.8
					c-3.7,1.9-9.2,0.5-14.9-3.7l-47.1-34.5c-7.2-5.3-14.7-7.2-20.9-5.6l38.9-22.6l-45,26.1l5.8,1.9l22.8,10.3l31,22l24.4,13l1.1,0.2
					c5.7-4.8,12.1-8.9,15.6-15.9c0.6-1.1,1.3-2,2.1-2.9C995.4,391.3,995.4,391.2,995.4,391.1z"/>
			</g>
			<g>
				<path class="st5" d="M976.6,413.9c-5.2,0-10.8-2.1-16.4-6.2l-47.1-34.5c-5.7-4.1-11.2-5.5-14.9-3.7c-3.2,1.6-5.1,5.9-5.1,11.8
					c0,2.4-2,4.4-4.4,4.4s-4.4-2-4.4-4.4c0-9.3,3.6-16.4,9.9-19.6c6.8-3.4,15.5-1.8,24,4.4l47.1,34.5c5.7,4.1,11.2,5.5,14.9,3.7
					c3.2-1.6,5.1-5.9,5.1-11.8v-0.7c0-2.4,2-4.4,4.4-4.4s4.4,2,4.4,4.4v0.7c0,9.3-3.6,16.4-9.9,19.6
					C981.8,413.3,979.3,413.9,976.6,413.9z"/>
			</g>
		</g>
	</g>
	<g>
		<g>
			<path class="st7" d="M939.6,491c0,0-8.9-4.5-14.3,2.2c-5.4,6.7-13.2,22.4-13.5,33c-0.2,10.6,8.4,9.9,13.5,7.4
				s20.1-24.3,21.1-28.6c0.9-4.3-1.1-10-2.5-11.2C942.4,492.7,939.6,491,939.6,491z"/>
			<path class="st2" d="M941.5,488.9l0.4,9.2c0.1,2-0.9,3.8-2.6,4.8c-1.5,0.9-3.8,1.6-6.8,1.1c-6.7-1.1-7.3-3-7.8-12.2
				C924.2,482.6,941.5,488.9,941.5,488.9z"/>
			<g>
				<path class="st7" d="M907.1,473.4c0,0-8.9-4.5-14.3,2.2c-5.4,6.7-13.2,22.4-13.5,33s8.4,9.9,13.5,7.4s20.1-24.3,21.1-28.6
					c0.9-4.3-1.1-10-2.5-11.2C910,475.1,907.1,473.4,907.1,473.4z"/>
				<path class="st2" d="M909,471.2l0.4,9.2c0.1,2-0.9,3.8-2.6,4.8c-1.5,0.9-3.8,1.6-6.8,1.1c-6.7-1.1-7.3-3-7.8-12.2
					C891.8,464.9,909,471.2,909,471.2z"/>
				<path class="st7" d="M988.1,302.6c-2.6-42.7-46.2,6.3-46.2,6.3l-29.8,29.3l-26.9,29.5c-5.2,5.8-7.7,13.6-6.7,21.3l10.9,82.8
					c0.5,4.1,4,7.1,8.2,7.1c1.2,0,2.5-0.1,4-0.4c9.7-1.5,9-10.7,9-10.7l-2-77.4l56.4-34C965,356.3,990.8,345.3,988.1,302.6z"/>
			</g>
			<path class="st7" d="M1020.6,318.9c-2.6-42.7-46.2,6.3-46.2,6.3l-29.8,29.3L917.7,384c-5.2,5.8-7.7,13.6-6.7,21.3l10.9,82.8
				c0.5,4.1,4,7.1,8.2,7.1c1.2,0,2.5-0.1,4-0.4c9.7-1.5,9-10.7,9-10.7l-2-77.4l56.4-34C997.5,372.5,1023.2,361.6,1020.6,318.9z"/>
			<path class="st21" d="M994.8,181.8c33.1,13.7,32.4,33.2,32.4,33.2s-6.5,71.6-4.3,119.5c0.9,20-106.3,21.5-90.3-31.8
				c18.9-62.9,11.8-113.9,20.6-121.5C962.1,173.5,986.2,178.3,994.8,181.8z"/>
			
				<ellipse transform="matrix(0.2494 -0.9684 0.9684 0.2494 553.4896 1103.917)" class="st14" cx="988.9" cy="194.9" rx="12.6" ry="17.1"/>
			<path class="st14" d="M981.5,180.3c0,0,0.3,1.3-0.3,11.8c-0.2,3.3,11.4,6.4,14.3,3.4c3-3,1.8-6.1,2.5-17.3
				C998.8,167,981.5,180.3,981.5,180.3z"/>
			<path class="st19" d="M998.1,178.2c0,0-2.8,10.4-16.8,14.4l0.2-9.4L998.1,178.2z"/>
			<path class="st14" d="M1007,151.8c3.5,13.6-4.7,27.5-18.3,31s-27.5-4.7-31-18.3s4.7-27.5,18.3-31
				C989.6,130.1,1003.4,138.2,1007,151.8z"/>
			<path class="st19" d="M988.2,159.1c0,0-14,6-23.7,6.1s-7.6-8.1-7.6-8.1l28.8-4.2L988.2,159.1z"/>
			<path class="st6" d="M961.6,160.7c0,0,12.2-5.2,22.9-3c2.5,0.5,4.9,1.9,6.5,3.8c0.5,0.7,1.2,1.2,2,1.4c1.9,0.4,5-7.4,8.7-7.6
				c3.7-0.2,6.2,2.4,3.1,7.3c-3,4.8-2,10.3-0.6,11c1.4,0.8,16.2-10.5,3.1-36.3c-13-25.8-46.1-11.9-51.3-6.7c0,0-5.4,4.7-9.8,0.5
				C946.2,131.2,941.2,168.2,961.6,160.7z"/>
			<path class="st14" d="M1008.7,267.4v19.4c0,2.2-0.9,4.3-2.6,5.8l-39.8,36.3l4.5,6.9l52.5-38.1c2.5-1.8,4-4.5,4.3-7.5l3.6-33.8
				L1008.7,267.4z"/>
			<path class="st21" d="M1024.4,205.4c0,0,12.1,18.1,16.6,65.9c0,0-20.6,6.7-32.3,2.9C997,270.4,1024.4,205.4,1024.4,205.4z"/>
			<path class="st26" d="M1006.4,228.3c0,0-4.7,25.3-5,37.2c-0.1,3.3,1.9,6.2,5,7.3l0,0V228.3z"/>
		</g>
		<g>
			<path class="st2" d="M996.1,354.1l-8.8-1.2l-56.7-32.8c-1.8-1.1-5-0.9-7.1,0.3l-40.2,23.2l-5.3-0.7v5.3l0,0
				c0,0.7,0.4,1.4,1.2,1.9l64.3,37.1c1.8,1.1,5,0.9,7.1-0.3l43.8-25.3c1.2-0.7,1.8-1.6,1.7-2.4l0,0V354.1z"/>
			<path class="st2" d="M953.5,333.4l-4-2.3h-44.3l-21.8,12.6l-5.3-0.7v5.3l0,0c0,0.7,0.4,1.4,1.2,1.9l64.3,37.1
				c1,0.6,2.3,0.8,3.7,0.7L953.5,333.4z"/>
			<path class="st27" d="M880.3,343.2l-2.4-0.3v5.3l0,0c0,0.7,0.4,1.4,1.2,1.9l1.1,0.7v-7.6H880.3z"/>
			<path class="st2" d="M944.2,387.5c1.7,0.7,4.2,0.5,6-0.4v-9h-6V387.5z"/>
			<path class="st1" d="M943.5,381.9l-64.3-37.1c-1.8-1.1-1.6-2.9,0.5-4.1l43.8-25.3c2.1-1.2,5.3-1.3,7.1-0.3l64.3,37.1
				c1.8,1.1,1.6,2.9-0.5,4.1l-43.8,25.3C948.5,382.8,945.3,383,943.5,381.9z"/>
			<path class="st28" d="M942.4,376.3L889,345.4c-1.5-0.9-1.3-2.4,0.4-3.4l23.5-13.2c1.7-1,4.4-1.1,5.9-0.2l53.5,30.9
				c1.5,0.9,1.3,2.4-0.4,3.4l-23.5,13.2C946.6,377.1,943.9,377.2,942.4,376.3z"/>
		</g>
		<path class="st14" d="M926,314.2l-0.7,4.4c-0.6,3.8-0.5,7.6,0.3,11.4l0.8,3.9c0.4,2.2,2.2,3.9,4.4,4.3l0,0
			c1.7,0.3,3.4-0.9,3.6-2.6l1.1-9.5c0,0,2.4,3.2,3.6,3.2c1.2,0-1.3-9.5-4-14.9C932.4,309,926,314.2,926,314.2z"/>
		<path class="st14" d="M947.8,243.7l-6.9,13.7c-1.6,3.2-2.6,6.8-2.8,10.4l-3,46.7l-9.1-0.2l-4.1-52.5c-0.1-1.6,0-3.2,0.2-4.8
			l4.7-26.6L947.8,243.7z"/>
		<g>
			<path class="st2" d="M941.3,385.5l-5.4-7l-56.7-32.8c-1.8-1.1-3.3-3.9-3.3-6.3V293l-3.3-4.3l3.1-1.8l0,0c0.6-0.4,1.4-0.4,2.2,0.1
				l64.3,37.2c1.8,1.1,3.3,3.9,3.3,6.3l-0.1,50.6c0,1.4-0.5,2.3-1.2,2.7l0,0L941.3,385.5z"/>
			<path class="st2" d="M902.1,358.9l-4-2.3L876,318.1v-25.2l-3.3-4.3l3.1-1.8l0,0c0.6-0.4,1.4-0.4,2.2,0.1l64.3,37.2
				c1,0.6,1.8,1.6,2.4,2.8L902.1,358.9z"/>
			<path class="st2" d="M874.2,290.5l-1.4-1.9l3.1-1.8l0,0c0.6-0.4,1.4-0.4,2.2,0.1l1.1,0.7L874.2,290.5z"/>
			<path class="st2" d="M942.9,324.6c1.4,1.2,2.5,3.4,2.7,5.4l-6.3,3.6l-3-5.2L942.9,324.6z"/>
			<path class="st22" d="M939.2,326L875,288.8c-1.8-1.1-3.3,0.1-3.3,2.5l-0.1,50.6c0,2.4,1.5,5.2,3.3,6.3l64.3,37.2
				c1.8,1.1,3.3-0.1,3.3-2.5l0.1-50.6C942.5,329.9,941,327,939.2,326z"/>
		</g>
		<path class="st14" d="M970.8,335.8l-1,2.1c-1.2,2.5-3,4.5-5.4,6l-6.4,3.9c-2,1.2-4.5,1.3-6.5,0.2c-0.1,0-0.1-0.1-0.2-0.1
			c-2-1.3-2.2-4.2-0.5-5.9l6.7-6.9c0,0-3.7,2.9-4.8,1.7c-0.8-0.8,3.6-5,7-5.1s6.7-2.8,6.7-2.8L970.8,335.8z"/>
		<path class="st21" d="M953.9,181.1c0,0-24.5,26.6-34.3,51c0,0,8.4,15.1,28.8,21C968.9,259,953.9,181.1,953.9,181.1z"/>
		<path class="st26" d="M943.8,251.5l4-38.3l-9.3,35.9C940.1,250,941.9,250.8,943.8,251.5z"/>
	</g>
</g>
<polygon class="st21" points="267.5,409.4 235.2,410.7 252.4,438 "/>
<polygon class="st13" points="311.9,691.9 279.6,693.1 296.8,720.4 "/>
</svg>
