<svg xmlns="http://www.w3.org/2000/svg" viewBox="0 0 81.86 82"><defs><style>.cls-1{fill:#66c3f0;}.cls-2{fill:#ec6566;}.cls-3{fill:#273357;}</style></defs><title>Recurso 8</title><g id="Capa_2" data-name="Capa 2"><g id="Ilustraciones"><path class="cls-1" d="M37.63,15.08a5.31,5.31,0,0,0,.07-.81,4.86,4.86,0,0,0-7.23-4.22,8.07,8.07,0,0,0-15.39,3.41,8.56,8.56,0,0,0,.16,1.62Z"/><path class="cls-1" d="M43.09,62.48v4.3a2.16,2.16,0,1,1-4.31,0v-4.3Z"/><rect class="cls-2" x="59.24" width="5.39" height="15.08"/><rect class="cls-2" x="51.7" y="4.31" width="5.39" height="10.77"/><rect class="cls-2" x="44.16" y="8.62" width="5.39" height="6.46"/><path class="cls-1" d="M62.48,32.31H54.94a1.08,1.08,0,1,1,0-2.15h7.54a1.08,1.08,0,0,1,0,2.15Z"/><rect class="cls-2" x="56.01" y="51.7" width="17.23" height="3.23"/><rect class="cls-2" x="56.01" y="57.09" width="17.23" height="3.23"/><circle class="cls-3" cx="4.31" cy="40.93" r="1.21"/><circle class="cls-3" cx="68.94" cy="80.79" r="1.21"/><path class="cls-3" d="M65.71,79.71H10.77a1.08,1.08,0,1,0,0,2.15H65.71a1.08,1.08,0,0,0,0-2.15Z"/><path class="cls-3" d="M67.86,47.4V22.62a1.08,1.08,0,0,0-1.08-1.08H15.08A1.09,1.09,0,0,0,14,22.62V58.17a1.08,1.08,0,0,0,1.08,1.07H51.7V57.09H16.16V23.7H65.71V47.4Z"/><path class="cls-3" d="M35.12,43A1.09,1.09,0,0,0,36,43a1.07,1.07,0,0,0,.58-.6L41.3,30.06l6.36,7.27a1.08,1.08,0,1,0,1.62-1.42L41.74,27.3a1.07,1.07,0,0,0-1.81.32l-5,13-6.51-2.79a1.07,1.07,0,0,0-1.35.43L20.62,49A1.06,1.06,0,0,0,21,50.47a1,1,0,0,0,.55.16,1.09,1.09,0,0,0,.93-.53l6-10Z"/><path class="cls-3" d="M54.94,35.55a1.08,1.08,0,1,0,0,2.15h7.54a1.08,1.08,0,0,0,0-2.15Z"/><path class="cls-3" d="M51.7,48.47a1.07,1.07,0,0,0-1.07-1.07H29.08a1.08,1.08,0,0,0,0,2.15H50.63A1.07,1.07,0,0,0,51.7,48.47Z"/><path class="cls-3" d="M29.08,51.7a1.08,1.08,0,0,0,0,2.16H37.7a1.08,1.08,0,0,0,0-2.16Z"/><path class="cls-3" d="M40.93,51.7a1.08,1.08,0,0,0,0,2.16H47.4a1.08,1.08,0,0,0,0-2.16Z"/><path class="cls-3" d="M4.31,38.78A1.08,1.08,0,0,0,5.39,37.7V19.39a6.52,6.52,0,0,1,3.13-5.54A1.08,1.08,0,1,0,7.41,12a8.69,8.69,0,0,0-4.18,7.39V37.7A1.08,1.08,0,0,0,4.31,38.78Z"/><path class="cls-3" d="M77,68.94a4.94,4.94,0,0,0,4.84-5V60a4.94,4.94,0,0,0-4.84-5H75.4V50.63a1.08,1.08,0,0,0-1.08-1.08H54.94a1.08,1.08,0,0,0-1.08,1.08V75.4H28V74.32H51.7V72.17H50.64a8.22,8.22,0,0,1-1-4V63.55H51.7V61.4H11.85v-42H70v28h2.15V18.85a1.63,1.63,0,0,0-1.62-1.62H11.31a1.63,1.63,0,0,0-1.62,1.62V61.94a1.62,1.62,0,0,0,1.62,1.61h21v4.58a8.22,8.22,0,0,1-1.05,4H26.93a1.08,1.08,0,0,0-1.08,1.08V75.4H22.62V69.28a3.49,3.49,0,0,0-3.48-3.48H8.87a3.49,3.49,0,0,0-3.48,3.48V75.4H1.08a1.08,1.08,0,0,0,0,2.16H80.79a1.08,1.08,0,0,0,0-2.16H75.4V68.94ZM39.86,63.55H42v3.23a1.08,1.08,0,1,1-2.15,0Zm-5.43,4.58V63.55H37.7v3.23a3.23,3.23,0,1,0,6.46,0V63.55h3.28v4.58a10.48,10.48,0,0,0,.81,4H33.61A10.49,10.49,0,0,0,34.43,68.13ZM7.54,75.4V73.25h5.78a1.08,1.08,0,0,0,0-2.16H7.54V69.28A1.33,1.33,0,0,1,8.87,68H19.14a1.33,1.33,0,0,1,1.33,1.32v1.81H18.8a1.08,1.08,0,0,0,0,2.16h1.67V75.4ZM77,57.09A2.79,2.79,0,0,1,79.71,60v4A2.78,2.78,0,0,1,77,66.78H75.4V57.09ZM56,75.4V51.7H73.25V75.4Z"/><path class="cls-3" d="M70,70a1.08,1.08,0,0,0,1.07-1.08V58.17a1.08,1.08,0,1,0-2.15,0V68.94A1.08,1.08,0,0,0,70,70Z"/><path class="cls-3" d="M70,71a1.08,1.08,0,0,0-.54.13l-.15.08-.13.1a1.21,1.21,0,0,0,0,1.8l.13.1.15.08a1.08,1.08,0,0,0,.54.13A1.21,1.21,0,1,0,70,71Z"/><path class="cls-2" d="M21.54,42a1.07,1.07,0,0,1-.92-1.63l6.46-10.77a1.09,1.09,0,0,1,.67-.5,1.12,1.12,0,0,1,.82.13l13.06,8,7-12a1.08,1.08,0,1,1,1.86,1.08L42.94,39.32a1.09,1.09,0,0,1-.67.5,1.07,1.07,0,0,1-.82-.12L28.37,31.65l-5.9,9.84A1.1,1.1,0,0,1,21.54,42Z"/></g></g></svg>