<svg xmlns="http://www.w3.org/2000/svg" viewBox="0 0 73.25 82.13"><defs><style>.cls-1{fill:#ec6566;}.cls-2{fill:#66c3f0;}.cls-3{fill:#273357;}</style></defs><title>Recurso 4</title><g id="Capa_2" data-name="Capa 2"><g id="Ilustraciones"><path class="cls-1" d="M35.12,69.92c0,1.9,1.14,3.46,2.54,3.46s2.54-1.56,2.54-3.46v-3H35.12Z"/><path class="cls-1" d="M65.29,7.67H10.12a2.58,2.58,0,0,0-2.58,2.58v3.89H67.86V10.25A2.58,2.58,0,0,0,65.29,7.67Z"/><path class="cls-2" d="M36.62,43.29V20.53a1,1,0,0,0-1-1H16.09a1,1,0,0,0-1,1V43.29a1,1,0,0,0,1,1H35.61A1,1,0,0,0,36.62,43.29ZM25.86,22.76c3.29,0,3.7,2.12,3.7,4.74s-1.66,4.74-3.7,4.74-3.71-2.12-3.71-4.74S22.56,22.76,25.86,22.76Zm6.86,16.09a10.13,10.13,0,0,1-13.73,0,1.18,1.18,0,0,1-.28-1.18,7,7,0,0,1,4.35-4.46,3.94,3.94,0,0,0,5.6,0A7,7,0,0,1,33,37.67,1.18,1.18,0,0,1,32.72,38.85Z"/><path class="cls-3" d="M42,28.14H58.22a1.08,1.08,0,1,0,0-2.15H42a1.08,1.08,0,1,0,0,2.15Z"/><path class="cls-3" d="M42,33.53H52.78a1.08,1.08,0,0,0,0-2.16H42a1.08,1.08,0,0,0,0,2.16Z"/><path class="cls-3" d="M42,22.76H56a1.08,1.08,0,1,0,0-2.16H42a1.08,1.08,0,1,0,0,2.16Z"/><path class="cls-3" d="M59.24,36.76H42a1.08,1.08,0,1,0,0,2.15H59.24a1.08,1.08,0,1,0,0-2.15Z"/><path class="cls-3" d="M16.16,49.68H38.78a1.08,1.08,0,1,0,0-2.15H16.16a1.08,1.08,0,1,0,0,2.15Z"/><path class="cls-3" d="M56,52.92H16.16a1.08,1.08,0,1,0,0,2.15H56a1.08,1.08,0,1,0,0-2.15Z"/><path class="cls-3" d="M59.24,47.53H41.8a1.08,1.08,0,0,0,0,2.15H59.24a1.08,1.08,0,1,0,0-2.15Z"/><path class="cls-3" d="M42,44.3h7.54a1.08,1.08,0,1,0,0-2.16H42a1.08,1.08,0,1,0,0,2.16Z"/><path class="cls-3" d="M57.09,44.3a1.08,1.08,0,0,0,0-2.16H52.78a1.08,1.08,0,0,0,0,2.16Z"/><path class="cls-3" d="M70.94,18.45h-2v-8.2A3.65,3.65,0,0,0,65.29,6.6H10.11a3.65,3.65,0,0,0-3.65,3.65v8.2h-2a2.27,2.27,0,0,0-2.31,2.22V65.78A2.27,2.27,0,0,0,4.46,68H27.64v2.57a9.53,9.53,0,0,1-1.39,5H20.47a1.07,1.07,0,0,0-1.08,1.07v3.23H7.54a1.08,1.08,0,0,0,0,2.16H62.48a1.08,1.08,0,0,0,0-2.16H56V76.61a1.07,1.07,0,0,0-1.07-1.07H49.07a9.53,9.53,0,0,1-1.39-5V68H70.79a2.42,2.42,0,0,0,2.46-2.36v-45A2.27,2.27,0,0,0,70.94,18.45ZM8.62,10.25a1.5,1.5,0,0,1,1.49-1.5H65.29a1.5,1.5,0,0,1,1.49,1.5v2.81H8.62Zm0,10.35V15.21H66.78V59.38H8.62ZM53.86,79.84H21.54V77.69H53.86Zm-7.24-4.3H28.7a11.77,11.77,0,0,0,1.09-5V68H34v1.92c0,2.5,1.62,4,3.62,4s3.62-1.5,3.62-4V68h4.24v2.57A11.78,11.78,0,0,0,46.62,75.54ZM39.12,68v1.92c0,1.41-.77,1.85-1.46,1.85s-1.47-.44-1.47-1.85V68Zm32-2.36c0,.09-.13.2-.3.2H4.46a.19.19,0,0,1-.15-.06V20.67s.06-.07.15-.07h2V60.46a1.08,1.08,0,0,0,1.08,1.07H67.86a1.08,1.08,0,0,0,1.08-1.07V20.6h2c.09,0,.15,0,.15.07Z"/><path class="cls-3" d="M10.32,2.29H28A1.08,1.08,0,0,0,28,.13H10.32A10.34,10.34,0,0,0,0,10.46a1.08,1.08,0,0,0,2.15,0A8.18,8.18,0,0,1,10.32,2.29Z"/><circle class="cls-3" cx="65.71" cy="80.92" r="1.21"/><circle class="cls-3" cx="31.24" cy="1.21" r="1.21"/><circle class="cls-3" cx="67.86" cy="63.69" r="1.21"/><circle class="cls-3" cx="63.55" cy="63.69" r="1.21"/><circle class="cls-3" cx="59.24" cy="63.69" r="1.21"/></g></g></svg>