<svg xmlns="http://www.w3.org/2000/svg" viewBox="0 0 88.33 84.02"><defs><style>.cls-1{fill:#ec6566;}.cls-2{fill:#66c3f0;}.cls-3{fill:#273357;}</style></defs><title>Recurso 3</title><g id="Capa_2" data-name="Capa 2"><g id="Ilustraciones"><circle class="cls-1" cx="29.08" cy="15.08" r="4.31"/><path class="cls-2" d="M38.78,59.72a1.69,1.69,0,0,1-1.69,1.68h-16a1.68,1.68,0,0,1-1.68-1.68V42H14V82.94H44.16V42H38.78Z"/><path class="cls-1" d="M75.4,34.47a5.49,5.49,0,0,1-.11,1.08,5.33,5.33,0,0,1-1,2.15,5,5,0,0,1-1.08,1.08H84V34.47Z"/><path class="cls-1" d="M65.71,37.7a5.33,5.33,0,0,1-1-2.15,5.49,5.49,0,0,1-.11-1.08H56v4.31H66.79A5,5,0,0,1,65.71,37.7Z"/><path class="cls-3" d="M15.08,20.47h28a1.08,1.08,0,0,0,0-2.16H40.93V16.16a11.85,11.85,0,0,0-23.7,0v2.15H15.08a1.08,1.08,0,0,0,0,2.16Zm10.77-5.39a3.23,3.23,0,1,1,3.23,3.23A3.23,3.23,0,0,1,25.85,15.08Zm-6.46,1.08a9.7,9.7,0,1,1,19.39,0v2.15h-5.4a5.39,5.39,0,1,0-8.59,0h-5.4Z"/><path class="cls-3" d="M39.86,22.62a1.08,1.08,0,1,0-2.16,0V28a8.62,8.62,0,0,1-17.23,0V22.62a1.08,1.08,0,1,0-2.16,0V28A10.71,10.71,0,0,0,19.4,32.7s0,.1,0,.15v6.47a1.08,1.08,0,0,0,2.15,0V35.69a10.74,10.74,0,0,0,15.08,0v3.63a1.08,1.08,0,0,0,2.16,0V32.85a.77.77,0,0,0,0-.15A10.58,10.58,0,0,0,39.86,28Z"/><path class="cls-3" d="M29.08,2.15a14.09,14.09,0,0,1,13.08,9,1.09,1.09,0,0,0,1,.69,1.07,1.07,0,0,0,.39-.07,1.08,1.08,0,0,0,.62-1.39A16.27,16.27,0,0,0,29.08,0a1.08,1.08,0,0,0,0,2.15Z"/><circle class="cls-3" cx="44.16" cy="13.46" r="1.21"/><path class="cls-3" d="M62.48,43.09a1.07,1.07,0,0,0-1.08,1.07v4.31a1.08,1.08,0,1,0,2.15,0V44.16A1.07,1.07,0,0,0,62.48,43.09Z"/><path class="cls-3" d="M62.48,52.78a1.08,1.08,0,0,0-1.08,1.08v4.31a1.08,1.08,0,0,0,2.15,0V53.86A1.07,1.07,0,0,0,62.48,52.78Z"/><path class="cls-3" d="M62.48,62.48a1.07,1.07,0,0,0-1.08,1.07v4.31a1.08,1.08,0,1,0,2.15,0V63.55A1.07,1.07,0,0,0,62.48,62.48Z"/><path class="cls-3" d="M62.48,72.17a1.08,1.08,0,0,0-1.08,1.08v4.31a1.08,1.08,0,0,0,2.15,0V73.25A1.07,1.07,0,0,0,62.48,72.17Z"/><path class="cls-3" d="M70,43.09a1.07,1.07,0,0,0-1.08,1.07v4.31a1.08,1.08,0,1,0,2.15,0V44.16A1.07,1.07,0,0,0,70,43.09Z"/><path class="cls-3" d="M70,52.78a1.08,1.08,0,0,0-1.08,1.08v4.31a1.08,1.08,0,0,0,2.15,0V53.86A1.07,1.07,0,0,0,70,52.78Z"/><path class="cls-3" d="M70,62.48a1.07,1.07,0,0,0-1.08,1.07v4.31a1.08,1.08,0,1,0,2.15,0V63.55A1.07,1.07,0,0,0,70,62.48Z"/><path class="cls-3" d="M70,72.17a1.08,1.08,0,0,0-1.08,1.08v4.31a1.08,1.08,0,0,0,2.15,0V73.25A1.07,1.07,0,0,0,70,72.17Z"/><path class="cls-3" d="M77.56,43.09a1.07,1.07,0,0,0-1.08,1.07v4.31a1.08,1.08,0,1,0,2.15,0V44.16A1.07,1.07,0,0,0,77.56,43.09Z"/><path class="cls-3" d="M77.56,52.78a1.08,1.08,0,0,0-1.08,1.08v4.31a1.08,1.08,0,0,0,2.15,0V53.86A1.07,1.07,0,0,0,77.56,52.78Z"/><path class="cls-3" d="M77.56,62.48a1.07,1.07,0,0,0-1.08,1.07v4.31a1.08,1.08,0,1,0,2.15,0V63.55A1.07,1.07,0,0,0,77.56,62.48Z"/><path class="cls-3" d="M77.56,72.17a1.08,1.08,0,0,0-1.08,1.08v4.31a1.08,1.08,0,0,0,2.15,0V73.25A1.07,1.07,0,0,0,77.56,72.17Z"/><path class="cls-3" d="M87.25,81.86H85.1V34.47A1.09,1.09,0,0,0,84,33.39H76.48v-.54a2.7,2.7,0,0,0-2.69-2.69H66.25a2.7,2.7,0,0,0-2.7,2.69v.54H56a1.08,1.08,0,0,0-1.07,1.08v6.46H38.6l-.1,0-.1,0-.1,0-.06,0a18.27,18.27,0,0,1-18.31,0l-.06,0-.1,0-.1,0-.1,0H14a1,1,0,0,0-.38.08A12.84,12.84,0,0,0,2.15,53.77V79.71a1.08,1.08,0,1,0,2.16,0V53.77a10.7,10.7,0,0,1,8.62-10.48V81.86H1.08a1.08,1.08,0,1,0,0,2.16H87.25a1.08,1.08,0,0,0,0-2.16Zm-42-17.23v-4a5.66,5.66,0,0,1,5.66-5.65h4V81.86h-9.7ZM57.09,81.86v-42h9.37a6.46,6.46,0,0,0,7.12,0h9.36v42ZM82.94,37.7H75.61a6.37,6.37,0,0,0,.78-2.15h6.55ZM65.71,32.85a.54.54,0,0,1,.54-.54h7.54a.54.54,0,0,1,.53.54v1.62a4.31,4.31,0,0,1-8.48,1.08,4.84,4.84,0,0,1-.13-1.08V32.85Zm-8.62,2.7h6.55a6.37,6.37,0,0,0,.78,2.15H57.09ZM54.94,52.78h-4a7.77,7.77,0,0,0-5.66,2.44V43.09h9.7Zm-17.24-9V59.72a.6.6,0,0,1-.61.6h-16a.6.6,0,0,1-.6-.6V43.77a20.29,20.29,0,0,0,17.23,0Zm-22.62-.68h3.23V59.72a2.77,2.77,0,0,0,2.76,2.76h16a2.77,2.77,0,0,0,2.77-2.76V43.09h3.23V81.86h-28Z"/></g></g></svg>