<svg width="381" height="149" viewBox="0 0 381 149" fill="none" xmlns="http://www.w3.org/2000/svg">
<path fill-rule="evenodd" clip-rule="evenodd" d="M351.86 2.91357C350.316 3.86985 348.083 5.53385 346.108 8.20697C347.387 8.43097 348.698 8.56046 350.041 8.56046C352.233 8.56046 354.352 8.24864 356.358 7.65702C354.912 5.53683 353.283 4.00455 351.86 2.91357Z" fill="white"/>
<path fill-rule="evenodd" clip-rule="evenodd" d="M346.291 37.2299C345.562 35.9744 344.562 34.1356 343.551 31.8353C341.997 28.3011 340.716 25.3847 340.16 22.2866C337.48 24.924 336.413 28.7573 337.353 32.3703L340.303 43.7229L346.896 37.2336L346.894 37.2299H346.291Z" fill="white"/>
<path fill-rule="evenodd" clip-rule="evenodd" d="M359.548 22.2866C358.992 25.3847 357.711 28.3019 356.158 31.836C355.146 34.1356 354.147 35.9744 353.417 37.2299H352.814L352.812 37.2343L359.405 43.7229L362.355 32.3703C363.295 28.7573 362.228 24.924 359.548 22.2866Z" fill="white"/>
<path fill-rule="evenodd" clip-rule="evenodd" d="M349.854 14.1542C351.197 14.1542 352.29 15.2295 352.29 16.5519C352.29 17.8736 351.197 18.949 349.854 18.949C348.511 18.949 347.418 17.8736 347.418 16.5519C347.418 15.2295 348.511 14.1542 349.854 14.1542ZM349.854 20.5475C352.092 20.5475 353.913 18.7547 353.913 16.5519C353.913 14.3484 352.092 12.5557 349.854 12.5557C347.615 12.5557 345.794 14.3484 345.794 16.5519C345.794 18.7547 347.615 20.5475 349.854 20.5475Z" fill="white"/>
<path fill-rule="evenodd" clip-rule="evenodd" d="M352.431 30.2491C351.925 31.3988 351.367 32.5471 350.774 33.6619C350.565 34.0526 350.719 34.5356 351.116 34.741C351.236 34.8027 351.365 34.8325 351.492 34.8325C351.784 34.8325 352.067 34.677 352.212 34.4046C352.824 33.2548 353.4 32.0701 353.934 30.8556C354.403 29.7884 354.846 28.78 355.242 27.8305C355.413 27.4219 355.214 26.9553 354.799 26.7878C354.385 26.6197 353.909 26.8154 353.739 27.2239C353.349 28.1594 352.909 29.1611 352.431 30.2491Z" fill="white"/>
<path fill-rule="evenodd" clip-rule="evenodd" d="M354.862 26.0689L355.564 26.1902C355.596 26.1954 355.629 26.1984 355.66 26.1984C355.933 26.1984 356.164 26.0071 356.211 25.7437L356.334 25.0531C356.361 24.9087 356.327 24.7628 356.241 24.6423C356.155 24.5217 356.027 24.4414 355.88 24.4161L355.179 24.2948C354.872 24.2427 354.584 24.4466 354.532 24.7413L354.408 25.4319C354.355 25.7303 354.559 26.0161 354.862 26.0689Z" fill="white"/>
<path fill-rule="evenodd" clip-rule="evenodd" d="M349.234 48.9452C349.267 48.9504 349.298 48.9534 349.331 48.9534C349.603 48.9534 349.834 48.7621 349.881 48.4987L350.005 47.8081C350.058 47.5096 349.855 47.2239 349.551 47.171L348.849 47.0497C348.543 46.9991 348.255 47.2023 348.202 47.4962L348.079 48.1868C348.053 48.3312 348.086 48.4771 348.173 48.5976C348.258 48.7182 348.386 48.7986 348.532 48.8239L349.234 48.9452Z" fill="white"/>
<path fill-rule="evenodd" clip-rule="evenodd" d="M345.482 19.6227L344.78 19.5014C344.473 19.4508 344.186 19.6539 344.133 19.9479L344.01 20.6385C343.984 20.7829 344.018 20.9287 344.103 21.0493C344.189 21.1699 344.317 21.2502 344.464 21.2755L345.165 21.3968C345.198 21.402 345.23 21.405 345.262 21.405C345.533 21.405 345.766 21.2138 345.812 20.9503L345.936 20.2597C345.989 19.9613 345.785 19.6755 345.482 19.6227Z" fill="white"/>
<path fill-rule="evenodd" clip-rule="evenodd" d="M343.664 19.2921C343.746 19.2921 343.829 19.2794 343.911 19.2541C344.338 19.1202 344.574 18.6699 344.437 18.2495C344.146 17.349 344.092 16.4069 344.277 15.4491C344.517 14.2152 345.202 13.0796 346.206 12.2521C346.55 11.9693 346.595 11.4647 346.307 11.1269C346.019 10.7875 345.507 10.7436 345.164 11.0272C343.873 12.0898 342.992 13.5544 342.682 15.1492C342.445 16.3719 342.515 17.5782 342.89 18.7354C343.001 19.0755 343.32 19.2921 343.664 19.2921Z" fill="white"/>
<path fill-rule="evenodd" clip-rule="evenodd" d="M370.153 44.5532C369.649 44.5532 369.239 44.9566 369.239 45.4522C369.239 45.9478 369.649 46.3512 370.153 46.3512C370.656 46.3512 371.066 45.9478 371.066 45.4522C371.066 44.9566 370.656 44.5532 370.153 44.5532Z" fill="white"/>
<mask id="mask0" mask-type="alpha" maskUnits="userSpaceOnUse" x="328" y="0" width="44" height="59">
<path fill-rule="evenodd" clip-rule="evenodd" d="M328.019 0.744629H371.689V58.0627H328.019V0.744629Z" fill="white"/>
</mask>
<g mask="url(#mask0)">
<path fill-rule="evenodd" clip-rule="evenodd" d="M340.737 42.166L338.139 32.1723C337.407 29.3541 338.01 26.358 339.713 24.0324C339.937 24.9031 340.216 25.7701 340.531 26.6453C340.544 26.6825 340.557 26.7197 340.57 26.7569C340.66 27.0054 340.754 27.2555 340.85 27.5055C340.87 27.5569 340.889 27.6075 340.908 27.6588C341.01 27.9223 341.115 28.1872 341.224 28.4529C341.23 28.47 341.237 28.4879 341.244 28.505C341.721 29.6793 342.248 30.8834 342.806 32.1522C343.211 33.075 343.645 33.9904 344.103 34.8931C344.262 35.2079 344.428 35.5197 344.593 35.8315C344.656 35.9491 344.716 36.0689 344.779 36.1857C345.013 36.6196 345.254 37.0505 345.499 37.4776L340.737 42.166ZM340.71 17.8929C340.976 13.3898 342.813 9.9807 343.8 8.44916C345.892 9.05047 348.061 9.3593 350.26 9.3593C352.213 9.3593 354.149 9.11447 356.026 8.63595C357.036 10.2471 358.742 13.5647 358.999 17.8929C359.089 19.3939 358.992 20.7855 358.749 22.1459C358.748 22.1467 358.748 22.1467 358.748 22.1474C358.687 22.4882 358.615 22.8261 358.536 23.1632C358.515 23.2547 358.492 23.3463 358.469 23.4378C358.407 23.6879 358.341 23.9387 358.27 24.1887C358.242 24.2877 358.215 24.3867 358.186 24.4856C358.094 24.7974 357.996 25.1093 357.891 25.4233C357.847 25.5543 357.799 25.6867 357.753 25.8185C357.686 26.009 357.619 26.2002 357.548 26.393C357.483 26.5694 357.416 26.7472 357.347 26.9258C357.297 27.0583 357.244 27.1915 357.192 27.3247C356.672 28.6427 356.069 30.0172 355.409 31.5152C355.003 32.4454 354.562 33.3697 354.097 34.2843C353.727 35.0092 353.344 35.7266 352.944 36.4306H352.814C352.805 36.4306 352.796 36.4343 352.787 36.4343H346.921C346.912 36.4343 346.903 36.4306 346.894 36.4306H346.765C346.39 35.7712 346.031 35.0992 345.683 34.4213C345.191 33.4613 344.726 32.4901 344.298 31.5122C343.635 30.0082 343.031 28.6285 342.51 27.3054C342.461 27.1818 342.411 27.0583 342.364 26.9355C342.294 26.7509 342.225 26.5679 342.158 26.3855C342.09 26.2017 342.026 26.0194 341.962 25.8378C341.913 25.6979 341.862 25.5573 341.816 25.4181C341.712 25.1085 341.615 24.8012 341.524 24.4938C341.493 24.3867 341.464 24.2795 341.434 24.1731C341.366 23.9334 341.303 23.6938 341.243 23.4534C341.218 23.353 341.193 23.2525 341.17 23.1521C341.093 22.8201 341.021 22.4867 340.96 22.1504C340.717 20.7885 340.62 19.3954 340.71 17.8929ZM349.854 2.486C351.88 3.76823 353.622 5.35707 355.05 7.22423C351.684 7.98182 348.128 7.92451 344.795 7.062C346.189 5.27149 347.883 3.73549 349.854 2.486ZM359.995 24.0324C361.698 26.358 362.301 29.3541 361.569 32.1723L358.972 42.166L354.209 37.4784C354.455 37.049 354.697 36.6166 354.932 36.1805C354.959 36.1314 354.984 36.0808 355.01 36.0309C355.214 35.6514 355.415 35.2711 355.609 34.8871C356.066 33.9859 356.498 33.0728 356.903 32.1522C357.46 30.8841 357.987 29.6808 358.463 28.5072C358.472 28.4871 358.48 28.467 358.488 28.4469C358.594 28.1842 358.698 27.9223 358.798 27.6618C358.82 27.6067 358.841 27.5517 358.862 27.4959C358.956 27.2503 359.049 27.0047 359.137 26.7599C359.153 26.716 359.168 26.6728 359.184 26.6289C359.495 25.7589 359.772 24.8972 359.995 24.0324ZM338.409 50.0477C337.497 49.6711 336.518 49.4754 335.526 49.4754C331.387 49.4754 328.019 52.79 328.019 56.8637C328.019 56.9827 328.027 57.1003 328.035 57.2172L328.041 57.3117C328.067 57.7359 328.425 58.0626 328.851 58.0626C328.867 58.0626 328.884 58.0626 328.901 58.0611C329.348 58.035 329.689 57.6562 329.662 57.2157L329.655 57.1085C329.649 57.0274 329.643 56.9463 329.643 56.8637C329.643 53.6711 332.283 51.0739 335.526 51.0739C336.606 51.0739 337.668 51.3708 338.598 51.9334C338.837 52.0778 339.133 52.0912 339.384 51.9692C339.634 51.8471 339.804 51.6067 339.832 51.3329C340.155 48.1686 342.656 45.6927 345.794 45.2774V47.2964C345.794 47.7377 346.158 48.0957 346.606 48.0957C347.055 48.0957 347.418 47.7377 347.418 47.2964V38.1288H348.23V45.6205C348.23 46.0618 348.594 46.4198 349.042 46.4198C349.491 46.4198 349.854 46.0618 349.854 45.6205V38.1288H352.29V49.6168C352.29 50.0581 352.653 50.4161 353.102 50.4161C353.55 50.4161 353.914 50.0581 353.914 49.6168V46.9913C354.099 46.9749 354.283 46.9653 354.465 46.9653C356.835 46.9653 359.055 48.2214 360.259 50.2441C360.453 50.5708 360.853 50.7189 361.217 50.5984C361.913 50.3692 362.631 50.2523 363.348 50.2523C367.052 50.2523 370.065 53.2187 370.065 56.8637C370.065 56.9374 370.06 57.0095 370.054 57.0817L370.046 57.2216C370.022 57.6622 370.366 58.038 370.813 58.0618C370.829 58.0626 370.843 58.0626 370.857 58.0626C371.286 58.0626 371.644 57.7321 371.667 57.3057L371.675 57.1904C371.682 57.0825 371.689 56.9738 371.689 56.8637C371.689 52.3368 367.947 48.6546 363.348 48.6546C362.665 48.6546 361.984 48.7387 361.315 48.9054C359.765 46.7078 357.195 45.3667 354.465 45.3667C354.284 45.3667 354.099 45.3801 353.914 45.3928V39.4482L358.832 44.2877C358.985 44.4395 359.193 44.5221 359.405 44.5221C359.477 44.5221 359.549 44.5124 359.619 44.4931C359.901 44.4172 360.12 44.1991 360.192 43.9208L363.142 32.5682C364.113 28.8339 363.063 24.8339 360.407 22.0209C360.622 20.6732 360.709 19.2838 360.62 17.7999C360.313 12.6174 358.075 8.76396 357.077 7.28451C357.063 7.25921 357.049 7.2354 357.033 7.21158C355.275 4.63298 353.002 2.49642 350.277 0.860699C350.018 0.705164 349.69 0.705164 349.431 0.861443C346.779 2.45623 344.566 4.51689 342.847 6.98535C342.81 7.02703 342.777 7.07168 342.749 7.12154L342.701 7.18554C342.693 7.19596 342.684 7.20786 342.677 7.21903C341.701 8.64786 339.4 12.5377 339.089 17.7991C339 19.2838 339.087 20.6724 339.302 22.0209C336.646 24.8332 335.595 28.8332 336.566 32.5682L339.516 43.9208C339.589 44.1991 339.807 44.4172 340.089 44.4931C340.16 44.5124 340.232 44.5221 340.303 44.5221C340.516 44.5221 340.723 44.4395 340.877 44.2877L345.794 39.4475V43.6641C342.201 44.0473 339.246 46.6177 338.409 50.0477Z" fill="white"/>
</g>
<path fill-rule="evenodd" clip-rule="evenodd" d="M340.133 57.2624C340.106 57.7029 340.448 58.081 340.896 58.1063C341.34 58.1308 341.727 57.796 341.754 57.3554C341.941 54.1926 344.607 51.7145 347.825 51.7145C349.744 51.7145 351.514 52.5852 352.679 54.1026C352.881 54.3653 353.226 54.4791 353.548 54.3898C356.82 53.4797 360.222 54.9279 361.86 57.7096C362.01 57.9649 362.283 58.1085 362.563 58.1085C362.701 58.1085 362.841 58.0735 362.969 58.0006C363.357 57.7788 363.489 57.2899 363.265 56.9081C361.351 53.6568 357.447 51.8931 353.631 52.7213C352.163 51.0596 350.075 50.1167 347.825 50.1167C343.748 50.1167 340.37 53.2549 340.133 57.2624Z" fill="white"/>
<path fill-rule="evenodd" clip-rule="evenodd" d="M367.596 36.5806H369.34V43.1823C369.34 43.6236 369.704 43.9815 370.152 43.9815C370.601 43.9815 370.965 43.6236 370.965 43.1823V36.4608C370.965 35.6452 370.29 34.9821 369.462 34.9821H367.846L372.924 28.6126L378.003 34.9821H376.526C375.698 34.9821 375.024 35.6452 375.024 36.4608V50.6695C375.024 51.1108 375.388 51.4681 375.836 51.4681C376.284 51.4681 376.648 51.1108 376.648 50.6695V36.5806H378.253C378.832 36.5806 379.35 36.2621 379.604 35.7486C379.858 35.2359 379.793 34.6383 379.434 34.1888L374.106 27.506C373.82 27.1466 373.389 26.9404 372.924 26.9404C372.46 26.9404 372.029 27.1466 371.743 27.506L366.414 34.1888C366.057 34.6383 365.992 35.2359 366.246 35.7486C366.499 36.2621 367.016 36.5806 367.596 36.5806Z" fill="white"/>
<path fill-rule="evenodd" clip-rule="evenodd" d="M331.281 40.5264C331.281 40.0308 330.871 39.6274 330.367 39.6274C329.864 39.6274 329.454 40.0308 329.454 40.5264C329.454 41.022 329.864 41.4254 330.367 41.4254C330.871 41.4254 331.281 41.022 331.281 40.5264Z" fill="white"/>
<path fill-rule="evenodd" clip-rule="evenodd" d="M322.267 19.7984H323.871V49.612C323.871 50.0533 324.235 50.4112 324.683 50.4112C325.132 50.4112 325.495 50.0533 325.495 49.612V19.6786C325.495 18.8629 324.822 18.1999 323.993 18.1999H322.516L327.595 11.8311L332.673 18.1999H331.057C330.229 18.1999 329.555 18.8629 329.555 19.6786V38.2557C329.555 38.6977 329.919 39.0549 330.367 39.0549C330.815 39.0549 331.179 38.6977 331.179 38.2557V19.7984H332.923C333.503 19.7984 334.02 19.4799 334.274 18.9664C334.528 18.4536 334.463 17.8561 334.105 17.4066L328.777 10.7238C328.49 10.3643 328.059 10.1582 327.595 10.1582C327.131 10.1582 326.7 10.3643 326.413 10.7238L321.085 17.4073C320.727 17.8561 320.662 18.4536 320.916 18.9664C321.17 19.4799 321.687 19.7984 322.267 19.7984Z" fill="white"/>
<path fill-rule="evenodd" clip-rule="evenodd" d="M370.965 62.0034C370.461 62.0034 370.051 62.4068 370.051 62.9024C370.051 63.398 370.461 63.8014 370.965 63.8014C371.468 63.8014 371.878 63.398 371.878 62.9024C371.878 62.4068 371.468 62.0034 370.965 62.0034Z" fill="white"/>
<path fill-rule="evenodd" clip-rule="evenodd" d="M368.529 62.1035H327.12C326.671 62.1035 326.308 62.4615 326.308 62.9028C326.308 63.3441 326.671 63.702 327.12 63.702H368.529C368.977 63.702 369.341 63.3441 369.341 62.9028C369.341 62.4615 368.977 62.1035 368.529 62.1035Z" fill="white"/>
<mask id="mask1" mask-type="alpha" maskUnits="userSpaceOnUse" x="319" y="58" width="62" height="3">
<path fill-rule="evenodd" clip-rule="evenodd" d="M319 58.9067H380.708V60.5053H319V58.9067Z" fill="white"/>
</mask>
<g mask="url(#mask1)">
<path fill-rule="evenodd" clip-rule="evenodd" d="M379.896 58.9067H319.812C319.364 58.9067 319 59.2647 319 59.706C319 60.1473 319.364 60.5053 319.812 60.5053H379.896C380.344 60.5053 380.708 60.1473 380.708 59.706C380.708 59.2647 380.344 58.9067 379.896 58.9067Z" fill="white"/>
</g>
<path fill-rule="evenodd" clip-rule="evenodd" d="M82.7832 59.9582H127.004C127.004 59.9582 132.412 58.2756 132.412 53.6785C132.412 49.082 129.996 46.9233 129.996 46.9233V51.0388C129.996 54.6308 127.049 57.5426 123.413 57.5426H82.9842L82.7832 59.9582Z" fill="white"/>
<path fill-rule="evenodd" clip-rule="evenodd" d="M105.988 52.0635H109.874V45.9761H105.988C104.286 45.9761 102.906 47.3386 102.906 49.0198C102.906 50.6995 104.285 52.0635 105.988 52.0635Z" fill="white"/>
<mask id="mask2" mask-type="alpha" maskUnits="userSpaceOnUse" x="82" y="6" width="52" height="59">
<path fill-rule="evenodd" clip-rule="evenodd" d="M82 64.4685H133.493V6.69434H82V64.4685Z" fill="white"/>
</mask>
<g mask="url(#mask2)">
<path fill-rule="evenodd" clip-rule="evenodd" d="M109.999 52.1875H114.602V45.8516H109.999V52.1875Z" fill="white"/>
<path fill-rule="evenodd" clip-rule="evenodd" d="M125.353 64.4585H84.9987C83.9637 64.4585 83.963 62.9106 84.9987 62.9106H125.353C126.388 62.9106 126.389 64.4585 125.353 64.4585Z" fill="white"/>
<path fill-rule="evenodd" clip-rule="evenodd" d="M124.908 60.7315H82.7833C82.3511 60.7315 82.0005 60.3852 82.0005 59.9576V14.9566C82.0005 14.5297 82.3511 14.1826 82.7833 14.1826H114.477C115.512 14.1826 115.513 15.7305 114.477 15.7305H83.5668V59.1837H124.908C125.34 59.1837 125.691 59.5307 125.691 59.9576C125.691 60.3852 125.34 60.7315 124.908 60.7315Z" fill="white"/>
<path fill-rule="evenodd" clip-rule="evenodd" d="M125.167 64.4686C124.734 64.4686 124.384 64.1223 124.384 63.6947C124.384 62.2273 126.353 63.7225 129.836 61.5631C130.712 61.0182 131.547 62.3287 130.669 62.8729C128.986 63.9168 127.084 64.4686 125.167 64.4686Z" fill="white"/>
<path fill-rule="evenodd" clip-rule="evenodd" d="M125.167 60.719C124.734 60.719 124.384 60.3726 124.384 59.9451C124.384 59.5182 124.734 59.1711 125.167 59.1711C128.894 59.1711 131.926 56.176 131.926 52.4944C131.926 48.8128 128.894 45.8177 125.167 45.8177C121.44 45.8177 118.407 48.8128 118.407 52.4944C118.407 53.5168 116.841 53.5182 116.841 52.4944C116.841 47.9597 120.576 44.2705 125.167 44.2705C129.758 44.2705 133.493 47.9597 133.493 52.4944C133.493 57.0298 129.758 60.719 125.167 60.719Z" fill="white"/>
<path fill-rule="evenodd" clip-rule="evenodd" d="M116.841 52.1257V14.9182C116.841 10.3836 120.576 6.69434 125.167 6.69434C129.759 6.69434 133.493 10.3836 133.493 14.9182V51.4795C133.493 52.5019 131.926 52.5033 131.926 51.4795V14.9182C131.926 11.2373 128.894 8.24152 125.167 8.24152C121.44 8.24152 118.408 11.2373 118.408 14.9182V52.1257C118.408 53.1482 116.841 53.1496 116.841 52.1257Z" fill="white"/>
<path fill-rule="evenodd" clip-rule="evenodd" d="M120.482 33.3665V12.9011C120.482 11.8794 122.049 11.878 122.049 12.9011V33.3665C122.049 34.3889 120.482 34.3903 120.482 33.3665Z" fill="white"/>
<path fill-rule="evenodd" clip-rule="evenodd" d="M121.351 36.7997C120.32 36.7997 120.319 35.2588 121.351 35.2588C122.382 35.2588 122.383 36.7997 121.351 36.7997Z" fill="white"/>
<path fill-rule="evenodd" clip-rule="evenodd" d="M132.418 61.2973C131.387 61.2973 131.386 59.7563 132.418 59.7563C133.449 59.7563 133.45 61.2973 132.418 61.2973Z" fill="white"/>
<path fill-rule="evenodd" clip-rule="evenodd" d="M88.1037 20.0247V44.0654L112.442 20.0247H88.1037ZM87.0602 46.5538C86.3863 46.2776 86.5943 47.7949 86.5943 19.2792C86.5943 18.8676 86.9323 18.5337 87.349 18.5337H114.263C114.934 18.5337 115.271 19.3375 114.797 19.806L87.8823 46.3921C87.6673 46.6052 87.3433 46.6691 87.0602 46.5538Z" fill="white"/>
<path fill-rule="evenodd" clip-rule="evenodd" d="M92.6078 24.3513V33.8954L102.27 24.3513H92.6078ZM91.5643 36.3832C90.9199 36.1194 91.0984 36.5775 91.0984 23.6058C91.0984 23.1942 91.4364 22.8604 91.8531 22.8604H104.091C104.762 22.8604 105.1 23.6641 104.625 24.1327C91.4322 37.1647 92.2276 36.6546 91.5643 36.3832Z" fill="white"/>
<path fill-rule="evenodd" clip-rule="evenodd" d="M91.4238 21.068V19.4424C91.4238 18.4574 92.9332 18.456 92.9332 19.4424V21.068C92.9332 22.0529 91.4238 22.0543 91.4238 21.068Z" fill="white"/>
<path fill-rule="evenodd" clip-rule="evenodd" d="M96.1807 21.068V19.4424C96.1807 18.4574 97.6901 18.456 97.6901 19.4424V21.068C97.6901 22.0529 96.1807 22.0543 96.1807 21.068Z" fill="white"/>
<path fill-rule="evenodd" clip-rule="evenodd" d="M100.938 21.068V19.4424C100.938 18.4574 102.447 18.456 102.447 19.4424V21.068C102.447 22.0529 100.938 22.0543 100.938 21.068Z" fill="white"/>
<path fill-rule="evenodd" clip-rule="evenodd" d="M105.694 21.068V19.4424C105.694 18.4574 107.204 18.456 107.204 19.4424V21.068C107.204 22.0529 105.694 22.0543 105.694 21.068Z" fill="white"/>
<path fill-rule="evenodd" clip-rule="evenodd" d="M90.2373 48.5389L93.3088 51.5729L111.738 33.3689L108.666 30.335L90.2373 48.5389Z" fill="white"/>
<path fill-rule="evenodd" clip-rule="evenodd" d="M91.3831 48.6166L93.3872 50.5962L110.75 33.4466L108.745 31.4663L91.3831 48.6166ZM92.8539 52.1774L89.7823 49.1434C89.4879 48.8526 89.4879 48.3806 89.7823 48.0897L108.212 29.8851C108.507 29.5943 108.984 29.5943 109.279 29.8851L112.35 32.9191C112.645 33.2106 112.645 33.6819 112.35 33.9735L93.9213 52.1774C93.6261 52.4689 93.149 52.4689 92.8539 52.1774Z" fill="white"/>
<path fill-rule="evenodd" clip-rule="evenodd" d="M89.8474 50.1334L91.8516 52.113L92.3203 51.65L90.3162 49.6704L89.8474 50.1334ZM91.3182 53.6942L88.2467 50.6602C87.9523 50.3694 87.9523 49.8974 88.2467 49.6066L89.7828 48.0892C90.0772 47.7984 90.5551 47.7984 90.8495 48.0892L93.921 51.1232C94.2162 51.4147 94.2162 51.886 93.921 52.1776L92.3856 53.6942C92.0905 53.9857 91.6134 53.9857 91.3182 53.6942Z" fill="white"/>
<path fill-rule="evenodd" clip-rule="evenodd" d="M110.088 30.6845L111.541 32.1199L112.51 29.728L110.088 30.6845ZM111.284 33.9732C108.022 30.7518 107.896 30.7935 108.006 30.2625C108.116 29.7349 108.06 29.88 113.584 27.6977C114.204 27.4554 114.81 28.0621 114.565 28.6667C112.368 34.0912 112.513 34.0662 111.969 34.1766C111.714 34.228 111.459 34.1467 111.284 33.9732Z" fill="white"/>
<path fill-rule="evenodd" clip-rule="evenodd" d="M112.883 28.3057L114.707 26.5038C115.411 25.8076 116.48 26.8606 115.773 27.5582L113.95 29.3601C113.245 30.0563 112.177 29.0033 112.883 28.3057Z" fill="white"/>
<path fill-rule="evenodd" clip-rule="evenodd" d="M105.403 46.812C104.118 46.812 103.073 47.8442 103.073 49.113C103.073 50.3819 104.118 51.414 105.403 51.414H113.957V46.812H105.403ZM114.741 52.9612H105.403C103.254 52.9612 101.507 51.235 101.507 49.113C101.507 46.9904 103.254 45.2642 105.403 45.2642H114.741C115.174 45.2642 115.524 45.6112 115.524 46.0381V52.188C115.524 52.6149 115.174 52.9612 114.741 52.9612Z" fill="white"/>
<path fill-rule="evenodd" clip-rule="evenodd" d="M109.393 51.6286V46.4109C109.393 45.3885 110.96 45.3871 110.96 46.4109V51.6286C110.96 52.651 109.393 52.6524 109.393 51.6286Z" fill="white"/>
</g>
<g clip-path="url(#clip0)">
<path d="M22.2478 146.474C22.7106 146.474 23.0859 146.097 23.0859 145.632C23.0859 145.167 22.7106 144.79 22.2478 144.79C21.7849 144.79 21.4097 145.167 21.4097 145.632C21.4097 146.097 21.7849 146.474 22.2478 146.474Z" fill="white"/>
<path d="M32.6096 137.44C32.1524 137.44 31.7715 137.057 31.7715 136.598V100.311C31.7715 99.8515 32.1524 99.4688 32.6096 99.4688C33.0667 99.4688 33.4477 99.8515 33.4477 100.311V136.598C33.4477 137.057 33.0667 137.44 32.6096 137.44Z" fill="white"/>
<path d="M38.1715 143.029C34.6667 143.029 31.7715 140.12 31.7715 136.598C31.7715 136.139 32.1524 135.756 32.6096 135.756C33.0667 135.756 33.4477 136.139 33.4477 136.598C33.4477 139.201 35.581 141.344 38.1715 141.344C40.5334 141.344 42.5905 139.584 42.8953 137.211C42.8953 136.981 43.0477 136.751 43.2762 136.675C43.4286 136.522 43.7334 136.522 43.962 136.522C44.4191 136.598 44.8001 136.675 45.181 136.675C48.0762 136.675 50.362 134.301 50.362 131.469C50.362 131.163 50.362 130.856 50.2858 130.474C50.2096 130.091 50.4381 129.708 50.7429 129.555C53.3334 128.407 55.0096 125.88 55.0096 123.048C55.0096 120.751 53.8667 118.531 51.962 117.23C51.7334 117.077 51.6572 116.847 51.581 116.617C51.581 116.388 51.6572 116.081 51.8858 115.928C53.2572 114.856 54.0953 113.172 54.0953 111.411C54.0953 109.191 52.8001 107.201 50.8191 106.282C50.5143 106.129 50.362 105.823 50.362 105.44C50.362 105.211 50.362 105.057 50.362 104.904C50.362 101.995 48.1524 99.5454 45.2572 99.2392C44.9524 99.2392 44.6477 99.0096 44.5715 98.6268C43.8858 96.177 41.6001 94.4928 39.162 94.4928C36.0382 94.4928 33.5239 97.0191 33.5239 100.158C33.5239 100.617 33.1429 101 32.6858 101C32.2286 101 31.8477 100.617 31.8477 100.158C31.8477 96.1005 35.1239 92.8086 39.162 92.8086C42.2096 92.8086 44.9524 94.7225 46.0191 97.555C49.5239 98.1674 52.0382 101.153 52.0382 104.751C52.0382 104.828 52.0382 104.828 52.0382 104.904C54.3239 106.206 55.7715 108.655 55.7715 111.258C55.7715 113.172 55.0096 115.01 53.7143 116.311C55.6191 117.995 56.6858 120.368 56.6858 122.895C56.6858 126.187 54.8572 129.096 52.0382 130.627C52.0382 130.856 52.0382 131.086 52.0382 131.239C52.0382 134.99 48.9905 138.129 45.181 138.129C44.8762 138.129 44.6477 138.129 44.3429 138.053C43.581 141.038 41.0667 143.029 38.1715 143.029Z" fill="white"/>
<path d="M38.1715 106.665C34.6667 106.665 31.8477 103.832 31.8477 100.311C31.8477 99.8515 32.2286 99.4688 32.6858 99.4688C33.1429 99.4688 33.5238 99.8515 33.5238 100.311C33.5238 102.914 35.6572 105.057 38.2477 105.057C39.4667 105.057 40.6096 104.598 41.5238 103.756C41.8286 103.45 42.3619 103.45 42.6667 103.756C42.9715 104.062 42.9715 104.598 42.6667 104.904C41.2953 106.052 39.7715 106.665 38.1715 106.665Z" fill="white"/>
<path d="M42.362 141.115C42.1334 141.115 41.9811 141.038 41.7525 140.885C41.4477 140.579 41.4477 140.043 41.7525 139.737C43.3525 138.129 43.3525 135.526 41.7525 133.995C41.4477 133.689 41.4477 133.153 41.7525 132.847C42.0573 132.541 42.5906 132.541 42.8954 132.847C45.1049 135.067 45.1049 138.665 42.8954 140.885C42.743 141.038 42.5144 141.115 42.362 141.115Z" fill="white"/>
<path d="M32.6096 131.622C32.1524 131.622 31.7715 131.239 31.7715 130.78C31.7715 128.254 33.7524 126.263 36.2667 126.263C37.7905 126.263 39.162 127.029 40.0001 128.254C40.2286 128.636 40.1524 129.096 39.7715 129.402C39.3905 129.632 38.9334 129.555 38.6286 129.172C38.0953 128.407 37.181 127.871 36.2667 127.871C34.6667 127.871 33.3715 129.172 33.3715 130.78C33.4477 131.316 33.0667 131.622 32.6096 131.622Z" fill="white"/>
<path d="M37.3332 117.995C36.8761 117.995 36.4951 117.613 36.4951 117.153C36.4951 116.694 36.8761 116.311 37.3332 116.311C39.1618 116.311 40.6094 114.857 40.6094 113.019C40.6094 112.56 40.9904 112.177 41.4475 112.177C41.9046 112.177 42.2856 112.56 42.2856 113.019C42.2094 115.775 40.0761 117.995 37.3332 117.995Z" fill="white"/>
<path d="M54.4762 119.527C54.2476 119.527 53.9428 119.373 53.7905 119.144C52.9524 117.842 51.6571 117 50.1333 116.694C48.6095 116.388 47.1619 116.694 45.8666 117.536C45.4857 117.766 45.0285 117.689 44.7238 117.306C44.4952 116.924 44.5714 116.464 44.9524 116.158C46.5524 115.086 48.5333 114.704 50.4381 115.01C52.3428 115.393 54.019 116.464 55.0857 118.149C55.3143 118.531 55.2381 118.991 54.8571 119.297C54.7809 119.45 54.6285 119.527 54.4762 119.527Z" fill="white"/>
<path d="M49.295 131.469C49.0665 131.469 48.7617 131.469 48.5331 131.392C47.3141 131.239 46.3998 130.627 45.8665 130.244C45.4855 129.938 45.4855 129.478 45.7141 129.095C46.0189 128.713 46.476 128.713 46.857 128.942C47.2379 129.249 47.8474 129.631 48.7617 129.784C49.9046 129.938 50.8189 129.555 51.276 129.325C51.657 129.095 52.1903 129.249 52.4189 129.631C52.6474 130.014 52.4951 130.55 52.1141 130.78C51.5808 131.086 50.5903 131.469 49.295 131.469Z" fill="white"/>
<path d="M46.3236 124.043C46.1712 124.043 46.095 124.043 45.9426 123.966C45.5617 123.737 45.3331 123.277 45.5617 122.895C45.6379 122.665 46.5521 120.674 45.5617 118.837C44.5712 117.153 42.4379 116.311 40.3045 116.923C39.8474 117 39.3902 116.77 39.3141 116.311C39.1617 115.851 39.4664 115.392 39.9236 115.316C42.7426 114.55 45.6379 115.698 47.0093 118.072C48.4569 120.598 47.2379 123.354 47.0855 123.66C46.9331 123.813 46.6283 124.043 46.3236 124.043Z" fill="white"/>
<path d="M46.8571 110.416C46.4762 110.416 46.0952 110.11 46.0191 109.727C45.9429 109.344 45.7905 107.507 47.1619 106.052C48.3048 104.904 49.981 104.521 51.581 105.057C52.0381 105.21 52.1905 105.67 52.1143 106.129C51.9619 106.588 51.5048 106.741 51.0476 106.665C50.0572 106.359 48.9905 106.588 48.3048 107.277C47.3905 108.196 47.6191 109.421 47.6191 109.497C47.6952 109.957 47.3905 110.34 46.9333 110.416H46.8571Z" fill="white"/>
<path d="M32.6096 90.0526C32.1524 90.0526 31.7715 89.6699 31.7715 89.2105L31.8477 85.7656C31.8477 85.3062 32.2286 85 32.6858 85C33.1429 85 33.5239 85.3828 33.4477 85.8421L33.3715 89.2871C33.4477 89.7464 33.0667 90.0526 32.6096 90.0526Z" fill="white"/>
<path d="M60.9524 132.771C60.8 132.771 60.7238 132.771 60.5715 132.694L57.4476 131.163C57.0667 130.933 56.9143 130.474 57.0667 130.091C57.2953 129.708 57.7524 129.479 58.1334 129.708L61.2572 131.239C61.6381 131.469 61.7905 131.928 61.6381 132.311C61.4857 132.617 61.2572 132.771 60.9524 132.771Z" fill="white"/>
<path d="M47.0094 94.1866C46.857 94.1866 46.7047 94.1866 46.6285 94.0335C46.2475 93.8038 46.0951 93.2679 46.3237 92.8851L48.0761 89.8995C48.3047 89.5167 48.838 89.3636 49.2189 89.5933C49.5999 89.8229 49.7523 90.3588 49.5237 90.7416L47.7713 93.7272C47.5427 94.0335 47.238 94.1866 47.0094 94.1866Z" fill="white"/>
<path d="M57.3712 104.981C57.0665 104.981 56.8379 104.828 56.6855 104.598C56.4569 104.215 56.6093 103.68 56.9903 103.526L59.9617 101.842C60.3427 101.613 60.876 101.766 61.0284 102.149C61.2569 102.531 61.1046 103.067 60.7236 103.22L57.7522 104.904C57.676 104.904 57.5236 104.981 57.3712 104.981Z" fill="white"/>
<path d="M63.1621 118.684L59.7336 118.608C59.2764 118.608 58.8955 118.225 58.9717 117.766C58.9717 117.306 59.3526 117 59.8098 117L63.2383 117.077C63.6955 117.077 64.0764 117.459 64.0002 117.919C64.0002 118.301 63.6193 118.684 63.1621 118.684Z" fill="white"/>
<path d="M18.2096 94.1867C17.9048 94.1867 17.6762 94.0336 17.5238 93.8039L15.7715 90.8182C15.5429 90.4355 15.6953 89.8996 16.0762 89.6699C16.4572 89.4403 16.9905 89.5934 17.2191 89.9761L18.9715 92.9618C19.2 93.3446 19.0476 93.8804 18.6667 94.1101C18.5143 94.1867 18.3619 94.1867 18.2096 94.1867Z" fill="white"/>
<path d="M7.84754 104.981C7.69516 104.981 7.54278 104.981 7.46659 104.904L4.49516 103.22C4.11421 102.991 3.96183 102.531 4.1904 102.149C4.41897 101.766 4.87612 101.613 5.25707 101.842L8.2285 103.526C8.60945 103.756 8.76183 104.215 8.53326 104.598C8.38088 104.828 8.15231 104.981 7.84754 104.981Z" fill="white"/>
<path d="M27.0474 143.029C25.676 143.029 24.4569 142.646 23.3902 141.804C23.0093 141.574 22.9331 141.038 23.2379 140.655C23.4664 140.273 23.9998 140.196 24.3807 140.502C25.2188 141.115 26.1331 141.421 27.1236 141.421C29.714 141.421 31.8474 139.277 31.8474 136.675C31.8474 136.215 32.2283 135.833 32.6855 135.833C33.1426 135.833 33.5236 136.215 33.5236 136.675C33.3712 140.12 30.5521 143.029 27.0474 143.029Z" fill="white"/>
<path d="M9.3713 123.966C8.91416 123.966 8.5332 123.584 8.5332 123.124C8.5332 120.598 9.59987 118.225 11.5046 116.54C10.2094 115.162 9.44749 113.402 9.44749 111.488C9.44749 108.885 10.8951 106.435 13.1808 105.134C13.1808 105.057 13.1808 105.057 13.1808 104.981C13.1808 101.383 15.7713 98.3969 19.1999 97.7845C20.2665 94.952 23.0094 93.0381 26.057 93.0381C30.0951 93.0381 33.3713 96.33 33.3713 100.387C33.3713 100.847 32.9904 101.229 32.5332 101.229C32.0761 101.229 31.6951 100.847 31.6951 100.387C31.6951 97.2486 29.1808 94.7223 26.057 94.7223C23.5427 94.7223 21.3332 96.4065 20.6475 98.8563C20.5713 99.1625 20.2665 99.3922 19.9618 99.4687C17.0665 99.7749 14.857 102.225 14.857 105.134C14.857 105.287 14.857 105.517 14.857 105.67C14.857 105.976 14.7046 106.359 14.3999 106.512C12.4189 107.43 11.1237 109.497 11.1237 111.641C11.1237 113.402 11.8856 115.009 13.3332 116.158C13.5618 116.311 13.638 116.54 13.638 116.847C13.638 117.076 13.4856 117.383 13.257 117.459C11.3523 118.761 10.2094 120.981 10.2094 123.277C10.2094 123.584 9.82844 123.966 9.3713 123.966Z" fill="white"/>
<path d="M14.4764 144.177C14.4764 144.177 14.4002 144.177 14.4764 144.177L11.8097 143.947C11.505 143.947 11.2002 143.641 11.124 143.335L10.5907 141.344C10.2859 141.191 9.98117 141.038 9.67641 140.885L7.77165 141.574C7.46689 141.727 7.08593 141.574 6.85736 141.344L5.18117 139.354C4.9526 139.124 4.9526 138.742 5.10498 138.435L6.17165 136.675C6.01927 136.368 5.94308 135.986 5.86689 135.679L4.03832 134.837C3.73355 134.684 3.50498 134.378 3.58117 133.995L3.80974 131.392C3.80974 131.086 4.11451 130.78 4.41927 130.703L6.40022 130.167C6.5526 129.861 6.70498 129.555 6.85736 129.249L6.09546 127.182C5.94308 126.875 6.09546 126.493 6.32403 126.263L8.30498 124.579C8.53355 124.349 8.91451 124.349 9.21927 124.502L10.9716 125.574C11.2764 125.421 11.6574 125.344 11.9621 125.268L12.8002 123.431C12.9526 123.124 13.2574 122.971 13.6383 122.971L16.2288 123.201C16.5336 123.201 16.8383 123.507 16.9145 123.813L17.4478 125.804C17.7526 125.957 18.0574 126.11 18.3621 126.263L20.2669 125.574C20.5716 125.421 20.9526 125.574 21.1812 125.804L22.8574 127.794C23.0859 128.024 23.0859 128.407 22.9336 128.713L21.8669 130.474C22.0193 130.78 22.0955 131.163 22.1716 131.469L24.0002 132.311C24.305 132.464 24.5336 132.77 24.4574 133.153L24.3812 135.832C24.3812 136.139 24.0764 136.445 23.7716 136.521L21.7907 137.057C21.6383 137.364 21.4859 137.67 21.3336 137.976L22.0193 139.89C22.1716 140.196 22.0193 140.579 21.7907 140.809L19.8097 142.493C19.5812 142.722 19.2002 142.722 18.8955 142.569L17.1431 141.498C16.8383 141.651 16.4574 141.727 16.1526 141.804L15.2383 143.718C15.0859 144.024 14.7812 144.177 14.4764 144.177ZM12.4955 142.34L13.9431 142.493L14.705 140.809C14.7812 140.579 15.0097 140.426 15.3145 140.349C15.8478 140.273 16.305 140.12 16.7621 139.89C16.9907 139.813 17.2955 139.813 17.524 139.966L19.124 140.962L20.2669 140.043L19.5812 138.282C19.505 138.053 19.505 137.746 19.6574 137.517C19.9621 137.057 20.1907 136.675 20.3431 136.139C20.4193 135.909 20.6478 135.679 20.8764 135.679L22.705 135.22L22.8574 133.765L21.1812 133C20.9526 132.923 20.8002 132.694 20.724 132.387C20.6478 131.852 20.4955 131.392 20.2669 130.933C20.1907 130.703 20.1907 130.397 20.3431 130.167L21.3336 128.56L20.4193 127.411L18.6669 128.1C18.4383 128.177 18.1336 128.177 17.905 128.024C17.4478 127.718 16.9907 127.488 16.5336 127.335C16.305 127.258 16.0764 127.029 16.0764 126.799L15.6193 124.962L14.1716 124.809L13.4097 126.493C13.3336 126.722 13.105 126.876 12.8002 126.952C12.2669 127.029 11.8097 127.182 11.3526 127.411C11.124 127.488 10.8193 127.488 10.5907 127.335L8.9907 126.34L7.84784 127.258L8.53355 129.019C8.60974 129.249 8.60974 129.555 8.45736 129.785C8.1526 130.244 7.92403 130.703 7.77165 131.163C7.69546 131.392 7.46689 131.622 7.23832 131.622L5.40974 132.081L5.25736 133.536L6.93355 134.301C7.16213 134.378 7.31451 134.608 7.3907 134.914C7.46689 135.45 7.61927 135.909 7.84784 136.368C7.92403 136.598 7.92403 136.904 7.77165 137.134L6.78117 138.742L7.69546 139.89L9.44784 139.201C9.67641 139.124 9.98117 139.124 10.2097 139.277C10.6669 139.584 11.0478 139.813 11.5812 139.966C11.8097 140.043 12.0383 140.273 12.0383 140.502L12.4955 142.34ZM14.0955 137.899C13.9431 137.899 13.7907 137.899 13.7145 137.899C12.5716 137.823 11.505 137.21 10.7431 136.368C9.98117 135.45 9.67641 134.301 9.7526 133.153C9.98117 130.78 12.1145 128.942 14.4764 129.172C15.6193 129.249 16.6859 129.861 17.4478 130.703C18.2097 131.622 18.5145 132.77 18.4383 133.919C18.3621 135.067 17.7526 136.139 16.9145 136.904C16.0764 137.593 15.0859 137.899 14.0955 137.899ZM14.0955 130.78C12.724 130.78 11.505 131.852 11.3526 133.306C11.2764 134.072 11.505 134.761 11.9621 135.297C12.4193 135.832 13.105 136.215 13.7907 136.292C14.5526 136.368 15.2383 136.139 15.7716 135.679C16.305 135.22 16.6859 134.531 16.7621 133.842C16.8383 133.076 16.6097 132.387 16.1526 131.852C15.6955 131.316 15.0097 130.933 14.324 130.856C14.2478 130.78 14.1716 130.78 14.0955 130.78Z" fill="white"/>
<path d="M26.8952 103.22C26.6667 103.22 26.5143 103.143 26.2857 102.99C25.9809 102.684 25.9809 102.148 26.2857 101.842L31.3143 96.7892C31.619 96.483 32.1524 96.483 32.4571 96.7892C32.7619 97.0955 32.7619 97.6313 32.4571 97.9376L27.4286 102.99C27.2762 103.143 27.1238 103.22 26.8952 103.22Z" fill="white"/>
<path d="M25.0666 106.818C24.3047 106.818 23.5428 106.512 23.0095 105.976C21.8666 104.828 21.8666 102.99 23.0095 101.842C23.5428 101.306 24.3047 101 25.0666 101C25.8285 101 26.5904 101.306 27.1238 101.842C27.6571 102.378 27.9619 103.144 27.9619 103.909C27.9619 104.675 27.6571 105.44 27.1238 105.976C26.5904 106.512 25.8285 106.818 25.0666 106.818ZM25.0666 102.608C24.6857 102.608 24.3809 102.761 24.1523 102.99C23.619 103.526 23.619 104.292 24.1523 104.828C24.6857 105.364 25.4476 105.364 25.9809 104.828C26.2095 104.598 26.3619 104.292 26.3619 103.909C26.3619 103.526 26.2095 103.22 25.9809 102.99C25.7523 102.761 25.3714 102.608 25.0666 102.608Z" fill="white"/>
<path d="M32.686 130.933H29.7907C29.3336 130.933 28.9526 130.627 28.9526 130.167C28.9526 129.708 29.3336 129.325 29.7907 129.325H32.686C33.1431 129.325 33.5241 129.708 33.5241 130.167C33.5241 130.627 33.1431 130.933 32.686 130.933Z" fill="white"/>
<path d="M27.4284 132.847C25.8284 132.847 24.5332 131.546 24.5332 129.938C24.5332 128.33 25.8284 127.029 27.4284 127.029C29.0284 127.029 30.3237 128.33 30.3237 129.938C30.3237 131.546 29.0284 132.847 27.4284 132.847ZM27.4284 128.636C26.7427 128.636 26.1332 129.249 26.1332 129.938C26.1332 130.627 26.7427 131.239 27.4284 131.239C28.1142 131.239 28.7237 130.627 28.7237 129.938C28.7237 129.172 28.1903 128.636 27.4284 128.636Z" fill="white"/>
<path d="M20.2668 113.784C18.6668 113.784 17.3716 112.483 17.3716 110.875C17.3716 109.268 18.6668 107.966 20.2668 107.966C21.8668 107.966 23.1621 109.268 23.1621 110.875C23.1621 112.483 21.8668 113.784 20.2668 113.784ZM20.2668 109.497C19.5811 109.497 18.9716 110.11 18.9716 110.799C18.9716 111.488 19.5811 112.1 20.2668 112.1C20.9525 112.1 21.5621 111.488 21.5621 110.799C21.5621 110.11 21.0287 109.497 20.2668 109.497Z" fill="white"/>
<path d="M27.1238 117.995C25.5238 117.995 24.2285 116.694 24.2285 115.086C24.2285 113.479 25.5238 112.177 27.1238 112.177C28.7238 112.177 30.019 113.479 30.019 115.086C30.019 116.694 28.7238 117.995 27.1238 117.995ZM27.1238 113.785C26.438 113.785 25.8285 114.397 25.8285 115.086C25.8285 115.775 26.438 116.388 27.1238 116.388C27.8095 116.388 28.419 115.775 28.419 115.086C28.419 114.321 27.8095 113.785 27.1238 113.785Z" fill="white"/>
<path d="M18.514 110.11C18.3617 110.11 18.1331 110.033 17.9807 109.957L13.5617 106.282C13.1807 105.976 13.1807 105.517 13.4855 105.134C13.7902 104.751 14.2474 104.751 14.6283 105.057L19.0474 108.732C19.4283 109.038 19.4283 109.498 19.1236 109.88C18.9712 109.957 18.7426 110.11 18.514 110.11Z" fill="white"/>
<path d="M22.2477 121.211H17.143C16.9144 121.211 16.762 121.134 16.6096 120.981L12.343 117.23C12.0382 116.924 11.962 116.388 12.2668 116.082C12.5715 115.775 13.1049 115.699 13.4096 116.005L17.4477 119.527H21.943L25.143 116.311C25.4477 116.005 25.981 116.005 26.2858 116.311C26.5906 116.617 26.5906 117.153 26.2858 117.46L22.781 120.981C22.6287 121.134 22.4763 121.211 22.2477 121.211Z" fill="white"/>
<path d="M5.71429 123.201H0.838095C0.380952 123.201 0 122.818 0 122.359V117.459C0 117 0.380952 116.617 0.838095 116.617H5.71429C6.17143 116.617 6.55238 117 6.55238 117.459V122.359C6.55238 122.818 6.17143 123.201 5.71429 123.201ZM1.6 121.593H4.87619V118.301H1.6V121.593Z" fill="white"/>
<path d="M32.8383 149C29.943 149 27.124 148.617 24.3811 147.775C23.924 147.622 23.6954 147.163 23.8478 146.78C24.0002 146.321 24.4573 146.091 24.8383 146.244C27.4287 147.01 30.0954 147.392 32.8383 147.392C40.9145 147.392 48.6859 143.947 54.1716 137.976C54.4764 137.67 55.0097 137.593 55.3145 137.9C55.6192 138.206 55.6954 138.742 55.3906 139.048C49.524 145.402 41.3716 149 32.8383 149Z" fill="white"/>
</g>
<path fill-rule="evenodd" clip-rule="evenodd" d="M276.302 109.353C274.353 110.181 272.117 109.24 271.305 107.255C270.494 105.27 271.415 102.99 273.365 102.165C275.312 101.338 277.55 102.277 278.361 104.262C279.172 106.247 278.25 108.527 276.302 109.353ZM283.035 106.679C283.104 106.065 283.105 105.435 283.034 104.807L284.994 102.997L283.914 100.357L281.274 100.5C280.886 100.007 280.448 99.5646 279.971 99.1789L280.102 96.4867L277.507 95.3975L275.737 97.4017C275.133 97.3332 274.515 97.3325 273.9 97.4046L272.124 95.4089L269.532 96.5067L269.673 99.1975C269.186 99.5925 268.754 100.039 268.376 100.524L265.733 100.392L264.664 103.035L266.63 104.838C266.563 105.455 266.562 106.082 266.631 106.711L264.672 108.52L265.752 111.16L268.391 111.018C268.781 111.511 269.431 112.607 269.431 112.607C269.536 113.03 269.507 112.305 269.507 117.935C269.507 118.95 270.315 119.772 271.311 119.772H278.263C279.259 119.772 280.067 118.95 280.067 117.935V112.907C280.312 112.497 280.915 111.476 281.291 110.993L283.934 111.126L285.002 108.481L283.035 106.679Z" fill="white"/>
<path fill-rule="evenodd" clip-rule="evenodd" d="M272.001 106.961C272.652 108.556 274.446 109.311 276.012 108.646L276.013 108.645C278.503 107.59 278.549 103.936 276.002 102.868C273.497 101.816 270.947 104.379 272.001 106.961ZM270.604 103.983C271.565 101.603 274.237 100.467 276.576 101.45C280.357 103.037 280.32 108.481 276.592 110.061C272.867 111.643 269.044 107.838 270.604 103.983Z" fill="white"/>
<path fill-rule="evenodd" clip-rule="evenodd" d="M268.978 110.537C269.168 110.779 270.089 112.13 270.161 112.42C270.297 112.969 270.26 112.189 270.26 117.934C270.26 118.524 270.732 119.005 271.311 119.005H278.263C278.843 119.005 279.314 118.524 279.314 117.934C279.314 112.721 279.245 112.807 279.425 112.507C279.672 112.094 280.29 111.044 280.701 110.517C281.012 110.116 281.248 110.222 283.44 110.333L284.104 108.69C281.416 106.227 282.591 107.59 282.286 104.894C282.229 104.388 282.451 104.311 284.094 102.792L283.423 101.152C279.824 101.347 281.595 101.468 279.503 99.7801C279.11 99.4629 279.214 99.2472 279.324 96.9894L277.712 96.3122C275.296 99.0479 276.637 97.8551 273.986 98.1658C273.49 98.2265 273.415 98.0008 271.922 96.3244L270.312 97.0072C270.43 99.2572 270.534 99.4779 270.142 99.7965C268.069 101.483 269.816 101.364 266.227 101.184L265.563 102.827C267.211 104.339 267.433 104.417 267.379 104.922C267.085 107.623 268.232 106.269 265.571 108.724L266.242 110.366C268.456 110.247 268.665 110.142 268.978 110.537ZM278.263 120.539H271.311C269.901 120.539 268.754 119.371 268.754 117.934C268.754 117.772 268.768 113.065 268.729 112.907C268.569 112.643 268.276 112.167 268.027 111.806C265.81 111.925 265.322 112.101 265.057 111.454C263.953 108.756 263.657 108.422 264.167 107.951L265.848 106.399C265.82 105.984 265.819 105.567 265.847 105.152C264.174 103.618 263.706 103.391 263.968 102.744C265.062 100.039 265.078 99.6029 265.77 99.6251L268.037 99.7387C268.306 99.4229 268.595 99.1272 268.901 98.8551C268.781 96.5587 268.609 96.0672 269.243 95.7987C271.893 94.6751 272.218 94.3744 272.681 94.8929L274.205 96.6051C274.611 96.5765 275.021 96.5765 275.429 96.6037C276.934 94.8987 277.158 94.4194 277.794 94.6879C280.448 95.8022 280.888 95.8251 280.854 96.5251L280.741 98.8337C281.049 99.1058 281.339 99.4001 281.609 99.7137C283.844 99.5922 284.344 99.4151 284.61 100.062C285.715 102.766 286.008 103.094 285.499 103.565L283.818 105.118C283.847 105.532 283.847 105.949 283.819 106.365C285.497 107.903 285.96 108.127 285.698 108.774L284.63 111.418C284.368 112.066 283.841 111.889 281.659 111.779C281.352 112.233 281.049 112.739 280.82 113.123V117.934C280.82 119.371 279.673 120.539 278.263 120.539Z" fill="white"/>
<path fill-rule="evenodd" clip-rule="evenodd" d="M279.707 123.109H269.653C268.697 123.109 268.695 121.634 269.653 121.634H279.707C280.663 121.634 280.665 123.109 279.707 123.109Z" fill="white"/>
<path fill-rule="evenodd" clip-rule="evenodd" d="M278.934 125.473H270.427C269.47 125.473 269.468 123.998 270.427 123.998H278.934C279.89 123.998 279.892 125.473 278.934 125.473Z" fill="white"/>
<path fill-rule="evenodd" clip-rule="evenodd" d="M273.518 127.836C273.855 129.016 275.504 129.018 275.842 127.836H273.518ZM274.68 130.2C273.214 130.2 272.022 128.986 272.022 127.493V127.099C272.022 126.691 272.346 126.361 272.746 126.361H276.613C277.013 126.361 277.337 126.691 277.337 127.099V127.493C277.337 128.986 276.145 130.2 274.68 130.2Z" fill="white"/>
<path fill-rule="evenodd" clip-rule="evenodd" d="M273.541 91.6793V89.2822C273.541 88.2686 275.047 88.2672 275.047 89.2822V91.6793C275.047 92.6929 273.541 92.6943 273.541 91.6793Z" fill="white"/>
<path fill-rule="evenodd" clip-rule="evenodd" d="M265.089 95.4717L263.634 93.8274C262.968 93.0745 264.086 92.046 264.753 92.8003L266.207 94.4445C266.873 95.1974 265.755 96.226 265.089 95.4717Z" fill="white"/>
<path fill-rule="evenodd" clip-rule="evenodd" d="M261.177 104.226L258.857 103.77C257.88 103.577 258.164 102.07 259.143 102.263L261.462 102.72C262.438 102.912 262.156 104.417 261.177 104.226Z" fill="white"/>
<path fill-rule="evenodd" clip-rule="evenodd" d="M260.773 113.182L262.643 112.106C263.508 111.607 264.252 112.941 263.384 113.441L261.514 114.518C260.644 115.02 259.912 113.678 260.773 113.182Z" fill="white"/>
<path fill-rule="evenodd" clip-rule="evenodd" d="M288.226 113.831L286.259 112.67C285.395 112.16 286.155 110.836 287.014 111.343L288.981 112.504C289.845 113.013 289.085 114.338 288.226 113.831Z" fill="white"/>
<path fill-rule="evenodd" clip-rule="evenodd" d="M287.628 101.951L290.088 101.486C291.073 101.303 291.337 102.81 290.363 102.995L287.903 103.46C286.918 103.641 286.654 102.136 287.628 101.951Z" fill="white"/>
<path fill-rule="evenodd" clip-rule="evenodd" d="M282.638 94.0572L283.985 92.33C284.603 91.5365 285.784 92.49 285.164 93.2843L283.817 95.0115C283.205 95.7965 282.015 94.855 282.638 94.0572Z" fill="white"/>
<path fill-rule="evenodd" clip-rule="evenodd" d="M296.562 116.529L294.456 116.289C296.577 119.254 288.623 121.514 289.451 126.084L293.199 122.709C293.199 122.709 296.686 118.424 296.687 118.382C296.687 118.339 296.562 116.529 296.562 116.529Z" fill="white"/>
<path fill-rule="evenodd" clip-rule="evenodd" d="M298.211 102.577L296.01 101.396L294.904 102.367C295.804 102.432 296.517 103.159 296.583 104.075C296.587 104.106 298.031 121.425 298.031 121.425C297.989 122.98 297.842 122.812 290.978 132.087C290.522 132.707 289.805 133.072 289.042 133.072C286.74 133.072 284.53 134.005 282.902 135.663L282.241 136.337H294.169L294.258 132.256L299.866 124.095C300.374 118.221 300.618 122.51 298.211 102.577Z" fill="white"/>
<path fill-rule="evenodd" clip-rule="evenodd" d="M302.317 118.618C302.317 119.834 304.124 119.835 304.124 118.618C304.124 117.402 302.317 117.401 302.317 118.618Z" fill="white"/>
<path fill-rule="evenodd" clip-rule="evenodd" d="M281.489 135.827C281.489 124.737 280.933 126.795 292.704 114.75C292.704 103.035 292.393 102.752 293.668 101.456C295.631 99.4581 298.961 100.687 299.263 103.46L301.224 121.437C301.512 124.082 300.382 124.944 295.528 131.539C294.727 132.626 294.434 134.012 294.723 135.34C294.94 136.332 293.468 136.659 293.253 135.672C292.868 133.907 293.258 132.065 294.323 130.618C299.311 123.842 299.932 123.489 299.728 121.607L297.767 103.63C297.519 101.36 294.21 101.557 294.21 103.824V115.066C294.21 115.518 294.684 114.897 285.608 124.186C282.445 127.421 282.995 130.766 282.995 135.827C282.995 136.84 281.489 136.842 281.489 135.827Z" fill="white"/>
<path fill-rule="evenodd" clip-rule="evenodd" d="M289.624 125.266C295.861 118.913 295.956 119.081 295.956 118.053C295.956 117.034 295.157 116.223 294.16 116.223C293.163 116.223 293.211 116.427 288.412 121.316C287.709 122.033 286.643 120.949 287.347 120.231L291.823 115.672C293.111 114.359 295.21 114.36 296.498 115.672C297.785 116.984 297.786 119.122 296.498 120.433L290.689 126.35C289.985 127.068 288.92 125.984 289.624 125.266Z" fill="white"/>
<path fill-rule="evenodd" clip-rule="evenodd" d="M279.085 135.57H296.613V142.882H279.085V135.57Z" fill="white"/>
<mask id="mask3" mask-type="alpha" maskUnits="userSpaceOnUse" x="279" y="135" width="18" height="8">
<path fill-rule="evenodd" clip-rule="evenodd" d="M279.085 135.57H296.613V142.882H279.085V135.57Z" fill="white"/>
</mask>
<g mask="url(#mask3)">
<path fill-rule="evenodd" clip-rule="evenodd" d="M279.085 142.122V136.337C279.085 135.913 279.422 135.57 279.838 135.57H295.86C296.276 135.57 296.613 135.913 296.613 136.337V142.05C296.613 143.064 295.108 143.065 295.108 142.05V137.104H280.591V142.122C280.591 143.135 279.085 143.137 279.085 142.122Z" fill="white"/>
</g>
<path fill-rule="evenodd" clip-rule="evenodd" d="M293.566 140.415C293.113 142.074 290.648 141.378 291.101 139.717C291.553 138.059 294.019 138.754 293.566 140.415Z" fill="white"/>
<path fill-rule="evenodd" clip-rule="evenodd" d="M298.58 130.212C301.538 126.258 303.284 124.651 302.913 121.246C302.803 120.235 304.3 120.072 304.41 121.077C304.86 125.223 302.627 127.332 299.778 131.141C299.175 131.948 297.977 131.018 298.58 130.212Z" fill="white"/>
<path fill-rule="evenodd" clip-rule="evenodd" d="M251.899 116.529L254.005 116.289C251.883 119.254 259.838 121.514 259.008 126.084L255.261 122.709C255.261 122.709 251.775 118.424 251.774 118.382C251.774 118.339 251.899 116.529 251.899 116.529Z" fill="white"/>
<path fill-rule="evenodd" clip-rule="evenodd" d="M250.249 102.577L252.45 101.396L253.556 102.367C252.656 102.432 251.943 103.159 251.877 104.075C251.873 104.106 250.429 121.425 250.429 121.425C250.471 122.98 250.618 122.812 257.482 132.087C257.938 132.707 258.655 133.072 259.417 133.072C261.72 133.072 263.93 134.005 265.558 135.663L266.219 136.337H254.291L254.202 132.256L248.594 124.095C248.086 118.221 247.842 122.51 250.249 102.577Z" fill="white"/>
<path fill-rule="evenodd" clip-rule="evenodd" d="M248.598 128.684C248.598 129.9 246.792 129.901 246.792 128.684C246.792 127.468 248.598 127.467 248.598 128.684Z" fill="white"/>
<path fill-rule="evenodd" clip-rule="evenodd" d="M265.466 135.827C265.466 130.752 266.01 127.418 262.853 124.186C253.793 114.915 254.25 115.518 254.25 115.066C254.25 102.8 254.425 103.25 253.728 102.541C252.678 101.472 250.859 102.11 250.694 103.63L248.733 121.607C248.528 123.492 249.146 123.837 254.137 130.618C255.202 132.065 255.592 133.907 255.207 135.673C254.992 136.658 253.52 136.333 253.737 135.339C254.027 134.013 253.733 132.627 252.933 131.539C248.112 124.99 246.947 124.101 247.236 121.438L249.197 103.46C249.382 101.761 250.787 100.478 252.466 100.476C254.282 100.474 255.756 101.97 255.756 103.824V114.75C267.552 126.821 266.972 124.773 266.972 135.827C266.972 136.84 265.466 136.842 265.466 135.827Z" fill="white"/>
<path fill-rule="evenodd" clip-rule="evenodd" d="M257.771 126.351L251.963 120.434C250.675 119.123 250.675 116.984 251.963 115.672C253.251 114.359 255.35 114.36 256.638 115.672L261.113 120.232C261.817 120.948 260.753 122.034 260.049 121.316C255.233 116.41 255.292 116.223 254.3 116.223C253.304 116.223 252.504 117.033 252.504 118.053C252.504 119.083 252.599 118.913 258.836 125.267C259.54 125.983 258.476 127.069 257.771 126.351Z" fill="white"/>
<path fill-rule="evenodd" clip-rule="evenodd" d="M251.847 135.57H269.375V142.882H251.847V135.57Z" fill="white"/>
<mask id="mask4" mask-type="alpha" maskUnits="userSpaceOnUse" x="251" y="135" width="19" height="8">
<path fill-rule="evenodd" clip-rule="evenodd" d="M251.847 135.57H269.375V142.882H251.847V135.57Z" fill="white"/>
</mask>
<g mask="url(#mask4)">
<path fill-rule="evenodd" clip-rule="evenodd" d="M267.869 142.122V137.104H253.353V142.05C253.353 143.064 251.847 143.065 251.847 142.05V136.337C251.847 135.913 252.184 135.57 252.6 135.57H268.622C269.038 135.57 269.375 135.913 269.375 136.337V142.122C269.375 143.135 267.869 143.137 267.869 142.122Z" fill="white"/>
</g>
<path fill-rule="evenodd" clip-rule="evenodd" d="M254.895 140.415C255.347 142.074 257.813 141.378 257.36 139.717C256.907 138.059 254.442 138.754 254.895 140.415Z" fill="white"/>
<mask id="mask5" mask-type="alpha" maskUnits="userSpaceOnUse" x="244" y="112" width="4" height="16">
<path fill-rule="evenodd" clip-rule="evenodd" d="M244 112.725H247.023V127.419H244V112.725Z" fill="white"/>
</mask>
<g mask="url(#mask5)">
<path fill-rule="evenodd" clip-rule="evenodd" d="M245.668 127.112C244.391 125.377 243.817 123.233 244.051 121.077L244.889 113.401C244.999 112.394 246.495 112.562 246.385 113.57L245.548 121.247C245.356 123.013 245.827 124.769 246.873 126.192C247.122 126.53 247.055 127.011 246.722 127.266C246.391 127.519 245.919 127.452 245.668 127.112Z" fill="white"/>
</g>
<path fill-rule="evenodd" clip-rule="evenodd" d="M276.757 84.6956C276.042 84.6085 275.314 84.5528 274.592 84.5299C273.587 84.4985 273.659 82.9485 274.639 83.0013C275.404 83.0256 276.177 83.0849 276.935 83.1763C277.913 83.2956 277.752 84.8056 276.757 84.6956ZM268.685 83.5042C269.432 83.352 270.198 83.2313 270.961 83.1463C271.945 83.0399 272.111 84.557 271.123 84.667C270.405 84.747 269.684 84.8606 268.979 85.0042C268.007 85.202 267.711 83.7028 268.685 83.5042ZM282.232 86.0299C281.556 85.777 280.86 85.552 280.163 85.3628C279.207 85.1013 279.589 83.6256 280.552 83.8849C281.292 84.0863 282.031 84.3249 282.749 84.5935C283.681 84.942 283.165 86.3778 282.232 86.0299ZM263.001 85.3892C263.693 85.0628 264.41 84.7642 265.134 84.502C266.067 84.1635 266.572 85.6042 265.636 85.9435C264.956 86.1899 264.282 86.4699 263.632 86.777C262.732 87.202 262.1 85.8142 263.001 85.3892ZM287.236 88.637C286.642 88.2277 286.02 87.8406 285.387 87.487C284.513 87.0013 285.24 85.6606 286.108 86.1456C286.783 86.522 287.446 86.9342 288.078 87.3713C288.902 87.9406 288.055 89.2027 287.236 88.637ZM257.919 88.612C258.511 88.1213 259.137 87.6528 259.78 87.2192C260.608 86.6628 261.436 87.9356 260.608 88.4949C260.007 88.9006 259.421 89.3392 258.867 89.7985C258.096 90.4356 257.149 89.2506 257.919 88.612ZM291.428 92.4242C290.963 91.8749 290.46 91.3413 289.934 90.837C289.212 90.1449 290.24 89.0299 290.963 89.7235C291.526 90.2628 292.065 90.8356 292.565 91.4242C293.212 92.1892 292.078 93.1899 291.428 92.4242ZM253.809 93.062C254.253 92.4256 254.738 91.8049 255.249 91.2163C255.909 90.4599 257.03 91.4742 256.373 92.2306C255.897 92.7785 255.446 93.357 255.032 93.9492C254.456 94.772 253.232 93.887 253.809 93.062ZM294.449 97.2056C294.153 96.5456 293.816 95.8935 293.448 95.267C292.939 94.4006 294.224 93.6128 294.736 94.4813C295.134 95.1563 295.496 95.8592 295.815 96.5713C296.227 97.492 294.86 98.1249 294.449 97.2056ZM251.064 98.5128C251.31 97.7706 251.603 97.0335 251.934 96.3206C252.357 95.4078 253.715 96.0578 253.292 96.9735C252.985 97.6342 252.714 98.3178 252.485 99.0049C252.166 99.9613 250.744 99.4706 251.064 98.5128Z" fill="white"/>
<path d="M138 31C159.5 37 177.607 58.4432 186.5 77.5C197 100 223.5 115 244 118.5" stroke="#E77746" stroke-width="3" stroke-dasharray="9 9"/>
<path d="M77.5 30C55.5 37.5 37.5 58.5 32 81.5" stroke="#E77746" stroke-width="3" stroke-dasharray="9"/>
<path d="M307 116.5C329 104 342.5 90.5 348 68" stroke="#E77746" stroke-width="3" stroke-dasharray="9"/>
<defs>
<clipPath id="clip0">
<rect width="64" height="64" fill="white" transform="translate(0 85)"/>
</clipPath>
</defs>
</svg>
