<svg width="370" height="370" viewBox="0 0 370 370" fill="none" xmlns="http://www.w3.org/2000/svg">
<path d="M232.27 147.347C223.363 148.374 214.798 145.978 207.947 140.501C207.262 140.159 206.919 139.816 206.234 139.132C200.067 144.609 192.188 148.032 183.966 148.032C175.744 148.032 167.522 144.951 161.698 139.132C161.013 139.474 160.671 140.159 159.986 140.501C153.134 145.978 144.57 148.374 135.662 147.347C128.811 146.662 122.644 143.582 117.506 139.132C112.367 143.582 105.858 146.32 99.349 147.347V206.565L130.524 217.86H131.551H166.837H253.852V141.87C252.482 141.186 251.454 140.159 250.084 139.132C245.63 143.582 239.121 146.32 232.27 147.347ZM170.606 201.088C167.522 201.088 165.124 198.692 165.124 195.611C165.124 192.53 167.522 190.134 170.606 190.134C173.689 190.134 176.087 192.53 176.087 195.611C176.087 198.692 173.689 201.088 170.606 201.088ZM196.299 201.088C193.216 201.088 190.818 198.692 190.818 195.611C190.818 192.53 193.216 190.134 196.299 190.134C199.382 190.134 201.78 192.53 201.78 195.611C201.78 198.692 199.382 201.088 196.299 201.088ZM207.262 166.173H169.235L170.263 169.939H170.606H203.836C205.891 169.939 207.604 171.65 207.604 173.704C207.604 175.758 205.891 177.469 203.836 177.469H172.318L173.346 181.235H200.067C202.123 181.235 203.836 182.946 203.836 185C203.836 187.054 202.123 188.765 200.067 188.765H170.606C168.893 188.765 167.522 187.738 167.18 186.027L159.3 159.327H147.31C145.255 159.327 143.542 157.616 143.542 155.562C143.542 153.508 145.255 151.797 147.31 151.797H162.041C163.754 151.797 165.124 152.824 165.467 154.535L166.837 159.327H207.262C209.317 159.327 211.03 161.039 211.03 163.093C211.03 165.146 209.317 166.173 207.262 166.173Z" fill="#5EBCD6"/>
<path d="M129.496 115.513C129.839 116.198 130.181 117.225 129.839 118.252C131.552 125.782 137.718 131.601 145.597 132.628C148.338 132.971 151.079 132.628 153.477 131.944C157.93 128.521 161.013 123.386 161.699 117.225L162.041 113.117L162.384 111.063L162.041 114.829C162.041 117.567 162.726 120.648 163.754 123.044C164.782 120.99 165.467 118.936 165.81 116.883V115.856C165.81 115.513 165.81 115.171 165.81 114.829V114.486L168.55 85.3911H139.773L129.839 112.775C129.496 113.802 129.496 114.829 129.496 115.513Z" fill="#F56464"/>
<path d="M108.942 131.944C113.053 128.863 115.793 124.755 117.164 119.621L117.849 117.567C118.191 119.621 118.877 121.675 119.562 123.728C120.247 122.359 120.932 120.648 121.617 118.936V118.594L121.96 117.909C121.617 116.198 121.617 114.144 121.96 111.748V111.406L131.552 85.7334H103.118L85.989 111.063C83.9335 120.648 90.0999 130.232 99.6921 132.628C102.775 132.971 106.201 132.971 108.942 131.944Z" fill="#F56464"/>
<path d="M173.347 113.802L173.004 116.198C173.689 125.782 181.569 133.313 191.161 133.313C193.559 133.313 195.614 132.971 197.67 132.286C202.809 128.178 205.892 122.017 205.892 115.171V114.486L206.234 117.567C206.577 119.621 206.92 121.332 207.605 123.044C208.632 120.648 209.318 117.909 209.318 115.171V113.46L207.605 94.9755L206.92 86.7603C205.207 88.4718 202.809 89.4987 200.411 89.4987C197.327 89.4987 194.587 88.1295 193.216 85.7334H182.254C180.541 87.7872 178.143 89.1564 175.402 89.4987L174.717 96.3446L173.347 111.406H173.689L173.347 113.802Z" fill="#F56464"/>
<path d="M293.933 109.01L277.832 85.3911H251.796L261.388 111.063V111.406C261.388 112.775 261.731 114.144 261.388 115.513L261.731 115.856L262.416 117.909V118.252C264.814 128.178 274.749 133.997 284.684 131.601C285.026 131.601 285.369 131.601 285.369 131.259C292.563 126.809 295.989 117.909 293.933 109.01Z" fill="#F56464"/>
<path d="M253.853 112.775L243.918 85.3911H233.983C232.271 87.4449 229.53 89.1564 226.789 89.1564C223.706 89.1564 220.965 87.7872 219.595 85.3911H215.142L215.484 88.4718L215.827 91.8948L217.882 113.117V113.802L218.225 116.54C219.595 126.467 228.502 133.655 238.437 132.628C239.807 132.628 241.178 132.286 242.548 131.601C247.002 128.178 249.742 123.044 250.77 117.225L251.455 119.279C251.798 120.306 252.14 121.332 252.483 122.359C253.511 120.648 253.853 118.594 254.196 116.54C254.196 115.513 254.196 114.144 253.853 112.775Z" fill="#F56464"/>
<path d="M272.009 169.939C275.982 169.939 279.203 166.721 279.203 162.751C279.203 158.781 275.982 155.562 272.009 155.562C268.035 155.562 264.814 158.781 264.814 162.751C264.814 166.721 268.035 169.939 272.009 169.939Z" fill="#001C41"/>
<path d="M312.776 174.389C315.236 174.389 317.23 172.397 317.23 169.939C317.23 167.482 315.236 165.489 312.776 165.489C310.316 165.489 308.323 167.482 308.323 169.939C308.323 172.397 310.316 174.389 312.776 174.389Z" fill="#001C41"/>
<path d="M294.62 200.746V141.87C294.62 139.816 292.907 138.105 290.851 138.105C288.796 138.105 287.083 139.816 287.083 141.87V200.746C287.083 208.276 280.917 214.437 273.38 214.437H258.992H171.976C159.643 208.961 144.57 209.645 131.895 213.753C124.7 208.276 111.682 200.746 96.2663 202.799C92.8405 203.142 87.7018 204.169 82.9057 206.907C81.8779 204.853 81.1928 202.799 81.1928 200.403V141.87C81.1928 139.816 79.4799 138.105 77.4244 138.105C75.3689 138.105 73.656 139.816 73.656 141.87V200.746C73.656 205.195 75.0263 209.303 77.4244 212.384C75.3689 215.464 73.9986 218.887 73.9986 222.995C73.9986 225.049 75.3689 226.76 77.0818 226.76C95.9237 229.156 109.284 236.002 119.904 248.667C121.275 250.036 121.96 251.406 122.987 252.433C126.756 257.225 129.154 261.332 131.209 264.755C133.607 268.521 135.32 271.601 138.404 274.682C140.459 276.736 141.487 277.42 142.857 278.447C143.542 278.79 144.227 279.132 144.913 279.816H144.227C142.172 279.816 140.459 281.528 140.459 283.582V321.234C140.459 323.288 142.172 325 144.227 325C146.283 325 147.996 323.288 147.996 321.234V287.347H246.316H251.112V296.589C251.112 298.643 252.825 300.354 254.881 300.354C256.936 300.354 258.649 298.643 258.649 296.589V283.582C258.649 281.528 256.936 279.816 254.881 279.816H250.427C251.112 275.367 252.825 270.917 254.881 266.124C255.908 263.386 257.279 260.305 258.306 257.225C260.362 251.063 261.732 245.587 262.417 239.425C262.76 236.345 263.102 227.103 263.102 221.283H273.722C285.028 221.968 294.62 212.384 294.62 200.746ZM254.881 239.083C254.195 244.56 253.168 249.694 251.112 255.171C250.084 258.252 248.714 260.99 247.686 263.728C245.288 269.205 243.233 274.34 242.548 280.159H157.245C156.218 279.474 155.19 278.79 154.162 277.763C150.051 274.682 147.996 273.313 146.625 272.628C145.255 271.601 144.57 271.601 143.542 270.232C141.144 267.836 139.431 265.098 137.376 261.332C135.32 257.909 132.58 253.802 128.811 248.667C127.784 247.298 126.756 245.929 125.386 244.56C114.423 231.21 100.377 223.68 81.5353 220.599C81.8779 219.572 82.2205 218.887 82.5631 217.86C82.9057 217.518 82.9057 217.176 83.2482 216.834C84.6186 215.122 86.3315 213.753 88.0443 212.726C91.1276 211.014 94.5534 210.672 97.294 210.33C105.516 209.303 112.71 211.357 118.877 214.437C122.987 216.491 126.413 218.887 128.811 220.941C129.839 221.626 131.209 221.968 132.58 221.626C144.57 217.176 159.301 216.149 170.606 221.968C174.374 224.022 177.8 226.76 180.541 230.525C181.569 232.237 183.967 232.579 185.68 231.21C187.392 230.183 187.735 227.787 186.365 226.076C185.337 224.706 183.967 223.337 182.939 221.968H255.908C255.223 227.445 255.223 236.345 254.881 239.083Z" fill="#001C41"/>
<path d="M235.695 309.939C239.668 309.939 242.889 306.721 242.889 302.751C242.889 298.781 239.668 295.562 235.695 295.562C231.722 295.562 228.501 298.781 228.501 302.751C228.501 306.721 231.722 309.939 235.695 309.939Z" fill="#001C41"/>
<path d="M312.777 177.469C310.722 177.469 309.009 179.181 309.009 181.235V201.088C309.009 220.941 292.908 237.029 273.038 237.029C270.982 237.029 269.27 238.741 269.27 240.794C269.27 242.848 270.982 244.56 273.038 244.56C297.018 244.56 316.203 225.049 316.203 201.43V181.577C316.545 178.838 314.833 177.469 312.777 177.469Z" fill="#001C41"/>
<path d="M113.053 272.628C115.512 272.628 117.506 270.636 117.506 268.178C117.506 265.721 115.512 263.729 113.053 263.729C110.593 263.729 108.599 265.721 108.599 268.178C108.599 270.636 110.593 272.628 113.053 272.628Z" fill="#001C41"/>
<path d="M108.256 258.594C102.432 251.748 94.2103 244.218 75.0259 241.822C65.4336 240.452 58.582 231.895 59.2672 222.311C59.2672 220.257 57.8969 218.545 55.8414 218.545C53.7859 218.545 52.073 219.915 52.073 221.968C51.0453 235.66 60.9801 247.641 74.6833 249.352C91.1271 251.406 97.9787 257.225 103.117 263.386C103.803 264.413 104.83 264.756 105.858 264.756C106.543 264.756 107.571 264.413 108.256 264.071C109.626 262.36 109.626 259.963 108.256 258.594Z" fill="#001C41"/>
<path d="M89.7571 139.474C91.8126 139.817 93.8681 140.159 95.9236 140.159C104.831 140.159 113.395 135.367 117.849 127.836C121.96 134.34 128.811 139.132 136.691 140.159C137.718 140.159 138.746 140.501 139.774 140.501C149.023 140.501 157.245 135.709 161.699 127.836C166.152 135.709 174.374 140.843 183.967 140.843C193.559 140.843 201.781 135.709 206.234 127.836C210.688 135.367 218.91 140.501 228.159 140.501C229.187 140.501 230.215 140.501 231.243 140.159C239.464 139.132 246.316 134.34 250.084 127.836C255.908 137.078 266.871 142.213 278.176 139.474C291.879 136.051 300.444 122.017 297.018 108.325C297.018 107.983 296.675 107.641 296.333 106.956L277.491 79.5721C276.806 78.5452 275.778 77.8606 274.408 77.8606H242.205V76.1491C242.205 66.9071 234.668 59.7188 225.761 59.7188C220.623 59.7188 215.826 62.1149 212.743 65.8802C210.688 62.1149 205.892 59.7188 200.753 59.7188C195.614 59.7188 190.818 62.1149 187.735 65.8802C184.652 62.1149 180.198 59.7188 175.059 59.7188C171.634 59.7188 168.55 60.7457 165.81 62.4572V61.4303C165.81 52.1883 158.273 45 149.366 45C140.459 45 132.922 52.5306 132.922 61.4303V76.1491C132.922 76.8337 132.922 77.5183 132.922 77.8606H93.1829C91.8126 77.8606 90.7849 78.5452 90.0997 79.5721L71.2578 106.956C70.9153 107.298 70.9153 107.641 70.5727 108.325C67.4895 122.017 76.054 136.051 89.7571 139.474ZM184.309 133.313C175.402 133.313 167.865 127.152 166.152 118.594H202.123C200.41 126.809 193.216 133.313 184.309 133.313ZM230.557 132.628C221.308 133.655 212.743 127.494 210.688 118.594H246.316C244.603 126.125 238.437 131.601 230.557 132.628ZM276.806 132.286C266.871 134.682 256.936 128.521 254.538 118.936H290.166C288.796 125.098 283.657 130.575 276.806 132.286ZM273.38 85.3912L290.509 110.721C290.509 111.064 290.509 111.064 290.509 111.406H253.853L244.261 85.7335H273.38V85.3912ZM217.197 76.1491C217.197 71.0147 221.308 66.9071 226.446 66.9071C231.585 66.9071 235.696 71.0147 235.696 76.1491V79.9144C235.696 81.9682 235.011 84.022 233.983 85.3912C232.27 87.445 229.53 89.1565 226.789 89.1565C223.706 89.1565 220.965 87.7873 219.595 85.3912C218.567 84.022 217.882 81.9682 217.882 79.9144V76.1491H217.197ZM213.428 90.1834C213.771 90.868 214.456 91.5525 215.141 91.8948C218.224 94.6332 221.993 96.3447 226.446 96.3447C231.243 96.3447 235.696 94.2909 238.437 90.868L245.973 111.064H209.66L207.947 94.6332C210.345 93.6063 212.058 92.2371 213.428 90.1834ZM191.503 76.1491C191.503 71.0147 195.614 66.9071 200.753 66.9071C205.892 66.9071 210.003 71.0147 210.003 76.1491V79.9144C210.003 82.3105 208.975 84.7066 207.262 86.4181C205.549 88.1296 203.151 89.1565 200.753 89.1565C197.67 89.1565 194.929 87.7873 193.559 85.3912C192.531 84.022 191.846 81.9682 191.846 79.9144V76.1491H191.503ZM187.735 90.1834C190.818 93.9486 195.272 96.3447 200.753 96.3447C200.753 96.3447 200.753 96.3447 201.096 96.3447L202.466 111.064H166.152L167.523 94.6332C169.578 95.6601 171.976 96.3447 174.717 96.3447C180.198 96.3447 184.652 93.9486 187.735 90.1834ZM165.81 76.1491C165.81 71.0147 169.921 66.9071 175.059 66.9071C180.198 66.9071 184.309 71.0147 184.309 76.1491V79.9144C184.309 81.9682 183.624 84.022 182.596 85.3912C180.883 87.445 178.485 88.8142 175.745 89.1565C175.402 89.1565 175.402 89.1565 175.059 89.1565C172.661 89.1565 170.263 88.1296 168.55 86.4181C168.208 86.0758 167.865 85.7335 167.865 85.3912C166.838 84.022 166.152 81.9682 166.152 79.9144V76.1491H165.81ZM113.738 118.594C111.34 128.521 101.405 134.34 91.47 131.944C84.6184 130.232 79.4798 124.755 78.1094 118.252L113.738 118.594ZM151.079 128.863C147.311 131.944 142.514 133.313 137.718 132.628C130.182 131.601 123.673 126.125 121.96 118.594H157.588C156.903 122.702 154.505 126.125 151.079 128.863ZM140.116 61.4303C140.116 56.2958 144.227 52.1883 149.366 52.1883C154.505 52.1883 158.616 56.2958 158.616 61.4303V76.1491C158.616 76.8337 158.616 77.5183 158.273 77.8606H140.459C140.459 77.176 140.116 76.4914 140.116 76.1491V61.4303ZM159.301 85.3912C159.643 86.4181 160.329 87.445 160.671 88.4719L158.616 110.721V111.064H122.302L131.894 85.3912H159.301ZM77.7669 110.721L94.8958 85.3912H123.673L114.08 111.064H77.7669V110.721Z" fill="#001C41"/>
</svg>
