<svg width="370" height="370" viewBox="0 0 370 370" fill="none" xmlns="http://www.w3.org/2000/svg">
<path d="M121.587 171.73C119.072 174.241 117.994 177.11 117.994 180.696C117.994 183.924 119.431 187.152 121.587 189.662C125.898 193.966 133.443 194.325 138.114 190.738V171.013C135.958 169.22 133.084 168.503 130.569 168.503C126.976 168.144 123.743 169.579 121.587 171.73Z" fill="#F56464"/>
<path d="M102.904 153.44C87.8143 168.503 87.8143 193.249 102.904 207.953C110.09 215.126 119.79 219.43 130.21 219.43C132.725 219.43 135.239 219.071 137.754 218.713V201.139C135.239 202.215 132.725 202.574 130.21 202.574C124.461 202.574 119.072 200.422 114.76 196.118C110.449 192.173 108.293 186.435 108.293 180.697C108.293 174.959 110.449 169.579 114.76 165.275C118.713 160.972 124.461 158.82 130.21 158.82C132.725 158.82 135.599 159.179 137.754 160.254V142.681C135.239 142.323 132.725 141.964 130.21 141.964C120.15 141.964 110.449 146.268 102.904 153.44Z" fill="#F56464"/>
<path d="M84.5807 134.79C59.431 159.895 59.431 201.139 84.5807 226.602C96.7962 238.796 112.964 245.61 130.569 245.61C133.084 245.61 135.599 245.61 138.114 245.251V228.395C135.599 228.754 133.084 229.112 130.569 229.112C117.635 229.112 105.778 224.091 96.7962 215.125C78.1136 196.476 78.1136 165.992 96.7962 147.343C105.778 138.377 117.994 133.356 130.569 133.356C133.084 133.356 135.599 133.714 138.114 134.073V116.858C135.599 116.5 133.084 116.5 130.569 116.5C112.964 115.782 96.7962 122.597 84.5807 134.79Z" fill="#F56464"/>
<path d="M77.0359 126.184L78.8323 108.252L55.1198 84.2231L52.9641 102.155L35 103.948L59.0719 127.977L77.0359 126.184Z" fill="#5EBCD6"/>
<path d="M88.5331 248.479C83.5032 245.251 78.4732 241.306 74.1618 237.003C59.7906 223.016 51.5271 204.366 50.8086 184.283C50.8086 182.131 49.0121 180.696 46.8565 180.696C44.7008 180.696 42.9044 182.489 42.9044 184.641C43.9822 206.518 52.9642 226.961 68.4133 242.382C73.084 247.045 78.4732 251.348 84.2217 254.935C86.0181 256.011 88.5331 255.652 89.611 253.5C90.6888 251.707 89.9702 249.555 88.5331 248.479Z" fill="#F56464"/>
<path d="M253.802 252.425H180.509V206.519C180.509 204.367 178.712 202.574 176.557 202.574C174.401 202.574 172.605 204.367 172.605 206.519V256.728C172.605 258.88 174.401 260.673 176.557 260.673H253.802C255.958 260.673 257.754 258.88 257.754 256.728C257.754 254.218 255.958 252.425 253.802 252.425Z" fill="#F56464"/>
<path d="M187.695 248.839C189.132 248.839 190.569 248.121 191.287 246.687L200.629 226.603L212.126 241.666C212.844 242.742 214.281 243.459 215.719 243.1C217.156 242.742 218.233 242.024 218.952 240.59L226.138 223.017L233.683 230.548C234.401 231.265 235.479 231.624 236.916 231.624C237.994 231.624 239.072 230.907 239.79 229.831L257.036 204.009C258.114 202.216 257.754 199.705 255.958 198.629C254.162 197.553 251.647 197.912 250.569 199.705L235.838 221.582L227.575 213.333C226.497 212.257 225.419 211.899 223.982 212.257C222.545 212.616 221.826 213.333 221.108 214.409L214.281 231.265L202.784 216.561C202.066 215.485 200.629 214.768 199.192 215.127C197.754 215.127 196.677 216.202 195.958 217.278L183.742 243.1C182.665 244.894 183.742 247.404 185.539 248.121C186.617 248.48 186.976 248.839 187.695 248.839Z" fill="#F56464"/>
<path d="M256.318 83.1466H242.306V70.9529C242.306 69.1597 240.868 67.7251 239.072 67.7251H203.144C201.347 67.7251 199.91 69.1597 199.91 70.9529V83.1466H185.898C183.024 83.1466 180.868 85.2984 180.868 88.1675V113.99H261.347V88.1675C261.347 85.2984 259.192 83.1466 256.318 83.1466Z" fill="#5EBCD6"/>
<path d="M331.048 171.73H315.599V264.259H331.048V171.73Z" fill="#5EBCD6"/>
<path d="M218.952 322.359C221.333 322.359 223.263 320.432 223.263 318.055C223.263 315.678 221.333 313.751 218.952 313.751C216.571 313.751 214.641 315.678 214.641 318.055C214.641 320.432 216.571 322.359 218.952 322.359Z" fill="#001C41"/>
<path d="M192.006 56.6073C194.387 56.6073 196.317 54.6805 196.317 52.3037C196.317 49.9268 194.387 48 192.006 48C189.625 48 187.695 49.9268 187.695 52.3037C187.695 54.6805 189.625 56.6073 192.006 56.6073Z" fill="#001C41"/>
<path d="M335 171.731C335 171.014 335 170.655 334.641 170.296L327.096 144.474V135.15C327.096 132.998 325.299 131.205 323.144 131.205C320.988 131.205 319.192 132.998 319.192 135.15V144.474L311.647 170.655C311.647 170.655 311.647 171.014 311.647 171.372V171.731V264.26V275.736C311.647 277.888 313.443 279.681 315.599 279.681H331.048C333.204 279.681 335 277.888 335 275.736V264.26V172.089V171.731ZM319.551 175.676H327.096V260.315H319.551V175.676ZM323.144 158.82L325.659 167.786H320.629L323.144 158.82ZM327.096 271.791H319.551V267.846H327.096V271.791Z" fill="#001C41"/>
<path d="M98.5931 264.26C100.577 264.26 102.186 262.654 102.186 260.673C102.186 258.693 100.577 257.087 98.5931 257.087C96.6088 257.087 95.0002 258.693 95.0002 260.673C95.0002 262.654 96.6088 264.26 98.5931 264.26Z" fill="#F56464"/>
<path d="M129.132 182.131C130.21 182.131 130.928 181.772 132.006 181.055C133.443 179.62 133.443 177.11 132.006 175.675L55.8383 99.2849C54.4012 97.8503 51.8862 97.8503 50.4491 99.2849C49.012 100.719 49.012 103.23 50.4491 104.664L126.617 180.696C127.335 181.772 128.413 182.131 129.132 182.131Z" fill="#001C41"/>
<path d="M295.12 87.0918H265.3C264.581 82.7882 260.988 79.5604 256.317 79.5604H245.898V70.9531C245.898 67.008 242.665 63.7803 238.713 63.7803H202.785C198.832 63.7803 195.599 67.008 195.599 70.9531V79.2018H185.18C180.509 79.2018 176.916 82.4295 176.198 86.7332H142.785C138.114 86.7332 134.162 90.6782 134.162 95.3405V289.723C134.162 294.385 138.114 298.33 142.785 298.33H295.12C299.791 298.33 303.743 294.385 303.743 289.723V95.6992C304.102 91.0369 300.15 87.0918 295.12 87.0918ZM203.503 71.6703H238.353V79.2018V86.7332H203.503V79.2018V71.6703ZM195.958 87.0918V87.8091C195.958 91.7541 199.192 94.9819 203.144 94.9819H239.072C243.024 94.9819 246.258 91.7541 246.258 87.8091V87.0918H256.677C257.395 87.0918 258.114 87.8091 258.114 88.5264V94.6232V102.155V109.686H184.461V102.155V94.6232V88.1677C184.461 87.4505 185.18 86.7332 185.898 86.7332H195.958V87.0918ZM180.509 117.935H261.347C263.503 117.935 265.3 116.142 265.3 113.99V110.045H280.749V275.736H157.515V110.045H176.916V113.99C176.557 116.142 178.353 117.935 180.509 117.935ZM296.198 290.082C296.198 290.799 295.838 291.158 295.12 291.158H142.785C142.066 291.158 141.707 290.799 141.707 290.082V95.6992C141.707 94.9819 142.066 94.6232 142.785 94.6232H176.557V102.155H153.563C151.407 102.155 149.611 103.948 149.611 106.1V279.322C149.611 281.474 151.407 283.267 153.563 283.267H284.701C286.856 283.267 288.653 281.474 288.653 279.322V106.1C288.653 103.948 286.856 102.155 284.701 102.155H265.3V94.6232H295.12C295.838 94.6232 296.198 94.9819 296.198 95.6992V290.082Z" fill="#001C41"/>
<path d="M172.605 140.887C172.605 143.039 174.401 144.832 176.557 144.832H257.754C259.91 144.832 261.706 143.039 261.706 140.887C261.706 138.736 259.91 136.942 257.754 136.942H176.557C174.401 136.942 172.605 138.736 172.605 140.887Z" fill="#001C41"/>
<path d="M257.754 156.31H176.557C174.401 156.31 172.605 158.103 172.605 160.255C172.605 162.406 174.401 164.2 176.557 164.2H257.754C259.91 164.2 261.706 162.406 261.706 160.255C261.347 158.103 259.91 156.31 257.754 156.31Z" fill="#001C41"/>
<path d="M226.856 175.675H176.557C174.401 175.675 172.605 177.468 172.605 179.62C172.605 181.772 174.401 183.565 176.557 183.565H226.856C229.012 183.565 230.808 181.772 230.808 179.62C230.808 177.468 229.012 175.675 226.856 175.675Z" fill="#001C41"/>
<path d="M203.503 314.11H147.814C132.006 314.11 118.713 301.199 118.713 285.06C118.713 282.908 116.916 281.115 114.761 281.115C112.605 281.115 110.808 282.908 110.808 285.06C110.808 305.144 127.335 321.641 147.455 321.641H203.503C205.659 321.641 207.455 319.848 207.455 317.696C207.455 315.903 205.659 314.11 203.503 314.11Z" fill="#001C41"/>
<path d="M206.377 56.2487H235.838C243.743 56.2487 250.928 61.6283 253.084 69.5184C253.443 71.3116 255.24 72.3875 256.677 72.3875C257.036 72.3875 257.395 72.3875 257.755 72.3875C259.91 71.6702 260.988 69.877 260.629 67.7252C257.395 56.6073 247.335 48.7173 235.838 48.7173H206.377C204.222 48.7173 202.425 50.5105 202.425 52.6623C202.425 54.8142 204.222 56.2487 206.377 56.2487Z" fill="#001C41"/>
</svg>
