<svg width="52" height="66" viewBox="0 0 52 66" fill="none" xmlns="http://www.w3.org/2000/svg">
<path d="M50.958 12.1762H45.4008H42.6221C41.084 12.1762 39.8435 10.9338 39.8435 9.3931V1.0437L50.958 12.1762Z" fill="#F56464"/>
<path d="M42.6222 33V55.2154C42.6222 55.9609 41.9772 56.607 41.2329 56.607H34.2863H17.7138H10.7672C10.023 56.607 9.37793 55.9609 9.37793 55.2154V26.0422C9.37793 25.2967 10.023 24.6506 10.7672 24.6506H21.8321C22.5764 24.6506 23.2214 25.2967 23.2214 26.0422V27.4338V31.6085H38.4543H41.2329C42.0268 31.6085 42.6222 32.2049 42.6222 33Z" fill="#5EBCD6"/>
<path d="M9.37792 10.4367H20.4428C21.0382 10.4367 21.4848 9.93973 21.4848 9.39304C21.4848 8.79665 20.9886 8.34937 20.4428 8.34937H9.37792C8.7825 8.34937 8.33594 8.84635 8.33594 9.39304C8.33594 9.98943 8.7825 10.4367 9.37792 10.4367Z" fill="#001C41"/>
<path d="M51.7023 11.4307L40.6374 0.298193C40.4389 0.0993976 40.1412 0 39.8435 0H3.82061C1.73664 0 0 1.73946 0 3.82681V62.1235C0 64.2605 1.73664 65.9503 3.82061 65.9503H48.1794C50.313 65.9503 52 64.2108 52 62.1235V12.1762C52 11.878 51.9008 11.6295 51.7023 11.4307ZM49.8664 62.1235C49.8664 63.0678 49.1221 63.8133 48.1794 63.8133H3.82061C2.87786 63.8133 2.13359 63.0678 2.13359 62.1235V3.82681C2.13359 2.88253 2.87786 2.13705 3.82061 2.13705H38.8015V9.39307C38.8015 11.5301 40.5382 13.2199 42.6221 13.2199H50.6107L49.2214 11.0828H42.6221C41.6794 11.0828 40.9351 10.3373 40.9351 9.39307V3.62801L49.916 12.6235V62.1235H49.8664Z" fill="#001C41"/>
<path d="M15.9771 13.866H13.8435V16.003H15.9771V13.866Z" fill="#001C41"/>
<path d="M10.4695 13.866H8.33594V16.003H10.4695V13.866Z" fill="#001C41"/>
<path d="M35.7252 57.6506H41.2825C42.6222 57.6506 43.7138 56.5572 43.7138 55.2153V33C43.7138 31.6581 42.6222 30.5647 41.2825 30.5647H24.313V28.5271H39.5459V27.4834C39.5459 26.887 39.0497 26.4397 38.5039 26.4397H24.313V26.1415C24.313 24.7997 23.2214 23.7063 21.8817 23.7063H10.7672C9.42754 23.7063 8.33594 24.7997 8.33594 26.1415V55.3147C8.33594 56.6566 9.42754 57.75 10.7672 57.75H16.3245C16.9199 57.75 17.3665 57.253 17.3665 56.7063C17.3665 56.1099 16.8703 55.6626 16.3245 55.6626H10.4199V25.7439H22.1298V30.5647H19.0535C18.4581 30.5647 18.0115 31.0617 18.0115 31.6084C18.0115 32.2048 18.5077 32.6521 19.0535 32.6521H41.5306V55.5135H35.7252C35.1298 55.5135 34.6833 56.0105 34.6833 56.5572C34.6336 57.1536 35.1298 57.6506 35.7252 57.6506Z" fill="#001C41"/>
<path d="M20.6909 52.7802L25.2558 57.3525C25.6527 57.75 26.3474 57.75 26.7443 57.3525L31.3092 52.7802C31.7061 52.3826 31.7061 51.6868 31.3092 51.2892C30.9123 50.8916 30.2176 50.8916 29.8207 51.2892L27.0916 54.0226V39.9082C27.0916 39.3118 26.5955 38.8645 26.0497 38.8645C25.4542 38.8645 25.0077 39.3615 25.0077 39.9082V53.9729L22.2787 51.2395C21.8817 50.8419 21.1871 50.8419 20.7901 51.2395C20.2939 51.6868 20.2939 52.3329 20.6909 52.7802Z" fill="#001C41"/>
</svg>
