<svg width="370" height="370" viewBox="0 0 370 370" fill="none" xmlns="http://www.w3.org/2000/svg">
<path d="M195.411 64.6202H187.28V56.4627C187.28 53.1997 184.678 50.5894 181.426 50.5894H154.758C151.506 50.5894 148.904 53.1997 148.904 56.4627V64.6202H140.774C135.571 64.6202 131.343 68.8621 131.343 74.0829V92.6819H204.842V73.7566C204.842 68.8621 200.614 64.6202 195.411 64.6202Z" fill="#5EBCD6"/>
<path d="M223.706 254.2C220.779 249.632 222.405 229.075 220.129 225.485C217.527 221.244 215.575 217.002 213.949 212.76C210.047 202.645 208.746 193.182 208.421 185.024C206.469 190.245 206.144 198.729 210.372 212.434C211.673 216.349 211.348 251.263 212.649 256.484C212.649 256.81 212.974 257.463 213.299 258.442C216.226 264.641 226.308 278.672 230.535 286.83L233.788 285.851L241.268 283.567C240.942 281.935 225.657 257.463 223.706 254.2Z" fill="#5EBCD6"/>
<path d="M145.329 185.351C145.329 188.288 143.052 190.572 140.125 190.572H122.563C119.636 190.572 117.36 188.288 117.36 185.351V167.731C117.36 164.794 119.636 162.51 122.563 162.51H140.125C141.101 162.51 142.076 162.836 142.727 163.163L146.955 157.942C146.955 157.942 146.955 157.942 147.28 157.616C145.329 156.31 142.727 155.332 140.125 155.332H122.563C115.734 155.658 110.53 161.205 110.53 167.731V185.351C110.53 192.203 116.059 197.75 122.889 197.75H140.45C147.28 197.75 152.809 192.203 152.809 185.351V173.604L145.979 182.088V185.351H145.329Z" fill="#F56464"/>
<path d="M145.329 237.885C145.329 240.821 143.053 243.106 140.126 243.106H122.564C119.637 243.106 117.361 240.821 117.361 237.885V220.265C117.361 217.328 119.637 215.044 122.564 215.044H140.126C141.102 215.044 142.077 215.37 142.728 215.696L146.956 210.476C146.956 210.476 146.956 210.476 147.281 210.149C145.329 208.844 142.728 207.865 140.126 207.865H122.564C115.735 207.865 110.206 213.412 110.206 220.265V237.885C110.206 244.737 115.735 250.284 122.564 250.284H140.126C146.956 250.284 152.484 244.737 152.484 237.885V226.138L145.655 234.622V237.885H145.329Z" fill="#F56464"/>
<path d="M145.329 132.817C145.329 135.754 143.053 138.038 140.126 138.038H122.564C119.637 138.038 117.361 135.754 117.361 132.817V115.197C117.361 112.26 119.637 109.976 122.564 109.976H140.126C141.102 109.976 141.752 110.302 142.728 110.629L146.956 105.408C146.956 105.408 146.956 105.408 147.281 105.081C145.329 103.776 142.728 102.797 140.126 102.797H122.564C115.735 102.797 110.206 108.344 110.206 115.197V132.817C110.206 139.669 115.735 145.216 122.564 145.216H140.126C146.956 145.216 152.484 139.669 152.484 132.817V121.07L145.655 129.554V132.817H145.329Z" fill="#F56464"/>
<path d="M103.375 61.3571C105.53 61.3571 107.278 59.604 107.278 57.4415C107.278 55.2789 105.53 53.5259 103.375 53.5259C101.22 53.5259 99.4724 55.2789 99.4724 57.4415C99.4724 59.604 101.22 61.3571 103.375 61.3571Z" fill="#001C41"/>
<path d="M297.204 247.021C299.36 247.021 301.107 245.268 301.107 243.106C301.107 240.943 299.36 239.19 297.204 239.19C295.049 239.19 293.302 240.943 293.302 243.106C293.302 245.268 295.049 247.021 297.204 247.021Z" fill="#001C41"/>
<path d="M95.8956 57.4413C95.8956 55.4835 94.2695 53.8521 92.3182 53.8521C77.3582 53.8521 65 66.2514 65 81.5875V95.9446C65 97.9024 66.6261 99.5339 68.5774 99.5339C70.5287 99.5339 72.1548 97.9024 72.1548 95.9446V81.2612C72.1548 69.8407 81.2608 60.7043 92.6434 60.7043C94.2695 61.0306 95.8956 59.3991 95.8956 57.4413Z" fill="#001C41"/>
<path d="M166.143 117.154H222.08C224.031 117.154 225.658 115.523 225.658 113.565C225.658 111.607 224.031 109.976 222.08 109.976H166.143C164.192 109.976 162.565 111.607 162.565 113.565C162.891 115.523 164.192 117.154 166.143 117.154Z" fill="#001C41"/>
<path d="M166.143 134.448H197.689C199.64 134.448 201.266 132.817 201.266 130.859C201.266 128.901 199.64 127.27 197.689 127.27H166.143C164.192 127.27 162.565 128.901 162.565 130.859C162.565 132.817 164.192 134.448 166.143 134.448Z" fill="#001C41"/>
<path d="M222.08 166.099C222.08 164.141 220.454 162.51 218.503 162.51H166.143C164.192 162.51 162.565 164.141 162.565 166.099C162.565 168.057 164.192 169.688 166.143 169.688H218.503C220.454 169.688 222.08 168.057 222.08 166.099Z" fill="#001C41"/>
<path d="M166.143 187.308H186.957C188.908 187.308 190.534 185.677 190.534 183.719C190.534 181.761 188.908 180.13 186.957 180.13H166.143C164.192 180.13 162.565 181.761 162.565 183.719C162.891 185.677 164.192 187.308 166.143 187.308Z" fill="#001C41"/>
<path d="M194.112 215.044H166.143C164.192 215.044 162.565 216.675 162.565 218.633C162.565 220.591 164.192 222.223 166.143 222.223H194.112C196.063 222.223 197.689 220.591 197.689 218.633C197.689 216.675 196.063 215.044 194.112 215.044Z" fill="#001C41"/>
<path d="M187.282 232.664H166.468C164.517 232.664 162.891 234.296 162.891 236.253C162.891 238.211 164.517 239.843 166.468 239.843H187.282C189.233 239.843 190.859 238.211 190.859 236.253C190.859 234.296 189.233 232.664 187.282 232.664Z" fill="#001C41"/>
<path d="M149.558 160.226L134.598 178.172L126.793 170.667C125.492 169.362 123.215 169.362 121.914 170.667C120.614 171.972 120.614 174.256 121.914 175.562L132.321 186.003C132.972 186.656 133.947 186.982 134.923 186.982C135.899 186.982 136.874 186.329 137.525 185.677L155.087 164.794C156.387 163.162 156.062 161.204 154.761 159.899C153.135 158.594 150.859 158.92 149.558 160.226Z" fill="#001C41"/>
<path d="M149.558 212.76L134.598 230.706L126.793 223.201C125.492 221.896 123.215 221.896 121.914 223.201C120.614 224.506 120.614 226.791 121.914 228.096L132.321 238.537C132.972 239.19 133.947 239.516 134.923 239.516C135.899 239.516 136.874 238.864 137.525 238.211L155.087 217.328C156.387 215.696 156.062 213.739 154.761 212.433C153.135 211.128 150.859 211.455 149.558 212.76Z" fill="#001C41"/>
<path d="M149.558 107.691L134.598 125.638L126.793 118.133C125.492 116.828 123.215 116.828 121.914 118.133C120.614 119.438 120.614 121.722 121.914 123.027L132.321 133.469C132.972 134.122 133.947 134.448 134.923 134.448C135.899 134.448 136.874 133.795 137.525 133.143L155.087 112.26C156.387 110.628 156.062 108.67 154.761 107.365C153.135 106.06 150.859 106.386 149.558 107.691Z" fill="#001C41"/>
<path d="M289.725 271.167C289.4 270.188 288.749 269.536 288.099 269.21C287.123 268.883 286.147 268.557 285.497 268.883L283.22 269.536C283.871 264.315 285.497 256.158 286.798 248.326C288.099 241.474 289.074 234.948 290.05 230.706C292.001 217.981 292.977 211.455 291.026 204.602C291.026 204.602 290.7 203.624 290.375 202.318C285.172 188.614 265.008 168.383 253.951 157.289V81.5877C253.951 74.0828 247.772 68.2094 240.617 68.2094H206.795C204.843 63.9675 200.29 61.3572 195.412 61.3572H190.859V56.4627C190.859 51.2419 186.631 47 181.428 47H154.76C149.556 47 145.329 51.2419 145.329 56.4627V61.0309H140.775C135.897 61.0309 131.344 63.9675 129.393 67.8831H92.3181C84.8382 67.8831 78.9843 74.0828 78.9843 81.2614V271.494C78.9843 278.999 85.1634 284.872 92.3181 284.872H225.982C226.633 285.851 226.958 286.503 227.283 287.482L221.429 289.44C220.454 289.766 219.803 290.419 219.478 291.072C219.153 292.051 218.828 293.029 219.153 293.682L227.934 320.765C228.259 322.396 229.885 323.049 231.186 323.049C231.511 323.049 231.836 323.049 232.161 322.723C234.113 322.07 235.088 320.112 234.438 318.154L226.958 294.661L229.885 293.682L233.137 292.703L247.772 288.135L275.415 279.325L282.245 277.041L283.871 276.388L287.123 286.83C287.774 288.788 289.725 289.766 291.676 289.114C293.627 288.461 294.603 286.503 293.953 284.546L289.725 271.167ZM246.471 81.5877V159.573C246.471 159.899 246.471 160.226 246.471 160.226V218.96H246.146C242.894 217.328 239.316 215.044 239.316 212.434V85.5033C239.316 83.5455 237.69 81.914 235.739 81.914H208.095V75.0617H239.967C243.869 75.0617 246.471 77.9984 246.471 81.5877ZM207.445 213.412C207.77 215.044 208.095 226.138 208.421 233.969C208.746 246.369 209.071 254.2 209.721 257.137C210.047 257.789 210.372 258.768 210.697 259.747C211.348 261.052 212.323 262.684 213.299 264.315H99.7981V89.0926H127.767V92.6819C127.767 94.6397 129.393 96.2711 131.344 96.2711H204.843C206.795 96.2711 208.421 94.6397 208.421 92.6819V89.0926H232.812V181.761C230.861 178.498 227.934 175.888 223.381 174.583C222.08 174.257 220.779 174.257 219.478 174.257C214.6 174.257 210.697 176.214 207.77 180.13C202.892 186.656 202.567 197.75 207.445 213.412ZM152.158 56.4627C152.158 55.1575 153.134 54.1786 154.435 54.1786H181.102C182.403 54.1786 183.379 55.1575 183.379 56.4627V61.0309H151.833V56.4627H152.158ZM145.654 67.8831H154.76H181.428H190.534H195.412C198.664 67.8831 201.266 70.4935 201.266 73.7565V75.0617V81.914V88.7663H134.922V81.914V75.0617V73.7565C134.922 70.4935 137.523 67.8831 140.775 67.8831H145.654ZM85.8138 271.82V81.5877C85.8138 77.9984 88.7408 75.0617 92.3181 75.0617H127.767V81.914H96.546C94.5947 81.914 92.9686 83.5455 92.9686 85.5033V267.578C92.9686 269.536 94.5947 271.167 96.546 271.167H217.527C218.177 272.146 218.828 273.125 219.478 274.43C220.454 275.736 221.104 277.041 222.08 278.346H92.3181C88.7408 278.346 85.8138 275.409 85.8138 271.82ZM241.593 283.24L234.113 285.525C232.812 282.914 230.861 279.651 228.584 276.062C227.283 274.104 226.308 272.473 225.007 270.515C221.429 265.294 217.852 259.421 216.551 256.484C216.226 256.158 216.226 255.505 216.226 255.505C215.575 253.221 215.575 242.453 215.25 233.969C214.925 222.223 214.6 216.023 214.275 213.086C214.275 212.434 213.949 212.107 213.949 211.781C208.746 193.835 211.348 186.656 213.299 184.046C215.25 181.435 217.527 181.109 219.478 181.109C220.128 181.109 220.779 181.109 221.429 181.435C227.608 183.067 228.909 189.919 230.21 201.013C232.487 217.981 236.064 220.591 238.341 222.223C239.641 223.201 241.268 224.18 242.894 225.159C245.495 226.464 248.097 227.443 249.723 227.443C250.699 227.443 251.349 227.117 252 226.464C252.65 225.812 253.301 224.833 253.301 223.854V167.731C266.634 181.435 280.294 197.098 283.22 205.255C283.546 206.234 283.871 207.213 283.871 207.213C285.497 212.434 284.521 218.307 282.57 230.054C281.92 234.296 280.619 240.822 279.643 247.348C278.017 256.484 276.391 265.62 275.741 270.841C275.741 271.167 275.741 271.82 275.741 272.146L241.593 283.24Z" fill="#001C41"/>
<path d="M238.992 309.018C241.686 309.018 243.87 306.827 243.87 304.123C243.87 301.42 241.686 299.229 238.992 299.229C236.297 299.229 234.113 301.42 234.113 304.123C234.113 306.827 236.297 309.018 238.992 309.018Z" fill="#001C41"/>
<path d="M304.359 201.013C304.359 201.013 304.034 199.381 303.384 197.75C301.107 191.877 295.904 184.045 288.424 174.583C287.123 172.951 284.846 172.951 283.546 174.256C281.92 175.562 281.92 177.846 283.22 179.151C290.375 187.961 295.253 195.14 297.205 200.36C297.855 201.666 298.18 202.971 298.18 202.971C300.782 211.455 299.481 219.286 297.205 232.338C296.879 234.295 298.18 235.927 300.132 236.253C300.457 236.253 300.457 236.253 300.782 236.253C302.408 236.253 304.034 234.948 304.359 233.317C305.66 219.612 307.286 210.802 304.359 201.013Z" fill="#001C41"/>
</svg>
