<svg width="370" height="370" viewBox="0 0 370 370" fill="none" xmlns="http://www.w3.org/2000/svg">
<g filter="url(#filter0_d)">
<path d="M237.958 264.114C234.074 249.433 208.186 259.873 199.448 262.809C196.212 263.788 194.271 266.398 193.623 269.008C192.976 269.66 192.005 269.986 191.358 270.639L187.798 263.788C179.061 258.894 169.029 257.915 158.997 257.915H148.966H90.7161C88.7745 257.915 87.1565 256.284 87.1565 254.327V118.284H72.5941C68.7108 118.284 65.4747 121.547 65.4747 125.461V270.313C65.4747 274.227 68.7108 277.49 72.5941 277.49H147.995C158.674 277.49 169.353 280.1 179.061 285.32L180.355 285.972C187.151 289.887 195.565 289.887 202.684 285.972L203.979 285.32C205.273 284.667 206.891 284.015 208.186 283.362V283.036C208.509 283.036 208.509 283.036 208.833 282.71C214.658 279.774 220.483 277.164 226.955 276.511C233.427 276.185 240.223 272.27 237.958 264.114Z" fill="#5EBCD6"/>
<path d="M314.977 116.979H300.091V276.51H314.977V116.979Z" fill="#5EBCD6"/>
<path d="M317.565 209.632C315.624 209.632 314.006 208.001 314.006 206.043V124.157C314.006 122.199 312.388 120.568 310.446 120.568H300.09C298.149 120.568 296.531 118.937 296.531 116.979C296.531 115.022 298.149 113.391 300.09 113.391H310.446C316.271 113.391 321.125 118.284 321.125 124.157V206.369C321.125 208.001 319.507 209.632 317.565 209.632Z" fill="#001C41"/>
<path d="M191.682 291.192C187.151 291.192 182.944 290.213 178.738 287.93L177.443 287.277C168.382 282.384 158.35 279.774 148.318 279.774H72.9178C67.0929 279.774 62.2388 274.88 62.2388 269.008V124.157C62.2388 118.284 67.0929 113.391 72.9178 113.391H83.2733C85.2149 113.391 86.833 115.022 86.833 116.979C86.833 118.937 85.2149 120.568 83.2733 120.568H72.9178C70.9762 120.568 69.3581 122.199 69.3581 124.157V269.008C69.3581 270.965 70.9762 272.596 72.9178 272.596H148.318C159.645 272.596 170.971 275.532 181.003 280.752L182.297 281.405C188.122 284.667 195.242 284.667 201.39 281.405L204.95 279.447C206.568 278.469 208.833 279.121 209.804 280.752C210.775 282.384 210.128 284.667 208.509 285.646L204.95 287.603C200.419 289.887 196.212 291.192 191.682 291.192Z" fill="#001C41"/>
<path d="M191.682 291.191C187.151 291.191 182.945 290.213 178.738 287.929L175.178 285.972C173.56 284.993 172.913 283.035 173.884 281.078C174.854 279.447 176.796 278.794 178.738 279.773L182.297 281.73C188.122 284.993 195.242 284.993 201.39 281.73L202.685 281.078C212.716 275.858 224.043 272.922 235.369 272.922C237.311 272.922 238.929 274.553 238.929 276.511C238.929 278.468 237.311 280.099 235.369 280.099C225.337 280.099 214.982 282.709 206.244 287.603L204.95 288.255C200.419 289.886 196.212 291.191 191.682 291.191Z" fill="#001C41"/>
<path d="M310.446 279.774C308.504 279.774 306.886 278.142 306.886 276.185C306.886 274.227 308.504 272.596 310.446 272.596C312.388 272.596 314.006 270.965 314.006 269.008V124.157C314.006 122.199 312.388 120.568 310.446 120.568H300.09C298.149 120.568 296.531 118.937 296.531 116.979C296.531 115.022 298.149 113.391 300.09 113.391H310.446C316.271 113.391 321.125 118.284 321.125 124.157V269.008C321.125 274.88 316.271 279.774 310.446 279.774Z" fill="#001C41"/>
<path d="M191.682 272.596C191.035 272.596 190.064 272.27 189.74 271.944C181.003 265.419 170.324 261.83 159.321 261.83H91.0398C88.1273 261.83 85.5384 260.852 83.5968 258.568C81.6551 256.61 80.3607 253.674 80.3607 251.064V105.887C80.3607 100.015 85.2148 95.1211 91.0398 95.1211H163.852C175.178 95.1211 186.18 99.6885 194.271 107.844C194.918 108.497 195.241 109.476 195.241 110.454V240.625C195.241 242.582 193.623 244.213 191.682 244.213C189.74 244.213 188.122 242.582 188.122 240.625V111.759C181.326 105.561 172.913 102.298 163.852 102.298H91.0398C89.0981 102.298 87.4801 103.93 87.4801 105.887V250.738C87.4801 251.717 87.8037 252.696 88.4509 253.348C89.0981 254.001 90.069 254.327 91.0398 254.327H159.321C171.618 254.327 183.915 258.568 193.623 266.071C195.241 267.376 195.565 269.334 194.271 270.965C193.623 271.944 192.653 272.596 191.682 272.596Z" fill="#001C41"/>
<path d="M191.682 272.596C190.711 272.596 189.74 272.269 188.769 271.291C187.475 269.659 187.799 267.702 189.417 266.397C199.448 258.893 211.422 254.652 223.719 254.652H233.751C235.693 254.652 237.311 256.284 237.311 258.241C237.311 260.198 235.693 261.83 233.751 261.83H223.719C212.716 261.83 202.037 265.418 193.3 271.943C193.3 272.269 192.329 272.596 191.682 272.596Z" fill="#001C41"/>
<path d="M171.295 192.666H105.279C103.337 192.666 101.719 191.035 101.719 189.077C101.719 187.12 103.337 185.489 105.279 185.489H171.295C173.236 185.489 174.854 187.12 174.854 189.077C174.854 191.361 173.236 192.666 171.295 192.666Z" fill="#001C41"/>
<path d="M171.295 214.525H105.279C103.337 214.525 101.719 212.894 101.719 210.936C101.719 208.979 103.337 207.348 105.279 207.348H171.295C173.236 207.348 174.854 208.979 174.854 210.936C174.854 212.894 173.236 214.525 171.295 214.525Z" fill="#001C41"/>
<path d="M171.295 127.745H105.279C103.337 127.745 101.719 126.113 101.719 124.156C101.719 122.199 103.337 120.567 105.279 120.567H171.295C173.236 120.567 174.854 122.199 174.854 124.156C174.854 126.113 173.236 127.745 171.295 127.745Z" fill="#001C41"/>
<path d="M162.557 171.134H105.279C103.337 171.134 101.719 169.503 101.719 167.546C101.719 165.588 103.337 163.957 105.279 163.957H162.557C164.499 163.957 166.117 165.588 166.117 167.546C166.117 169.503 164.499 171.134 162.557 171.134Z" fill="#001C41"/>
<path d="M148.642 236.383H105.279C103.337 236.383 101.719 234.752 101.719 232.795C101.719 230.837 103.337 229.206 105.279 229.206H148.319C150.26 229.206 151.878 230.837 151.878 232.795C151.878 234.752 150.584 236.383 148.642 236.383Z" fill="#001C41"/>
<path d="M171.295 236.383H159.321C157.379 236.383 155.761 234.752 155.761 232.795C155.761 230.837 157.379 229.206 159.321 229.206H171.295C173.236 229.206 174.854 230.837 174.854 232.795C174.854 234.752 173.236 236.383 171.295 236.383Z" fill="#001C41"/>
<path d="M171.295 149.277H148.642C146.7 149.277 145.082 147.646 145.082 145.688C145.082 143.731 146.7 142.1 148.642 142.1H171.295C173.236 142.1 174.854 143.731 174.854 145.688C174.854 147.646 173.236 149.277 171.295 149.277Z" fill="#001C41"/>
<path d="M137.64 149.277H105.279C103.337 149.277 101.719 147.646 101.719 145.688C101.719 143.731 103.337 142.1 105.279 142.1H137.64C139.581 142.1 141.199 143.731 141.199 145.688C141.199 147.646 139.581 149.277 137.64 149.277Z" fill="#001C41"/>
<path d="M191.682 249.433C189.74 249.433 188.122 247.802 188.122 245.844V110.454C188.122 109.476 188.446 108.497 189.093 107.844C197.183 99.6885 207.862 95.1211 219.512 95.1211H292.324C298.149 95.1211 303.003 100.015 303.003 105.887V215.504C303.003 217.462 301.385 219.093 299.443 219.093C297.501 219.093 295.883 217.462 295.883 215.504V105.887C295.883 103.93 294.265 102.298 292.324 102.298H219.512C210.451 102.298 201.714 105.561 195.241 111.759V245.844C195.241 247.802 193.623 249.433 191.682 249.433Z" fill="#001C41"/>
<path d="M247.99 171.134H212.069C210.128 171.134 208.51 169.503 208.51 167.546C208.51 165.588 210.128 163.957 212.069 163.957H247.99C249.931 163.957 251.549 165.588 251.549 167.546C251.549 169.503 249.931 171.134 247.99 171.134Z" fill="#001C41"/>
<path d="M255.109 149.277H212.069C210.128 149.277 208.51 147.646 208.51 145.688C208.51 143.731 210.128 142.1 212.069 142.1H255.109C257.051 142.1 258.669 143.731 258.669 145.688C258.669 147.646 257.051 149.277 255.109 149.277Z" fill="#001C41"/>
<path d="M233.427 192.666H211.746C209.804 192.666 208.186 191.035 208.186 189.077C208.186 187.12 209.804 185.489 211.746 185.489H233.427C235.369 185.489 236.987 187.12 236.987 189.077C236.987 191.361 235.369 192.666 233.427 192.666Z" fill="#001C41"/>
<path d="M255.109 127.745H212.069C210.128 127.745 208.51 126.113 208.51 124.156C208.51 122.199 210.128 120.567 212.069 120.567H255.109C257.051 120.567 258.669 122.199 258.669 124.156C258.669 126.113 257.051 127.745 255.109 127.745Z" fill="#001C41"/>
<path d="M286.176 171.134H281.645C279.703 171.134 278.085 169.503 278.085 167.546C278.085 165.588 279.703 163.957 281.645 163.957H286.176C288.117 163.957 289.735 165.588 289.735 167.546C289.735 169.503 288.117 171.134 286.176 171.134Z" fill="#001C41"/>
<path d="M286.176 149.277H281.645C279.703 149.277 278.085 147.646 278.085 145.688C278.085 143.731 279.703 142.1 281.645 142.1H286.176C288.117 142.1 289.735 143.731 289.735 145.688C289.735 147.646 288.117 149.277 286.176 149.277Z" fill="#001C41"/>
<path d="M286.176 127.745H281.645C279.703 127.745 278.085 126.113 278.085 124.156C278.085 122.199 279.703 120.567 281.645 120.567H286.176C288.117 120.567 289.735 122.199 289.735 124.156C289.735 126.113 288.117 127.745 286.176 127.745Z" fill="#001C41"/>
<path d="M224.043 214.525H212.069C210.128 214.525 208.51 212.894 208.51 210.936C208.51 208.979 210.128 207.348 212.069 207.348H224.043C225.984 207.348 227.602 208.979 227.602 210.936C227.602 212.894 225.984 214.525 224.043 214.525Z" fill="#001C41"/>
<path d="M219.836 236.383H212.069C210.128 236.383 208.51 234.752 208.51 232.795C208.51 230.837 210.128 229.206 212.069 229.206H219.836C221.777 229.206 223.395 230.837 223.395 232.795C223.395 234.752 221.777 236.383 219.836 236.383Z" fill="#001C41"/>
<path d="M98.1592 294.454H72.9178C59.3263 294.454 48 283.036 48 269.007V232.795C48 230.837 49.618 229.206 51.5597 229.206C53.5013 229.206 55.1194 230.837 55.1194 232.795V269.007C55.1194 279.121 63.2096 287.277 73.2414 287.277H98.4828C100.424 287.277 102.043 288.908 102.043 290.866C101.719 292.823 100.101 294.454 98.1592 294.454Z" fill="#001C41"/>
<path d="M112.074 295.432C114.398 295.432 116.281 293.534 116.281 291.191C116.281 288.849 114.398 286.95 112.074 286.95C109.751 286.95 107.867 288.849 107.867 291.191C107.867 293.534 109.751 295.432 112.074 295.432Z" fill="#001C41"/>
<path d="M274.526 223.007C272.908 221.376 270.642 220.397 268.053 220.397C262.876 220.397 258.992 224.638 258.992 229.532V243.234H277.114V229.532C277.114 226.922 276.144 224.638 274.526 223.007Z" fill="#F56464"/>
<path d="M276.143 300H259.639C244.753 300 232.456 287.603 232.456 272.596V219.092C232.456 204.085 244.753 191.688 259.639 191.688H276.143C291.029 191.688 303.326 204.085 303.326 219.092V272.596C303.326 287.603 291.029 300 276.143 300ZM259.639 198.539C248.313 198.539 239.252 207.674 239.252 219.092V272.596C239.252 284.014 248.313 293.149 259.639 293.149H276.143C287.47 293.149 296.531 284.014 296.531 272.596V219.092C296.531 207.674 287.47 198.539 276.143 198.539H259.639Z" fill="#001C41"/>
<path d="M299.767 249.433H236.016C234.074 249.433 232.456 247.801 232.456 245.844C232.456 243.887 234.074 242.255 236.016 242.255H300.09C302.032 242.255 303.65 243.887 303.65 245.844C303.326 247.801 301.708 249.433 299.767 249.433Z" fill="#001C41"/>
<path d="M268.053 221.702C266.112 221.702 264.494 220.071 264.494 218.113V96.4255C264.494 85.6596 255.756 76.8511 245.077 76.8511H135.698C124.695 76.8511 115.634 85.9858 115.634 97.078C115.634 99.0355 114.016 100.667 112.074 100.667C110.133 100.667 108.515 99.3617 108.515 97.4043C108.515 82.3972 120.812 70 135.698 70H245.077C259.64 70 271.289 81.7447 271.289 96.4255V218.113C271.289 220.071 269.995 221.702 268.053 221.702Z" fill="#001C41"/>
<path d="M277.114 244.539C275.173 244.539 273.555 242.907 273.555 240.95V227.248C273.555 225.617 272.908 224.312 271.937 223.333C270.966 222.354 269.348 221.702 268.053 221.702C264.817 221.702 262.228 224.312 262.228 227.574V241.276C262.228 243.234 260.61 244.865 258.669 244.865C256.727 244.865 255.109 243.234 255.109 241.276V227.574C255.109 220.723 260.61 214.851 267.73 214.851C271.29 214.851 274.202 216.156 276.791 218.765C279.056 221.049 280.351 224.312 280.351 227.574V241.276C280.674 243.234 279.056 244.539 277.114 244.539Z" fill="#001C41"/>
</g>
<defs>
<filter id="filter0_d" x="-4" y="0" width="378" height="378" filterUnits="userSpaceOnUse" color-interpolation-filters="sRGB">
<feFlood flood-opacity="0" result="BackgroundImageFix"/>
<feColorMatrix in="SourceAlpha" type="matrix" values="0 0 0 0 0 0 0 0 0 0 0 0 0 0 0 0 0 0 127 0"/>
<feOffset dy="4"/>
<feGaussianBlur stdDeviation="2"/>
<feColorMatrix type="matrix" values="0 0 0 0 0 0 0 0 0 0 0 0 0 0 0 0 0 0 0.25 0"/>
<feBlend mode="normal" in2="BackgroundImageFix" result="effect1_dropShadow"/>
<feBlend mode="normal" in="SourceGraphic" in2="effect1_dropShadow" result="shape"/>
</filter>
</defs>
</svg>
