<svg width="90" height="88" viewBox="0 0 90 88" fill="none" xmlns="http://www.w3.org/2000/svg">
<path d="M53.5764 27.4202H34.3058C33.6705 27.4202 33.1411 26.8888 33.1411 26.2511C33.1411 25.6134 33.6705 25.082 34.3058 25.082H53.6823C54.3176 25.082 54.847 25.6134 54.847 26.2511C54.7411 26.8888 54.2117 27.4202 53.5764 27.4202Z" fill="#001C41"/>
<path d="M62.6824 11.3722V30.8215C62.6824 31.034 62.6824 31.1403 62.5765 31.3529C62.3647 31.6717 62.0471 31.9906 61.5177 31.9906C60.8824 31.9906 60.353 31.4592 60.353 30.8215V12.5413H9.21181V77.5848H19.4824C20.1177 77.5848 20.6471 78.1162 20.6471 78.7538C20.6471 79.3915 20.1177 79.9229 19.4824 79.9229H8.15299C7.51769 79.9229 6.98828 79.3915 6.98828 78.7538V11.3722C6.98828 10.7345 7.51769 10.2031 8.15299 10.2031H61.6236C62.153 10.3094 62.6824 10.7345 62.6824 11.3722Z" fill="#001C41"/>
<path d="M26.259 30.2898V31.4589C26.259 32.4155 25.5178 33.1594 24.5649 33.1594H18.8473C17.8943 33.1594 17.1531 32.4155 17.1531 31.4589V25.7198C17.1531 24.7633 17.8943 24.0193 18.8473 24.0193H24.5649C24.8826 24.0193 25.2002 24.1256 25.412 24.2319L26.7884 22.5314C26.7884 22.5314 26.7884 22.5314 26.8943 22.4251C26.259 22 25.412 21.6812 24.5649 21.6812H18.8473C16.6237 21.6812 14.8237 23.4879 14.8237 25.7198V31.4589C14.8237 33.6908 16.6237 35.4976 18.8473 35.4976H24.5649C26.7884 35.4976 28.5884 33.6908 28.5884 31.4589V27.6328L26.259 30.2898Z" fill="#5EBCD6"/>
<path d="M22.8708 31.9904C22.5532 31.9904 22.2355 31.8841 22.0238 31.6715L18.6355 28.2706C18.212 27.8455 18.212 27.1015 18.6355 26.6764C19.059 26.2513 19.8002 26.2513 20.2238 26.6764L22.7649 29.2271L27.6355 23.3817C28.059 22.8503 28.8002 22.8503 29.2238 23.2754C29.7532 23.7005 29.7532 24.4445 29.3296 24.8696L23.612 31.6715C23.5061 31.7778 23.2943 31.8841 22.8708 31.9904Z" fill="#001C41"/>
<path d="M47.8587 14.8794H24.0352V11.3721C24.0352 8.28998 26.5763 5.73926 29.6469 5.73926H42.2469C45.3175 5.73926 47.8587 8.28998 47.8587 11.3721V14.8794Z" fill="#5EBCD6"/>
<path d="M47.8588 15.9418H24.0353C23.4 15.9418 22.8706 15.4104 22.8706 14.7727V8.71475C22.8706 6.37659 24.7765 4.56982 27 4.56982H44.7883C47.1177 4.56982 48.9177 6.48287 48.9177 8.71475V14.879C49.0236 15.5167 48.4941 15.9418 47.8588 15.9418ZM25.2 13.7099H46.8V8.71475C46.8 7.65195 45.953 6.80171 44.8941 6.80171H27C25.9412 6.80171 25.0941 7.65195 25.0941 8.71475V13.7099H25.2Z" fill="#001C41"/>
<path d="M38.7529 7.97088H33.0352C31.1293 7.97088 29.647 6.48295 29.647 4.56991C29.647 2.65687 31.1293 1.16895 33.0352 1.16895H38.7529C40.6587 1.16895 42.1411 2.65687 42.1411 4.56991C42.247 6.48295 40.6587 7.97088 38.7529 7.97088Z" fill="#5EBCD6"/>
<path d="M40.3413 9.1401H31.659C29.9648 9.1401 28.5884 7.75845 28.5884 6.05797V3.08213C28.5884 1.38164 29.9648 0 31.5531 0H40.2354C41.9296 0 43.306 1.38164 43.306 3.08213V6.16425C43.306 7.75845 42.0354 9.1401 40.3413 9.1401ZM31.5531 2.23188C31.1296 2.23188 30.8119 2.55072 30.8119 2.97585V6.05797C30.8119 6.48309 31.1296 6.80193 31.5531 6.80193H40.2354C40.659 6.80193 40.9766 6.48309 40.9766 6.05797V3.08213C40.9766 2.65701 40.659 2.33816 40.2354 2.33816H31.5531V2.23188Z" fill="#001C41"/>
<path d="M71.047 87.8938C71.6903 87.8938 72.2117 87.3704 72.2117 86.7247C72.2117 86.0791 71.6903 85.5557 71.047 85.5557C70.4038 85.5557 69.8823 86.0791 69.8823 86.7247C69.8823 87.3704 70.4038 87.8938 71.047 87.8938Z" fill="#001C41"/>
<path d="M71.047 87.9999C70.3058 87.9999 69.7764 87.4685 69.7764 86.7246C69.7764 85.9806 70.3058 85.4492 71.047 85.4492C71.7881 85.4492 72.3175 85.9806 72.3175 86.7246C72.3175 87.4685 71.7881 87.9999 71.047 87.9999ZM71.047 85.7681C70.5175 85.7681 70.094 86.1932 70.094 86.7246C70.094 87.256 70.5175 87.6811 71.047 87.6811C71.5764 87.6811 71.9999 87.256 71.9999 86.7246C72.1058 86.1932 71.5764 85.7681 71.047 85.7681Z" fill="#001C41"/>
<path d="M43.8354 60.0482C43.8354 61.5361 44.3649 62.8115 45.4237 63.8743C47.4354 65.8936 50.9296 65.8936 53.0472 63.8743C54.106 62.8115 54.6354 61.5361 54.6354 60.0482C54.6354 58.6666 54.106 57.2849 53.0472 56.2221C51.9884 55.1593 50.7178 54.6279 49.2354 54.6279C47.7531 54.6279 46.4825 55.1593 45.4237 56.2221C44.3649 57.2849 43.8354 58.6666 43.8354 60.0482Z" fill="#F56464"/>
<path d="M37.4823 71.7391C40.5529 74.9275 44.7882 76.628 49.2352 76.628C53.6823 76.628 57.8117 74.9275 60.9882 71.7391C67.447 65.256 67.447 54.7343 60.9882 48.2512C57.9176 45.1691 53.6823 43.3623 49.2352 43.3623C44.7882 43.3623 40.6588 45.0628 37.4823 48.2512C31.0235 54.7343 31.0235 65.3623 37.4823 71.7391ZM39.9176 60.0483C39.9176 57.4976 40.8705 55.1594 42.6705 53.4589C44.4705 51.6522 46.7999 50.6956 49.2352 50.6956C51.6705 50.6956 54.1058 51.6522 55.8 53.4589C57.6 55.2657 58.5529 57.6039 58.5529 60.0483C58.5529 62.4927 57.6 64.9372 55.8 66.6377C54 68.4444 51.6705 69.401 49.2352 69.401C46.7999 69.401 44.3647 68.4444 42.6705 66.6377C40.8705 64.9372 39.9176 62.4927 39.9176 60.0483Z" fill="#F56464"/>
<path d="M29.6469 79.7104C34.8351 84.9181 41.8233 87.8939 49.2351 87.8939C56.6469 87.8939 63.6351 85.0244 68.8233 79.7104C79.6233 68.8698 79.6233 51.2273 68.8233 40.3867C63.6351 35.179 56.6469 32.2031 49.2351 32.2031C41.8233 32.2031 34.8351 35.0727 29.6469 40.3867C18.8469 51.2273 18.8469 68.8698 29.6469 79.7104ZM34.7292 45.4881C38.6469 41.5558 43.7292 39.4302 49.2351 39.4302C54.741 39.4302 59.8233 41.5558 63.741 45.4881C71.7881 53.4592 71.7881 66.5316 63.741 74.6089C59.8233 78.5413 54.741 80.6669 49.2351 80.6669C43.7292 80.6669 38.6469 78.5413 34.7292 74.6089C26.7881 66.5316 26.7881 53.5654 34.7292 45.4881Z" fill="#F56464"/>
<path d="M72.1058 36.5605L82.2706 26.2513L81.4235 18.5991L71.2588 28.802L72.1058 36.5605Z" fill="#5EBCD6"/>
<path d="M72.106 36.5602L82.2707 26.251L90.0001 27.1012L79.7295 37.4104L72.106 36.5602Z" fill="#5EBCD6"/>
<path d="M49.6588 60.1547C49.3412 60.1547 49.1294 60.0484 48.8118 59.8358C48.3883 59.4107 48.3883 58.6667 48.8118 58.2416L81.5294 25.5073C81.953 25.0822 82.6941 25.0822 83.1177 25.5073C83.5412 25.9324 83.5412 26.6764 83.1177 27.1015L50.5059 59.8358C50.2941 60.0484 49.9765 60.1547 49.6588 60.1547Z" fill="#001C41"/>
<path d="M73.694 85.662C73.3764 85.662 73.1646 85.5557 72.8469 85.3432C72.4234 84.918 72.4234 84.1741 72.8469 83.749C79.1999 77.3721 82.5881 68.976 82.5881 60.0485C82.5881 59.4108 83.1175 58.8794 83.7528 58.8794C84.3881 58.8794 84.9175 59.4108 84.9175 60.0485C84.9175 69.6137 81.2117 78.6475 74.4352 85.3432C74.2234 85.5557 74.0116 85.662 73.694 85.662Z" fill="#001C41"/>
<path d="M1.27066 63.8744C0.635369 63.8744 0.105957 63.343 0.105957 62.7053V28.483C0.105957 27.8454 0.635369 27.314 1.27066 27.314C1.90596 27.314 2.43537 27.8454 2.43537 28.483V62.7053C2.43537 63.4492 1.90596 63.8744 1.27066 63.8744Z" fill="#001C41"/>
<path d="M1.27066 26.2513C1.91391 26.2513 2.43537 25.7278 2.43537 25.0822C2.43537 24.4365 1.91391 23.9131 1.27066 23.9131C0.627414 23.9131 0.105957 24.4365 0.105957 25.0822C0.105957 25.7278 0.627414 26.2513 1.27066 26.2513Z" fill="#001C41"/>
<path d="M1.27059 26.3574C0.529412 26.3574 0 25.826 0 25.082C0 24.338 0.529412 23.8066 1.27059 23.8066C2.01176 23.8066 2.54118 24.338 2.54118 25.082C2.54118 25.826 2.01176 26.3574 1.27059 26.3574ZM1.27059 24.1255C0.741177 24.1255 0.317647 24.5506 0.317647 25.082C0.317647 25.6134 0.741177 26.0385 1.27059 26.0385C1.8 26.0385 2.22353 25.6134 2.22353 25.082C2.22353 24.5506 1.8 24.1255 1.27059 24.1255Z" fill="#001C41"/>
<path d="M24.6708 38.7925H18.8473C16.6237 38.7925 14.8237 40.5992 14.8237 42.8311V48.5703C14.8237 50.8021 16.6237 52.6089 18.8473 52.6089H19.8002C20.3296 52.6089 20.859 52.1838 20.9649 51.6524C21.0708 50.9084 20.5414 50.2707 19.8002 50.2707H18.8473C17.8943 50.2707 17.1531 49.5268 17.1531 48.5703V42.8311C17.1531 41.8746 17.8943 41.1306 18.8473 41.1306H26.1531V40.3867C26.1531 39.4302 25.5178 38.7925 24.6708 38.7925Z" fill="#5EBCD6"/>
<path d="M22.4473 45.913L20.2238 43.6811C19.8002 43.256 19.059 43.256 18.6355 43.6811C18.212 44.1063 18.212 44.8502 18.6355 45.2753L20.859 47.5072C21.2826 47.9324 22.0238 47.9324 22.4473 47.5072C22.8708 47.0821 22.8708 46.3382 22.4473 45.913Z" fill="#001C41"/>
</svg>
