<svg width="370" height="370" viewBox="0 0 370 370" fill="none" xmlns="http://www.w3.org/2000/svg">
<path d="M175.052 264.708C175.052 272.309 178.956 278.678 183.886 278.678C188.816 278.678 192.72 272.309 192.72 264.708V252.588H175.052V264.708Z" fill="#5EBCD6"/>
<path d="M183.886 279.704C178.339 279.704 174.025 273.336 174.025 265.53V253.204H193.952V265.53C193.952 273.336 189.433 279.704 183.886 279.704ZM176.285 255.463V265.53C176.285 271.898 179.777 277.239 184.092 277.239C188.2 277.239 191.898 271.898 191.898 265.53V255.463H176.285Z" fill="#001C41"/>
<path d="M183.886 280.732C177.928 280.732 172.998 273.953 172.998 265.53V252.177H194.774V265.53C194.98 273.953 190.049 280.732 183.886 280.732ZM175.052 254.231V265.53C175.052 272.72 178.956 278.678 183.886 278.678C188.816 278.678 192.72 272.72 192.72 265.53V254.231H175.052ZM183.886 278.472C179.161 278.472 175.052 272.72 175.052 265.735V254.642H192.514V265.735C192.72 272.515 188.611 278.472 183.886 278.472ZM177.312 256.491V265.53C177.312 271.282 180.394 276.212 184.091 276.212C187.789 276.212 190.871 271.282 190.871 265.53V256.491H177.312Z" fill="#001C41"/>
<path d="M244.9 148.023C234.012 149.255 223.535 146.379 214.906 139.6C214.29 139.189 213.674 138.573 213.058 137.956C205.662 144.736 195.801 148.844 185.324 148.844C174.847 148.844 165.191 144.941 157.59 137.956C156.974 138.573 156.358 138.984 155.741 139.6C147.113 146.379 136.636 149.255 125.748 148.023C117.325 146.995 109.519 143.298 103.356 137.751C96.9871 143.298 89.1806 146.79 80.7578 147.817V235.332L119.174 235.126H120.407H163.959H280.235L280.851 145.763C279.207 144.736 268.73 138.984 267.292 137.751C261.129 143.503 253.528 146.995 244.9 148.023ZM168.684 214.788C164.986 214.788 161.904 211.707 161.904 208.009C161.904 204.311 164.986 201.23 168.684 201.23C172.382 201.23 175.463 204.311 175.463 208.009C175.668 211.707 172.587 214.788 168.684 214.788ZM200.526 214.788C196.828 214.788 193.747 211.707 193.747 208.009C193.747 204.311 196.828 201.23 200.526 201.23C204.224 201.23 207.305 204.311 207.305 208.009C207.305 211.707 204.224 214.788 200.526 214.788ZM214.085 171.647H166.835L168.273 176.167C168.478 176.167 168.684 176.167 168.889 176.167H209.771C212.236 176.167 214.29 178.221 214.29 180.686C214.29 183.152 212.236 185.206 209.771 185.206H170.943L172.176 189.725H205.046C207.511 189.725 209.565 191.78 209.565 194.245C209.565 196.71 207.511 198.765 205.046 198.765H168.684C166.629 198.765 164.78 197.326 164.37 195.478L154.714 162.608H139.923C137.458 162.608 135.403 160.554 135.403 158.089C135.403 155.624 137.458 153.569 139.923 153.569H158.001C160.055 153.569 161.699 155.007 162.315 156.856L163.959 162.608H213.879C216.344 162.608 218.399 164.663 218.399 167.128C218.399 169.593 216.755 171.647 214.085 171.647Z" fill="#5EBCD6"/>
<path d="M117.942 108.99C118.558 110.017 118.763 111.044 118.352 112.277C120.407 121.727 128.008 128.917 137.663 129.944C140.95 130.355 144.237 129.944 147.319 128.917C152.865 124.603 156.769 118.234 157.59 110.839L158.207 105.908L158.618 103.238L158.207 107.963C158.207 111.455 159.028 114.947 160.261 118.029C161.494 115.564 162.315 113.098 162.726 110.222L162.932 108.99C162.932 108.579 162.932 108.168 162.932 107.757V107.346L166.219 71.3955H130.473L117.942 105.497C117.736 106.73 117.736 107.963 117.942 108.99Z" fill="#F56464"/>
<path d="M92.8784 129.122C97.8089 125.424 101.507 120.083 102.945 113.715L103.972 111.044C104.383 113.715 104.999 116.18 106.026 118.44C107.053 116.591 107.875 114.742 108.491 112.482C108.491 112.277 108.697 112.071 108.697 111.866L108.902 111.044C108.491 108.784 108.491 106.319 108.902 103.648V103.032L120.612 71.3955H85.4828L64.1176 102.827C61.6524 114.742 69.0481 126.657 80.9633 129.533C85.0719 130.56 89.1806 130.355 92.8784 129.122Z" fill="#F56464"/>
<path d="M172.176 106.731L171.765 109.607C172.587 121.316 182.448 130.766 194.363 130.766C197.034 130.766 199.704 130.15 202.17 129.328C208.538 124.398 212.441 116.591 212.441 107.963V107.141L213.058 110.839C213.263 113.304 213.879 115.564 214.907 117.619C216.345 114.742 217.166 111.456 217.166 107.963V106.114L214.907 83.1058L213.879 71.6016L174.847 71.807L173.82 85.3656L172.176 104.06H172.587L172.176 106.731Z" fill="#F56464"/>
<path d="M320.911 100.978L300.984 71.8066H268.936L280.646 103.443V104.06C280.851 105.703 280.851 107.347 280.851 108.99C281.056 109.195 281.056 109.401 281.262 109.606L282.289 112.277C282.289 112.482 282.494 112.688 282.494 112.893C285.371 125.014 297.697 132.615 310.023 129.533C310.434 129.533 310.639 129.328 311.05 129.328C319.267 122.754 323.581 111.866 320.911 100.978Z" fill="#F56464"/>
<path d="M271.606 105.498L259.075 71.6016H222.918L223.329 75.2994L223.74 79.6134L226.205 105.703V106.525L226.822 109.812C228.26 122.343 239.559 131.177 251.885 129.534C253.734 129.328 255.377 128.917 257.021 128.301C262.362 123.987 266.06 117.619 267.087 110.634L268.114 113.304C268.525 114.742 268.936 115.975 269.552 117.208C270.579 114.948 271.401 112.483 271.812 110.018C271.812 108.99 271.812 107.347 271.606 105.498Z" fill="#F56464"/>
<path d="M273.455 243.959C268.319 243.959 268.319 236.152 273.455 236.152C278.591 235.947 278.591 243.959 273.455 243.959Z" fill="#001C41"/>
<path d="M257.637 243.959C252.501 243.959 252.501 236.152 257.637 236.152C262.773 235.947 262.773 243.959 257.637 243.959Z" fill="#001C41"/>
<path d="M241.818 243.959C236.683 243.959 236.683 236.152 241.818 236.152C247.16 235.947 247.16 243.959 241.818 243.959Z" fill="#001C41"/>
<path d="M287.425 306C282.7 306 282.7 298.81 287.425 298.81C292.15 298.81 292.15 306 287.425 306Z" fill="#001C41"/>
<path d="M323.992 100.156C323.992 99.7453 323.787 99.3344 323.581 99.129L300.573 65.438C299.956 64.6163 298.929 64 297.902 64H72.9514C71.9243 64 70.8971 64.6163 70.2808 65.438L47.2721 99.129C47.0667 99.5399 46.8613 99.7453 46.8613 100.156C43.7798 113.098 49.121 126.246 60.4199 133.231L61.0362 133.642V234.92C61.0362 246.835 70.6916 256.491 82.6068 256.491H151.222V268.611C151.222 276.418 148.757 280.937 147.113 284.019L146.702 284.635H128.213C126.159 284.635 124.721 286.278 124.721 288.127V298.604H86.3047C83.634 298.604 82.8123 300.659 82.8123 302.097C82.8123 303.535 83.8394 305.589 86.3047 305.589H274.482C276.537 305.589 277.975 303.946 277.975 302.097C277.975 300.042 276.331 298.604 274.482 298.604H243.667V288.127C243.667 286.073 242.024 284.635 240.175 284.635H221.07L220.659 284.019C216.345 276.623 216.55 269.844 216.55 261.216C216.55 260.188 216.55 258.956 216.55 257.723V256.491H280.646C292.561 256.491 302.216 246.835 302.216 234.92V136.723L303.243 136.518C318.856 131.793 327.895 115.975 323.992 100.156ZM215.728 104.881L212.647 71.1901H250.858L263.8 104.881H215.728ZM263.8 111.25L263.389 112.893C261.129 122.754 252.912 130.149 243.051 131.382C242.024 131.587 241.202 131.587 240.175 131.587C229.082 131.587 219.426 123.986 216.961 112.893L216.55 111.25H263.8ZM158.001 75.7097L155.331 103.854L155.125 104.881H107.259L119.79 71.1901H158.412V72.4227C158.412 72.8336 158.412 73.2445 158.412 73.8608C158.207 74.4771 158.001 75.0934 158.001 75.7097ZM154.509 111.25L154.098 112.893C152.865 118.234 149.784 122.959 145.47 126.452C141.156 129.739 136.225 131.587 130.884 131.587C129.857 131.587 129.035 131.587 128.008 131.382C117.942 130.149 109.724 122.754 107.67 112.893L107.259 111.25H154.509ZM209.36 104.881H161.699L165.191 72.4227C165.191 72.4227 165.191 72.4227 165.191 72.2173V72.0119C165.397 71.3956 166.013 71.1901 166.424 70.9847H167.246H167.451C167.657 70.9847 167.862 70.9847 168.273 70.9847H207.1L209.36 104.881ZM209.36 111.25L208.949 112.893C206.689 123.986 196.828 132.204 185.324 132.204C174.025 132.204 163.959 124.192 161.699 112.893V111.25H209.36ZM53.0243 102.211L74.3895 71.1901H112.806L100.89 103.854V104.881H99.6579H52.6134L53.0243 102.211ZM53.0243 112.893L52.8189 111.25H100.069V113.098C97.3981 123.986 87.7427 131.382 76.6492 131.382C74.8003 131.382 72.746 131.177 70.8971 130.766C62.0634 128.711 55.2841 121.727 53.0243 112.893ZM236.477 291.825V298.604H131.706V291.825H236.477ZM158.618 261.01V256.491H174.025V266.557C174.025 273.747 178.545 279.704 184.091 279.704C189.638 279.704 194.158 273.952 194.158 266.557V256.491H209.565V261.01C209.565 269.022 209.36 275.801 212.236 282.991L213.058 284.84H155.125L155.947 282.991C158.618 275.801 158.618 269.022 158.618 261.01ZM177.518 266.557V256.491H190.46V266.557C190.46 271.693 187.584 276.007 184.091 276.007C180.599 276.007 177.518 271.693 177.518 266.557ZM294.82 234.92C294.82 242.727 288.452 248.89 280.851 248.89H82.6068C75.0058 248.89 68.6373 242.727 68.6373 234.92V136.929L70.2808 137.34C72.3351 137.75 74.3895 137.956 76.4438 137.956C86.921 137.956 96.9872 132.409 102.534 123.165L103.767 121.316L104.999 123.165C109.724 131.382 117.942 136.518 127.392 137.75C128.83 137.956 129.857 137.956 131.089 137.956C141.566 137.956 151.633 132.204 156.974 123.165L158.207 121.11L159.439 123.165C164.781 132.615 175.052 138.572 185.94 138.572C196.828 138.572 206.895 132.615 212.441 123.165L213.674 121.11L214.907 123.165C220.248 132.409 230.314 137.956 240.791 137.956C241.818 137.956 243.051 137.956 244.489 137.75C253.939 136.723 261.951 131.382 266.881 123.165L268.114 121.316L269.347 123.165C274.688 131.998 284.138 137.545 294.41 137.75H295.642V234.92H294.82ZM317.829 112.893C315.775 121.727 308.995 128.711 300.162 130.766C298.313 131.177 296.464 131.382 294.41 131.382C283.316 131.382 273.661 123.781 270.99 113.098V112.893C270.99 112.893 270.99 112.688 270.99 112.482V111.25H318.24L317.829 112.893ZM270.168 104.881V103.649L258.253 70.9847H296.669L318.035 102.211L318.445 104.676H270.168V104.881Z" fill="#001C41"/>
</svg>
