<svg width="60" height="71" viewBox="0 0 60 71" fill="none" xmlns="http://www.w3.org/2000/svg">
<path fill-rule="evenodd" clip-rule="evenodd" d="M12 4.3806L9.98104 1.94643C9.25375 1.06941 10.5867 -0.023017 11.3124 0.852381L13.3313 3.28655C13.6354 3.65285 13.5835 4.19422 13.2154 4.49597C12.8464 4.79934 12.3016 4.74528 12 4.3806Z" fill="#001C41"/>
<path fill-rule="evenodd" clip-rule="evenodd" d="M30.6133 4.01147L36.1593 15.194L48.5606 16.9867L39.5874 25.6915L41.7052 37.9818L30.6133 32.1791L19.5214 37.9818L21.6393 25.6915L12.666 16.9867L25.0674 15.194L30.6133 4.01147Z" fill="#F56464"/>
<path fill-rule="evenodd" clip-rule="evenodd" d="M32.3702 42.5571L28.0169 40.7152L25.8496 42.5571V36.4971L29.1926 34.6802L32.3702 36.4971V42.5571Z" fill="#5EBCD6"/>
<path fill-rule="evenodd" clip-rule="evenodd" d="M48.3334 12.4671C49.5115 12.4671 49.5131 10.6929 48.3334 10.6929C47.1553 10.6929 47.1537 12.4671 48.3334 12.4671Z" fill="#001C41"/>
<mask id="mask0" mask-type="alpha" maskUnits="userSpaceOnUse" x="0" y="0" width="60" height="71">
<path fill-rule="evenodd" clip-rule="evenodd" d="M0 70.7671H59.8905V0.000244141H0V70.7671Z" fill="white"/>
</mask>
<g mask="url(#mask0)">
<path fill-rule="evenodd" clip-rule="evenodd" d="M18.3359 70.1376H44.217V66.4028H18.3359V70.1376Z" fill="#5EBCD6"/>
<path fill-rule="evenodd" clip-rule="evenodd" d="M19.1987 69.0485H43.7801V67.3696C43.7801 66.2957 42.902 65.4219 41.822 65.4219H21.1568C20.0768 65.4219 19.1987 66.2957 19.1987 67.3696V69.0485ZM44.6436 70.7671H18.3352C17.8584 70.7671 17.4717 70.3822 17.4717 69.9078V67.3695C17.4717 65.3477 19.1249 63.7034 21.1568 63.7034H41.822C43.8547 63.7034 45.5071 65.3477 45.5071 67.3695V69.9078C45.5071 70.3822 45.1211 70.7671 44.6436 70.7671Z" fill="#001C41"/>
<path fill-rule="evenodd" clip-rule="evenodd" d="M38.822 60.6953C39.6482 60.5912 41.5666 60.1741 43.0861 59.8191C44.1969 59.5593 44.5934 61.2318 43.4809 61.4916C42.7228 61.6691 40.1623 62.2581 39.0385 62.4001C37.9074 62.5445 37.6885 60.8381 38.822 60.6953Z" fill="#001C41"/>
<path fill-rule="evenodd" clip-rule="evenodd" d="M33.172 57.9485C33.6674 57.9485 33.9366 58.3318 34.2949 58.6892C34.3906 58.3657 34.5536 58.0776 34.7993 57.8332C33.9139 56.4471 34.0785 55.5717 34.0785 52.1516C32.5582 50.4597 32.8112 47.9989 31.0217 47.5672C30.2555 47.3623 29.8282 46.862 29.6725 46.2868C29.2728 46.1851 28.8909 46.0375 28.5276 45.8455V48.7064C28.6574 48.7839 28.7539 48.8476 28.9549 49.0179C28.9395 49.009 28.9241 49.0001 28.9087 48.9912C29.7893 49.8126 29.8598 51.4141 28.5276 52.1475V53.436C29.4771 54.2493 29.4139 55.9702 28.3412 56.6641C28.196 57.1579 27.9625 57.6202 27.6609 58.0405C28.0306 58.2801 28.3241 58.6432 28.4847 59.137C28.796 60.0939 28.1206 61.392 27.0917 61.5784C26.576 61.672 26.0579 61.7277 25.5341 61.743C25.2187 61.7519 25.029 61.747 24.6852 61.7729C24.4347 61.818 24.1906 61.8229 23.9579 61.7971L22.7547 62.9839C22.1531 63.5737 22.5787 64.5951 23.4212 64.5951H37.6217L32.5152 59.5138C31.9347 58.9361 32.3449 57.9485 33.172 57.9485Z" fill="#5EBCD6"/>
<path fill-rule="evenodd" clip-rule="evenodd" d="M23.4207 65.4545C21.8104 65.4545 20.9972 63.5004 22.1485 62.3716L23.0907 61.4422C23.4296 61.1082 23.9761 61.1106 24.3118 61.447C24.6474 61.7843 24.6458 62.3281 24.3069 62.6621L23.3623 63.594C23.1377 63.815 22.9196 63.736 39.1853 63.736C39.195 63.7231 39.2347 63.7126 39.2453 63.7005C39.2947 63.644 39.2591 63.6101 39.2477 63.5988C32.6777 57.6219 32.8415 58.3956 32.8415 53.3796C32.8415 52.2436 34.5685 52.2428 34.5685 53.3796C34.5685 57.6969 34.0926 56.5819 40.4339 62.3499C41.1393 63.0348 41.1855 64.0797 40.5645 64.809C39.8534 65.6982 40.5409 65.4545 23.4207 65.4545Z" fill="#001C41"/>
<path fill-rule="evenodd" clip-rule="evenodd" d="M27.1816 48.9389H22.8C21.0486 48.9389 19.624 47.5213 19.624 45.7785C19.624 44.0358 21.0486 42.6174 22.8 42.6174H26.3748C27.5156 42.6174 27.5173 44.336 26.3748 44.336H22.8C22.0005 44.336 21.3511 44.983 21.3511 45.7785C21.3511 46.5733 22.0005 47.2203 22.8 47.2203H27.1816C27.9924 47.2203 28.3289 46.7064 28.3289 46.4313C28.3289 45.2953 30.0559 45.2945 30.0559 46.4313C30.0559 47.6375 28.9573 48.9389 27.1816 48.9389Z" fill="#001C41"/>
<path fill-rule="evenodd" clip-rule="evenodd" d="M21.842 48.9392C21.0425 48.9392 20.393 49.5863 20.393 50.381C20.393 51.1765 21.0425 51.8236 21.842 51.8236H27.2436C29.1595 51.8236 29.1595 48.9392 27.2436 48.9392H21.842ZM27.2436 53.5421H21.842C20.0906 53.5421 18.666 52.1245 18.666 50.381C18.666 48.6383 20.0906 47.2207 21.842 47.2207H27.2436C28.9957 47.2207 30.4203 48.6383 30.4203 50.381C30.4203 52.1245 28.9957 53.5421 27.2436 53.5421Z" fill="#001C41"/>
<path fill-rule="evenodd" clip-rule="evenodd" d="M22.0119 53.542C21.2124 53.542 20.563 54.1891 20.563 54.9846C20.563 55.7793 21.2124 56.4264 22.0119 56.4264H27.4135C29.3286 56.4264 29.3303 53.542 27.4135 53.542H22.0119ZM27.4135 58.1449H22.0119C20.2605 58.1449 18.8359 56.7273 18.8359 54.9846C18.8359 53.2411 20.2605 51.8235 22.0119 51.8235H27.4135C29.1657 51.8235 30.5903 53.2411 30.5903 54.9846C30.5903 56.7273 29.1657 58.1449 27.4135 58.1449Z" fill="#001C41"/>
<path fill-rule="evenodd" clip-rule="evenodd" d="M36.8267 56.2011C34.1332 55.0199 31.9432 52.9545 31.1932 48.2636C30.5219 47.9942 29.8521 47.7005 29.1937 47.3858C27.9167 46.7759 27.2129 46.4394 26.7378 45.9303C25.2913 44.3796 25.0002 41.1782 26.5408 40.1454C28.2143 39.0223 29.7905 41.5929 34.91 41.0394C35.33 40.9918 38.9575 42.3222 39.3532 42.4691C41.7808 43.3727 45.0824 44.3433 43.9456 45.6947C43.64 46.0586 43.0959 46.1062 42.7294 45.802C41.8002 45.0283 36.0783 43.1307 34.9148 42.766C32.4256 43.004 30.4692 42.6086 28.4081 41.8478C28.0562 41.7179 27.6183 41.5557 27.4902 41.5751C27.0994 41.8994 27.0881 43.7793 28.0035 44.7612C28.4762 45.2671 31.4883 46.5395 32.2902 46.8469C32.5902 46.9622 32.801 47.2333 32.8375 47.552C32.9235 48.3088 33.247 50.267 34.3797 52.1041C36.011 54.7496 38.6032 54.3196 37.9651 55.7614C37.7737 56.193 37.2662 56.3931 36.8267 56.2011Z" fill="#001C41"/>
<path fill-rule="evenodd" clip-rule="evenodd" d="M50.7712 62.7842L43.3734 62.7503C42.8999 62.7479 42.5164 62.367 42.5139 61.8959C42.4142 42.2966 42.2545 43.2471 42.6753 42.8316C43.0742 42.437 43.6012 42.5855 46.1156 42.6153C47.2466 42.629 47.2499 44.3338 46.0953 44.3338L44.151 44.3113L44.2369 61.0358L50.7785 61.0656C51.2561 61.0681 51.6404 61.4545 51.6388 61.9289C51.6364 62.3961 51.2569 62.7842 50.7712 62.7842Z" fill="#001C41"/>
<path fill-rule="evenodd" clip-rule="evenodd" d="M48.4519 60.3227C49.2092 60.1129 49.6535 59.3319 49.4427 58.5784C49.2319 57.8248 48.4471 57.3827 47.6898 57.5924C45.8776 58.0935 46.6365 60.8245 48.4519 60.3227Z" fill="#001C41"/>
<path fill-rule="evenodd" clip-rule="evenodd" d="M53.0873 39.4638L50.1968 38.1641C49.1549 37.6961 49.8684 36.1317 50.9079 36.598L53.7984 37.8978C54.233 38.0931 54.426 38.6022 54.2297 39.0346C54.0343 39.4647 53.5235 39.6599 53.0873 39.4638Z" fill="#001C41"/>
<path fill-rule="evenodd" clip-rule="evenodd" d="M46.5601 3.27666L48.579 0.842494C49.3047 -0.0329036 50.6376 1.06033 49.9103 1.93654L47.8914 4.37071C47.1665 5.24611 45.8328 4.15368 46.5601 3.27666Z" fill="#001C41"/>
<path fill-rule="evenodd" clip-rule="evenodd" d="M24.0162 58.1286C23.2078 58.1286 22.5502 58.7829 22.5502 59.5873C22.5502 60.3917 23.2078 61.046 24.0162 61.046H26.7129C28.65 61.046 28.6516 58.1286 26.7129 58.1286H24.0162ZM26.7129 62.7315H24.0162C22.2737 62.7315 20.8564 61.3211 20.8564 59.5873C20.8564 57.8534 22.2737 56.4431 24.0162 56.4431H26.7129C28.4554 56.4431 29.8727 57.8534 29.8727 59.5873C29.8727 61.3211 28.4554 62.7315 26.7129 62.7315Z" fill="#001C41"/>
<path fill-rule="evenodd" clip-rule="evenodd" d="M55.8093 19.3121L58.9731 19.0862C60.1034 18.9998 60.2404 20.7183 59.0964 20.8006L55.9326 21.0266C54.795 21.1072 54.6702 19.3936 55.8093 19.3121Z" fill="#001C41"/>
<path fill-rule="evenodd" clip-rule="evenodd" d="M5.66073 39.0343C5.46451 38.6019 5.65749 38.0928 6.09208 37.8975L8.98262 36.5986C10.0205 36.1298 10.7364 37.695 9.6937 38.1646L6.80316 39.4636C6.371 39.658 5.85776 39.4692 5.66073 39.0343Z" fill="#001C41"/>
<path fill-rule="evenodd" clip-rule="evenodd" d="M3.95828 21.0263L0.794496 20.8004C-0.353612 20.7181 -0.209287 18.9988 0.91774 19.0868L4.08152 19.3119C4.55747 19.3466 4.91504 19.7572 4.88098 20.2308C4.84693 20.7044 4.43342 21.0602 3.95828 21.0263Z" fill="#001C41"/>
<path fill-rule="evenodd" clip-rule="evenodd" d="M24.4271 42.5019L24.9866 33.8432C25.0595 32.7176 26.7841 32.8145 26.7104 33.9537L26.1509 42.6125C26.0779 43.742 24.3533 43.6387 24.4271 42.5019Z" fill="#001C41"/>
<path fill-rule="evenodd" clip-rule="evenodd" d="M31.8801 41.6983L31.5071 33.9391C31.4528 32.8087 33.1766 32.7168 33.2317 33.8576L33.6055 41.616C33.6282 42.0904 33.2609 42.493 32.7841 42.5156C32.3277 42.543 31.9036 42.1856 31.8801 41.6983Z" fill="#001C41"/>
<path fill-rule="evenodd" clip-rule="evenodd" d="M40.0162 36.7725C37.8724 24.3354 37.8172 24.9082 38.2737 24.4645L46.7053 16.2866L35.0532 14.6011C34.4207 14.5099 34.8034 14.9384 29.1926 3.62516L23.9816 14.1316C23.6978 14.7028 24.2272 14.472 11.6799 16.2866L20.1116 24.4645C20.568 24.9082 20.5129 24.3354 18.3691 36.7725L28.7905 31.3208C29.3572 31.0247 28.7937 30.9021 40.0162 36.7725ZM29.1926 33.0514C16.7856 39.5423 17.324 39.4777 16.7151 39.038C16.4491 38.846 16.3161 38.5201 16.3713 38.1981L18.5807 25.3794C8.51938 15.6217 8.77317 16.1228 9.00263 15.4208C9.10398 15.1094 9.37479 14.8835 9.69993 14.8359L22.634 12.9657C28.8553 0.422904 28.4524 0.824699 29.1926 0.824699C29.9329 0.824699 29.5315 0.426131 35.7513 12.9657L48.6845 14.8359C49.3907 14.9384 49.6761 15.8041 49.1637 16.3019L39.8045 25.3794C42.1794 39.1591 42.2702 38.604 41.6702 39.038C41.071 39.4713 41.6313 39.5584 29.1926 33.0514Z" fill="#001C41"/>
<path fill-rule="evenodd" clip-rule="evenodd" d="M24.7413 26.3553L28.3648 14.2208C28.6891 13.1356 30.3456 13.6181 30.0197 14.7105L26.397 26.8451C26.0718 27.9327 24.4162 27.4454 24.7413 26.3553Z" fill="#FEFEFE"/>
<path fill-rule="evenodd" clip-rule="evenodd" d="M30.0587 25.1355L32.183 18.021C32.5065 16.935 34.1646 17.4183 33.8387 18.5107L31.7144 25.6252C31.3892 26.7128 29.7335 26.2255 30.0587 25.1355Z" fill="#FEFEFE"/>
<path fill-rule="evenodd" clip-rule="evenodd" d="M44.5209 11.9548C36.9698 10.8632 37.1555 11.0294 36.8798 10.4735L32.3011 1.24267C31.796 0.225277 33.3438 -0.537973 33.8498 0.481845L38.2274 9.30844L44.769 10.254C45.2409 10.3226 45.5676 10.7583 45.4995 11.2279C45.4306 11.699 44.9911 12.0234 44.5209 11.9548Z" fill="#001C41"/>
</g>
</svg>
