<svg width="101" height="100" viewBox="0 0 101 100" fill="none" xmlns="http://www.w3.org/2000/svg">
<g clip-path="url(#clip0)">
<path d="M44.0069 69.2585C45.4498 69.2585 46.6522 70.2155 47.1331 71.5313C47.2534 71.4117 47.4938 71.4117 47.6141 71.4117H51.9426V26.5552C51.9426 25.7179 51.8224 24.7609 51.5819 24.0432L44.1272 31.4595C43.8867 31.6987 43.6462 31.8184 43.4057 31.8184C43.7665 32.8949 43.4057 34.0911 42.5641 35.048C41.2415 36.3638 39.1974 36.3638 37.995 35.048C36.6724 33.7322 36.6724 31.6987 37.995 30.5026C39.0772 29.426 40.52 29.3064 41.8426 29.9045C41.9629 29.7849 41.9629 29.5456 42.0831 29.426L49.6581 21.8901C49.8986 21.6509 50.1391 21.5313 50.3796 21.5313C48.576 18.6605 45.4498 16.7466 41.8426 16.7466C37.2736 16.7466 33.426 19.737 32.2236 23.9236C27.1736 24.4021 23.2057 28.7083 23.2057 33.8518C23.2057 33.9715 23.2057 33.9715 23.2057 33.9715C23.5665 33.9715 23.8069 34.0911 24.1676 34.3303L31.0212 39.9523C31.2617 40.0719 31.3819 40.3112 31.5022 40.5504C31.9831 40.3112 32.4641 40.1916 32.945 40.1916C34.7486 40.1916 36.1915 41.627 36.1915 43.4212C36.1915 45.2155 34.7486 46.6509 32.945 46.6509C31.1415 46.6509 29.6986 45.2155 29.6986 43.4212C29.6986 43.0624 29.8188 42.7035 29.8188 42.4643C29.5784 42.4643 29.3379 42.3447 29.2176 42.2251L22.3641 36.603C22.1236 36.3638 21.8831 36.005 21.8831 35.6461C19.2379 37.4404 17.5546 40.4308 17.5546 43.7801C17.5546 46.6509 18.7569 49.1628 20.6807 50.9571C21.1617 50.7179 21.8831 50.7179 22.2438 51.1963L28.4962 56.5791H35.3498L40.2796 51.6748C40.3998 51.5552 40.52 51.4356 40.7605 51.316C40.52 50.8375 40.3998 50.359 40.3998 49.7609C40.3998 47.9667 41.8426 46.5313 43.6462 46.5313C45.4498 46.5313 46.8926 47.9667 46.8926 49.7609C46.8926 51.5552 45.4498 52.9906 43.6462 52.9906C43.2855 52.9906 43.045 52.9906 42.8046 52.871C42.8046 53.1102 42.6843 53.4691 42.4438 53.7083L37.1534 58.9715C36.9129 59.2107 36.5522 59.3303 36.1915 59.3303H28.2557C27.895 59.3303 27.5343 59.2107 27.2938 58.9715L20.4403 53.2298C20.1998 53.1102 20.0796 52.871 20.0796 52.6318C17.6748 54.7849 16.2319 58.0145 16.2319 61.4834C16.2319 63.1581 16.5926 64.7131 17.1938 66.0289L18.8772 64.7131C19.7188 64.3542 19.9593 64.115 20.801 63.9954L22.3641 60.7657L26.0915 61.1246L27.7748 65.4308C28.6165 65.7896 28.8569 65.7896 29.5784 66.2681L32.945 65.0719L35.47 68.8997L34.1474 72.4882C34.5081 73.3255 35.2296 73.5648 35.3498 74.4021L38.476 77.1533L37.6343 79.1868L34.6284 79.426C34.3879 79.9045 33.5462 80.8614 33.5462 80.8614L34.0272 83.3734C34.6284 87.56 38.9569 90.67 43.2855 90.67C47.9748 90.67 51.8224 86.8423 51.8224 82.1772V74.4021H47.4938C47.2534 74.4021 46.8927 74.2825 46.7724 74.1629C46.1712 75.1198 45.2093 75.8375 43.8867 75.8375C42.0831 75.8375 40.6403 74.4021 40.6403 72.6078C40.6403 70.8136 42.2034 69.2585 44.0069 69.2585Z" fill="#F56464"/>
<path d="M87.1726 61.2441C87.1726 61.1245 87.1726 61.1245 87.1726 61.2441C86.9321 60.8853 86.9321 60.7656 86.8119 60.4068C86.3309 54.1867 79.5976 50.2393 74.0666 53.1101C76.3511 56.1006 76.3511 59.9283 74.9083 63.0384C74.5476 63.7561 73.7059 63.9953 72.9845 63.7561C72.2631 63.3972 72.0226 62.5599 72.2631 61.8422C74.9083 56.579 70.4595 51.0766 64.2071 52.5121C62.1631 54.1867 57.8345 55.3829 57.8345 52.9905C57.8345 52.1532 58.4357 51.5551 59.2773 51.5551C62.0428 51.5551 64.3273 49.2824 64.3273 46.5312C64.3273 45.8135 64.9285 45.0958 65.7702 45.0958C67.694 45.0958 67.3333 47.7274 66.6119 49.402C66.6119 49.402 66.6119 49.402 66.6119 49.5216C68.6559 49.6412 70.4595 50.2393 71.9023 51.1963C75.1488 49.1628 79.3571 48.9235 82.844 50.5982C83.2047 50.3589 83.4452 50.0001 83.8059 49.6412C83.6857 49.5216 83.4452 49.402 83.2047 49.2824C85.0083 47.847 85.7297 46.7704 85.7297 44.1388C85.7297 41.268 84.2869 38.3972 81.6416 36.7226C81.4012 36.7226 81.1607 36.7226 81.0404 36.7226C78.275 35.7656 75.269 37.7991 75.75 41.0288C75.9904 42.8231 73.225 43.3015 72.9845 41.5073C72.3833 37.201 75.6297 33.6125 79.8381 33.7321V33.6125C79.7178 30.024 77.4333 26.7943 73.7059 25.5982C73.1047 25.4786 72.6238 25.3589 72.0226 25.2393C71.4214 25.2393 70.8202 24.8805 70.7 24.2824C68.175 15.3111 55.069 16.0288 53.3857 25.2393C53.2654 25.7178 53.2654 26.1963 53.2654 26.7943C53.2654 33.2537 61.0809 36.4833 65.65 32.0575C66.0107 31.6987 66.4916 31.579 66.9726 31.6987C67.2131 31.6987 67.4535 31.9379 67.694 32.0575C68.2952 32.6556 68.175 33.4929 67.694 34.091C63.6059 37.9187 57.2333 37.7991 53.2654 33.7321V69.1389C55.069 67.7034 57.3535 67.3446 59.2773 67.7034C61.2011 68.0623 62.7642 69.2585 63.7261 70.6939C64.8083 72.2489 62.4035 73.8039 61.3214 72.2489C58.9166 68.6604 53.1452 70.335 53.1452 74.7609C53.1452 84.6891 53.025 84.8087 53.5059 86.3637C56.8726 90.67 63.3654 91.0288 67.0928 86.8422C67.2131 86.7226 67.4535 86.3637 67.4535 86.3637C68.4154 83.8518 67.694 81.579 66.0107 79.9044C65.2892 79.1867 65.65 77.8709 66.4916 77.6317C66.9726 77.3924 67.5738 77.5121 67.9345 77.9905C69.1369 79.1867 70.0988 80.8613 70.3392 82.536C73.225 82.8948 76.8321 81.6987 78.9964 78.7082C79.3571 77.7513 79.4773 76.914 79.4773 75.957C76.8321 76.3159 74.3071 75.5982 72.5035 74.1628C71.5416 73.4451 71.9023 71.89 73.1047 71.6508C74.1869 71.4116 74.1869 72.2489 75.9904 72.847C77.6738 73.4451 79.4773 73.2058 80.8 72.4881C80.8 72.0097 80.8 71.6508 80.6797 71.292C80.9202 71.1723 81.1607 71.0527 81.4011 70.9331C83.2047 69.9762 84.7678 68.5408 85.9702 66.8661C87.1726 64.5934 87.4131 62.7991 87.1726 61.2441Z" fill="#5EBCD6"/>
<path d="M35.1097 96.0525C35.8402 96.0525 36.4323 95.4634 36.4323 94.7367C36.4323 94.01 35.8402 93.4209 35.1097 93.4209C34.3793 93.4209 33.7871 94.01 33.7871 94.7367C33.7871 95.4634 34.3793 96.0525 35.1097 96.0525Z" fill="#001C41"/>
<path d="M51.4618 81.9376C50.7403 81.9376 50.1392 81.3395 50.1392 80.6218V23.9232C50.1392 23.2055 50.7403 22.6074 51.4618 22.6074C52.1832 22.6074 52.7844 23.2055 52.7844 23.9232V80.6218C52.7844 81.3395 52.1832 81.9376 51.4618 81.9376Z" fill="#001C41"/>
<path d="M60.2392 90.6701C54.7082 90.6701 50.1392 86.1246 50.1392 80.6222C50.1392 79.9045 50.7403 79.3064 51.4618 79.3064C52.1832 79.3064 52.7844 79.9045 52.7844 80.6222C52.7844 84.6892 56.1511 88.0385 60.2392 88.0385C63.9665 88.0385 67.213 85.2873 67.6939 81.5792C67.6939 81.2203 67.9344 80.8615 68.2951 80.7419C68.5356 80.5026 69.0165 80.5026 69.3773 80.5026C70.0987 80.6222 70.6999 80.7419 71.3011 80.7419C75.8701 80.7419 79.4773 77.0337 79.4773 72.6079C79.4773 72.1294 79.4773 71.6509 79.357 71.0529C79.2368 70.4548 79.5975 69.8567 80.0784 69.6175C84.1665 67.8232 86.8118 63.8758 86.8118 59.45C86.8118 55.8615 85.0082 52.3926 82.0022 50.3591C81.6415 50.1198 81.5213 49.761 81.4011 49.4021C81.4011 49.0433 81.5213 48.5648 81.882 48.3256C84.0463 46.6509 85.3689 44.0194 85.3689 41.2682C85.3689 37.7993 83.3249 34.6892 80.1987 33.2538C79.7177 33.0146 79.4773 32.5361 79.4773 31.938C79.4773 31.5792 79.4773 31.3399 79.4773 31.1007C79.4773 26.5552 75.9904 22.7275 71.4213 22.249C70.9404 22.249 70.4594 21.8902 70.3392 21.2921C69.257 17.4643 65.6499 14.8328 61.8023 14.8328C56.8725 14.8328 52.9046 18.7801 52.9046 23.6844C52.9046 24.4021 52.3034 25.0002 51.582 25.0002C50.8606 25.0002 50.2594 24.4021 50.2594 23.6844C50.2594 17.3447 55.4296 12.2012 61.8023 12.2012C66.6118 12.2012 70.9404 15.1916 72.6237 19.6174C78.1546 20.5744 82.1225 25.2395 82.1225 30.8615C82.1225 30.9811 82.1225 30.9811 82.1225 31.1007C85.7296 33.1342 88.0142 36.9619 88.0142 41.0289C88.0142 44.0194 86.8118 46.8902 84.7677 48.9237C87.7737 51.5552 89.457 55.2634 89.457 59.2108C89.457 64.3543 86.5713 68.8997 82.1225 71.2921C82.1225 71.6509 82.1225 72.0098 82.1225 72.249C82.1225 78.1103 77.313 83.0146 71.3011 83.0146C70.8201 83.0146 70.4594 83.0146 69.9784 82.895C68.7761 87.56 64.8082 90.6701 60.2392 90.6701Z" fill="#001C41"/>
<path d="M60.2395 33.8514C54.7086 33.8514 50.2598 29.4256 50.2598 23.9232C50.2598 23.2055 50.861 22.6074 51.5824 22.6074C52.3038 22.6074 52.905 23.2055 52.905 23.9232C52.905 27.9902 56.2717 31.3395 60.3598 31.3395C62.2836 31.3395 64.0871 30.6218 65.53 29.306C66.011 28.8275 66.8526 28.8275 67.3336 29.306C67.8145 29.7845 67.8145 30.6218 67.3336 31.1002C65.1693 32.8945 62.7645 33.8514 60.2395 33.8514Z" fill="#001C41"/>
<path d="M66.8524 87.6794C66.4917 87.6794 66.2512 87.5597 65.8905 87.3205C65.4095 86.842 65.4095 86.0047 65.8905 85.5262C68.4155 83.0143 68.4155 78.9473 65.8905 76.555C65.4095 76.0765 65.4095 75.2392 65.8905 74.7607C66.3715 74.2822 67.2131 74.2822 67.6941 74.7607C71.181 78.2296 71.181 83.8516 67.6941 87.3205C67.4536 87.5597 67.0929 87.6794 66.8524 87.6794Z" fill="#001C41"/>
<path d="M51.4618 72.8468C50.7403 72.8468 50.1392 72.2488 50.1392 71.531C50.1392 67.5837 53.2653 64.4736 57.2332 64.4736C59.638 64.4736 61.8023 65.6698 63.1249 67.5837C63.4856 68.1818 63.3653 68.8995 62.7642 69.3779C62.163 69.7368 61.4415 69.6172 60.9606 69.0191C60.1189 67.8229 58.6761 66.9856 57.2332 66.9856C54.7082 66.9856 52.6642 69.0191 52.6642 71.531C52.7844 72.3684 52.1832 72.8468 51.4618 72.8468Z" fill="#001C41"/>
<path d="M58.9169 51.5553C58.1954 51.5553 57.5942 50.9572 57.5942 50.2395C57.5942 49.5218 58.1954 48.9237 58.9169 48.9237C61.8026 48.9237 64.0871 46.651 64.0871 43.7801C64.0871 43.0624 64.6883 42.4644 65.4097 42.4644C66.1311 42.4644 66.7323 43.0624 66.7323 43.7801C66.6121 48.0864 63.2454 51.5553 58.9169 51.5553Z" fill="#001C41"/>
<path d="M85.9703 53.9474C85.6096 53.9474 85.1287 53.7081 84.8882 53.3493C83.5656 51.3158 81.5215 50 79.1168 49.5215C76.712 49.0431 74.4275 49.5215 72.3834 50.8373C71.7822 51.1962 71.0608 51.0766 70.5799 50.4785C70.2191 49.8804 70.3394 49.1627 70.9406 48.6842C73.4656 47.0096 76.5918 46.4115 79.5977 46.89C82.6037 47.488 85.2489 49.1627 86.9322 51.7943C87.293 52.3923 87.1727 53.11 86.5715 53.5885C86.4513 53.8278 86.2108 53.9474 85.9703 53.9474Z" fill="#001C41"/>
<path d="M77.7938 72.6078C77.4331 72.6078 76.9522 72.6078 76.5915 72.4882C74.6677 72.2489 73.2248 71.292 72.3831 70.6939C71.7819 70.2154 71.7819 69.4977 72.1427 68.8997C72.6236 68.3016 73.345 68.3016 73.9462 68.6604C74.5474 69.1389 75.5093 69.737 76.9522 69.9762C78.7558 70.2154 80.1986 69.6174 80.92 69.2585C81.5212 68.8997 82.3629 69.1389 82.7236 69.737C83.0843 70.3351 82.8439 71.1724 82.2427 71.5312C81.401 72.0097 79.8379 72.6078 77.7938 72.6078Z" fill="#001C41"/>
<path d="M73.1049 61.0048C72.8645 61.0048 72.7442 61.0048 72.5037 60.8852C71.9025 60.5264 71.5418 59.8087 71.9025 59.2106C72.0228 58.8517 73.4656 55.7417 71.9025 52.8709C70.3395 50.2393 66.9728 48.9235 63.6061 49.8804C62.8847 50 62.1633 49.6412 62.043 48.9235C61.8025 48.2058 62.2835 47.4881 63.0049 47.3685C67.4537 46.1723 72.0228 47.9665 74.1871 51.6747C76.4716 55.622 74.5478 59.9283 74.3073 60.4067C74.0668 60.646 73.5859 61.0048 73.1049 61.0048Z" fill="#001C41"/>
<path d="M73.9464 39.713C73.3452 39.713 72.744 39.2345 72.6238 38.6364C72.5036 38.0383 72.2631 35.1675 74.4274 32.8948C76.2309 31.1005 78.8762 30.5025 81.4012 31.3398C82.1226 31.579 82.3631 32.2967 82.2429 33.0144C82.0024 33.7321 81.2809 33.9714 80.5595 33.8517C78.9964 33.3733 77.3131 33.7321 76.2309 34.8087C74.7881 36.2441 75.1488 38.158 75.1488 38.2776C75.269 38.9953 74.7881 39.5934 74.0667 39.713H73.9464Z" fill="#001C41"/>
<path d="M51.4618 7.89474C50.7403 7.89474 50.1392 7.29665 50.1392 6.57895L50.2594 1.19617C50.2594 0.478469 50.8606 0 51.582 0C52.3034 0 52.9046 0.598086 52.7844 1.31579L52.6642 6.69856C52.7844 7.41627 52.1832 7.89474 51.4618 7.89474Z" fill="#001C41"/>
<path d="M96.1906 74.6413C95.9501 74.6413 95.8299 74.6412 95.5894 74.5216L90.6596 72.1293C90.0585 71.7704 89.818 71.0527 90.0585 70.4546C90.4192 69.8566 91.1406 69.4977 91.7418 69.8566L96.6716 72.2489C97.2727 72.6078 97.5132 73.3255 97.2727 73.9235C97.0323 74.402 96.6715 74.6413 96.1906 74.6413Z" fill="#001C41"/>
<path d="M74.1867 14.3539C73.9462 14.3539 73.7057 14.3539 73.5855 14.1147C72.9843 13.7559 72.7438 12.9185 73.1045 12.3204L75.87 7.65538C76.2307 7.05729 77.0724 6.81805 77.6736 7.17691C78.2748 7.53576 78.5153 8.37308 78.1545 8.97116L75.3891 13.6362C75.0284 14.1147 74.5474 14.3539 74.1867 14.3539Z" fill="#001C41"/>
<path d="M90.5392 31.2199C90.0583 31.2199 89.6976 30.9807 89.4571 30.6218C89.0964 30.0237 89.3368 29.1864 89.938 28.9472L94.6273 26.3156C95.2285 25.9567 96.0702 26.196 96.3106 26.794C96.6714 27.3921 96.4309 28.2295 95.8297 28.4687L91.1404 31.1003C91.0202 31.1003 90.7797 31.2199 90.5392 31.2199Z" fill="#001C41"/>
<path d="M99.6773 52.6316L94.2666 52.512C93.5452 52.512 92.944 51.9139 93.0642 51.1962C93.0642 50.4785 93.6654 50 94.3868 50L99.7976 50.1196C100.519 50.1196 101.12 50.7177 101 51.4354C101 52.0335 100.399 52.6316 99.6773 52.6316Z" fill="#001C41"/>
<path d="M28.7368 14.354C28.2559 14.354 27.8952 14.1147 27.6547 13.7559L24.8892 9.09079C24.5285 8.49271 24.769 7.65539 25.3702 7.29653C25.9714 6.93768 26.813 7.17692 27.1737 7.775L29.9392 12.4401C30.2999 13.0382 30.0594 13.8755 29.4583 14.2343C29.2178 14.354 28.9773 14.354 28.7368 14.354Z" fill="#001C41"/>
<path d="M12.3848 31.2199C12.1443 31.2199 11.9038 31.2199 11.7836 31.1003L7.09428 28.4687C6.49309 28.1098 6.25261 27.3921 6.61333 26.794C6.97404 26.196 7.69547 25.9567 8.29666 26.3156L12.9859 28.9472C13.5871 29.306 13.8276 30.0237 13.4669 30.6218C13.2264 30.9807 12.8657 31.2199 12.3848 31.2199Z" fill="#001C41"/>
<path d="M42.6846 90.6698C40.5204 90.6698 38.5966 90.0717 36.9132 88.7559C36.312 88.3971 36.1918 87.5598 36.6727 86.9617C37.0335 86.3636 37.8751 86.244 38.4763 86.7224C39.7989 87.6794 41.2418 88.1578 42.8049 88.1578C46.893 88.1578 50.2596 84.8086 50.2596 80.7416C50.2596 80.0239 50.8608 79.4258 51.5823 79.4258C52.3037 79.4258 52.9049 80.0239 52.9049 80.7416C52.6644 86.1243 48.2156 90.6698 42.6846 90.6698Z" fill="#001C41"/>
<path d="M14.7894 60.8849C14.068 60.8849 13.4668 60.2868 13.4668 59.5691C13.4668 55.6218 15.1501 51.9136 18.1561 49.2821C16.112 47.129 14.9097 44.3778 14.9097 41.3873C14.9097 37.3203 17.1942 33.4926 20.8013 31.4591C20.8013 31.3395 20.8013 31.3395 20.8013 31.2199C20.8013 25.5978 24.8894 20.9328 30.3001 19.9758C31.9835 15.55 36.312 12.5596 41.1216 12.5596C47.4942 12.5596 52.6644 17.7031 52.6644 24.0428C52.6644 24.7605 52.0632 25.3586 51.3418 25.3586C50.6204 25.3586 50.0192 24.7605 50.0192 24.0428C50.0192 19.1385 46.0513 15.1911 41.1216 15.1911C37.1537 15.1911 33.6668 17.8227 32.5847 21.6505C32.4644 22.1289 31.9835 22.4878 31.5025 22.6074C26.9335 23.0859 23.4466 26.9136 23.4466 31.4591C23.4466 31.6983 23.4466 32.0572 23.4466 32.2964C23.4466 32.7749 23.2061 33.373 22.7251 33.6122C19.5989 35.0476 17.5549 38.2773 17.5549 41.6266C17.5549 44.3778 18.7573 46.8897 21.0418 48.684C21.4025 48.9232 21.5227 49.2821 21.5227 49.7605C21.5227 50.1194 21.2823 50.5979 20.9216 50.7175C17.9156 52.751 16.112 56.2199 16.112 59.8084C16.112 60.2868 15.5108 60.8849 14.7894 60.8849Z" fill="#001C41"/>
<path d="M22.8453 92.4641C22.8453 92.4641 22.725 92.4641 22.8453 92.4641L18.6369 92.1052C18.156 92.1052 17.675 91.6267 17.5548 91.1483L16.7131 88.0382C16.2322 87.799 15.7512 87.5598 15.2703 87.3205L12.2643 88.3971C11.7834 88.6363 11.1822 88.3971 10.8215 88.0382L8.17623 84.9282C7.81552 84.5693 7.81552 83.9712 8.056 83.4928L9.73933 80.7416C9.49885 80.2631 9.37861 79.665 9.25838 79.1865L6.37266 77.8708C5.89171 77.6315 5.531 77.1531 5.65123 76.555L6.01195 72.488C6.01195 72.0095 6.4929 71.531 6.97385 71.4114L10.1 70.5741C10.3405 70.0956 10.581 69.6172 10.8215 69.1387L9.61909 65.909C9.37862 65.4306 9.61909 64.8325 9.97981 64.4736L13.106 61.842C13.4667 61.4832 14.0679 61.4832 14.5489 61.7224L17.3143 63.3971C17.7953 63.1578 18.3965 63.0382 18.8774 62.9186L20.2 60.0478C20.4405 59.5693 20.9215 59.3301 21.5227 59.3301L25.6108 59.6889C26.0917 59.6889 26.5727 60.1674 26.6929 60.6459L27.5346 63.7559C28.0155 63.9952 28.4965 64.2344 28.9774 64.4736L31.9834 63.3971C32.4643 63.1578 33.0655 63.3971 33.4262 63.7559L36.0715 66.866C36.4322 67.2248 36.4322 67.8229 36.1917 68.3014L34.5084 71.0526C34.7489 71.531 34.8691 72.1291 34.9893 72.6076L37.875 73.9234C38.356 74.1626 38.7167 74.6411 38.5965 75.2392L38.4762 79.4258C38.4762 79.9043 37.9953 80.3827 37.5143 80.5023L34.3881 81.3397C34.1477 81.8181 33.9072 82.2966 33.6667 82.7751L34.7489 85.7655C34.9893 86.244 34.7489 86.8421 34.3881 87.2009L31.2619 89.8325C30.9012 90.1913 30.3 90.1913 29.8191 89.9521L27.0536 88.2775C26.5727 88.5167 25.9715 88.6363 25.4905 88.7559L24.0477 91.7464C23.8072 92.2248 23.3262 92.4641 22.8453 92.4641ZM19.7191 89.5933L22.0036 89.8325L23.206 87.2009C23.3262 86.8421 23.6869 86.6028 24.1679 86.4832C25.0096 86.3636 25.731 86.1243 26.4524 85.7655C26.8131 85.6459 27.2941 85.6459 27.6548 85.8851L30.1798 87.4401L31.9834 86.0047L30.9012 83.2535C30.781 82.8947 30.781 82.4162 31.0215 82.0574C31.5024 81.3397 31.8631 80.7416 32.1036 79.9043C32.2239 79.5454 32.5846 79.1865 32.9453 79.1865L35.831 78.4688L36.0715 76.1961L33.4262 74.9999C33.0655 74.8803 32.825 74.5215 32.7048 74.043C32.5846 73.2057 32.3441 72.488 31.9834 71.7703C31.8631 71.4114 31.8631 70.933 32.1036 70.5741L33.6667 68.0621L32.2239 66.2679L29.4584 67.3444C29.0977 67.4641 28.6167 67.4641 28.256 67.2248C27.5346 66.7464 26.8131 66.3875 26.0917 66.1483C25.731 66.0286 25.3703 65.6698 25.3703 65.3109L24.6489 62.4401L22.3643 62.2009L21.1619 64.8325C21.0417 65.1913 20.681 65.4306 20.2 65.5502C19.3584 65.6698 18.6369 65.909 17.9155 66.2679C17.5548 66.3875 17.0739 66.3875 16.7131 66.1483L14.1881 64.5932L12.3846 66.0286L13.4667 68.7798C13.5869 69.1387 13.5869 69.6172 13.3465 69.976C12.8655 70.6937 12.5048 71.4114 12.2643 72.1291C12.1441 72.488 11.7834 72.8468 11.4227 72.8468L8.53695 73.5645L8.29647 75.8373L10.9417 77.0334C11.3024 77.1531 11.5429 77.5119 11.6631 77.9904C11.7834 78.8277 12.0239 79.5454 12.3846 80.2631C12.5048 80.622 12.5048 81.1004 12.2643 81.4593L10.7012 83.9712L12.1441 85.7655L14.9096 84.6889C15.2703 84.5693 15.7512 84.5693 16.1119 84.8086C16.8334 85.287 17.4346 85.6459 18.2762 85.8851C18.6369 86.0047 18.9977 86.3636 18.9977 86.7224L19.7191 89.5933ZM22.2441 82.6554C22.0036 82.6554 21.7631 82.6554 21.6429 82.6554C19.8393 82.5358 18.156 81.5789 16.9536 80.2631C15.7512 78.8277 15.2703 77.0334 15.3905 75.2392C15.7512 71.531 19.1179 68.6602 22.8453 69.0191C24.6489 69.1387 26.3322 70.0956 27.5346 71.4114C28.7369 72.8468 29.2179 74.6411 29.0977 76.4354C28.9774 78.2296 28.0155 79.9043 26.6929 81.1004C25.3703 82.177 23.8072 82.6554 22.2441 82.6554ZM22.2441 71.531C20.0798 71.531 18.156 73.2057 17.9155 75.4784C17.7953 76.6746 18.156 77.7511 18.8774 78.5885C19.5989 79.4258 20.681 80.0239 21.7631 80.1435C22.9655 80.2631 24.0477 79.9042 24.8893 79.1865C25.731 78.4688 26.3322 77.3923 26.4524 76.3157C26.5727 75.1196 26.212 74.043 25.4905 73.2057C24.7691 72.3684 23.6869 71.7703 22.6048 71.6507C22.4846 71.531 22.3643 71.531 22.2441 71.531Z" fill="#001C41"/>
<path d="M42.4442 28.4687C42.0835 28.4687 41.843 28.3491 41.4823 28.1099C41.0013 27.6314 41.0013 26.7941 41.4823 26.3156L49.418 18.4209C49.899 17.9424 50.7406 17.9424 51.2216 18.4209C51.7025 18.8993 51.7025 19.7367 51.2216 20.2151L43.2859 28.1099C43.0454 28.3491 42.8049 28.4687 42.4442 28.4687Z" fill="#001C41"/>
<path d="M39.5581 34.0909C38.3557 34.0909 37.1533 33.6124 36.3117 32.7751C34.5081 30.9809 34.5081 28.11 36.3117 26.3158C37.1533 25.4785 38.3557 25 39.5581 25C40.7605 25 41.9629 25.4785 42.8045 26.3158C43.6462 27.1531 44.1271 28.3493 44.1271 29.5455C44.1271 30.7416 43.6462 31.9378 42.8045 32.7751C41.9629 33.6124 40.7605 34.0909 39.5581 34.0909ZM39.5581 27.512C38.9569 27.512 38.476 27.7512 38.1152 28.11C37.2736 28.9474 37.2736 30.1435 38.1152 30.9809C38.9569 31.8182 40.1593 31.8182 41.0009 30.9809C41.3617 30.622 41.6021 30.1435 41.6021 29.5455C41.6021 28.9474 41.3617 28.4689 41.0009 28.11C40.6402 27.7512 40.039 27.512 39.5581 27.512Z" fill="#001C41"/>
<path d="M51.5821 71.7703H47.013C46.2916 71.7703 45.6904 71.2918 45.6904 70.5741C45.6904 69.8564 46.2916 69.2583 47.013 69.2583H51.5821C52.3035 69.2583 52.9047 69.8564 52.9047 70.5741C52.9047 71.2918 52.3035 71.7703 51.5821 71.7703Z" fill="#001C41"/>
<path d="M43.2858 74.7608C40.7608 74.7608 38.7168 72.7273 38.7168 70.2154C38.7168 67.7034 40.7608 65.6699 43.2858 65.6699C45.8108 65.6699 47.8549 67.7034 47.8549 70.2154C47.8549 72.7273 45.8108 74.7608 43.2858 74.7608ZM43.2858 68.1819C42.2037 68.1819 41.2418 69.1388 41.2418 70.2154C41.2418 71.2919 42.2037 72.2489 43.2858 72.2489C44.368 72.2489 45.3299 71.2919 45.3299 70.2154C45.3299 69.0192 44.4882 68.1819 43.2858 68.1819Z" fill="#001C41"/>
<path d="M31.9831 44.9762C29.4581 44.9762 27.4141 42.9427 27.4141 40.4307C27.4141 37.9187 29.4581 35.8853 31.9831 35.8853C34.5081 35.8853 36.5522 37.9187 36.5522 40.4307C36.5522 42.9427 34.5081 44.9762 31.9831 44.9762ZM31.9831 38.2776C30.901 38.2776 29.9391 39.2345 29.9391 40.3111C29.9391 41.3876 30.901 42.3446 31.9831 42.3446C33.0653 42.3446 34.0272 41.3876 34.0272 40.3111C34.0272 39.2345 33.1855 38.2776 31.9831 38.2776Z" fill="#001C41"/>
<path d="M42.8049 51.5553C40.2799 51.5553 38.2358 49.5218 38.2358 47.0098C38.2358 44.4978 40.2799 42.4644 42.8049 42.4644C45.3299 42.4644 47.3739 44.4978 47.3739 47.0098C47.3739 49.5218 45.3299 51.5553 42.8049 51.5553ZM42.8049 44.9763C41.7227 44.9763 40.7608 45.9333 40.7608 47.0098C40.7608 48.0864 41.7227 49.0433 42.8049 49.0433C43.887 49.0433 44.8489 48.0864 44.8489 47.0098C44.8489 45.8136 43.887 44.9763 42.8049 44.9763Z" fill="#001C41"/>
<path d="M29.2177 39.2345C28.9772 39.2345 28.6165 39.1149 28.376 38.9953L21.4022 33.2537C20.801 32.7752 20.801 32.0575 21.282 31.4594C21.763 30.8613 22.4844 30.8613 23.0856 31.3398L30.0594 37.0814C30.6606 37.5599 30.6606 38.2776 30.1796 38.8757C29.9391 38.9953 29.5784 39.2345 29.2177 39.2345Z" fill="#001C41"/>
<path d="M35.1096 56.5792H27.0537C26.6929 56.5792 26.4525 56.4596 26.212 56.2203L19.4787 50.3591C18.9977 49.8806 18.8775 49.0433 19.3584 48.5648C19.8394 48.0864 20.681 47.9667 21.162 48.4452L27.5346 53.9476H34.6287L39.6787 48.9237C40.1596 48.4452 41.0013 48.4452 41.4822 48.9237C41.9632 49.4022 41.9632 50.2395 41.4822 50.7179L35.9513 56.2203C35.7108 56.4596 35.4703 56.5792 35.1096 56.5792Z" fill="#001C41"/>
<path d="M9.01786 59.6889H1.32262C0.60119 59.6889 0 59.0909 0 58.3731V50.7176C0 49.9999 0.60119 49.4019 1.32262 49.4019H9.01786C9.73929 49.4019 10.3405 49.9999 10.3405 50.7176V58.3731C10.3405 59.0909 9.73929 59.6889 9.01786 59.6889ZM2.525 57.177H7.69524V52.0334H2.525V57.177Z" fill="#001C41"/>
<path d="M51.8228 100C47.2538 100 42.805 99.4021 38.4764 98.0863C37.755 97.8471 37.3943 97.1294 37.6347 96.5313C37.8752 95.8136 38.5966 95.4547 39.1978 95.694C43.2859 96.8901 47.4943 97.4882 51.8228 97.4882C64.5681 97.4882 76.8323 92.1054 85.4895 82.7753C85.9704 82.2968 86.8121 82.1772 87.2931 82.6557C87.774 83.1341 87.8942 83.9715 87.4133 84.4499C78.155 94.3782 65.2895 100 51.8228 100Z" fill="#001C41"/>
</g>
<defs>
<clipPath id="clip0">
<rect width="101" height="100" fill="white"/>
</clipPath>
</defs>
</svg>
