<svg width="370" height="370" viewBox="0 0 370 370" fill="none" xmlns="http://www.w3.org/2000/svg">
<path d="M187.064 158.395C187.064 158.064 187.064 157.734 187.064 157.074C186.075 139.574 166.308 131.32 155.107 144.197C151.483 139.904 145.882 137.593 139.952 137.923C131.387 138.914 124.139 146.508 123.15 155.753C123.15 156.744 123.15 157.404 123.15 158.395C123.15 164.338 125.786 169.951 130.069 173.583L155.107 195.705L180.145 173.583C184.428 169.951 187.064 164.338 187.064 158.395Z" fill="#F56464"/>
<path d="M137.646 168.96H117.22C115.244 168.96 113.596 167.309 113.596 165.328C113.596 163.347 115.244 161.696 117.22 161.696H139.623C140.941 161.696 141.929 162.356 142.588 163.347L143.576 164.998L148.189 146.838C148.518 145.187 149.836 144.196 151.483 144.196C153.13 144.196 154.448 145.187 155.107 146.508L160.378 161.696H184.758C186.734 161.696 188.382 163.347 188.382 165.328C188.382 167.309 186.734 168.96 184.758 168.96H158.072C156.425 168.96 155.107 167.969 154.778 166.649L152.472 160.045L148.848 174.243C148.518 175.564 147.53 176.554 145.883 176.884C142.917 177.215 141.929 175.233 137.646 168.96Z" fill="#001C41"/>
<path d="M149.508 197.356L118.21 172.262C111.951 167.309 108.327 159.715 108.327 152.121C108.327 137.923 119.199 126.697 132.706 125.376C139.624 124.716 146.543 126.697 151.814 130.989C168.945 117.452 193.654 129.008 195.301 150.14C195.301 150.8 195.301 151.13 195.301 151.791C195.301 159.385 191.678 166.979 185.418 171.932L154.12 197.026C152.802 198.346 150.826 198.346 149.508 197.356ZM133.035 132.64C123.481 133.631 115.245 141.555 115.245 152.121C115.245 157.734 117.881 163.017 122.493 166.649L151.814 189.761L181.135 166.319C185.747 162.687 188.383 157.073 188.383 151.791C188.383 151.46 188.383 151.13 188.383 150.47C187.065 133.631 166.639 125.706 154.45 138.253C153.132 139.574 150.826 139.574 149.178 138.253C145.225 134.291 139.295 131.98 133.035 132.64Z" fill="#001C41"/>
<path d="M258.556 137.263H212.433C210.456 137.263 208.809 135.612 208.809 133.631C208.809 131.649 210.456 129.999 212.433 129.999H258.885C260.862 129.999 262.509 131.649 262.509 133.631C262.509 135.612 260.532 137.263 258.556 137.263Z" fill="#001C41"/>
<path d="M258.556 156.413H236.483C234.507 156.413 232.859 154.763 232.859 152.781C232.859 150.8 234.507 149.149 236.483 149.149H258.556C260.533 149.149 262.18 150.8 262.18 152.781C262.18 154.763 260.533 156.413 258.556 156.413Z" fill="#001C41"/>
<path d="M218.032 156.413H209.796C207.819 156.413 206.172 154.763 206.172 152.781C206.172 150.8 207.819 149.149 209.796 149.149H218.032C220.009 149.149 221.656 150.8 221.656 152.781C221.656 154.763 220.009 156.413 218.032 156.413Z" fill="#001C41"/>
<path d="M258.555 175.894H205.184C203.207 175.894 201.56 174.243 201.56 172.262C201.56 170.281 203.207 168.63 205.184 168.63H258.555C260.532 168.63 262.179 170.281 262.179 172.262C262.179 174.243 260.532 175.894 258.555 175.894Z" fill="#001C41"/>
<path d="M258.554 194.384H186.075C181.463 194.384 181.463 187.12 186.075 187.12H258.554C260.531 187.12 262.178 188.771 262.178 190.752C262.178 192.733 260.531 194.384 258.554 194.384Z" fill="#001C41"/>
<path d="M130.071 209.903H113.927V256.459H130.071V209.903Z" fill="#5EBCD6"/>
<path d="M152.472 228.393H136.329V256.458H152.472V228.393Z" fill="#5EBCD6"/>
<path d="M179.158 236.647H163.015V256.458H179.158V236.647Z" fill="#5EBCD6"/>
<path d="M240.436 233.015L254.602 211.554C255.59 209.903 257.897 209.572 259.544 210.563C261.191 211.554 261.52 213.865 260.532 215.516L246.366 236.978C243.73 240.94 237.8 236.978 240.436 233.015Z" fill="#001C41"/>
<path d="M229.893 240.94L215.726 232.355C211.773 230.044 215.397 223.77 219.35 226.082L233.517 234.666C235.164 235.657 235.823 237.968 234.835 239.619C233.517 241.27 231.54 241.93 229.893 240.94Z" fill="#001C41"/>
<path d="M187.394 251.506L200.901 230.374C203.537 226.412 209.467 230.374 206.831 234.336L193.324 255.468C190.688 259.1 184.758 255.468 187.394 251.506Z" fill="#001C41"/>
<path d="M209.468 235.987C203.867 235.987 199.255 231.364 199.255 225.751C199.255 220.138 203.867 215.516 209.468 215.516C215.068 215.516 219.681 220.138 219.681 225.751C220.01 231.364 215.398 235.987 209.468 235.987ZM206.503 225.751C206.503 230.044 212.762 230.044 212.762 225.751C212.762 221.459 206.503 221.459 206.503 225.751Z" fill="#001C41"/>
<path d="M239.118 251.505C233.517 251.505 228.905 246.883 228.905 241.27C228.905 235.657 233.517 231.034 239.118 231.034C244.719 231.034 249.331 235.657 249.331 241.27C249.331 246.883 244.719 251.505 239.118 251.505ZM235.823 241.27C235.823 245.562 242.083 245.562 242.083 241.27C242.083 236.977 235.823 236.977 235.823 241.27Z" fill="#001C41"/>
<path d="M78.6758 305.986C78.6758 304.004 77.0286 302.354 75.0519 302.354C73.0752 302.354 71.4279 304.004 71.4279 305.986C71.0985 310.938 78.6758 310.938 78.6758 305.986Z" fill="#001C41"/>
<path d="M294.466 101.933C292.489 101.933 290.842 103.584 290.842 105.565C290.842 107.546 292.489 109.197 294.466 109.197C299.407 109.527 299.407 101.933 294.466 101.933Z" fill="#001C41"/>
<path d="M274.698 91.6973C274.698 85.754 269.756 80.8013 263.826 80.8013H104.043C98.1124 80.8013 93.1707 85.754 93.1707 91.6973V107.546H274.698V91.6973Z" fill="#5EBCD6"/>
<path d="M199.585 273.958C196.62 278.911 192.666 277.921 180.147 277.921C177.182 277.921 174.876 276.27 173.229 273.958H48.3672V275.94C48.3672 283.534 54.6267 289.807 62.2041 289.807H309.292C316.869 289.807 323.129 283.534 323.129 275.94V273.958H199.585Z" fill="#F56464"/>
<path d="M90.5356 270.986V106.886C90.5356 104.905 92.1829 103.254 94.1596 103.254C96.1363 103.254 97.7836 104.905 97.7836 106.886V270.986C97.7836 275.609 90.5356 275.609 90.5356 270.986Z" fill="#001C41"/>
<path d="M274.698 270.986V106.886C274.698 102.263 281.946 102.263 281.946 106.886V270.986C281.946 275.609 274.698 275.609 274.698 270.986Z" fill="#001C41"/>
<path d="M290.841 92.0277C290.841 78.4902 279.64 67.264 266.132 67.264H184.758C182.781 67.264 181.134 65.6131 181.134 63.632C181.134 61.6509 182.781 60 184.758 60H266.132C283.593 60 298.089 74.1978 298.089 92.0277C298.089 96.6502 290.841 96.6502 290.841 92.0277Z" fill="#001C41"/>
<path d="M277.993 110.518H94.1596C92.1829 110.518 90.5356 108.867 90.5356 106.886V92.0275C90.5356 83.4427 97.7836 76.1787 106.349 76.1787H266.133C274.698 76.1787 281.946 83.4427 281.946 92.0275V106.886C281.946 109.197 279.969 110.518 277.993 110.518ZM97.7835 103.254H274.698V92.0275C274.698 87.0747 270.745 83.1125 266.133 83.1125H106.349C101.737 83.1125 97.7835 87.0747 97.7835 91.6973V103.254Z" fill="#001C41"/>
<path d="M52.6499 273.958V137.593C52.6499 130.329 58.58 124.056 66.1574 124.056H90.5367C92.5134 124.056 94.1606 125.707 94.1606 127.688C94.1606 129.669 92.5134 131.32 90.5367 131.32H66.1574C62.5334 131.32 59.8978 134.291 59.8978 137.593V273.958C59.8978 278.581 52.6499 278.581 52.6499 273.958Z" fill="#001C41"/>
<path d="M311.597 273.958V137.593C311.597 133.961 308.632 131.32 305.338 131.32H280.958C276.346 131.32 276.346 124.056 280.958 124.056H305.338C312.585 124.056 318.845 129.999 318.845 137.593V273.958C318.845 278.581 311.597 278.581 311.597 273.958Z" fill="#001C41"/>
<path d="M68.4619 271.317V144.527C68.4619 141.885 70.4386 139.904 73.0742 139.904H90.5351C92.5118 139.904 94.159 141.555 94.159 143.536C94.159 145.517 92.5118 147.168 90.5351 147.168H75.7098V271.317C75.7098 275.939 68.4619 275.939 68.4619 271.317Z" fill="#001C41"/>
<path d="M295.782 269.336V147.168H280.957C278.98 147.168 277.333 145.517 277.333 143.536C277.333 141.555 278.98 139.904 280.957 139.904H298.418C301.054 139.904 303.03 141.885 303.03 144.527V269.336C303.03 273.958 295.782 273.958 295.782 269.336Z" fill="#001C41"/>
<path d="M309.29 293.109H62.2028C52.6487 293.109 44.7419 285.184 44.7419 275.609V273.628C44.7419 271.647 46.3892 269.996 48.3659 269.996C183.111 269.996 174.875 269.336 176.193 271.647C176.851 272.968 178.499 273.958 179.816 273.958C192.994 273.958 194.642 274.619 196.289 271.647C196.948 270.656 198.266 269.996 199.254 269.996H322.798C324.774 269.996 326.422 271.647 326.422 273.628V275.609C326.751 285.515 318.844 293.109 309.29 293.109ZM51.9898 277.26C52.6487 282.213 56.9316 285.845 62.2028 285.845H309.29C314.232 285.845 318.515 282.213 319.503 277.26H201.231C196.948 282.213 192.665 281.222 180.146 281.222C176.851 281.222 173.557 279.901 171.58 277.26H51.9898Z" fill="#001C41"/>
<path d="M298.749 309.287H88.23C83.6177 309.287 83.6177 302.023 88.23 302.023H298.749C300.725 302.023 302.373 303.674 302.373 305.655C302.373 307.637 300.725 309.287 298.749 309.287Z" fill="#001C41"/>
<path d="M330.376 293.109H303.032C298.419 293.109 298.419 285.845 303.032 285.845H330.376C332.353 285.845 334 287.496 334 289.477C334 291.458 332.353 293.109 330.376 293.109Z" fill="#001C41"/>
<path d="M70.4392 293.109H40.4592C35.8469 293.109 35.8469 285.845 40.4592 285.845H70.4392C72.4159 285.845 74.0631 287.496 74.0631 289.477C74.0631 291.458 72.4159 293.109 70.4392 293.109Z" fill="#001C41"/>
<path d="M108.327 94.0091C108.327 99.292 116.563 99.292 116.563 94.0091C116.563 88.7261 108.327 88.7261 108.327 94.0091Z" fill="#001C41"/>
<path d="M122.821 94.0091C122.821 99.292 131.057 99.292 131.057 94.0091C130.728 88.7261 122.821 88.7261 122.821 94.0091Z" fill="#001C41"/>
<path d="M136.988 94.0091C136.988 99.292 145.225 99.292 145.225 94.0091C145.225 88.7261 136.988 88.7261 136.988 94.0091Z" fill="#001C41"/>
</svg>
