<svg width="370" height="370" viewBox="0 0 370 370" fill="none" xmlns="http://www.w3.org/2000/svg">
<path fill-rule="evenodd" clip-rule="evenodd" d="M110.408 125.528V125.559C110.408 125.551 110.412 125.539 110.412 125.531C110.408 125.531 110.412 125.528 110.408 125.528Z" fill="#5EBCD6"/>
<path fill-rule="evenodd" clip-rule="evenodd" d="M165.887 105.926C163.532 104.412 161.082 103.474 158.91 102.899C154.164 106.32 149.087 108.105 144.126 108.105H143.576C138.528 108.227 133.264 106.442 128.334 102.84H128.307C126.103 103.415 123.592 104.322 121.146 105.926C112.558 111.337 110.347 120.394 109.761 125.577C109.777 125.581 109.761 125.6 109.761 125.6C118.177 134.744 130.295 140.462 143.732 140.462C156.981 140.462 168.948 134.894 177.304 125.963C176.782 120.82 174.67 111.495 165.887 105.926Z" fill="#5EBCD6"/>
<path fill-rule="evenodd" clip-rule="evenodd" d="M164.613 131.169V120.256C164.613 118.569 163.236 117.2 161.537 117.2C159.839 117.2 158.462 118.569 158.462 120.256V134.091C153.595 135.949 148.385 136.944 143.082 136.944C137.779 136.944 132.569 135.953 127.703 134.099V120.256C127.703 118.569 126.325 117.2 124.627 117.2C122.928 117.2 121.551 118.569 121.551 120.256V131.181C118.134 129.223 114.97 126.807 112.179 123.954C113.008 118.597 115.439 111.875 122.075 107.672C123.545 106.705 125.179 105.941 127.038 105.348C132.144 108.774 137.587 110.514 142.926 110.382H143.483C148.661 110.382 153.956 108.671 158.878 105.419C160.62 105.992 162.23 106.753 163.692 107.696C170.413 111.978 172.816 118.836 173.597 124.292C170.909 126.99 167.882 129.291 164.613 131.169ZM167.025 102.558C164.694 101.053 162.066 99.9029 159.219 99.1388C158.943 99.0552 158.646 99.0114 158.338 99.0114H158.334H158.33H158.326H158.322C157.649 99.0114 157.024 99.2343 156.515 99.6044C152.302 102.657 147.792 104.269 143.483 104.269H142.85C138.477 104.38 133.787 102.745 129.437 99.5487C129.009 99.2303 128.484 99.0353 127.947 98.9716C127.831 98.9557 127.711 98.9478 127.591 98.9478H127.587H127.583H127.575H127.567C127.278 98.9517 127.002 98.9915 126.738 99.0632C123.682 99.8711 121.046 101.017 118.727 102.546C109.043 108.679 106.524 118.975 105.887 124.602C105.871 124.718 105.863 124.833 105.863 124.948C105.863 125 105.863 125.056 105.863 125.108C105.867 125.108 105.867 125.112 105.867 125.112C105.879 125.442 105.943 125.756 106.051 126.051C106.18 126.393 106.368 126.716 106.624 127.002V127.006C106.64 127.022 106.652 127.038 106.664 127.05C115.988 137.223 129.261 143.057 143.082 143.057C156.716 143.057 169.836 137.362 179.08 127.436C179.681 126.791 179.973 125.928 179.885 125.056C179.312 119.349 176.877 108.834 167.025 102.558Z" fill="#001C41"/>
<path fill-rule="evenodd" clip-rule="evenodd" d="M126.966 61.6396C127.408 60.1561 128.545 57.3438 131.205 55.186C135.251 51.9096 140.67 51.8699 143 51.8501H143.209H143.575H143.848H144.077C146.391 51.8699 151.811 51.9096 155.853 55.186C158.516 57.3438 159.653 60.1561 160.095 61.6396C160.131 61.7666 160.168 61.8895 160.2 62.0165C159.497 61.5008 158.749 61.0923 157.95 60.7987C154.824 59.6444 152.201 60.4854 149.662 61.2985C148.014 61.8261 146.307 62.3735 144.198 62.4885C143.752 62.5123 143.314 62.5123 142.864 62.4885C140.751 62.3735 139.047 61.8261 137.4 61.2985C135.753 60.771 134.073 60.2355 132.241 60.2355C131.249 60.2355 130.209 60.3941 129.112 60.7987C128.312 61.0923 127.565 61.4968 126.862 62.0125C126.894 61.8895 126.93 61.7666 126.966 61.6396ZM161.643 77.6767C161.201 79.1126 160.309 80.0487 159.815 80.4771C159.345 80.8857 159.011 81.4251 158.863 82.0241C158.32 84.1581 156.842 88.2239 153.017 91.4646C149.875 94.1063 146.629 95.4788 143.773 95.4431C143.716 95.4431 143.363 95.4431 143.307 95.4431C140.442 95.5065 137.184 94.1063 134.034 91.4566C130.213 88.2199 128.739 84.1581 128.196 82.0241C128.044 81.4251 127.714 80.8857 127.244 80.4771C126.75 80.0487 125.858 79.1166 125.396 77.6132C125.071 76.6176 124.926 75.1936 125.067 74.5867C125.107 74.5788 125.143 74.559 125.183 74.551C125.336 74.5114 125.485 74.4717 125.629 74.4082C125.822 74.3289 125.999 74.2297 126.168 74.1147C126.276 74.0433 126.368 73.96 126.465 73.8727C126.585 73.7656 126.698 73.6506 126.798 73.5237C126.879 73.4285 126.951 73.3372 127.019 73.2302C127.14 73.0398 127.236 72.8375 127.317 72.6233C127.329 72.5796 127.361 72.5479 127.373 72.5043C128.373 69.1961 129.759 67.0661 131.278 66.5068C132.331 66.1141 133.391 66.4195 135.492 67.0938C137.328 67.6809 139.614 68.4147 142.535 68.5734C142.865 68.5892 143.19 68.6011 143.515 68.6011H143.532C143.853 68.5972 144.194 68.5892 144.532 68.5734C147.449 68.4147 149.735 67.6809 151.571 67.0938C153.672 66.4195 154.729 66.1141 155.789 66.5068C157.284 67.0581 158.662 69.1882 159.662 72.5003C159.979 73.5554 160.851 74.3091 161.904 74.559C161.932 74.5669 161.96 74.5828 161.988 74.5867C162.133 75.2015 161.984 76.6256 161.643 77.6767ZM119.51 79.4416C120.209 81.7184 121.463 83.3606 122.447 84.3721C123.327 87.351 125.38 92.1545 130.04 96.1013C134.403 99.7744 139.108 101.674 143.603 101.536C143.736 101.539 143.864 101.539 143.997 101.539C148.292 101.539 152.788 99.6633 157.042 96.0815C161.674 92.1545 163.727 87.351 164.607 84.3721C165.592 83.3606 166.845 81.7264 167.528 79.5051C167.753 78.8189 169.521 73.0752 166.283 70.0924C166.857 67.5894 167.215 63.96 166.013 59.926C165.375 57.7682 163.715 53.6746 159.77 50.4776C154.041 45.8367 146.837 45.7772 144.138 45.7573H143.848H143.575H143.21H142.936C140.225 45.7772 133.021 45.8367 127.292 50.4776C123.351 53.6707 121.687 57.7642 121.045 59.922C119.839 63.9719 120.217 67.6727 120.763 70.1201C117.561 73.1506 119.305 78.8189 119.51 79.4416Z" fill="#001C41"/>
<mask id="mask0" mask-type="alpha" maskUnits="userSpaceOnUse" x="63" y="25" width="245" height="160">
<path fill-rule="evenodd" clip-rule="evenodd" d="M63 184.572H307.193V25H63V184.572Z" fill="white"/>
</mask>
<g mask="url(#mask0)">
<path fill-rule="evenodd" clip-rule="evenodd" d="M89.129 157.166H299.251V32.9456H89.129V157.166ZM303.222 165.112H85.1567C82.9604 165.112 81.1851 163.336 81.1851 161.139V28.9728C81.1851 26.7798 82.9604 25 85.1567 25H303.222C305.418 25 307.194 26.7798 307.194 28.9728V161.139C307.194 163.336 305.418 165.112 303.222 165.112Z" fill="#001C41"/>
<path fill-rule="evenodd" clip-rule="evenodd" d="M110.376 183.274H86.6305C73.5978 183.274 63 172.648 63 159.589V125.588C63 123.773 64.4657 122.3 66.277 122.3C68.0884 122.3 69.5581 123.773 69.5581 125.588V159.589C69.5581 169.025 77.2164 176.701 86.6305 176.701H110.376C112.187 176.701 113.657 178.174 113.657 179.986C113.657 181.801 112.187 183.274 110.376 183.274Z" fill="#001C41"/>
<path fill-rule="evenodd" clip-rule="evenodd" d="M124.049 176.788C121.896 176.788 120.152 178.53 120.152 180.68C120.152 182.83 121.896 184.572 124.049 184.572C126.201 184.572 127.946 182.83 127.946 180.68C127.946 178.53 126.201 176.788 124.049 176.788Z" fill="#001C41"/>
</g>
<path fill-rule="evenodd" clip-rule="evenodd" d="M210.483 131.381H216.528V93.9062H210.483V131.381Z" fill="#001C41"/>
<path fill-rule="evenodd" clip-rule="evenodd" d="M220.155 131.381H226.199V93.9062H220.155V131.381Z" fill="#001C41"/>
<path fill-rule="evenodd" clip-rule="evenodd" d="M229.824 139.844H235.869V93.9062H229.824V139.844Z" fill="#001C41"/>
<path fill-rule="evenodd" clip-rule="evenodd" d="M239.498 126.546H245.542V93.9062H239.498V126.546Z" fill="#001C41"/>
<path fill-rule="evenodd" clip-rule="evenodd" d="M235.775 70.3182C237.496 70.3182 238.892 68.8655 238.892 67.0749C238.892 65.2843 237.496 63.8315 235.775 63.8315H210.836C209.115 63.8315 207.719 65.2843 207.719 67.0749C207.719 68.8655 209.115 70.3182 210.836 70.3182H235.775Z" fill="#001C41"/>
<path fill-rule="evenodd" clip-rule="evenodd" d="M263.084 70.3182C264.787 70.3182 266.169 68.8655 266.169 67.0749C266.169 65.2843 264.787 63.8315 263.084 63.8315H244.575C242.872 63.8315 241.49 65.2843 241.49 67.0749C241.49 68.8655 242.872 70.3182 244.575 70.3182H263.084Z" fill="#001C41"/>
<path fill-rule="evenodd" clip-rule="evenodd" d="M210.771 48.2637C209.085 48.2637 207.718 49.7164 207.718 51.507C207.718 53.2976 209.085 54.7503 210.771 54.7503H265.714C267.399 54.7503 268.766 53.2976 268.766 51.507C268.766 49.7164 267.399 48.2637 265.714 48.2637H210.771Z" fill="#001C41"/>
<path fill-rule="evenodd" clip-rule="evenodd" d="M210.771 78.1025C209.086 78.1025 207.719 79.5553 207.719 81.3459C207.719 83.1365 209.086 84.5892 210.771 84.5892H265.714C267.4 84.5892 268.767 83.1365 268.767 81.3459C268.767 79.5553 267.4 78.1025 265.714 78.1025H210.771Z" fill="#001C41"/>
<path fill-rule="evenodd" clip-rule="evenodd" d="M249.167 131.381H255.212V93.9062H249.167V131.381Z" fill="#001C41"/>
<path fill-rule="evenodd" clip-rule="evenodd" d="M249.167 139.843H255.212V133.799H249.167V139.843Z" fill="#001C41"/>
<path fill-rule="evenodd" clip-rule="evenodd" d="M258.839 139.843H264.883V133.799H258.839V139.843Z" fill="#001C41"/>
<path fill-rule="evenodd" clip-rule="evenodd" d="M239.498 139.843H245.542V133.799H239.498V139.843Z" fill="#001C41"/>
<path fill-rule="evenodd" clip-rule="evenodd" d="M220.155 139.843H226.199V133.799H220.155V139.843Z" fill="#001C41"/>
<path fill-rule="evenodd" clip-rule="evenodd" d="M210.483 139.843H216.528V133.799H210.483V139.843Z" fill="#001C41"/>
<path fill-rule="evenodd" clip-rule="evenodd" d="M258.839 131.381H264.883V93.9062H258.839V131.381Z" fill="#001C41"/>
<path fill-rule="evenodd" clip-rule="evenodd" d="M211.22 289.019L218.092 271.611H183.529L190.401 289.019L180.817 322.302C180.448 323.58 180.263 324.899 180.263 326.226C180.263 334.106 186.724 340.517 194.665 340.517H206.955C216.453 340.517 223.439 331.473 220.803 322.302L211.22 289.019Z" fill="#5EBCD6"/>
<path fill-rule="evenodd" clip-rule="evenodd" d="M235.005 220.838H165.372C159.436 220.838 159.436 229.839 165.372 229.839H172.786V258.08C172.786 260.886 174.478 263.295 176.931 264.357H223.024C225.47 263.285 227.143 260.832 227.143 258.08V229.839H235.005C237.481 229.839 239.497 227.819 239.497 225.338C239.497 222.857 237.481 220.838 235.005 220.838Z" fill="#5EBCD6"/>
<mask id="mask1" mask-type="alpha" maskUnits="userSpaceOnUse" x="102" y="142" width="183" height="203">
<path fill-rule="evenodd" clip-rule="evenodd" d="M102.894 344.144H284.226V142.261H102.894V344.144Z" fill="white"/>
</mask>
<g mask="url(#mask1)">
<path fill-rule="evenodd" clip-rule="evenodd" d="M121.028 232.927H127.072V162.812H121.028V232.927Z" fill="#001C41"/>
<path fill-rule="evenodd" clip-rule="evenodd" d="M136.743 232.927H142.787V162.812H136.743V232.927Z" fill="#001C41"/>
<path fill-rule="evenodd" clip-rule="evenodd" d="M152.458 201.496H158.503V164.021H152.458V201.496Z" fill="#001C41"/>
<path fill-rule="evenodd" clip-rule="evenodd" d="M168.174 201.496H174.218V164.021H168.174V201.496Z" fill="#001C41"/>
<path fill-rule="evenodd" clip-rule="evenodd" d="M182.681 201.496H188.725V164.021H182.681V201.496Z" fill="#001C41"/>
<path fill-rule="evenodd" clip-rule="evenodd" d="M198.396 201.496H204.441V164.021H198.396V201.496Z" fill="#001C41"/>
<path fill-rule="evenodd" clip-rule="evenodd" d="M214.111 201.496H220.156V164.021H214.111V201.496Z" fill="#001C41"/>
<path fill-rule="evenodd" clip-rule="evenodd" d="M229.827 201.496H235.871V164.021H229.827V201.496Z" fill="#001C41"/>
<path fill-rule="evenodd" clip-rule="evenodd" d="M245.544 232.927H251.588V162.812H245.544V232.927Z" fill="#001C41"/>
<path fill-rule="evenodd" clip-rule="evenodd" d="M261.257 232.927H267.302V162.812H261.257V232.927Z" fill="#001C41"/>
<path fill-rule="evenodd" clip-rule="evenodd" d="M235.871 333.868C235.871 329.837 229.827 329.84 229.827 333.868C229.827 337.899 235.871 337.897 235.871 333.868Z" fill="#001C41"/>
<path fill-rule="evenodd" clip-rule="evenodd" d="M216.123 267.985H174.625C167.736 267.985 162.13 262.271 162.13 255.25V229.662C162.13 225.958 167.634 225.955 167.634 229.662V255.25C167.634 259.179 170.77 262.378 174.625 262.378H216.123C219.978 262.378 223.114 259.179 223.114 255.25V230.132C223.114 226.427 228.618 226.422 228.618 230.132V255.25C228.618 262.271 223.012 267.985 216.123 267.985Z" fill="#001C41"/>
<path fill-rule="evenodd" clip-rule="evenodd" d="M230.498 324.495C230.498 319.562 230.226 319.759 221.469 288.415C221.061 286.955 221.889 285.433 223.314 285.017C224.742 284.597 226.227 285.444 226.637 286.904L234.651 315.596C235.461 318.486 235.872 321.48 235.872 324.495C235.872 328.126 230.498 328.131 230.498 324.495Z" fill="#001C41"/>
<path fill-rule="evenodd" clip-rule="evenodd" d="M203.472 344.144H190.899C179.702 344.144 170.591 335.118 170.591 324.027C170.591 322.156 170.853 320.296 171.375 318.498L180.647 286.352L172.215 267.008C171.603 265.608 172.254 263.981 173.667 263.378C175.078 262.774 176.72 263.416 177.332 264.819L186.158 285.067C186.759 286.447 186.881 284.831 176.733 320.016C176.357 321.321 176.168 322.67 176.168 324.027C176.168 332.074 182.776 338.622 190.899 338.622H203.472C213.203 338.622 220.34 329.363 217.641 320.016L208.094 286.919C207.694 285.54 207.598 286.48 217.041 264.819C218.499 261.471 223.624 263.652 222.159 267.008L213.727 286.352C223.805 321.293 223.782 320.247 223.782 324.027C223.782 335.118 214.671 344.144 203.472 344.144Z" fill="#001C41"/>
<path fill-rule="evenodd" clip-rule="evenodd" d="M104.104 211.167H281.809V199.079H104.104V211.167Z" fill="#F56464"/>
<path fill-rule="evenodd" clip-rule="evenodd" d="M102.894 165.118V144.812C102.894 143.403 104.023 142.261 105.415 142.261H125.781C129.111 142.261 129.116 147.363 125.781 147.363H107.936V165.118C107.936 168.488 102.894 168.493 102.894 165.118Z" fill="#5EBCD6"/>
<path fill-rule="evenodd" clip-rule="evenodd" d="M125.732 269.193H105.443C104.036 269.193 102.895 268.011 102.895 266.552V245.216C102.895 241.729 107.992 241.722 107.992 245.216V263.911H125.732C127.14 263.911 128.281 265.093 128.281 266.552C128.281 268.011 127.14 269.193 125.732 269.193Z" fill="#5EBCD6"/>
<path fill-rule="evenodd" clip-rule="evenodd" d="M279.183 165.118V147.363H261.339C258.009 147.363 258.004 142.261 261.339 142.261H281.705C283.097 142.261 284.226 143.403 284.226 144.812V165.118C284.226 168.488 279.183 168.493 279.183 165.118Z" fill="#5EBCD6"/>
<path fill-rule="evenodd" clip-rule="evenodd" d="M281.675 269.193H261.369C257.999 269.193 257.994 263.911 261.369 263.911H279.124V245.217C279.124 241.728 284.226 241.723 284.226 245.217V266.552C284.226 268.011 283.084 269.193 281.675 269.193Z" fill="#5EBCD6"/>
<path fill-rule="evenodd" clip-rule="evenodd" d="M160.891 215.513C157.963 215.513 155.581 217.902 155.581 220.838C155.581 223.775 157.963 226.163 160.891 226.163H231.065C233.993 226.163 236.375 223.775 236.375 220.838C236.375 217.902 233.993 215.513 231.065 215.513H160.891ZM231.065 231.718H160.891C154.909 231.718 150.042 226.838 150.042 220.838C150.042 214.839 154.909 209.958 160.891 209.958H231.065C237.048 209.958 241.917 214.839 241.917 220.838C241.917 226.838 237.048 231.718 231.065 231.718Z" fill="#001C41"/>
<path fill-rule="evenodd" clip-rule="evenodd" d="M192.945 246.225C192.945 251.83 201.428 251.83 201.428 246.225C201.428 240.62 192.945 240.62 192.945 246.225ZM197.186 255.896C191.854 255.896 187.517 251.557 187.517 246.225C187.517 240.893 191.854 236.554 197.186 236.554C202.519 236.554 206.859 240.893 206.859 246.225C206.859 251.557 202.519 255.896 197.186 255.896Z" fill="#001C41"/>
<path fill-rule="evenodd" clip-rule="evenodd" d="M210.124 289.745H183.039C181.506 289.745 180.263 288.392 180.263 286.721C180.263 285.053 181.506 283.7 183.039 283.7H210.124C211.659 283.7 212.903 285.053 212.903 286.721C212.903 288.392 211.659 289.745 210.124 289.745Z" fill="#001C41"/>
<path fill-rule="evenodd" clip-rule="evenodd" d="M127.047 247.434L121.028 247.414L121.053 241.389L127.072 241.408L127.047 247.434Z" fill="#001C41"/>
<path fill-rule="evenodd" clip-rule="evenodd" d="M142.762 247.434L136.743 247.414L136.768 241.389L142.787 241.408L142.762 247.434Z" fill="#001C41"/>
<path fill-rule="evenodd" clip-rule="evenodd" d="M127.047 247.434L121.028 247.414L121.053 241.389L127.072 241.408L127.047 247.434Z" fill="#001C41"/>
<path fill-rule="evenodd" clip-rule="evenodd" d="M142.762 247.434L136.743 247.414L136.768 241.389L142.787 241.408L142.762 247.434Z" fill="#001C41"/>
<path fill-rule="evenodd" clip-rule="evenodd" d="M251.563 247.434L245.544 247.414L245.569 241.389L251.588 241.411L251.563 247.434Z" fill="#001C41"/>
<path fill-rule="evenodd" clip-rule="evenodd" d="M267.277 247.434L261.257 247.414L261.283 241.389L267.302 241.408L267.277 247.434Z" fill="#001C41"/>
<path fill-rule="evenodd" clip-rule="evenodd" d="M204.172 299.415H190.201C188.719 299.415 187.517 298.063 187.517 296.392C187.517 294.724 188.719 293.371 190.201 293.371H204.172C205.654 293.371 206.859 294.724 206.859 296.392C206.859 298.063 205.654 299.415 204.172 299.415Z" fill="#001C41"/>
</g>
</svg>
