<svg width="370" height="370" viewBox="0 0 370 370" fill="none" xmlns="http://www.w3.org/2000/svg">
<path d="M161.909 167.418C168.881 167.418 174.533 161.774 174.533 154.812C174.533 147.85 168.881 142.206 161.909 142.206C154.937 142.206 149.286 147.85 149.286 154.812C149.286 161.774 154.937 167.418 161.909 167.418Z" fill="#F56464"/>
<path d="M287.147 49.6494H194.132C189.149 49.6494 185.163 53.6303 185.163 58.6065V106.709L163.57 128.272H193.8H195.461H286.483C291.466 128.272 295.452 124.291 295.452 119.315V58.6065C296.116 53.6303 292.13 49.6494 287.147 49.6494Z" fill="#5EBCD6"/>
<path d="M281.832 146.187C283.85 146.187 285.486 144.553 285.486 142.537C285.486 140.522 283.85 138.888 281.832 138.888C279.814 138.888 278.178 140.522 278.178 142.537C278.178 144.553 279.814 146.187 281.832 146.187Z" fill="#001C41"/>
<path d="M330.333 210.875C332.351 210.875 333.987 209.242 333.987 207.226C333.987 205.211 332.351 203.577 330.333 203.577C328.314 203.577 326.678 205.211 326.678 207.226C326.678 209.242 328.314 210.875 330.333 210.875Z" fill="#001C41"/>
<path d="M282.496 201.588C283.825 200.261 284.157 197.938 282.829 196.612C279.174 192.631 273.859 190.64 267.548 190.64C256.917 190.64 250.273 195.948 247.284 205.9C246.619 207.891 247.948 209.881 249.941 210.213C250.273 210.213 250.606 210.213 250.938 210.213C252.599 210.213 253.927 209.218 254.26 207.559C256.253 200.592 260.239 197.607 267.548 197.607C272.198 197.607 275.52 198.934 277.513 201.256C278.842 202.915 281.168 202.915 282.496 201.588Z" fill="#001C41"/>
<path d="M299.438 256.657C309.404 256.657 318.041 248.032 320.366 236.421C320.699 236.089 321.031 235.757 321.031 235.094C325.017 225.473 323.024 214.194 316.048 207.227C311.397 202.583 304.753 200.261 298.109 200.261C291.798 200.592 286.15 202.915 282.164 207.227C276.184 213.862 274.856 223.814 278.51 232.771C279.506 246.041 288.476 256.657 299.438 256.657ZM298.109 207.559C303.092 207.559 307.743 209.218 311.065 212.535C315.051 216.516 317.045 222.819 315.716 228.791C315.051 228.459 314.387 228.127 313.723 227.464C311.729 226.137 310.068 224.81 308.075 223.151C306.082 221.161 304.089 219.17 302.428 216.848C301.763 215.853 300.767 215.521 299.438 215.521C298.442 215.521 297.113 216.184 296.448 217.18C294.787 219.834 292.462 222.156 290.137 224.146C288.476 225.473 286.815 226.8 284.821 227.795C284.489 228.127 283.825 228.127 283.493 228.459C281.832 222.819 283.16 216.848 286.815 212.867C290.137 209.218 293.791 207.559 298.109 207.559ZM299.438 249.359C292.794 249.359 287.147 243.056 285.486 234.762C288.808 233.103 292.13 231.113 295.12 228.791C296.781 227.464 298.442 225.805 299.77 224.146C300.767 225.473 302.096 226.468 303.092 227.795C306.082 230.781 309.404 233.103 313.058 235.094C311.729 243.387 306.082 249.359 299.438 249.359Z" fill="#001C41"/>
<path d="M322.36 250.686C321.695 250.022 320.699 249.69 319.702 250.022C318.706 250.022 318.041 250.686 317.377 251.349C312.726 257.321 306.414 260.306 299.438 260.306C292.794 260.306 286.483 256.989 281.5 251.349C280.171 249.69 277.846 249.69 276.517 250.686C274.856 252.013 274.856 254.335 275.852 255.662C282.164 263.292 290.137 267.273 299.106 267.273C306.747 267.273 314.055 264.287 319.702 258.316C324.685 263.624 327.675 270.59 327.675 277.889V310.068C327.675 312.058 329.336 313.717 331.329 313.717C333.322 313.717 334.983 312.058 334.983 310.068V277.889C335.316 267.605 330.665 257.321 322.36 250.686Z" fill="#001C41"/>
<path d="M321.031 274.571C319.038 274.571 317.377 276.23 317.377 278.22V310.399C317.377 312.389 319.038 314.048 321.031 314.048C323.024 314.048 324.685 312.389 324.685 310.399V278.22C324.685 275.898 323.024 274.571 321.031 274.571Z" fill="#001C41"/>
<path d="M47.6336 96.7566C47.9658 100.074 49.2946 103.391 51.6199 106.045V125.95C51.6199 127.94 53.2809 129.599 55.2741 129.599C57.2673 129.599 58.9282 127.94 58.9282 125.95V110.69C60.5892 111.021 61.918 111.353 63.579 111.353C65.5722 111.353 67.2332 109.695 67.2332 107.704C67.2332 105.714 65.5722 104.055 63.579 104.055C62.2502 104.055 59.9248 103.723 57.9317 102.064C55.6063 100.074 53.9453 96.7566 55.2741 94.4344C55.6063 94.1026 56.2707 92.7757 57.2673 92.7757C58.5961 92.4439 61.5858 94.4344 62.9146 98.4153C63.579 100.074 64.9078 101.069 66.5688 100.737C68.2297 100.737 69.5585 99.4105 69.8907 98.0835L71.2195 92.7757C71.5517 91.1169 73.2127 90.1217 74.8737 90.4535C77.199 91.1169 79.8566 91.1169 82.5142 91.1169C86.5005 91.1169 89.8225 90.4535 92.8123 89.79H93.1445C93.4767 89.79 94.8054 89.4582 96.4664 88.7947C97.7952 95.7613 98.1274 103.06 97.7952 110.026C97.463 114.671 96.7986 117.325 96.1342 120.642C95.802 121.305 95.802 121.969 95.4698 122.964C95.1376 123.959 94.4732 124.955 93.4767 125.286C91.4835 125.95 89.1581 126.282 87.1649 125.95C80.1888 125.286 76.2025 120.642 74.8737 119.315C73.5449 117.656 71.5517 117.656 69.8907 118.652C68.2297 119.979 68.2297 121.969 69.2263 123.628C70.5551 125.286 74.5415 129.599 81.1854 131.921V135.902C81.1854 137.893 82.8464 139.551 84.8396 139.551C86.8327 139.551 88.4937 137.893 88.4937 135.902V132.916C90.8191 132.916 93.4767 132.585 95.802 131.921C99.124 130.926 101.782 127.94 102.778 124.291C103.11 123.628 103.11 122.964 103.443 122.301C104.439 118.652 105.104 115.666 105.436 110.358C106.1 101.733 105.436 93.4391 103.775 84.8138C105.768 83.1551 107.761 80.8329 109.09 77.8473C111.747 71.2124 110.086 65.241 109.09 62.9188C108.425 61.2601 106.432 60.2649 104.771 60.9284C100.785 62.2554 97.1308 62.5871 93.1445 62.2554C89.4903 61.9236 87.1649 60.5967 84.5074 59.6014C81.5176 58.2745 78.5278 56.6157 73.2127 56.6157C64.9078 56.284 58.5961 58.2745 53.6131 62.2554C48.298 66.2363 46.3048 71.5441 45.6404 73.2029C41.9862 82.8234 44.6438 91.7804 45.9726 95.0979C46.637 95.7613 46.9692 96.4248 47.6336 96.7566ZM52.2843 75.8568C52.9487 74.5298 54.2775 70.5489 58.2639 67.5632C63.579 63.2506 70.2229 63.5823 72.2161 63.5823C75.8703 63.5823 77.8634 64.5776 80.521 65.9045C83.1786 67.2315 86.5005 68.8902 91.4835 69.222C95.1376 69.5537 98.7918 69.5537 102.446 68.5585C102.778 70.2172 102.778 72.5394 101.782 74.8616C101.117 76.852 99.7884 78.179 98.4596 79.1742H98.1274C94.8054 81.1647 89.1581 83.4869 82.5142 83.4869C80.521 83.4869 78.5278 83.1551 76.5347 82.8234C71.5517 82.4916 66.901 84.8138 64.9078 88.7947C62.2502 86.4726 58.9282 85.1456 55.6063 85.8091C53.9453 86.1408 52.6165 86.8043 51.6199 87.7995C50.9555 84.4821 50.6233 80.1694 52.2843 75.8568Z" fill="#001C41"/>
<path d="M217.054 215.52V201.255C217.054 200.26 216.389 198.933 215.725 198.269C214.728 197.606 213.732 197.274 212.403 197.606L192.471 203.909V176.374L201.773 180.023C202.769 180.355 204.098 180.687 205.095 180.687C206.423 180.687 207.42 180.355 208.749 180.023C211.074 179.028 212.735 177.37 213.4 175.047C214.396 172.725 214.396 170.403 213.4 168.081C212.403 165.759 210.742 164.1 208.417 163.436L177.855 151.494C176.858 146.517 173.204 141.873 168.221 139.883C164.234 138.224 159.916 138.224 155.93 139.883C151.943 141.541 148.953 144.527 147.292 148.508C145.632 152.489 145.632 156.802 147.292 160.782C148.953 164.763 151.943 167.749 155.93 169.408C157.923 170.071 159.916 170.403 161.909 170.403C165.231 170.403 168.221 169.408 170.878 167.749C170.878 167.749 170.878 167.749 171.211 167.749L185.495 173.389V205.899L174.865 209.217H174.533C173.536 205.899 170.546 202.914 166.892 202.582L129.354 202.914C129.022 202.914 128.689 202.582 128.025 202.582H125.035H117.063H103.775C103.443 192.63 102.446 183.673 100.785 177.37C97.1308 165.759 92.4801 154.148 87.165 143.2C86.5006 142.205 85.504 141.21 84.1752 141.21C78.8601 140.878 73.8771 140.214 68.8942 138.556C64.2434 137.229 59.9249 135.238 55.6063 132.584C54.6097 131.921 53.6131 131.921 52.6166 132.253C51.62 132.584 50.9556 133.248 50.2912 134.243C43.6473 150.167 38.9965 166.754 36.6711 183.673C34.0136 203.245 35.0102 255.329 36.3389 267.603C36.6711 269.262 37.9999 270.589 39.9931 270.589H42.9829L49.6268 303.1V320.682C49.6268 322.673 51.2878 324.331 53.2809 324.331C55.2741 324.331 56.9351 322.673 56.9351 320.682V302.768C56.9351 302.436 56.9351 302.436 56.9351 302.105L50.6234 270.589H96.4665V317.033C96.4665 319.024 98.1274 320.682 100.121 320.682C102.114 320.682 103.775 319.024 103.775 317.033V270.589C103.775 269.926 103.443 269.262 103.443 268.93C103.775 268.267 104.107 267.603 104.107 266.94C104.107 263.954 104.107 258.978 104.439 253.339L114.737 250.021V320.682C114.737 322.673 116.398 324.331 118.391 324.331C120.385 324.331 122.046 322.673 122.046 320.682V249.358C122.046 249.026 122.046 248.362 121.713 248.031L200.776 223.482V320.682C200.776 322.673 202.437 324.331 204.43 324.331C206.423 324.331 208.084 322.673 208.084 320.682V221.16L216.057 218.837C216.057 218.506 217.054 217.179 217.054 215.52ZM170.878 156.47C170.878 157.133 170.546 157.465 170.214 158.128C169.882 158.792 169.55 159.124 169.217 159.787C167.556 162.109 164.899 163.768 161.909 163.768C160.58 163.768 159.584 163.768 158.255 163.105C155.93 162.109 154.269 160.451 153.272 158.46C152.275 156.138 152.275 153.816 153.272 151.494C154.269 149.171 155.93 147.513 157.923 146.517C158.919 146.186 160.248 145.854 161.577 145.854C162.574 145.854 163.902 146.186 164.899 146.517C166.228 146.849 167.224 147.844 167.889 148.508C170.214 150.83 171.211 153.484 170.878 156.47ZM176.858 160.782C177.19 160.119 177.19 159.787 177.522 159.124L205.759 170.403C206.423 170.735 206.756 171.066 206.756 171.398C206.756 171.73 207.088 172.062 206.756 172.725C206.423 173.389 206.091 173.72 205.759 173.72C205.759 173.72 205.427 173.72 205.095 173.72C204.762 173.72 204.762 173.72 204.43 173.72L191.475 168.744L188.485 167.417L176.194 162.441C176.526 162.109 176.858 161.446 176.858 160.782ZM131.679 210.212H166.56C167.224 210.212 167.556 211.207 167.556 211.871L160.248 214.193L131.347 223.15V210.212H131.679ZM120.717 210.212H124.371V225.14L121.713 226.136L121.049 226.467V210.212H120.717ZM97.1309 228.126H86.5006C71.8839 228.126 60.2571 216.183 60.2571 201.918V174.384C60.2571 172.393 58.5961 170.735 56.6029 170.735C54.6097 170.735 52.9488 172.393 52.9488 174.384V201.918C52.9488 220.164 67.8976 235.093 86.1684 235.093H96.7987C96.7987 240.069 96.4665 245.045 96.1343 249.358C96.1343 250.353 96.1343 251.348 96.1343 252.343C95.8021 256.656 95.8021 260.637 95.8021 263.623H45.6404H42.9829C41.9863 247.699 41.6541 201.918 43.6473 185.331C45.6404 170.403 49.6268 155.475 55.2741 141.541C58.9283 143.532 62.5824 144.859 66.5688 146.186C71.5517 147.844 76.5347 148.508 81.5176 148.84C86.5006 158.792 90.8191 169.408 93.8089 180.023C95.4699 185.663 96.4665 193.625 96.7987 202.914H95.4699C89.8225 202.914 85.1718 195.947 85.1718 190.307V168.081C85.1718 166.09 83.5108 164.432 81.5176 164.432C79.5245 164.432 77.8635 166.09 77.8635 168.081V190.307C77.8635 199.596 85.504 210.212 95.4699 210.212H113.741V228.126H104.107H97.1309ZM210.078 212.866L205.427 214.193L200.112 215.852L104.107 245.708C104.107 243.386 104.107 241.064 104.439 238.742L116.73 234.761H117.395L129.022 231.112H129.354C130.018 230.78 131.015 230.448 131.679 230.448C135.001 229.453 138.655 228.126 142.31 227.131L153.604 223.813L162.574 221.16L171.875 218.174L173.204 217.842L210.078 206.231V212.866Z" fill="#001C41"/>
<path d="M163.902 131.59H287.147C294.123 131.59 299.77 125.95 299.77 118.983V58.6062C299.438 51.6396 294.123 46 287.147 46H194.132C187.156 46 181.509 51.6396 181.509 58.6062V105.382L161.245 125.618C160.248 126.613 159.916 128.272 160.58 129.599C160.912 130.926 162.241 131.59 163.902 131.59ZM187.82 109.363C188.485 108.699 188.817 107.704 188.817 106.709V58.6062C188.817 55.6205 191.142 53.2983 194.132 53.2983H287.147C290.137 53.2983 292.462 55.6205 292.462 58.6062V119.315C292.462 122.301 290.137 124.623 287.147 124.623H172.539L187.82 109.363Z" fill="#001C41"/>
<path d="M274.524 67.5635H206.755C204.762 67.5635 203.101 69.2222 203.101 71.2126C203.101 73.2031 204.762 74.8618 206.755 74.8618H274.524C276.517 74.8618 278.178 73.2031 278.178 71.2126C278.178 69.2222 276.517 67.5635 274.524 67.5635Z" fill="#001C41"/>
<path d="M206.755 92.4434H238.979C240.972 92.4434 242.633 90.7846 242.633 88.7942C242.633 86.8037 240.972 85.145 238.979 85.145H206.755C204.762 85.145 203.101 86.8037 203.101 88.7942C203.101 90.7846 204.762 92.4434 206.755 92.4434Z" fill="#001C41"/>
<path d="M267.547 85.145H260.239C258.246 85.145 256.585 86.8037 256.585 88.7942C256.585 90.7846 258.246 92.4434 260.239 92.4434H267.547C269.541 92.4434 271.202 90.7846 271.202 88.7942C270.869 86.8037 269.541 85.145 267.547 85.145Z" fill="#001C41"/>
<path d="M264.225 103.06H206.423C204.762 103.06 203.101 104.718 203.101 106.709C203.101 108.699 204.43 110.358 206.423 110.358H264.225C265.886 110.358 267.547 108.699 267.547 106.709C267.547 104.718 265.886 103.06 264.225 103.06Z" fill="#001C41"/>
<path d="M249.609 267.272C261.568 267.272 271.201 255.329 271.201 240.4C271.201 237.083 270.869 234.429 270.537 231.775C270.537 231.443 270.537 231.112 270.205 230.78C267.215 216.847 257.914 213.529 249.609 213.529C239.975 213.529 228.016 218.174 228.016 240.4C228.016 255.329 237.65 267.272 249.609 267.272ZM249.609 260.305C241.968 260.305 235.989 252.343 235.324 242.059C236.321 239.737 237.65 237.746 239.311 235.756C239.975 235.093 240.639 234.429 241.304 234.097C243.961 235.756 247.615 237.746 252.266 238.742C256.585 239.405 260.571 238.742 263.561 237.746C263.561 238.742 263.561 239.737 263.561 241.064C263.893 251.348 257.581 260.305 249.609 260.305ZM249.609 220.828C254.924 220.828 260.239 222.155 262.564 230.116C260.239 231.112 257.249 231.775 253.595 231.112C248.944 230.448 245.622 227.794 243.961 226.467C242.633 225.472 240.972 225.14 239.643 226.136C238.978 226.799 238.314 227.131 237.317 227.794C239.975 221.823 244.958 220.828 249.609 220.828Z" fill="#001C41"/>
<path d="M272.53 261.3C271.866 260.637 270.869 260.305 269.873 260.637C268.876 260.637 268.212 261.3 267.547 261.964C262.897 267.935 256.585 270.921 249.609 270.921C242.965 270.921 236.653 267.604 231.67 261.964C231.006 261.3 230.342 260.637 229.345 260.637C228.348 260.637 227.352 260.969 226.687 261.3C218.382 268.267 213.732 278.219 213.732 288.835V321.014C213.732 323.005 215.393 324.663 217.386 324.663C219.379 324.663 221.04 323.005 221.04 321.014V288.835C221.04 281.537 223.698 274.57 229.013 269.262C234.66 274.902 241.968 278.219 249.609 278.219C257.249 278.219 264.558 275.234 270.205 269.262C275.188 274.57 278.178 281.537 278.178 288.835V321.014C278.178 323.005 279.839 324.663 281.832 324.663C283.825 324.663 285.486 323.005 285.486 321.014V288.835C285.154 278.219 280.503 268.267 272.53 261.3Z" fill="#001C41"/>
<path d="M231.67 285.187C229.677 285.187 228.016 286.845 228.016 288.836V321.015C228.016 323.005 229.677 324.664 231.67 324.664C233.663 324.664 235.324 323.005 235.324 321.015V288.836C235.324 286.845 233.663 285.187 231.67 285.187Z" fill="#001C41"/>
<path d="M267.548 285.187C265.554 285.187 263.893 286.845 263.893 288.836V321.015C263.893 323.005 265.554 324.664 267.548 324.664C269.541 324.664 271.202 323.005 271.202 321.015V288.836C270.87 286.845 269.541 285.187 267.548 285.187Z" fill="#001C41"/>
<path d="M274.523 142.537C274.523 140.547 272.862 138.888 270.869 138.888H210.077C208.084 138.888 206.423 140.547 206.423 142.537C206.423 144.528 208.084 146.187 210.077 146.187H270.869C272.862 145.855 274.523 144.196 274.523 142.537Z" fill="#001C41"/>
<path d="M294.123 189.645C294.123 191.635 295.784 192.962 297.777 192.962C306.414 192.631 315.052 195.948 321.031 201.919C321.695 202.583 322.692 202.915 323.356 202.915C324.353 202.915 325.35 202.583 326.014 201.919C327.343 200.592 327.343 198.27 326.014 196.943C318.373 189.645 308.075 185.664 297.445 185.996C295.784 186.328 294.123 187.654 294.123 189.645Z" fill="#001C41"/>
</svg>
