<svg width="370" height="370" viewBox="0 0 370 370" fill="none" xmlns="http://www.w3.org/2000/svg">
<path d="M128.644 259.679C127.963 259.679 126.941 259.679 126.26 259.679C118.428 258.999 111.277 255.259 106.51 249.138C101.402 243.017 99.0181 235.537 100.04 227.716C100.04 227.716 100.04 227.716 100.04 227.376C102.764 209.354 115.704 200.173 138.859 200.173H184.83C186.873 200.173 188.575 201.873 188.575 203.914C188.575 205.954 186.873 207.654 184.83 207.654H138.519C119.109 207.654 109.234 214.115 106.85 228.396C106.51 234.177 108.212 239.957 111.958 244.378C115.704 248.798 121.152 251.858 126.941 252.198C131.368 252.538 135.795 251.178 139.2 248.458C142.605 245.738 144.989 241.657 145.329 236.897C145.67 233.497 144.648 230.096 142.605 227.376C140.562 224.656 137.497 222.955 133.751 222.615C128.644 221.935 123.876 226.016 123.195 231.116C122.855 232.816 123.536 234.857 124.898 236.217C125.919 237.577 127.622 238.597 129.665 238.597C133.07 238.937 133.751 235.197 133.751 234.177C134.092 232.136 135.795 230.776 137.838 230.776C139.881 231.116 141.243 232.816 141.243 234.857C140.562 241.997 135.454 246.418 129.325 245.738C125.579 245.398 122.174 243.697 119.79 240.637C117.406 237.577 116.385 234.177 116.725 230.096C117.747 220.915 125.919 214.115 135.113 214.795C140.562 215.475 145.329 217.855 148.734 221.935C152.14 226.016 153.842 231.456 153.161 236.557C152.48 243.017 149.415 248.798 144.308 252.878C139.881 257.979 134.432 259.679 128.644 259.679Z" fill="#001C41"/>
<path d="M241.356 259.679C229.097 259.679 218.541 250.158 217.179 237.577C216.158 226.696 224.33 216.835 235.227 215.475C239.654 215.135 244.08 216.495 247.486 219.215C250.891 221.935 252.934 226.016 253.615 230.436C253.956 234.176 252.934 237.917 250.55 240.977C248.167 244.037 244.761 245.737 241.016 246.078C237.951 246.418 234.546 245.397 232.162 243.357C229.438 241.317 228.076 238.257 227.735 235.196C227.395 233.156 229.097 231.456 231.141 231.116C233.184 230.776 234.886 232.476 235.227 234.516C235.567 237.237 237.951 239.277 240.675 238.937C242.378 238.597 244.08 237.917 245.443 236.557C246.464 235.196 247.145 233.496 247.145 231.456C246.805 226.356 242.037 222.275 236.589 222.955C233.184 223.295 230.119 224.996 227.735 227.716C225.692 230.436 224.671 233.836 225.011 237.237C226.033 246.418 234.205 253.218 243.399 252.538C249.188 251.858 254.637 249.138 258.382 244.717C262.128 240.297 263.831 234.516 263.49 228.736C261.447 214.455 251.231 207.994 231.822 207.994H182.446C180.403 207.994 178.7 206.294 178.7 204.254C178.7 202.213 180.403 200.513 182.446 200.513H231.141C254.296 200.513 267.236 209.694 269.96 227.716C269.96 227.716 269.96 227.716 269.96 228.056C270.641 235.877 268.258 243.357 263.49 249.478C258.382 255.598 251.572 259.339 243.74 260.019C242.718 259.679 242.037 259.679 241.356 259.679Z" fill="#001C41"/>
<path d="M177.338 322.925C175.295 322.925 173.593 321.225 173.593 319.184V218.535C173.593 216.495 175.295 214.794 177.338 214.794C179.382 214.794 181.084 216.495 181.084 218.535V319.184C180.744 321.225 179.382 322.925 177.338 322.925Z" fill="#001C41"/>
<path d="M138.178 323.265C136.135 323.265 134.433 321.565 134.433 319.524C134.433 317.484 136.135 315.784 138.178 315.784C154.524 315.784 157.929 305.583 157.929 289.942V218.535C157.929 216.495 159.631 214.794 161.675 214.794C163.718 214.794 165.42 216.495 165.42 218.535V289.942C165.42 299.122 165.42 323.265 138.178 323.265Z" fill="#001C41"/>
<path d="M192.662 322.925C190.619 322.925 188.916 321.225 188.916 319.184V218.535C188.916 216.495 190.619 214.794 192.662 214.794C194.705 214.794 196.408 216.495 196.408 218.535V319.184C196.408 321.225 194.705 322.925 192.662 322.925Z" fill="#001C41"/>
<path d="M231.822 323.265C204.58 323.265 204.58 299.122 204.58 289.942V218.535C204.58 216.495 206.283 214.794 208.326 214.794C210.369 214.794 212.072 216.495 212.072 218.535V289.942C212.072 305.583 215.477 315.784 231.822 315.784C233.865 315.784 235.568 317.484 235.568 319.524C235.568 321.565 233.865 323.265 231.822 323.265Z" fill="#001C41"/>
<path d="M185.17 174.331C184.83 174.671 184.489 174.671 184.149 175.011L181.424 170.25C175.295 166.51 167.804 165.83 160.653 165.83H153.502H111.617C110.255 165.83 108.893 164.81 108.893 163.11V66.5405H98.6775C95.9534 66.5405 93.5697 68.9208 93.5697 71.641V175.011C93.5697 177.731 95.9534 180.111 98.6775 180.111H152.821C160.653 180.111 168.144 182.152 174.954 185.552L175.976 185.892C178.7 187.252 181.765 187.932 184.83 187.932V174.331H185.17Z" fill="#F56464"/>
<path d="M184.83 190.993C181.424 190.993 178.019 190.312 174.954 188.612L173.933 188.272C167.463 184.872 160.653 183.172 153.502 183.172H99.3586C94.5913 183.172 90.505 179.091 90.505 174.331V70.6211C90.505 65.8607 94.5913 61.7803 99.3586 61.7803H106.85C108.893 61.7803 110.596 63.4804 110.596 65.5206C110.596 67.5608 108.893 69.261 106.85 69.261H99.3586C98.6775 69.261 97.9965 69.941 97.9965 70.6211V173.991C97.9965 174.671 98.6775 175.351 99.3586 175.351H153.502C161.674 175.351 170.187 177.391 177.338 181.472L178.36 181.812C180.403 182.832 182.446 183.512 184.83 183.512C186.873 183.512 188.575 185.212 188.575 187.252C188.235 189.292 186.532 190.993 184.83 190.993Z" fill="#001C41"/>
<path d="M184.83 177.731C184.148 177.731 183.127 177.391 182.786 177.051C176.657 172.631 169.166 169.91 161.674 169.91H112.639C107.872 169.91 103.785 165.83 103.785 161.07V57.6997C103.785 52.9393 107.872 48.8589 112.639 48.8589H165.079C173.592 48.8589 181.765 52.2592 187.894 58.3798C187.894 59.0599 188.235 59.7399 188.235 60.76V173.991C188.235 175.351 187.554 176.711 186.192 177.391C185.851 177.731 185.17 177.731 184.83 177.731ZM154.183 162.77H161.334C168.144 162.77 174.954 164.47 181.084 167.53V62.4602C176.657 58.3798 170.868 56.3396 164.739 56.3396H112.298C111.617 56.3396 110.936 57.0197 110.936 57.6997V161.07C110.936 161.75 111.617 162.43 112.298 162.43L154.183 162.77Z" fill="#001C41"/>
<path d="M169.846 120.946H122.514C120.471 120.946 118.768 119.245 118.768 117.205C118.768 115.165 120.471 113.465 122.514 113.465H169.846C171.89 113.465 173.592 115.165 173.592 117.205C173.592 119.245 171.89 120.946 169.846 120.946Z" fill="#001C41"/>
<path d="M169.846 136.247H122.514C120.471 136.247 118.768 134.547 118.768 132.507C118.768 130.467 120.471 128.767 122.514 128.767H169.846C171.89 128.767 173.592 130.467 173.592 132.507C173.592 134.547 171.89 136.247 169.846 136.247Z" fill="#001C41"/>
<path d="M169.846 74.3611H122.514C120.471 74.3611 118.768 72.6609 118.768 70.6207C118.768 68.5805 120.471 66.8804 122.514 66.8804H169.846C171.89 66.8804 173.592 68.5805 173.592 70.6207C173.592 72.6609 171.89 74.3611 169.846 74.3611Z" fill="#001C41"/>
<path d="M163.717 105.304H122.514C120.471 105.304 118.768 103.604 118.768 101.564C118.768 99.5234 120.471 97.8232 122.514 97.8232H163.717C165.76 97.8232 167.463 99.5234 167.463 101.564C167.463 103.604 165.76 105.304 163.717 105.304Z" fill="#001C41"/>
<path d="M150.096 151.889H122.514C120.471 151.889 118.768 150.189 118.768 148.149C118.768 146.108 120.471 144.408 122.514 144.408H150.096C152.139 144.408 153.842 146.108 153.842 148.149C153.842 150.189 151.799 151.889 150.096 151.889Z" fill="#001C41"/>
<path d="M169.847 151.889H161.334C159.291 151.889 157.588 150.189 157.588 148.149C157.588 146.108 159.291 144.408 161.334 144.408H169.847C171.89 144.408 173.593 146.108 173.593 148.149C173.593 150.189 171.89 151.889 169.847 151.889Z" fill="#001C41"/>
<path d="M169.846 89.6628H153.501C151.458 89.6628 149.756 87.9627 149.756 85.9225C149.756 83.8823 151.458 82.1821 153.501 82.1821H169.846C171.89 82.1821 173.592 83.8823 173.592 85.9225C173.592 87.9627 171.89 89.6628 169.846 89.6628Z" fill="#001C41"/>
<path d="M142.264 89.6628H122.514C120.471 89.6628 118.768 87.9627 118.768 85.9225C118.768 83.8823 120.471 82.1821 122.514 82.1821H142.264C144.307 82.1821 146.01 83.8823 146.01 85.9225C146.01 87.9627 144.307 89.6628 142.264 89.6628Z" fill="#001C41"/>
<path d="M184.83 174.331C185.17 174.671 185.511 174.671 185.852 175.011L188.576 170.25C194.705 166.51 202.197 165.83 209.348 165.83H216.499H258.383C259.745 165.83 261.107 164.81 261.107 163.11V66.5405H271.323C274.047 66.5405 276.43 68.9208 276.43 71.641V175.011C276.43 177.731 274.047 180.111 271.323 180.111H216.839C209.007 180.111 201.516 182.152 194.705 185.552L193.684 185.892C190.959 187.252 187.895 187.932 184.83 187.932V174.331Z" fill="#F56464"/>
<path d="M185.17 190.993C183.127 190.993 181.424 189.292 181.424 187.252C181.424 185.212 183.127 183.512 185.17 183.512C187.213 183.512 189.597 182.832 191.64 181.812L192.662 181.472C200.153 177.391 208.326 175.351 216.498 175.351H270.641C271.322 175.351 272.003 174.671 272.003 173.991V70.6211C272.003 69.941 271.322 69.261 270.641 69.261H263.15C261.447 68.921 259.745 67.5608 259.745 65.5206C259.745 63.4804 261.447 61.7803 263.49 61.7803H270.982C275.749 61.7803 279.835 65.8607 279.835 70.6211V173.991C279.835 178.751 275.749 182.832 270.982 182.832H216.498C209.347 182.832 202.196 184.532 196.067 187.932L195.045 188.612C191.981 189.972 188.575 190.993 185.17 190.993Z" fill="#001C41"/>
<path d="M185.17 177.731C184.489 177.731 184.149 177.731 183.468 177.391C182.105 176.711 181.424 175.351 181.424 173.991V60.7602C181.424 59.7401 181.765 58.72 182.446 58.0399C188.575 51.9194 196.407 48.519 205.261 48.519H257.701C262.469 48.519 266.555 52.5994 266.555 57.3599V160.73C266.555 165.49 262.469 169.571 257.701 169.571H208.666C201.175 169.571 193.683 171.951 187.554 176.711C186.873 177.391 186.192 177.731 185.17 177.731ZM188.916 62.4604V167.53C195.045 164.47 201.856 162.77 208.666 162.77H257.701C258.382 162.77 259.063 162.09 259.063 161.41V57.6999C259.063 57.0198 258.382 56.3398 257.701 56.3398H205.261C199.132 55.9998 193.683 58.38 188.916 62.4604Z" fill="#001C41"/>
<path d="M242.037 120.946H200.153C198.11 120.946 196.407 119.245 196.407 117.205C196.407 115.165 198.11 113.465 200.153 113.465H242.378C244.421 113.465 246.124 115.165 246.124 117.205C246.124 119.245 244.08 120.946 242.037 120.946Z" fill="#001C41"/>
<path d="M247.486 136.247H200.153C198.11 136.247 196.407 134.547 196.407 132.507C196.407 130.467 198.11 128.767 200.153 128.767H247.486C249.529 128.767 251.231 130.467 251.231 132.507C251.231 134.547 249.529 136.247 247.486 136.247Z" fill="#001C41"/>
<path d="M247.486 74.3611H200.153C198.11 74.3611 196.407 72.6609 196.407 70.6207C196.407 68.5805 198.11 66.8804 200.153 66.8804H247.486C249.529 66.8804 251.231 68.5805 251.231 70.6207C251.231 72.6609 249.529 74.3611 247.486 74.3611Z" fill="#001C41"/>
<path d="M247.486 105.304H200.153C198.11 105.304 196.407 103.604 196.407 101.564C196.407 99.5234 198.11 97.8232 200.153 97.8232H247.486C249.529 97.8232 251.231 99.5234 251.231 101.564C251.231 103.604 249.529 105.304 247.486 105.304Z" fill="#001C41"/>
<path d="M231.822 151.889H199.813C197.769 151.889 196.067 150.189 196.067 148.149C196.067 146.108 197.769 144.408 199.813 144.408H231.822C233.865 144.408 235.567 146.108 235.567 148.149C235.567 150.189 233.865 151.889 231.822 151.889Z" fill="#001C41"/>
<path d="M230.46 89.6628H199.813C197.769 89.6628 196.067 87.9627 196.067 85.9225C196.067 83.8823 197.769 82.1821 199.813 82.1821H230.46C232.503 82.1821 234.205 83.8823 234.205 85.9225C234.205 87.9627 232.503 89.6628 230.46 89.6628Z" fill="#001C41"/>
<path d="M55.4313 121.966H38.7457C36.7026 121.966 35 120.266 35 118.226C35 116.186 36.7026 114.485 38.7457 114.485H55.4313C57.4745 114.485 59.1771 116.186 59.1771 118.226C59.1771 120.266 57.4745 121.966 55.4313 121.966Z" fill="#001C41"/>
<path d="M45.2157 156.31C43.5131 156.31 42.151 155.29 41.8105 153.93C41.1294 151.89 42.151 149.849 44.1941 149.169L60.5392 143.729C62.5823 143.049 64.6254 144.069 65.3065 146.109C65.9875 148.149 64.966 150.189 62.9228 150.87L46.5778 156.31C46.2372 156.31 45.5562 156.31 45.2157 156.31Z" fill="#001C41"/>
<path d="M61.5607 92.7234C61.2202 92.7234 60.8797 92.7234 60.5392 92.3834L44.1941 86.9429C42.151 86.6029 41.1294 84.5627 41.8105 82.8625C42.4915 80.8223 44.5346 79.8022 46.5778 80.4823L62.9228 85.9228C64.966 86.6029 65.9875 88.643 65.3065 90.6832C64.6254 91.7033 63.2634 92.7234 61.5607 92.7234Z" fill="#001C41"/>
<path d="M58.4961 189.293C57.4745 189.293 56.1124 188.613 55.4314 187.933C54.4098 186.233 54.7503 183.852 56.1124 182.832L70.7549 172.291C72.4575 171.271 74.8411 171.611 75.8627 172.971C76.8843 174.672 76.5438 177.052 75.1817 178.072L60.5392 188.613C59.8582 189.293 59.1771 189.293 58.4961 189.293Z" fill="#001C41"/>
<path d="M73.137 64.8409C72.456 64.8409 71.7749 64.5008 71.0939 64.1608L56.4514 53.6198C54.7488 52.5997 54.4083 50.2195 55.4299 48.5193C56.4514 46.8192 58.8351 46.4791 60.5377 47.8393L75.1801 58.3803C76.8828 59.4004 77.2233 61.7806 75.8612 63.4807C75.1801 64.5008 74.1586 64.8409 73.137 64.8409Z" fill="#001C41"/>
<path d="M331.254 121.966H314.569C312.526 121.966 310.823 120.266 310.823 118.226C310.823 116.186 312.526 114.485 314.569 114.485H331.254C333.297 114.485 335 116.186 335 118.226C335 120.266 333.297 121.966 331.254 121.966Z" fill="#001C41"/>
<path d="M308.439 92.7241C306.737 92.7241 305.374 91.704 305.034 90.3439C304.353 88.3037 305.374 86.2635 307.418 85.5834L323.763 80.1429C325.806 79.4629 327.849 80.483 328.53 82.5231C329.211 84.5633 328.189 86.6035 326.146 87.2836L309.801 92.7241C309.12 92.7241 308.78 92.7241 308.439 92.7241Z" fill="#001C41"/>
<path d="M324.784 156.31C324.444 156.31 324.103 156.31 323.763 155.97L307.418 150.53C305.374 149.85 304.353 147.809 305.034 145.769C305.715 143.729 307.758 142.709 309.801 143.389L326.146 148.83C328.189 149.51 329.211 151.55 328.53 153.59C327.508 155.29 326.146 156.31 324.784 156.31Z" fill="#001C41"/>
<path d="M296.862 64.8408C295.84 64.8408 294.478 64.1608 293.797 63.4807C292.775 61.7805 293.116 59.4003 294.478 58.3802L309.12 47.8392C310.823 46.8191 313.207 47.1592 314.569 48.5193C315.59 50.2194 315.25 52.5997 313.888 53.6198L299.245 64.1608C298.564 64.5008 297.883 64.8408 296.862 64.8408Z" fill="#001C41"/>
<path d="M311.504 189.293C310.823 189.293 310.142 188.953 309.461 188.613L294.819 178.072C293.116 177.052 292.776 174.672 294.138 172.971C295.159 171.271 297.543 170.931 299.246 172.291L313.888 182.832C315.591 183.853 315.931 186.233 314.569 187.933C313.888 188.953 312.526 189.293 311.504 189.293Z" fill="#001C41"/>
</svg>
