<svg width="68" height="84" viewBox="0 0 68 84" fill="none" xmlns="http://www.w3.org/2000/svg">
<path d="M40.9001 21.5996C39.3001 22.7996 37.4001 23.4996 35.4001 23.4996C33.4001 23.4996 31.5001 22.7996 29.9001 21.5996C26.3001 22.3996 23.6001 25.3996 23.6001 28.8996V50.3996H26.8001V53.5996H29.0001V50.3996H41.9001V53.5996H44.0001V50.3996H47.2001V28.8996C47.3001 25.3996 44.5001 22.3996 40.9001 21.5996Z" fill="#5EBCD6"/>
<path d="M41.6998 78.2998H29.1998C27.8998 78.2998 26.7998 79.3998 26.7998 80.6998V80.9998C26.7998 81.8998 27.4998 82.6998 28.4998 82.6998H42.3998C43.2998 82.6998 44.0998 81.9998 44.0998 80.9998V80.6998C43.9998 79.3998 42.9998 78.2998 41.6998 78.2998Z" fill="#F56464"/>
<path d="M23.6001 78.1998V56.7998C23.6001 56.1998 23.1001 55.6998 22.5001 55.6998C21.9001 55.6998 21.4001 56.1998 21.4001 56.7998V77.1998H21.2001H17.1001V55.7998C17.1001 55.1998 16.6001 54.6998 16.0001 54.6998C15.4001 54.6998 15.0001 55.1998 15.0001 55.7998V77.2998H11.0001H10.8001V50.3998H20.5001C21.1001 50.3998 21.6001 49.8998 21.6001 49.2998C21.6001 48.6998 21.1001 48.1998 20.5001 48.1998H10.8001V35.3998C10.8001 34.7998 10.3001 34.2998 9.7001 34.2998C9.1001 34.2998 8.6001 34.7998 8.6001 35.3998V48.2998H6.4001V32.6998C6.4001 30.1998 8.0001 27.8998 10.5001 26.8998C12.1001 28.0998 14.0001 28.6998 16.0001 28.6998C17.1001 28.6998 19.2001 28.5998 20.8001 27.5998C21.3001 27.2998 21.5001 26.6998 21.2001 26.0998C20.9001 25.5998 20.3001 25.3998 19.7001 25.6998C18.5001 26.3998 16.8001 26.4998 15.9001 26.4998C14.2001 26.4998 12.6001 25.8998 11.2001 24.7998C10.9001 24.5998 10.5001 24.4998 10.2001 24.5998C6.5001 25.7998 4.1001 29.0998 4.1001 32.5998V51.9998C4.1001 53.4998 5.4001 54.6998 6.9001 54.6998H8.3001V78.1998C7.6001 78.7998 7.2001 79.6998 7.2001 80.6998V80.9998C7.2001 82.4998 8.4001 83.6998 9.9001 83.6998H22.0001C23.5001 83.6998 24.7001 82.4998 24.7001 80.9998V80.6998C24.7001 79.6998 24.3001 78.7998 23.6001 78.1998ZM7.1001 52.4998C6.7001 52.4998 6.4001 52.1998 6.4001 51.9998V50.3998H8.5001V52.4998H7.1001ZM22.6001 80.9998C22.6001 81.2998 22.3001 81.5998 22.0001 81.5998H10.2001C9.9001 81.5998 9.6001 81.2998 9.6001 80.9998V80.6998C9.6001 79.9998 10.2001 79.3998 10.9001 79.3998H15.0001C15.0001 79.9998 15.5001 80.4998 16.1001 80.4998C16.7001 80.4998 17.2001 79.9998 17.2001 79.3998H21.3001C22.0001 79.3998 22.6001 79.9998 22.6001 80.6998V80.9998Z" fill="#001C41"/>
<path d="M9.4001 19.3999C10.1001 22.8999 12.8001 25.4999 16.1001 25.4999C19.4001 25.4999 22.1001 22.8999 22.8001 19.3999C24.5001 16.5999 24.5001 13.1999 22.9001 10.6999C21.6001 8.6999 19.0001 7.3999 16.1001 7.3999C13.2001 7.3999 10.6001 8.5999 9.3001 10.6999C7.7001 13.1999 7.8001 16.5999 9.4001 19.3999ZM16.1001 23.3999C13.7001 23.3999 11.7001 21.1999 11.4001 18.3999C11.5001 18.0999 11.6001 17.6999 11.7001 17.1999C11.8001 16.8999 11.9001 16.5999 12.0001 16.1999C12.1001 15.8999 12.2001 15.5999 12.3001 15.2999C13.5001 15.5999 14.8001 15.7999 16.0001 15.7999C17.4001 15.7999 18.7001 15.5999 20.0001 15.2999C20.1001 15.5999 20.2001 15.8999 20.3001 16.1999C20.4001 16.4999 20.5001 16.8999 20.6001 17.1999C20.7001 17.5999 20.8001 17.9999 20.9001 18.3999C20.5001 21.1999 18.5001 23.3999 16.1001 23.3999ZM11.1001 11.8999C12.0001 10.4999 13.9001 9.5999 16.1001 9.5999C18.3001 9.5999 20.2001 10.4999 21.1001 11.8999C21.4001 12.2999 21.6001 12.7999 21.7001 13.2999C21.8001 13.6999 21.9001 14.0999 21.9001 14.4999C21.8001 14.1999 21.7001 13.9999 21.6001 13.6999C21.4001 13.2999 21.0001 13.0999 20.6001 13.0999C20.5001 13.0999 20.4001 13.0999 20.2001 13.1999C19.8001 13.2999 19.4001 13.4999 19.1001 13.4999C18.1001 13.7999 17.0001 13.8999 16.0001 13.8999C15.0001 13.8999 14.1001 13.7999 13.1001 13.4999C12.7001 13.3999 12.3001 13.2999 12.0001 13.1999C11.5001 12.9999 10.9001 13.2999 10.7001 13.7999C10.6001 14.0999 10.5001 14.2999 10.4001 14.5999C10.4001 14.1999 10.5001 13.7999 10.6001 13.3999C10.6001 12.7999 10.9001 12.2999 11.1001 11.8999Z" fill="#001C41"/>
<path d="M65.4998 32.7998C65.2998 30.5998 64.2998 28.5998 62.5998 27.1998C61.6998 26.3998 60.5998 25.6998 59.3998 25.1998C59.0998 25.0998 58.7998 25.0998 58.4998 25.1998C55.8998 26.4998 52.9998 26.4998 50.3998 25.1998C49.8998 24.8998 49.1998 25.0998 48.9998 25.6998C48.6998 26.1998 48.8998 26.8998 49.4998 27.0998C51.0998 27.8998 52.7998 28.3998 54.5998 28.3998C56.1998 28.3998 57.6998 28.0998 59.1998 27.3998C59.9998 27.7998 60.6998 28.2998 61.3998 28.8998C62.5998 29.9998 63.3998 31.4998 63.4998 33.0998L64.9998 48.2998H62.4998L61.1998 36.7998C61.0998 36.1998 60.5998 35.7998 59.9998 35.8998C59.3998 35.9998 58.9998 36.4998 59.0998 37.0998L60.7998 52.6998H50.4998C49.8998 52.6998 49.3998 53.1998 49.3998 53.7998C49.3998 54.3998 49.8998 54.8998 50.4998 54.8998H60.5998L58.8998 77.4998H55.5998V56.7998C55.5998 56.1998 55.0998 55.6998 54.4998 55.6998C53.8998 55.6998 53.3998 56.1998 53.3998 56.7998V77.1998H50.0998L48.4998 56.8998C48.4998 56.2998 47.8998 55.8998 47.2998 55.8998C46.6998 55.8998 46.2998 56.4998 46.2998 57.0998L47.9998 77.7998C46.9998 78.3998 46.3998 79.4998 46.5998 80.7998C46.7998 82.1998 47.8998 83.6998 49.7998 83.6998H58.6998C60.7998 83.6998 61.8998 81.9998 61.8998 80.4998C61.8998 79.5998 61.5998 78.6998 60.8998 78.0998L62.6998 54.7998H64.4998C66.0998 54.7998 67.2998 53.5998 67.2998 52.0998V51.9998L65.4998 32.7998ZM58.6998 81.4998H49.7998C48.8998 81.4998 48.6998 80.5998 48.6998 80.4998C48.6998 80.1998 48.6998 79.5998 49.3998 79.3998C49.5998 79.2998 49.8998 79.2998 50.1998 79.2998H53.3998C53.3998 79.8998 53.8998 80.3998 54.4998 80.3998C55.0998 80.3998 55.5998 79.8998 55.5998 79.2998H58.8998C59.7998 79.2998 59.8998 80.0998 59.8998 80.2998C59.7998 80.4998 59.7998 81.4998 58.6998 81.4998ZM64.4998 52.4998H62.7998L62.5998 50.3998H65.0998L65.2998 51.9998C65.1998 52.2998 64.8998 52.4998 64.4998 52.4998Z" fill="#001C41"/>
<path d="M65.6999 57.8999C65.0999 57.8999 64.5999 58.2999 64.4999 58.8999L63.3999 73.7999C63.3999 74.3999 63.7999 74.8999 64.3999 74.9999H64.4999C65.0999 74.9999 65.4999 74.5999 65.5999 73.9999L66.6999 59.0999C66.7999 58.4999 66.2999 57.9999 65.6999 57.8999Z" fill="#001C41"/>
<path d="M35.4002 21.3998C39.5002 21.3998 42.9002 17.4998 42.9002 12.7998C42.9002 11.2998 42.6002 9.8998 41.9002 8.5998C43.2002 6.7998 43.3002 4.0998 42.2002 1.5998C42.1002 1.2998 41.9002 1.0998 41.6002 0.999805C41.3002 0.899805 41.0002 0.899805 40.8002 0.999805C39.6002 1.5998 38.4002 1.8998 37.2002 2.0998C35.8002 2.2998 34.9002 2.1998 34.0002 2.0998C32.8002 1.9998 31.7002 1.7998 30.4002 2.4998C27.4002 3.7998 26.6002 7.0998 26.6002 7.0998C25.8002 10.0998 27.3002 12.5998 27.9002 13.4998C28.3002 17.9998 31.5002 21.3998 35.4002 21.3998ZM35.4002 19.2998C32.5002 19.2998 30.2002 16.5998 30.0002 13.1998C30.0002 13.1998 30.0002 13.1998 30.0002 13.0998C30.0002 12.9998 30.0002 12.8998 30.0002 12.8998V12.6998C29.9002 11.7998 30.1002 10.8998 30.5002 9.9998C30.7002 9.3998 31.1002 8.8998 31.4002 8.5998C33.0002 9.9998 35.0002 10.7998 37.1002 10.7998C38.3002 10.7998 39.4002 10.5998 40.3002 9.9998C40.6002 10.7998 40.8002 11.7998 40.8002 12.6998C40.8002 16.3998 38.4002 19.2998 35.4002 19.2998ZM28.7002 7.6998C28.7002 7.6998 29.4002 5.3998 31.3002 4.4998C31.8002 4.2998 32.2002 4.1998 32.6002 4.1998C32.9002 4.1998 33.3002 4.1998 33.8002 4.2998C34.7002 4.3998 35.9002 4.4998 37.6002 4.2998C38.7002 4.0998 39.7002 3.8998 40.7002 3.4998C41.1002 5.0998 40.9002 6.6998 40.0002 7.5998L39.9002 7.6998C39.3002 8.2998 38.2002 8.6998 37.1002 8.6998C35.3002 8.6998 33.5002 7.7998 32.2002 6.1998C32.0002 5.9998 31.8002 5.7998 31.5002 5.7998C31.2002 5.7998 30.9002 5.8998 30.7002 5.9998C30.0002 6.5998 29.1002 7.4998 28.5002 8.9998C28.5002 8.5998 28.6002 8.1998 28.7002 7.6998Z" fill="#001C41"/>
<path d="M46.0998 54.5998C46.1998 54.5998 46.2998 54.5998 46.3998 54.4998C46.4998 54.4998 46.5998 54.4998 46.6998 54.3998C46.6998 54.3998 46.7998 54.3998 46.7998 54.2998C47.6998 53.8998 48.3998 52.9998 48.3998 51.8998V49.1998V28.8998C48.3998 24.8998 45.4998 21.4998 41.2998 20.5998C40.9998 20.4998 40.6998 20.5998 40.3998 20.7998C38.9998 21.8998 37.2998 22.4998 35.5998 22.4998C33.8998 22.4998 32.1998 21.8998 30.7998 20.7998C30.4998 20.5998 30.1998 20.4998 29.8998 20.5998C25.6998 21.4998 22.7998 24.9998 22.7998 28.8998V49.2998V51.9998C22.7998 53.0998 23.4998 53.9998 24.3998 54.3998H24.4998C24.5998 54.3998 24.6998 54.4998 24.7998 54.4998C24.8998 54.4998 24.9998 54.5998 24.9998 54.5998C25.0998 54.5998 25.2998 54.5998 25.3998 54.5998C25.4998 54.5998 25.4998 54.5998 25.5998 54.5998H26.9998V78.0998C26.2998 78.6998 25.8998 79.5998 25.8998 80.5998V80.9998C25.8998 82.4998 27.0998 83.6998 28.5998 83.6998H42.4998C43.9998 83.6998 45.1998 82.4998 45.1998 80.9998V80.6998C45.1998 79.6998 44.7998 78.7998 44.0998 78.1998V54.6998H45.4998C45.5998 54.6998 45.5998 54.6998 45.6998 54.6998C45.7998 54.6998 45.8998 54.6998 46.0998 54.5998ZM29.6998 22.7998C31.3998 23.9998 33.3998 24.5998 35.3998 24.5998C37.3998 24.5998 39.3998 23.9998 41.0998 22.7998C44.0998 23.6998 46.0998 26.0998 46.0998 28.8998V48.1998H43.9998V29.9998C43.9998 29.3998 43.4998 28.8998 42.8998 28.8998C42.2998 28.8998 41.7998 29.3998 41.7998 29.9998V48.2998H28.9998V29.9998C28.9998 29.3998 28.4998 28.8998 27.8998 28.8998C27.2998 28.8998 26.7998 29.3998 26.7998 29.9998V48.2998H24.6998V28.8998C24.6998 26.0998 26.6998 23.5998 29.6998 22.7998ZM25.3998 52.4998C24.9998 52.4998 24.6998 52.1998 24.6998 51.9998V50.3998H26.7998V52.4998H25.3998ZM42.9998 80.9998C42.9998 81.2998 42.6998 81.5998 42.3998 81.5998H28.4998C28.1998 81.5998 27.8998 81.2998 27.8998 80.9998V80.6998C27.8998 80.5998 27.8998 80.4998 27.8998 80.4998C27.9998 79.8998 28.4998 79.3998 29.1998 79.3998H34.2998C34.2998 79.9998 34.7998 80.4998 35.3998 80.4998C35.9998 80.4998 36.4998 79.9998 36.4998 79.3998H41.5998C42.1998 79.3998 42.7998 79.8998 42.8998 80.4998C42.8998 80.5998 42.8998 80.6998 42.8998 80.6998V80.9998H42.9998ZM41.6998 77.1998H36.5998V55.7998C36.5998 55.1998 36.0998 54.6998 35.4998 54.6998C34.8998 54.6998 34.3998 55.1998 34.3998 55.7998V77.2998H29.2998C29.1998 77.2998 29.0998 77.2998 29.0998 77.2998V54.6998V52.5998V50.4998H41.9998V52.5998V54.6998V77.2998C41.7998 77.1998 41.6998 77.1998 41.6998 77.1998ZM43.9998 52.4998V50.3998H46.0998V51.9998C46.0998 52.2998 45.7998 52.4998 45.3998 52.4998H43.9998Z" fill="#001C41"/>
<path d="M67.2998 20.5999C66.8998 20.2999 66.5998 19.8999 66.2998 19.4999C65.2998 18.1999 65.1998 16.9999 64.9998 15.4999C64.7998 13.9999 64.5998 12.3999 63.5998 10.3999C63.0998 9.49989 62.4998 8.19989 61.0998 7.19989C59.3998 5.99989 57.0998 5.49989 54.6998 5.79989C52.2998 5.49989 49.9998 5.99989 48.2998 7.19989C46.8998 8.19989 46.1998 9.49989 45.7998 10.3999C44.7998 12.3999 44.5998 13.9999 44.3998 15.4999C44.2998 16.5999 44.0998 17.5999 43.6998 18.4999C43.3998 18.9999 43.6998 19.6999 44.1998 19.8999C44.6998 20.1999 45.3998 19.8999 45.5998 19.3999C46.1998 18.0999 46.3998 16.8999 46.4998 15.6999C46.6998 14.3999 46.8998 12.9999 47.6998 11.2999C48.0998 10.4999 48.5998 9.59989 49.5998 8.79989C51.1998 7.59989 53.1998 7.59989 54.5998 7.79989C54.6998 7.79989 54.7998 7.79989 54.8998 7.79989C56.2998 7.59989 58.2998 7.59989 59.8998 8.79989C60.8998 9.49989 61.3998 10.3999 61.7998 11.2999C62.6998 12.8999 62.7998 14.2999 62.9998 15.6999C63.1998 17.2999 63.3998 18.9999 64.7998 20.6999C65.0998 21.0999 65.3998 21.3999 65.6998 21.6999C65.5998 22.1999 65.2998 22.7999 64.7998 23.3999C64.1998 24.0999 63.4998 24.4999 62.9998 24.5999C62.3998 24.7999 62.1998 25.3999 62.3998 25.9999C62.5998 26.3999 62.9998 26.6999 63.3998 26.6999C63.4998 26.6999 63.6998 26.6999 63.7998 26.5999C64.7998 26.1999 65.6998 25.5999 66.3998 24.7999C67.3998 23.5999 67.7998 22.2999 67.8998 21.3999C67.6998 21.1999 67.5998 20.7999 67.2998 20.5999Z" fill="#001C41"/>
<path d="M56.6999 9.5999C56.1999 9.2999 55.4999 9.3999 55.1999 9.8999C53.9999 11.6999 52.4999 13.2999 50.7999 14.4999C49.8999 15.1999 48.8999 15.6999 47.7999 16.1999C47.2999 16.3999 46.9999 17.0999 47.2999 17.5999C47.4999 17.9999 47.8999 18.1999 48.2999 18.1999C48.8999 22.1999 51.4999 24.9999 54.5999 24.9999C57.4999 24.9999 60.0999 22.2999 60.7999 18.5999C60.8999 18.5999 60.9999 18.6999 61.1999 18.6999C61.5999 18.6999 61.9999 18.4999 62.1999 18.0999C62.3999 17.5999 62.1999 16.8999 61.5999 16.6999C60.3999 16.1999 59.1999 15.4999 58.1999 14.5999C57.3999 13.9999 56.6999 13.1999 56.0999 12.3999C56.4999 11.9999 56.7999 11.4999 57.0999 10.9999C57.2999 10.5999 57.1999 9.9999 56.6999 9.5999ZM56.6999 16.2999C57.2999 16.7999 57.9999 17.2999 58.6999 17.6999C58.2999 20.6999 56.5999 22.9999 54.4999 22.9999C52.4999 22.9999 50.6999 20.6999 50.2999 17.7999C50.2999 17.6999 50.1999 17.5999 50.1999 17.4999C50.7999 17.0999 51.3999 16.7999 51.9999 16.2999C52.8999 15.6999 53.6999 14.8999 54.4999 14.1999C55.1999 14.8999 55.8999 15.6999 56.6999 16.2999Z" fill="#001C41"/>
<path d="M2.7 26.9C2.2 26.6 1.5 26.9 1.3 27.4C0.4 29.1 0 30.9 0 32.7V52C0 52.6 0.5 53.1 1.1 53.1C1.7 53.1 2.2 52.6 2.2 52V32.7C2.2 31.2 2.5 29.7 3.2 28.3C3.4 27.8 3.2 27.1 2.7 26.9Z" fill="#001C41"/>
<path d="M3.8001 26.2999C4.46284 26.2999 5.0001 25.7626 5.0001 25.0999C5.0001 24.4372 4.46284 23.8999 3.8001 23.8999C3.13736 23.8999 2.6001 24.4372 2.6001 25.0999C2.6001 25.7626 3.13736 26.2999 3.8001 26.2999Z" fill="#001C41"/>
<path d="M64.3001 78.1998C64.9628 78.1998 65.5001 77.6625 65.5001 76.9998C65.5001 76.3371 64.9628 75.7998 64.3001 75.7998C63.6374 75.7998 63.1001 76.3371 63.1001 76.9998C63.1001 77.6625 63.6374 78.1998 64.3001 78.1998Z" fill="#001C41"/>
</svg>
