<svg width="370" height="370" viewBox="0 0 370 370" fill="none" xmlns="http://www.w3.org/2000/svg">
<path d="M239.913 167.074L169.488 214.096L101.216 163.078V109.602H239.913V167.074Z" fill="#5EBCD6"/>
<path d="M257.443 299.843C277.994 299.843 294.655 283.194 294.655 262.656C294.655 242.117 277.994 225.468 257.443 225.468C236.892 225.468 220.232 242.117 220.232 262.656C220.232 283.194 236.892 299.843 257.443 299.843Z" fill="#F56464"/>
<path d="M270.974 224.238C272.82 222.701 272.204 227.312 272.204 145.56C272.204 143.409 272.512 144.023 243.912 125.276V109.602C243.912 107.758 242.374 106.221 240.529 106.221H215.311L178.407 81.9412C173.487 78.5605 167.029 78.5605 162.108 82.2486C126.742 106.528 128.28 104.991 127.664 106.528H101.832C99.9866 106.528 98.4489 108.065 98.4489 109.909V125.89C71.3861 144.331 72.0012 143.716 72.0012 145.867V268.187C72.0012 280.481 82.1497 290.623 94.451 290.623C231.61 290.623 225.152 291.852 226.075 288.164C250.062 317.669 298.037 300.765 298.037 262.655C298.037 244.83 286.658 230.078 270.974 224.238ZM262.978 145.867L243.912 159.39V133.266L262.978 145.867ZM165.491 87.7806C168.259 85.9366 171.642 85.9366 174.409 87.7806L203.01 106.528H138.121L165.491 87.7806ZM237.453 113.29V164.307L174.409 208.871C171.642 211.023 167.644 211.023 164.876 208.871L105.215 164.307V113.29H237.453ZM98.7564 159.083L80.9196 145.867L98.7564 133.574V159.083ZM94.451 283.861C85.8401 283.861 78.4593 276.793 78.4593 267.88V152.321L160.57 214.096C165.798 218.091 172.564 218.091 178.1 214.403L265.439 152.321C265.439 153.243 265.439 222.087 265.746 223.009C230.688 215.633 204.24 254.05 222.999 284.169C222.384 283.861 95.0661 283.861 94.451 283.861ZM257.443 296.462C238.683 296.462 223.614 281.095 223.614 262.655C223.614 243.908 238.683 228.848 257.443 228.848C276.202 228.848 291.271 244.215 291.271 262.655C291.271 281.403 276.202 296.462 257.443 296.462Z" fill="#001C41"/>
<path d="M166.107 271.568C166.107 276.485 173.488 276.485 173.488 271.568C173.488 266.651 166.107 266.651 166.107 271.568Z" fill="#001C41"/>
<path d="M217.772 96.3863C219.925 96.3863 221.463 94.8497 221.463 92.6983C221.463 90.5469 219.925 89.0103 217.772 89.0103C212.852 89.0103 212.852 96.3863 217.772 96.3863Z" fill="#001C41"/>
<path d="M151.959 268.187H94.4505C94.143 268.187 94.143 197.193 94.143 196.885C94.143 192.583 87.6848 192.583 87.6848 196.885V267.88C87.6848 271.568 90.7601 274.641 94.4505 274.641H151.959C156.572 274.949 156.572 268.187 151.959 268.187Z" fill="#001C41"/>
<path d="M216.848 299.536H109.212C104.906 299.536 104.906 305.99 109.212 305.99H216.54C221.153 306.297 221.153 299.536 216.848 299.536Z" fill="#001C41"/>
<path d="M123.359 97.6156L156.572 74.8727C164.568 69.3406 175.024 69.3406 183.02 74.5653L202.702 87.4735C206.392 89.9322 210.083 84.4001 206.392 81.9414L186.71 69.0333C176.254 62.2719 163.03 62.2719 152.882 69.3406L119.668 92.3909C116.285 94.8496 119.976 100.074 123.359 97.6156Z" fill="#001C41"/>
<path d="M247.91 250.977V256.509L256.213 254.05V281.096H263.286V245.752H262.671L247.91 250.977Z" fill="#001C41"/>
<path d="M124.59 139.413H219.617C223.922 139.413 223.922 132.959 219.617 132.959H124.59C120.284 132.959 120.284 139.413 124.59 139.413Z" fill="#001C41"/>
<path d="M201.165 174.757H142.119C137.813 174.757 137.813 181.211 142.119 181.211H201.165C205.47 181.519 205.47 174.757 201.165 174.757Z" fill="#001C41"/>
<path d="M219.616 154.473H197.474C193.168 154.473 193.168 160.927 197.474 160.927H219.616C221.461 160.927 222.999 159.391 222.999 157.547C222.999 156.01 221.461 154.473 219.616 154.473Z" fill="#001C41"/>
<path d="M124.59 161.234H172.565C176.87 161.234 176.87 154.78 172.565 154.78H124.59C120.284 154.473 120.284 161.234 124.59 161.234Z" fill="#001C41"/>
</svg>
