<svg width="370" height="370" viewBox="0 0 370 370" fill="none" xmlns="http://www.w3.org/2000/svg">
<path d="M219.824 144.011C221.861 144.011 223.897 144.592 225.643 145.462C226.225 142.56 227.971 139.948 230.008 138.206C228.553 133.853 224.479 130.66 219.533 130.66C214.586 130.66 210.221 134.143 209.057 138.787C207.893 138.206 206.438 137.916 204.984 137.916C200.037 137.916 195.963 141.98 195.963 146.914C195.963 147.494 195.963 148.075 196.254 148.655H210.221C212.258 145.462 215.75 144.011 219.824 144.011Z" fill="#5EBCD6"/>
<path d="M195.089 227.601H210.512L223.606 257.495L233.208 256.334L219.241 214.54C217.786 210.476 213.421 208.445 209.639 209.896L201.2 213.089L193.344 210.767L196.544 199.157L181.704 189.869L179.667 182.904L168.61 155.331L149.405 147.494L143.586 159.104L141.549 184.355L142.131 206.123C146.786 204.381 151.733 203.511 156.971 203.511C175.885 203.22 190.143 213.379 195.089 227.601Z" fill="#F56464"/>
<path d="M253.578 159.394C253.869 158.814 253.869 158.233 253.869 157.653C253.869 154.75 251.541 152.138 248.34 152.138C248.34 146.043 243.393 141.399 237.574 141.399C232.627 141.399 228.262 144.882 227.098 149.526C225.934 148.946 224.48 148.655 223.025 148.655C218.078 148.655 214.004 152.719 214.004 157.653C214.004 158.233 214.004 158.814 214.295 159.394H253.578V159.394Z" fill="#5EBCD6"/>
<path d="M310.61 286.52H59.2008C57.4549 286.52 56 285.068 56 283.327C56 281.585 57.4549 280.134 59.2008 280.134H310.901C312.647 280.134 314.102 281.585 314.102 283.327C314.102 285.068 312.356 286.52 310.61 286.52Z" fill="#001C41"/>
<path d="M89.7542 299C91.5219 299 92.955 297.571 92.955 295.807C92.955 294.044 91.5219 292.615 89.7542 292.615C87.9864 292.615 86.5533 294.044 86.5533 295.807C86.5533 297.571 87.9864 299 89.7542 299Z" fill="#001C41" stroke="#001C41" stroke-width="0.5" stroke-miterlimit="10"/>
<path d="M217.786 270.266C219.554 270.266 220.987 268.837 220.987 267.074C220.987 265.31 219.554 263.881 217.786 263.881C216.018 263.881 214.585 265.31 214.585 267.074C214.585 268.837 216.018 270.266 217.786 270.266Z" fill="#001C41" stroke="#001C41" stroke-width="0.5" stroke-miterlimit="10"/>
<path d="M263.471 299H101.102C99.3562 299 97.9013 297.549 97.9013 295.807C97.9013 294.066 99.3562 292.615 101.102 292.615H263.18C264.925 292.615 266.38 294.066 266.38 295.807C266.38 297.549 264.925 299 263.471 299Z" fill="#001C41"/>
<path d="M156.972 282.456C136.021 282.456 118.853 265.332 118.853 244.435C118.853 223.537 136.021 206.413 156.972 206.413C177.922 206.413 195.09 223.537 195.09 244.435C195.09 265.332 177.922 282.456 156.972 282.456ZM156.972 212.798C139.513 212.798 125.254 227.02 125.254 244.435C125.254 261.849 139.513 276.071 156.972 276.071C174.43 276.071 188.689 261.849 188.689 244.435C188.98 227.02 174.721 212.798 156.972 212.798Z" fill="#001C41"/>
<path d="M217.786 282.456C209.638 282.456 202.946 275.781 202.946 267.654C202.946 259.527 209.638 252.852 217.786 252.852C225.933 252.852 232.626 259.527 232.626 267.654C232.626 275.781 226.224 282.456 217.786 282.456ZM217.786 258.947C213.13 258.947 209.056 262.72 209.056 267.654C209.056 272.298 212.839 276.361 217.786 276.361C222.442 276.361 226.515 272.588 226.515 267.654C226.515 262.72 222.733 258.947 217.786 258.947Z" fill="#001C41"/>
<path d="M156.972 255.174C150.861 255.174 146.205 250.24 146.205 244.435C146.205 238.34 151.152 233.696 156.972 233.696C163.082 233.696 167.738 238.63 167.738 244.435C168.029 250.53 163.082 255.174 156.972 255.174ZM156.972 239.791C154.353 239.791 152.316 241.823 152.316 244.435C152.316 247.047 154.353 249.079 156.972 249.079C159.59 249.079 161.627 247.047 161.627 244.435C161.627 241.823 159.59 239.791 156.972 239.791Z" fill="#001C41"/>
<path d="M200.327 216.281C199.163 216.281 197.708 215.991 196.544 215.701C188.688 212.798 176.467 206.413 168.901 200.898C168.61 200.608 168.319 200.318 168.028 199.738L158.717 181.452C157.844 180.001 158.426 177.969 160.172 177.389C161.626 176.518 163.663 177.099 164.245 178.84L173.266 196.545C179.958 201.479 191.307 207.284 198.581 210.186C200.327 210.767 202.364 210.186 203.528 208.445C203.819 208.154 203.819 207.864 203.528 207.574C203.237 206.703 202.073 205.542 199.745 204.381C198.29 203.801 196.835 202.93 195.38 202.35C189.561 199.738 183.159 196.545 178.794 192.772C177.049 191.03 176.176 187.838 174.139 180.291C172.102 172.455 169.192 160.555 165.118 157.362C163.663 156.201 163.372 154.46 164.536 153.009C165.7 151.558 167.446 151.267 168.901 152.428C175.012 157.072 177.921 169.262 180.249 178.84C181.122 182.613 182.286 187.257 183.159 188.418C186.651 191.611 192.762 194.513 197.999 196.835C199.454 197.706 201.2 198.286 202.364 198.867C205.856 200.608 208.475 203.22 209.057 205.833C209.639 207.864 209.348 209.896 208.475 211.637C207.311 214.25 203.819 216.281 200.327 216.281Z" fill="#001C41"/>
<path d="M136.02 215.12C134.565 215.12 133.401 214.249 133.11 212.798L121.18 169.552H108.959C107.213 169.552 105.758 168.101 105.758 166.36C105.758 164.618 107.213 163.167 108.959 163.167H123.508C124.963 163.167 126.127 164.038 126.418 165.489L138.93 211.057C139.512 212.798 138.348 214.54 136.602 214.83C136.311 215.12 136.311 215.12 136.02 215.12Z" fill="#001C41"/>
<path d="M213.713 257.496C212.549 257.496 211.385 256.915 210.803 255.754L202.946 238.63H192.762C191.016 238.63 189.561 237.179 189.561 235.437C189.561 233.696 191.016 232.245 192.762 232.245H204.692C205.856 232.245 207.02 232.825 207.602 233.986L216.332 252.852C216.914 254.303 216.332 256.335 214.877 256.915C214.586 257.496 214.295 257.496 213.713 257.496Z" fill="#001C41"/>
<path d="M142.423 206.413C140.968 206.413 139.513 205.252 139.222 203.801C138.058 193.933 137.767 184.935 138.349 176.808C139.513 161.716 143.878 150.397 145.624 146.043C145.915 145.172 146.788 144.592 147.661 144.301C148.533 144.011 149.406 144.011 150.279 144.592C150.861 144.882 151.443 145.172 152.025 145.753C154.062 146.914 156.39 148.655 158.427 149.236C161.919 150.397 164.829 150.397 166.865 150.397C168.611 150.397 169.775 151.848 169.775 153.589C169.775 155.331 168.32 156.492 166.574 156.492C163.956 156.492 160.755 156.201 156.39 155.04C154.062 154.17 151.734 153.009 149.697 151.848C147.661 157.072 145.042 166.07 144.169 177.099C143.587 184.645 143.878 193.352 145.042 202.93C145.333 204.672 144.169 206.123 142.423 206.413C142.714 206.413 142.423 206.413 142.423 206.413Z" fill="#001C41"/>
<path d="M168.901 148.945C168.61 148.945 168.028 148.945 167.737 148.945C165.119 148.655 162.791 148.075 160.754 146.624C159.299 145.753 159.008 143.721 159.881 142.27C160.754 140.819 162.791 140.528 164.246 141.399C165.41 142.27 166.865 142.85 168.319 142.85C169.483 142.85 170.647 142.85 171.52 142.56C171.811 142.56 172.102 142.27 172.102 141.98L172.393 140.528C172.975 138.497 173.266 137.046 173.266 134.433C173.557 129.499 173.266 124.855 172.102 119.921C171.811 118.18 172.684 116.729 174.43 116.148C176.176 115.858 177.631 116.729 178.213 118.47C179.377 123.695 179.668 129.209 179.377 134.433C179.086 137.626 178.795 139.658 178.213 141.689V143.141C177.631 145.463 175.885 147.494 173.557 148.365C172.102 148.655 170.356 148.945 168.901 148.945Z" fill="#001C41"/>
<path d="M156.098 137.336H150.569C148.824 137.336 147.369 135.884 147.369 134.143C147.369 132.401 148.824 130.95 150.569 130.95H152.897V126.306C152.897 126.016 152.897 125.726 152.897 125.726L153.479 122.533C154.352 118.76 158.135 116.438 161.918 117.309C163.082 117.599 164.246 117.599 165.41 117.599C169.192 117.599 172.393 116.438 174.139 115.277C175.594 114.407 177.631 114.987 178.504 116.438C179.377 117.889 178.795 119.921 177.34 120.792C174.721 122.243 170.647 123.984 165.41 123.984C165.41 123.984 165.41 123.984 165.119 123.984C163.664 123.984 161.918 123.694 160.463 123.404C159.881 123.404 159.59 123.694 159.299 123.984L158.717 126.597V133.853C159.008 136.175 157.844 137.336 156.098 137.336Z" fill="#001C41"/>
<path d="M148.824 150.397C148.533 150.397 148.242 150.397 147.951 150.397C146.205 149.816 145.332 148.365 145.623 146.624C145.623 146.624 146.787 142.56 146.205 137.336C145.623 132.112 143.295 126.017 143.004 125.726C142.131 123.695 140.385 118.18 142.713 112.085C143.004 110.924 144.459 107.731 147.66 105.119C150.861 102.507 154.644 101.346 159.299 101.636C162.5 101.636 164.537 102.797 166.283 103.668C167.738 104.248 168.902 104.829 170.939 105.119C172.976 105.409 175.303 105.119 177.34 104.539C178.795 103.958 180.541 104.829 181.123 106.28C181.705 107.731 182.869 111.504 181.123 115.858C178.504 121.953 172.103 123.114 171.521 123.404C169.775 123.695 168.32 122.534 168.029 120.792C167.738 119.051 168.902 117.6 170.648 117.309C170.939 117.309 174.43 116.729 175.594 113.536C175.885 112.665 176.176 112.085 176.176 111.214C174.43 111.504 172.394 111.504 170.648 111.504C167.447 111.214 165.41 110.344 163.955 109.473C162.5 108.602 161.336 108.312 159.299 108.022C158.135 108.022 154.644 107.731 151.734 110.053C149.697 111.504 149.115 113.536 148.533 114.407C147.078 118.18 148.242 121.953 148.824 123.404C148.824 123.695 151.734 130.66 152.316 136.755C152.898 142.85 151.443 147.785 151.443 148.075C151.443 149.526 149.988 150.397 148.824 150.397Z" fill="#001C41"/>
<path d="M166.865 145.753C166.865 147.204 166.865 148.075 166.865 149.526V145.753Z" fill="white" stroke="#001C41" stroke-width="3.9668" stroke-miterlimit="10" stroke-linecap="round" stroke-linejoin="round"/>
<path d="M250.377 269.976H231.754C230.008 269.976 228.553 268.525 228.553 266.783C228.553 265.042 230.008 263.591 231.754 263.591H250.377C252.123 263.591 253.577 265.042 253.577 266.783C253.577 268.525 252.123 269.976 250.377 269.976Z" fill="#001C41"/>
<path d="M250.378 268.234C248.632 268.234 247.177 266.783 247.177 265.042C247.177 260.978 243.976 257.786 239.902 257.786H232.628C230.882 257.786 229.427 256.334 229.427 254.593C229.427 252.852 230.882 251.4 232.628 251.4H239.902C247.468 251.4 253.287 257.495 253.287 264.751C253.578 267.073 252.123 268.234 250.378 268.234Z" fill="#001C41"/>
<path d="M156.971 238.63C155.225 238.63 153.77 237.179 153.77 235.437V209.316C153.77 207.574 155.225 206.123 156.971 206.123C158.716 206.123 160.171 207.574 160.171 209.316V235.437C160.171 237.469 158.716 238.63 156.971 238.63Z" fill="#001C41"/>
<path d="M156.971 282.456C155.225 282.456 153.77 281.005 153.77 279.264V253.142C153.77 251.4 155.225 249.949 156.971 249.949C158.716 249.949 160.171 251.4 160.171 253.142V279.264C160.171 281.005 158.716 282.456 156.971 282.456Z" fill="#001C41"/>
<path d="M147.369 247.627H122.054C120.308 247.627 118.853 246.176 118.853 244.434C118.853 242.693 120.308 241.242 122.054 241.242H147.369C149.115 241.242 150.57 242.693 150.57 244.434C150.57 246.176 149.115 247.627 147.369 247.627Z" fill="#001C41"/>
<path d="M191.889 247.627H165.41C163.664 247.627 162.209 246.176 162.209 244.434C162.209 242.693 163.664 241.242 165.41 241.242H191.889C193.635 241.242 195.09 242.693 195.09 244.434C195.09 246.176 193.635 247.627 191.889 247.627Z" fill="#001C41"/>
<path d="M132.237 272.298C131.364 272.298 130.782 272.007 129.909 271.427C128.745 270.266 128.745 268.234 129.909 267.073L148.241 248.788C149.405 247.627 151.442 247.627 152.606 248.788C153.77 249.949 153.77 251.981 152.606 253.142L134.565 271.427C133.983 272.007 133.11 272.298 132.237 272.298Z" fill="#001C41"/>
<path d="M163.082 241.532C162.209 241.532 161.627 241.242 160.754 240.662C159.59 239.501 159.59 237.469 160.754 236.308L179.377 217.733C180.541 216.572 182.578 216.572 183.742 217.733C184.905 218.894 184.905 220.925 183.742 222.086L165.119 240.662C164.537 241.242 163.955 241.532 163.082 241.532Z" fill="#001C41"/>
<path d="M181.705 272.298C180.832 272.298 180.25 272.008 179.377 271.427L160.172 252.271C159.008 251.11 159.008 249.079 160.172 247.918C161.336 246.757 163.373 246.757 164.537 247.918L183.742 267.074C184.906 268.234 184.906 270.266 183.742 271.427C183.451 272.008 182.578 272.298 181.705 272.298Z" fill="#001C41"/>
<path d="M150.569 241.242C149.696 241.242 149.114 240.952 148.241 240.371L129.909 222.086C128.745 220.925 128.745 218.894 129.909 217.733C131.073 216.572 133.11 216.572 134.274 217.733L152.606 236.018C153.77 237.179 153.77 239.21 152.606 240.371C152.315 240.952 151.442 241.242 150.569 241.242Z" fill="#001C41"/>
<path d="M192.18 213.379C191.598 213.379 191.016 213.379 190.434 212.798C188.979 211.928 188.397 209.896 189.27 208.445L195.09 198.867C195.963 197.416 198 196.835 199.455 197.706C200.91 198.577 201.492 200.608 200.619 202.06L194.799 211.638C194.508 212.798 193.344 213.379 192.18 213.379Z" fill="#001C41"/>
<path d="M232.336 256.625C231.172 256.625 229.717 255.754 229.426 254.593L214.877 212.799C214.295 211.057 212.549 209.896 210.512 209.896H208.184C206.438 209.896 204.983 208.735 204.983 206.994C204.983 205.252 206.147 203.801 207.893 203.801H210.221C214.877 203.511 219.241 206.413 220.696 210.767L235.245 252.562C235.827 254.303 234.954 256.045 233.208 256.625C233.208 256.625 232.626 256.625 232.336 256.625Z" fill="#001C41"/>
<path d="M147.368 76.0951H102.557C100.811 76.0951 99.3561 74.6439 99.3561 72.9024C99.3561 71.161 100.811 70 102.557 70H147.368C149.114 70 150.569 71.4512 150.569 73.1926C150.569 74.9341 149.114 76.0951 147.368 76.0951Z" fill="#5EBCD6"/>
<path d="M124.963 91.4781H99.9386C98.1927 91.4781 96.7378 90.0269 96.7378 88.2854C96.7378 86.544 98.1927 85.0928 99.9386 85.0928H124.963C126.709 85.0928 128.164 86.544 128.164 88.2854C128.164 90.0269 126.418 91.4781 124.963 91.4781Z" fill="#5EBCD6"/>
</svg>
