<svg width="370" height="370" viewBox="0 0 370 370" fill="none" xmlns="http://www.w3.org/2000/svg">
<path fill-rule="evenodd" clip-rule="evenodd" d="M37.4688 139.279V139.304C37.4688 139.298 37.4719 139.289 37.4719 139.283C37.4688 139.283 37.4719 139.279 37.4688 139.279Z" fill="#5EBCD6"/>
<path fill-rule="evenodd" clip-rule="evenodd" d="M81.3148 123.626C79.4535 122.417 77.5167 121.668 75.8003 121.209C72.0494 123.941 68.0372 125.366 64.1163 125.366H63.6816C59.6914 125.464 55.5312 124.038 51.6355 121.162H51.6134C49.8718 121.621 47.8878 122.345 45.9541 123.626C39.1673 127.947 37.4194 135.18 36.9564 139.319C36.969 139.322 36.9564 139.338 36.9564 139.338C43.6078 146.639 53.1849 151.206 63.8045 151.206C74.276 151.206 83.7334 146.759 90.3376 139.627C89.925 135.52 88.2559 128.073 81.3148 123.626Z" fill="#5EBCD6"/>
<path fill-rule="evenodd" clip-rule="evenodd" d="M122.571 136.702H142.281C143.641 136.702 144.745 135.541 144.745 134.112C144.745 132.682 143.641 131.521 142.281 131.521H122.571C121.211 131.521 120.108 132.682 120.108 134.112C120.108 135.541 121.211 136.702 122.571 136.702Z" fill="#001C41"/>
<path fill-rule="evenodd" clip-rule="evenodd" d="M163.865 136.702C165.211 136.702 166.303 135.541 166.303 134.112C166.303 132.682 165.211 131.521 163.865 131.521H149.237C147.891 131.521 146.799 132.682 146.799 134.112C146.799 135.541 147.891 136.702 149.237 136.702H163.865Z" fill="#001C41"/>
<path fill-rule="evenodd" clip-rule="evenodd" d="M165.943 119.089H122.52C121.188 119.089 120.108 120.249 120.108 121.679C120.108 123.109 121.188 124.269 122.52 124.269H165.943C167.275 124.269 168.356 123.109 168.356 121.679C168.356 120.249 167.275 119.089 165.943 119.089Z" fill="#001C41"/>
<path fill-rule="evenodd" clip-rule="evenodd" d="M165.943 142.918H122.52C121.188 142.918 120.108 144.078 120.108 145.508C120.108 146.938 121.188 148.098 122.52 148.098H165.943C167.275 148.098 168.356 146.938 168.356 145.508C168.356 144.078 167.275 142.918 165.943 142.918Z" fill="#001C41"/>
<path fill-rule="evenodd" clip-rule="evenodd" d="M80.3079 143.785V135.07C80.3079 133.722 79.219 132.629 77.8769 132.629C76.5348 132.629 75.4459 133.722 75.4459 135.07V146.118C71.6001 147.602 67.482 148.396 63.2911 148.396C59.1001 148.396 54.982 147.605 51.1362 146.124V135.07C51.1362 133.722 50.0473 132.629 48.7052 132.629C47.3631 132.629 46.2742 133.722 46.2742 135.07V143.794C43.5742 142.231 41.0735 140.301 38.8673 138.022C39.5225 133.745 41.4439 128.376 46.6889 125.02C47.8505 124.248 49.142 123.638 50.6107 123.164C54.6465 125.901 58.9482 127.289 63.1676 127.185H63.6076C67.7004 127.185 71.8849 125.818 75.7751 123.221C77.1521 123.679 78.4245 124.286 79.5799 125.039C84.8913 128.459 86.7905 133.935 87.4078 138.293C85.2838 140.447 82.8908 142.285 80.3079 143.785ZM82.2137 120.936C80.3715 119.735 78.2951 118.816 76.0445 118.206C75.8261 118.14 75.5919 118.105 75.3481 118.105H75.345H75.3418H75.3386H75.3355C74.8037 118.105 74.3099 118.283 73.9079 118.578C70.578 121.016 67.0138 122.303 63.6079 122.303H63.1078C59.6512 122.392 55.9446 121.086 52.507 118.534C52.1683 118.279 51.7537 118.124 51.3295 118.073C51.2377 118.06 51.1428 118.054 51.0478 118.054H51.0447H51.0415H51.0352H51.0288C50.8009 118.057 50.5825 118.089 50.3736 118.146C47.9584 118.791 45.8757 119.706 44.0429 120.927C36.3891 125.825 34.3981 134.047 33.8948 138.541C33.8822 138.633 33.8759 138.725 33.8759 138.817C33.8759 138.859 33.8759 138.903 33.8759 138.944C33.879 138.944 33.879 138.948 33.879 138.948C33.8885 139.211 33.9392 139.463 34.0246 139.698C34.1259 139.971 34.2747 140.229 34.4773 140.457V140.461C34.4899 140.473 34.4994 140.486 34.5089 140.495C41.8778 148.619 52.3678 153.278 63.2913 153.278C74.0662 153.278 84.4358 148.73 91.7414 140.804C92.2162 140.289 92.4473 139.599 92.3776 138.903C91.925 134.346 90.0005 125.949 82.2137 120.936Z" fill="#001C41"/>
<path fill-rule="evenodd" clip-rule="evenodd" d="M50.5575 88.2591C50.9067 87.0744 51.8053 84.8286 53.9073 83.1054C57.1048 80.4889 61.3881 80.4572 63.2297 80.4414H63.3948H63.6838H63.8997H64.0807C65.9096 80.4572 70.193 80.4889 73.3872 83.1054C75.4924 84.8286 76.391 87.0744 76.7403 88.2591C76.7688 88.3605 76.7974 88.4587 76.8228 88.5601C76.2671 88.1483 75.6766 87.822 75.0447 87.5876C72.5744 86.6658 70.501 87.3373 68.4942 87.9867C67.1924 88.408 65.8429 88.8451 64.1759 88.937C63.8235 88.956 63.4774 88.956 63.1218 88.937C61.4516 88.8451 60.1053 88.408 58.8035 87.9867C57.5017 87.5654 56.1744 87.1378 54.7265 87.1378C53.9422 87.1378 53.1199 87.2645 52.253 87.5876C51.6212 87.822 51.0306 88.1451 50.4749 88.5569C50.5003 88.4587 50.5289 88.3605 50.5575 88.2591ZM77.9641 101.066C77.6148 102.213 76.9099 102.96 76.5194 103.303C76.1479 103.629 75.8843 104.06 75.7668 104.538C75.3382 106.242 74.1697 109.489 71.1469 112.077C68.6639 114.187 66.0983 115.283 63.8408 115.254C63.7963 115.254 63.5169 115.254 63.4724 115.254C61.2085 115.305 58.6334 114.187 56.1441 112.071C53.1244 109.486 51.9591 106.242 51.5305 104.538C51.4098 104.06 51.1494 103.629 50.7779 103.303C50.3874 102.96 49.6825 102.216 49.3174 101.016C49.0602 100.22 48.9459 99.0833 49.057 98.5986C49.0887 98.5923 49.1173 98.5764 49.1491 98.5701C49.2697 98.5384 49.3872 98.5068 49.5015 98.4561C49.6539 98.3927 49.7936 98.3135 49.927 98.2217C50.0127 98.1647 50.0858 98.0981 50.162 98.0284C50.2572 97.9429 50.3461 97.8511 50.4255 97.7497C50.489 97.6737 50.5462 97.6008 50.6001 97.5153C50.6954 97.3632 50.7716 97.2017 50.8351 97.0306C50.8446 96.9958 50.87 96.9705 50.8796 96.9356C51.6702 94.2938 52.7656 92.5928 53.9659 92.1461C54.7978 91.8326 55.636 92.0765 57.2967 92.615C58.7477 93.0838 60.5544 93.6698 62.8628 93.7965C63.1232 93.8092 63.3804 93.8187 63.6375 93.8187H63.6502C63.9043 93.8155 64.1742 93.8092 64.4409 93.7965C66.7461 93.6698 68.5528 93.0838 70.0038 92.615C71.6645 92.0765 72.4996 91.8326 73.3378 92.1461C74.519 92.5864 75.6081 94.2875 76.3987 96.9324C76.6496 97.775 77.3386 98.3769 78.1705 98.5764C78.1927 98.5828 78.2149 98.5955 78.2372 98.5986C78.3515 99.0896 78.234 100.227 77.9641 101.066ZM44.6632 102.476C45.2157 104.294 46.2063 105.605 46.9843 106.413C47.6796 108.792 49.3022 112.628 52.9854 115.78C56.4337 118.713 60.1519 120.23 63.7049 120.119C63.8097 120.123 63.9113 120.123 64.0161 120.123C67.4104 120.123 70.9635 118.624 74.326 115.764C77.987 112.628 79.6096 108.792 80.3049 106.413C81.0828 105.605 82.0735 104.3 82.6133 102.526C82.7911 101.978 84.1882 97.3917 81.629 95.0096C82.083 93.0108 82.3656 90.1125 81.4162 86.891C80.9114 85.1678 79.6 81.8988 76.482 79.3457C71.9541 75.6395 66.261 75.592 64.1272 75.5762H63.8986H63.6827H63.3938H63.1778C61.0346 75.592 55.3414 75.6395 50.8136 79.3457C47.6987 81.8956 46.3842 85.1646 45.8761 86.8878C44.9236 90.122 45.222 93.0774 45.6539 95.0318C43.1232 97.4519 44.5013 101.978 44.6632 102.476Z" fill="#001C41"/>
<mask id="mask0" mask-type="alpha" maskUnits="userSpaceOnUse" x="0" y="59" width="193" height="128">
<path fill-rule="evenodd" clip-rule="evenodd" d="M0 186.431H192.993V59H0V186.431Z" fill="white"/>
</mask>
<g mask="url(#mask0)">
<path fill-rule="evenodd" clip-rule="evenodd" d="M130.372 92.1528H137.558V86.9727H130.372V92.1528Z" fill="#001C41"/>
<path fill-rule="evenodd" clip-rule="evenodd" d="M137.558 84.9003V79.7202H136.316C133.479 79.7202 131.115 81.9167 130.372 84.9003H137.558Z" fill="#001C41"/>
<path fill-rule="evenodd" clip-rule="evenodd" d="M130.372 99.4047H137.558V94.2246H130.372V99.4047Z" fill="#001C41"/>
<path fill-rule="evenodd" clip-rule="evenodd" d="M130.372 102.513C131.16 105.505 133.506 107.693 136.309 107.693H137.558V102.513H130.372Z" fill="#001C41"/>
<path fill-rule="evenodd" clip-rule="evenodd" d="M152.957 92.1528H160.143V86.9727H152.957V92.1528Z" fill="#001C41"/>
<path fill-rule="evenodd" clip-rule="evenodd" d="M152.957 99.4047H160.143V94.2246H152.957V99.4047Z" fill="#001C41"/>
<path fill-rule="evenodd" clip-rule="evenodd" d="M152.957 102.513V107.693H154.207C157.009 107.693 159.353 105.505 160.143 102.513H152.957Z" fill="#001C41"/>
<path fill-rule="evenodd" clip-rule="evenodd" d="M150.524 102.731V100.175V95.0597V92.5037V87.3884V84.8323H152.994H160.145C159.406 81.8892 157.053 79.7202 154.231 79.7202H140.64V107.693H150.524V102.731Z" fill="#001C41"/>
<path fill-rule="evenodd" clip-rule="evenodd" d="M20.6513 164.545H186.717V65.3452H20.6513V164.545ZM189.854 170.89H17.5108C15.7749 170.89 14.3718 169.472 14.3718 167.718V62.1726C14.3718 60.4213 15.7749 59 17.5108 59H189.854C191.59 59 192.993 60.4213 192.993 62.1726V167.718C192.993 169.472 191.59 170.89 189.854 170.89Z" fill="#001C41"/>
<path fill-rule="evenodd" clip-rule="evenodd" d="M37.4432 185.395H18.6762C8.3761 185.395 0.000366211 176.909 0.000366211 166.48V139.328C0.000366211 137.878 1.15878 136.702 2.59031 136.702C4.02185 136.702 5.1834 137.878 5.1834 139.328V166.48C5.1834 174.016 11.236 180.145 18.6762 180.145H37.4432C38.8747 180.145 40.0362 181.322 40.0362 182.768C40.0362 184.218 38.8747 185.395 37.4432 185.395Z" fill="#001C41"/>
<path fill-rule="evenodd" clip-rule="evenodd" d="M48.2492 180.214C46.5479 180.214 45.1696 181.605 45.1696 183.322C45.1696 185.039 46.5479 186.43 48.2492 186.43C49.9506 186.43 51.3289 185.039 51.3289 183.322C51.3289 181.605 49.9506 180.214 48.2492 180.214Z" fill="#001C41"/>
</g>
<path fill-rule="evenodd" clip-rule="evenodd" d="M188.7 234.233C184.225 238.746 184.236 246.081 188.724 250.613C193.188 255.14 200.443 255.14 204.916 250.613C209.396 246.081 209.404 238.746 204.927 234.227C200.446 229.709 193.188 229.709 188.7 234.233Z" fill="#F56464"/>
<path fill-rule="evenodd" clip-rule="evenodd" d="M300.482 234.233C296.007 238.746 296.018 246.081 300.507 250.613C304.971 255.14 312.226 255.14 316.698 250.613C321.179 246.081 321.187 238.746 316.709 234.227C312.229 229.709 304.971 229.709 300.482 234.233Z" fill="#F56464"/>
<path fill-rule="evenodd" clip-rule="evenodd" d="M177.597 243.389H157.442C150.706 243.389 145.223 237.907 145.223 231.168V225.126C145.223 223.481 146.557 222.15 148.2 222.15H166.803C168.447 222.15 169.78 223.481 169.78 225.126C169.78 226.773 168.447 228.104 166.803 228.104H151.177V231.168C151.177 234.623 153.988 237.432 157.442 237.432H177.597C179.24 237.432 180.574 238.766 180.574 240.411C180.574 242.055 179.24 243.389 177.597 243.389Z" fill="#001C41"/>
<path fill-rule="evenodd" clip-rule="evenodd" d="M286.505 243.389H220.818C219.17 243.389 217.835 242.092 217.835 240.493C217.835 238.894 219.17 237.597 220.818 237.597H286.505C288.154 237.597 289.491 238.894 289.491 240.493C289.491 242.092 288.154 243.389 286.505 243.389Z" fill="#001C41"/>
<path fill-rule="evenodd" clip-rule="evenodd" d="M356.408 243.389H328.811C327.146 243.389 325.794 242.055 325.794 240.411C325.794 238.766 327.146 237.432 328.811 237.432H356.408C359.908 237.432 362.757 234.623 362.757 231.168V228.104H338.624C336.958 228.104 335.607 226.773 335.607 225.126C335.607 223.481 336.958 222.15 338.624 222.15H365.774C367.44 222.15 368.788 223.481 368.788 225.126V231.168C368.788 237.907 363.234 243.389 356.408 243.389Z" fill="#001C41"/>
<path fill-rule="evenodd" clip-rule="evenodd" d="M361.023 226.977C359.374 226.977 358.036 225.633 358.036 223.975V218.257C358.036 209.24 353.711 205.643 343.379 200.582L316.163 190.271C315.713 190.101 315.31 189.821 314.987 189.461L283.722 154.219C280.985 150.862 277.058 148.99 272.864 148.99H207.739C203.089 148.99 198.736 151.287 196.1 155.136C196.016 155.259 195.924 155.373 195.824 155.479C191.163 160.505 183.475 170.047 182.688 174.25L180.363 186.702C180.221 187.448 179.804 188.116 179.195 188.566C170.587 194.922 156.928 207.524 156.928 214.277V223.975C156.928 225.633 155.59 226.977 153.94 226.977C152.291 226.977 150.953 225.633 150.953 223.975V214.277C150.953 203.254 169.749 188.217 174.706 184.444L176.817 173.144C178.138 166.075 189.411 153.607 191.31 151.544C195.073 146.181 201.198 142.989 207.739 142.989H272.864C278.858 142.989 284.47 145.661 288.264 150.323L318.959 184.913L345.615 195.011C345.701 195.045 345.784 195.081 345.868 195.12C355.794 199.972 364.01 205.062 364.01 218.257V223.975C364.01 225.633 362.673 226.977 361.023 226.977Z" fill="#001C41"/>
<path fill-rule="evenodd" clip-rule="evenodd" d="M308.122 224.485C298.527 224.485 290.721 232.534 290.721 242.423C290.721 252.315 298.527 260.364 308.122 260.364C317.716 260.364 325.519 252.315 325.519 242.423C325.519 232.534 317.716 224.485 308.122 224.485ZM308.121 266.558C295.214 266.558 284.714 255.731 284.714 242.423C284.714 229.115 295.214 218.289 308.121 218.289C321.028 218.289 331.529 229.115 331.529 242.423C331.529 255.731 321.028 266.558 308.121 266.558Z" fill="#001C41"/>
<path fill-rule="evenodd" clip-rule="evenodd" d="M197.292 224.485C187.698 224.485 179.894 232.534 179.894 242.423C179.894 252.315 187.698 260.364 197.292 260.364C206.886 260.364 214.689 252.315 214.689 242.423C214.689 232.534 206.886 224.485 197.292 224.485ZM197.291 266.558C184.384 266.558 173.884 255.731 173.884 242.423C173.884 229.115 184.384 218.289 197.291 218.289C210.198 218.289 220.699 229.115 220.699 242.423C220.699 255.731 210.198 266.558 197.291 266.558Z" fill="#001C41"/>
<path fill-rule="evenodd" clip-rule="evenodd" d="M298.088 192.224H214.203C204.498 192.224 197.94 181.981 201.723 172.738L204.969 164.816C206.552 160.948 210.218 158.435 214.281 158.435H264.847C270.394 158.435 275.618 161.141 278.942 165.738L298.088 192.224Z" fill="#5EBCD6"/>
<path fill-rule="evenodd" clip-rule="evenodd" d="M298.088 192.224H214.203C204.498 192.224 197.94 181.981 201.723 172.738L204.969 164.816C206.552 160.948 210.218 158.435 214.281 158.435H264.847C270.394 158.435 275.618 161.141 278.942 165.738L298.088 192.224Z" stroke="#001C41" stroke-width="4" stroke-linecap="round" stroke-linejoin="round"/>
<path fill-rule="evenodd" clip-rule="evenodd" d="M244.586 243.389C243.004 243.389 241.72 242.021 241.72 240.335V192.38C241.72 190.695 243.004 189.327 244.586 189.327C246.169 189.327 247.453 190.695 247.453 192.38V240.335C247.453 242.021 246.169 243.389 244.586 243.389Z" fill="#001C41"/>
<path fill-rule="evenodd" clip-rule="evenodd" d="M261.813 211.531H256.975C255.409 211.531 254.139 210.234 254.139 208.635C254.139 207.036 255.409 205.739 256.975 205.739H261.813C263.379 205.739 264.649 207.036 264.649 208.635C264.649 210.234 263.379 211.531 261.813 211.531Z" fill="#001C41"/>
<path fill-rule="evenodd" clip-rule="evenodd" d="M211.176 211.531H206.336C204.77 211.531 203.503 210.234 203.503 208.635C203.503 207.036 204.77 205.739 206.336 205.739H211.176C212.742 205.739 214.012 207.036 214.012 208.635C214.012 210.234 212.742 211.531 211.176 211.531Z" fill="#001C41"/>
<path fill-rule="evenodd" clip-rule="evenodd" d="M361.002 216.358H353.882C344.717 216.358 337.26 209.758 337.26 201.649V199.143C337.26 197.455 338.608 196.085 340.27 196.085C341.931 196.085 343.279 197.455 343.279 199.143V201.649C343.279 206.387 348.034 210.242 353.882 210.242H361.002C362.664 210.242 364.012 211.612 364.012 213.3C364.012 214.988 362.664 216.358 361.002 216.358Z" fill="#001C41"/>
<mask id="mask1" mask-type="alpha" maskUnits="userSpaceOnUse" x="134" y="266" width="236" height="6">
<path fill-rule="evenodd" clip-rule="evenodd" d="M134.714 266.042H370V271.687H134.714V266.042Z" fill="white"/>
</mask>
<g mask="url(#mask1)">
<path fill-rule="evenodd" clip-rule="evenodd" d="M367.02 271.687H137.693C136.047 271.687 134.714 270.423 134.714 268.865C134.714 267.307 136.047 266.042 137.693 266.042H367.02C368.666 266.042 370.001 267.307 370.001 268.865C370.001 270.423 368.666 271.687 367.02 271.687Z" fill="#001C41"/>
</g>
<mask id="mask2" mask-type="alpha" maskUnits="userSpaceOnUse" x="134" y="304" width="236" height="7">
<path fill-rule="evenodd" clip-rule="evenodd" d="M134.714 304.355H370V310H134.714V304.355Z" fill="white"/>
</mask>
<g mask="url(#mask2)">
<path fill-rule="evenodd" clip-rule="evenodd" d="M367.02 310H137.693C136.047 310 134.714 308.736 134.714 307.178C134.714 305.62 136.047 304.355 137.693 304.355H367.02C368.666 304.355 370.001 305.62 370.001 307.178C370.001 308.736 368.666 310 367.02 310Z" fill="#001C41"/>
</g>
<path fill-rule="evenodd" clip-rule="evenodd" d="M158.991 289.727H150.111C148.466 289.727 147.133 288.431 147.133 286.83C147.133 285.231 148.466 283.935 150.111 283.935H158.991C160.636 283.935 161.972 285.231 161.972 286.83C161.972 288.431 160.636 289.727 158.991 289.727ZM182.073 289.727H173.196C171.551 289.727 170.215 288.431 170.215 286.83C170.215 285.231 171.551 283.935 173.196 283.935H182.073C183.72 283.935 185.053 285.231 185.053 286.83C185.053 288.431 183.72 289.727 182.073 289.727ZM205.162 289.727H196.281C194.637 289.727 193.304 288.431 193.304 286.83C193.304 285.231 194.637 283.935 196.281 283.935H205.162C206.806 283.935 208.142 285.231 208.142 286.83C208.142 288.431 206.806 289.727 205.162 289.727ZM228.247 289.727H219.367C217.722 289.727 216.389 288.431 216.389 286.83C216.389 285.231 217.722 283.935 219.367 283.935H228.247C229.892 283.935 231.227 285.231 231.227 286.83C231.227 288.431 229.892 289.727 228.247 289.727ZM251.335 289.727H242.455C240.81 289.727 239.475 288.431 239.475 286.83C239.475 285.231 240.81 283.935 242.455 283.935H251.335C252.98 283.935 254.313 285.231 254.313 286.83C254.313 288.431 252.98 289.727 251.335 289.727ZM274.418 289.727H265.54C263.893 289.727 262.56 288.431 262.56 286.83C262.56 285.231 263.893 283.935 265.54 283.935H274.418C276.065 283.935 277.398 285.231 277.398 286.83C277.398 288.431 276.065 289.727 274.418 289.727ZM297.506 289.727H288.626C286.981 289.727 285.648 288.431 285.648 286.83C285.648 285.231 286.981 283.935 288.626 283.935H297.506C299.151 283.935 300.487 285.231 300.487 286.83C300.487 288.431 299.151 289.727 297.506 289.727ZM320.589 289.727H311.711C310.067 289.727 308.731 288.431 308.731 286.83C308.731 285.231 310.067 283.935 311.711 283.935H320.589C322.236 283.935 323.569 285.231 323.569 286.83C323.569 288.431 322.236 289.727 320.589 289.727ZM343.677 289.727H334.8C333.152 289.727 331.819 288.431 331.819 286.83C331.819 285.231 333.152 283.935 334.8 283.935H343.677C345.322 283.935 346.658 285.231 346.658 286.83C346.658 288.431 345.322 289.727 343.677 289.727ZM366.763 289.727H357.883C356.238 289.727 354.905 288.431 354.905 286.83C354.905 285.231 356.238 283.935 357.883 283.935H366.763C368.407 283.935 369.743 285.231 369.743 286.83C369.743 288.431 368.407 289.727 366.763 289.727Z" fill="#001C41"/>
<path fill-rule="evenodd" clip-rule="evenodd" d="M193.723 225.047C192.264 225.047 191.08 223.728 191.08 222.102C191.08 214.914 191.92 208.464 193.573 202.928C194.036 201.384 195.529 200.547 196.915 201.066C198.3 201.579 199.048 203.246 198.588 204.79C197.114 209.723 196.366 215.548 196.366 222.102C196.366 223.728 195.182 225.047 193.723 225.047Z" fill="#001C41"/>
<path fill-rule="evenodd" clip-rule="evenodd" d="M308.501 225.047C306.865 225.047 305.538 223.728 305.538 222.102C305.538 215.15 303.687 209.635 302.201 205.201L302.063 204.789C301.544 203.246 302.385 201.578 303.936 201.065C305.486 200.547 307.166 201.386 307.682 202.927L307.82 203.339C309.359 207.918 311.464 214.196 311.464 222.102C311.464 223.728 310.137 225.047 308.501 225.047Z" fill="#001C41"/>
</svg>
