<svg width="108" height="97" viewBox="0 0 108 97" fill="none" xmlns="http://www.w3.org/2000/svg">
<g clip-path="url(#clip0)">
<path d="M69.7526 46.4072V59.0862L63.1328 52.4389V46.4072H69.7526Z" fill="#5EBCD6"/>
<path d="M26.2338 38.5293H18.3882V86.1676H26.2338V38.5293Z" fill="#F56464"/>
<path d="M32.1181 80.8743H32.8536H35.5505H48.6675H51.2418H76.1272C76.6175 80.8743 77.1079 80.505 77.353 80.0126C77.5982 79.5202 77.4756 78.9047 77.1079 78.5354L55.042 56.3781C54.5517 55.8857 53.6936 55.8857 53.2032 56.3781L31.1374 78.5354C30.7696 78.9047 30.647 79.5202 30.8922 80.0126C31.1374 80.6281 31.6277 80.8743 32.1181 80.8743ZM54.1839 59.3324L73.0625 78.2892H51.3644H48.79H35.5505H35.3054L35.5505 78.0431L54.1839 59.3324Z" fill="#001C41"/>
<path d="M54.1839 66.5949C54.9964 66.5949 55.655 65.9336 55.655 65.1178C55.655 64.302 54.9964 63.6406 54.1839 63.6406C53.3715 63.6406 52.7129 64.302 52.7129 65.1178C52.7129 65.9336 53.3715 66.5949 54.1839 66.5949Z" fill="#001C41"/>
<path d="M39.4735 2.95431C40.2859 2.95431 40.9445 2.29297 40.9445 1.47716C40.9445 0.661346 40.2859 0 39.4735 0C38.6611 0 38.0024 0.661346 38.0024 1.47716C38.0024 2.29297 38.6611 2.95431 39.4735 2.95431Z" fill="#001C41"/>
<path d="M13.1171 70.4113C13.9295 70.4113 14.5881 69.75 14.5881 68.9342C14.5881 68.1184 13.9295 67.457 13.1171 67.457C12.3046 67.457 11.646 68.1184 11.646 68.9342C11.646 69.75 12.3046 70.4113 13.1171 70.4113Z" fill="#001C41"/>
<path d="M90.225 71.7654C91.0374 71.7654 91.696 71.104 91.696 70.2882C91.696 69.4724 91.0374 68.811 90.225 68.811C89.4125 68.811 88.7539 69.4724 88.7539 70.2882C88.7539 71.104 89.4125 71.7654 90.225 71.7654Z" fill="#001C41"/>
<path d="M44.867 75.5813C45.2348 75.5813 45.4799 75.4582 45.8477 75.212L52.3449 68.6879C52.8352 68.1955 52.8352 67.3338 52.3449 66.8415C51.8545 66.3491 50.9964 66.3491 50.506 66.8415L44.0089 73.3656C43.5185 73.858 43.5185 74.7196 44.0089 75.212C44.1315 75.4582 44.4992 75.5813 44.867 75.5813Z" fill="#001C41"/>
<path d="M44.7445 2.83117H50.0157C52.2223 2.83117 53.9386 4.55452 53.9386 6.77026V27.9428C53.9386 28.6814 54.5515 29.2969 55.287 29.2969C56.0226 29.2969 56.6355 28.6814 56.6355 27.9428V6.77026C56.6355 3.07736 53.6934 0.123047 50.0157 0.123047H44.7445C44.0089 0.123047 43.396 0.738529 43.396 1.47711C43.396 2.21569 44.0089 2.83117 44.7445 2.83117Z" fill="#001C41"/>
<path d="M81.766 96.9998C82.6461 96.9998 83.3596 96.2834 83.3596 95.3996C83.3596 94.5158 82.6461 93.7993 81.766 93.7993C80.8859 93.7993 80.1724 94.5158 80.1724 95.3996C80.1724 96.2834 80.8859 96.9998 81.766 96.9998Z" fill="#001C41"/>
<path d="M77.7206 94.0459H22.4334C21.6979 94.0459 21.085 94.6614 21.085 95.4C21.085 96.1385 21.6979 96.754 22.4334 96.754H77.7206C78.4561 96.754 79.0691 96.1385 79.0691 95.4C78.9465 94.6614 78.4561 94.0459 77.7206 94.0459Z" fill="#001C41"/>
<path d="M106.652 88.7523H102.974L95.9864 81.7358L92.1862 77.9198L88.3859 74.1038L84.9535 70.6571L76.4949 62.1635L73.5528 59.0861L71.1011 56.6241V46.4071C71.1011 40.3754 70.7333 34.5899 70.1203 30.2815C69.5074 26.3424 68.7719 24.0036 67.7912 23.1419V19.3259C67.7912 18.5873 67.1782 17.9719 66.4427 17.9719C65.7072 17.9719 65.0942 18.5873 65.0942 19.3259V23.1419C64.1135 24.1267 63.378 26.3424 62.7651 30.2815C62.1521 34.5899 61.7844 40.2523 61.7844 46.4071V47.3919L58.4745 44.0683L54.7968 40.3754C54.3065 39.883 53.4484 39.883 52.958 40.3754L51.2418 42.0988V6.77008C51.2418 6.0315 50.6289 5.41602 49.8933 5.41602H34.2021C33.4665 5.41602 32.8536 6.0315 32.8536 6.77008V60.6863L27.5823 65.9795V38.529V38.4059V38.2828C27.5823 38.1597 27.5823 38.0366 27.4597 38.0366L23.6595 29.0505V25.7269C23.6595 24.9883 23.0466 24.3729 22.311 24.3729C21.5755 24.3729 20.9626 24.9883 20.9626 25.7269V29.0505L17.1623 38.0366C17.1623 38.1597 17.0398 38.2828 17.0398 38.2828V38.4059V38.529V76.5658L4.90355 88.7523H1.22591C0.490381 88.7523 -0.122559 89.3678 -0.122559 90.1064C-0.122559 90.8449 0.490381 91.4604 1.22591 91.4604H5.3939H18.3882H26.2339H34.0795H49.8933H102.361H106.652C107.387 91.4604 108 90.8449 108 90.1064C108 89.3678 107.387 88.7523 106.652 88.7523ZM66.0749 51.5772L64.6039 50.1V47.7612H68.5267V54.0391L66.0749 51.5772ZM66.4427 25.9731C67.3008 28.312 68.2815 34.5899 68.4041 45.0531H64.4813C64.6039 34.713 65.7072 28.312 66.4427 25.9731ZM48.6674 8.12414V44.8069L35.5505 57.9782V45.0531H39.4734C40.2089 45.0531 40.8218 44.4376 40.8218 43.699C40.8218 42.9604 40.2089 42.3449 39.4734 42.3449H35.5505V39.7599H38.1249C38.8604 39.7599 39.4734 39.1444 39.4734 38.4059C39.4734 37.6673 38.8604 37.0518 38.1249 37.0518H35.5505V34.4668H38.1249C38.8604 34.4668 39.4734 33.8513 39.4734 33.1127C39.4734 32.3741 38.8604 31.7587 38.1249 31.7587H35.5505V29.1736H42.1703C42.9058 29.1736 43.5188 28.5581 43.5188 27.8196C43.5188 27.081 42.9058 26.4655 42.1703 26.4655H35.5505V23.8805H38.1249C38.8604 23.8805 39.4734 23.265 39.4734 22.5264C39.4734 21.7878 38.8604 21.1724 38.1249 21.1724H35.5505V18.5873H38.1249C38.8604 18.5873 39.4734 17.9719 39.4734 17.2333C39.4734 16.4947 38.8604 16.0023 38.1249 16.0023H35.5505V13.4173H42.1703C42.9058 13.4173 43.5188 12.8018 43.5188 12.0632C43.5188 11.3246 42.9058 10.7092 42.1703 10.7092H35.5505V8.12414H48.6674ZM32.8536 64.3792L35.428 61.7942L48.5449 48.6229L51.1192 46.0378L53.6936 43.4528L55.4098 45.1762L52.8354 47.7612C52.3451 48.2536 52.3451 49.1152 52.8354 49.6076C53.0806 49.8538 53.4484 49.9769 53.8161 49.9769C54.1839 49.9769 54.4291 49.8538 54.7968 49.6076L57.3712 47.0226L59.21 48.8691L56.6357 51.4541C56.1453 51.9465 56.1453 52.8081 56.6357 53.3005C56.8808 53.5467 57.2486 53.6698 57.6164 53.6698C57.9841 53.6698 58.2293 53.5467 58.5971 53.3005L61.1714 50.7155L61.6618 51.2079L63.0102 52.5619L60.4359 55.147C59.9455 55.6394 59.9455 56.501 60.4359 56.9934C60.6811 57.2396 61.0488 57.3627 61.4166 57.3627C61.7844 57.3627 62.0295 57.2396 62.3973 56.9934L64.9716 54.4084L66.8105 56.2548L64.2361 58.8399C63.7458 59.3322 63.7458 60.1939 64.2361 60.6863C64.4813 60.9325 64.8491 61.0556 65.2168 61.0556C65.5846 61.0556 65.8298 60.9325 66.1975 60.6863L68.7719 58.1013L70.6107 59.9477L68.0363 62.5328C67.546 63.0251 67.546 63.8868 68.0363 64.3792C68.2815 64.6254 68.6493 64.7485 69.0171 64.7485C69.3848 64.7485 69.63 64.6254 69.9978 64.3792L72.5721 61.7942L74.4109 63.6406L71.8366 66.2257C71.3462 66.718 71.3462 67.5797 71.8366 68.0721C72.0817 68.3183 72.4495 68.4414 72.8173 68.4414C73.185 68.4414 73.4302 68.3183 73.798 68.0721L76.3723 65.4871L76.8627 65.9795L78.3337 67.4566L75.6368 70.1647C75.1465 70.6571 75.1465 71.5188 75.6368 72.0112C75.882 72.2574 76.2497 72.3805 76.6175 72.3805C76.9853 72.3805 77.2304 72.2574 77.5982 72.0112L80.1726 69.4262L82.0114 71.2726L79.437 73.8576C78.9467 74.35 78.9467 75.2117 79.437 75.7041C79.6822 75.9503 80.05 76.0734 80.4177 76.0734C80.7855 76.0734 81.0307 75.9503 81.3984 75.7041L83.9728 73.119L84.9535 74.1038L85.8116 74.9655L83.2373 77.5505C82.7469 78.0429 82.7469 78.9046 83.2373 79.397C83.4824 79.6432 83.8502 79.7663 84.218 79.7663C84.5857 79.7663 84.8309 79.6432 85.1987 79.397L87.773 76.8119L89.6118 78.6584L87.0375 81.2434C86.5471 81.7358 86.5471 82.5975 87.0375 83.0899C87.2827 83.3361 87.6504 83.4592 88.0182 83.4592C88.386 83.4592 88.6311 83.3361 88.9989 83.0899L91.5732 80.5048L93.4121 82.3513L90.8377 84.9363C90.3474 85.4287 90.3474 86.2904 90.8377 86.7828C91.0829 87.0289 91.4507 87.152 91.8184 87.152C92.1862 87.152 92.4314 87.0289 92.7991 86.7828L95.3735 84.1977L99.664 88.5061H51.3644H32.9762H27.7049V85.9211V69.6723L32.8536 64.3792ZM19.7367 88.7523V87.3982H25.008V88.7523H19.7367ZM22.4336 32.6203L24.395 37.1749H20.4722L22.4336 32.6203ZM19.7367 39.883H25.008V68.6876V72.3805V84.8132H19.7367V77.5505V73.8576V39.883ZM17.1623 80.2586V86.0442V88.6292H8.70377L17.1623 80.2586Z" fill="#001C41"/>
<path d="M103.342 85.3057C103.587 85.5519 103.955 85.675 104.322 85.675C104.69 85.675 104.935 85.5519 105.303 85.3057C105.793 84.8133 105.793 83.9516 105.303 83.4593L94.1475 72.2575C93.6571 71.7651 92.799 71.7651 92.3087 72.2575C91.8183 72.7499 91.8183 73.6115 92.3087 74.1039L103.342 85.3057Z" fill="#001C41"/>
<path d="M13.117 64.995C13.8526 64.995 14.4655 64.3796 14.4655 63.641V39.8834C14.4655 39.1448 13.8526 38.5293 13.117 38.5293C12.3815 38.5293 11.7686 39.1448 11.7686 39.8834V63.641C11.8911 64.3796 12.3815 64.995 13.117 64.995Z" fill="#001C41"/>
</g>
<defs>
<clipPath id="clip0">
<rect width="108" height="97" fill="white"/>
</clipPath>
</defs>
</svg>
