<svg width="289" height="65" viewBox="0 0 289 65" fill="none" xmlns="http://www.w3.org/2000/svg">
<path d="M79.6227 18.5528C78.2499 18.5528 76.9493 18.2651 75.8655 17.618C74.7817 16.9708 73.9869 16.1078 73.4812 15.0292C73.4089 14.8854 73.3367 14.7416 73.3367 14.5977C73.3367 14.3101 73.4089 14.0944 73.6257 13.8786C73.8424 13.6629 74.0592 13.591 74.4205 13.591C74.6372 13.591 74.854 13.6629 74.9985 13.8067C75.2152 13.9505 75.3598 14.0944 75.432 14.3101C75.721 14.8854 76.2268 15.3887 76.9493 15.8202C77.6718 16.1798 78.5389 16.3955 79.4782 16.3955C80.562 16.3955 81.5012 16.1078 82.1515 15.5326C82.8018 14.9573 83.1631 14.2382 83.1631 13.2314C83.1631 12.3685 82.8741 11.6494 82.2238 11.0741C81.5735 10.4989 80.6342 10.0674 79.3337 9.92358C77.5996 9.70784 76.299 9.13256 75.2875 8.26964C74.276 7.33481 73.7702 6.18425 73.7702 4.88987C73.7702 3.95504 73.9869 3.09211 74.4927 2.37301C74.9985 1.65391 75.6488 1.07863 76.5158 0.71908C77.3828 0.359529 78.3221 0.143799 79.4059 0.143799C80.562 0.143799 81.6457 0.431439 82.5128 0.93481C83.3798 1.51009 84.1023 2.15728 84.6081 3.09211C84.7526 3.30784 84.8249 3.52357 84.8249 3.7393C84.8249 4.09886 84.6804 4.3865 84.3191 4.60223C83.9578 4.81796 83.5966 4.74605 83.2353 4.60223C83.0908 4.53032 82.9463 4.31459 82.8018 4.17077C82.0793 2.94829 80.9232 2.3011 79.4059 2.3011C78.3221 2.3011 77.4551 2.51683 76.8048 3.0202C76.2268 3.45166 75.8655 4.09886 75.8655 4.96178C75.8655 6.5438 77.0938 7.55054 79.6949 7.91009C81.5012 8.19773 82.874 8.77301 83.8133 9.70784C84.7526 10.6427 85.1861 11.8651 85.1861 13.3034C85.1861 14.382 84.8971 15.3887 84.3914 16.1798C83.8856 16.9708 83.1631 17.618 82.296 17.9775C81.6458 18.3371 80.6342 18.5528 79.6227 18.5528Z" fill="white"/>
<path d="M92.9894 18.409C91.9057 18.409 90.8941 18.1214 89.9548 17.618C89.0878 17.1147 88.3653 16.3956 87.8595 15.4607C87.3537 14.5259 87.137 13.4472 87.137 12.2967C87.137 11.1461 87.3537 10.0675 87.8595 9.13264C88.3653 8.19781 89.0155 7.47871 89.8103 6.97534C90.6774 6.47197 91.6166 6.18433 92.7004 6.18433C93.712 6.18433 94.6513 6.47197 95.4461 6.97534C96.2408 7.47871 96.8911 8.19781 97.3246 9.06073C97.7581 9.92365 97.9749 11.0023 97.9749 12.081C97.9749 12.3686 97.9026 12.5843 97.6859 12.8001C97.5414 12.9439 97.2524 13.0877 96.9634 13.0877H89.0155C89.16 14.0225 89.5213 14.8855 90.2438 15.4607C90.9664 16.1079 91.8334 16.4675 92.9172 16.4675C93.3507 16.4675 93.8565 16.3956 94.29 16.2517C94.7235 16.1079 95.157 15.8922 95.3738 15.6046C95.8073 15.245 96.2408 15.245 96.6744 15.5326C96.8911 15.7484 97.0356 16.036 97.0356 16.3237C97.0356 16.6113 96.9634 16.827 96.7466 16.9708C96.2408 17.4023 95.6628 17.7619 94.9403 17.9776C94.29 18.2652 93.6397 18.409 92.9894 18.409ZM89.16 11.218H96.0241C95.8796 10.2832 95.5183 9.5641 95.0125 8.98882C94.4345 8.34163 93.6397 8.05399 92.7004 8.05399C91.7612 8.05399 90.9664 8.34163 90.3161 8.98882C89.6658 9.63601 89.3046 10.3551 89.16 11.218Z" fill="white"/>
<path d="M104.911 18.4089C103.827 18.4089 102.816 18.1213 101.949 17.6179C101.082 17.1146 100.359 16.3235 99.8534 15.3887C99.3476 14.4539 99.1309 13.4471 99.1309 12.2966C99.1309 11.146 99.3476 10.0674 99.8534 9.13253C100.359 8.1977 101.009 7.4786 101.876 6.90332C102.744 6.39995 103.683 6.1123 104.767 6.1123C106.501 6.1123 107.946 6.83141 109.03 8.1977C109.174 8.34152 109.246 8.55725 109.246 8.77298C109.246 9.06062 109.102 9.34826 108.813 9.56399C108.379 9.85163 107.946 9.77972 107.512 9.34826C107.151 8.9168 106.717 8.55725 106.212 8.34152C105.778 8.12579 105.272 7.98197 104.694 7.98197C103.972 7.98197 103.394 8.12579 102.816 8.48534C102.31 8.84489 101.876 9.34826 101.587 9.99545C101.298 10.6426 101.154 11.3617 101.154 12.1528C101.154 12.9438 101.298 13.6629 101.66 14.3101C101.949 14.9572 102.454 15.4606 102.96 15.8202C103.538 16.1797 104.189 16.3235 104.911 16.3235C105.923 16.3235 106.79 16.0359 107.368 15.4606C107.801 15.1011 108.307 15.1011 108.668 15.3887C108.885 15.6044 109.03 15.8921 109.03 16.1797C109.03 16.3954 108.957 16.6831 108.74 16.8269C107.801 17.9056 106.501 18.4089 104.911 18.4089Z" fill="white"/>
<path d="M112.859 18.337C112.57 18.337 112.281 18.2651 112.136 18.0494C111.992 17.8337 111.847 17.6179 111.847 17.2584V6.25612H112.859C113.148 6.25612 113.437 6.32804 113.581 6.54377C113.726 6.7595 113.87 6.97523 113.87 7.33478V7.55051C114.232 7.19096 114.593 6.90332 115.027 6.61568C115.677 6.25612 116.399 6.1123 117.122 6.1123C117.7 6.1123 118.206 6.18421 118.567 6.39994C119.073 6.61568 119.217 7.04714 119.217 7.26287C119.217 7.40669 119.217 7.4786 119.217 7.55051C119.145 7.76624 119 7.98197 118.856 8.05388C118.711 8.12579 118.495 8.1977 118.278 8.1977C118.133 8.1977 117.917 8.1977 117.628 8.12579C117.483 8.12579 117.339 8.12579 117.194 8.12579C116.255 8.12579 115.46 8.41343 114.882 8.9168C114.304 9.42017 114.015 10.0674 114.015 10.9303V17.2584C114.015 17.546 114.015 18.337 114.015 18.337C114.015 18.337 113.148 18.337 112.859 18.337Z" fill="white"/>
<path d="M155.416 18.337C155.127 18.337 154.838 18.2651 154.693 18.0494C154.549 17.8337 154.404 17.6179 154.404 17.2584V6.25612H155.416C155.705 6.25612 155.994 6.32804 156.138 6.54377C156.283 6.7595 156.427 6.97523 156.427 7.33478V7.55051C156.789 7.19096 157.15 6.90332 157.583 6.61568C158.234 6.25612 158.956 6.1123 159.679 6.1123C160.257 6.1123 160.763 6.18421 161.124 6.39994C161.63 6.61568 161.774 7.04714 161.774 7.26287C161.774 7.40669 161.774 7.4786 161.774 7.55051C161.702 7.76624 161.557 7.98197 161.413 8.05388C161.268 8.12579 161.052 8.1977 160.835 8.1977C160.69 8.1977 160.474 8.1977 160.185 8.12579C160.04 8.12579 159.896 8.12579 159.751 8.12579C158.812 8.12579 158.017 8.41343 157.439 8.9168C156.861 9.42017 156.572 10.0674 156.572 10.9303V17.2584C156.572 17.546 156.572 18.337 156.572 18.337C156.572 18.337 155.705 18.337 155.416 18.337Z" fill="white"/>
<path d="M125.359 18.409C124.275 18.409 123.264 18.1214 122.324 17.618C121.457 17.1147 120.735 16.3956 120.229 15.4607C119.723 14.5259 119.506 13.4472 119.506 12.2967C119.506 11.1461 119.723 10.0675 120.229 9.13264C120.735 8.19781 121.385 7.47871 122.18 6.97534C123.047 6.47197 123.986 6.18433 125.07 6.18433C126.081 6.18433 127.021 6.47197 127.815 6.97534C128.61 7.47871 129.26 8.19781 129.694 9.06073C130.128 9.92365 130.344 11.0023 130.344 12.081C130.344 12.3686 130.272 12.5843 130.055 12.8001C129.911 12.9439 129.622 13.0877 129.333 13.0877H121.385C121.529 14.0225 121.891 14.8855 122.613 15.4607C123.336 16.1079 124.203 16.4675 125.287 16.4675C125.72 16.4675 126.226 16.3956 126.659 16.2517C127.093 16.1079 127.526 15.8922 127.743 15.6046C128.177 15.245 128.61 15.245 129.044 15.5326C129.26 15.7484 129.405 16.036 129.405 16.3237C129.405 16.6113 129.333 16.827 129.116 16.9708C128.61 17.4023 128.032 17.7619 127.31 17.9776C126.732 18.2652 126.009 18.409 125.359 18.409ZM121.529 11.218H128.393C128.249 10.2832 127.888 9.5641 127.382 8.98882C126.804 8.34163 126.009 8.05399 125.07 8.05399C124.131 8.05399 123.336 8.34163 122.685 8.98882C122.035 9.63601 121.674 10.3551 121.529 11.218Z" fill="white"/>
<path d="M137.497 18.3372H137.064C136.341 18.3372 135.619 18.1215 135.041 17.7619C134.463 17.4024 133.957 16.8271 133.595 16.1799C133.234 15.5327 133.09 14.8136 133.09 13.9507V8.62932H131.067V7.69449C131.067 7.40685 131.139 7.19111 131.356 6.97538C131.5 6.75965 131.789 6.68774 132.006 6.68774H133.09V3.66752V2.58887H134.029C134.318 2.58887 134.607 2.66078 134.824 2.87651C135.041 3.09224 135.113 3.30797 135.113 3.66752V6.68774H138.147V7.62258C138.147 7.91022 138.075 8.12595 137.858 8.26977C137.714 8.41359 137.425 8.55741 137.208 8.55741H135.113V13.9507C135.113 14.5979 135.257 15.1012 135.691 15.5327C136.052 15.9641 136.486 16.108 137.064 16.108H137.642C137.931 16.108 138.147 16.1799 138.364 16.3956C138.509 16.6113 138.653 16.8271 138.653 17.1866C138.653 17.4743 138.581 17.7619 138.364 17.9057C138.075 18.1934 137.858 18.3372 137.497 18.3372Z" fill="white"/>
<path d="M165.026 18.337C164.737 18.337 164.52 18.2651 164.303 18.0494C164.086 17.8336 164.014 17.546 164.014 17.2584V6.2561H165.026C165.315 6.2561 165.531 6.32801 165.748 6.54374C165.965 6.75947 166.037 6.9752 166.037 7.33476V18.337H165.026Z" fill="white"/>
<path d="M194.288 18.4089C193.204 18.4089 192.193 18.1213 191.326 17.6179C190.459 17.1145 189.736 16.3235 189.23 15.3887C188.725 14.4539 188.436 13.3752 188.436 12.2966C188.436 11.2179 188.652 10.1392 189.158 9.20441C189.664 8.26958 190.314 7.55048 191.181 6.9752C192.048 6.47183 193.06 6.18419 194.071 6.18419C195.011 6.18419 195.805 6.39992 196.6 6.75947C197.178 7.04711 197.684 7.40666 198.045 7.91003V1.36621H198.984C199.273 1.36621 199.563 1.43812 199.779 1.65385C199.996 1.86958 200.068 2.08531 200.068 2.44486V12.3685C200.068 13.519 199.779 14.5258 199.273 15.4606C198.768 16.3954 198.045 17.1145 197.178 17.6898C196.383 18.1213 195.372 18.4089 194.288 18.4089ZM194.288 8.12576C193.566 8.12576 192.915 8.34149 192.337 8.62913C191.759 8.98868 191.253 9.49206 190.964 10.1392C190.603 10.7864 190.459 11.5055 190.459 12.2966C190.459 13.0876 190.603 13.8067 190.964 14.4539C191.326 15.101 191.759 15.6044 192.337 15.964C192.915 16.3235 193.566 16.5392 194.288 16.5392C195.011 16.5392 195.661 16.3235 196.239 15.964C196.817 15.6044 197.323 15.101 197.612 14.4539C197.973 13.8067 198.117 13.0876 198.117 12.2966C198.117 12.0808 198.117 11.937 198.117 11.7932C198.117 11.7213 198.117 11.7213 198.117 11.6494C197.973 10.6426 197.539 9.7797 196.889 9.1325C196.167 8.48531 195.3 8.12576 194.288 8.12576Z" fill="white"/>
<path d="M208.594 18.409C207.51 18.409 206.499 18.1214 205.56 17.618C204.693 17.1147 203.97 16.3956 203.464 15.4607C202.958 14.5259 202.742 13.4472 202.742 12.2967C202.742 11.1461 202.958 10.0675 203.464 9.13264C203.97 8.19781 204.62 7.47871 205.415 6.97534C206.282 6.47197 207.221 6.18433 208.305 6.18433C209.317 6.18433 210.256 6.47197 211.051 6.97534C211.846 7.47871 212.496 8.19781 212.929 9.06073C213.363 9.92365 213.58 11.0023 213.58 12.081C213.58 12.3686 213.507 12.5843 213.291 12.8001C213.146 12.9439 212.857 13.0877 212.568 13.0877H204.62C204.765 14.0225 205.126 14.8855 205.849 15.4607C206.571 16.1079 207.438 16.4675 208.522 16.4675C208.955 16.4675 209.461 16.3956 209.895 16.2517C210.328 16.1079 210.762 15.8922 210.979 15.6046C211.412 15.245 211.846 15.245 212.279 15.5326C212.496 15.7484 212.64 16.036 212.64 16.3237C212.64 16.6113 212.568 16.827 212.351 16.9708C211.846 17.4023 211.268 17.7619 210.545 17.9776C209.967 18.2652 209.244 18.409 208.594 18.409ZM204.765 11.218H211.629C211.484 10.2832 211.123 9.5641 210.617 8.98882C210.039 8.34163 209.244 8.05399 208.305 8.05399C207.366 8.05399 206.571 8.34163 205.921 8.98882C205.343 9.63601 204.909 10.3551 204.765 11.218Z" fill="white"/>
<path d="M145.806 18.409C144.723 18.409 143.783 18.1214 142.916 17.618C142.049 17.1147 141.327 16.3237 140.893 15.3888C140.387 14.454 140.171 13.4472 140.171 12.2967C140.171 11.1461 140.46 10.1394 140.965 9.20455C141.471 8.26972 142.194 7.55062 143.061 6.97534C143.928 6.47197 144.939 6.18433 146.023 6.18433C147.107 6.18433 148.118 6.47197 148.986 6.97534C149.853 7.47871 150.575 8.26972 151.081 9.20455C151.587 10.1394 151.876 11.218 151.876 12.2967V17.3304V18.3371C151.876 18.3371 151.225 18.3371 150.936 18.3371C150.431 18.3371 149.997 17.9057 149.997 17.3304V16.5394C149.564 17.0428 148.986 17.4742 148.407 17.8338C147.54 18.1933 146.746 18.409 145.806 18.409ZM145.951 7.98208C145.228 7.98208 144.506 8.19781 143.928 8.55736C143.35 8.91691 142.844 9.42028 142.483 10.1394C142.121 10.7866 141.977 11.5057 141.977 12.3686C141.977 13.1596 142.121 13.9506 142.483 14.5978C142.844 15.245 143.35 15.7484 143.928 16.1079C144.506 16.4675 145.228 16.6832 145.951 16.6832C146.673 16.6832 147.396 16.4675 147.974 16.1079C148.552 15.7484 149.058 15.245 149.419 14.5978C149.78 13.9506 149.925 13.2315 149.925 12.3686C149.925 11.5776 149.78 10.7866 149.419 10.1394C149.058 9.49219 148.552 8.98882 147.974 8.55736C147.396 8.19781 146.746 7.98208 145.951 7.98208Z" fill="white"/>
<path d="M174.708 18.409C173.624 18.409 172.684 18.1214 171.817 17.618C170.95 17.1147 170.228 16.3237 169.794 15.3888C169.289 14.454 169.072 13.4472 169.072 12.2967C169.072 11.1461 169.361 10.1394 169.867 9.20455C170.372 8.26972 171.095 7.55062 171.962 6.97534C172.829 6.47197 173.84 6.18433 174.924 6.18433C176.008 6.18433 177.02 6.47197 177.887 6.97534C178.754 7.47871 179.476 8.26972 179.982 9.20455C180.488 10.1394 180.777 11.218 180.777 12.2967V17.3304V18.3371C180.777 18.3371 180.126 18.3371 179.837 18.3371C179.332 18.3371 178.898 17.9057 178.898 17.3304V16.5394C178.465 17.0428 177.887 17.4742 177.309 17.8338C176.442 18.1933 175.575 18.409 174.708 18.409ZM174.852 7.98208C174.129 7.98208 173.407 8.19781 172.829 8.55736C172.251 8.91691 171.745 9.42028 171.384 10.1394C171.023 10.7866 170.878 11.5057 170.878 12.3686C170.878 13.1596 171.023 13.9506 171.384 14.5978C171.745 15.245 172.251 15.7484 172.829 16.1079C173.407 16.4675 174.129 16.6832 174.852 16.6832C175.575 16.6832 176.297 16.4675 176.875 16.1079C177.453 15.7484 177.959 15.245 178.32 14.5978C178.681 13.9506 178.826 13.2315 178.826 12.3686C178.826 11.5776 178.681 10.7866 178.32 10.1394C177.959 9.49219 177.453 8.98882 176.875 8.55736C176.297 8.19781 175.575 7.98208 174.852 7.98208Z" fill="white"/>
<path d="M164.881 5.46515L164.086 4.60223C163.725 4.24267 163.725 3.66739 164.086 3.30784L167.121 0.143799L167.916 1.00672C168.277 1.36627 168.277 1.94155 167.916 2.3011L164.881 5.46515Z" fill="white"/>
<path d="M93.2062 45.1594C92.8449 45.1594 91.9056 45.1594 91.9056 45.1594V43.865V29.0516L84.8971 44.0089C84.6081 44.4403 84.2468 44.656 83.8133 44.656C83.3075 44.656 82.874 44.3684 82.6573 43.865L75.6487 29.2673V43.865C75.6487 44.2246 75.6487 45.1594 75.6487 45.1594C75.6487 45.1594 74.7817 45.1594 74.4204 45.1594C74.0592 45.1594 73.7702 45.0156 73.5534 44.7999C73.3366 44.5122 73.1921 44.2246 73.1921 43.865V24.3774C73.1921 24.0178 73.3366 23.6583 73.5534 23.4426C73.7702 23.2268 74.0592 23.083 74.4204 23.083C74.9262 23.083 75.2875 23.2987 75.5042 23.7302L83.8856 40.9886L92.0501 23.7302C92.3392 23.2987 92.7004 23.083 93.1339 23.083C93.4952 23.083 93.7842 23.2268 94.001 23.4426C94.2177 23.6583 94.3622 24.0178 94.3622 24.3774V43.865C94.3622 44.2246 94.2177 44.5122 94.001 44.7999C93.8565 45.0156 93.5674 45.1594 93.2062 45.1594Z" fill="white"/>
<path d="M107.295 45.2314C105.85 45.2314 104.478 44.8719 103.249 44.1528C102.093 43.4337 101.082 42.4989 100.431 41.2045C99.7812 39.982 99.4199 38.5438 99.4199 37.0337C99.4199 35.5236 99.7812 34.0854 100.431 32.8629C101.082 31.6404 102.021 30.6337 103.249 29.9146C104.405 29.1955 105.778 28.8359 107.295 28.8359C108.813 28.8359 110.113 29.1955 111.269 29.9146C112.425 30.6337 113.365 31.6404 114.087 32.8629C114.738 34.0854 115.099 35.5236 115.099 37.0337C115.099 38.5438 114.738 39.982 114.087 41.2045C113.437 42.427 112.498 43.4337 111.269 44.1528C110.113 44.8719 108.741 45.2314 107.295 45.2314ZM107.295 31.2809C106.284 31.2809 105.345 31.4966 104.55 32C103.755 32.5034 103.105 33.1505 102.599 34.0854C102.166 34.9483 101.877 35.955 101.877 37.0337C101.877 38.1123 102.093 39.1191 102.599 39.982C103.033 40.8449 103.683 41.564 104.55 42.0674C105.345 42.5708 106.284 42.7865 107.295 42.7865C108.307 42.7865 109.246 42.5708 110.041 42.0674C110.836 41.564 111.486 40.9168 111.92 39.982C112.353 39.1191 112.642 38.1123 112.642 37.0337C112.642 35.955 112.425 34.9483 111.92 34.0854C111.486 33.2225 110.836 32.5034 110.041 32C109.246 31.5685 108.307 31.2809 107.295 31.2809Z" fill="white"/>
<path d="M125.07 45.3032C123.625 45.3032 122.324 44.9437 121.168 44.2965C120.012 43.5774 119.073 42.6426 118.422 41.4201C117.772 40.1976 117.411 38.8313 117.411 37.3931C117.411 35.9549 117.772 34.5886 118.35 33.3662C119 32.1437 119.867 31.2089 121.024 30.4898C122.107 29.7706 123.408 29.483 124.781 29.483C125.937 29.483 127.093 29.7706 128.032 30.274C128.827 30.7055 129.549 31.2808 130.127 31.928V23.083H131.356C131.717 23.083 132.006 23.2268 132.223 23.4426C132.439 23.6583 132.584 24.0178 132.584 24.3774V37.3931C132.584 38.8313 132.295 40.1976 131.645 41.4201C130.994 42.6426 130.055 43.5774 128.899 44.2965C127.743 44.9437 126.443 45.3032 125.07 45.3032ZM125.07 31.7841C124.13 31.7841 123.191 31.9999 122.396 32.5032C121.602 33.0066 120.951 33.6538 120.518 34.5167C120.084 35.3796 119.867 36.3145 119.867 37.3931C119.867 38.4718 120.084 39.4066 120.518 40.2695C120.951 41.1324 121.602 41.7796 122.396 42.283C123.191 42.7864 124.058 43.0021 125.07 43.0021C126.009 43.0021 126.948 42.7864 127.743 42.283C128.538 41.7796 129.116 41.1324 129.622 40.2695C130.055 39.4066 130.272 38.4718 130.272 37.3931C130.272 37.1055 130.272 36.8897 130.272 36.7459C130.272 36.674 130.272 36.6021 130.272 36.5302C130.127 35.1639 129.549 34.0133 128.61 33.1504C127.526 32.2156 126.37 31.7841 125.07 31.7841Z" fill="white"/>
<path d="M145.228 45.3032C143.711 45.3032 142.41 44.9437 141.182 44.2246C140.026 43.5055 139.087 42.5707 138.364 41.2763C137.714 40.0538 137.353 38.6156 137.353 37.0336C137.353 35.4516 137.642 34.0134 138.292 32.7909C138.942 31.5684 139.809 30.5617 140.893 29.8426C141.977 29.1235 143.278 28.7639 144.723 28.7639C146.095 28.7639 147.324 29.1235 148.407 29.7707C149.491 30.4178 150.358 31.4246 150.936 32.5752C151.514 33.7976 151.803 35.1639 151.803 36.674C151.803 37.0336 151.659 37.3212 151.442 37.537C151.225 37.7527 150.936 37.8965 150.575 37.8965H139.737C139.882 39.2628 140.46 40.4134 141.399 41.3482C142.41 42.283 143.639 42.7864 145.084 42.7864C145.734 42.7864 146.384 42.6426 147.035 42.4268C147.685 42.2111 148.191 41.9235 148.552 41.5639C149.058 41.1325 149.636 41.0605 150.142 41.492C150.431 41.7796 150.575 42.0673 150.575 42.4268C150.575 42.7145 150.431 43.0021 150.214 43.2178C149.564 43.7931 148.769 44.2246 147.829 44.5841C147.107 45.0875 146.168 45.3032 145.228 45.3032ZM139.954 35.8111H149.564C149.419 34.5167 148.913 33.4381 148.118 32.6471C147.251 31.7841 146.168 31.3527 144.867 31.3527C143.567 31.3527 142.41 31.7841 141.543 32.6471C140.676 33.4381 140.171 34.5167 139.954 35.8111Z" fill="white"/>
<path d="M157.15 45.1594C156.789 45.1594 155.922 45.1594 155.922 45.1594C155.922 45.1594 155.922 44.2246 155.922 43.865V29.0515H157.15C157.511 29.0515 157.872 29.1954 158.089 29.4111C158.306 29.6268 158.45 29.9864 158.45 30.3459V30.9931C158.956 30.4178 159.534 29.9145 160.185 29.5549C161.052 29.1234 161.991 28.9077 162.93 28.9077C163.725 28.9077 164.375 29.0515 164.809 29.2673C165.314 29.483 165.604 29.9145 165.604 30.3459C165.604 30.4897 165.604 30.5616 165.531 30.7055C165.459 30.9931 165.314 31.2088 165.098 31.3527C164.881 31.4965 164.664 31.4965 164.375 31.4965C164.231 31.4965 163.942 31.4965 163.508 31.4246C163.364 31.4246 163.147 31.4246 162.858 31.4246C161.557 31.4246 160.474 31.7841 159.607 32.5032C158.812 33.2223 158.378 34.1572 158.378 35.3077V43.865C158.378 44.2965 158.234 44.5841 158.017 44.7998C157.8 45.0156 157.511 45.1594 157.15 45.1594Z" fill="white"/>
<path d="M182.005 45.1595C181.644 45.1595 180.704 45.1595 180.704 45.1595C180.704 45.1595 180.704 44.2247 180.704 43.8652V36.3865C180.704 34.7326 180.271 33.5101 179.404 32.6472C178.537 31.7843 177.381 31.3528 176.008 31.3528C175.141 31.3528 174.346 31.4966 173.696 31.8562C172.973 32.2157 172.468 32.6472 172.034 33.2944C171.673 33.8696 171.456 34.5887 171.456 35.3078V43.8652C171.456 44.2247 171.456 45.1595 171.456 45.1595C171.456 45.1595 170.589 45.1595 170.228 45.1595C169.867 45.1595 169.578 45.0157 169.289 44.8C169.072 44.5843 168.927 44.2247 168.927 43.8652V29.0517C168.927 29.0517 169.867 29.0517 170.228 29.0517C170.589 29.0517 170.878 29.1955 171.167 29.4112C171.384 29.627 171.528 29.9865 171.528 30.3461V30.7775C172.106 30.2022 172.684 29.7708 173.407 29.4831C174.274 29.0517 175.285 28.8359 176.297 28.8359C177.598 28.8359 178.826 29.1236 179.91 29.6989C180.993 30.2741 181.788 31.1371 182.439 32.2876C183.017 33.4382 183.378 34.8045 183.378 36.3146V43.8652C183.378 44.2247 183.233 44.5123 183.017 44.8C182.655 45.0157 182.366 45.1595 182.005 45.1595Z" fill="white"/>
<path d="M286.772 45.1595C286.41 45.1595 286.121 45.0157 285.832 44.8C285.616 44.5843 285.471 44.2247 285.471 43.8652V36.3865C285.471 34.7326 285.037 33.5101 284.17 32.6472C283.303 31.7843 282.147 31.3528 280.775 31.3528C279.908 31.3528 279.113 31.4966 278.463 31.8562C277.74 32.2157 277.234 32.6472 276.801 33.2944C276.439 33.8696 276.223 34.5887 276.223 35.3078V43.8652C276.223 44.2247 276.078 44.5843 275.861 44.8C275.645 45.0157 275.356 45.1595 274.994 45.1595C274.633 45.1595 274.344 45.0157 274.055 44.8C273.838 44.5843 273.694 44.2247 273.694 43.8652V29.0517C273.694 29.0517 274.633 29.0517 274.994 29.0517C275.356 29.0517 275.645 29.1955 275.934 29.4112C276.15 29.627 276.295 29.9865 276.295 30.3461V30.7775C276.873 30.2022 277.451 29.7708 278.174 29.4831C279.041 29.0517 280.052 28.8359 281.064 28.8359C282.364 28.8359 283.592 29.1236 284.676 29.6989C285.76 30.2741 286.555 31.1371 287.205 32.2876C287.783 33.4382 288.144 34.8045 288.144 36.3146V43.8652C288.144 44.2247 288 44.5123 287.783 44.8C287.422 45.0157 287.133 45.1595 286.772 45.1595Z" fill="white"/>
<path d="M189.808 45.1592C189.447 45.1592 189.158 45.0154 188.869 44.7996C188.652 44.5839 188.508 44.2244 188.508 43.8648V29.0513H189.808C190.17 29.0513 190.459 29.1951 190.748 29.4109C190.964 29.6266 191.109 29.9862 191.109 30.3457V45.0873L189.808 45.1592ZM189.808 26.5345C189.303 26.5345 188.941 26.3907 188.58 26.0311C188.291 25.6715 188.074 25.2401 188.074 24.7367C188.074 24.2333 188.219 23.8019 188.58 23.4423C188.941 23.1547 189.303 22.939 189.808 22.939C190.242 22.939 190.675 23.0828 190.964 23.4423C191.326 23.8019 191.47 24.2333 191.47 24.7367C191.47 25.2401 191.326 25.6715 190.964 26.0311C190.675 26.3187 190.242 26.5345 189.808 26.5345Z" fill="white"/>
<path d="M208.305 45.1594H198.117C197.467 45.1594 196.889 44.5841 196.961 43.865C196.961 43.5054 197.033 43.2178 197.178 43.074L205.921 31.4965H197.033C197.033 30.2021 196.889 29.0515 197.973 29.0515H208.16C208.811 29.0515 209.316 29.6268 209.316 30.274C209.316 30.6335 209.244 30.9212 209.027 31.1369L200.357 42.7144H209.172C209.244 44.1526 209.389 45.1594 208.305 45.1594Z" fill="white"/>
<path d="M219.649 45.3032C218.204 45.3032 216.903 44.9437 215.747 44.2246C214.591 43.5055 213.652 42.4987 213.002 41.2763C212.351 40.0538 211.99 38.6156 211.99 37.1055C211.99 35.5954 212.351 34.1572 213.002 32.9347C213.652 31.7122 214.663 30.7055 215.819 29.9864C216.975 29.2673 218.348 28.9077 219.793 28.9077C221.238 28.9077 222.611 29.2673 223.767 29.9864C224.923 30.7055 225.935 31.7122 226.585 32.9347C227.235 34.1572 227.597 35.5954 227.597 37.1055V43.865V45.1594C227.597 45.1594 226.657 45.1594 226.296 45.1594C225.574 45.1594 224.996 44.5841 224.996 43.7931V42.7145C224.417 43.4336 223.695 44.0088 222.828 44.4403C221.961 45.0156 220.877 45.3032 219.649 45.3032ZM219.866 31.3527C218.854 31.3527 217.915 31.6403 217.12 32.1437C216.325 32.647 215.675 33.3661 215.169 34.2291C214.736 35.092 214.447 36.0987 214.447 37.1774C214.447 38.256 214.663 39.2628 215.169 40.1257C215.603 40.9886 216.253 41.7077 217.12 42.2111C217.915 42.7145 218.854 42.9302 219.866 42.9302C220.877 42.9302 221.816 42.7145 222.611 42.2111C223.406 41.7077 224.056 41.0605 224.562 40.1257C224.996 39.2628 225.285 38.256 225.285 37.1774C225.285 36.0987 225.068 35.092 224.562 34.2291C224.128 33.3661 223.478 32.647 222.611 32.1437C221.744 31.6403 220.877 31.3527 219.866 31.3527Z" fill="white"/>
<path d="M238.001 45.3034C236.556 45.3034 235.183 44.9438 234.027 44.2247C232.871 43.5056 231.932 42.4989 231.282 41.2764C230.631 40.0539 230.27 38.6157 230.27 37.1056C230.27 35.5236 230.559 34.1573 231.209 32.8629C231.86 31.6404 232.727 30.6337 233.883 29.9146C235.039 29.1955 236.267 28.8359 237.712 28.8359C240.024 28.8359 241.975 29.7708 243.42 31.6404C243.565 31.8562 243.709 32.0719 243.709 32.3595C243.709 32.7191 243.492 33.0786 243.131 33.3663C242.625 33.7258 242.047 33.6539 241.541 33.0786C241.036 32.5034 240.458 32 239.807 31.7123C239.157 31.4247 238.435 31.2809 237.712 31.2809C236.773 31.2809 235.906 31.4966 235.111 32C234.388 32.5034 233.738 33.1505 233.377 34.0135C232.943 34.8764 232.727 35.8831 232.727 37.0337C232.727 38.1123 232.943 39.1191 233.377 39.982C233.81 40.8449 234.461 41.564 235.255 41.9955C236.05 42.4989 236.99 42.7146 238.001 42.7146C239.374 42.7146 240.53 42.2831 241.397 41.564C241.903 41.1326 242.553 41.0607 242.987 41.4921C243.276 41.7798 243.42 42.0674 243.42 42.4269C243.42 42.7146 243.276 43.0022 243.059 43.218C241.83 44.6562 240.096 45.3034 238.001 45.3034Z" fill="white"/>
<path d="M261.844 45.3032C260.399 45.3032 259.026 44.9437 257.798 44.2246C256.642 43.5055 255.631 42.5706 254.98 41.2763C254.33 40.0538 253.969 38.6156 253.969 37.1055C253.969 35.5954 254.33 34.1572 254.98 32.9347C255.631 31.7122 256.57 30.7055 257.798 29.9864C258.954 29.2673 260.327 28.9077 261.844 28.9077C263.289 28.9077 264.662 29.2673 265.818 29.9864C266.974 30.7055 267.914 31.7122 268.636 32.9347C269.286 34.1572 269.648 35.5954 269.648 37.1055C269.648 38.6156 269.286 40.0538 268.636 41.2763C267.986 42.4987 267.047 43.5055 265.818 44.2246C264.662 44.9437 263.362 45.3032 261.844 45.3032ZM261.844 31.3527C260.833 31.3527 259.893 31.5684 259.099 32.0718C258.304 32.5751 257.654 33.2223 257.148 34.1572C256.714 35.0201 256.425 36.0268 256.425 37.1055C256.425 38.1841 256.642 39.1909 257.148 40.0538C257.581 40.9167 258.232 41.6358 259.099 42.1392C259.893 42.6425 260.833 42.8583 261.844 42.8583C262.856 42.8583 263.795 42.6425 264.59 42.1392C265.385 41.6358 266.035 40.9886 266.468 40.0538C266.902 39.1909 267.191 38.1841 267.191 37.1055C267.191 36.0268 266.974 35.0201 266.468 34.1572C266.035 33.2942 265.385 32.5751 264.59 32.1437C263.795 31.6403 262.856 31.3527 261.844 31.3527Z" fill="white"/>
<path d="M248.911 45.1592C248.55 45.1592 248.261 45.0154 247.972 44.7996C247.755 44.5839 247.611 44.2244 247.611 43.8648V29.0513H248.911C249.272 29.0513 249.561 29.1951 249.85 29.4109C250.067 29.6266 250.212 29.9862 250.212 30.3457V45.0873L248.911 45.1592ZM248.911 26.5345C248.405 26.5345 248.044 26.3907 247.683 26.0311C247.394 25.6715 247.177 25.2401 247.177 24.7367C247.177 24.2333 247.321 23.8019 247.683 23.4423C248.044 23.1547 248.405 22.939 248.911 22.939C249.345 22.939 249.778 23.0828 250.067 23.4423C250.428 23.8019 250.573 24.2333 250.573 24.7367C250.573 25.2401 250.428 25.6715 250.067 26.0311C249.778 26.3187 249.345 26.5345 248.911 26.5345Z" fill="white"/>
<path d="M261.628 27.6852L260.616 26.6066C260.183 26.1751 260.183 25.3841 260.616 24.9527L264.662 20.71L265.674 21.7886C266.107 22.2201 266.107 23.0111 265.674 23.4425L261.628 27.6852Z" fill="white"/>
<path d="M58.3803 22.7956V5.75293H45.736C38.872 5.75293 33.0918 11.29 33.0918 18.2653H36.5599C36.5599 13.2316 40.9674 9.1327 45.5193 9.1327H54.8399V22.7956H58.3803Z" fill="white"/>
<path d="M14.5228 36.4584H49.4932C52.3111 36.4584 54.8399 38.8315 54.8399 41.636V54.6517H45.7361C40.7506 54.6517 36.56 50.5528 36.56 45.5191H33.0918C33.0918 52.4225 38.7275 58.0315 45.6638 58.0315H58.3081L58.2358 41.636C58.2358 36.818 54.2619 33.0067 49.4932 33.0067H14.5228C8.52584 33.0067 3.61264 28.1169 3.61264 22.0764V3.59551H18.4245C24.566 3.59551 29.9127 7.40674 32.0803 12.7281C34.2479 7.40674 39.5946 3.59551 45.7361 3.59551H60.5479V22.7955H64.0161V0H45.7361C40.3171 0 35.4039 2.37303 32.008 6.11236C28.6844 2.37303 23.8435 0 18.4245 0H0V22.0764C0 30.0584 6.50276 36.4584 14.5228 36.4584Z" fill="white"/>
<path d="M30.8521 45.591H27.3839C27.4562 50.4809 23.3377 54.6517 18.4246 54.6517H9.17618V40.9888H5.9248V58.0315H18.3523C25.3608 58.0315 30.8521 52.4225 30.8521 45.591Z" fill="white"/>
<path d="M64.0161 41.6361C64.0161 33.6541 57.5133 27.326 49.5655 27.326H14.5951C11.7772 27.326 9.10386 24.9529 9.10386 22.0765V9.1327H18.28C23.2654 9.1327 27.3838 13.2316 27.3838 18.2653H30.852C30.852 11.1462 25.2163 5.75293 18.4245 5.75293H5.92474V22.0765C5.92474 26.8945 9.68189 30.7776 14.5228 30.7776H49.4932C55.4902 30.7776 60.4757 35.8833 60.4757 41.8518V60.1889H45.7361C39.5946 60.1889 34.2479 56.3777 32.0803 51.0563C29.9127 56.4496 24.566 60.1889 18.4245 60.1889L3.61264 60.2608V40.9889H0V63.7844H18.4245C23.8435 63.7844 28.7566 61.4114 32.0803 57.672C35.4762 61.4114 40.3171 63.7844 45.7361 63.7844H64.0161V41.6361Z" fill="white"/>
<path d="M72.8311 54.6515C72.8311 54.4358 72.9756 54.292 73.1923 54.292H73.2646C73.4091 54.292 73.4813 54.3639 73.6258 54.5077L77.1662 59.9729L80.7066 54.5077C80.7789 54.3639 80.9234 54.292 81.0679 54.292H81.1401C81.2847 54.292 81.5014 54.4358 81.5014 54.6515V63.5684C81.5014 63.7841 81.3569 63.9279 81.1401 63.9279C80.9234 63.9279 80.7789 63.7841 80.7789 63.5684V55.5864L77.4552 60.692C77.383 60.8358 77.3107 60.8358 77.1662 60.8358C77.0217 60.8358 76.9495 60.7639 76.8772 60.692L73.5536 55.5864V63.5684C73.5536 63.7841 73.4091 63.9279 73.2646 63.9279C73.1201 63.9279 72.9756 63.7841 72.9756 63.5684V54.6515H72.8311Z" fill="white"/>
<path d="M86.1255 54.6515C86.1255 54.4358 86.27 54.292 86.4868 54.292C86.6313 54.292 86.848 54.4358 86.848 54.6515V63.5684C86.848 63.7841 86.7035 63.9279 86.4868 63.9279C86.27 63.9279 86.1255 63.7841 86.1255 63.5684V54.6515Z" fill="white"/>
<path d="M91.5444 54.6517C91.5444 54.4359 91.6889 54.2921 91.9057 54.2921H91.978C92.1225 54.2921 92.1947 54.364 92.3392 54.5079L98.4085 62.6337V54.5798C98.4085 54.364 98.553 54.2202 98.6975 54.2202C98.842 54.2202 98.9865 54.364 98.9865 54.5798V63.5685C98.9865 63.7124 98.842 63.8562 98.6975 63.8562H98.6252C98.4807 63.8562 98.4085 63.7843 98.264 63.6404L92.1947 55.3708V63.5685C92.1947 63.7843 92.0502 63.9281 91.9057 63.9281C91.7612 63.9281 91.6167 63.7843 91.6167 63.5685V54.6517H91.5444Z" fill="white"/>
<path d="M103.828 54.6515C103.828 54.4358 103.972 54.292 104.189 54.292C104.333 54.292 104.55 54.4358 104.55 54.6515V63.5684C104.55 63.7841 104.406 63.9279 104.189 63.9279C103.972 63.9279 103.828 63.7841 103.828 63.5684V54.6515Z" fill="white"/>
<path d="M108.885 62.6337C108.813 62.5618 108.741 62.4899 108.741 62.3461C108.741 62.1303 108.885 61.9865 109.102 61.9865C109.174 61.9865 109.246 62.0584 109.319 62.0584C110.258 62.9213 111.125 63.2809 112.353 63.2809C113.726 63.2809 114.665 62.4899 114.665 61.4112C114.665 60.4045 114.16 59.8292 112.137 59.3977C109.969 58.9663 109.102 58.1753 109.102 56.7371C109.102 55.2989 110.33 54.2202 111.992 54.2202C113.22 54.2202 114.015 54.5798 114.882 55.227C114.954 55.2989 115.027 55.3708 115.027 55.5146C115.027 55.7303 114.882 55.8741 114.665 55.8741C114.593 55.8741 114.521 55.8741 114.449 55.8022C113.654 55.155 112.859 54.9393 111.92 54.9393C110.619 54.9393 109.68 55.7303 109.68 56.7371C109.68 57.7438 110.186 58.391 112.281 58.8225C114.376 59.2539 115.243 60.0449 115.243 61.4831C115.243 62.9933 114.015 64.0719 112.281 64.0719C110.981 64 109.897 63.5685 108.885 62.6337Z" fill="white"/>
<path d="M121.819 54.9393H118.928C118.784 54.9393 118.639 54.7955 118.639 54.5798C118.639 54.364 118.784 54.2202 118.928 54.2202H125.359C125.503 54.2202 125.648 54.364 125.648 54.5798C125.648 54.7955 125.503 54.9393 125.359 54.9393H122.469V63.4966C122.469 63.7124 122.324 63.8562 122.108 63.8562C121.963 63.8562 121.746 63.7124 121.746 63.4966V54.9393H121.819Z" fill="white"/>
<path d="M129.622 63.4965V54.6515C129.622 54.4358 129.766 54.292 129.983 54.292H135.836C135.98 54.292 136.125 54.4358 136.125 54.6515C136.125 54.8673 135.98 55.0111 135.836 55.0111H130.344V58.7504H135.258C135.402 58.7504 135.547 58.8942 135.547 59.11C135.547 59.3257 135.402 59.4695 135.258 59.4695H130.344V63.2808H135.908C136.052 63.2808 136.197 63.4246 136.197 63.6403C136.197 63.856 136.052 63.9999 135.908 63.9999H129.983C129.839 63.856 129.622 63.7122 129.622 63.4965Z" fill="white"/>
<path d="M140.315 54.6515C140.315 54.4358 140.46 54.292 140.676 54.292H144.145C145.228 54.292 146.168 54.6515 146.673 55.2268C147.107 55.6583 147.324 56.3055 147.324 57.0246C147.324 58.6066 146.168 59.5414 144.65 59.7572L147.251 63.2808C147.324 63.3527 147.324 63.4246 147.324 63.4965C147.324 63.7122 147.179 63.856 146.962 63.856C146.818 63.856 146.746 63.7841 146.673 63.6403L143.928 59.8291H140.965V63.4965C140.965 63.7122 140.821 63.856 140.604 63.856C140.387 63.856 140.243 63.7122 140.243 63.4965V54.6515H140.315ZM144 59.2538C145.517 59.2538 146.601 58.4628 146.601 57.0965C146.601 55.8021 145.662 55.0111 144 55.0111H140.893V59.3257H144V59.2538Z" fill="white"/>
<path d="M151.731 54.6515C151.731 54.4358 151.876 54.292 152.092 54.292C152.237 54.292 152.454 54.4358 152.454 54.6515V63.5684C152.454 63.7841 152.309 63.9279 152.092 63.9279C151.876 63.9279 151.731 63.7841 151.731 63.5684V54.6515Z" fill="white"/>
<path d="M156.717 59.11C156.717 56.4493 158.523 54.1482 161.268 54.1482C164.014 54.1482 165.82 56.4493 165.82 59.0381C165.82 61.6268 164.014 63.9999 161.268 63.9999C158.523 63.9999 156.717 61.6988 156.717 59.11ZM165.098 59.11C165.098 56.737 163.436 54.7954 161.268 54.7954C159.029 54.7954 157.439 56.737 157.439 59.0381C157.439 61.4111 159.101 63.3527 161.268 63.3527C163.436 63.3527 165.098 61.483 165.098 59.11Z" fill="white"/>
<path d="M175.936 54.6515C175.936 54.4358 176.081 54.292 176.297 54.292H178.971C181.789 54.292 183.812 56.3774 183.812 59.0381C183.812 61.6987 181.861 63.7841 178.971 63.7841H176.297C176.081 63.7841 175.936 63.6403 175.936 63.4246V54.6515ZM178.971 63.2088C181.5 63.2088 183.089 61.4111 183.089 59.11C183.089 56.8808 181.5 55.0111 178.971 55.0111H176.659V63.2088H178.971Z" fill="white"/>
<path d="M188.002 63.4965V54.6515C188.002 54.4358 188.147 54.292 188.363 54.292H194.216C194.36 54.292 194.505 54.4358 194.505 54.6515C194.505 54.8673 194.36 55.0111 194.216 55.0111H188.725V58.7504H193.638C193.782 58.7504 193.927 58.8942 193.927 59.11C193.927 59.3257 193.782 59.4695 193.638 59.4695H188.725V63.2808H194.288C194.433 63.2808 194.577 63.4246 194.577 63.6403C194.577 63.856 194.433 63.9999 194.288 63.9999H188.363C188.219 63.856 188.002 63.7122 188.002 63.4965Z" fill="white"/>
<path d="M204.548 54.6515C204.548 54.4358 204.693 54.292 204.909 54.292C205.054 54.292 205.271 54.4358 205.271 54.6515V58.7504H211.051V54.6515C211.051 54.4358 211.195 54.292 211.412 54.292C211.557 54.292 211.773 54.4358 211.773 54.6515V63.5684C211.773 63.7841 211.629 63.9279 211.412 63.9279C211.195 63.9279 211.051 63.7841 211.051 63.5684V59.3976H205.271V63.5684C205.271 63.7841 205.126 63.9279 204.909 63.9279C204.693 63.9279 204.548 63.7841 204.548 63.5684V54.6515Z" fill="white"/>
<path d="M215.747 63.4247L219.577 54.5798C219.649 54.364 219.793 54.2202 220.01 54.2202C220.227 54.2202 220.371 54.364 220.444 54.5798L224.273 63.3528C224.345 63.4247 224.345 63.4966 224.345 63.5685C224.345 63.7124 224.201 63.9281 224.056 63.9281C223.912 63.9281 223.767 63.7843 223.695 63.6404L222.611 61.1955H217.265L216.181 63.6404C216.109 63.7843 216.036 63.9281 215.892 63.9281C215.747 63.9281 215.603 63.7843 215.603 63.6404C215.675 63.5685 215.747 63.4966 215.747 63.4247ZM222.467 60.5483L220.082 55.0112L217.698 60.5483H222.467Z" fill="white"/>
<path d="M227.597 59.11C227.597 56.3774 229.475 54.1482 232.149 54.1482C233.666 54.1482 234.605 54.7235 235.472 55.5145C235.544 55.5864 235.617 55.6583 235.617 55.8021C235.617 56.0179 235.472 56.1617 235.255 56.1617C235.183 56.1617 235.111 56.0898 235.039 56.0898C234.316 55.3707 233.449 54.8673 232.149 54.8673C229.981 54.8673 228.319 56.737 228.319 59.11C228.319 61.5549 229.981 63.4246 232.149 63.4246C233.377 63.4246 234.244 62.9931 235.111 62.1302C235.183 62.0583 235.255 61.9864 235.328 61.9864C235.472 61.9864 235.617 62.1302 235.617 62.3459C235.617 62.4898 235.544 62.5617 235.544 62.5617C234.605 63.4246 233.666 64.0718 232.149 64.0718C229.475 63.9999 227.597 61.8426 227.597 59.11Z" fill="white"/>
<path d="M239.591 54.6515C239.591 54.4358 239.735 54.292 239.952 54.292C240.097 54.292 240.313 54.4358 240.313 54.6515V63.5684C240.313 63.7841 240.169 63.9279 239.952 63.9279C239.735 63.9279 239.591 63.7841 239.591 63.5684V54.6515Z" fill="white"/>
<path d="M245.01 63.4965V54.6515C245.01 54.4358 245.154 54.292 245.371 54.292H251.224C251.368 54.292 251.513 54.4358 251.513 54.6515C251.513 54.8673 251.368 55.0111 251.224 55.0111H245.732V58.7504H250.645C250.79 58.7504 250.934 58.8942 250.934 59.11C250.934 59.3257 250.79 59.4695 250.645 59.4695H245.732V63.2808H251.296C251.44 63.2808 251.585 63.4246 251.585 63.6403C251.585 63.856 251.44 63.9999 251.296 63.9999H245.371C245.154 63.856 245.01 63.7122 245.01 63.4965Z" fill="white"/>
<path d="M255.631 54.6517C255.631 54.4359 255.775 54.2921 255.992 54.2921H256.064C256.209 54.2921 256.281 54.364 256.426 54.5079L262.495 62.6337V54.5798C262.495 54.364 262.639 54.2202 262.784 54.2202C262.928 54.2202 263.073 54.364 263.073 54.5798V63.5685C263.073 63.7124 262.928 63.8562 262.784 63.8562H262.712C262.567 63.8562 262.495 63.7843 262.35 63.6404L256.281 55.3708V63.5685C256.281 63.7843 256.137 63.9281 255.992 63.9281C255.848 63.9281 255.703 63.7843 255.703 63.5685V54.6517H255.631Z" fill="white"/>
<path d="M267.842 54.6515C267.842 54.4358 267.986 54.292 268.203 54.292H270.876C273.694 54.292 275.717 56.3774 275.717 59.0381C275.717 61.6987 273.766 63.7841 270.876 63.7841H268.203C267.986 63.7841 267.842 63.6403 267.842 63.4246V54.6515ZM270.876 63.2088C273.405 63.2088 274.995 61.4111 274.995 59.11C274.995 56.8808 273.405 55.0111 270.876 55.0111H268.564V63.2088H270.876Z" fill="white"/>
<path d="M278.752 63.4247L282.581 54.5798C282.653 54.364 282.798 54.2202 283.015 54.2202C283.231 54.2202 283.376 54.364 283.448 54.5798L287.278 63.3528C287.35 63.4247 287.35 63.4966 287.35 63.5685C287.35 63.7124 287.205 63.9281 287.061 63.9281C286.916 63.9281 286.772 63.7843 286.699 63.6404L285.616 61.1955H280.269L279.185 63.6404C279.113 63.7843 279.041 63.9281 278.896 63.9281C278.752 63.9281 278.607 63.7843 278.607 63.6404C278.752 63.5685 278.752 63.4966 278.752 63.4247ZM285.471 60.5483L283.087 55.0112L280.703 60.5483H285.471Z" fill="white"/>
</svg>
