<svg width="506" height="182" viewBox="0 0 506 182" fill="none" xmlns="http://www.w3.org/2000/svg">
<path d="M84.6475 65.1973C84.6475 66.929 84.333 68.5104 83.7041 69.9414C83.0843 71.3724 82.2139 72.5391 81.0928 73.4414L85.3311 76.0801L82.5146 78.2539L77.7432 75.041C77.3877 75.1139 77.0277 75.1732 76.6631 75.2188C76.3076 75.2643 75.9521 75.2871 75.5967 75.2871C72.9079 75.2871 70.734 74.3346 69.0752 72.4297C67.4255 70.5247 66.6006 68.1139 66.6006 65.1973V64.8965C66.6006 61.998 67.4255 59.5918 69.0752 57.6777C70.7249 55.7637 72.8942 54.8066 75.583 54.8066C78.2809 54.8066 80.4639 55.7637 82.1318 57.6777C83.8089 59.5918 84.6475 61.998 84.6475 64.8965V65.1973ZM80.6689 64.8691C80.6689 62.8092 80.2406 61.1367 79.3838 59.8516C78.527 58.5664 77.2601 57.9238 75.583 57.9238C73.9059 57.9238 72.6527 58.5618 71.8232 59.8379C71.0029 61.1139 70.5928 62.791 70.5928 64.8691V65.1973C70.5928 67.2936 71.0075 68.9844 71.8369 70.2695C72.6755 71.5456 73.9287 72.1836 75.5967 72.1836C77.2829 72.1836 78.5498 71.5456 79.3975 70.2695C80.2451 68.9844 80.6689 67.2936 80.6689 65.1973V64.8691ZM94.5341 55.0938V57.5L92.4013 57.9102V68.3008C92.4013 69.6133 92.7522 70.5977 93.4541 71.2539C94.165 71.901 95.1357 72.2246 96.3662 72.2246C97.6149 72.2246 98.5947 71.901 99.3056 71.2539C100.017 70.6068 100.372 69.6224 100.372 68.3008V57.9102L98.2529 57.5V55.0938H106.497V57.5L104.364 57.9102V68.3008C104.364 70.5339 103.626 72.2565 102.149 73.4688C100.682 74.681 98.7542 75.2871 96.3662 75.2871C93.9873 75.2871 92.0641 74.681 90.5966 73.4688C89.1383 72.2565 88.4091 70.5339 88.4091 68.3008V57.9102L86.29 57.5V55.0938H88.4091H92.4013H94.5341ZM120.786 66.25H114.046V71.9375H120.472L120.649 69.5586H123.684V75H107.934V72.6074L110.054 72.1973V57.9102L107.934 57.5V55.0938H110.054H123.657V60.5488H120.595L120.417 58.1699H114.046V63.1738H120.786V66.25ZM116.261 50.0352H120.485L120.513 50.1172L116.739 53.6719H113.54L116.261 50.0352ZM146.028 66.25H139.288V71.9375H145.714L145.891 69.5586H148.927V75H133.177V72.6074L135.296 72.1973V57.9102L133.177 57.5V55.0938H135.296H148.899V60.5488H145.837L145.659 58.1699H139.288V63.1738H146.028V66.25ZM166.428 61.4512H163.434L162.915 58.7168C162.568 58.498 162.063 58.3066 161.397 58.1426C160.732 57.9785 160.025 57.8965 159.278 57.8965C158.184 57.8965 157.337 58.1289 156.735 58.5938C156.143 59.0495 155.846 59.6419 155.846 60.3711C155.846 61.0456 156.156 61.6016 156.776 62.0391C157.405 62.4674 158.485 62.9232 160.016 63.4062C162.213 64.0169 163.876 64.8236 165.007 65.8262C166.146 66.8288 166.716 68.1458 166.716 69.7773C166.716 71.4818 166.041 72.8262 164.692 73.8105C163.343 74.7949 161.566 75.2871 159.36 75.2871C157.783 75.2871 156.357 75.0365 155.081 74.5352C153.814 74.0339 152.757 73.3411 151.909 72.457V68.3008H154.999L155.423 71.1309C155.824 71.459 156.366 71.7324 157.05 71.9512C157.742 72.1608 158.512 72.2656 159.36 72.2656C160.454 72.2656 161.283 72.0423 161.848 71.5957C162.423 71.1491 162.71 70.5521 162.71 69.8047C162.71 69.0391 162.436 68.4238 161.889 67.959C161.352 67.4941 160.404 67.0566 159.046 66.6465C156.685 65.9629 154.899 65.1517 153.686 64.2129C152.474 63.2741 151.868 61.9889 151.868 60.3574C151.868 58.7441 152.552 57.4271 153.919 56.4062C155.286 55.3763 157.004 54.8477 159.073 54.8203C160.604 54.8203 161.999 55.0527 163.257 55.5176C164.514 55.9824 165.572 56.6022 166.428 57.377V61.4512ZM175.647 75V72.6074L177.766 72.1973V57.9102L175.647 57.5V55.0938H177.766H181.758H183.891V57.5L181.758 57.9102V71.9375H187.378L187.569 69.4355H190.618V75H175.647ZM192.096 72.6074L193.518 72.4023L199.575 55.0938H203.663L209.678 72.4023L211.1 72.6074V75H204.319V72.6074L205.7 72.3613L204.825 69.627H198.372L197.497 72.3613L198.878 72.6074V75H192.096V72.6074ZM199.315 66.6875H203.881L201.639 59.6738H201.557L199.315 66.6875Z" fill="#0F69C4"/>
<path d="M37.3828 79.1211C37.3112 84.1699 36.5413 87.876 35.0732 90.2393C33.641 92.5667 30.7943 95.3776 26.5332 98.6719C23.9551 100.749 21.8962 103.005 20.3564 105.439C18.8525 107.839 18.1006 110.506 18.1006 113.442C18.1006 116.665 18.96 119.207 20.6787 121.069C22.4333 122.931 24.9398 123.862 28.1982 123.862C30.8122 123.862 33.0322 123.092 34.8584 121.553C36.6846 120.013 37.6514 117.721 37.7588 114.678H52.959L53.0664 115C53.138 121.839 50.8464 127.067 46.1914 130.684C41.5723 134.336 35.5745 136.162 28.1982 136.162C20.1058 136.162 13.7858 134.139 9.23828 130.093C4.69076 126.047 2.41699 120.532 2.41699 113.55C2.41699 109.074 3.74186 104.902 6.3916 101.035C9.04134 97.168 12.3893 93.8916 16.4355 91.2061C18.584 89.5947 19.9984 87.9476 20.6787 86.2646C21.3949 84.5459 21.7529 82.1647 21.7529 79.1211H37.3828ZM21.6455 56.8848H37.4365V70.3662H21.6455V56.8848Z" fill="#0F69C4"/>
<path d="M81.7529 98.064H78.0103L77.3608 94.646C76.9279 94.3726 76.2956 94.1333 75.4639 93.9282C74.6322 93.7231 73.7492 93.6206 72.8149 93.6206C71.4478 93.6206 70.3882 93.9111 69.6362 94.4922C68.8957 95.0618 68.5254 95.8024 68.5254 96.7139C68.5254 97.557 68.9128 98.252 69.6875 98.7988C70.4736 99.3343 71.8237 99.904 73.7378 100.508C76.4836 101.271 78.5628 102.279 79.9756 103.533C81.3997 104.786 82.1118 106.432 82.1118 108.472C82.1118 110.602 81.2687 112.283 79.5825 113.513C77.8963 114.744 75.6746 115.359 72.9175 115.359C70.9465 115.359 69.1634 115.046 67.5684 114.419C65.9847 113.792 64.6631 112.926 63.6035 111.821V106.626H67.4658L67.9956 110.164C68.4969 110.574 69.1748 110.916 70.0293 111.189C70.8952 111.451 71.8579 111.582 72.9175 111.582C74.2847 111.582 75.3215 111.303 76.0278 110.745C76.7456 110.186 77.1045 109.44 77.1045 108.506C77.1045 107.549 76.7627 106.78 76.0791 106.199C75.4069 105.618 74.222 105.071 72.5244 104.558C69.5736 103.704 67.3405 102.69 65.8252 101.516C64.3099 100.343 63.5522 98.7362 63.5522 96.6968C63.5522 94.6802 64.4067 93.0339 66.1157 91.7578C67.8247 90.4704 69.9723 89.8096 72.5586 89.7754C74.4727 89.7754 76.2158 90.0659 77.7881 90.647C79.3604 91.228 80.682 92.0028 81.7529 92.9712V98.064ZM100.496 104.062H92.0706V111.172H100.103L100.325 108.198H104.119V115H84.4314V112.009L87.0804 111.497V93.6377L84.4314 93.125V90.1172H87.0804H104.085V96.936H100.257L100.034 93.9624H92.0706V100.217H100.496V104.062ZM127.527 98.5083H123.819L123.306 95.1929C122.816 94.703 122.195 94.3156 121.443 94.0308C120.703 93.7459 119.826 93.6035 118.812 93.6035C116.647 93.6035 114.978 94.3896 113.804 95.9619C112.642 97.5342 112.061 99.585 112.061 102.114V102.986C112.061 105.515 112.642 107.572 113.804 109.155C114.966 110.739 116.607 111.531 118.726 111.531C119.706 111.531 120.6 111.388 121.409 111.104C122.23 110.819 122.862 110.431 123.306 109.941L123.819 106.626H127.527V111.548C126.525 112.71 125.243 113.639 123.682 114.333C122.133 115.017 120.395 115.359 118.47 115.359C115.132 115.359 112.397 114.202 110.267 111.89C108.136 109.577 107.071 106.609 107.071 102.986V102.148C107.071 98.5368 108.13 95.5688 110.25 93.2446C112.369 90.9204 115.109 89.7583 118.47 89.7583C120.395 89.7583 122.133 90.1115 123.682 90.8179C125.232 91.5129 126.513 92.4357 127.527 93.5864V98.5083ZM141.366 90.1172C144.191 90.1172 146.407 90.7666 148.014 92.0654C149.62 93.3529 150.423 95.1359 150.423 97.4146C150.423 98.6678 150.087 99.7559 149.415 100.679C148.743 101.602 147.757 102.348 146.458 102.917C147.928 103.35 148.982 104.074 149.62 105.088C150.269 106.09 150.594 107.338 150.594 108.831V110.095C150.594 110.642 150.702 111.069 150.919 111.377C151.135 111.673 151.494 111.85 151.995 111.907L152.611 111.992V115H150.03C148.401 115 147.256 114.561 146.595 113.684C145.934 112.807 145.604 111.673 145.604 110.283V108.865C145.604 107.657 145.279 106.711 144.63 106.028C143.992 105.333 143.086 104.968 141.912 104.934H137.828V111.497L140.494 112.009V115H130.189V112.009L132.838 111.497V93.6377L130.189 93.125V90.1172H132.838H141.366ZM137.828 101.089H141.28C142.67 101.089 143.713 100.793 144.408 100.2C145.103 99.6077 145.45 98.7533 145.45 97.6367C145.45 96.5202 145.103 95.6315 144.408 94.9707C143.724 94.2985 142.71 93.9624 141.366 93.9624H137.828V101.089ZM170.67 104.062H162.245V111.172H170.277L170.499 108.198H174.293V115H154.606V112.009L157.255 111.497V93.6377L154.606 93.125V90.1172H157.255H174.259V96.936H170.431L170.209 93.9624H162.245V100.217H170.67V104.062ZM199.564 90.1172V96.748H195.736L195.531 93.9624H190.951V111.497L193.617 112.009V115H183.295V112.009L185.961 111.497V93.9624H181.398L181.193 96.748H177.382V90.1172H199.564ZM198.227 112.009L200.004 111.753L207.575 90.1172H212.685L220.204 111.753L221.982 112.009V115H213.505V112.009L215.231 111.702L214.137 108.284H206.071L204.977 111.702L206.703 112.009V115H198.227V112.009ZM207.25 104.609H212.958L210.156 95.8423H210.053L207.25 104.609ZM235.17 90.1172C237.996 90.1172 240.212 90.7666 241.818 92.0654C243.425 93.3529 244.228 95.1359 244.228 97.4146C244.228 98.6678 243.892 99.7559 243.22 100.679C242.548 101.602 241.562 102.348 240.263 102.917C241.733 103.35 242.787 104.074 243.425 105.088C244.074 106.09 244.399 107.338 244.399 108.831V110.095C244.399 110.642 244.507 111.069 244.724 111.377C244.94 111.673 245.299 111.85 245.8 111.907L246.416 111.992V115H243.835C242.206 115 241.061 114.561 240.4 113.684C239.739 112.807 239.409 111.673 239.409 110.283V108.865C239.409 107.657 239.084 106.711 238.435 106.028C237.797 105.333 236.891 104.968 235.717 104.934H231.633V111.497L234.299 112.009V115H223.994V112.009L226.643 111.497V93.6377L223.994 93.125V90.1172H226.643H235.17ZM231.633 101.089H235.085C236.475 101.089 237.517 100.793 238.212 100.2C238.907 99.6077 239.255 98.7533 239.255 97.6367C239.255 96.5202 238.907 95.6315 238.212 94.9707C237.529 94.2985 236.515 93.9624 235.17 93.9624H231.633V101.089ZM248.393 93.125V90.1172H258.699V93.125L256.033 93.6377V111.497L258.699 112.009V115H248.393V112.009L251.059 111.497V93.6377L248.393 93.125ZM253.657 83.811H258.938L258.972 83.9136L254.255 88.3569H250.256L253.657 83.811ZM260.711 112.009L262.488 111.753L270.059 90.1172H275.169L282.688 111.753L284.465 112.009V115H275.989V112.009L277.715 111.702L276.621 108.284H268.555L267.461 111.702L269.187 112.009V115H260.711V112.009ZM269.734 104.609H275.442L272.639 95.8423H272.537L269.734 104.609ZM306.605 90.1172C309.647 90.1172 312.153 91.0913 314.124 93.0396C316.095 94.9764 317.081 97.4658 317.081 100.508V104.626C317.081 107.68 316.095 110.175 314.124 112.112C312.153 114.037 309.647 115 306.605 115H295.411V112.009L298.06 111.497V93.6377L295.411 93.125V90.1172H298.06H306.605ZM303.05 93.9624V111.172H306.348C308.137 111.172 309.538 110.568 310.552 109.36C311.566 108.153 312.073 106.575 312.073 104.626V100.474C312.073 98.5482 311.566 96.9816 310.552 95.7739C309.538 94.5662 308.137 93.9624 306.348 93.9624H303.05ZM335.96 104.062H327.535V111.172H335.567L335.79 108.198H339.583V115H319.896V112.009L322.545 111.497V93.6377L319.896 93.125V90.1172H322.545H339.549V96.936H335.721L335.499 93.9624H327.535V100.217H335.96V104.062Z" fill="#0F69C4"/>
<path d="M94.2197 130.965L94.1025 130.945L86.4854 152H82.6572L75.0791 131.023L74.9619 131.043L75.5088 143.523V147.996L78.5557 148.582V152H66.7783V148.582L69.8057 147.996V127.586L66.7783 127V123.562H69.8057H77.2471L84.4932 144.52H84.6104L91.915 123.562H102.423V127L99.376 127.586V147.996L102.423 148.582V152H90.6455V148.582L93.6729 147.996V143.523L94.2197 130.965ZM130.913 137.996C130.913 142.163 129.721 145.607 127.338 148.328C124.956 151.049 121.837 152.41 117.983 152.41C114.142 152.41 111.036 151.049 108.666 148.328C106.31 145.607 105.131 142.163 105.131 137.996V137.566C105.131 133.426 106.31 129.988 108.666 127.254C111.023 124.52 114.122 123.152 117.963 123.152C121.818 123.152 124.936 124.52 127.319 127.254C129.715 129.988 130.913 133.426 130.913 137.566V137.996ZM125.229 137.527C125.229 134.585 124.617 132.195 123.393 130.359C122.169 128.523 120.359 127.605 117.963 127.605C115.568 127.605 113.777 128.517 112.592 130.34C111.42 132.163 110.834 134.559 110.834 137.527V137.996C110.834 140.991 111.427 143.406 112.612 145.242C113.81 147.065 115.6 147.977 117.983 147.977C120.392 147.977 122.202 147.065 123.413 145.242C124.624 143.406 125.229 140.991 125.229 137.996V137.527ZM146.434 123.562C149.91 123.562 152.775 124.676 155.027 126.902C157.28 129.116 158.406 131.961 158.406 135.438V140.145C158.406 143.634 157.28 146.486 155.027 148.699C152.775 150.9 149.91 152 146.434 152H133.641V148.582L136.668 147.996V127.586L133.641 127V123.562H136.668H146.434ZM142.371 127.957V147.625H146.141C148.185 147.625 149.786 146.935 150.945 145.555C152.104 144.174 152.684 142.371 152.684 140.145V135.398C152.684 133.198 152.104 131.408 150.945 130.027C149.786 128.647 148.185 127.957 146.141 127.957H142.371ZM180.021 139.5H170.392V147.625H179.572L179.826 144.227H184.162V152H161.662V148.582L164.689 147.996V127.586L161.662 127V123.562H164.689H184.123V131.355H179.748L179.494 127.957H170.392V135.105H180.021V139.5ZM200.425 123.562C203.654 123.562 206.186 124.305 208.022 125.789C209.858 127.26 210.776 129.298 210.776 131.902C210.776 133.335 210.392 134.578 209.624 135.633C208.856 136.688 207.729 137.54 206.245 138.191C207.925 138.686 209.129 139.513 209.858 140.672C210.601 141.818 210.972 143.243 210.972 144.949V146.395C210.972 147.02 211.095 147.508 211.343 147.859C211.59 148.198 212 148.4 212.573 148.465L213.276 148.562V152H210.327C208.465 152 207.157 151.499 206.401 150.496C205.646 149.493 205.268 148.198 205.268 146.609V144.988C205.268 143.608 204.897 142.527 204.155 141.746C203.426 140.952 202.391 140.535 201.05 140.496H196.382V147.996L199.429 148.582V152H187.651V148.582L190.679 147.996V127.586L187.651 127V123.562H190.679H200.425ZM196.382 136.102H200.327C201.916 136.102 203.107 135.763 203.901 135.086C204.696 134.409 205.093 133.432 205.093 132.156C205.093 130.88 204.696 129.865 203.901 129.109C203.12 128.341 201.961 127.957 200.425 127.957H196.382V136.102ZM244.657 123.562V127L241.61 127.586V152H235.926L224.442 132.859L224.325 132.879V147.996L227.372 148.582V152H215.594V148.582L218.622 147.996V127.586L215.594 127V123.562H218.622H224.325L235.809 142.703L235.926 142.684V127.586L232.879 127V123.562H241.61H244.657ZM246.916 127V123.562H258.693V127L255.646 127.586V147.996L258.693 148.582V152H246.916V148.582L249.963 147.996V127.586L246.916 127ZM282.554 123.562V126.414L268.628 147.625H278.531L278.999 144.188H283.335L282.906 152H261.675V149.031L275.542 127.957H266.499L266.05 131.395H261.695L262.124 123.562H282.554ZM285.419 148.582L287.45 148.289L296.102 123.562H301.942L310.536 148.289L312.567 148.582V152H302.88V148.582L304.852 148.23L303.602 144.324H294.384L293.134 148.23L295.106 148.582V152H285.419V148.582ZM295.731 140.125H302.255L299.052 130.105H298.934L295.731 140.125ZM337.034 133.152H332.795L332.209 129.363C331.649 128.803 330.94 128.361 330.08 128.035C329.234 127.71 328.231 127.547 327.073 127.547C324.599 127.547 322.691 128.445 321.35 130.242C320.022 132.039 319.358 134.383 319.358 137.273V138.27C319.358 141.16 320.022 143.51 321.35 145.32C322.678 147.13 324.553 148.035 326.975 148.035C328.095 148.035 329.117 147.872 330.041 147.547C330.979 147.221 331.702 146.779 332.209 146.219L332.795 142.43H337.034V148.055C335.888 149.383 334.423 150.444 332.639 151.238C330.868 152.02 328.883 152.41 326.682 152.41C322.867 152.41 319.742 151.089 317.307 148.445C314.872 145.802 313.655 142.41 313.655 138.27V137.312C313.655 133.185 314.866 129.793 317.287 127.137C319.709 124.48 322.841 123.152 326.682 123.152C328.883 123.152 330.868 123.556 332.639 124.363C334.41 125.158 335.875 126.212 337.034 127.527V133.152ZM340.094 127V123.562H351.871V127L348.824 127.586V147.996L351.871 148.582V152H340.094V148.582L343.14 147.996V127.586L340.094 127ZM380.497 137.996C380.497 142.163 379.306 145.607 376.923 148.328C374.54 151.049 371.422 152.41 367.568 152.41C363.727 152.41 360.621 151.049 358.251 148.328C355.895 145.607 354.716 142.163 354.716 137.996V137.566C354.716 133.426 355.895 129.988 358.251 127.254C360.608 124.52 363.707 123.152 367.548 123.152C371.402 123.152 374.521 124.52 376.904 127.254C379.299 129.988 380.497 133.426 380.497 137.566V137.996ZM374.814 137.527C374.814 134.585 374.202 132.195 372.978 130.359C371.754 128.523 369.944 127.605 367.548 127.605C365.152 127.605 363.362 128.517 362.177 130.34C361.005 132.163 360.419 134.559 360.419 137.527V137.996C360.419 140.991 361.012 143.406 362.197 145.242C363.395 147.065 365.185 147.977 367.568 147.977C369.977 147.977 371.786 147.065 372.997 145.242C374.208 143.406 374.814 140.991 374.814 137.996V137.527ZM368.056 116.355H374.091L374.13 116.473L368.74 121.551H364.169L368.056 116.355ZM412.288 123.562V127L409.241 127.586V152H403.557L392.073 132.859L391.956 132.879V147.996L395.003 148.582V152H383.225V148.582L386.253 147.996V127.586L383.225 127V123.562H386.253H391.956L403.44 142.703L403.557 142.684V127.586L400.511 127V123.562H409.241H412.288Z" fill="#E22C2C"/>
<path d="M419.299 129.764C419.335 124.751 420.069 121.08 421.501 118.753C422.97 116.425 425.87 113.597 430.203 110.267C432.745 108.19 434.768 105.952 436.272 103.553C437.812 101.154 438.582 98.4681 438.582 95.4961C438.582 92.2018 437.704 89.6237 435.95 87.7617C434.231 85.8997 431.76 84.9688 428.538 84.9688C425.888 84.9688 423.632 85.7565 421.77 87.332C419.944 88.9076 419.013 91.2171 418.977 94.2607H403.723L403.616 93.9385C403.508 87.0635 405.764 81.7998 410.383 78.1475C415.038 74.4951 421.09 72.6689 428.538 72.6689C436.558 72.6689 442.843 74.71 447.39 78.792C451.973 82.8382 454.265 88.3525 454.265 95.335C454.265 99.8825 452.922 104.09 450.237 107.957C447.587 111.824 444.257 115.065 440.247 117.679C438.062 119.362 436.63 121.062 435.95 122.781C435.269 124.464 434.929 126.792 434.929 129.764H419.299ZM435.037 152H419.246V138.572H435.037V152Z" fill="#E22C2C"/>
</svg>
